<svg width="18" height="18" viewBox="0 0 18 18" fill="none" xmlns="http://www.w3.org/2000/svg">
<path d="M16.1431 4.10199L13.8931 1.85199C13.8408 1.79969 13.7788 1.7582 13.7105 1.72989C13.6422 1.70158 13.569 1.68701 13.4951 1.68701C13.4212 1.68701 13.348 1.70158 13.2797 1.72989C13.2114 1.7582 13.1494 1.79969 13.0971 1.85199L6.34715 8.60199C6.29493 8.65426 6.25352 8.71632 6.22529 8.7846C6.19706 8.85289 6.18256 8.92606 6.18262 8.99995V11.25C6.18262 11.3991 6.24188 11.5422 6.34737 11.6477C6.45286 11.7532 6.59593 11.8125 6.74512 11.8125H8.99512C9.06901 11.8125 9.14219 11.798 9.21047 11.7698C9.27876 11.7416 9.34081 11.7001 9.39309 11.6479L16.1431 4.89792C16.1954 4.84568 16.2369 4.78364 16.2652 4.71536C16.2935 4.64707 16.3081 4.57388 16.3081 4.49995C16.3081 4.42603 16.2935 4.35284 16.2652 4.28455C16.2369 4.21626 16.1954 4.15423 16.1431 4.10199ZM8.76238 10.6875H7.30762V9.23269L11.8076 4.73269L13.2624 6.18745L8.76238 10.6875ZM14.0576 5.39222L12.6029 3.93745L13.4951 3.04519L14.9499 4.49995L14.0576 5.39222ZM15.7451 8.43745V14.625C15.7451 14.9233 15.6266 15.2095 15.4156 15.4204C15.2046 15.6314 14.9185 15.75 14.6201 15.75H3.37012C3.07175 15.75 2.7856 15.6314 2.57462 15.4204C2.36364 15.2095 2.24512 14.9233 2.24512 14.625V3.37495C2.24512 3.07659 2.36364 2.79044 2.57462 2.57946C2.7856 2.36848 3.07175 2.24995 3.37012 2.24995H9.55762C9.7068 2.24995 9.84988 2.30922 9.95537 2.41471C10.0609 2.5202 10.1201 2.66327 10.1201 2.81245C10.1201 2.96164 10.0609 3.10471 9.95537 3.2102C9.84988 3.31569 9.7068 3.37495 9.55762 3.37495H3.37012V14.625H14.6201V8.43745C14.6201 8.28827 14.6794 8.1452 14.7849 8.03971C14.8904 7.93422 15.0334 7.87495 15.1826 7.87495C15.3318 7.87495 15.4749 7.93422 15.5804 8.03971C15.6859 8.1452 15.7451 8.28827 15.7451 8.43745Z" fill="#1228F3"/>
</svg>
