<svg width="18" height="18" viewBox="0 0 18 18" fill="none" xmlns="http://www.w3.org/2000/svg">
<path d="M8.99512 16.5601C8.77012 16.5601 8.54512 16.5076 8.35762 16.4026C6.95512 15.6376 4.48762 14.8276 2.94262 14.6251L2.72512 14.5951C1.74262 14.4751 0.932617 13.5526 0.932617 12.5551V3.49513C0.932617 2.90263 1.16512 2.36263 1.59262 1.97263C2.02012 1.58263 2.57512 1.39513 3.16012 1.44763C4.81012 1.57513 7.30012 2.40013 8.71012 3.28513L8.89012 3.39013C8.94262 3.42013 9.05512 3.42013 9.10012 3.39763L9.22012 3.32263C10.6301 2.43763 13.1201 1.59763 14.7776 1.45513C14.7926 1.45513 14.8526 1.45513 14.8676 1.45513C15.4151 1.40263 15.9776 1.59763 16.3976 1.98763C16.8251 2.37763 17.0576 2.91763 17.0576 3.51013V12.5626C17.0576 13.5676 16.2476 14.4826 15.2576 14.6026L15.0101 14.6326C13.4651 14.8351 10.9901 15.6526 9.61762 16.4101C9.43762 16.5151 9.22012 16.5601 8.99512 16.5601ZM2.98012 2.56513C2.74012 2.56513 2.52262 2.64763 2.35012 2.80513C2.16262 2.97763 2.05762 3.22513 2.05762 3.49513V12.5551C2.05762 12.9976 2.44012 13.4251 2.86762 13.4851L3.09262 13.5151C4.78012 13.7401 7.36762 14.5876 8.86762 15.4051C8.93512 15.4351 9.03262 15.4426 9.07012 15.4276C10.5701 14.5951 13.1726 13.7401 14.8676 13.5151L15.1226 13.4851C15.5501 13.4326 15.9326 12.9976 15.9326 12.5551V3.50263C15.9326 3.22513 15.8276 2.98513 15.6401 2.80513C15.4451 2.63263 15.1976 2.55013 14.9201 2.56513C14.9051 2.56513 14.8451 2.56513 14.8301 2.56513C13.3976 2.69263 11.0876 3.46513 9.82762 4.25263L9.70762 4.33513C9.29512 4.59013 8.71012 4.59013 8.31262 4.34263L8.13262 4.23763C6.85012 3.45013 4.54012 2.68513 3.07012 2.56513C3.04012 2.56513 3.01012 2.56513 2.98012 2.56513Z" fill="#1228F3"/>
<path d="M8.99512 15.9302C8.68762 15.9302 8.43262 15.6752 8.43262 15.3677V4.11768C8.43262 3.81018 8.68762 3.55518 8.99512 3.55518C9.30262 3.55518 9.55762 3.81018 9.55762 4.11768V15.3677C9.55762 15.6827 9.30262 15.9302 8.99512 15.9302Z" fill="#1228F3"/>
<path d="M5.80762 6.93018H4.12012C3.81262 6.93018 3.55762 6.67518 3.55762 6.36768C3.55762 6.06018 3.81262 5.80518 4.12012 5.80518H5.80762C6.11512 5.80518 6.37012 6.06018 6.37012 6.36768C6.37012 6.67518 6.11512 6.93018 5.80762 6.93018Z" fill="#1228F3"/>
<path d="M6.37012 9.18018H4.12012C3.81262 9.18018 3.55762 8.92518 3.55762 8.61768C3.55762 8.31018 3.81262 8.05518 4.12012 8.05518H6.37012C6.67762 8.05518 6.93262 8.31018 6.93262 8.61768C6.93262 8.92518 6.67762 9.18018 6.37012 9.18018Z" fill="#1228F3"/>
</svg>
