<svg width="20" height="20" viewBox="0 0 20 20" fill="none" xmlns="http://www.w3.org/2000/svg">
<g clip-path="url(#clip0_2920_23062)">
<path d="M19.1666 10.0562C19.1666 4.96263 15.0625 0.833496 9.99992 0.833496C4.9373 0.833496 0.833252 4.96263 0.833252 10.0562C0.833252 14.6595 4.18537 18.4749 8.56767 19.1668V12.7221H6.24016V10.0562H8.56767V8.02431C8.56767 5.71287 9.93617 4.43611 12.03 4.43611C13.0329 4.43611 14.0819 4.61624 14.0819 4.61624V6.88589H12.9261C11.7873 6.88589 11.4323 7.59681 11.4323 8.32616V10.0562H13.9745L13.5681 12.7221H11.4322V19.1668C15.8145 18.4749 19.1666 14.6595 19.1666 10.0562Z" fill="#1228F3"/>
</g>
<defs>
<clipPath id="clip0_2920_23062">
<rect width="20" height="20" fill="white"/>
</clipPath>
</defs>
</svg>
