<svg width="21" height="20" viewBox="0 0 21 20" fill="none" xmlns="http://www.w3.org/2000/svg">
<path d="M16.3382 2.5C16.7802 2.5 17.2042 2.67559 17.5167 2.98816C17.8293 3.30072 18.0049 3.72464 18.0049 4.16667V15.8333C18.0049 16.2754 17.8293 16.6993 17.5167 17.0118C17.2042 17.3244 16.7802 17.5 16.3382 17.5H4.67155C4.22952 17.5 3.8056 17.3244 3.49304 17.0118C3.18048 16.6993 3.00488 16.2754 3.00488 15.8333V4.16667C3.00488 3.72464 3.18048 3.30072 3.49304 2.98816C3.8056 2.67559 4.22952 2.5 4.67155 2.5H16.3382ZM15.9215 15.4167V11C15.9209 10.2797 15.6345 9.58909 15.1251 9.07976C14.6158 8.57043 13.9252 8.28399 13.2049 8.28333C12.4965 8.28333 11.6715 8.71667 11.2715 9.36667V8.44167H8.94655V15.4167H11.2715V11.3083C11.2715 10.6667 11.7882 10.1417 12.4299 10.1417C12.7393 10.1417 13.036 10.2646 13.2548 10.4834C13.4736 10.7022 13.5965 10.9989 13.5965 11.3083V15.4167H15.9215ZM6.23822 7.13333C6.60952 7.13333 6.96561 6.98583 7.22817 6.72328C7.49072 6.46073 7.63822 6.10464 7.63822 5.73333C7.63822 4.95833 7.01322 4.325 6.23822 4.325C5.8647 4.325 5.50649 4.47338 5.24237 4.73749C4.97826 5.0016 4.82988 5.35982 4.82988 5.73333C4.82988 6.50833 5.46322 7.13333 6.23822 7.13333ZM7.39655 15.4167V8.44167H5.08822V15.4167H7.39655Z" fill="#1228F3"/>
</svg>
