<svg width="20" height="20" viewBox="0 0 20 20" fill="none" xmlns="http://www.w3.org/2000/svg">
<path d="M8.33333 6.66667L13.0833 13.3333H11.8333L7.16667 6.66667H8.33333ZM17.5 5V15C17.5 15.663 17.2366 16.2989 16.7678 16.7678C16.2989 17.2366 15.663 17.5 15 17.5H5C4.33696 17.5 3.70107 17.2366 3.23223 16.7678C2.76339 16.2989 2.5 15.663 2.5 15V5C2.5 4.33696 2.76339 3.70107 3.23223 3.23223C3.70107 2.76339 4.33696 2.5 5 2.5H15C15.663 2.5 16.2989 2.76339 16.7678 3.23223C17.2366 3.70107 17.5 4.33696 17.5 5ZM14.5833 14.1667L11.1667 9.16667L14 5.83333H12.9167L10.6667 8.5L8.83333 5.83333H5.58333L8.91667 10.5L5.66667 14.1667H6.75L9.25 11.25L11.3333 14.1667H14.5H14.5833Z" fill="#1228F3"/>
</svg>
