<svg width="20" height="20" viewBox="0 0 20 20" fill="none" xmlns="http://www.w3.org/2000/svg">
<path d="M3.2452 10.0002C3.2452 8.57516 4.40353 7.41683 5.82853 7.41683H9.16187V5.8335H5.82853C3.52853 5.8335 1.66187 7.70016 1.66187 10.0002C1.66187 12.3002 3.52853 14.1668 5.82853 14.1668H9.16187V12.5835H5.82853C4.40353 12.5835 3.2452 11.4252 3.2452 10.0002ZM6.66187 10.8335H13.3285V9.16683H6.66187V10.8335ZM14.1619 5.8335H10.8285V7.41683H14.1619C15.5869 7.41683 16.7452 8.57516 16.7452 10.0002C16.7452 11.4252 15.5869 12.5835 14.1619 12.5835H10.8285V14.1668H14.1619C16.4619 14.1668 18.3285 12.3002 18.3285 10.0002C18.3285 7.70016 16.4619 5.8335 14.1619 5.8335Z" fill="#1228F3"/>
</svg>
