<svg width="21" height="20" viewBox="0 0 21 20" fill="none" xmlns="http://www.w3.org/2000/svg">
<path d="M8.82853 12.4998L13.1535 9.99984L8.82853 7.49984V12.4998ZM18.4619 5.97484C18.5702 6.3665 18.6452 6.8915 18.6952 7.55817C18.7535 8.22484 18.7785 8.79984 18.7785 9.29984L18.8285 9.99984C18.8285 11.8248 18.6952 13.1665 18.4619 14.0248C18.2535 14.7748 17.7702 15.2582 17.0202 15.4665C16.6285 15.5748 15.9119 15.6498 14.8119 15.6998C13.7285 15.7582 12.7369 15.7832 11.8202 15.7832L10.4952 15.8332C7.00353 15.8332 4.82853 15.6998 3.9702 15.4665C3.2202 15.2582 2.73687 14.7748 2.52853 14.0248C2.4202 13.6332 2.3452 13.1082 2.2952 12.4415C2.23687 11.7748 2.21187 11.1998 2.21187 10.6998L2.16187 9.99984C2.16187 8.17484 2.2952 6.83317 2.52853 5.97484C2.73687 5.22484 3.2202 4.7415 3.9702 4.53317C4.36187 4.42484 5.07853 4.34984 6.17853 4.29984C7.26187 4.2415 8.25353 4.2165 9.1702 4.2165L10.4952 4.1665C13.9869 4.1665 16.1619 4.29984 17.0202 4.53317C17.7702 4.7415 18.2535 5.22484 18.4619 5.97484Z" fill="#1228F3"/>
</svg>
