<svg width="13" height="16" viewBox="0 0 13 16" fill="none" xmlns="http://www.w3.org/2000/svg">
<path d="M8.37149 0.667968L8.37143 0.667907C7.98993 0.287735 7.47894 0.0750031 6.94263 0.0750031L2.34375 0.075C1.22871 0.075 0.325 0.978709 0.325 2.09375L0.3252 13.9063C0.3252 15.0213 1.22891 15.925 2.34395 15.925H10.2188C11.3338 15.925 12.2375 15.0213 12.2375 13.9062V5.36987C12.2375 4.8337 12.0262 4.32263 11.6476 3.94409L8.37149 0.667968ZM10.8792 4.70937L10.8795 4.70967C10.9629 4.79163 11.0234 4.88972 11.0668 4.99688H7.75781C7.51472 4.99688 7.31563 4.79778 7.31563 4.55469V1.24599C7.42245 1.29054 7.5204 1.35057 7.6031 1.43325C7.6031 1.43325 7.6031 1.43325 7.60311 1.43325L10.8792 4.70937ZM11.1531 13.9063C11.1531 14.4213 10.7338 14.8406 10.2188 14.8406H2.34375C1.82873 14.8406 1.40937 14.4213 1.40937 13.9063V2.09375C1.40937 1.57873 1.82873 1.15938 2.34375 1.15938H6.23125V4.55469C6.23125 5.39749 6.91501 6.08125 7.75781 6.08125H11.1531V13.9063ZM3.27813 8.49219C3.27813 8.79051 3.522 9.03438 3.82031 9.03438H8.74219C9.04051 9.03438 9.28438 8.79051 9.28438 8.49219C9.28438 8.19387 9.04051 7.95 8.74219 7.95H3.82031C3.522 7.95 3.27813 8.19387 3.27813 8.49219ZM3.82031 9.91875C3.522 9.91875 3.27813 10.1626 3.27813 10.4609C3.27813 10.7593 3.522 11.0031 3.82031 11.0031H8.74219C9.04168 11.0031 9.28438 10.7604 9.28438 10.4609C9.28438 10.1614 9.04043 9.91875 8.74219 9.91875H3.82031ZM3.82031 11.8875C3.522 11.8875 3.27813 12.1314 3.27813 12.4297C3.27813 12.728 3.522 12.9719 3.82031 12.9719H8.74219C9.04168 12.9719 9.28438 12.7291 9.28438 12.4297C9.28438 12.1302 9.04043 11.8875 8.74219 11.8875H3.82031Z" fill="#141BEB" stroke="#141BEB" stroke-width="0.1"/>
</svg>
