<svg width="113" height="67" viewBox="0 0 113 67" fill="none" xmlns="http://www.w3.org/2000/svg">
<path d="M39.6164 0.0175935C40.2405 -0.0921612 40.5804 0.337058 40.984 0.599686C41.4381 0.975987 42.1338 1.32093 42.3595 1.80307C42.3489 2.26757 41.7169 2.56351 41.3265 2.87318C40.9309 3.12404 40.5671 3.53563 40.1051 3.69438C39.3615 3.81197 39.1119 3.44155 38.6339 3.12013C38.2117 2.78694 37.7152 2.48315 37.3514 2.11273C37.0805 1.57572 37.763 1.28565 38.1772 0.938751C38.6366 0.640846 39.0455 0.193985 39.6164 0.0175935Z" fill="#C15DFD"/>
<path d="M96.8175 4.84172C97.7735 4.61045 98.7852 4.92403 98.8144 5.72955C98.8888 6.51155 97.6752 7.03681 96.7644 6.65267C95.7819 6.22737 95.8271 5.25722 96.8175 4.84172Z" fill="#FD5384"/>
<path d="M34.4155 7.57668C34.5854 8.24305 34.2641 9.02308 34.5403 9.66397L35.1138 9.72082C34.9439 9.75805 34.7793 9.80705 34.6226 9.86585L34.604 10.299C34.6598 12.2471 35.8813 14.3168 38.0534 15.4771C38.8792 15.8161 39.5829 16.1532 40.5734 16.0631C40.7114 15.7416 40.7858 15.4183 40.8522 15.0851C41.4895 13.5563 43.2819 12.3451 45.454 12.1354C46.6516 12.1491 47.7244 12.8214 48.0324 13.6583C48.529 14.4991 48.0351 15.2164 47.6633 16.0121C47.0154 16.557 46.4126 17.0763 45.454 17.3174C44.6707 17.4703 43.9856 17.7368 43.1597 17.7839C43.1597 18.0387 43.1438 18.317 43.25 18.5619C43.6988 19.2244 44.1237 19.8653 44.8645 20.3807C45.5921 21.0079 46.5002 21.3274 47.4774 21.6782C48.3219 22.1231 47.8226 23.1207 46.7817 23.0638C44.9654 22.7993 43.343 21.5861 42.3074 20.5042C41.9993 20.0848 41.7524 19.6399 41.4417 19.2205C41.1443 18.803 41.0567 18.0837 40.5813 17.7799C37.979 17.5114 35.7166 16.361 34.3013 14.746C33.8233 14.2247 33.6002 13.6171 33.1541 13.0781C32.9231 12.2707 32.6124 11.4553 32.5089 10.6361L32.3708 10.2755C32.408 9.4327 32.2354 8.51939 32.4611 7.69427C32.7213 7.00438 33.9694 6.95735 34.4155 7.57668Z" fill="#76C1FD"/>
<path d="M45.8578 7.78664C49.8834 10.7677 54.063 13.8388 58.0621 16.8042C58.3011 16.9727 58.5082 17.202 58.8375 16.9649C62.964 13.8917 67.1542 10.8186 71.2967 7.75332C71.618 7.64552 72.0721 7.75724 72.4066 7.80428C76.9155 8.71171 81.7218 9.63679 86.2148 10.5462C86.7645 10.7187 87.0804 10.7892 87.6832 10.6853C86.7273 10.8402 85.6943 10.9284 84.7941 11.2008C85.1075 11.1106 85.2562 10.993 85.2349 10.848C84.8419 10.7539 84.4064 10.7422 83.9975 10.6932C82.0219 10.1542 79.9029 9.89942 77.9007 9.40748C75.7923 9.08018 73.8485 8.60196 71.7507 8.24134C71.1984 8.46085 70.7762 8.8685 70.3248 9.19189C67.1941 11.5144 64.0368 13.8251 60.9007 16.1496C60.4254 16.5141 59.8864 16.8277 59.4057 17.1863L59.3765 17.3784C61.4477 17.9762 63.7712 18.1898 65.9035 18.6935C67.6561 19.1188 69.4352 19.4148 71.209 19.7734C74.0371 20.3477 76.8757 20.8945 79.717 21.4139C81.0341 21.7862 82.4202 21.8921 83.7346 22.2625C85.2854 22.4271 86.6928 22.9093 88.2276 23.0798C90.3174 21.7353 92.3169 20.0988 94.335 18.6739C96.2177 17.2118 98.7351 15.444 100.586 14.0093C99.3777 13.5076 97.795 13.4508 96.4912 13.1313C95.4902 12.8275 94.4227 12.7432 93.3977 12.4982C92.6276 12.3552 91.8708 12.1259 91.0822 12.0612C91.5256 11.877 91.9717 11.9358 92.455 11.8789C92.6648 11.8554 92.8825 11.8613 93.1029 11.8966C95.761 12.4296 98.8147 13.0411 101.473 13.5468C101.868 13.6566 101.765 13.9956 101.473 14.1485C97.2507 17.2314 92.9303 20.4947 88.7056 23.5384C88.063 23.3718 87.6248 23.6129 87.0034 23.6795C83.7877 24.3655 80.2136 25.024 76.9925 25.6766C76.2915 25.5179 75.6489 25.2278 74.924 25.2024C73.5299 24.8398 72.1517 25.1044 70.7975 25.2611C70.1017 25.5826 69.8654 26.0451 70.3885 26.5723C70.5797 26.6331 70.7736 26.6919 70.9701 26.7487C70.2133 27.1956 69.422 27.125 68.551 27.3387C65.7203 27.8972 62.8737 28.4656 60.0616 29.0163C59.7085 29.1182 59.3526 29.1692 58.9968 29.1692C58.8109 28.299 58.9304 27.3876 58.9012 26.5018C58.8773 23.5894 58.9437 20.6691 58.8694 17.7586C58.6835 17.7528 58.4923 17.7547 58.3011 17.7625C58.2374 17.9919 58.2002 18.2271 58.1895 18.4662C58.155 21.9764 58.2321 25.5473 58.155 29.0496L57.6399 29.1476C49.1957 27.4602 40.3266 25.7021 31.8718 24.0401C30.7379 23.8677 29.6279 23.3855 28.4728 23.6893C28.3932 23.5756 28.2923 23.4757 28.1728 23.3875C23.9108 20.2477 19.6383 17.0942 15.3896 13.9466L15.2754 13.7506L15.7215 13.5311C21.1997 12.4885 26.9168 11.2753 32.3683 10.2777L32.5064 10.6383C32.1692 10.9009 31.7655 10.8892 31.3247 10.9774C26.9699 11.9122 22.5247 12.6786 18.1008 13.6076C17.5989 13.6938 17.02 13.78 16.5845 13.9839C16.5899 14.1896 16.9298 14.3523 17.0917 14.5032C20.6792 17.1452 24.2534 19.8048 27.8488 22.4428C28.2232 22.7113 28.5498 23.0053 28.9774 23.2327C29.6014 23.3816 30.3608 23.0269 30.9822 22.923C32.6206 22.7407 34.1528 22.3311 35.7646 22.0587C37.3127 21.6882 38.9113 21.4883 40.4461 21.0807C41.0409 20.7593 41.5215 20.5045 42.3049 20.5064C43.3405 21.5883 44.9629 22.8015 46.7792 23.0661C47.8202 23.1229 48.3194 22.1253 47.475 21.6804C46.4978 21.3296 45.5896 21.0101 44.862 20.383C45.4462 20.0615 46.1101 20.0164 46.6412 19.5794C48.0698 19.3266 49.4612 19.0149 50.8872 18.7601C52.4273 18.3388 54.0577 18.2525 55.5846 17.8076C56.19 17.7449 57.2389 17.5901 57.4885 17.1079C53.5665 14.2308 49.5329 11.2224 45.6082 8.36481C45.263 8.2237 44.716 8.36677 44.3336 8.40009C41.0913 9.03118 37.8597 9.72695 34.6015 10.3012L34.6201 9.86806C34.7768 9.80926 34.9414 9.76026 35.1114 9.72303C38.2368 9.06254 41.641 8.42361 44.801 7.78664C45.1116 7.74156 45.587 7.62593 45.8578 7.78664Z" fill="#00D4AA"/>
<path d="M63.2832 7.73451C64.1568 7.40917 65.304 7.9501 65.3093 8.66743C65.4128 9.29656 64.6215 9.87277 63.7744 9.79437C62.8981 9.82181 62.1334 9.07508 62.4388 8.46555C62.5556 8.12257 62.8291 7.86386 63.2832 7.73451Z" fill="#F9C160"/>
<path d="M45.6077 8.36528C49.5324 11.2228 53.566 14.2313 57.488 17.1084C57.2384 17.5905 56.1895 17.7454 55.5841 17.8081C54.0572 18.253 52.4268 18.3392 50.8866 18.7606C49.4607 19.0154 48.0692 19.327 46.6406 19.5798C46.1095 20.0169 45.4457 20.062 44.8615 20.3834C44.1207 19.868 43.6958 19.2271 43.247 18.5646C43.1408 18.3196 43.1567 18.0413 43.1567 17.7865C43.9826 17.7395 44.6677 17.473 45.451 17.3201C46.4096 17.079 47.0124 16.5596 47.6603 16.0148C48.0321 15.2191 48.526 14.5017 48.0294 13.6609C47.7214 12.8241 46.6486 12.1518 45.451 12.1381C43.2789 12.3478 41.4865 13.559 40.8492 15.0877C40.7828 15.4209 40.7084 15.7443 40.5704 16.0657C39.5799 16.1559 38.8762 15.8188 38.0504 15.4797C35.8782 14.3195 34.6568 12.2498 34.601 10.3017C37.8592 9.72741 41.0908 9.03164 44.3331 8.40055C44.7155 8.36723 45.2625 8.22416 45.6077 8.36528Z" fill="#00EDBE"/>
<path d="M71.7535 8.24463C73.8513 8.60525 75.7951 9.08347 77.9035 9.41077C79.9057 9.90271 82.0247 10.1575 84.0003 10.6965C84.4092 10.7455 84.8447 10.7572 85.2377 10.8513C85.259 10.9963 85.1103 11.1139 84.7969 11.2041C84.2738 11.4197 83.7215 11.6019 83.209 11.8293C81.3741 12.8641 79.9614 14.3086 79.3348 15.9549C79.2604 16.4155 79.1914 16.9172 79.3215 17.3758C79.7251 17.6384 80.1526 17.6345 80.6571 17.5836C81.0369 17.3425 81.3263 17.0485 81.4033 16.6742C81.5122 16.1176 81.7698 15.5668 82.0406 15.0435C82.8691 14.3105 83.3843 13.5834 84.5234 13.0405C86.3955 12.1664 88.9288 12.1037 91.085 12.0645C91.8736 12.1292 92.6304 12.3585 93.4005 12.5015C94.4255 12.7465 95.4929 12.8308 96.494 13.1346C97.7978 13.4541 99.3805 13.5109 100.589 14.0126C98.7379 15.4473 96.2205 17.2151 94.3378 18.6772C92.3197 20.1021 90.3202 21.7386 88.2304 23.0831C86.6956 22.9126 85.2882 22.4304 83.7374 22.2658C82.423 21.8954 81.0369 21.7895 79.7198 21.4171C76.8785 20.8978 74.0399 20.351 71.2118 19.7767C69.438 19.418 67.6589 19.1221 65.9063 18.6968C63.774 18.1931 61.4505 17.9795 59.3793 17.3817L59.4085 17.1896C59.8892 16.831 60.4282 16.5174 60.9035 16.1528C64.0396 13.8284 67.1969 11.5177 70.3276 9.19518C70.779 8.87179 71.2012 8.46414 71.7535 8.24463Z" fill="#00EDBE"/>
<path d="M96.4274 8.17317C97.4445 8.07518 97.9437 8.83171 97.4922 9.45692C96.8576 10.7269 95.2803 11.4952 93.5224 11.7245C93.1639 11.7794 92.7497 11.7285 92.4576 11.8813C91.9743 11.9382 91.5282 11.8794 91.0847 12.0636C88.9286 12.1028 86.3953 12.1655 84.5232 13.0396C83.384 13.5825 82.8689 14.3096 82.0404 15.0427C81.7696 15.5659 81.512 16.1167 81.4031 16.6733C81.3261 17.0476 81.0367 17.3416 80.6569 17.5827C80.1524 17.6336 79.7249 17.6376 79.3213 17.3749C79.1911 16.9163 79.2602 16.4146 79.3345 15.954C79.9612 14.3077 81.3739 12.8632 83.2088 11.8284C83.7213 11.6011 84.2736 11.4188 84.7967 11.2032C85.6969 10.9308 86.7299 10.8426 87.6858 10.6877C88.8701 10.5211 90.0757 10.5349 91.2627 10.3859C92.4762 10.3408 94.0641 10.2174 94.9776 9.55296C95.5857 9.1551 95.5511 8.27705 96.4274 8.17317Z" fill="#FD5384"/>
<path d="M32.5108 10.6406C32.6144 11.4599 32.9251 12.2752 33.1561 13.0827C33.6022 13.6216 33.8253 14.2292 34.3032 14.7506C35.7186 16.3655 37.981 17.516 40.5833 17.7845C41.0586 18.0883 41.1463 18.8075 41.4437 19.225C41.7543 19.6444 42.0013 20.0893 42.3093 20.5087C41.526 20.5068 41.0453 20.7616 40.4505 21.083C38.9157 21.4907 37.3171 21.6906 35.769 22.061C34.1572 22.3334 32.625 22.743 30.9866 22.9253C30.3653 23.0292 29.6058 23.3839 28.9818 23.235C28.5543 23.0076 28.2277 22.7136 27.8532 22.4451C24.2578 19.8071 20.6836 17.1475 17.0962 14.5056C16.9342 14.3547 16.5943 14.192 16.589 13.9862C17.0245 13.7824 17.6034 13.6961 18.1052 13.6099C22.5291 12.6809 26.9743 11.9146 31.3292 10.9797C31.77 10.8915 32.1736 10.9033 32.5108 10.6406Z" fill="#00EDBE"/>
<path d="M45.419 13.8008C45.9448 13.9282 46.3033 14.3476 46.0404 14.7513C45.6501 15.7078 44.24 16.0586 43.0478 16.2448L42.8274 16.1331C42.838 15.1237 43.9002 13.8027 45.419 13.8008Z" fill="#00EDBE"/>
<path d="M1.89126 16.0379C2.35862 15.9164 2.61884 16.1202 2.92952 16.3377C3.34377 16.669 3.87486 16.9786 4.19616 17.3628C4.37938 17.8469 3.59869 18.135 3.23224 18.4662C2.78082 18.7876 2.49404 19.2051 1.76646 18.9464C1.27255 18.5995 0.786609 18.2408 0.31129 17.8802C0.0723027 17.7332 0.0404354 17.4098 0.234281 17.2373C0.752086 16.8179 1.28583 16.3906 1.89126 16.0379Z" fill="#FD5384"/>
<path d="M58.3017 17.7627C58.4929 17.7549 58.6841 17.7529 58.8699 17.7588C58.9443 20.6693 58.8779 23.5895 58.9018 26.5019C58.931 27.3878 58.8115 28.2992 58.9974 29.1694C58.6044 29.4398 58.0999 29.1811 57.6405 29.1478L58.1556 29.0498C58.2326 25.5475 58.1556 21.9765 58.1901 18.4663C58.2008 18.2272 58.238 17.992 58.3017 17.7627Z" fill="#00A181"/>
<path d="M97.3206 20.6961C98.2261 20.1845 99.6387 20.7882 99.5777 21.6055C99.6095 22.4325 98.2526 23.0166 97.3259 22.509C96.3805 22.0778 96.4098 21.137 97.3206 20.6961Z" fill="#00EDBE"/>
<path d="M50.6198 22.3024C51.6926 21.9476 52.8238 22.518 52.6406 23.3725C52.4707 24.0408 51.4218 24.4387 50.6198 24.0545C49.7011 23.6704 49.786 22.7198 50.6198 22.3024Z" fill="#76C1FD"/>
<path d="M31.8753 24.0418C40.3301 25.7038 49.1992 27.4618 57.6434 29.1493C58.1028 29.1826 58.6073 29.4413 59.0003 29.1708C59.3562 29.1708 59.712 29.1199 60.0652 29.018C62.8773 28.4672 65.7238 27.8989 68.5545 27.3403C69.4255 27.1267 70.2168 27.1972 70.9736 26.7504C72.5403 26.6543 73.9716 26.4916 75.517 26.8699C76.2844 27.1913 76.9669 27.6245 77.6944 27.9949C78.3503 28.3359 78.908 28.9709 79.7019 29.0905C80.0365 29.0121 80.3897 28.9513 80.7057 28.8357C80.8969 28.4986 80.8597 28.1458 80.4959 27.8832C79.8905 27.4167 79.2612 26.9659 78.6557 26.4975C78.1831 26.0997 77.5272 26.0115 76.9961 25.6783C80.2171 25.0256 83.7913 24.3671 87.007 23.6811C87.6283 23.6145 88.0665 23.3734 88.7091 23.54C88.964 23.885 89.3411 24.1378 89.7155 24.4102C93.4729 27.1874 97.2489 29.9646 100.998 32.7457C101.131 32.8241 101.176 32.9378 101.136 33.0867C98.1252 33.708 95.0821 34.2587 92.0788 34.8957C91.8266 34.9584 91.5743 35.0231 91.3247 35.0917C85.6448 36.1305 80.0418 37.324 74.3752 38.4118C73.5015 38.5725 72.6253 38.8469 71.7357 38.9076C71.3985 38.9116 71.1489 38.6391 70.9072 38.4882C66.8444 35.4935 62.7498 32.436 58.6631 29.4668C58.1586 29.5805 57.7656 29.9587 57.3885 30.2174C53.732 32.9397 50.0436 35.6405 46.3765 38.3569C46.1003 38.5549 45.8162 38.7979 45.4684 38.9214C44.5841 38.8371 43.7105 38.5901 42.8501 38.4216C39.6158 37.8297 36.4506 37.1437 33.2163 36.5401C31.1052 36.0481 28.8853 35.7718 26.8061 35.2132C27.2124 34.8742 27.8444 35.0251 28.1365 34.5096C28.1551 33.9844 27.2257 33.9491 26.7265 33.8315C26.2272 33.5061 25.582 33.1024 25.4545 32.5987C25.3589 32.2753 25.1677 32.0362 24.7429 31.8971C23.8719 32.1146 24.156 33.0475 23.5639 33.4709C23.0115 33.906 21.9706 33.955 21.2218 34.1314C19.5064 33.7707 17.7565 33.4768 16.057 33.0867L15.9322 32.9613C16.296 32.5301 16.8828 32.195 17.3502 31.8226C20.8474 29.2434 24.3392 26.6602 27.8364 24.081C28.0435 23.9457 28.2586 23.8164 28.4764 23.6909C29.6315 23.3872 30.7414 23.8693 31.8753 24.0418Z" fill="#81FFE6"/>
<path d="M70.7982 25.2648C72.1524 25.108 73.5306 24.8435 74.9247 25.206C75.6496 25.2315 76.2922 25.5216 76.9932 25.6803C77.5243 26.0135 78.1802 26.1017 78.6529 26.4996C79.2583 26.968 79.8876 27.4188 80.4931 27.8852C80.8569 28.1479 80.894 28.5007 80.7028 28.8378C80.3868 28.9534 80.0337 29.0141 79.6991 29.0925C78.9051 28.973 78.3475 28.338 77.6916 27.9969C76.964 27.6265 76.2816 27.1934 75.5142 26.872C73.9687 26.4937 72.5374 26.6564 70.9707 26.7524C70.7742 26.6956 70.5804 26.6368 70.3892 26.576C69.8661 26.0488 70.1024 25.5863 70.7982 25.2648Z" fill="#F9C160"/>
<path d="M110.325 29.3173C111.361 28.8724 112.643 29.4094 112.917 30.2247C113.201 31.1047 112.216 31.875 111.042 31.8887C110.134 31.8397 109.361 31.3086 109.308 30.6246C109.234 30.1091 109.677 29.5251 110.325 29.3173Z" fill="#00EDBE"/>
<g filter="url(#filter0_d_400_4761)">
<path d="M58.6612 29.4707C62.7478 32.44 66.8425 35.4974 70.9053 38.4922C71.1469 38.6431 71.3965 38.9155 71.7338 38.9116C72.6233 38.8508 73.4996 38.5764 74.3732 38.4157C80.0399 37.328 85.6428 36.1344 91.3227 35.0956C91.3838 41.7005 91.3307 48.3211 91.3467 54.9299C91.3095 55.1494 91.413 55.5198 91.0067 55.5688C87.9929 56.0862 85.0719 56.7683 82.0633 57.272C80.5232 57.7247 78.8662 57.7913 77.3234 58.2519C72.4879 59.1966 67.8223 60.1354 62.9762 61.0703C61.6644 61.2035 60.3633 61.7033 59.0382 61.7425C58.7807 61.5112 58.9294 61.0918 58.8869 60.8057C58.8763 55.8549 58.9028 50.8768 58.8736 45.93C58.9028 45.7634 58.6479 45.4753 58.4142 45.6615C58.2018 45.8673 58.2283 46.2436 58.1513 46.4964C58.146 51.0022 58.1407 55.5178 58.154 60.0217C58.3505 60.7351 58.1805 61.376 58.0717 62.0816C54.0832 61.3917 50.0151 60.4921 46.0241 59.7414C41.3585 58.8203 36.7036 57.8795 32.0353 56.9741C29.834 56.4998 27.5636 56.1391 25.3862 55.6198C25.357 49.4304 25.3703 43.2194 25.3782 37.0301C25.3649 36.4597 25.5243 35.9168 25.9544 35.4386C26.2333 35.3485 26.5174 35.274 26.8042 35.2171C28.8834 35.7757 31.1033 36.0521 33.2143 36.544C36.4486 37.1477 39.6139 37.8336 42.8482 38.4255C43.7085 38.5941 44.5822 38.841 45.4664 38.9253C45.8143 38.8018 46.0984 38.5588 46.3746 38.3608C50.0417 35.6444 53.7301 32.9437 57.3866 30.2214C57.7636 29.9626 58.1566 29.5844 58.6612 29.4707Z" fill="#00EDBE"/>
</g>
<path d="M45.2004 30.4126C45.9944 30.1245 46.8521 30.5537 46.7353 31.2063C46.7299 31.6022 46.2998 31.7394 45.928 31.9491C44.0878 32.8879 41.8068 33.2779 39.6001 32.9898C38.4636 32.835 38.4716 31.5728 39.6294 31.4533C40.8323 31.4964 41.9502 31.5669 43.1133 31.2573C43.878 31.0554 44.51 30.7144 45.2004 30.4126Z" fill="white"/>
<path d="M24.7407 31.8979C25.1655 32.0371 25.3567 32.2762 25.4523 32.5996C25.5798 33.1033 26.225 33.507 26.7242 33.8324C27.2235 33.95 28.1529 33.9852 28.1343 34.5105C27.8422 35.0259 27.2102 34.875 26.8039 35.2141C26.5171 35.2709 26.233 35.3454 25.9542 35.4356C25.524 35.9138 25.3647 36.4567 25.378 37.027C25.0168 37.0388 24.6636 37.029 24.3158 36.9996C23.9653 36.6154 24.0476 35.9824 23.5829 35.5924C22.9775 35.0475 22.2393 35.0456 21.4081 34.8378C21.3205 34.6026 21.2567 34.3674 21.2196 34.1322C21.9684 33.9558 23.0093 33.9068 23.5617 33.4717C24.1538 33.0484 23.8697 32.1155 24.7407 31.8979Z" fill="#F9C160"/>
<path d="M92.0757 34.8975C92.0598 41.8512 92.1076 48.8677 92.0491 55.8116C89.3273 56.4603 86.4568 56.9288 83.6952 57.5128C75.6599 59.0847 66.2783 60.9877 58.4263 62.4871C58.3095 62.3499 58.19 62.2146 58.0705 62.0794C58.1793 61.3738 58.3493 60.7329 58.1528 60.0195C58.1395 55.5157 58.1448 51 58.1501 46.4942C58.2271 46.2414 58.2006 45.8651 58.413 45.6593C58.6467 45.4731 58.9016 45.7612 58.8724 45.9278C58.9016 50.8746 58.8751 55.8528 58.8857 60.8035C58.9282 61.0896 58.7795 61.5091 59.037 61.7403C60.3621 61.7011 61.6632 61.2013 62.975 61.0681C67.8211 60.1332 72.4867 59.1944 77.3222 58.2497C78.865 57.7891 80.522 57.7225 82.0621 57.2698C85.0707 56.7661 87.9917 56.084 91.0056 55.5666C91.4118 55.5176 91.3083 55.1472 91.3455 54.9277C91.3295 48.3189 91.3826 41.6983 91.3216 35.0935C91.5712 35.0249 91.8234 34.9602 92.0757 34.8975Z" fill="#00D4AA"/>
<path d="M58.2745 37.5334C58.4684 37.5197 58.6622 37.5275 58.8587 37.5569C58.864 39.2875 58.8667 41.022 58.856 42.7526C58.8799 42.9898 58.6171 43.1054 58.3223 43.0917C58.1391 42.7781 58.07 42.5292 58.0939 42.1862C58.1125 40.9456 58.1019 39.703 58.1046 38.4624C58.1258 38.1351 58.0594 37.8293 58.2745 37.5334Z" fill="#00D4AA"/>
<defs>
<filter id="filter0_d_400_4761" x="22.9058" y="29.4707" width="70.9095" height="37.5356" filterUnits="userSpaceOnUse" color-interpolation-filters="sRGB">
<feFlood flood-opacity="0" result="BackgroundImageFix"/>
<feColorMatrix in="SourceAlpha" type="matrix" values="0 0 0 0 0 0 0 0 0 0 0 0 0 0 0 0 0 0 127 0" result="hardAlpha"/>
<feOffset dy="2.46237"/>
<feGaussianBlur stdDeviation="1.23118"/>
<feComposite in2="hardAlpha" operator="out"/>
<feColorMatrix type="matrix" values="0 0 0 0 0 0 0 0 0 0 0 0 0 0 0 0 0 0 0.4 0"/>
<feBlend mode="normal" in2="BackgroundImageFix" result="effect1_dropShadow_400_4761"/>
<feBlend mode="normal" in="SourceGraphic" in2="effect1_dropShadow_400_4761" result="shape"/>
</filter>
</defs>
</svg>