
<svg width="20" height="21" viewBox="0 0 20 21" fill="none" xmlns="http://www.w3.org/2000/svg">
<path d="M10 0.714355C4.48622 0.714355 0 5.20057 0 10.7144C0 16.2281 4.48622 20.7144 10 20.7144C15.5138 20.7144 20 16.2281 20 10.7144C20 5.20057 15.5138 0.714355 10 0.714355ZM15.589 8.08278L9.198 14.4236C8.82206 14.7996 8.22055 14.8246 7.81955 14.4487L4.43609 11.366C4.03509 10.99 4.01003 10.3635 4.3609 9.96248C4.73684 9.56147 5.36341 9.53641 5.76441 9.91235L8.44612 12.3685L14.1604 6.65421C14.5614 6.2532 15.188 6.2532 15.589 6.65421C15.99 7.05521 15.99 7.68177 15.589 8.08278Z" fill="#00D4AA"/>
</svg>
