<svg version="1.1" xmlns="http://www.w3.org/2000/svg" width="24" height="25" class="fill-current">
<path d="M0 0 C0.66 0 1.32 0 2 0 C2 0.99 2 1.98 2 3 C5.3 3.33 8.6 3.66 12 4 C12 8.29 12 12.58 12 17 C11.34 17 10.68 17 10 17 C10 13.7 10 10.4 10 7 C7.36 7.33 4.72 7.66 2 8 C2 8.99 2 9.98 2 11 C1.34 11 0.68 11 0 11 C0 10.34 0 9.68 0 9 C-0.66 9 -1.32 9 -2 9 C-2 8.34 -2 7.68 -2 7 C-2.66 7 -3.32 7 -4 7 C-4 6.01 -4 5.02 -4 4 C-3.34 4 -2.68 4 -2 4 C-2 3.34 -2 2.68 -2 2 C-1.34 2 -0.68 2 0 2 C0 1.34 0 0.68 0 0 Z " fill="#1227f2" transform="translate(8,4)"/>
</svg>
