<svg width="13" height="16" viewBox="0 0 13 16" fill="none" xmlns="http://www.w3.org/2000/svg">
<path d="M8.37149 0.667965L8.37143 0.667904C7.98993 0.287732 7.47894 0.075 6.94263 0.075H2.34375C1.22871 0.075 0.325 0.978709 0.325 2.09375L0.3252 13.9063C0.3252 15.0213 1.22891 15.925 2.34395 15.925H10.2188C11.3338 15.925 12.2375 15.0213 12.2375 13.9062V5.36987C12.2375 4.8337 12.0262 4.32263 11.6476 3.94409L8.37149 0.667965ZM10.8792 4.70937L10.8795 4.70967C10.9629 4.79162 11.0234 4.88972 11.0668 4.99687H7.75781C7.51472 4.99687 7.31563 4.79778 7.31563 4.55469V1.24598C7.42245 1.29054 7.5204 1.35057 7.6031 1.43324C7.6031 1.43325 7.6031 1.43325 7.60311 1.43325L10.8792 4.70937ZM3.87031 14.8406V14.3984C3.87031 13.6109 4.5093 12.9719 5.29688 12.9719H7.26562C8.0535 12.9719 8.69219 13.6106 8.69219 14.3984V14.8406H3.87031ZM11.1531 13.9062C11.1531 14.4213 10.7338 14.8406 10.2188 14.8406H9.77656V14.3984C9.77656 13.0118 8.65229 11.8875 7.26562 11.8875H5.29688C3.91021 11.8875 2.78594 13.0118 2.78594 14.3984V14.8406H2.34375C1.82873 14.8406 1.40937 14.4213 1.40937 13.9062V2.09375C1.40937 1.57873 1.82873 1.15937 2.34375 1.15937H6.23125V4.55469C6.23125 5.39749 6.91501 6.08125 7.75781 6.08125H11.1531V13.9062ZM6.28125 6.96562C5.16775 6.96562 4.2625 7.87087 4.2625 8.98438C4.2625 10.0979 5.16618 11.0031 6.28125 11.0031C7.39629 11.0031 8.3 10.0994 8.3 8.98438C8.3 7.86931 7.39473 6.96562 6.28125 6.96562ZM6.28125 9.91875C5.76623 9.91875 5.34688 9.4994 5.34688 8.98438C5.34688 8.46935 5.76623 8.05 6.28125 8.05C6.79627 8.05 7.21562 8.46935 7.21562 8.98438C7.21562 9.49936 6.79508 9.91875 6.28125 9.91875Z" fill="#9497ED" stroke="#9497ED" stroke-width="0.1"/>
</svg>
