<svg width="250" height="162" viewBox="0 0 250 162" fill="none" xmlns="http://www.w3.org/2000/svg">
<path d="M157.576 35.4065C157.295 35.4065 157.08 35.1789 157.08 34.9112C157.08 34.8845 157.08 34.8711 157.08 34.8443V34.7774C157.12 34.5766 157.228 34.3758 157.402 34.3089C157.562 34.2554 157.736 34.2687 157.87 34.3624C158.004 34.4561 158.084 34.6034 158.084 34.7774V34.9112C158.084 35.1923 157.857 35.4198 157.589 35.4198L157.576 35.4065Z" fill="#141BEB"/>
<path d="M140.656 8.19527C140.562 8.4362 140.227 8.65036 139.732 8.67713C138.019 8.77082 136.359 9.18575 135.061 9.94869C133.16 11.0463 132.491 12.5721 133 13.9775C132.759 14.6468 132.772 15.3428 133.067 15.9987C133.388 15.2625 134.057 14.5531 135.047 13.9775C136.346 13.228 138.006 12.7997 139.719 12.706C140.401 12.6658 140.79 12.3044 140.642 11.9698V8.18188L140.656 8.19527Z" fill="#141BEB"/>
<path d="M133.067 16.507C132.866 16.507 132.692 16.3865 132.612 16.2125C132.291 15.4897 132.251 14.7268 132.478 13.9906C131.97 12.3309 132.826 10.6712 134.807 9.52005C136.146 8.74373 137.832 8.28864 139.706 8.18156C140.041 8.16818 140.174 8.04771 140.201 8.02094C140.282 7.7934 140.522 7.65955 140.763 7.69971C141.004 7.73986 141.178 7.95402 141.178 8.19495V11.9026C141.232 12.1301 141.192 12.3844 141.058 12.5852C140.83 12.9466 140.362 13.1741 139.773 13.2143C138.086 13.308 136.507 13.7363 135.329 14.4189C134.459 14.9276 133.843 15.5433 133.549 16.1991C133.469 16.3865 133.295 16.4936 133.094 16.4936L133.067 16.507ZM140.161 9.11851C140.027 9.14527 139.893 9.17204 139.746 9.17204C138.06 9.26574 136.48 9.69406 135.302 10.3767C133.71 11.3002 133.014 12.5852 133.469 13.8032C133.509 13.9103 133.509 14.0441 133.469 14.1512C133.402 14.3386 133.362 14.5126 133.335 14.7C133.723 14.2717 134.218 13.8835 134.794 13.5489C136.132 12.7726 137.819 12.3175 139.693 12.2104C139.987 12.197 140.161 12.09 140.188 12.0498L140.161 9.10512V9.11851Z" fill="#141BEB"/>
<path d="M155.662 35.9422C152.825 37.709 148.02 37.7491 145.075 36.0493C143.763 35.2863 143.04 34.3092 142.92 33.3187C142.84 32.6629 141.421 32.3818 140.618 32.8369L128.197 40.0112V44.0534L140.618 36.8791C141.421 36.4106 142.84 36.7051 142.92 37.361C143.04 38.3515 143.75 39.3286 145.075 40.0915C148.02 41.7914 152.825 41.7646 155.662 39.9844C156.894 39.2215 157.523 38.231 157.563 37.2271V37.1067V33.0644C157.563 34.1084 156.934 35.1391 155.649 35.9422H155.662Z" fill="#141BEB"/>
<path d="M128.196 44.5483C128.116 44.5483 128.022 44.5216 127.942 44.4814C127.781 44.3877 127.688 44.2271 127.688 44.0531V40.0109C127.688 39.8369 127.781 39.6629 127.942 39.5825L140.363 32.4082C140.792 32.1673 141.247 32.1138 141.568 32.1138C142.398 32.1138 143.321 32.4752 143.415 33.2649C143.522 34.1349 144.191 34.9648 145.316 35.6206C146.641 36.3836 148.408 36.7985 150.281 36.7985C152.155 36.7985 154.083 36.33 155.381 35.5269C156.452 34.8577 157.054 33.9877 157.054 33.1043C157.054 32.8098 157.282 32.5822 157.549 32.5822C157.831 32.5822 158.045 32.8098 158.045 33.0775V37.1063C158.045 37.1063 158.045 37.2 158.031 37.2536C157.978 38.4582 157.215 39.5825 155.89 40.4124C154.417 41.336 152.41 41.8446 150.268 41.8446C148.126 41.8446 146.266 41.3761 144.794 40.5329C143.388 39.7164 142.532 38.6188 142.398 37.4276C142.371 37.3607 142.063 37.1599 141.541 37.1599C141.273 37.1599 141.019 37.2134 140.845 37.3205L128.424 44.4948C128.344 44.535 128.263 44.5617 128.17 44.5617L128.196 44.5483ZM128.705 40.2919V43.1831L140.377 36.4371C140.805 36.1962 141.26 36.1426 141.581 36.1426C142.411 36.1426 143.335 36.504 143.428 37.2937C143.535 38.1637 144.205 38.9936 145.329 39.6495C146.654 40.4124 148.421 40.8273 150.295 40.8273C152.169 40.8273 154.096 40.3589 155.395 39.5558C156.439 38.9133 157.027 38.0701 157.068 37.2C157.068 37.1733 157.068 37.1599 157.068 37.1331V35.4332C156.76 35.7678 156.372 36.0757 155.916 36.3568C154.444 37.2803 152.436 37.789 150.295 37.789C148.153 37.789 146.293 37.3205 144.82 36.4772C143.415 35.6608 142.558 34.5632 142.425 33.372C142.398 33.305 142.09 33.1043 141.568 33.1043C141.3 33.1043 141.046 33.1578 140.872 33.2649L128.692 40.2919H128.705Z" fill="#141BEB"/>
<path d="M97.0747 22.0354C96.2983 21.5804 95.9503 20.7639 96.0172 19.9875H95.9905V24.4447H96.0172C96.0842 25.0872 96.4322 25.7163 97.0747 26.0777L128.195 44.0536V40.0114L97.0747 22.0354Z" fill="#141BEB"/>
<path d="M128.194 44.5483C128.114 44.5483 128.02 44.5216 127.94 44.4814L96.8202 26.5055C96.1242 26.104 95.6691 25.4347 95.5352 24.6584C95.4951 24.5915 95.4817 24.5245 95.4817 24.4442V19.9737C95.4817 19.813 95.562 19.6524 95.6959 19.5587C95.8297 19.465 96.0037 19.4383 96.1509 19.5052C96.3651 19.5855 96.5257 19.813 96.5123 20.0406C96.4454 20.6831 96.7532 21.2854 97.3154 21.6066L128.435 39.5826C128.596 39.6762 128.69 39.8369 128.69 40.0109V44.0531C128.69 44.2271 128.596 44.4011 128.435 44.4814C128.355 44.5216 128.275 44.5483 128.181 44.5483H128.194ZM96.4856 24.2702C96.4856 24.2702 96.5123 24.3505 96.5123 24.3907C96.5659 24.9261 96.8603 25.3812 97.3154 25.6355L127.686 43.1697V40.2786L96.8068 22.4499C96.6863 22.3829 96.5792 22.3026 96.4722 22.2223V24.2568L96.4856 24.2702Z" fill="#141BEB"/>
<path d="M157.576 33.5595C157.295 33.5595 157.08 33.332 157.08 33.0643C157.08 33.0375 157.08 33.0241 157.08 32.9974V32.9304C157.12 32.7297 157.241 32.5155 157.428 32.4486C157.576 32.4084 157.75 32.4218 157.883 32.5155C158.017 32.6092 158.098 32.7564 158.098 32.9171V33.0509C158.098 33.332 157.87 33.5595 157.602 33.5595H157.576Z" fill="#141BEB"/>
<path d="M149.865 27.4958C149.062 27.9643 149.571 28.7674 150.708 28.8209C150.735 28.8209 150.749 28.8209 150.775 28.8209L149.865 29.343C149.062 29.8114 149.571 30.6145 150.708 30.6681C150.909 30.6681 151.11 30.6948 151.311 30.7082L162.313 24.3638V20.3215L149.865 27.5092V27.4958Z" fill="#141BEB"/>
<path d="M151.311 31.2035C151.311 31.2035 151.284 31.2035 151.27 31.2035C151.083 31.1901 150.882 31.1767 150.695 31.1633C149.825 31.1365 149.156 30.7082 149.008 30.1193C148.901 29.6776 149.089 29.2493 149.53 28.9682C149.263 28.7942 149.075 28.5533 149.008 28.2722C148.888 27.8037 149.116 27.3486 149.624 27.0675L162.072 19.8798C162.233 19.7861 162.42 19.7861 162.567 19.8798C162.728 19.9735 162.822 20.1342 162.822 20.3082V24.3504C162.822 24.5244 162.728 24.6984 162.567 24.7787L151.565 31.1232C151.485 31.1633 151.404 31.1901 151.311 31.1901V31.2035ZM161.804 21.1782L150.119 27.9242C149.999 27.9911 149.972 28.0446 149.972 28.0446C149.986 28.0848 150.213 28.2856 150.722 28.3123C150.949 28.3123 151.163 28.4729 151.217 28.7005C151.27 28.928 151.217 29.1422 151.016 29.2627L150.106 29.7847C149.986 29.8516 149.959 29.9051 149.959 29.9051C149.972 29.9453 150.2 30.1461 150.708 30.1728C150.869 30.1728 151.016 30.1862 151.177 30.1996L161.791 24.0693V21.1782H161.804Z" fill="#141BEB"/>
<path d="M135.064 9.94877C131.946 11.7423 132.106 14.7272 135.506 16.4271C138.29 17.8191 142.854 17.8191 145.598 16.4271C147.124 15.6507 147.967 14.6201 148.141 13.5493C148.222 13.0273 149.279 12.7998 149.921 13.1611L162.316 20.3221L149.868 27.5098C149.065 27.9782 149.573 28.7813 150.711 28.8349C152.518 28.9018 154.285 29.3569 155.623 30.1867C158.207 31.7929 158.22 34.3494 155.664 35.9422C152.826 37.7091 148.021 37.7492 145.076 36.0493C143.764 35.2864 143.042 34.3093 142.921 33.3188C142.841 32.6629 141.422 32.3819 140.619 32.837L128.198 40.0113L97.0779 22.0353C95.6591 21.2189 95.6591 19.1576 97.0779 18.3411L127.984 0.499023L140.378 7.65995C141.007 8.02134 140.619 8.63705 139.722 8.6772C138.009 8.7709 136.349 9.18583 135.051 9.94877H135.064Z" fill="white"/>
<path d="M128.196 40.5061C128.116 40.5061 128.022 40.4793 127.942 40.4391L96.8216 22.4632C95.9918 21.9814 95.5099 21.1381 95.5099 20.1878C95.5099 19.2375 96.0051 18.3808 96.8216 17.9123L127.727 0.0702708C127.888 -0.0234236 128.075 -0.0234236 128.223 0.0702708L140.617 7.23119C141.045 7.48551 141.246 7.87367 141.152 8.2886C141.032 8.79723 140.47 9.15862 139.747 9.19878C138.061 9.29247 136.481 9.72079 135.303 10.4034C133.992 11.153 133.295 12.1301 133.322 13.1473C133.349 14.2181 134.232 15.2621 135.718 16.0117C136.99 16.6542 138.703 17.0022 140.537 17.0022C142.37 17.0022 144.097 16.6408 145.355 15.9983C146.667 15.3291 147.47 14.4323 147.631 13.4819C147.724 12.9064 148.367 12.5048 149.17 12.5048C149.531 12.5048 149.866 12.5852 150.147 12.7458L162.542 19.9067C162.702 20.0004 162.796 20.161 162.796 20.335C162.796 20.509 162.702 20.683 162.542 20.7633L150.094 27.951C149.973 28.018 149.946 28.0715 149.946 28.0715C149.96 28.1116 150.187 28.3124 150.696 28.3392C152.663 28.4195 154.497 28.9281 155.862 29.7714C157.268 30.6414 158.044 31.8326 158.044 33.0908C158.044 34.349 157.281 35.5135 155.889 36.3835C154.417 37.3071 152.409 37.8157 150.268 37.8157C148.126 37.8157 146.265 37.3472 144.793 36.504C143.388 35.6875 142.531 34.5899 142.397 33.3987C142.37 33.3318 142.063 33.131 141.541 33.131C141.273 33.131 141.019 33.1845 140.845 33.2916L128.423 40.4659C128.343 40.5061 128.263 40.5328 128.169 40.5328L128.196 40.5061ZM127.982 1.07414L97.3169 18.769C96.8082 19.0634 96.5004 19.5855 96.5004 20.1878C96.5004 20.7901 96.8082 21.2987 97.3169 21.6066L128.196 39.4353L140.376 32.4082C140.804 32.1673 141.26 32.1137 141.581 32.1137C142.411 32.1137 143.334 32.4751 143.428 33.2648C143.535 34.1349 144.204 34.9647 145.329 35.6206C146.654 36.3835 148.42 36.7985 150.294 36.7985C152.168 36.7985 154.096 36.33 155.394 35.5269C156.478 34.8576 157.067 33.9876 157.067 33.0908C157.067 32.1807 156.465 31.3106 155.354 30.6146C154.136 29.8517 152.476 29.3966 150.682 29.3297C149.812 29.3029 149.143 28.8746 148.996 28.2857C148.876 27.8172 149.103 27.3621 149.612 27.081L161.297 20.335L149.652 13.6158C149.531 13.5489 149.357 13.5087 149.17 13.5087C148.849 13.5087 148.635 13.6292 148.608 13.6693C148.407 14.9141 147.403 16.0652 145.81 16.8817C144.405 17.5911 142.531 17.9927 140.537 17.9927C138.556 17.9927 136.682 17.6045 135.276 16.8951C133.443 15.9715 132.372 14.6197 132.332 13.1607C132.292 11.7553 133.175 10.4703 134.808 9.52001C136.146 8.74369 137.833 8.2886 139.707 8.18152C139.894 8.18152 140.028 8.12798 140.108 8.08783L127.995 1.07414H127.982Z" fill="#141BEB"/>
<path d="M149.419 121.094L71.1611 78.3255L4.0185 109.272L90.5421 156.839L91.9314 156.063L149.419 121.094Z" fill="#00EDBE"/>
<path d="M90.55 157.299C90.4616 157.302 90.3855 157.28 90.3091 157.246L3.78359 109.674C3.63066 109.593 3.53943 109.423 3.54919 109.25C3.54632 109.078 3.67011 108.926 3.833 108.846L70.9898 77.8962C71.1276 77.8297 71.292 77.8363 71.4194 77.9057L149.667 120.679C149.807 120.76 149.898 120.905 149.901 121.065C149.903 121.225 149.817 121.376 149.667 121.468L92.1779 156.44L90.776 157.217C90.7135 157.256 90.638 157.271 90.5622 157.274L90.55 157.299ZM5.05319 109.296L90.5463 156.313L91.6977 155.668L148.487 121.127L71.1444 78.8398L5.05319 109.296Z" fill="#141BEB"/>
<path d="M93.4173 151.249L148.033 118.082L68.1937 74.1611C67.403 73.7202 66.4178 73.7426 65.6298 74.2269L12.8276 106.294L93.4049 151.262L93.4173 151.249Z" fill="white"/>
<path d="M93.425 151.708C93.3366 151.711 93.2477 151.689 93.1712 151.643L12.5922 106.671C12.4518 106.59 12.361 106.445 12.3583 106.285C12.3556 106.124 12.4416 105.973 12.5917 105.882L65.395 73.8119C66.3209 73.261 67.5208 73.231 68.4391 73.7415L148.28 117.666C148.421 117.747 148.512 117.892 148.514 118.052C148.517 118.212 148.431 118.364 148.281 118.455L93.6637 151.625C93.5885 151.665 93.5132 151.692 93.4248 151.696L93.425 151.708ZM13.7602 106.248L93.421 150.709L147.113 118.102L67.9597 74.5482C67.3347 74.2001 66.5137 74.2167 65.8756 74.597L13.7602 106.248Z" fill="#141BEB"/>
<path d="M93.3372 147.943L147.953 114.776L68.1136 70.8555C67.3229 70.4145 66.3377 70.4369 65.5497 70.9213L12.7475 102.988L93.3248 147.956L93.3372 147.943Z" fill="white"/>
<path d="M93.3449 148.402C93.2565 148.405 93.1677 148.384 93.0911 148.337L12.5121 103.366C12.3717 103.284 12.2809 103.139 12.2782 102.979C12.2756 102.819 12.3615 102.668 12.5116 102.576L65.315 70.5063C66.2409 69.9554 67.4408 69.9254 68.359 70.4359L148.2 114.36C148.341 114.441 148.432 114.586 148.434 114.747C148.437 114.907 148.351 115.058 148.201 115.15L93.5836 148.32C93.5085 148.359 93.4331 148.387 93.3447 148.39L93.3449 148.402ZM13.6802 102.942L93.341 147.403L147.033 114.796L67.8796 71.2425C67.2547 70.8944 66.4336 70.911 65.7955 71.2914L13.6802 102.942Z" fill="#141BEB"/>
<path d="M93.2523 144.462L147.868 111.294L68.0287 67.374C67.2379 66.9331 66.2527 66.9555 65.4647 67.4398L12.6625 99.5068L93.2398 144.475L93.2523 144.462Z" fill="white"/>
<path d="M93.259 144.921C93.1706 144.924 93.0817 144.902 93.0051 144.856L12.4261 99.8842C12.2858 99.8028 12.195 99.6579 12.1923 99.4976C12.1896 99.3373 12.2756 99.1862 12.4257 99.0945L65.229 67.0248C66.1549 66.4739 67.3548 66.4439 68.2731 66.9544L148.114 110.878C148.255 110.96 148.346 111.105 148.348 111.265C148.351 111.425 148.265 111.576 148.115 111.668L93.4977 144.838C93.4225 144.878 93.3472 144.905 93.2588 144.908L93.259 144.921ZM13.5942 99.4605L93.255 143.921L146.947 111.315L67.7936 67.7611C67.1687 67.4129 66.3477 67.4296 65.7096 67.8099L13.5942 99.4605Z" fill="#141BEB"/>
<path d="M149.169 105.747L64.0505 58.8367C63.2083 58.3718 62.1592 58.3965 61.3202 58.8962L5.02304 93.1455C2.857 94.4466 1.55507 96.7685 1.5958 99.2285L1.72513 107.041C1.74416 108.191 2.46681 109.068 3.40894 109.455L89.6998 156.93L88.3844 146.216L90.9309 141.166L149.156 105.735L149.169 105.747ZM18.4202 114.144C16.3156 113.043 14.5877 110.26 14.549 107.923C14.5104 105.587 16.1756 104.588 18.2802 105.689C20.3849 106.789 22.1127 109.573 22.1514 111.909C22.1901 114.246 20.5248 115.245 18.4202 114.144Z" fill="white"/>
<path d="M89.7085 157.402C89.62 157.406 89.5438 157.384 89.4673 157.349L3.17516 109.872C2.02938 109.406 1.27818 108.331 1.25731 107.07L1.12797 99.2574C1.08459 96.6366 2.48496 94.1503 4.78861 92.7576L61.0867 58.5068C62.0632 57.9157 63.3274 57.8957 64.2973 58.4304L149.417 105.343C149.557 105.424 149.648 105.57 149.651 105.73C149.653 105.891 149.567 106.042 149.417 106.134L91.3039 141.488L88.8796 146.287L90.1801 156.866C90.1956 157.039 90.1227 157.215 89.9724 157.306C89.8974 157.359 89.8094 157.386 89.7209 157.39L89.7085 157.402ZM62.6623 58.9706C62.2706 58.9845 61.8931 59.0968 61.5676 59.2938L5.2695 93.5446C3.25366 94.7539 2.0251 96.9249 2.06317 99.2243L2.19251 107.037C2.20724 107.927 2.73826 108.688 3.59133 109.041L89.1051 156.088L87.9061 146.297C87.9046 146.21 87.903 146.111 87.9523 146.035L90.4989 140.985C90.5356 140.909 90.5976 140.833 90.6728 140.793L148.223 105.781L63.7924 59.2522C63.4477 59.0542 63.0417 58.9696 62.6373 58.9839L62.6623 58.9706Z" fill="#141BEB"/>
<path d="M90.8486 140.964L149.03 105.623L63.9744 58.8267C63.1328 58.3629 62.0845 58.3875 61.2462 58.8859L4.9913 93.0489L90.8358 140.952L90.8486 140.964Z" fill="#141BEB"/>
<path d="M90.8571 141.424C90.7687 141.427 90.6799 141.406 90.6033 141.359L4.75712 93.4517C4.61678 93.3703 4.52593 93.2254 4.52327 93.0651C4.52061 92.9048 4.60656 92.7537 4.75667 92.662L61.0126 58.4964C61.9884 57.9067 63.2517 57.8868 64.2208 58.4202L149.278 105.22C149.418 105.302 149.509 105.446 149.512 105.607C149.514 105.767 149.428 105.918 149.278 106.01L91.096 141.354C91.0209 141.394 90.9455 141.421 90.8571 141.424ZM5.92523 93.0279L90.8405 140.425L148.097 105.644L63.7288 59.2273C63.0403 58.8567 62.1561 58.8756 61.4806 59.2819L5.9126 93.0284L5.92523 93.0279Z" fill="#141BEB"/>
<path d="M91.8168 156.996C91.5536 157.154 91.2765 157.239 90.9729 157.249C90.1506 157.278 89.2544 156.665 89.2374 155.637L89.108 147.804C89.0736 145.722 90.1802 143.749 92.0102 142.655L149.191 107.73L149.173 106.59L91.4635 141.744C89.2953 143.048 87.992 145.376 88.0327 147.842L88.1623 155.687C88.1971 157.794 90.5339 159.026 92.389 157.918L149.459 123.146L149.437 121.82L91.8296 157.008L91.8168 156.996Z" fill="white"/>
<path d="M90.9978 158.8C89.1887 158.864 87.6975 157.478 87.6682 155.706L87.5386 147.861C87.4952 145.233 88.8971 142.741 91.2032 141.344L148.913 106.188C149.064 106.096 149.241 106.09 149.394 106.171C149.547 106.253 149.638 106.398 149.641 106.559L149.66 107.699C149.663 107.861 149.577 108.025 149.426 108.105L92.2437 143.031C90.5642 144.046 89.5435 145.855 89.5752 147.776L89.7048 155.621C89.7214 156.625 90.8296 157.045 91.5564 156.597L149.165 121.408C149.315 121.316 149.492 121.309 149.646 121.391C149.799 121.472 149.89 121.618 149.893 121.791L149.915 123.117C149.917 123.278 149.831 123.443 149.681 123.522L92.6097 158.296C92.1084 158.599 91.5542 158.768 90.9976 158.787L90.9978 158.8ZM148.706 107.423L91.6974 142.145C89.6795 143.358 88.4496 145.534 88.4877 147.839L88.6172 155.685C88.6404 157.085 89.8567 157.922 90.9827 157.883C91.3875 157.868 91.7654 157.756 92.1288 157.532L148.962 122.903L148.957 122.643L92.0506 157.398C91.7123 157.609 91.3469 157.708 90.98 157.721C89.93 157.759 88.7905 156.981 88.7688 155.667L88.6393 147.822C88.6022 145.578 89.8074 143.44 91.7751 142.254L148.719 107.472L148.718 107.41L148.706 107.423Z" fill="#141BEB"/>
<path d="M18.5562 103.879C15.9099 102.454 13.7977 103.718 13.8569 106.697C13.9161 109.676 16.1117 113.243 18.7707 114.668C21.4169 116.093 23.5292 114.828 23.47 111.849C23.4107 108.87 21.2151 105.303 18.5562 103.879ZM18.7485 113.554C16.6393 112.426 14.901 109.597 14.854 107.231C14.807 104.866 16.4691 103.865 18.5783 104.993C20.6875 106.12 22.4258 108.95 22.4729 111.315C22.5199 113.681 20.8577 114.681 18.7485 113.554Z" fill="#141BEB"/>
<path d="M22.9631 117.564L11.794 110.097L15.5418 100.632L27.8987 108.453L22.9631 117.564Z" fill="white"/>
<path d="M13.7912 101.114L13.7896 101.113C12.7604 100.552 11.7642 100.347 10.9263 100.524C10.0884 100.701 9.44592 101.253 9.08078 102.111C8.71562 102.969 8.64447 104.096 8.87656 105.348C9.10864 106.6 9.63328 107.921 10.3835 109.144C11.1336 110.367 12.0756 111.438 13.0909 112.223C14.1061 113.008 15.1501 113.473 16.0917 113.559C17.0334 113.645 17.8314 113.348 18.3846 112.704C18.9378 112.06 19.2211 111.099 19.1981 109.939L19.1981 109.937C19.1582 108.364 18.5644 106.551 17.5498 104.896C16.5354 103.242 15.1833 101.883 13.7912 101.114Z" fill="#00EDBE" stroke="#141BEB" stroke-width="0.6"/>
<path d="M15.8569 106.035C15.8379 105.749 15.893 105.506 16.0152 105.337L11.9619 103.072C11.9256 103.051 11.8898 103.039 11.8565 103.036C11.8232 103.032 11.793 103.038 11.7678 103.052C11.7426 103.067 11.7228 103.089 11.7095 103.119C11.6963 103.149 11.6898 103.185 11.6905 103.226L11.7097 104.197C11.7107 104.238 11.7188 104.282 11.7335 104.328C11.7483 104.373 11.7695 104.419 11.7958 104.462C11.8222 104.505 11.8532 104.545 11.8871 104.579C11.921 104.613 11.9572 104.641 11.9935 104.661L16.0467 106.927C15.915 106.616 15.849 106.306 15.8569 106.035" fill="#3D4EF6"/>
<path d="M11.1102 105.433C11.1289 105.719 11.0736 105.961 10.9512 106.13L15.0045 108.396C15.0408 108.416 15.0766 108.428 15.1099 108.432C15.1432 108.435 15.1734 108.429 15.1986 108.415C15.2238 108.401 15.2436 108.378 15.2569 108.348C15.2701 108.319 15.2766 108.282 15.2759 108.242L15.2567 107.27C15.2557 107.229 15.2476 107.185 15.2329 107.14C15.2181 107.094 15.1969 107.049 15.1706 107.006C15.1442 106.963 15.1132 106.923 15.0793 106.888C15.0454 106.854 15.0092 106.826 14.9729 106.806L10.9197 104.541C11.0514 104.851 11.1174 105.162 11.1095 105.433" fill="#3D4EF6"/>
<path d="M15.9389 110.185C15.92 109.899 15.975 109.656 16.0972 109.488L12.044 107.222C12.0076 107.202 11.9718 107.189 11.9385 107.186C11.9052 107.183 11.8751 107.188 11.8499 107.203C11.8247 107.217 11.8049 107.24 11.7916 107.269C11.7783 107.299 11.7718 107.335 11.7725 107.376L11.7918 108.347C11.7927 108.388 11.8008 108.433 11.8156 108.478C11.8303 108.523 11.8515 108.569 11.8778 108.612C11.9042 108.655 11.9352 108.695 11.9691 108.729C12.003 108.763 12.0392 108.791 12.0755 108.812L16.1288 111.077C15.9971 110.766 15.931 110.456 15.9389 110.185" fill="#3D4EF6"/>
<path d="M64.4908 91.4578L64.4878 91.4598C62.382 92.9054 60.9492 94.7153 60.3706 96.6625C59.792 98.6099 60.0936 100.608 61.2398 102.406C62.386 104.203 64.3253 105.719 66.8137 106.761C69.302 107.803 72.2264 108.325 75.2181 108.262C78.2096 108.199 81.1349 107.554 83.6268 106.41C86.1186 105.266 88.0676 103.673 89.2283 101.83C90.3891 99.9879 90.7103 97.9777 90.149 96.0524C89.5878 94.127 88.169 92.373 86.0703 91.0119L86.0671 91.0099C83.2102 89.181 79.3304 88.2029 75.2839 88.288C71.2381 88.3732 67.3566 89.5141 64.4908 91.4578Z" fill="#00EDBE" stroke="#141BEB" stroke-width="1.17489"/>
<path d="M75.5064 93.1462C74.9714 92.8362 74.5937 92.4251 74.4211 91.9651L65.9912 97.6145C65.9154 97.665 65.8549 97.7245 65.8131 97.7896C65.7713 97.8546 65.7491 97.9241 65.7478 97.9939C65.7464 98.0637 65.7659 98.1325 65.8051 98.1965C65.8444 98.2604 65.9026 98.3181 65.9765 98.3664L67.7453 99.5135C67.8197 99.5614 67.9083 99.5988 68.0058 99.6236C68.1034 99.6485 68.2081 99.6602 68.314 99.6582C68.4199 99.6561 68.5248 99.6403 68.6228 99.6117C68.7209 99.5831 68.8101 99.5423 68.8854 99.4915L77.3152 93.842C76.6147 93.7358 75.985 93.4935 75.506 93.146" fill="#3D4EF6"/>
<path d="M69.326 102.269C69.8605 102.579 70.2376 102.99 70.4096 103.451L78.8394 97.8012C78.9153 97.7507 78.9758 97.6913 79.0176 97.6262C79.0593 97.5611 79.0815 97.4917 79.0829 97.4218C79.0842 97.352 79.0647 97.2832 79.0255 97.2193C78.9862 97.1554 78.928 97.0976 78.8541 97.0494L77.0853 95.9023C77.0109 95.8544 76.9224 95.8169 76.8248 95.7921C76.7272 95.7673 76.6225 95.7555 76.5166 95.7576C76.4108 95.7596 76.3058 95.7754 76.2078 95.804C76.1098 95.8326 76.0205 95.8735 75.9453 95.9243L67.5154 101.574C68.216 101.68 68.8456 101.922 69.3246 102.27" fill="#3D4EF6"/>
<path d="M83.064 98.0476C82.529 97.7376 82.1513 97.3265 81.9787 96.8665L73.5488 102.516C73.473 102.566 73.4125 102.626 73.3707 102.691C73.3289 102.756 73.3067 102.825 73.3054 102.895C73.304 102.965 73.3235 103.034 73.3628 103.098C73.402 103.162 73.4602 103.219 73.5341 103.268L75.3029 104.415C75.3774 104.463 75.4659 104.5 75.5635 104.525C75.661 104.55 75.7657 104.562 75.8716 104.56C75.9775 104.557 76.0824 104.542 76.1805 104.513C76.2785 104.484 76.3677 104.444 76.443 104.393L84.8729 98.7434C84.1723 98.6371 83.5426 98.3949 83.0636 98.0474" fill="#3D4EF6"/>
<path d="M24.4438 109.812C25.5452 110.424 26.2638 111.669 26.2638 113.067C26.2638 114.129 25.7131 114.909 24.4595 114.213C23.3423 113.592 22.6448 112.299 22.6448 110.961C22.6448 109.875 23.2427 109.145 24.4438 109.812ZM25.262 112.433C25.262 111.629 24.9263 111.058 24.4595 110.799C23.9193 110.499 23.6151 110.816 23.6151 111.56C23.6151 112.232 23.935 112.938 24.4385 113.217C24.9998 113.529 25.262 113.183 25.262 112.433ZM28.3144 113.253C28.9333 113.596 29.4631 114.419 29.4631 115.415C29.4631 116.375 28.8966 116.594 28.2515 116.242C27.9053 116.049 27.6169 115.703 27.5749 115.602C27.5749 115.8 27.5959 117.083 27.5487 117.093C27.5015 117.109 26.7829 116.746 26.6833 116.63C26.6675 116.616 26.699 112.469 26.7462 112.363C26.7514 112.348 27.5329 112.83 27.5329 112.83C27.5329 112.866 27.5277 113.116 27.5277 113.152C27.5644 113.1 27.8424 112.99 28.3144 113.253ZM28.5767 114.934C28.5767 114.526 28.3616 114.191 28.0784 114.034C27.7218 113.835 27.5539 114 27.5539 114.36C27.5539 114.756 27.7952 115.13 28.0574 115.276C28.3879 115.459 28.5767 115.306 28.5767 114.934ZM30.5666 116.268C30.5666 116.586 30.7659 116.895 31.1278 117.096C31.411 117.253 31.6051 117.247 31.7415 117.227C31.7939 117.316 32.009 117.933 32.0142 118.026C31.8726 118.097 31.5107 118.088 31.0859 117.852C30.1365 117.325 29.7536 116.386 29.7536 115.618C29.7536 114.808 30.1942 114.297 31.0177 114.754C31.7152 115.142 32.1401 115.978 32.1401 116.65C32.1401 116.836 32.1244 116.983 32.0929 117.086C31.8306 116.982 30.8813 116.455 30.5666 116.268ZM30.5614 115.713L31.3848 116.152C31.3953 115.864 31.2642 115.563 31.0124 115.424C30.7397 115.272 30.5614 115.407 30.5614 115.713ZM32.5277 115.695C32.5749 115.644 33.3092 116.016 33.3564 116.096C33.3512 116.219 33.3459 116.414 33.3407 116.447C33.4561 116.313 33.7131 116.234 34.1379 116.47C34.7096 116.788 35.0663 117.508 35.0663 118.282C35.0663 118.684 35.0453 119.686 35.0243 119.968C35.0191 120.025 34.2323 119.576 34.2166 119.556C34.1956 119.532 34.2218 118.131 34.2218 117.915C34.2218 117.591 34.096 117.293 33.8232 117.141C33.5347 116.981 33.3617 117.143 33.3617 117.377C33.3617 117.581 33.3564 119.018 33.3407 119.033C33.325 119.048 32.5592 118.611 32.5435 118.566C32.533 118.536 32.512 116.959 32.5277 115.695ZM37.486 119.248C37.486 120.106 37.9475 120.704 38.3934 120.952C38.8182 121.188 39.1067 121.09 39.2221 121.058C39.3427 121.221 39.5735 121.836 39.6574 122.086C39.4319 122.255 38.9021 122.249 38.299 121.914C37.0716 121.232 36.4999 119.912 36.4999 118.658C36.4999 117.452 37.2447 116.936 38.4353 117.597C39.0385 117.932 39.4738 118.39 39.6364 118.661C39.6364 118.781 39.4161 119.306 39.285 119.359C39.0962 119.128 38.7763 118.789 38.4458 118.605C37.9056 118.305 37.486 118.564 37.486 119.248ZM39.9113 120.331C39.9166 120.232 40.2627 119.861 40.9656 120.251C41.6159 120.612 42.1195 121.33 42.1195 122.206C42.1195 122.848 42.0932 123.83 42.0775 123.857C42.0618 123.884 41.4009 123.481 41.4009 123.481L41.3537 123.197C41.317 123.218 41.0967 123.384 40.6823 123.154C40.1106 122.836 39.8694 122.318 39.8694 121.796C39.8694 121.256 40.2837 121.144 40.8082 121.436C41.0495 121.57 41.1963 121.729 41.296 121.869C41.3012 121.614 41.3117 121.265 40.8397 121.003C40.5145 120.822 40.3624 121.002 40.3152 120.982C40.268 120.955 39.9061 120.394 39.9113 120.331ZM40.5722 122.168C40.5722 122.366 40.7191 122.586 40.9131 122.694C41.1439 122.822 41.2593 122.73 41.2593 122.55C41.2593 122.34 41.1072 122.124 40.9131 122.016C40.7086 121.902 40.5722 121.976 40.5722 122.168ZM42.6335 121.274C42.6807 121.21 43.415 121.672 43.4622 121.752C43.4569 121.875 43.4517 122.034 43.4464 122.067C43.5618 121.933 43.7611 121.834 44.186 122.07C44.4797 122.233 44.7157 122.532 44.8573 122.875C45.0356 122.614 45.4343 122.764 45.6493 122.883C46.3102 123.25 46.6039 123.911 46.6039 124.679C46.6039 125.087 46.5829 126.114 46.5672 126.387C46.5619 126.438 45.7647 125.995 45.749 125.968C45.7332 125.948 45.7594 124.588 45.7594 124.306C45.7594 124.012 45.6913 123.752 45.4133 123.598C45.1248 123.438 45.0409 123.715 45.0409 123.901C45.0409 124.333 45.0251 125.212 45.0094 125.504C45.0042 125.555 44.2122 125.079 44.2017 125.061C44.1807 125.037 44.2069 123.648 44.2069 123.444C44.2069 123.15 44.1335 122.887 43.8608 122.735C43.588 122.584 43.4726 122.784 43.4726 122.976C43.4726 123.15 43.4622 124.662 43.4464 124.677C43.4307 124.693 42.6649 124.255 42.6492 124.21C42.6387 124.181 42.6177 122.537 42.6335 121.274ZM48.7462 124.604C49.3651 124.947 49.8948 125.77 49.8948 126.766C49.8948 127.726 49.3283 127.945 48.6832 127.593C48.337 127.4 48.0486 127.054 48.0066 126.953C48.0066 127.151 48.0276 128.434 47.9804 128.444C47.9332 128.46 47.2146 128.097 47.115 127.981C47.0992 127.967 47.1307 123.82 47.1779 123.714C47.1832 123.699 47.9647 124.181 47.9647 124.181C47.9647 124.217 47.9594 124.467 47.9594 124.503C47.9961 124.451 48.2741 124.341 48.7462 124.604ZM49.0084 126.285C49.0084 125.877 48.7934 125.542 48.5101 125.384C48.1535 125.186 47.9856 125.351 47.9856 125.711C47.9856 126.107 48.2269 126.481 48.4891 126.627C48.8196 126.81 49.0084 126.657 49.0084 126.285ZM52.7659 129.813C52.7187 129.865 52.0368 129.462 51.9844 129.379C51.9896 129.256 51.9844 129.079 51.9896 129.04C51.8742 129.167 51.6067 129.271 51.2134 129.052C50.5787 128.7 50.2745 128.087 50.2745 127.247C50.2745 126.815 50.327 125.818 50.3427 125.545C50.3532 125.49 51.1399 125.939 51.1557 125.966C51.1662 126.038 51.1137 127.377 51.1137 127.611C51.1137 127.947 51.2396 128.221 51.5123 128.372C51.8008 128.533 51.9529 128.365 51.9581 128.104C51.9581 127.93 51.9791 126.466 52.0001 126.453C52.0158 126.438 52.7764 126.873 52.7973 126.92C52.8026 126.947 52.7868 128.546 52.7659 129.813ZM54.2878 130.772C53.7633 130.481 53.286 129.976 53.2126 129.845C53.1706 129.762 53.4119 129.242 53.4539 129.289C53.5378 129.384 53.863 129.834 54.1986 130.021C54.4084 130.137 54.5133 130.112 54.5133 129.98C54.5133 129.848 54.4294 129.729 54.0885 129.468C53.5011 129.027 53.2283 128.594 53.2283 128.09C53.2283 127.448 53.6112 127.288 54.2563 127.647C54.7389 127.915 55.1637 128.337 55.2319 128.453C55.2791 128.533 55.0378 129.029 55.0011 129.015C54.9749 129 54.6392 128.58 54.335 128.411C54.1305 128.297 54.0413 128.361 54.0413 128.481C54.0413 128.613 54.1305 128.723 54.4347 128.94C55.0588 129.389 55.3368 129.789 55.3368 130.347C55.3368 130.875 55.0221 131.18 54.2878 130.772Z" fill="#141BEB"/>
<path d="M118.542 88.7654L215.56 33.8574" stroke="#141BEB" stroke-width="1.65137" stroke-linecap="round"/>
<path d="M170.434 62.9563C169.631 62.4878 168.212 62.7689 168.132 63.4247C168.025 64.4152 167.315 65.3923 166.017 66.1419C163.086 67.8284 158.294 67.7882 155.429 66.008C154.305 65.312 153.663 64.4152 153.515 63.5184V64.9105C153.475 65.1514 153.515 66.7576 153.515 66.7576C153.328 67.9221 153.97 69.1401 155.429 70.0503C158.28 71.8305 163.086 71.884 166.017 70.1841C167.329 69.4346 168.025 68.4575 168.132 67.467C168.199 66.8111 169.617 66.53 170.434 66.9985L182.935 74.213V70.1707L170.434 62.9563Z" fill="#141BEB"/>
<path d="M182.936 74.7212C182.855 74.7212 182.762 74.6945 182.681 74.6543L170.18 67.4398C169.993 67.3328 169.738 67.2792 169.471 67.2792C168.962 67.2792 168.667 67.4666 168.641 67.5335C168.52 68.7114 167.677 69.8223 166.272 70.6254C164.826 71.4687 162.898 71.9238 160.864 71.9238C158.696 71.9238 156.675 71.4152 155.175 70.4782C153.596 69.4877 152.806 68.1091 153.034 66.6769C153.02 66.2753 152.994 65.0841 153.034 64.8298V63.5181C153.034 63.2504 153.235 63.0362 153.489 63.0228C153.77 63.0094 153.984 63.1834 154.024 63.4378C154.158 64.2275 154.747 64.9904 155.711 65.5793C157.036 66.4092 158.91 66.8777 160.864 66.8777C162.818 66.8777 164.478 66.4627 165.776 65.7132C166.887 65.0707 167.556 64.2408 167.65 63.3708C167.717 62.6882 168.48 62.2197 169.484 62.2197C169.805 62.2197 170.274 62.2733 170.702 62.5142L183.177 69.7153C183.177 69.7153 183.217 69.7287 183.23 69.742C183.377 69.8357 183.471 69.9964 183.471 70.1704V74.2126C183.471 74.4 183.364 74.574 183.19 74.6543C183.123 74.6945 183.043 74.7078 182.962 74.7078L182.936 74.7212ZM169.471 66.262C169.792 66.262 170.26 66.3155 170.689 66.5564L182.44 73.3426V70.4514L170.18 63.3708C169.993 63.2637 169.738 63.2102 169.471 63.2102C168.962 63.2102 168.667 63.3976 168.641 63.4645C168.52 64.6424 167.677 65.7533 166.272 66.5564C164.826 67.3997 162.898 67.8548 160.864 67.8548C158.696 67.8548 156.675 67.3461 155.175 66.4092C154.72 66.1281 154.332 65.8069 154.011 65.4723C154.011 65.8337 154.011 66.3021 154.024 66.7304C153.864 67.828 154.466 68.8453 155.697 69.6082C157.023 70.4381 158.896 70.9065 160.851 70.9065C162.805 70.9065 164.465 70.4916 165.763 69.742C166.874 69.0996 167.543 68.2697 167.637 67.3997C167.704 66.7171 168.467 66.2486 169.471 66.2486V66.262Z" fill="#141BEB"/>
<path d="M212.13 40.336C212.184 40.0549 212.184 39.7739 212.13 39.4928V38.1543C211.983 39.0377 211.354 39.9077 210.256 40.5903C208.918 41.4202 207.165 41.8619 205.358 41.9288C204.22 41.969 203.725 42.7721 204.528 43.2406L205.438 43.7626C205.438 43.7626 205.384 43.7626 205.358 43.7626C204.22 43.8027 203.725 44.6058 204.528 45.0743L205.987 45.9175C207.566 45.7837 209.079 45.3554 210.256 44.6192C211.715 43.709 212.345 42.491 212.13 41.3265V40.3226V40.336Z" fill="#141BEB"/>
<path d="M205.986 46.4393C205.892 46.4393 205.812 46.4125 205.732 46.3724L204.273 45.5291C203.764 45.2347 203.536 44.7796 203.657 44.3111C203.724 44.03 203.911 43.7891 204.179 43.6151C203.751 43.3206 203.55 42.9057 203.657 42.464C203.804 41.8617 204.473 41.4601 205.343 41.4333C207.137 41.3664 208.783 40.9247 210.001 40.1752C210.952 39.5862 211.514 38.8634 211.648 38.0737C211.688 37.8194 211.902 37.632 212.183 37.6588C212.437 37.6856 212.638 37.8997 212.638 38.154V39.4925C212.692 39.7335 212.692 40.0815 212.638 40.4295V41.353C212.879 42.7049 212.116 44.0836 210.523 45.074C209.319 45.8236 207.766 46.3054 206.026 46.4527C206.013 46.4527 205.999 46.4527 205.986 46.4527V46.4393ZM204.634 44.552C204.634 44.552 204.674 44.6056 204.781 44.6591L206.093 45.422C207.605 45.2748 208.957 44.8599 209.988 44.204C211.206 43.4411 211.808 42.4238 211.634 41.42V40.3358C211.634 40.2555 211.634 40.1752 211.648 40.0948C211.34 40.4295 210.952 40.7373 210.51 41.0184C209.158 41.8617 207.324 42.3703 205.357 42.4372C204.862 42.4506 204.634 42.6514 204.607 42.7049C204.607 42.7049 204.647 42.7584 204.754 42.812L205.665 43.334C205.852 43.4411 205.959 43.6686 205.906 43.8828C205.852 44.0969 205.665 44.2576 205.437 44.2709C204.862 44.2977 204.634 44.4851 204.607 44.552H204.634Z" fill="#141BEB"/>
<path d="M171.064 42.8515C172.777 42.9452 174.437 43.3735 175.749 44.1364C176.766 44.7254 177.435 45.4348 177.77 46.1843C178.064 45.5151 178.078 44.8325 177.837 44.1632C178.359 42.7444 177.663 41.2051 175.749 40.0942C174.437 39.3313 172.777 38.9029 171.064 38.8092C170.555 38.7825 170.221 38.5683 170.127 38.3274V40.2682C170.087 40.3619 170.087 40.4422 170.127 40.5359V42.1153C169.993 42.4499 170.381 42.8247 171.064 42.8649V42.8515Z" fill="#141BEB"/>
<path d="M177.77 46.6797C177.569 46.6797 177.395 46.5592 177.315 46.3852C177.02 45.7026 176.391 45.0735 175.508 44.5649C174.317 43.8822 172.737 43.4405 171.051 43.3469C170.462 43.3067 169.98 43.0792 169.752 42.7178C169.619 42.5036 169.578 42.2627 169.645 42.0351V40.6029C169.605 40.4691 169.605 40.3219 169.645 40.188V38.3275C169.645 38.0866 169.819 37.8724 170.06 37.8323C170.288 37.7921 170.529 37.926 170.622 38.1535C170.636 38.1803 170.783 38.2874 171.118 38.3141C172.978 38.4212 174.678 38.8897 176.03 39.666C178.011 40.8037 178.908 42.517 178.399 44.1633C178.627 44.8995 178.573 45.6758 178.265 46.3986C178.185 46.586 178.011 46.6931 177.81 46.6931L177.77 46.6797ZM170.636 42.2627C170.636 42.2627 170.85 42.3296 171.091 42.343C172.951 42.4501 174.651 42.9185 176.003 43.6949C176.605 44.0429 177.101 44.431 177.502 44.8727C177.489 44.6853 177.435 44.5113 177.382 44.3239C177.342 44.2169 177.342 44.083 177.382 43.9759C177.837 42.7445 177.141 41.4462 175.508 40.5093C174.317 39.8266 172.737 39.3849 171.051 39.2912C170.903 39.2912 170.77 39.2645 170.649 39.2377V40.1612C170.649 40.1612 170.649 40.3754 170.609 40.4423L170.649 42.1021C170.649 42.1021 170.649 42.2225 170.622 42.2761C170.622 42.2761 170.636 42.2627 170.663 42.2627H170.636Z" fill="#141BEB"/>
<path d="M160.3 60.7483C161.438 60.7081 161.933 59.9051 161.13 59.4366L160.22 58.9146C160.22 58.9146 160.273 58.9146 160.3 58.9146C161.438 58.8744 161.933 58.0713 161.13 57.6029L148.602 50.375V54.4172L159.671 60.8018C159.872 60.7885 160.086 60.7751 160.3 60.7617V60.7483Z" fill="#141BEB"/>
<path d="M159.671 61.2966C159.577 61.2966 159.497 61.2699 159.417 61.2297L148.347 54.8451C148.187 54.7514 148.093 54.5908 148.093 54.4168V50.3746C148.093 50.2006 148.187 50.0266 148.347 49.9462C148.508 49.8526 148.695 49.8526 148.843 49.9462L161.371 57.1741C161.879 57.4686 162.107 57.9237 161.987 58.3921C161.92 58.6732 161.732 58.9141 161.465 59.0881C161.893 59.3826 162.094 59.7975 161.987 60.2392C161.839 60.8416 161.183 61.2431 160.3 61.2699C160.099 61.2699 159.898 61.2833 159.698 61.31C159.698 61.31 159.671 61.31 159.658 61.31L159.671 61.2966ZM149.11 54.109L159.791 60.2794C159.952 60.2794 160.113 60.2526 160.287 60.2526C160.782 60.2392 160.996 60.0385 161.023 59.9849C161.023 59.9849 160.983 59.9314 160.876 59.8778L159.965 59.3558C159.778 59.2488 159.671 59.0212 159.725 58.8071C159.778 58.5929 159.965 58.4323 160.193 58.4189C160.768 58.3921 160.996 58.2047 161.023 58.1378C161.023 58.1378 160.983 58.0843 160.876 58.0307L149.11 51.2312V54.1223V54.109Z" fill="#141BEB"/>
<path d="M249.35 31.073C249.069 31.073 248.855 30.899 248.855 30.6313C248.855 30.6045 248.855 30.5911 248.855 30.5643V30.5242C248.882 30.2966 249.042 30.0825 249.256 30.0289C249.404 30.0022 249.564 30.0289 249.671 30.136C249.792 30.2297 249.859 30.377 249.859 30.5242C249.859 30.8053 249.631 31.073 249.363 31.073H249.35Z" fill="#141BEB"/>
<path d="M248.336 32.385L217.283 50.3207L204.888 43.1598C204.741 43.0795 204.661 42.9858 204.621 42.8921V44.7928C204.581 44.8865 204.581 44.9935 204.621 45.0872V46.6399C204.54 46.8273 204.607 47.0414 204.888 47.2021L217.283 54.363L248.336 36.4272C248.925 36.0926 249.246 35.5438 249.326 34.9549H249.353V33.1078V32.4653V30.6182C249.353 31.3008 249.018 31.9834 248.336 32.385Z" fill="#141BEB"/>
<path d="M217.281 54.8578C217.201 54.8578 217.107 54.831 217.027 54.7908L204.632 47.6299C204.11 47.3221 204.017 46.8804 204.11 46.5457V45.1671C204.07 45.0199 204.07 44.8593 204.11 44.6986V42.8783C204.11 42.6374 204.271 42.4366 204.499 42.383C204.739 42.3295 204.967 42.45 205.061 42.6641L217.268 49.718L248.066 31.9294C248.548 31.6484 248.829 31.1531 248.829 30.6043C248.829 30.3232 249.057 30.0957 249.325 30.0957C249.592 30.0957 249.82 30.3232 249.82 30.6043V34.941C249.82 35.0213 249.806 35.1017 249.766 35.1686C249.619 35.878 249.191 36.4803 248.548 36.8417L217.495 54.7775C217.415 54.8176 217.335 54.8444 217.241 54.8444L217.281 54.8578ZM205.114 43.8688V44.7254C205.114 44.7923 205.101 44.9128 205.074 44.9797L205.114 46.6261C205.114 46.693 205.101 46.7599 205.074 46.8268L217.281 53.7736L248.093 35.9851C248.508 35.7441 248.776 35.356 248.843 34.8741C248.843 34.8473 248.843 34.8206 248.856 34.7938V32.6254C248.776 32.6924 248.682 32.7459 248.588 32.7995L217.535 50.7352C217.375 50.8289 217.187 50.8289 217.04 50.7352L205.128 43.8554L205.114 43.8688Z" fill="#141BEB"/>
<path d="M189.642 24.675C190.833 25.4112 192.359 25.8529 193.952 25.9867L195.397 25.1568C196.201 24.6884 195.692 23.8853 194.554 23.8317C194.527 23.8317 194.514 23.8317 194.487 23.8317L195.397 23.3097C196.201 22.8413 195.692 22.0382 194.554 21.9846C192.747 21.9177 190.98 21.4626 189.642 20.6327C188.531 19.9367 187.889 19.0667 187.728 18.1699V21.3421C187.527 22.52 188.156 23.7514 189.642 24.675Z" fill="#141BEB"/>
<path d="M193.951 26.4954C193.951 26.4954 193.924 26.4954 193.911 26.4954C192.171 26.3481 190.605 25.8663 189.373 25.1033C187.767 24.0995 186.977 22.694 187.232 21.2619V18.1833C187.232 17.929 187.419 17.7015 187.687 17.6881C187.954 17.6613 188.182 17.8487 188.222 18.103C188.356 18.8793 188.958 19.6289 189.895 20.2178C191.113 20.9808 192.773 21.4359 194.567 21.5028C195.437 21.5296 196.106 21.9579 196.253 22.5468C196.36 22.9885 196.173 23.4168 195.731 23.6979C195.999 23.8719 196.186 24.1128 196.253 24.3939C196.374 24.8624 196.146 25.3175 195.637 25.5986L194.192 26.4284C194.112 26.4686 194.031 26.4954 193.938 26.4954H193.951ZM188.236 20.1509V21.3422C188.048 22.4531 188.664 23.4838 189.909 24.2467C190.939 24.8892 192.331 25.3309 193.844 25.4781L195.156 24.7286C195.276 24.6616 195.303 24.6081 195.303 24.6081C195.289 24.5679 195.062 24.3672 194.553 24.3404C194.326 24.3404 194.112 24.1798 194.058 23.9522C194.004 23.7381 194.058 23.5105 194.259 23.3901L195.169 22.8681C195.289 22.8011 195.316 22.7476 195.316 22.7476C195.303 22.7074 195.075 22.5067 194.567 22.4799C192.599 22.3996 190.765 21.891 189.4 21.0477C188.958 20.7666 188.57 20.4588 188.262 20.1375L188.236 20.1509Z" fill="#141BEB"/>
<path d="M209.759 38.4214C211.004 39.0505 211.821 39.8402 212.195 40.6968C212.49 40.041 212.503 39.3449 212.262 38.6757C212.825 37.1632 211.995 35.5035 209.759 34.3791C206.975 32.9871 202.411 32.9871 199.667 34.3791C198.141 35.1555 197.298 36.1861 197.124 37.2569C197.044 37.7789 195.986 38.0064 195.344 37.6451L182.949 30.4841V34.5264L195.344 41.6873C195.986 42.0487 197.03 41.8211 197.124 41.2991C197.298 40.2283 198.155 39.1977 199.667 38.4214C202.411 37.016 206.975 37.016 209.759 38.4214Z" fill="#141BEB"/>
<path d="M196.08 42.3698C195.719 42.3698 195.384 42.2895 195.103 42.1288L182.709 34.9679C182.548 34.8742 182.454 34.7136 182.454 34.5396V30.4974C182.454 30.3234 182.548 30.1494 182.709 30.0691C182.869 29.9754 183.057 29.9754 183.204 30.0691L195.598 37.23C195.719 37.2969 195.893 37.3371 196.08 37.3371C196.401 37.3371 196.616 37.2166 196.642 37.1764C196.843 35.9316 197.847 34.7805 199.44 33.9641C200.845 33.2547 202.719 32.8531 204.713 32.8531C206.708 32.8531 208.568 33.2413 209.974 33.9507C212.263 35.1018 213.333 36.9087 212.771 38.6889C212.999 39.4251 212.959 40.2014 212.637 40.9108C212.557 41.0982 212.383 41.2053 212.182 41.2053C211.981 41.2053 211.807 41.0848 211.727 40.9108C211.379 40.1345 210.63 39.4385 209.532 38.8897C208.26 38.2472 206.547 37.8992 204.713 37.8992C202.88 37.8992 201.153 38.2606 199.895 38.9031C198.583 39.5723 197.78 40.4691 197.619 41.4194C197.526 41.995 196.883 42.3965 196.08 42.3965V42.3698ZM183.458 34.2451L195.598 41.2588C195.719 41.3258 195.893 41.3659 196.08 41.3659C196.401 41.3659 196.616 41.2454 196.642 41.2053C196.843 39.9605 197.847 38.8094 199.44 37.9929C200.845 37.2835 202.719 36.882 204.713 36.882C206.708 36.882 208.568 37.2701 209.987 37.9795C210.777 38.3811 211.433 38.8495 211.915 39.3849C211.901 39.2109 211.848 39.0235 211.781 38.8495C211.741 38.7425 211.741 38.6086 211.781 38.5015C212.276 37.163 211.433 35.7844 209.532 34.8341C208.26 34.1916 206.547 33.8436 204.713 33.8436C202.88 33.8436 201.153 34.205 199.895 34.8475C198.583 35.5167 197.78 36.4135 197.619 37.3638C197.526 37.9394 196.883 38.3409 196.08 38.3409C195.719 38.3409 195.384 38.2606 195.103 38.1L183.458 31.3808V34.2719V34.2451Z" fill="#141BEB"/>
<path d="M217.041 50.4814L182.936 70.1706V74.2129L217.041 54.5237H217.054H217.041V50.4814Z" fill="#141BEB"/>
<path d="M182.936 74.7211C182.855 74.7211 182.762 74.6943 182.681 74.6541C182.521 74.5604 182.427 74.3998 182.427 74.2258V70.1836C182.427 69.9962 182.534 69.8222 182.708 69.7285L216.786 50.0527C216.947 49.959 217.134 49.959 217.281 50.0527C217.442 50.1464 217.536 50.307 217.536 50.481V54.4831C217.536 54.4831 217.536 54.5099 217.536 54.5233C217.536 54.7106 217.429 54.8846 217.255 54.9783L183.177 74.6541C183.096 74.6943 183.016 74.7211 182.922 74.7211H182.936ZM183.431 70.4647V73.3558L216.532 54.2422V51.351L183.431 70.4647Z" fill="#141BEB"/>
<path d="M166.017 66.1414C167.329 65.3919 168.025 64.4148 168.132 63.4243C168.199 62.7684 169.618 62.4873 170.435 62.9558L182.936 70.1703L217.041 50.4811L204.513 43.2532C203.709 42.7848 204.205 41.9817 205.342 41.9415C207.149 41.8746 208.916 41.4329 210.241 40.603C212.811 39.0102 212.798 36.4537 210.214 34.8475C207.364 33.0673 202.558 33.0138 199.627 34.7137C198.315 35.4632 197.619 36.4403 197.512 37.4308C197.445 38.0867 196.026 38.3677 195.21 37.8993L182.708 30.6848L170.394 37.7922C169.765 38.1536 170.167 38.7693 171.05 38.8228C172.764 38.9165 174.423 39.3448 175.735 40.1078C178.867 41.9147 178.747 44.8996 175.36 46.5861C172.59 47.9781 168.039 47.9513 165.268 46.5325C163.742 45.7562 162.885 44.7122 162.698 43.6414C162.604 43.1194 161.547 42.8918 160.918 43.2532L148.604 50.3606L161.132 57.5885C161.935 58.0569 161.44 58.86 160.302 58.9002C158.495 58.9671 156.728 59.4088 155.403 60.2387C152.833 61.8315 152.847 64.388 155.43 65.9942C158.281 67.7744 163.086 67.8279 166.017 66.128V66.1414Z" fill="white"/>
<path d="M182.936 70.6794C182.856 70.6794 182.762 70.6526 182.682 70.6124L170.18 63.398C169.993 63.2909 169.739 63.2374 169.471 63.2374C168.962 63.2374 168.668 63.4247 168.641 63.4917C168.521 64.6695 167.677 65.7805 166.272 66.5836C164.826 67.4268 162.899 67.8819 160.864 67.8819C158.696 67.8819 156.675 67.3733 155.176 66.4363C153.77 65.5663 152.994 64.3751 152.994 63.1169C152.994 61.8587 153.757 60.6942 155.149 59.8242C156.501 58.981 158.335 58.4723 160.302 58.4054C160.798 58.392 161.012 58.1912 161.038 58.1377C161.038 58.1377 160.998 58.0842 160.891 58.0306L148.363 50.8028C148.202 50.7091 148.109 50.5485 148.109 50.3745C148.109 50.2005 148.202 50.0265 148.363 49.9461L160.677 42.8388C160.958 42.6781 161.293 42.5978 161.641 42.5978C162.457 42.5978 163.1 42.9994 163.193 43.5749C163.367 44.5253 164.184 45.422 165.509 46.1047C166.767 46.7472 168.547 47.1219 170.395 47.1219C172.242 47.1219 173.901 46.7739 175.146 46.1448C176.619 45.4087 177.475 44.378 177.502 43.3206C177.529 42.3034 176.819 41.3129 175.494 40.5499C174.303 39.8673 172.723 39.4256 171.037 39.3319C170.301 39.2918 169.739 38.9304 169.618 38.4217C169.524 38.0202 169.725 37.6187 170.154 37.3777L182.468 30.2703C182.468 30.2703 182.575 30.2168 182.628 30.2168C182.749 30.19 182.869 30.2168 182.976 30.2703L195.478 37.4848C195.665 37.5919 195.92 37.6454 196.187 37.6454C196.682 37.6454 196.99 37.458 197.017 37.3911C197.138 36.2132 197.981 35.1023 199.386 34.2992C200.832 33.4559 202.759 33.0009 204.794 33.0009C206.962 33.0009 208.983 33.5095 210.482 34.4464C211.888 35.3164 212.664 36.5077 212.664 37.7659C212.664 39.0241 211.901 40.1886 210.509 41.0586C209.157 41.9018 207.323 42.4104 205.356 42.4774C204.861 42.4908 204.633 42.6915 204.606 42.7451C204.606 42.7451 204.646 42.7986 204.754 42.8521L217.282 50.08C217.429 50.1603 217.523 50.3209 217.536 50.4815C217.536 50.6555 217.469 50.8162 217.335 50.9099L183.177 70.6392C183.097 70.6794 183.016 70.7061 182.923 70.7061L182.936 70.6794ZM169.471 62.2201C169.792 62.2201 170.261 62.2736 170.689 62.5146L182.95 69.5952L216.064 50.4815L204.298 43.682C203.79 43.3875 203.562 42.9325 203.683 42.464C203.83 41.8617 204.486 41.4601 205.369 41.4333C207.163 41.3664 208.809 40.9247 210.027 40.1752C211.111 39.5059 211.714 38.6359 211.714 37.7391C211.714 36.8289 211.111 35.9589 210 35.2629C208.675 34.433 206.801 33.9646 204.847 33.9646C202.893 33.9646 201.233 34.3795 199.935 35.1291C198.824 35.7715 198.155 36.6014 198.061 37.4714C197.994 38.154 197.231 38.6225 196.227 38.6225C195.906 38.6225 195.438 38.569 195.009 38.328L182.749 31.2474L170.702 38.2076C170.783 38.2477 170.917 38.3013 171.117 38.3147C172.978 38.4217 174.678 38.8902 176.03 39.6665C177.689 40.6303 178.586 41.9286 178.546 43.3474C178.506 44.793 177.435 46.1315 175.628 47.0416C174.236 47.7376 172.389 48.1258 170.421 48.1258C168.454 48.1258 166.513 47.7243 165.081 47.0015C163.475 46.185 162.471 45.0339 162.243 43.7489C162.216 43.7222 162.002 43.6017 161.681 43.6017C161.507 43.6017 161.333 43.6419 161.212 43.7088L149.648 50.3878L161.413 57.1874C161.922 57.4818 162.149 57.9369 162.029 58.4054C161.882 59.0077 161.226 59.4093 160.342 59.436C158.549 59.503 156.903 59.9447 155.685 60.6942C154.6 61.3635 153.998 62.2335 153.998 63.1303C153.998 64.0405 154.6 64.9105 155.711 65.6065C157.036 66.423 158.91 66.9048 160.864 66.9048C162.725 66.9048 164.478 66.4899 165.777 65.7403C166.888 65.0979 167.557 64.268 167.651 63.398C167.718 62.7153 168.48 62.2469 169.484 62.2469L169.471 62.2201Z" fill="#141BEB"/>
<path d="M210.201 40.8577C213.32 39.0641 213.159 36.0793 209.759 34.3794C206.975 32.9873 202.411 32.9873 199.667 34.3794C198.141 35.1557 197.298 36.1863 197.124 37.2571C197.044 37.7791 195.986 38.0067 195.344 37.6453L182.949 30.4844L195.397 23.2967C196.2 22.8282 195.692 22.0251 194.554 21.9716C192.747 21.9046 190.98 21.4496 189.642 20.6197C187.059 19.0135 187.045 16.457 189.602 14.8642C192.439 13.0974 197.244 13.0572 200.189 14.7571C201.501 15.52 202.224 16.4971 202.344 17.4876C202.424 18.1435 203.843 18.4246 204.646 17.9695L217.068 10.7952L248.335 28.8514C249.687 29.6411 249.687 31.5953 248.335 32.3716L217.282 50.3074L204.887 43.1465C204.258 42.7851 204.646 42.1694 205.543 42.1292C207.256 42.0355 208.916 41.6206 210.214 40.8577H210.201Z" fill="#00EDBE"/>
<path d="M217.282 50.816C217.202 50.816 217.108 50.7893 217.027 50.7491L204.633 43.5882C204.205 43.3339 204.004 42.9457 204.098 42.5308C204.218 42.0222 204.767 41.6608 205.503 41.6206C207.19 41.5269 208.769 41.0986 209.947 40.416C211.245 39.6664 211.955 38.6893 211.928 37.6721C211.901 36.6013 211.018 35.5573 209.532 34.8077C208.26 34.1652 206.547 33.8172 204.713 33.8172C202.88 33.8172 201.153 34.1786 199.895 34.8211C198.583 35.4903 197.78 36.3871 197.619 37.3374C197.526 37.913 196.883 38.3145 196.08 38.3145C195.719 38.3145 195.384 38.2342 195.103 38.0736L182.709 30.9127C182.548 30.819 182.454 30.6584 182.454 30.4844C182.454 30.3104 182.548 30.1364 182.709 30.0561L195.157 22.8684C195.277 22.8014 195.304 22.7479 195.304 22.7479C195.29 22.7077 195.063 22.507 194.554 22.4802C192.587 22.3999 190.753 21.8913 189.388 21.048C187.982 20.178 187.206 18.9867 187.206 17.7286C187.206 16.4704 187.969 15.3059 189.361 14.4359C190.833 13.5123 192.841 13.0037 194.983 13.0037C197.124 13.0037 198.985 13.4722 200.457 14.3154C201.862 15.1319 202.719 16.2294 202.853 17.4207C202.88 17.4876 203.187 17.6884 203.709 17.6884C203.977 17.6884 204.231 17.6349 204.405 17.5278L216.84 10.3535C217.001 10.2598 217.188 10.2598 217.349 10.3535L248.616 28.4097C249.406 28.8648 249.887 29.6947 249.887 30.6048C249.887 31.515 249.419 32.3449 248.616 32.8L217.563 50.7357C217.483 50.7759 217.402 50.8027 217.309 50.8027L217.282 50.816ZM205.168 42.7316L217.282 49.7453L248.08 31.9567C248.562 31.6756 248.843 31.1804 248.843 30.6316C248.843 30.0828 248.562 29.5742 248.08 29.3065L217.068 11.3975L204.887 18.4246C204.459 18.6655 204.004 18.719 203.683 18.719C202.853 18.719 201.929 18.3576 201.836 17.5679C201.729 16.6979 201.059 15.8681 199.935 15.2122C198.61 14.4493 196.843 14.0343 194.969 14.0343C193.095 14.0343 191.168 14.5028 189.87 15.3059C188.785 15.9751 188.196 16.8452 188.196 17.7419C188.196 18.6521 188.799 19.5221 189.91 20.2181C191.128 20.9811 192.787 21.4362 194.581 21.5031C195.451 21.5299 196.12 21.9582 196.267 22.5471C196.388 23.0156 196.16 23.4707 195.652 23.7518L183.953 30.4978L195.598 37.217C195.719 37.2839 195.893 37.3241 196.08 37.3241C196.401 37.3241 196.615 37.2036 196.642 37.1634C196.843 35.9186 197.847 34.7675 199.44 33.9511C200.845 33.2417 202.719 32.8401 204.713 32.8401C206.708 32.8401 208.568 33.2283 209.974 33.9377C211.807 34.8612 212.878 36.2131 212.918 37.6721C212.958 39.0775 212.075 40.3624 210.442 41.3128C209.104 42.0891 207.417 42.5442 205.543 42.6512C205.356 42.6512 205.222 42.7048 205.142 42.7449L205.168 42.7316Z" fill="#141BEB"/>
</svg>
