<svg width="100" height="151" viewBox="0 0 100 151" fill="none" xmlns="http://www.w3.org/2000/svg">
<path d="M56.8221 95.8526L57.048 95.4612L56.8221 95.8526L96.5584 118.794C98.3972 119.856 99.1046 121.245 98.936 122.601C98.7629 123.992 97.6507 125.519 95.4681 126.78L57.9124 148.462C55.7391 149.717 52.9896 150.421 50.3009 150.532C47.6078 150.644 45.0276 150.159 43.1781 149.091L3.44181 126.15C1.60294 125.088 0.895465 123.699 1.06401 122.343C1.23693 120.952 2.34914 119.424 4.53201 118.164L4.53204 118.164L42.0878 96.4819C44.261 95.2272 47.0106 94.523 49.6993 94.4115C52.3923 94.2999 54.9725 94.7847 56.8221 95.8526Z" stroke="#141BEB" stroke-width="0.903786"/>
<path d="M13.3516 125.659L44.4788 143.631C47.5282 145.391 52.8542 145.17 56.3749 143.138L85.7941 126.153C89.3148 124.12 89.6975 121.045 86.6481 119.284L55.5208 101.313C52.4714 99.5526 47.1454 99.7736 43.6247 101.806L14.2056 118.791C10.6844 120.824 10.3022 123.899 13.3516 125.659Z" fill="#E9EBFB"/>
<path d="M13.9767 73.8767L44.5739 91.5421C47.5713 93.2728 52.8065 93.0555 56.2675 91.0572L85.1855 74.3615C88.6466 72.3633 89.0226 69.3406 86.0251 67.6103L55.4279 49.9449C52.4305 48.2146 47.1953 48.4315 43.7343 50.4298L14.8163 67.1254C11.3552 69.1237 10.9793 72.1464 13.9767 73.8767Z" fill="white" stroke="#141BEB" stroke-width="0.67784" stroke-miterlimit="10" stroke-linecap="round" stroke-linejoin="round"/>
<path d="M11.9708 70.7434H11.965V70.8806C11.9659 70.8347 11.9672 70.7893 11.9708 70.7434Z" stroke="#141BEB" stroke-width="0.67784" stroke-miterlimit="10" stroke-linecap="round" stroke-linejoin="round"/>
<path d="M85.1855 74.3614L56.2675 91.057C52.8064 93.0553 47.5713 93.2722 44.5739 91.5419L13.9762 73.8765C12.6892 73.1331 12.0285 72.1516 11.9626 71.1154V111.674H11.9684C11.8825 112.845 12.536 113.975 13.9762 114.807L44.5739 132.472C47.5713 134.202 52.8064 133.986 56.2675 131.988L85.1855 115.292C86.9836 114.254 87.9407 112.94 88.0333 111.674H88.0392V111.533C88.0405 111.456 88.0437 111.379 88.0392 111.303V70.7435H88.0329C87.9407 72.0093 86.9836 73.3234 85.1855 74.3614Z" fill="#C2C7FB" stroke="#141BEB" stroke-width="0.67784" stroke-miterlimit="10" stroke-linecap="round" stroke-linejoin="round"/>
<path d="M42.9643 98.3687C42.8669 98.3687 42.7681 98.344 42.6775 98.2917L19.6766 85.0265C19.4014 84.8676 19.3069 84.5158 19.4658 84.2407C19.6247 83.9655 19.9765 83.871 20.2517 84.0299L43.2526 97.2951C43.5278 97.454 43.6222 97.8058 43.4638 98.0809C43.3568 98.2655 43.1634 98.3687 42.9643 98.3687Z" fill="#141BEB"/>
<path d="M42.9643 103.959C42.8669 103.959 42.7681 103.934 42.6775 103.882L19.6766 90.6165C19.4014 90.4576 19.3069 90.1058 19.4658 89.8306C19.6247 89.5554 19.9765 89.461 20.2517 89.6199L43.2526 102.885C43.5278 103.044 43.6222 103.396 43.4638 103.671C43.3568 103.855 43.1634 103.959 42.9643 103.959Z" fill="#141BEB"/>
<path d="M42.9643 115.089C42.8669 115.089 42.7681 115.065 42.6775 115.012L19.6766 101.747C19.4014 101.588 19.3069 101.237 19.4658 100.961C19.6247 100.686 19.9765 100.592 20.2517 100.751L43.2526 114.016C43.5278 114.175 43.6222 114.526 43.4638 114.802C43.3568 114.986 43.1634 115.089 42.9643 115.089Z" fill="#141BEB"/>
<path d="M42.9643 120.679C42.8669 120.679 42.7681 120.654 42.6775 120.602L19.6766 107.337C19.4014 107.178 19.3069 106.826 19.4658 106.551C19.6247 106.276 19.9765 106.181 20.2517 106.34L43.2526 119.605C43.5278 119.764 43.6222 120.115 43.4638 120.391C43.3568 120.576 43.1634 120.679 42.9643 120.679Z" fill="#141BEB"/>
<path d="M42.9643 126.269C42.8669 126.269 42.7681 126.244 42.6775 126.191L19.6766 112.926C19.4014 112.767 19.3069 112.416 19.4658 112.14C19.6247 111.865 19.9765 111.771 20.2517 111.93L43.2526 125.195C43.5278 125.354 43.6222 125.706 43.4638 125.981C43.3568 126.165 43.1634 126.269 42.9643 126.269Z" fill="#141BEB"/>
<path d="M83.6024 80.3675V111.322L58.6563 125.725V94.77L83.6024 80.3675Z" fill="#00EDBE" stroke="#141BEB" stroke-width="0.484485"/>
<path d="M62.5101 106.671C62.5101 106.324 62.575 105.978 62.7049 105.633C62.8348 105.285 63.0151 104.969 63.246 104.686C63.4798 104.397 63.7439 104.168 64.0383 103.998C64.3991 103.789 64.7079 103.721 64.9648 103.793C65.2217 103.864 65.3934 104.065 65.48 104.395L64.6661 104.865C64.6026 104.759 64.516 104.7 64.4063 104.69C64.2966 104.677 64.1711 104.711 64.0296 104.793C63.8016 104.925 63.6169 105.123 63.4755 105.388C63.3341 105.65 63.2634 105.932 63.2634 106.236C63.2634 106.539 63.3341 106.741 63.4755 106.843C63.6169 106.945 63.8016 106.93 64.0296 106.798C64.1711 106.716 64.2966 106.605 64.4063 106.465C64.516 106.325 64.6026 106.165 64.6661 105.985L65.48 105.515C65.3934 105.945 65.2217 106.344 64.9648 106.713C64.7079 107.078 64.3991 107.364 64.0383 107.573C63.7439 107.743 63.4798 107.821 63.246 107.806C63.0151 107.786 62.8348 107.678 62.7049 107.483C62.575 107.288 62.5101 107.018 62.5101 106.671ZM67.4183 102.775C67.6954 102.615 67.9176 102.593 68.085 102.71C68.2524 102.823 68.3361 103.065 68.3361 103.435V105.065L67.6001 105.49V103.975C67.6001 103.788 67.5583 103.667 67.4746 103.612C67.3909 103.558 67.2783 103.571 67.1369 103.653C66.9955 103.734 66.8829 103.851 66.7992 104.003C66.7155 104.154 66.6736 104.324 66.6736 104.51V106.025L65.9333 106.453V102.753L66.6736 102.325V103.61C66.7487 103.444 66.8512 103.286 66.981 103.138C67.1109 102.989 67.2567 102.868 67.4183 102.775ZM68.7034 103.453C68.7034 103.166 68.7495 102.888 68.8419 102.617C68.9371 102.346 69.0656 102.105 69.2272 101.895C69.3888 101.685 69.5692 101.522 69.7684 101.407C69.9387 101.309 70.0873 101.263 70.2143 101.27C70.3442 101.275 70.4437 101.322 70.513 101.412V101.017L71.2533 100.589V103.379L70.513 103.807V103.412C70.4409 103.584 70.3398 103.747 70.21 103.902C70.083 104.055 69.9343 104.181 69.764 104.28C69.5678 104.393 69.3888 104.438 69.2272 104.415C69.0656 104.388 68.9371 104.294 68.8419 104.132C68.7495 103.966 68.7034 103.739 68.7034 103.453ZM70.513 102.412C70.513 102.199 70.4611 102.06 70.3572 101.997C70.2561 101.932 70.132 101.942 69.9848 102.027C69.8376 102.112 69.7121 102.246 69.6082 102.43C69.5072 102.608 69.4567 102.804 69.4567 103.017C69.4567 103.231 69.5072 103.371 69.6082 103.44C69.7121 103.503 69.8376 103.492 69.9848 103.407C70.132 103.322 70.2561 103.189 70.3572 103.007C70.4611 102.824 70.513 102.625 70.513 102.412ZM73.1353 101.567V102.292L72.7587 102.509C72.4903 102.665 72.281 102.71 72.1309 102.647C71.9808 102.581 71.9058 102.376 71.9058 102.032V100.922L71.6114 101.092V100.382L71.9058 100.212V99.5322L72.6461 99.1045V99.7845L73.131 99.5043V100.214L72.6461 100.494V101.614C72.6461 101.698 72.6634 101.748 72.6981 101.764C72.7327 101.781 72.7904 101.766 72.8712 101.719L73.1353 101.567ZM74.288 99.2308C74.3573 99.0608 74.4569 98.8983 74.5867 98.7432C74.7166 98.5882 74.8653 98.4623 75.0327 98.3656C75.2318 98.2505 75.4122 98.2046 75.5738 98.2279C75.7355 98.2512 75.8624 98.3445 75.9548 98.5078C76.0501 98.6694 76.0977 98.8936 76.0977 99.1803C76.0977 99.4669 76.0501 99.7478 75.9548 100.023C75.8624 100.293 75.7355 100.535 75.5738 100.748C75.4122 100.958 75.2318 101.121 75.0327 101.236C74.8624 101.334 74.7137 101.382 74.5867 101.378C74.4597 101.372 74.3602 101.324 74.288 101.236V101.626L73.5477 102.054V98.3536L74.288 97.9258V99.2308ZM75.3444 99.6155C75.3444 99.4022 75.2924 99.2655 75.1885 99.2055C75.0875 99.1406 74.962 99.1515 74.8119 99.2382C74.6647 99.3232 74.5391 99.4574 74.4352 99.6408C74.3342 99.8225 74.2837 100.02 74.2837 100.233C74.2837 100.447 74.3342 100.586 74.4352 100.651C74.5391 100.714 74.6647 100.703 74.8119 100.618C74.9591 100.533 75.0846 100.399 75.1885 100.216C75.2924 100.029 75.3444 99.8288 75.3444 99.6155ZM77.5857 99.7605C77.349 99.8972 77.1355 99.9623 76.945 99.9557C76.7574 99.9474 76.6087 99.8666 76.4991 99.7134C76.3923 99.5584 76.3389 99.3359 76.3389 99.0459C76.3389 98.7592 76.3937 98.4759 76.5034 98.1958C76.6131 97.9125 76.7631 97.6574 76.9536 97.4307C77.1441 97.204 77.3577 97.0222 77.5944 96.8855C77.831 96.7488 78.0446 96.6837 78.2351 96.6903C78.4256 96.6969 78.5757 96.7785 78.6854 96.9351C78.795 97.0884 78.8499 97.3084 78.8499 97.5951C78.8499 97.8818 78.7936 98.1676 78.681 98.4527C78.5714 98.7327 78.4198 98.9869 78.2265 99.2153C78.036 99.442 77.8224 99.6238 77.5857 99.7605ZM77.5857 99.0255C77.7271 98.9438 77.8469 98.8146 77.945 98.6379C78.0461 98.4562 78.0966 98.2537 78.0966 98.0303C78.0966 97.807 78.0475 97.6637 77.9494 97.6004C77.8541 97.5321 77.7358 97.5388 77.5944 97.6205C77.4501 97.7039 77.3303 97.8331 77.235 98.0081C77.1398 98.1831 77.0922 98.384 77.0922 98.6107C77.0922 98.834 77.1383 98.9806 77.2307 99.0506C77.326 99.1156 77.4443 99.1072 77.5857 99.0255ZM80.589 97.2602V97.9852L80.2124 98.2029C79.944 98.3579 79.7347 98.4038 79.5846 98.3406C79.4346 98.2739 79.3595 98.069 79.3595 97.7256V96.6156L79.0651 96.7857V96.0757L79.3595 95.9056V95.2256L80.0998 94.7979V95.4779L80.5847 95.1977V95.9077L80.0998 96.1879V97.3079C80.0998 97.3912 80.1172 97.4412 80.1518 97.4579C80.1864 97.4745 80.2441 97.4595 80.325 97.4128L80.589 97.2602Z" fill="#141BEB"/>
<path d="M73.9971 56.2292L59.6604 47.9503L73.9971 39.6735L88.3359 47.9503L73.9971 56.2292Z" fill="#00EDBE"/>
<path d="M73.9979 56.5289C73.9453 56.5289 73.8946 56.5148 73.8481 56.4884L59.5093 48.2095C59.4162 48.1549 59.3595 48.0557 59.3595 47.9484C59.3595 47.8411 59.4162 47.7418 59.5093 47.6872L73.8481 39.4123C73.9412 39.3577 74.0566 39.3577 74.1497 39.4123L88.4885 47.6912C88.5816 47.7459 88.6383 47.8451 88.6383 47.9524C88.6383 48.0597 88.5816 48.1589 88.4885 48.2136L74.1497 56.4925C74.1032 56.5188 74.0505 56.533 73.9999 56.533L73.9979 56.5289ZM60.2625 47.9504L73.9979 55.881L87.7333 47.9504L73.9979 40.0197L60.2625 47.9504Z" fill="#141BEB"/>
<path d="M73.9991 56.1503L59.6604 47.9503V64.4271L73.9991 72.706L88.3379 64.4271V47.9503L73.9991 56.1503Z" fill="#C2C7FB"/>
<path d="M73.9991 56.1503L59.6604 47.9503V64.4271L73.9991 72.706V56.1503Z" fill="white"/>
<path d="M73.9979 73.006C73.9453 73.006 73.8946 72.9918 73.8481 72.9655L59.5093 64.6866C59.4162 64.6319 59.3595 64.5327 59.3595 64.4254V47.9506C59.3595 47.8433 59.4162 47.7441 59.5093 47.6894C59.6025 47.6348 59.7158 47.6348 59.809 47.6894L73.9979 55.8023L88.1868 47.6894C88.2799 47.6368 88.3933 47.6368 88.4865 47.6894C88.5796 47.7441 88.6363 47.8433 88.6363 47.9506V64.4274C88.6363 64.5347 88.5796 64.6339 88.4865 64.6886L74.1477 72.9675C74.1012 72.9938 74.0485 73.008 73.9979 73.008V73.006ZM59.9608 64.2533L73.9979 72.3581L88.035 64.2533V48.471L74.1477 56.4117C74.0546 56.4644 73.9412 56.4644 73.8481 56.4117L59.9608 48.471V64.2553V64.2533Z" fill="#141BEB"/>
<path d="M73.9972 73.0059C73.8312 73.0059 73.6956 72.8703 73.6956 72.7042V56.1485C73.6956 55.9825 73.8312 55.8468 73.9972 55.8468C74.1633 55.8468 74.2989 55.9825 74.2989 56.1485V72.7042C74.2989 72.8703 74.1633 73.0059 73.9972 73.0059Z" fill="#141BEB"/>
<path d="M51.3251 17.7335L36.9884 9.45461L51.3251 1.17773L65.6639 9.45461L51.3251 17.7335Z" fill="#00EDBE"/>
<path d="M51.3279 18.0335C51.2752 18.0335 51.2246 18.0193 51.178 17.993L36.8393 9.71407C36.7461 9.6594 36.6895 9.56019 36.6895 9.45288C36.6895 9.34557 36.7461 9.24637 36.8393 9.1917L51.178 0.916854C51.2712 0.862188 51.3866 0.862188 51.4797 0.916854L65.8184 9.19575C65.9116 9.25041 65.9683 9.34962 65.9683 9.45693C65.9683 9.56424 65.9116 9.66345 65.8184 9.71811L51.4797 17.997C51.4331 18.0233 51.3805 18.0375 51.3299 18.0375L51.3279 18.0335ZM37.5925 9.45491L51.3279 17.3856L65.0632 9.45491L51.3279 1.52426L37.5925 9.45491Z" fill="#141BEB"/>
<path d="M51.3272 17.6548L36.9884 9.45483V25.9316L51.3272 34.2105L65.6659 25.9316V9.45483L51.3272 17.6548Z" fill="#C2C7FB"/>
<path d="M51.3272 17.6548L36.9884 9.45483V25.9316L51.3272 34.2105V17.6548Z" fill="white"/>
<path d="M51.3279 34.5102C51.2752 34.5102 51.2246 34.4961 51.178 34.4697L36.8393 26.1909C36.7461 26.1362 36.6895 26.037 36.6895 25.9297V9.45489C36.6895 9.34758 36.7461 9.24838 36.8393 9.19371C36.9324 9.13904 37.0458 9.13904 37.1389 9.19371L51.3279 17.3066L65.5168 9.19371C65.6099 9.14107 65.7233 9.14107 65.8164 9.19371C65.9096 9.24838 65.9662 9.34758 65.9662 9.45489V25.9317C65.9662 26.039 65.9096 26.1382 65.8164 26.1929L51.4777 34.4718C51.4311 34.4981 51.3785 34.5123 51.3279 34.5123V34.5102ZM37.2908 25.7576L51.3279 33.8623L65.3649 25.7576V9.97523L51.4777 17.916C51.3845 17.9686 51.2712 17.9686 51.178 17.916L37.2908 9.97523V25.7596V25.7576Z" fill="#141BEB"/>
<path d="M51.3291 34.5104C51.1631 34.5104 51.0275 34.3748 51.0275 34.2088V17.653C51.0275 17.487 51.1631 17.3513 51.3291 17.3513C51.4952 17.3513 51.6308 17.487 51.6308 17.653V34.2088C51.6308 34.3748 51.4952 34.5104 51.3291 34.5104Z" fill="#141BEB"/>
<path d="M73.9971 30.3699L59.6604 22.091L73.9971 13.8141L88.3359 22.091L73.9971 30.3699Z" fill="#00EDBE"/>
<path d="M73.9979 30.6698C73.9453 30.6698 73.8946 30.6556 73.8481 30.6293L59.5093 22.3504C59.4162 22.2958 59.3595 22.1965 59.3595 22.0892C59.3595 21.9819 59.4162 21.8827 59.5093 21.8281L73.8481 13.5532C73.9412 13.4985 74.0566 13.4985 74.1497 13.5532L88.4885 21.8321C88.5816 21.8868 88.6383 21.986 88.6383 22.0933C88.6383 22.2006 88.5816 22.2998 88.4885 22.3545L74.1497 30.6334C74.1032 30.6597 74.0505 30.6739 73.9999 30.6739L73.9979 30.6698ZM60.2625 22.0913L73.9979 30.0219L87.7333 22.0913L73.9979 14.1606L60.2625 22.0913Z" fill="#141BEB"/>
<path d="M73.9991 30.2911L59.6604 22.0912V38.568L73.9991 46.8469L88.3379 38.568V22.0912L73.9991 30.2911Z" fill="#C2C7FB"/>
<path d="M73.9991 30.2911L59.6604 22.0912V38.568L73.9991 46.8469V30.2911Z" fill="white"/>
<path d="M73.9979 47.1465C73.9453 47.1465 73.8946 47.1323 73.8481 47.106L59.5093 38.8271C59.4162 38.7724 59.3595 38.6732 59.3595 38.5659V22.0911C59.3595 21.9838 59.4162 21.8846 59.5093 21.8299C59.6025 21.7753 59.7158 21.7753 59.809 21.8299L73.9979 29.9428L88.1868 21.8299C88.2799 21.7773 88.3933 21.7773 88.4865 21.8299C88.5796 21.8846 88.6363 21.9838 88.6363 22.0911V38.5679C88.6363 38.6752 88.5796 38.7744 88.4865 38.8291L74.1477 47.108C74.1012 47.1343 74.0485 47.1485 73.9979 47.1485V47.1465ZM59.9608 38.3938L73.9979 46.4986L88.035 38.3938V22.6115L74.1477 30.5522C74.0546 30.6049 73.9412 30.6049 73.8481 30.5522L59.9608 22.6115V38.3958V38.3938Z" fill="#141BEB"/>
<path d="M73.9972 47.1465C73.8312 47.1465 73.6956 47.0109 73.6956 46.8449V30.2891C73.6956 30.1231 73.8312 29.9874 73.9972 29.9874C74.1633 29.9874 74.2989 30.1231 74.2989 30.2891V46.8449C74.2989 47.0109 74.1633 47.1465 73.9972 47.1465Z" fill="#141BEB"/>
<path d="M28.1884 55.5122L13.8517 47.2333L28.1884 38.9564L42.5272 47.2333L28.1884 55.5122Z" fill="#00EDBE"/>
<path d="M28.1891 55.8123C28.1365 55.8123 28.0859 55.7981 28.0393 55.7718L13.7005 47.4929C13.6074 47.4382 13.5507 47.339 13.5507 47.2317C13.5507 47.1244 13.6074 47.0252 13.7005 46.9705L28.0393 38.6957C28.1324 38.641 28.2478 38.641 28.341 38.6957L42.6797 46.9746C42.7729 47.0292 42.8295 47.1284 42.8295 47.2357C42.8295 47.343 42.7729 47.4423 42.6797 47.4969L28.341 55.7758C28.2944 55.8021 28.2418 55.8163 28.1911 55.8163L28.1891 55.8123ZM14.4537 47.2337L28.1891 55.1644L41.9245 47.2337L28.1891 39.3031L14.4537 47.2337Z" fill="#141BEB"/>
<path d="M28.1904 55.4337L13.8517 47.2338V63.7106L28.1904 71.9895L42.5292 63.7106V47.2338L28.1904 55.4337Z" fill="#C2C7FB"/>
<path d="M28.1904 55.4337L13.8517 47.2338V63.7106L28.1904 71.9895V55.4337Z" fill="white"/>
<path d="M28.1892 72.2894C28.1365 72.2894 28.0859 72.2752 28.0394 72.2489L13.7006 63.97C13.6075 63.9154 13.5508 63.8162 13.5508 63.7088V47.2341C13.5508 47.1268 13.6075 47.0276 13.7006 46.9729C13.7937 46.9182 13.9071 46.9182 14.0003 46.9729L28.1892 55.0858L42.3781 46.9729C42.4712 46.9202 42.5846 46.9202 42.6778 46.9729C42.7709 47.0276 42.8276 47.1268 42.8276 47.2341V63.7109C42.8276 63.8182 42.7709 63.9174 42.6778 63.972L28.339 72.2509C28.2924 72.2773 28.2398 72.2914 28.1892 72.2914V72.2894ZM14.1521 63.5367L28.1892 71.6415L42.2262 63.5367V47.7544L28.339 55.6952C28.2459 55.7478 28.1325 55.7478 28.0394 55.6952L14.1521 47.7544V63.5388V63.5367Z" fill="#141BEB"/>
<path d="M28.1885 72.2891C28.0225 72.2891 27.8868 72.1535 27.8868 71.9874V55.4317C27.8868 55.2657 28.0225 55.13 28.1885 55.13C28.3545 55.13 28.4902 55.2657 28.4902 55.4317V71.9874C28.4902 72.1535 28.3545 72.2891 28.1885 72.2891Z" fill="#141BEB"/>
<path d="M50.8564 68.1492L36.5197 59.8703L50.8564 51.5934L65.1951 59.8703L50.8564 68.1492Z" fill="#00EDBE"/>
<path d="M50.8571 68.4491C50.8045 68.4491 50.7539 68.4349 50.7073 68.4086L36.3686 60.1297C36.2754 60.075 36.2188 59.9758 36.2188 59.8685C36.2188 59.7612 36.2754 59.662 36.3686 59.6073L50.7073 51.3325C50.8005 51.2778 50.9159 51.2778 51.009 51.3325L65.3477 59.6114C65.4409 59.6661 65.4976 59.7653 65.4976 59.8726C65.4976 59.9799 65.4409 60.0791 65.3477 60.1338L51.009 68.4127C50.9624 68.439 50.9098 68.4532 50.8592 68.4532L50.8571 68.4491ZM37.1218 59.8706L50.8571 67.8012L64.5925 59.8706L50.8571 51.9399L37.1218 59.8706Z" fill="#141BEB"/>
<path d="M50.8584 68.0704L36.5197 59.8705V76.3473L50.8584 84.6262L65.1971 76.3473V59.8705L50.8584 68.0704Z" fill="#C2C7FB"/>
<path d="M50.8584 68.0704L36.5197 59.8705V76.3473L50.8584 84.6262V68.0704Z" fill="white"/>
<path d="M50.8571 84.9261C50.8045 84.9261 50.7539 84.912 50.7073 84.8856L36.3686 76.6067C36.2754 76.5521 36.2188 76.4529 36.2188 76.3456V59.8708C36.2188 59.7635 36.2754 59.6643 36.3686 59.6096C36.4617 59.5549 36.5751 59.5549 36.6682 59.6096L50.8571 67.7225L65.0461 59.6096C65.1392 59.557 65.2526 59.557 65.3457 59.6096C65.4389 59.6643 65.4955 59.7635 65.4955 59.8708V76.3476C65.4955 76.4549 65.4389 76.5541 65.3457 76.6088L51.007 84.8877C50.9604 84.914 50.9078 84.9282 50.8571 84.9282V84.9261ZM36.8201 76.1735L50.8571 84.2782L64.8942 76.1735V60.3911L51.007 68.3319C50.9138 68.3845 50.8005 68.3845 50.7073 68.3319L36.8201 60.3911V76.1755V76.1735Z" fill="#141BEB"/>
<path d="M50.8565 84.9261C50.6905 84.9261 50.5548 84.7904 50.5548 84.6244V68.0686C50.5548 67.9026 50.6905 67.767 50.8565 67.767C51.0225 67.767 51.1582 67.9026 51.1582 68.0686V84.6244C51.1582 84.7904 51.0225 84.9261 50.8565 84.9261Z" fill="#141BEB"/>
<path d="M28.1884 29.6537L13.8517 21.3748L28.1884 13.0979L42.5272 21.3748L28.1884 29.6537Z" fill="#00EDBE"/>
<path d="M28.1891 29.9536C28.1365 29.9536 28.0859 29.9394 28.0393 29.9131L13.7005 21.6342C13.6074 21.5796 13.5507 21.4804 13.5507 21.373C13.5507 21.2657 13.6074 21.1665 13.7005 21.1119L28.0393 12.837C28.1324 12.7824 28.2478 12.7824 28.341 12.837L42.6797 21.1159C42.7729 21.1706 42.8295 21.2698 42.8295 21.3771C42.8295 21.4844 42.7729 21.5836 42.6797 21.6383L28.341 29.9172C28.2944 29.9435 28.2418 29.9577 28.1911 29.9577L28.1891 29.9536ZM14.4537 21.3751L28.1891 29.3057L41.9245 21.3751L28.1891 13.4444L14.4537 21.3751Z" fill="#141BEB"/>
<path d="M28.1904 29.5749L13.8517 21.375V37.8518L28.1904 46.1307L42.5292 37.8518V21.375L28.1904 29.5749Z" fill="#C2C7FB"/>
<path d="M28.1904 29.5749L13.8517 21.375V37.8518L28.1904 46.1307V29.5749Z" fill="white"/>
<path d="M28.1892 46.4304C28.1365 46.4304 28.0859 46.4162 28.0394 46.3899L13.7006 38.111C13.6075 38.0564 13.5508 37.9571 13.5508 37.8498V21.3751C13.5508 21.2678 13.6075 21.1685 13.7006 21.1139C13.7937 21.0592 13.9071 21.0592 14.0003 21.1139L28.1892 29.2267L42.3781 21.1139C42.4712 21.0612 42.5846 21.0612 42.6778 21.1139C42.7709 21.1685 42.8276 21.2678 42.8276 21.3751V37.8519C42.8276 37.9592 42.7709 38.0584 42.6778 38.113L28.339 46.3919C28.2924 46.4183 28.2398 46.4324 28.1892 46.4324V46.4304ZM14.1521 37.6777L28.1892 45.7825L42.2262 37.6777V21.8954L28.339 29.8362C28.2459 29.8888 28.1325 29.8888 28.0394 29.8362L14.1521 21.8954V37.6798V37.6777Z" fill="#141BEB"/>
<path d="M28.1885 46.4304C28.0225 46.4304 27.8868 46.2947 27.8868 46.1287V29.5729C27.8868 29.4069 28.0225 29.2712 28.1885 29.2712C28.3545 29.2712 28.4902 29.4069 28.4902 29.5729V46.1287C28.4902 46.2947 28.3545 46.4304 28.1885 46.4304Z" fill="#141BEB"/>
<path d="M50.8564 42.2904L36.5197 34.0115L50.8564 25.7346L65.1951 34.0115L50.8564 42.2904Z" fill="#00EDBE"/>
<path d="M50.8571 42.5899C50.8045 42.5899 50.7539 42.5757 50.7073 42.5494L36.3686 34.2705C36.2754 34.2158 36.2188 34.1166 36.2188 34.0093C36.2188 33.902 36.2754 33.8028 36.3686 33.7481L50.7073 25.4733C50.8005 25.4186 50.9159 25.4186 51.009 25.4733L65.3477 33.7521C65.4409 33.8068 65.4976 33.906 65.4976 34.0133C65.4976 34.1206 65.4409 34.2198 65.3477 34.2745L51.009 42.5534C50.9624 42.5797 50.9098 42.5939 50.8592 42.5939L50.8571 42.5899ZM37.1218 34.0113L50.8571 41.942L64.5925 34.0113L50.8571 26.0807L37.1218 34.0113Z" fill="#141BEB"/>
<path d="M50.8584 42.2112L36.5197 34.0112V50.488L50.8584 58.7669L65.1971 50.488V34.0112L50.8584 42.2112Z" fill="#C2C7FB"/>
<path d="M50.8584 42.2112L36.5197 34.0112V50.488L50.8584 58.7669V42.2112Z" fill="white"/>
<path d="M50.8571 59.0669C50.8045 59.0669 50.7539 59.0527 50.7073 59.0264L36.3686 50.7475C36.2754 50.6928 36.2188 50.5936 36.2188 50.4863V34.0115C36.2188 33.9042 36.2754 33.805 36.3686 33.7504C36.4617 33.6957 36.5751 33.6957 36.6682 33.7504L50.8571 41.8632L65.0461 33.7504C65.1392 33.6977 65.2526 33.6977 65.3457 33.7504C65.4389 33.805 65.4955 33.9042 65.4955 34.0115V50.4883C65.4955 50.5956 65.4389 50.6949 65.3457 50.7495L51.007 59.0284C50.9604 59.0547 50.9078 59.0689 50.8571 59.0689V59.0669ZM36.8201 50.3142L50.8571 58.419L64.8942 50.3142V34.5319L51.007 42.4726C50.9138 42.5253 50.8005 42.5253 50.7073 42.4726L36.8201 34.5319V50.3162V50.3142Z" fill="#141BEB"/>
<path d="M50.8565 59.0666C50.6905 59.0666 50.5548 58.9309 50.5548 58.7649V42.2091C50.5548 42.0431 50.6905 41.9075 50.8565 41.9075C51.0225 41.9075 51.1582 42.0431 51.1582 42.2091V58.7649C51.1582 58.9309 51.0225 59.0666 50.8565 59.0666Z" fill="#141BEB"/>
</svg>
