<svg width="43" height="43" viewBox="0 0 43 43" fill="none" xmlns="http://www.w3.org/2000/svg">
<path d="M21.8745 40.4844C20.667 40.4844 19.5295 39.8719 18.7245 38.8044L16.0995 35.3044C16.047 35.2344 15.837 35.1469 15.7495 35.1294H14.8745C7.57701 35.1294 3.06201 33.1519 3.06201 23.3169V14.5669C3.06201 6.83189 7.13951 2.75439 14.8745 2.75439H28.8745C36.6095 2.75439 40.687 6.83189 40.687 14.5669V23.3169C40.687 31.0519 36.6095 35.1294 28.8745 35.1294H27.9995C27.8595 35.1294 27.737 35.1994 27.6495 35.3044L25.0245 38.8044C24.2195 39.8719 23.082 40.4844 21.8745 40.4844ZM14.8745 5.37939C8.60951 5.37939 5.68701 8.30189 5.68701 14.5669V23.3169C5.68701 31.2269 8.39951 32.5044 14.8745 32.5044H15.7495C16.642 32.5044 17.657 33.0119 18.1995 33.7294L20.8245 37.2294C21.437 38.0344 22.312 38.0344 22.9245 37.2294L25.5495 33.7294C26.127 32.9594 27.037 32.5044 27.9995 32.5044H28.8745C35.1395 32.5044 38.062 29.5819 38.062 23.3169V14.5669C38.062 8.30189 35.1395 5.37939 28.8745 5.37939H14.8745Z" fill="black"/>
<path d="M30.6245 15.8794H13.1245C12.407 15.8794 11.812 15.2844 11.812 14.5669C11.812 13.8494 12.407 13.2544 13.1245 13.2544H30.6245C31.342 13.2544 31.937 13.8494 31.937 14.5669C31.937 15.2844 31.342 15.8794 30.6245 15.8794Z" fill="black"/>
<path d="M23.6245 24.6294H13.1245C12.407 24.6294 11.812 24.0344 11.812 23.3169C11.812 22.5994 12.407 22.0044 13.1245 22.0044H23.6245C24.342 22.0044 24.937 22.5994 24.937 23.3169C24.937 24.0344 24.342 24.6294 23.6245 24.6294Z" fill="black"/>
</svg>
