<svg width="13" height="16" viewBox="0 0 13 16" fill="none" xmlns="http://www.w3.org/2000/svg">
<path d="M3.82031 4.1125H8.74219C9.04051 4.1125 9.28438 3.86863 9.28438 3.57031C9.28438 3.272 9.04051 3.02813 8.74219 3.02813H8.06173C8.20963 2.74887 8.3 2.43338 8.3 2.09375C8.3 0.978709 7.39629 0.075 6.28125 0.075C5.16621 0.075 4.2625 0.978709 4.2625 2.09375C4.2625 2.43332 4.35229 2.74881 4.50056 3.02813H3.82031C3.522 3.02813 3.27813 3.272 3.27813 3.57031C3.27813 3.86863 3.522 4.1125 3.82031 4.1125ZM6.28125 1.15937C6.79627 1.15937 7.21562 1.57873 7.21562 2.09375C7.21562 2.60877 6.79627 3.02813 6.28125 3.02813C5.76623 3.02813 5.34688 2.60877 5.34688 2.09375C5.34688 1.57877 5.76742 1.15937 6.28125 1.15937ZM10.2188 2.04375C9.91908 2.04375 9.67656 2.28627 9.67656 2.58594C9.67656 2.8857 9.92052 3.12812 10.2188 3.12812C10.7338 3.12812 11.1531 3.54688 11.1531 4.0625V13.9062C11.1531 14.4219 10.7338 14.8406 10.2188 14.8406H2.34375C1.82871 14.8406 1.40937 14.4219 1.40937 13.9062V4.0625C1.40937 3.54688 1.82871 3.12812 2.34375 3.12812C2.64342 3.12812 2.88594 2.88561 2.88594 2.58594C2.88594 2.28626 2.64329 2.04375 2.34375 2.04375C1.23024 2.04375 0.325 2.94962 0.325 4.0625V13.9062C0.325 15.0191 1.23024 15.925 2.34375 15.925H10.2188C11.3323 15.925 12.2375 15.0191 12.2375 13.9062V4.0625C12.2375 2.94962 11.3323 2.04375 10.2188 2.04375ZM2.53984 8C2.53984 8.43521 2.89292 8.78828 3.32812 8.78828C3.76365 8.78828 4.11641 8.43519 4.11641 8C4.11641 7.56449 3.76364 7.21172 3.32812 7.21172C2.89299 7.21172 2.53984 7.56319 2.53984 8ZM3.32812 10.1648C2.89293 10.1648 2.53984 10.5176 2.53984 10.9531C2.53984 11.3883 2.89292 11.7414 3.32812 11.7414C3.76365 11.7414 4.11641 11.3883 4.11641 10.9531C4.11641 10.5164 3.76487 10.1648 3.32812 10.1648ZM9.72656 7.45781H5.78906C5.49075 7.45781 5.24687 7.70168 5.24687 8C5.24687 8.29823 5.4893 8.54219 5.78906 8.54219H9.72656C10.0249 8.54219 10.2688 8.29832 10.2688 8C10.2688 7.70168 10.0249 7.45781 9.72656 7.45781ZM9.72656 10.4109H5.78906C5.49075 10.4109 5.24687 10.6548 5.24687 10.9531C5.24687 11.2514 5.4893 11.4953 5.78906 11.4953H9.72656C10.0262 11.4953 10.2688 11.2528 10.2688 10.9531C10.2688 10.6534 10.0248 10.4109 9.72656 10.4109Z" fill="#9497ED" stroke="#9497ED" stroke-width="0.1"/>
</svg>
