<svg width="13" height="16" viewBox="0 0 13 16" fill="none" xmlns="http://www.w3.org/2000/svg">
<path fill-rule="evenodd" clip-rule="evenodd" d="M12.0625 0.125H1.0375C0.602575 0.125 0.25 0.477575 0.25 0.912499V13.7172C0.252901 13.9257 0.334472 14.1254 0.478375 14.2764L1.96675 15.7568C2.03784 15.8333 2.13795 15.8762 2.24237 15.875H2.47075C2.57517 15.8762 2.67528 15.8333 2.74637 15.7568L4.18749 14.3C4.26019 14.2258 4.35926 14.1833 4.46312 14.1819C4.5668 14.1842 4.66556 14.2265 4.73874 14.3L6.16412 15.7253C6.23521 15.8018 6.33531 15.8447 6.43974 15.8435H6.66811C6.77254 15.8447 6.87264 15.8018 6.94374 15.7253L8.37699 14.3C8.44968 14.2258 8.54875 14.1833 8.65261 14.1819C8.75078 14.1881 8.84325 14.2301 8.91249 14.3L10.3379 15.7253C10.409 15.8018 10.5091 15.8447 10.6135 15.8435H10.8419C10.9463 15.8447 11.0464 15.8018 11.1175 15.7253L12.6216 14.3C12.7671 14.1533 12.8491 13.9553 12.85 13.7487V0.912499C12.85 0.477575 12.4974 0.125 12.0625 0.125ZM9.30622 6.42499C9.52369 6.42499 9.69997 6.2487 9.69997 6.03124V5.24374C9.69997 5.02628 9.52369 4.84999 9.30622 4.84999H3.79373C3.57627 4.84999 3.39998 5.02628 3.39998 5.24374V6.03124C3.39998 6.2487 3.57627 6.42499 3.79373 6.42499H9.30622ZM6.94373 9.57499C7.16119 9.57499 7.33748 9.3987 7.33748 9.18124V8.39374C7.33748 8.17628 7.16119 7.99999 6.94373 7.99999H3.79373C3.57627 7.99999 3.39998 8.17628 3.39998 8.39374V9.18124C3.39998 9.3987 3.57627 9.57499 3.79373 9.57499H6.94373ZM10.7552 13.922L11.275 13.4022V1.69999H1.82501V13.3865L2.36051 13.922L3.32913 12.9533C3.47581 12.8079 3.67379 12.7258 3.88038 12.725H5.02225C5.22885 12.7258 5.42682 12.8079 5.5735 12.9533L6.55 13.9298L7.56587 12.9533C7.71449 12.8059 7.91568 12.7238 8.125 12.725H9.2275C9.43409 12.7258 9.63207 12.8079 9.77875 12.9533L10.0465 13.2211L10.1725 13.3471L10.7552 13.922Z" fill="#9497ED"/>
</svg>
