<svg width="1200" height="791" viewBox="0 0 1200 791" fill="none" xmlns="http://www.w3.org/2000/svg">
<g opacity="0.4">
<path d="M1151.11 767.049L1012.58 686.293L1011.47 688.203L1148.93 768.332L1150.04 821.392L1072.2 866.397C1066.97 863.989 1059.35 864.182 1054.53 866.981C1049.35 869.987 1049.38 874.866 1054.6 877.88C1059.81 880.885 1068.23 880.885 1073.41 877.88C1078.22 875.087 1078.53 870.699 1074.4 867.672L1150.09 823.907L1151.76 903.103L1153.97 903.06L1151.12 767.662L1151.11 767.042V767.049Z" fill="#02EEC4" fill-opacity="0.72"/>
<path d="M1149.88 635.126L1148.77 637.033L1651.3 929.906L1652.41 927.999L1149.88 635.126Z" fill="#02EEC4" fill-opacity="0.72"/>
<path d="M1151.39 697.52H1195.66C1196.06 699.108 1197.31 700.639 1199.43 701.865C1204.64 704.871 1213.06 704.871 1218.24 701.865C1223.42 698.859 1223.4 693.979 1218.18 690.966C1212.97 687.96 1204.54 687.96 1199.36 690.966C1197.26 692.191 1196.03 693.723 1195.64 695.311H1151.96L1104.17 668.777L1103.09 670.708L1151.13 697.384L1151.38 697.52H1151.39Z" fill="#02EEC4" fill-opacity="0.72"/>
<path d="M1239.72 371.846H1308.29C1308.7 373.434 1309.94 374.966 1312.06 376.191C1317.28 379.197 1325.7 379.197 1330.88 376.191C1336.06 373.185 1336.03 368.306 1330.81 365.293C1325.6 362.287 1317.18 362.287 1312 365.293C1309.89 366.518 1308.66 368.049 1308.28 369.638H1239.14L1138.12 426.609L1139.2 428.532L1239.71 371.846H1239.72Z" fill="#02EEC4" fill-opacity="0.72"/>
<path d="M1339.82 291.802L1340.35 291.482V170.622L1394.9 139.144H1501.67L1626.5 67.7841C1631.73 70.0849 1639.19 69.8569 1643.94 67.1002C1649.12 64.0942 1649.09 59.2148 1643.87 56.2017C1638.66 53.1957 1630.24 53.1957 1625.06 56.2017C1620.19 59.0296 1619.92 63.503 1624.23 66.5304L1501.07 136.929H1398.72L1665.29 -16.9181C1670.49 -14.7812 1677.73 -15.059 1682.37 -17.7515C1687.55 -20.7575 1687.52 -25.6369 1682.31 -28.6501C1677.09 -31.6632 1668.67 -31.6561 1663.49 -28.6501C1658.52 -25.758 1658.36 -21.1564 1662.96 -18.1291L1338.69 169.019L1338.15 169.34V290.221L1159.85 396.82L1160.98 398.715L1339.82 291.795V291.802Z" fill="#02EEC4" fill-opacity="0.72"/>
<path d="M1268.45 224.146C1269.1 225.165 1270.12 226.126 1271.54 226.945C1276.76 229.951 1285.18 229.951 1290.36 226.945C1295.54 223.939 1295.51 219.06 1290.29 216.047C1285.08 213.041 1276.66 213.041 1271.48 216.047C1268.7 217.664 1267.43 219.815 1267.65 221.931H1220.14L1137.25 268.481V160.692L1247.86 98.5922H1370.98L1676.46 -81.0981L1675.35 -83L1370.38 96.3983H1251.8L1316.48 60.0841V-40.1895C1319.11 -40.4459 1321.64 -41.1582 1323.66 -42.3335C1328.84 -45.3395 1328.81 -50.2189 1323.6 -53.2321C1318.38 -56.2381 1309.96 -56.2381 1304.78 -53.2321C1299.6 -50.2261 1299.63 -45.3467 1304.84 -42.3335C1307.45 -40.8305 1310.86 -40.0755 1314.27 -40.0755V58.7948L1135.04 159.417V268.816H1136.68L981.7 355.861L982.783 357.785L1220.71 224.153H1268.44L1268.45 224.146Z" fill="#02EEC4" fill-opacity="0.72"/>
<path d="M806.088 451.334L803.908 452.609L706.238 394.64C701.029 396.963 693.527 396.749 688.732 393.978C683.516 390.972 683.488 386.092 688.667 383.087C693.847 380.073 702.276 380.073 707.485 383.087C712.373 385.9 712.7 390.366 708.461 393.394L806.088 451.334Z" fill="#02EEC4" fill-opacity="0.72"/>
<path d="M932.708 390.103L930.499 391.399L859.697 351.602H804.756C804.371 353.198 803.139 354.729 801.037 355.947C795.857 358.96 787.428 358.96 782.219 355.947C777.004 352.941 776.975 348.062 782.155 345.056C787.335 342.043 795.764 342.043 800.973 345.056C803.096 346.274 804.343 347.805 804.742 349.401H860.275L860.531 349.536L932.708 390.103Z" fill="#02EEC4" fill-opacity="0.72"/>
<path d="M982.562 670.416L888.967 727.572V727.48H886.758V728.919L733.612 822.439L733.085 822.76V904.584H735.294V823.999L886.766 731.504V808.499L801.692 858.618C796.455 856.26 788.903 856.46 784.115 859.245C778.935 862.251 778.963 867.13 784.179 870.143C789.394 873.149 797.816 873.149 802.996 870.143C807.827 867.337 808.126 862.906 803.908 859.879L888.974 809.767V730.158L983.723 672.303L982.569 670.416H982.562Z" fill="#02EEC4" fill-opacity="0.72"/>
<path d="M937.46 661.618L936.363 659.702L691.553 799.93H602.404C601.998 798.341 600.751 796.81 598.635 795.585C593.42 792.579 584.998 792.579 579.818 795.585C574.638 798.591 574.666 803.47 579.882 806.483C585.098 809.489 593.519 809.489 598.699 806.483C600.801 805.258 602.034 803.726 602.419 802.138H692.145L937.46 661.618Z" fill="#02EEC4" fill-opacity="0.72"/>
<path d="M867.507 641.973L680.923 751.1C675.686 748.721 668.112 748.921 663.309 751.713C658.13 754.719 658.158 759.598 663.374 762.611C668.589 765.617 677.011 765.617 682.191 762.611C687.007 759.812 687.314 755.396 683.131 752.368L868.618 643.882L867.507 641.973Z" fill="#02EEC4" fill-opacity="0.72"/>
<path d="M868.119 604.227L737.253 680.616H658.144L593.056 721.567C587.841 719.359 580.502 719.608 575.814 722.337C570.634 725.343 570.662 730.222 575.878 733.235C581.093 736.241 589.515 736.241 594.695 733.235C599.64 730.365 599.825 725.798 595.308 722.771L658.792 682.831H733.477L592.565 765.083H444.855L316.02 842.74C310.783 839.941 302.646 840.005 297.594 842.947C292.414 845.953 292.443 850.832 297.658 853.845C302.874 856.851 311.296 856.851 316.476 853.845C321.036 851.196 321.556 847.1 318.057 844.101L445.475 767.298H588.788L520.103 807.388L519.554 807.708V906.643H521.763V808.976L869.245 606.15L868.134 604.241L868.119 604.227Z" fill="#02EEC4" fill-opacity="0.72"/>
<path d="M274.68 720.727H560.573L776.619 598.671L775.529 596.748L559.989 718.519H274.082L-67.2801 918.831L-66.1615 920.733L228.21 747.995V829.663L150.676 873.841C145.453 870.885 137.109 870.906 131.958 873.891C126.778 876.897 126.807 881.776 132.022 884.789C137.238 887.795 145.659 887.795 150.839 884.789C155.293 882.203 155.884 878.236 152.649 875.258L229.863 831.265L230.419 830.945V746.698L274.68 720.727Z" fill="#02EEC4" fill-opacity="0.72"/>
<path d="M618.92 650.905L754.047 566.595L752.879 564.721L618.286 648.697H333.711L290.149 673.842H144.947L-10.8211 763.231C-16.0438 760.296 -24.3659 760.318 -29.503 763.302C-34.6829 766.308 -34.6544 771.188 -29.4389 774.201C-24.2234 777.207 -15.8015 777.207 -10.6216 774.201C-6.1542 771.608 -5.56994 767.619 -8.84035 764.641L145.531 676.057H286.322L154.452 752.162C149.229 749.241 140.928 749.27 135.798 752.247C130.618 755.253 130.647 760.132 135.863 763.146C141.078 766.152 149.5 766.152 154.68 763.146C159.161 760.546 159.739 756.542 156.44 753.565L334.303 650.912H618.92V650.905Z" fill="#02EEC4" fill-opacity="0.72"/>
<path d="M-29.9946 425.918L167.184 538.109L167.455 538.265H349.757L423.252 581.119L423.53 581.283H655.935L730.777 538.992L729.615 536.941L655.315 578.925H546.729V511.447L379.618 421.765C379.981 421.594 380.331 421.409 380.665 421.217C386.194 418.004 386.166 412.79 380.601 409.577C375.037 406.365 366.038 406.365 360.501 409.577C354.972 412.79 355.001 418.004 360.566 421.217C364.926 423.731 371.381 424.273 376.64 422.848L544.371 512.864V578.932H424.171L-186.81 222.686L-188 224.723L345.71 535.901H168.075L-29.104 423.71L-29.3748 423.553H-103.746C-103.782 421.466 -105.178 419.379 -107.936 417.783C-113.5 414.571 -122.499 414.571 -128.035 417.783C-133.565 420.996 -133.536 426.21 -127.971 429.423C-122.407 432.635 -113.408 432.635 -107.872 429.423C-106.126 428.411 -104.936 427.193 -104.302 425.911H-29.9946V425.918Z" fill="#02EEC4" fill-opacity="0.72"/>
<path d="M864.799 448.634L862.619 449.909L746.879 381.897V309.09L383.8 98.4355C378.592 100.815 371.011 100.615 366.18 97.8229C360.972 94.8169 360.943 89.9375 366.123 86.9244C371.303 83.9184 379.725 83.9184 384.94 86.9244C389.785 89.7238 390.142 94.1331 386.009 97.1605L623.459 234.931V135.975L558.015 98.4142C552.807 100.815 545.183 100.622 540.338 97.8229C535.122 94.8169 535.101 89.9375 540.281 86.9244C545.461 83.9184 553.883 83.9184 559.098 86.9244C563.922 89.7167 564.292 94.1046 560.21 97.1249L625.668 134.7V236.213L749.088 307.823V380.629L864.799 448.634Z" fill="#02EEC4" fill-opacity="0.72"/>
<path d="M767.492 480.724L765.305 482.006L655.272 418.104V328.829L603.338 298.819H444.406L444.157 298.683L350.968 246.605C345.76 249.077 338.05 248.899 333.163 246.078C327.947 243.072 327.919 238.193 333.098 235.18C338.278 232.174 346.7 232.174 351.916 235.18C356.697 237.944 357.103 242.274 353.141 245.295L444.983 296.61H599.519L404.827 184.128C399.618 186.514 392.023 186.314 387.185 183.522C381.976 180.516 381.948 175.637 387.128 172.624C392.308 169.618 400.73 169.618 405.945 172.624C410.783 175.423 411.146 179.825 407.028 182.845L657.481 327.554V416.836L767.492 480.724Z" fill="#02EEC4" fill-opacity="0.72"/>
<path d="M743.58 499.38L741.386 500.67L651.945 449.39H495.429L495.172 449.24L345.439 361.19V306.27C342.425 306.113 339.482 305.379 337.167 304.04C331.951 301.034 331.93 296.155 337.11 293.142C342.283 290.136 350.712 290.136 355.927 293.142C361.136 296.155 361.164 301.034 355.984 304.04C353.661 305.387 350.69 306.127 347.648 306.27V359.929L496.034 447.181H652.536L652.793 447.331L743.58 499.38Z" fill="#02EEC4" fill-opacity="0.72"/>
<path d="M967.892 381.142L965.704 382.424L731.575 246.37V122.882C728.561 122.733 725.611 121.992 723.302 120.653C718.087 117.647 718.058 112.767 723.238 109.761C728.418 106.748 736.84 106.748 742.056 109.761C747.271 112.767 747.3 117.647 742.12 120.653C739.797 122.006 736.826 122.74 733.783 122.882V245.102L967.892 381.142Z" fill="#02EEC4" fill-opacity="0.72"/>
<path d="M1549.66 885.366C1544.8 882.56 1537.16 882.374 1531.95 884.796L1242.48 719.751L1242.22 719.609H1148.8L1083.82 682.176L1082.71 684.092L1225.85 766.537V854.024L1344.5 922.015L1345.6 920.099L1228.06 852.749V765.262L1152.64 721.817H1241.63L1329.14 771.715V840.882L1406.02 886C1401.83 889.027 1402.18 893.465 1407.04 896.272C1412.26 899.278 1420.68 899.278 1425.86 896.272C1431.04 893.266 1431.01 888.386 1425.8 885.373C1420.99 882.595 1413.44 882.389 1408.23 884.739L1331.35 839.621V772.976L1529.75 886.093C1525.7 889.113 1526.08 893.487 1530.89 896.272C1536.11 899.278 1544.53 899.278 1549.71 896.272C1554.89 893.266 1554.86 888.386 1549.65 885.373L1549.66 885.366Z" fill="#02EEC4" fill-opacity="0.72"/>
<path d="M1684.07 824.227C1679.71 821.706 1673.09 821.307 1668.01 823.009L1477.18 711.73L1476.92 711.581H1369.83L1194.18 609.413L1193.06 611.322L1325.34 688.259V713.326L1489.25 806.939C1484.24 809.953 1484.31 814.761 1489.47 817.738C1494.68 820.744 1503.1 820.744 1508.28 817.738C1513.46 814.732 1513.44 809.853 1508.22 806.84C1503.72 804.24 1496.81 803.891 1491.68 805.785L1327.54 712.051V689.549L1368.98 713.647L1369.23 713.796H1476.32L1665.5 824.106C1665.42 824.149 1665.34 824.185 1665.26 824.235C1660.08 827.241 1660.11 832.12 1665.32 835.133C1670.54 838.139 1678.96 838.139 1684.14 835.133C1689.32 832.127 1689.29 827.248 1684.07 824.235V824.227Z" fill="#02EEC4" fill-opacity="0.72"/>
<path d="M1262.83 271.473C1268.01 268.467 1267.98 263.587 1262.76 260.574C1257.55 257.568 1249.12 257.568 1243.94 260.574C1239.12 263.381 1238.82 267.804 1243.01 270.825L1066.07 374.653L1067.19 376.555L1245.22 272.085C1250.46 274.457 1258.02 274.251 1262.81 271.466L1262.83 271.473Z" fill="#02EEC4" fill-opacity="0.72"/>
<path d="M1126.85 13.2561C1122.15 15.9842 1114.79 16.2264 1109.57 14.004L933.506 117.561V329.071L992.124 362.315L989.915 363.604L931.297 330.36V116.293L931.846 115.973L1107.29 12.7788C1102.84 9.75143 1103.05 5.21394 1107.97 2.35753C1113.15 -0.648472 1121.58 -0.648472 1126.79 2.35753C1132 5.36352 1132.03 10.2429 1126.85 13.2561Z" fill="#02EEC4" fill-opacity="0.72"/>
</g>
</svg>
