<svg xmlns="http://www.w3.org/2000/svg" width="429" height="684" fill="none" viewBox="0 0 429 684">
  <path fill="#0C0C0C" d="m-71.55 532.856 249.529 151.073 249.53-151.073-249.53-151.59-249.53 151.59Z"/>
  <path fill="#1217C9" d="m-71.55 532.856 249.529 151.073 249.53-151.073-249.53-151.59-249.53 151.59Z"/>
  <path fill="#C2C7FB" d="M-71.496 357.56-72 493.637l250.025 151.318V508.627L-71.496 357.56Z"/>
  <path fill="#C2C7FB" stroke="#0D129E" stroke-miterlimit="10" stroke-width="1.538" d="M-71.496 357.56-72 493.637l250.025 151.318V508.627L-71.496 357.56Z"/>
  <path fill="#E9EBFB" d="m427.499 357.525.504 136.084-250.035 151.317V508.599l249.531-151.074Z"/>
  <path fill="#E9EBFB" stroke="#0C0C0C" stroke-linecap="round" stroke-linejoin="round" stroke-width="1.538" d="m427.499 357.525.504 136.084-250.035 151.317V508.599l249.531-151.074Z"/>
  <path fill="#fff" d="m-71.55 357.524 249.529 151.074 249.53-151.074-249.53-151.59-249.53 151.59Z"/>
  <path stroke="#0D129E" stroke-linecap="round" stroke-linejoin="round" stroke-width="1.538" d="m-71.55 357.524 249.529 151.074 249.53-151.074-249.53-151.59-249.53 151.59Z"/>
  <path fill="#0D129E" d="M268.658 365.391c0 31.446-41.971 56.937-93.747 56.937-51.774 0-93.747-25.491-93.747-56.937 0-31.445 41.973-56.936 93.747-56.936 51.776 0 93.747 25.491 93.747 56.936Z"/>
  <path stroke="#0D129E" stroke-miterlimit="10" stroke-width="1.538" d="M268.658 365.391c0 31.446-41.971 56.937-93.747 56.937-51.774 0-93.747-25.491-93.747-56.937 0-31.445 41.973-56.936 93.747-56.936 51.776 0 93.747 25.491 93.747 56.936Z"/>
  <path fill="#3C4EF5" d="M278.394 345.023c0 34.706-46.324 62.838-103.466 62.838-57.143 0-103.467-28.132-103.467-62.838s46.324-62.838 103.467-62.838c57.142 0 103.466 28.132 103.466 62.838Z"/>
  <path stroke="#0D129E" stroke-miterlimit="10" stroke-width="1.538" d="M278.394 345.023c0 34.706-46.324 62.838-103.466 62.838-57.143 0-103.467-28.132-103.467-62.838s46.324-62.838 103.467-62.838c57.142 0 103.466 28.132 103.466 62.838Z"/>
  <path fill="#3C4EF5" d="M281.941 324.666c0 35.888-47.904 64.983-106.996 64.983-59.091 0-106.995-29.095-106.995-64.983 0-35.889 47.904-64.983 106.995-64.983 59.092 0 106.996 29.094 106.996 64.983Z"/>
  <path stroke="#0D129E" stroke-miterlimit="10" stroke-width="1.538" d="M281.941 324.666c0 35.888-47.904 64.983-106.996 64.983-59.091 0-106.995-29.095-106.995-64.983 0-35.889 47.904-64.983 106.995-64.983 59.092 0 106.996 29.094 106.996 64.983Z"/>
  <path fill="#fff" d="M281.95 304.302c0 35.889-47.904 64.983-106.995 64.983-59.092 0-106.996-29.094-106.996-64.983 0-35.888 47.904-64.983 106.996-64.983 59.091 0 106.995 29.095 106.995 64.983Z"/>
  <path stroke="#0D129E" stroke-linecap="round" stroke-linejoin="round" stroke-width="1.538" d="M281.95 304.302c0 35.889-47.904 64.983-106.995 64.983-59.092 0-106.996-29.094-106.996-64.983 0-35.888 47.904-64.983 106.996-64.983 59.091 0 106.995 29.095 106.995 64.983Z"/>
  <path stroke="#0D129E" stroke-miterlimit="10" stroke-width="1.538" d="M281.964 112.811C281.964 51.315 233.809 1 174.954 1h-.003c-58.855 0-107.01 50.315-107.01 111.811V300.88c0 .291.051.568.124.835-.055.857-.09 1.718-.09 2.584 0 35.889 47.901 64.983 106.994 64.983 59.091 0 106.995-29.094 106.995-64.983 0-.897-.038-1.79-.097-2.678.058-.24.097-.485.097-.741V112.811Z"/>
  <path fill="url(#a)" d="M281.964 112.811C281.964 51.315 233.809 1 174.954 1h-.003c-58.855 0-107.01 50.315-107.01 111.811V300.88c0 .291.051.568.124.835-.055.857-.09 1.718-.09 2.584 0 35.889 47.901 64.983 106.994 64.983 59.091 0 106.995-29.094 106.995-64.983 0-.897-.038-1.79-.097-2.678.058-.24.097-.485.097-.741V112.811Z"/>
  <path stroke="#0D129E" stroke-miterlimit="10" stroke-width="1.538" d="m200.205 521.491 205.066-122.61-.454 81.706-203.659 123.038-.953-82.134Z"/>
  <path fill="#3C4EF5" d="m209.87 527.185 205.065-122.61-.453 81.705-203.66 123.039-.952-82.134Z"/>
  <path stroke="#0D129E" stroke-linecap="round" stroke-linejoin="round" stroke-width="1.538" d="m209.87 527.185 205.065-122.61-.453 81.705-203.66 123.039-.952-82.134Z"/>
  <path fill="#fff" d="m200.205 521.491 9.672 5.694 205.065-122.611-9.671-5.693-205.066 122.61Z"/>
  <path stroke="#0D129E" stroke-linecap="round" stroke-linejoin="round" stroke-width="1.538" d="m200.205 521.491 9.672 5.694 205.065-122.611-9.671-5.693-205.066 122.61Z"/>
  <path fill="#C2C8CF" d="m200.205 521.491.953 82.134 9.67 5.691-.951-82.133-9.672-5.692Z"/>
  <path stroke="#0D129E" stroke-linecap="round" stroke-linejoin="round" stroke-width="1.538" d="m200.205 521.491.953 82.134 9.67 5.691-.951-82.133-9.672-5.692Z"/>
  <path fill="#fff" d="m386.988 458.047-53.289 32.146c-2.528 1.525-4.574 5.229-4.566 8.263.009 3.026 2.068 4.25 4.595 2.726l53.29-32.147c2.519-1.521 4.566-5.223 4.557-8.247-.008-3.035-2.066-4.262-4.587-2.741Z"/>
  <path fill="#0D129E" d="M333.731 501.179c-2.527 1.526-4.587.299-4.594-2.726-.008-3.034 2.037-6.737 4.564-8.262l53.29-32.146c2.519-1.52 4.58-.295 4.588 2.74.009 3.025-2.038 6.729-4.558 8.249l-53.29 32.145Zm53.255-45.176-53.289 32.146c-3.462 2.09-6.272 7.173-6.261 11.33.012 4.147 2.839 5.83 6.301 3.742l53.29-32.146c3.462-2.088 6.263-7.168 6.252-11.315-.011-4.157-2.831-5.845-6.293-3.757Z"/>
  <path fill="#3C4EF5" d="M-12.314 420.715v82.213l113.438 68.426v-81.936l-113.438-68.703Z"/>
  <path stroke="#0D129E" stroke-linecap="round" stroke-linejoin="round" stroke-width="1.538" d="M-12.314 420.715v82.213l113.438 68.426v-81.936l-113.438-68.703Z"/>
  <path fill="#C2C8CF" d="m-12.314 420.715 113.439 68.703 8.888-5.424-113.438-68.702-8.889 5.423Z"/>
  <path stroke="#0D129E" stroke-linecap="round" stroke-linejoin="round" stroke-width="1.538" d="m-12.314 420.715 113.439 68.703 8.888-5.424-113.438-68.702-8.889 5.423Z"/>
  <path fill="#0C0C0C" d="M101.118 489.417v81.934l8.889-5.423v-81.936l-8.889 5.425Z"/>
  <path stroke="#0D129E" stroke-linecap="round" stroke-linejoin="round" stroke-width="1.538" d="M101.118 489.417v81.934l8.889-5.423v-81.936l-8.889 5.425Z"/>
  <path fill="#02EEC4" d="M228.137 533.383c-2.213 1.335-4.007 4.582-4 7.239.007 2.657 1.813 3.733 4.027 2.398 2.213-1.336 4.015-4.586 4.007-7.243-.007-2.657-1.821-3.729-4.034-2.394Z"/>
  <path fill="#0D129E" d="M228.155 543.022c-2.213 1.336-4.018.262-4.025-2.395-.008-2.659 1.786-5.905 4-7.24 2.213-1.336 4.027-.264 4.034 2.393.007 2.657-1.794 5.907-4.009 7.242Zm-.03-11.678c-3.147 1.899-5.706 6.529-5.695 10.308.009 3.788 2.584 5.319 5.731 3.42 3.155-1.902 5.713-6.53 5.703-10.318-.011-3.779-2.584-5.313-5.739-3.41Z"/>
  <path fill="#02EEC4" d="M228.137 553.449c-2.213 1.335-4.007 4.582-4 7.239.007 2.657 1.813 3.733 4.027 2.398 2.213-1.336 4.015-4.586 4.007-7.243-.007-2.657-1.821-3.729-4.034-2.394Z"/>
  <path fill="#0D129E" d="M228.155 563.088c-2.213 1.335-4.018.261-4.025-2.396-.008-2.658 1.787-5.905 4-7.24s4.027-.264 4.034 2.393c.007 2.657-1.794 5.907-4.009 7.243Zm-.031-11.688c-3.148 1.899-5.705 6.529-5.694 10.317.009 3.789 2.584 5.322 5.731 3.423 3.156-1.904 5.714-6.533 5.703-10.32-.011-3.789-2.585-5.324-5.74-3.42Z"/>
  <path fill="#02EEC4" d="M228.137 573.517c-2.213 1.335-4.007 4.582-4 7.239.007 2.658 1.813 3.733 4.027 2.398 2.213-1.336 4.015-4.586 4.007-7.243-.007-2.657-1.821-3.729-4.034-2.394Z"/>
  <path fill="#0D129E" d="M228.155 583.156c-2.213 1.335-4.018.261-4.025-2.396-.008-2.657 1.786-5.905 4-7.24 2.213-1.334 4.027-.264 4.034 2.393.007 2.657-1.794 5.907-4.009 7.243Zm-.03-11.687c-3.147 1.899-5.706 6.528-5.695 10.316.009 3.78 2.584 5.311 5.731 3.412 3.155-1.903 5.713-6.53 5.703-10.309-.011-3.789-2.584-5.323-5.739-3.419Z"/>
  <path fill="#02EEC4" d="M243.205 523.842c-2.213 1.335-4.008 4.583-4 7.24.007 2.657 1.813 3.732 4.027 2.397 2.213-1.336 4.014-4.586 4.007-7.243-.007-2.657-1.821-3.729-4.034-2.394Z"/>
  <path fill="#0D129E" d="M243.234 533.477c-2.213 1.336-4.018.262-4.025-2.395-.008-2.658 1.786-5.905 4-7.239 2.213-1.337 4.027-.266 4.034 2.392.009 2.657-1.794 5.907-4.009 7.242Zm-.03-11.677c-3.147 1.898-5.706 6.528-5.695 10.307.009 3.789 2.584 5.319 5.731 3.421 3.155-1.903 5.713-6.53 5.703-10.319-.011-3.779-2.584-5.313-5.739-3.409Z"/>
  <path fill="#02EEC4" d="M243.205 543.911c-2.213 1.334-4.008 4.582-4 7.239.007 2.657 1.813 3.733 4.027 2.398 2.213-1.336 4.014-4.586 4.007-7.243-.007-2.658-1.821-3.729-4.034-2.394Z"/>
  <path fill="#0D129E" d="M243.234 553.545c-2.213 1.335-4.018.261-4.025-2.396-.008-2.658 1.786-5.905 4-7.24 2.213-1.335 4.027-.264 4.034 2.393.009 2.657-1.794 5.907-4.009 7.243Zm-.03-11.688c-3.147 1.899-5.706 6.529-5.695 10.317.009 3.789 2.584 5.322 5.731 3.423 3.155-1.904 5.713-6.533 5.703-10.32-.011-3.789-2.584-5.323-5.739-3.42Z"/>
  <path fill="#02EEC4" d="M243.205 563.974c-2.213 1.335-4.008 4.582-4 7.24.007 2.657 1.813 3.732 4.027 2.397 2.213-1.336 4.014-4.586 4.007-7.243-.007-2.657-1.821-3.729-4.034-2.394Z"/>
  <path fill="#0D129E" d="M243.234 573.613c-2.213 1.335-4.018.261-4.025-2.396-.008-2.657 1.786-5.905 4-7.24 2.213-1.334 4.026-.264 4.034 2.393.007 2.657-1.794 5.907-4.009 7.243Zm-.03-11.687c-3.147 1.899-5.706 6.528-5.695 10.316.009 3.78 2.584 5.311 5.731 3.412 3.155-1.903 5.713-6.53 5.703-10.309-.011-3.789-2.584-5.323-5.739-3.419Z"/>
  <path fill="#fff" d="M388.675 457.42a15.573 15.573 0 0 1-1.304 3.1c-1.198 2.15-2.766 3.886-4.428 4.889l-53.297 32.151a6.16 6.16 0 0 1-.491.27 8.382 8.382 0 0 0-.022.62c.009 3.024 2.061 4.256 4.58 2.736l53.298-32.151c1.21-.73 2.357-2.003 3.228-3.57.863-1.569 1.334-3.225 1.329-4.677-.006-2.262-1.183-3.571-2.893-3.368Z"/>
  <path fill="#0D129E" d="m329.656 497.557 53.297-32.153c1.662-1.002 3.229-2.739 4.429-4.89.549-.995.992-2.046 1.304-3.1 1.71-.202 2.887 1.106 2.893 3.368.005 1.453-.468 3.11-1.33 4.68-.871 1.566-2.018 2.838-3.228 3.568l-53.297 32.15c-2.519 1.521-4.571.29-4.58-2.736 0-.212.006-.417.021-.619.169-.084.331-.172.491-.268Zm57.897-41.928-.22 1.063c-.204 1.036-.608 2.108-1.158 3.104-.871 1.565-2.018 2.828-3.228 3.558l-53.297 32.151a4.441 4.441 0 0 1-.965.453l-.765.26-.237 1.046a10.039 10.039 0 0 0-.247 2.212c.011 4.147 2.839 5.829 6.294 3.745l53.297-32.151c1.661-1.003 3.229-2.73 4.427-4.89 1.184-2.151 1.83-4.428 1.825-6.423-.01-3.513-2.085-5.357-4.943-4.397l-.783.269Z"/>
  <path fill="#0D129E" d="m387.588 456.849-53.298 32.152c-1.485.896-2.839 2.45-3.824 4.223-.641 1.169-1.13 2.44-1.372 3.682a5.741 5.741 0 0 0 1.157-.541l53.298-32.153c1.494-.901 2.84-2.448 3.824-4.221.649-1.175 1.13-2.442 1.38-3.689a5.836 5.836 0 0 0-1.165.547Z"/>
  <path fill="#3C4EF5" d="M26.832 356.675c0 1.041-.479 2.067-1.46 2.661l-9.385 5.658-11.981 7.226a7.565 7.565 0 0 1-7.834 0l-11.966-7.226-9.385-5.658c-.982-.594-1.46-1.62-1.46-2.661 0-1.04.478-2.066 1.46-2.647l21.351-12.883a7.504 7.504 0 0 1 7.834 0l21.365 12.883c.983.581 1.461 1.607 1.461 2.647Z"/>
  <path stroke="#0D129E" stroke-miterlimit="10" stroke-width="1.538" d="M26.832 356.675c0 1.041-.479 2.067-1.46 2.661l-9.385 5.658-11.981 7.226a7.565 7.565 0 0 1-7.834 0l-11.966-7.226-9.385-5.658c-.982-.594-1.46-1.62-1.46-2.661 0-1.04.478-2.066 1.46-2.647l21.351-12.883a7.504 7.504 0 0 1 7.834 0l21.365 12.883c.983.581 1.461 1.607 1.461 2.647Z"/>
  <path fill="#C2C8CF" d="M16.451 346.502c0 .636-.293 1.264-.894 1.627l-5.738 3.462-7.329 4.418a4.623 4.623 0 0 1-4.79 0l-7.32-4.418-5.74-3.462c-.601-.363-.894-.991-.894-1.627 0-.635.293-1.263.894-1.619l13.06-7.88c1.486-.9 3.311-.9 4.79 0l13.067 7.88c.601.356.894.984.894 1.619Z"/>
  <path stroke="#0D129E" stroke-miterlimit="10" stroke-width="1.538" d="M16.451 346.502c0 .636-.293 1.264-.894 1.627l-5.738 3.462-7.329 4.418a4.623 4.623 0 0 1-4.79 0l-7.32-4.418-5.74-3.462c-.601-.363-.894-.991-.894-1.627 0-.635.293-1.263.894-1.619l13.06-7.88c1.486-.9 3.311-.9 4.79 0l13.067 7.88c.601.356.894.984.894 1.619Z"/>
  <path fill="#C2C8CF" d="M16.451 336.326c0 .635-.293 1.263-.894 1.626l-5.738 3.462-7.329 4.418a4.619 4.619 0 0 1-4.79 0l-7.32-4.418-5.74-3.462c-.601-.363-.894-.991-.894-1.626 0-.636.293-1.264.894-1.62l13.06-7.88c1.486-.9 3.311-.9 4.79 0l13.067 7.88c.601.356.894.984.894 1.62Z"/>
  <path stroke="#0D129E" stroke-miterlimit="10" stroke-width="1.538" d="M16.451 336.326c0 .635-.293 1.263-.894 1.626l-5.738 3.462-7.329 4.418a4.619 4.619 0 0 1-4.79 0l-7.32-4.418-5.74-3.462c-.601-.363-.894-.991-.894-1.626 0-.636.293-1.264.894-1.62l13.06-7.88c1.486-.9 3.311-.9 4.79 0l13.067 7.88c.601.356.894.984.894 1.62Z"/>
  <path fill="#C2C8CF" d="M16.451 326.154c0 .635-.293 1.263-.894 1.626l-5.738 3.462-7.329 4.418a4.619 4.619 0 0 1-4.79 0l-7.32-4.418-5.74-3.462c-.601-.363-.894-.991-.894-1.626 0-.636.293-1.264.894-1.62l13.06-7.88a4.593 4.593 0 0 1 4.79 0l13.067 7.88c.601.356.894.984.894 1.62Z"/>
  <path stroke="#0D129E" stroke-miterlimit="10" stroke-width="1.538" d="M16.451 326.154c0 .635-.293 1.263-.894 1.626l-5.738 3.462-7.329 4.418a4.619 4.619 0 0 1-4.79 0l-7.32-4.418-5.74-3.462c-.601-.363-.894-.991-.894-1.626 0-.636.293-1.264.894-1.62l13.06-7.88a4.593 4.593 0 0 1 4.79 0l13.067 7.88c.601.356.894.984.894 1.62Z"/>
  <path fill="#C2C8CF" d="M16.451 315.977c0 .635-.293 1.263-.894 1.627l-5.738 3.462-7.329 4.418a4.623 4.623 0 0 1-4.79 0l-7.32-4.418-5.74-3.462c-.601-.364-.894-.992-.894-1.627 0-.636.293-1.264.894-1.619l13.06-7.88c1.486-.9 3.311-.9 4.79 0l13.067 7.88c.601.355.894.983.894 1.619Z"/>
  <path stroke="#0D129E" stroke-miterlimit="10" stroke-width="1.538" d="M16.451 315.977c0 .635-.293 1.263-.894 1.627l-5.738 3.462-7.329 4.418a4.623 4.623 0 0 1-4.79 0l-7.32-4.418-5.74-3.462c-.601-.364-.894-.992-.894-1.627 0-.636.293-1.264.894-1.619l13.06-7.88c1.486-.9 3.311-.9 4.79 0l13.067 7.88c.601.355.894.983.894 1.619Z"/>
  <path fill="#C2C8CF" d="M16.451 305.802c0 .636-.293 1.263-.894 1.627l-5.738 3.462-7.329 4.418a4.623 4.623 0 0 1-4.79 0l-7.32-4.418-5.74-3.462c-.601-.364-.894-.991-.894-1.627 0-.635.293-1.263.894-1.619l13.06-7.88c1.486-.9 3.311-.9 4.79 0l13.067 7.88c.601.356.894.984.894 1.619Z"/>
  <path stroke="#0D129E" stroke-miterlimit="10" stroke-width="1.538" d="M16.451 305.802c0 .636-.293 1.263-.894 1.627l-5.738 3.462-7.329 4.418a4.623 4.623 0 0 1-4.79 0l-7.32-4.418-5.74-3.462c-.601-.364-.894-.991-.894-1.627 0-.635.293-1.263.894-1.619l13.06-7.88c1.486-.9 3.311-.9 4.79 0l13.067 7.88c.601.356.894.984.894 1.619Z"/>
  <path fill="#C2C8CF" d="M16.451 295.623c0 .636-.293 1.264-.894 1.627l-5.738 3.462-7.329 4.418a4.623 4.623 0 0 1-4.79 0l-7.32-4.418-5.74-3.462c-.601-.363-.894-.991-.894-1.627 0-.635.293-1.263.894-1.619l13.06-7.88c1.486-.9 3.311-.9 4.79 0l13.067 7.88c.601.356.894.984.894 1.619Z"/>
  <path stroke="#0D129E" stroke-miterlimit="10" stroke-width="1.538" d="M16.451 295.623c0 .636-.293 1.264-.894 1.627l-5.738 3.462-7.329 4.418a4.623 4.623 0 0 1-4.79 0l-7.32-4.418-5.74-3.462c-.601-.363-.894-.991-.894-1.627 0-.635.293-1.263.894-1.619l13.06-7.88c1.486-.9 3.311-.9 4.79 0l13.067 7.88c.601.356.894.984.894 1.619Z"/>
  <path fill="#C2C8CF" d="M16.451 285.451c0 .635-.293 1.263-.894 1.627L9.82 290.54l-7.329 4.418a4.623 4.623 0 0 1-4.79 0l-7.32-4.418-5.74-3.462c-.601-.364-.894-.992-.894-1.627s.293-1.263.894-1.619l13.06-7.88c1.486-.9 3.311-.9 4.79 0l13.067 7.88c.601.356.894.984.894 1.619Z"/>
  <path stroke="#0D129E" stroke-miterlimit="10" stroke-width="1.538" d="M16.451 285.451c0 .635-.293 1.263-.894 1.627L9.82 290.54l-7.329 4.418a4.623 4.623 0 0 1-4.79 0l-7.32-4.418-5.74-3.462c-.601-.364-.894-.992-.894-1.627s.293-1.263.894-1.619l13.06-7.88c1.486-.9 3.311-.9 4.79 0l13.067 7.88c.601.356.894.984.894 1.619Z"/>
  <path fill="#C2C8CF" d="M16.451 275.277c0 .635-.293 1.263-.894 1.627l-5.738 3.461-7.329 4.418a4.619 4.619 0 0 1-4.79 0l-7.32-4.418-5.74-3.461c-.601-.364-.894-.992-.894-1.627 0-.636.293-1.264.894-1.62l13.06-7.88a4.593 4.593 0 0 1 4.79 0l13.067 7.88c.601.356.894.984.894 1.62Z"/>
  <path stroke="#0D129E" stroke-miterlimit="10" stroke-width="1.538" d="M16.451 275.277c0 .635-.293 1.263-.894 1.627l-5.738 3.461-7.329 4.418a4.619 4.619 0 0 1-4.79 0l-7.32-4.418-5.74-3.461c-.601-.364-.894-.992-.894-1.627 0-.636.293-1.264.894-1.62l13.06-7.88a4.593 4.593 0 0 1 4.79 0l13.067 7.88c.601.356.894.984.894 1.62Z"/>
  <path fill="#3C4EF5" d="M17.715 253.685c0 10.156-7.893 18.403-17.614 18.403-6.97 0-12.979-4.226-15.866-10.36a19.27 19.27 0 0 1-1.747-8.043c0-10.176 7.893-18.403 17.613-18.403 2.75 0 5.361.656 7.698 1.846 5.87 2.975 9.916 9.274 9.916 16.557Z"/>
  <path stroke="#0D129E" stroke-linecap="round" stroke-linejoin="round" stroke-width="1.538" d="M17.715 253.685c0 10.156-7.893 18.403-17.614 18.403-6.97 0-12.979-4.226-15.866-10.36a19.27 19.27 0 0 1-1.747-8.043c0-10.176 7.893-18.403 17.613-18.403 2.75 0 5.361.656 7.698 1.846 5.87 2.975 9.916 9.274 9.916 16.557Z"/>
  <path fill="#fff" d="M-10.266 254.569c0-6.48 5.026-11.719 11.216-11.719l-11.216 11.719Z"/>
  <path fill="#3C4EF5" d="M-10.266 254.569c0-6.48 5.026-11.719 11.216-11.719l-11.216 11.719Z"/>
  <path stroke="#0D129E" stroke-linecap="round" stroke-linejoin="round" stroke-width="1.538" d="M-10.266 254.569c0-6.48 5.026-11.719 11.216-11.719"/>
  <path fill="#3C4EF5" d="M204.708 463.761c0 1.041-.478 2.067-1.461 2.661l-9.384 5.658-11.981 7.226a7.562 7.562 0 0 1-7.834 0l-11.966-7.226-9.385-5.658c-.982-.594-1.461-1.62-1.461-2.661 0-1.04.479-2.065 1.461-2.647l21.351-12.883a7.505 7.505 0 0 1 7.834 0l21.365 12.883c.983.582 1.461 1.607 1.461 2.647Z"/>
  <path stroke="#0D129E" stroke-miterlimit="10" stroke-width="1.538" d="M204.708 463.761c0 1.041-.478 2.067-1.461 2.661l-9.384 5.658-11.981 7.226a7.562 7.562 0 0 1-7.834 0l-11.966-7.226-9.385-5.658c-.982-.594-1.461-1.62-1.461-2.661 0-1.04.479-2.065 1.461-2.647l21.351-12.883a7.505 7.505 0 0 1 7.834 0l21.365 12.883c.983.582 1.461 1.607 1.461 2.647Z"/>
  <path fill="#C2C8CF" d="M194.327 453.591c0 .635-.292 1.263-.893 1.627l-5.739 3.461-7.328 4.418a4.619 4.619 0 0 1-4.791 0l-7.32-4.418-5.74-3.461c-.601-.364-.893-.992-.893-1.627 0-.636.292-1.264.893-1.62l13.06-7.88a4.593 4.593 0 0 1 4.791 0l13.067 7.88c.601.356.893.984.893 1.62Z"/>
  <path stroke="#0D129E" stroke-miterlimit="10" stroke-width="1.538" d="M194.327 453.591c0 .635-.292 1.263-.893 1.627l-5.739 3.461-7.328 4.418a4.619 4.619 0 0 1-4.791 0l-7.32-4.418-5.74-3.461c-.601-.364-.893-.992-.893-1.627 0-.636.292-1.264.893-1.62l13.06-7.88a4.593 4.593 0 0 1 4.791 0l13.067 7.88c.601.356.893.984.893 1.62Z"/>
  <path fill="#C2C8CF" d="M194.327 443.416c0 .635-.292 1.263-.893 1.627l-5.739 3.461-7.328 4.419a4.623 4.623 0 0 1-4.791 0l-7.32-4.419-5.74-3.461c-.601-.364-.893-.992-.893-1.627 0-.636.292-1.264.893-1.619l13.06-7.88c1.486-.9 3.312-.9 4.791 0l13.067 7.88c.601.355.893.983.893 1.619Z"/>
  <path stroke="#0D129E" stroke-miterlimit="10" stroke-width="1.538" d="M194.327 443.416c0 .635-.292 1.263-.893 1.627l-5.739 3.461-7.328 4.419a4.623 4.623 0 0 1-4.791 0l-7.32-4.419-5.74-3.461c-.601-.364-.893-.992-.893-1.627 0-.636.292-1.264.893-1.619l13.06-7.88c1.486-.9 3.312-.9 4.791 0l13.067 7.88c.601.355.893.983.893 1.619Z"/>
  <path fill="#C2C8CF" d="M194.327 433.242c0 .635-.292 1.263-.893 1.626l-5.739 3.462-7.328 4.418a4.619 4.619 0 0 1-4.791 0l-7.32-4.418-5.74-3.462c-.601-.363-.893-.991-.893-1.626 0-.636.292-1.264.893-1.62l13.06-7.88c1.486-.9 3.312-.9 4.791 0l13.067 7.88c.601.356.893.984.893 1.62Z"/>
  <path stroke="#0D129E" stroke-miterlimit="10" stroke-width="1.538" d="M194.327 433.242c0 .635-.292 1.263-.893 1.626l-5.739 3.462-7.328 4.418a4.619 4.619 0 0 1-4.791 0l-7.32-4.418-5.74-3.462c-.601-.363-.893-.991-.893-1.626 0-.636.292-1.264.893-1.62l13.06-7.88c1.486-.9 3.312-.9 4.791 0l13.067 7.88c.601.356.893.984.893 1.62Z"/>
  <path fill="#C2C8CF" d="M194.327 423.065c0 .635-.292 1.263-.893 1.627l-5.739 3.461-7.328 4.419a4.623 4.623 0 0 1-4.791 0l-7.32-4.419-5.74-3.461c-.601-.364-.893-.992-.893-1.627 0-.636.292-1.264.893-1.62l13.06-7.879c1.486-.9 3.312-.9 4.791 0l13.067 7.879c.601.356.893.984.893 1.62Z"/>
  <path stroke="#0D129E" stroke-miterlimit="10" stroke-width="1.538" d="M194.327 423.065c0 .635-.292 1.263-.893 1.627l-5.739 3.461-7.328 4.419a4.623 4.623 0 0 1-4.791 0l-7.32-4.419-5.74-3.461c-.601-.364-.893-.992-.893-1.627 0-.636.292-1.264.893-1.62l13.06-7.879c1.486-.9 3.312-.9 4.791 0l13.067 7.879c.601.356.893.984.893 1.62Z"/>
  <path fill="#C2C8CF" d="M194.327 412.888c0 .635-.292 1.263-.893 1.627l-5.739 3.462-7.328 4.418a4.623 4.623 0 0 1-4.791 0l-7.32-4.418-5.74-3.462c-.601-.364-.893-.992-.893-1.627s.292-1.263.893-1.619l13.06-7.88c1.486-.9 3.312-.9 4.791 0l13.067 7.88c.601.356.893.984.893 1.619Z"/>
  <path stroke="#0D129E" stroke-miterlimit="10" stroke-width="1.538" d="M194.327 412.888c0 .635-.292 1.263-.893 1.627l-5.739 3.462-7.328 4.418a4.623 4.623 0 0 1-4.791 0l-7.32-4.418-5.74-3.462c-.601-.364-.893-.992-.893-1.627s.292-1.263.893-1.619l13.06-7.88c1.486-.9 3.312-.9 4.791 0l13.067 7.88c.601.356.893.984.893 1.619Z"/>
  <path fill="#C2C8CF" d="M194.327 402.711c0 .636-.292 1.264-.893 1.627l-5.739 3.462-7.328 4.418a4.623 4.623 0 0 1-4.791 0l-7.32-4.418-5.74-3.462c-.601-.363-.893-.991-.893-1.627 0-.635.292-1.263.893-1.619l13.06-7.88c1.486-.9 3.312-.9 4.791 0l13.067 7.88c.601.356.893.984.893 1.619Z"/>
  <path stroke="#0D129E" stroke-miterlimit="10" stroke-width="1.538" d="M194.327 402.711c0 .636-.292 1.264-.893 1.627l-5.739 3.462-7.328 4.418a4.623 4.623 0 0 1-4.791 0l-7.32-4.418-5.74-3.462c-.601-.363-.893-.991-.893-1.627 0-.635.292-1.263.893-1.619l13.06-7.88c1.486-.9 3.312-.9 4.791 0l13.067 7.88c.601.356.893.984.893 1.619Z"/>
  <path fill="#C2C8CF" d="M194.327 392.539c0 .636-.292 1.264-.893 1.627l-5.739 3.462-7.328 4.418a4.619 4.619 0 0 1-4.791 0l-7.32-4.418-5.74-3.462c-.601-.363-.893-.991-.893-1.627 0-.635.292-1.263.893-1.619l13.06-7.88c1.486-.9 3.312-.9 4.791 0l13.067 7.88c.601.356.893.984.893 1.619Z"/>
  <path stroke="#0D129E" stroke-miterlimit="10" stroke-width="1.538" d="M194.327 392.539c0 .636-.292 1.264-.893 1.627l-5.739 3.462-7.328 4.418a4.619 4.619 0 0 1-4.791 0l-7.32-4.418-5.74-3.462c-.601-.363-.893-.991-.893-1.627 0-.635.292-1.263.893-1.619l13.06-7.88c1.486-.9 3.312-.9 4.791 0l13.067 7.88c.601.356.893.984.893 1.619Z"/>
  <path fill="#C2C8CF" d="M194.327 382.363c0 .635-.292 1.263-.893 1.626l-5.739 3.462-7.328 4.418a4.619 4.619 0 0 1-4.791 0l-7.32-4.418-5.74-3.462c-.601-.363-.893-.991-.893-1.626 0-.636.292-1.264.893-1.62l13.06-7.88c1.486-.9 3.312-.9 4.791 0l13.067 7.88c.601.356.893.984.893 1.62Z"/>
  <path stroke="#0D129E" stroke-miterlimit="10" stroke-width="1.538" d="M194.327 382.363c0 .635-.292 1.263-.893 1.626l-5.739 3.462-7.328 4.418a4.619 4.619 0 0 1-4.791 0l-7.32-4.418-5.74-3.462c-.601-.363-.893-.991-.893-1.626 0-.636.292-1.264.893-1.62l13.06-7.88c1.486-.9 3.312-.9 4.791 0l13.067 7.88c.601.356.893.984.893 1.62Z"/>
  <path fill="#3C4EF5" d="M195.6 360.776c0 10.156-7.893 18.403-17.613 18.403-6.97 0-12.979-4.227-15.866-10.361a19.252 19.252 0 0 1-1.747-8.042c0-10.176 7.893-18.403 17.613-18.403 2.75 0 5.361.656 7.698 1.846 5.871 2.975 9.915 9.273 9.915 16.557Z"/>
  <path stroke="#0D129E" stroke-linecap="round" stroke-linejoin="round" stroke-width="1.538" d="M195.6 360.776c0 10.156-7.893 18.403-17.613 18.403-6.97 0-12.979-4.227-15.866-10.361a19.252 19.252 0 0 1-1.747-8.042c0-10.176 7.893-18.403 17.613-18.403 2.75 0 5.361.656 7.698 1.846 5.871 2.975 9.915 9.273 9.915 16.557Z"/>
  <path fill="#fff" d="M167.612 361.659c0-6.48 5.026-11.719 11.216-11.719l-11.216 11.719Z"/>
  <path fill="#3C4EF5" d="M167.612 361.659c0-6.48 5.026-11.719 11.216-11.719l-11.216 11.719Z"/>
  <path stroke="#0D129E" stroke-linecap="round" stroke-linejoin="round" stroke-width="1.538" d="M167.612 361.659c0-6.48 5.026-11.719 11.216-11.719"/>
  <path fill="#3C4EF5" d="M383.376 358.177c0 1.041-.479 2.067-1.461 2.661l-9.384 5.658-11.981 7.226a7.567 7.567 0 0 1-7.834 0l-11.966-7.226-9.385-5.658c-.982-.594-1.461-1.62-1.461-2.661 0-1.04.479-2.065 1.461-2.647l21.351-12.883a7.505 7.505 0 0 1 7.834 0l21.365 12.883c.982.582 1.461 1.607 1.461 2.647Z"/>
  <path stroke="#0D129E" stroke-miterlimit="10" stroke-width="1.538" d="M383.376 358.177c0 1.041-.479 2.067-1.461 2.661l-9.384 5.658-11.981 7.226a7.567 7.567 0 0 1-7.834 0l-11.966-7.226-9.385-5.658c-.982-.594-1.461-1.62-1.461-2.661 0-1.04.479-2.065 1.461-2.647l21.351-12.883a7.505 7.505 0 0 1 7.834 0l21.365 12.883c.982.582 1.461 1.607 1.461 2.647Z"/>
  <path fill="#C2C8CF" d="M372.995 348.007c0 .635-.292 1.263-.893 1.627l-5.739 3.461-7.328 4.418a4.619 4.619 0 0 1-4.791 0l-7.32-4.418-5.74-3.461c-.601-.364-.893-.992-.893-1.627 0-.636.292-1.264.893-1.62l13.06-7.88a4.593 4.593 0 0 1 4.791 0l13.067 7.88c.601.356.893.984.893 1.62Z"/>
  <path stroke="#0D129E" stroke-miterlimit="10" stroke-width="1.538" d="M372.995 348.007c0 .635-.292 1.263-.893 1.627l-5.739 3.461-7.328 4.418a4.619 4.619 0 0 1-4.791 0l-7.32-4.418-5.74-3.461c-.601-.364-.893-.992-.893-1.627 0-.636.292-1.264.893-1.62l13.06-7.88a4.593 4.593 0 0 1 4.791 0l13.067 7.88c.601.356.893.984.893 1.62Z"/>
  <path fill="#C2C8CF" d="M372.995 337.829c0 .636-.292 1.264-.893 1.627l-5.739 3.462-7.328 4.418a4.619 4.619 0 0 1-4.791 0l-7.32-4.418-5.74-3.462c-.601-.363-.893-.991-.893-1.627 0-.635.292-1.263.893-1.619l13.06-7.88c1.486-.9 3.312-.9 4.791 0l13.067 7.88c.601.356.893.984.893 1.619Z"/>
  <path stroke="#0D129E" stroke-miterlimit="10" stroke-width="1.538" d="M372.995 337.829c0 .636-.292 1.264-.893 1.627l-5.739 3.462-7.328 4.418a4.619 4.619 0 0 1-4.791 0l-7.32-4.418-5.74-3.462c-.601-.363-.893-.991-.893-1.627 0-.635.292-1.263.893-1.619l13.06-7.88c1.486-.9 3.312-.9 4.791 0l13.067 7.88c.601.356.893.984.893 1.619Z"/>
  <path fill="#C2C8CF" d="M372.995 327.658c0 .635-.292 1.263-.893 1.626l-5.739 3.462-7.328 4.418a4.619 4.619 0 0 1-4.791 0l-7.32-4.418-5.74-3.462c-.601-.363-.893-.991-.893-1.626 0-.636.292-1.264.893-1.62l13.06-7.88c1.486-.9 3.312-.9 4.791 0l13.067 7.88c.601.356.893.984.893 1.62Z"/>
  <path stroke="#0D129E" stroke-miterlimit="10" stroke-width="1.538" d="M372.995 327.658c0 .635-.292 1.263-.893 1.626l-5.739 3.462-7.328 4.418a4.619 4.619 0 0 1-4.791 0l-7.32-4.418-5.74-3.462c-.601-.363-.893-.991-.893-1.626 0-.636.292-1.264.893-1.62l13.06-7.88c1.486-.9 3.312-.9 4.791 0l13.067 7.88c.601.356.893.984.893 1.62Z"/>
  <path fill="#C2C8CF" d="M372.995 317.481c0 .635-.292 1.263-.893 1.627l-5.739 3.461-7.328 4.419a4.623 4.623 0 0 1-4.791 0l-7.32-4.419-5.74-3.461c-.601-.364-.893-.992-.893-1.627 0-.636.292-1.264.893-1.62l13.06-7.879c1.486-.9 3.312-.9 4.791 0l13.067 7.879c.601.356.893.984.893 1.62Z"/>
  <path stroke="#0D129E" stroke-miterlimit="10" stroke-width="1.538" d="M372.995 317.481c0 .635-.292 1.263-.893 1.627l-5.739 3.461-7.328 4.419a4.623 4.623 0 0 1-4.791 0l-7.32-4.419-5.74-3.461c-.601-.364-.893-.992-.893-1.627 0-.636.292-1.264.893-1.62l13.06-7.879c1.486-.9 3.312-.9 4.791 0l13.067 7.879c.601.356.893.984.893 1.62Z"/>
  <path fill="#C2C8CF" d="M372.995 307.304c0 .635-.292 1.263-.893 1.627l-5.739 3.462-7.328 4.418a4.623 4.623 0 0 1-4.791 0l-7.32-4.418-5.74-3.462c-.601-.364-.893-.992-.893-1.627s.292-1.263.893-1.619l13.06-7.88c1.486-.9 3.312-.9 4.791 0l13.067 7.88c.601.356.893.984.893 1.619Z"/>
  <path stroke="#0D129E" stroke-miterlimit="10" stroke-width="1.538" d="M372.995 307.304c0 .635-.292 1.263-.893 1.627l-5.739 3.462-7.328 4.418a4.623 4.623 0 0 1-4.791 0l-7.32-4.418-5.74-3.462c-.601-.364-.893-.992-.893-1.627s.292-1.263.893-1.619l13.06-7.88c1.486-.9 3.312-.9 4.791 0l13.067 7.88c.601.356.893.984.893 1.619Z"/>
  <path fill="#C2C8CF" d="M372.995 297.128c0 .635-.292 1.263-.893 1.627l-5.739 3.461-7.328 4.418a4.619 4.619 0 0 1-4.791 0l-7.32-4.418-5.74-3.461c-.601-.364-.893-.992-.893-1.627 0-.636.292-1.264.893-1.62l13.06-7.879c1.486-.9 3.312-.9 4.791 0l13.067 7.879c.601.356.893.984.893 1.62Z"/>
  <path stroke="#0D129E" stroke-miterlimit="10" stroke-width="1.538" d="M372.995 297.128c0 .635-.292 1.263-.893 1.627l-5.739 3.461-7.328 4.418a4.619 4.619 0 0 1-4.791 0l-7.32-4.418-5.74-3.461c-.601-.364-.893-.992-.893-1.627 0-.636.292-1.264.893-1.62l13.06-7.879c1.486-.9 3.312-.9 4.791 0l13.067 7.879c.601.356.893.984.893 1.62Z"/>
  <path fill="#C2C8CF" d="M372.995 286.955c0 .636-.292 1.264-.893 1.627l-5.739 3.462-7.328 4.418a4.619 4.619 0 0 1-4.791 0l-7.32-4.418-5.74-3.462c-.601-.363-.893-.991-.893-1.627 0-.635.292-1.263.893-1.619l13.06-7.88c1.486-.9 3.312-.9 4.791 0l13.067 7.88c.601.356.893.984.893 1.619Z"/>
  <path stroke="#0D129E" stroke-miterlimit="10" stroke-width="1.538" d="M372.995 286.955c0 .636-.292 1.264-.893 1.627l-5.739 3.462-7.328 4.418a4.619 4.619 0 0 1-4.791 0l-7.32-4.418-5.74-3.462c-.601-.363-.893-.991-.893-1.627 0-.635.292-1.263.893-1.619l13.06-7.88c1.486-.9 3.312-.9 4.791 0l13.067 7.88c.601.356.893.984.893 1.619Z"/>
  <path fill="#C2C8CF" d="M372.995 276.781c0 .636-.292 1.263-.893 1.627l-5.739 3.462-7.328 4.418a4.623 4.623 0 0 1-4.791 0l-7.32-4.418-5.74-3.462c-.601-.364-.893-.991-.893-1.627 0-.635.292-1.263.893-1.619l13.06-7.88c1.486-.9 3.312-.9 4.791 0l13.067 7.88c.601.356.893.984.893 1.619Z"/>
  <path stroke="#0D129E" stroke-miterlimit="10" stroke-width="1.538" d="M372.995 276.781c0 .636-.292 1.263-.893 1.627l-5.739 3.462-7.328 4.418a4.623 4.623 0 0 1-4.791 0l-7.32-4.418-5.74-3.462c-.601-.364-.893-.991-.893-1.627 0-.635.292-1.263.893-1.619l13.06-7.88c1.486-.9 3.312-.9 4.791 0l13.067 7.88c.601.356.893.984.893 1.619Z"/>
  <path fill="#3C4EF5" d="M374.268 255.194c0 10.156-7.893 18.403-17.613 18.403-6.97 0-12.979-4.226-15.866-10.36a19.257 19.257 0 0 1-1.747-8.043c0-10.176 7.893-18.403 17.613-18.403 2.75 0 5.361.657 7.698 1.846 5.87 2.976 9.915 9.274 9.915 16.557Z"/>
  <path stroke="#0D129E" stroke-linecap="round" stroke-linejoin="round" stroke-width="1.538" d="M374.268 255.194c0 10.156-7.893 18.403-17.613 18.403-6.97 0-12.979-4.226-15.866-10.36a19.257 19.257 0 0 1-1.747-8.043c0-10.176 7.893-18.403 17.613-18.403 2.75 0 5.361.657 7.698 1.846 5.87 2.976 9.915 9.274 9.915 16.557Z"/>
  <path fill="#fff" d="M346.288 256.075c0-6.48 5.026-11.719 11.216-11.719l-11.216 11.719Z"/>
  <path fill="#3C4EF5" d="M346.288 256.075c0-6.48 5.026-11.719 11.216-11.719l-11.216 11.719Z"/>
  <path stroke="#0D129E" stroke-linecap="round" stroke-linejoin="round" stroke-width="1.538" d="M346.288 256.075c0-6.48 5.026-11.719 11.216-11.719"/>
  <path fill="#0D129E" d="M153.069 532.735c0 1.978 1.329 4.383 2.968 5.372 1.639.989 2.968.187 2.968-1.79 0-1.978-1.329-4.383-2.968-5.372-1.639-.989-2.968-.188-2.968 1.79Zm-9-5.754c0 1.978 1.329 4.383 2.968 5.372 1.638.989 2.967.187 2.967-1.79 0-1.978-1.329-4.383-2.967-5.372-1.639-.989-2.968-.188-2.968 1.79Zm-8.993-5.315c0 1.978 1.329 4.383 2.968 5.372 1.639.989 2.968.187 2.968-1.79 0-1.978-1.329-4.383-2.968-5.372-1.639-.989-2.968-.188-2.968 1.79Zm-8.864-5.657c0 1.978 1.33 4.383 2.968 5.372 1.639.989 2.968.187 2.968-1.789 0-1.978-1.329-4.383-2.968-5.372-1.638-.989-2.968-.188-2.968 1.789Zm26.907 27.693c0 1.978 1.329 4.383 2.967 5.372 1.639.989 2.968.186 2.968-1.79 0-1.978-1.329-4.383-2.968-5.372-1.638-.989-2.967-.188-2.967 1.79Zm-9.001-5.757c0 1.978 1.329 4.383 2.968 5.372 1.638.989 2.968.187 2.968-1.789 0-1.978-1.33-4.383-2.968-5.372-1.639-.989-2.968-.188-2.968 1.789Zm-9.002-5.315c0 1.978 1.329 4.383 2.967 5.372 1.639.989 2.968.187 2.968-1.79 0-1.978-1.329-4.383-2.968-5.372-1.638-.989-2.967-.188-2.967 1.79Zm-8.856-5.654c0 1.978 1.329 4.383 2.967 5.372 1.639.989 2.968.187 2.968-1.79s-1.329-4.383-2.968-5.372c-1.638-.988-2.967-.188-2.967 1.79Zm26.889 27.69c0 1.978 1.329 4.383 2.968 5.372 1.638.989 2.967.187 2.967-1.79 0-1.978-1.329-4.383-2.967-5.372-1.639-.989-2.968-.188-2.968 1.79Zm-8.993-5.754c0 1.978 1.329 4.383 2.968 5.372 1.639.989 2.968.187 2.968-1.79s-1.329-4.383-2.968-5.372c-1.639-.988-2.968-.188-2.968 1.79Zm-8.991-5.312c0 1.978 1.329 4.383 2.968 5.372 1.638.989 2.967.186 2.967-1.79 0-1.978-1.329-4.383-2.967-5.372-1.639-.989-2.968-.188-2.968 1.79Zm-8.855-5.662c0 1.978 1.329 4.383 2.967 5.372 1.639.989 2.968.187 2.968-1.79 0-1.978-1.329-4.383-2.968-5.372-1.638-.989-2.967-.188-2.967 1.79Zm26.878 27.697c0 1.978 1.329 4.383 2.967 5.372 1.639.989 2.968.187 2.968-1.789 0-1.978-1.329-4.383-2.968-5.372-1.638-.989-2.967-.188-2.967 1.789Zm-8.992-5.754c0 1.978 1.329 4.383 2.968 5.372 1.639.989 2.968.187 2.968-1.789 0-1.978-1.329-4.383-2.968-5.372-1.639-.989-2.968-.188-2.968 1.789Zm-8.993-5.32c0 1.978 1.329 4.383 2.968 5.372 1.638.989 2.968.187 2.968-1.79 0-1.978-1.33-4.383-2.968-5.372-1.639-.989-2.968-.188-2.968 1.79Zm-8.855-5.649c0 1.978 1.329 4.383 2.967 5.372 1.639.989 2.968.187 2.968-1.79s-1.329-4.383-2.968-5.372c-1.638-.988-2.967-.188-2.967 1.79Zm26.898 27.688c0 1.978 1.329 4.383 2.968 5.372 1.638.989 2.968.186 2.968-1.79 0-1.978-1.33-4.383-2.968-5.372-1.639-.989-2.968-.188-2.968 1.79Zm-8.993-5.752c0 1.978 1.33 4.383 2.968 5.372 1.639.989 2.968.187 2.968-1.79s-1.329-4.383-2.968-5.372c-1.638-.988-2.968-.188-2.968 1.79Zm-9.01-5.317c0 1.978 1.329 4.383 2.968 5.372 1.638.989 2.968.187 2.968-1.79 0-1.978-1.33-4.383-2.968-5.372-1.639-.989-2.968-.188-2.968 1.79Zm-8.855-5.654c0 1.977 1.329 4.383 2.967 5.372 1.639.988 2.968.186 2.968-1.79 0-1.978-1.329-4.383-2.968-5.372-1.638-.989-2.967-.188-2.967 1.79Zm26.906 27.692c0 1.978 1.329 4.383 2.968 5.372 1.638.989 2.967.187 2.967-1.79 0-1.978-1.329-4.383-2.967-5.372-1.639-.989-2.968-.188-2.968 1.79Zm-9.001-5.756c0 1.977 1.33 4.383 2.968 5.372 1.639.988 2.968.186 2.968-1.79 0-1.978-1.329-4.383-2.968-5.372-1.638-.989-2.968-.188-2.968 1.79ZM135.3 576.5c0 1.977 1.329 4.383 2.968 5.372 1.639.988 2.968.186 2.968-1.79 0-1.978-1.329-4.383-2.968-5.372-1.639-.989-2.968-.188-2.968 1.79Zm-8.855-5.652c0 1.978 1.329 4.383 2.968 5.372 1.638.989 2.967.187 2.967-1.79s-1.329-4.383-2.967-5.372c-1.639-.988-2.968-.188-2.968 1.79Z"/>
  <mask id="b" width="169" height="176" x="-37" y="417" maskUnits="userSpaceOnUse" style="mask-type:luminance">
    <path fill="#fff" d="M-36.667 417.513h167.939v175.47H-36.667v-175.47Z"/>
  </mask>
  <g mask="url(#b)">
    <mask id="c" width="273" height="305" x="-88" y="350" maskUnits="userSpaceOnUse" style="mask-type:luminance">
      <path fill="#fff" d="M-87.428 350.457 181.255 543.8l3.255 111.097-268.683-193.344-3.255-111.096Z"/>
    </mask>
    <g mask="url(#c)">
      <path stroke="#fff" stroke-linecap="round" stroke-linejoin="round" stroke-width="1.538" d="m2.106 460.359.918 26.741m6.554-15.267.443 12.91m57.438 23.192.47 13.693m-7.712-18.745.504 14.677m-7.741-19.107.494 14.416m-7.976-26.141.987 28.742m-8.255-33.78 1.02 29.698m-8.138-30.938.792 23.059m-7.956-25.926.674 19.659m-7.755-20.116.393 11.461m57.254 18.455.845 24.614m6.251-24.094 1.123 32.695"/>
    </g>
  </g>
  <mask id="d" width="157" height="164" x="122" y="67" maskUnits="userSpaceOnUse" style="mask-type:luminance">
    <path fill="#fff" d="M122.175 67.63h155.943v162.936H122.175V67.63Z"/>
  </mask>
  <g mask="url(#d)">
    <path fill="#3C4EF5" d="M240.02 161.963c4.173-1.355 4.439-8.851 4.87-11.469.966-5.256-4.611-11.718-18.737-17.327-20.148-8.001-47.801-10.814-61.764-6.283-4.45 1.444-7.349 3.32-7.972 5.674-2.632 10.539-3.297 15.911 10.429 21.362 20.149 8.001 59.211 12.574 73.174 8.043Z"/>
    <path fill="#3C4EF5" stroke="#0D129E" stroke-miterlimit="10" stroke-width="1.538" d="M240.02 161.963c4.173-1.355 4.439-8.851 4.87-11.469.966-5.256-4.611-11.718-18.737-17.327-20.148-8.001-47.801-10.814-61.764-6.283-4.45 1.444-7.349 3.32-7.972 5.674-2.632 10.539-3.297 15.911 10.429 21.362 20.149 8.001 59.211 12.574 73.174 8.043Z"/>
    <path fill="#0D129E" d="M235.449 166.365c13.904-5.092 8.783-15.998-11.437-24.36-20.221-8.362-47.884-11.013-61.788-5.921-13.904 5.091-8.784 15.998 11.436 24.36 20.221 8.362 47.884 11.013 61.789 5.921Z"/>
    <path stroke="#0D129E" stroke-miterlimit="10" stroke-width="1.538" d="M235.449 166.365c13.904-5.092 8.783-15.998-11.437-24.36-20.221-8.362-47.884-11.013-61.788-5.921-13.904 5.091-8.784 15.998 11.436 24.36 20.221 8.362 47.884 11.013 61.789 5.921Z"/>
    <path fill="#00EDBE" d="M229.085 163.733c-11.484 4.206-34.334 2.016-51.036-4.891-16.702-6.907-20.932-15.916-9.447-20.122 11.485-4.205 34.335-2.016 51.037 4.891 16.702 6.907 20.931 15.916 9.446 20.122Z"/>
    <path fill="#141BEB" d="M218.647 153.436c1.099-.402 2.361-.677 4.037-.65l-24.74-10.226c-.935-.386-2.211-.51-2.85-.276l-3.636 1.331c-.639.234-.399.737.536 1.123l24.74 10.226c.034-.653.815-1.126 1.913-1.528Zm-36.908-9.27c-1.098.402-2.362.676-4.038.65l24.74 10.225c.936.387 2.212.511 2.851.277l3.637-1.331c.639-.234.398-.737-.538-1.124l-24.74-10.225c-.034.652-.814 1.126-1.912 1.528Zm21.569 14.89c1.098-.402 2.36-.677 4.036-.651l-24.739-10.225c-.936-.387-2.212-.51-2.851-.277l-3.636 1.331c-.639.234-.399.737.536 1.124l24.74 10.225c.034-.652.815-1.125 1.914-1.527Z"/>
  </g>
  <path stroke="#fff" stroke-linecap="round" stroke-linejoin="round" stroke-width="1.538" d="M182.832 187.671s1.341-2.637 2.76-4.601c.012-4.272 3.778 2.268 5.113.195.646-1.012-.794 3.693-.063 2.587 1.328-2.01 2.934-2.16 4.481-4.268 1.332-1.813 6.823.03 8.252-1.669 1.333-1.597-4.613-6.469-3.267-7.825 1.526-1.6 7.153-.18 7.639-2.364 2.329-2.145-6.125-3.173-5.938-5.323.297-2.05.727 25.914.296 23.125-.524-3.649-6.731-3.255-7.272-6.249-.455-2.514 9.273-3.533 9.021-5.842-.273-2.565-6.341-7.483-3.765-9.01 1.461-.913.206-6.953-.154-8.073"/>
  <path fill="#0C0C0C" stroke="#0D129E" stroke-linecap="round" stroke-linejoin="round" stroke-width="1.538" d="M212.698 298.421c0 14.104-19.083 25.537-42.623 25.537-23.541 0-42.623-11.433-42.623-25.537 0-14.105 19.082-25.538 42.623-25.538 23.54 0 42.623 11.433 42.623 25.538Z"/>
  <path fill="#0C0F61" d="M212.698 298.421c0 14.104-19.083 25.537-42.623 25.537-23.541 0-42.623-11.433-42.623-25.537 0-14.105 19.082-25.538 42.623-25.538 23.54 0 42.623 11.433 42.623 25.538Z"/>
  <path fill="#3C4EF5" d="M190.261 295.734c0 .785-.362 1.561-1.104 2.008l-7.084 4.273-9.045 5.453a5.701 5.701 0 0 1-5.913 0l-9.036-5.453-7.084-4.273c-.741-.447-1.102-1.223-1.102-2.008 0-.784.361-1.56 1.102-1.997l16.12-9.726a5.657 5.657 0 0 1 5.913 0l16.129 9.726c.742.437 1.104 1.213 1.104 1.997Z"/>
  <path stroke="#0D129E" stroke-linecap="round" stroke-linejoin="round" stroke-width="1.538" d="M190.261 295.734c0 .785-.362 1.561-1.104 2.008l-7.084 4.273-9.045 5.453a5.701 5.701 0 0 1-5.913 0l-9.036-5.453-7.084-4.273c-.741-.447-1.102-1.223-1.102-2.008 0-.784.361-1.56 1.102-1.997l16.12-9.726a5.657 5.657 0 0 1 5.913 0l16.129 9.726c.742.437 1.104 1.213 1.104 1.997Z"/>
  <path fill="#3C4EF5" d="M190.261 283.357c0 .784-.362 1.56-1.104 2.007l-7.084 4.273-9.045 5.454a5.706 5.706 0 0 1-5.913 0l-9.036-5.454-7.084-4.273c-.741-.447-1.102-1.223-1.102-2.007 0-.785.361-1.561 1.102-1.998l16.12-9.726a5.657 5.657 0 0 1 5.913 0l16.129 9.726c.742.437 1.104 1.213 1.104 1.998Z"/>
  <path stroke="#0D129E" stroke-linecap="round" stroke-linejoin="round" stroke-width="1.538" d="M190.261 283.357c0 .784-.362 1.56-1.104 2.007l-7.084 4.273-9.045 5.454a5.706 5.706 0 0 1-5.913 0l-9.036-5.454-7.084-4.273c-.741-.447-1.102-1.223-1.102-2.007 0-.785.361-1.561 1.102-1.998l16.12-9.726a5.657 5.657 0 0 1 5.913 0l16.129 9.726c.742.437 1.104 1.213 1.104 1.998Z"/>
  <path fill="#3C4EF5" d="M190.26 270.988c0 .785-.362 1.56-1.103 2.008l-7.085 4.272-9.045 5.454a5.7 5.7 0 0 1-5.912 0l-9.037-5.454-7.083-4.272c-.741-.448-1.102-1.223-1.102-2.008 0-.785.361-1.561 1.102-1.998l16.12-9.726a5.656 5.656 0 0 1 5.912 0l16.13 9.726c.741.437 1.103 1.213 1.103 1.998Z"/>
  <path stroke="#0D129E" stroke-linecap="round" stroke-linejoin="round" stroke-width="1.538" d="M190.26 270.988c0 .785-.362 1.56-1.103 2.008l-7.085 4.272-9.045 5.454a5.7 5.7 0 0 1-5.912 0l-9.037-5.454-7.083-4.272c-.741-.448-1.102-1.223-1.102-2.008 0-.785.361-1.561 1.102-1.998l16.12-9.726a5.656 5.656 0 0 1 5.912 0l16.13 9.726c.741.437 1.103 1.213 1.103 1.998Z"/>
  <path fill="#3C4EF5" d="M190.261 258.609c0 .785-.362 1.561-1.104 2.008l-7.084 4.273-9.045 5.453a5.701 5.701 0 0 1-5.913 0l-9.036-5.453-7.084-4.273c-.741-.447-1.102-1.223-1.102-2.008 0-.784.361-1.56 1.102-1.997l16.12-9.726a5.657 5.657 0 0 1 5.913 0l16.129 9.726c.742.437 1.104 1.213 1.104 1.997Z"/>
  <path stroke="#0D129E" stroke-linecap="round" stroke-linejoin="round" stroke-width="1.538" d="M190.261 258.609c0 .785-.362 1.561-1.104 2.008l-7.084 4.273-9.045 5.453a5.701 5.701 0 0 1-5.913 0l-9.036-5.453-7.084-4.273c-.741-.447-1.102-1.223-1.102-2.008 0-.784.361-1.56 1.102-1.997l16.12-9.726a5.657 5.657 0 0 1 5.913 0l16.129 9.726c.742.437 1.104 1.213 1.104 1.997Z"/>
  <path fill="#3C4EF5" d="M190.261 246.238c0 .785-.362 1.56-1.104 2.008l-7.084 4.272-9.045 5.454a5.701 5.701 0 0 1-5.913 0l-9.036-5.454-7.084-4.272c-.741-.448-1.102-1.223-1.102-2.008 0-.785.361-1.561 1.102-1.998l16.12-9.726a5.657 5.657 0 0 1 5.913 0l16.129 9.726c.742.437 1.104 1.213 1.104 1.998Z"/>
  <path stroke="#0D129E" stroke-linecap="round" stroke-linejoin="round" stroke-width="1.538" d="M190.261 246.238c0 .785-.362 1.56-1.104 2.008l-7.084 4.272-9.045 5.454a5.701 5.701 0 0 1-5.913 0l-9.036-5.454-7.084-4.272c-.741-.448-1.102-1.223-1.102-2.008 0-.785.361-1.561 1.102-1.998l16.12-9.726a5.657 5.657 0 0 1 5.913 0l16.129 9.726c.742.437 1.104 1.213 1.104 1.998Z"/>
  <path fill="#3C4EF5" d="M190.261 233.867c0 .784-.362 1.56-1.104 2.008l-7.084 4.272-9.045 5.454a5.706 5.706 0 0 1-5.913 0l-9.036-5.454-7.084-4.272c-.741-.448-1.102-1.224-1.102-2.008 0-.785.361-1.561 1.102-1.998l16.12-9.726a5.657 5.657 0 0 1 5.913 0l16.129 9.726c.742.437 1.104 1.213 1.104 1.998Z"/>
  <path stroke="#0D129E" stroke-linecap="round" stroke-linejoin="round" stroke-width="1.538" d="M190.261 233.867c0 .784-.362 1.56-1.104 2.008l-7.084 4.272-9.045 5.454a5.706 5.706 0 0 1-5.913 0l-9.036-5.454-7.084-4.272c-.741-.448-1.102-1.224-1.102-2.008 0-.785.361-1.561 1.102-1.998l16.12-9.726a5.657 5.657 0 0 1 5.913 0l16.129 9.726c.742.437 1.104 1.213 1.104 1.998Z"/>
  <path fill="#3C4EF5" d="M190.26 221.488c0 .785-.362 1.56-1.103 2.008l-7.085 4.272-9.045 5.454a5.7 5.7 0 0 1-5.912 0l-9.037-5.454-7.083-4.272c-.741-.448-1.102-1.223-1.102-2.008 0-.785.361-1.561 1.102-1.998l16.12-9.726a5.656 5.656 0 0 1 5.912 0l16.13 9.726c.741.437 1.103 1.213 1.103 1.998Z"/>
  <path stroke="#0D129E" stroke-linecap="round" stroke-linejoin="round" stroke-width="1.538" d="M190.26 221.488c0 .785-.362 1.56-1.103 2.008l-7.085 4.272-9.045 5.454a5.7 5.7 0 0 1-5.912 0l-9.037-5.454-7.083-4.272c-.741-.448-1.102-1.223-1.102-2.008 0-.785.361-1.561 1.102-1.998l16.12-9.726a5.656 5.656 0 0 1 5.912 0l16.13 9.726c.741.437 1.103 1.213 1.103 1.998Z"/>
  <path fill="#3C4EF5" d="M190.26 209.115c0 .784-.362 1.56-1.103 2.008l-7.085 4.272-9.045 5.454a5.7 5.7 0 0 1-5.912 0l-9.037-5.454-7.083-4.272c-.741-.448-1.102-1.224-1.102-2.008 0-.785.361-1.561 1.102-1.998l16.12-9.726a5.656 5.656 0 0 1 5.912 0l16.13 9.726c.741.437 1.103 1.213 1.103 1.998Z"/>
  <path stroke="#0D129E" stroke-linecap="round" stroke-linejoin="round" stroke-width="1.538" d="M190.26 209.115c0 .784-.362 1.56-1.103 2.008l-7.085 4.272-9.045 5.454a5.7 5.7 0 0 1-5.912 0l-9.037-5.454-7.083-4.272c-.741-.448-1.102-1.224-1.102-2.008 0-.785.361-1.561 1.102-1.998l16.12-9.726a5.656 5.656 0 0 1 5.912 0l16.13 9.726c.741.437 1.103 1.213 1.103 1.998Z"/>
  <path fill="#3C4EF5" d="M190.261 196.739c0 .784-.362 1.56-1.104 2.008l-7.084 4.272-9.045 5.454a5.701 5.701 0 0 1-5.913 0l-9.036-5.454-7.084-4.272c-.741-.448-1.102-1.224-1.102-2.008 0-.785.361-1.561 1.102-1.998l16.12-9.726a5.657 5.657 0 0 1 5.913 0l16.129 9.726c.742.437 1.104 1.213 1.104 1.998Z"/>
  <path stroke="#0D129E" stroke-linecap="round" stroke-linejoin="round" stroke-width="1.538" d="M190.261 196.739c0 .784-.362 1.56-1.104 2.008l-7.084 4.272-9.045 5.454a5.701 5.701 0 0 1-5.913 0l-9.036-5.454-7.084-4.272c-.741-.448-1.102-1.224-1.102-2.008 0-.785.361-1.561 1.102-1.998l16.12-9.726a5.657 5.657 0 0 1 5.913 0l16.129 9.726c.742.437 1.104 1.213 1.104 1.998Z"/>
  <path fill="#3C4EF5" d="M190.261 184.365c0 .785-.362 1.561-1.104 2.008l-7.084 4.273-9.045 5.453a5.701 5.701 0 0 1-5.913 0l-9.036-5.453-7.084-4.273c-.741-.447-1.102-1.223-1.102-2.008 0-.784.361-1.56 1.102-1.998l16.12-9.726a5.662 5.662 0 0 1 5.913 0l16.129 9.726c.742.438 1.104 1.214 1.104 1.998Z"/>
  <path stroke="#0D129E" stroke-linecap="round" stroke-linejoin="round" stroke-width="1.538" d="M190.261 184.365c0 .785-.362 1.561-1.104 2.008l-7.084 4.273-9.045 5.453a5.701 5.701 0 0 1-5.913 0l-9.036-5.453-7.084-4.273c-.741-.447-1.102-1.223-1.102-2.008 0-.784.361-1.56 1.102-1.998l16.12-9.726a5.662 5.662 0 0 1 5.913 0l16.129 9.726c.742.438 1.104 1.214 1.104 1.998Z"/>
  <path fill="#3C4EF5" d="M190.261 171.994c0 .785-.362 1.561-1.104 2.008l-7.084 4.273-9.045 5.453a5.701 5.701 0 0 1-5.913 0l-9.036-5.453-7.084-4.273c-.741-.447-1.102-1.223-1.102-2.008 0-.784.361-1.56 1.102-1.998l16.12-9.726a5.662 5.662 0 0 1 5.913 0l16.129 9.726c.742.438 1.104 1.214 1.104 1.998Z"/>
  <path stroke="#0D129E" stroke-linecap="round" stroke-linejoin="round" stroke-width="1.538" d="M190.261 171.994c0 .785-.362 1.561-1.104 2.008l-7.084 4.273-9.045 5.453a5.701 5.701 0 0 1-5.913 0l-9.036-5.453-7.084-4.273c-.741-.447-1.102-1.223-1.102-2.008 0-.784.361-1.56 1.102-1.998l16.12-9.726a5.662 5.662 0 0 1 5.913 0l16.129 9.726c.742.438 1.104 1.214 1.104 1.998Z"/>
  <path fill="#02EEC4" d="M191.824 145.347c0 12.535-9.744 22.715-21.741 22.715-8.605 0-16.02-5.217-19.583-12.788a23.774 23.774 0 0 1-2.158-9.927c0-12.56 9.743-22.715 21.741-22.715 3.392 0 6.617.81 9.501 2.279 7.247 3.672 12.24 11.447 12.24 20.436Z"/>
  <path stroke="#0D129E" stroke-linecap="round" stroke-linejoin="round" stroke-width="1.538" d="M191.824 145.347c0 12.535-9.744 22.715-21.741 22.715-8.605 0-16.02-5.217-19.583-12.788a23.774 23.774 0 0 1-2.158-9.927c0-12.56 9.743-22.715 21.741-22.715 3.392 0 6.617.81 9.501 2.279 7.247 3.672 12.24 11.447 12.24 20.436Z"/>
  <path stroke="#0D129E" stroke-linecap="round" stroke-linejoin="round" stroke-width="1.538" d="M157.285 146.434c0-7.998 6.203-14.463 13.843-14.463"/>
  <mask id="e" width="157" height="164" x="35" y="66" maskUnits="userSpaceOnUse" style="mask-type:luminance">
    <path fill="#fff" d="M35.32 66.196h155.943v162.937H35.319V66.196Z"/>
  </mask>
  <g mask="url(#e)">
    <path fill="#0C0C0C" d="M150.258 168.775c14.396-18.824 11.625-43.278-6.19-54.62-17.815-11.343-43.928-5.277-58.324 13.546-14.396 18.824-11.625 43.279 6.19 54.621 17.815 11.342 43.927 5.277 58.324-13.547Z"/>
    <path stroke="#0D129E" stroke-miterlimit="10" stroke-width="1.538" d="M150.258 168.775c14.396-18.824 11.625-43.278-6.19-54.62-17.815-11.343-43.928-5.277-58.324 13.546-14.396 18.824-11.625 43.279 6.19 54.621 17.815 11.342 43.927 5.277 58.324-13.547Z"/>
    <path fill="#3C4EF5" d="M145.127 164.12c12.871-19.827 8.482-44.945-9.803-56.103-18.285-11.158-43.542-4.131-56.413 15.695-12.87 19.827-8.481 44.945 9.804 56.104 18.285 11.158 43.542 4.13 56.412-15.696Z"/>
    <path stroke="#0C0C0C" stroke-miterlimit="10" stroke-width="1.538" d="M145.127 164.12c12.871-19.827 8.482-44.945-9.803-56.103-18.285-11.158-43.542-4.131-56.413 15.695-12.87 19.827-8.481 44.945 9.804 56.104 18.285 11.158 43.542 4.13 56.412-15.696Z"/>
    <path fill="#00EDBE" d="M139.384 160.602c-10.631 16.377-31.493 22.181-46.596 12.964-15.104-9.216-18.729-29.964-8.098-46.341 10.631-16.376 31.493-22.181 46.597-12.964 15.103 9.217 18.728 29.964 8.097 46.341Z"/>
    <path fill="#3C4EF5" d="M130.482 138.557c.971-1.491 2.082-2.753 3.545-3.484l-21.314-12.947c-.806-.49-1.917-.183-2.482.684l-3.214 4.937c-.565.868-.37 1.968.436 2.457l21.314 12.948c.048-1.59.745-3.104 1.715-4.595Zm-33.005-3.408c-.971 1.491-2.083 2.752-3.546 3.483l21.314 12.947c.807.49 1.918.184 2.483-.684l3.214-4.937c.565-.867.369-1.967-.437-2.457l-21.314-12.948c-.049 1.59-.744 3.105-1.715 4.596ZM114.537 162c.971-1.491 2.082-2.753 3.544-3.484l-21.313-12.948c-.806-.489-1.917-.183-2.482.685l-3.215 4.937c-.564.867-.37 1.967.437 2.457l21.314 12.947c.048-1.59.744-3.103 1.715-4.594Z"/>
  </g>
  <mask id="f" width="157" height="164" x="152" y="113" maskUnits="userSpaceOnUse" style="mask-type:luminance">
    <path fill="#fff" d="M152.574 113.366h155.943v162.937H152.574V113.366Z"/>
  </mask>
  <g mask="url(#f)">
    <path fill="#0C0C0C" d="M264.076 187.549c-11.638-15.973-38.231-24.675-59.397-19.438-21.167 5.237-28.892 22.431-17.254 38.403 11.637 15.973 38.23 24.675 59.397 19.438 21.166-5.237 28.891-22.431 17.254-38.403Z"/>
    <path stroke="#0C0C0C" stroke-miterlimit="10" stroke-width="1.538" d="M264.076 187.549c-11.638-15.973-38.231-24.675-59.397-19.438-21.167 5.237-28.892 22.431-17.254 38.403 11.637 15.973 38.23 24.675 59.397 19.438 21.166-5.237 28.891-22.431 17.254-38.403Z"/>
    <path fill="#3C4EF5" d="M267.827 178.531c-11.478-16.212-37.971-25.084-59.174-19.815-21.204 5.268-29.088 22.682-17.61 38.894 11.477 16.212 37.971 25.084 59.174 19.815 21.204-5.268 29.088-22.682 17.61-38.894Z"/>
    <path stroke="#0C0C0C" stroke-miterlimit="10" stroke-width="1.538" d="M267.827 178.531c-11.478-16.212-37.971-25.084-59.174-19.815-21.204 5.268-29.088 22.682-17.61 38.894 11.477 16.212 37.971 25.084 59.174 19.815 21.204-5.268 29.088-22.682 17.61-38.894Z"/>
    <path fill="#00EDBE" d="M261.14 180.192c9.48 13.391 2.967 27.775-14.547 32.127-17.514 4.352-39.398-2.976-48.878-16.367-9.481-13.391-2.968-27.774 14.546-32.126 17.514-4.352 39.398 2.976 48.879 16.366Z"/>
    <path fill="#3C4EF5" d="M233.436 175.501c-.842-1.189-1.393-2.353-1.25-3.476l-24.058 5.938c-.91.224-1.25.967-.759 1.659l2.789 3.936c.491.692 1.625 1.07 2.535.846l24.058-5.937c-1.454-.729-2.472-1.777-3.315-2.966Zm-20.352 16.49c.842 1.189 1.391 2.354 1.249 3.476l24.058-5.937c.91-.225 1.25-.967.76-1.659l-2.79-3.937c-.49-.691-1.625-1.07-2.535-.845l-24.058 5.937c1.454.728 2.473 1.777 3.316 2.965Zm35.976 2.815c-.843-1.189-1.393-2.353-1.251-3.475l-24.058 5.937c-.909.224-1.249.967-.759 1.659l2.79 3.936c.49.692 1.625 1.071 2.534.846l24.058-5.937c-1.454-.728-2.472-1.777-3.314-2.966Z"/>
  </g>
  <path stroke="#fff" stroke-linecap="round" stroke-linejoin="round" stroke-width="1.538" d="M95.275 109.823c3.52-17.42 19.223-43.874 40.26-51.265m34.201-8.95c1.065-.571 5.98-.872 6.777-.324" opacity=".7"/>
  <defs>
    <linearGradient id="a" x1="175.244" x2="177.13" y1="13.668" y2="353.641" gradientUnits="userSpaceOnUse">
      <stop stop-color="#02EEC4"/>
      <stop offset=".29" stop-color="#02EEC4" stop-opacity=".65"/>
      <stop offset="1" stop-color="#3440EE" stop-opacity=".6"/>
    </linearGradient>
  </defs>
</svg>
