<svg width="78" height="77" viewBox="0 0 78 77" fill="none" xmlns="http://www.w3.org/2000/svg">
<g clip-path="url(#clip0_772_7425)">
<mask id="mask0_772_7425" style="mask-type:luminance" maskUnits="userSpaceOnUse" x="0" y="0" width="78" height="77">
<path d="M0.501678 7.62939e-06H77.5017V77H0.501678V7.62939e-06Z" fill="white"/>
</mask>
<g mask="url(#mask0_772_7425)">
<path d="M2.492 13.9396C2.492 12.8398 3.38357 11.9482 4.48338 11.9482H46.3023C47.4021 11.9482 48.2937 12.8398 48.2937 13.9396V63.7241C48.2937 64.8239 47.4021 65.7155 46.3023 65.7155H24.3972C12.2993 65.7155 2.492 55.9082 2.492 43.8103V13.9396Z" fill="#141BEB"/>
<path d="M41.652 4.96613C32.6282 0.627175 18 0.627175 8.97612 4.96613C4.45722 7.14144 2.20708 9.99653 2.21174 12.8516C2.21174 12.8438 2.21174 12.84 2.21174 12.8322V13.1002C2.21174 13.1391 2.22571 13.1818 2.22571 13.2206C2.23503 13.3799 2.25832 13.5353 2.28162 13.6945C2.29559 13.7839 2.31423 13.8771 2.33286 13.9665C2.37013 14.1296 2.4074 14.2966 2.45865 14.4598C2.48194 14.5414 2.50989 14.6191 2.53784 14.7006C2.59841 14.8754 2.66829 15.0541 2.74748 15.2289C2.77544 15.2833 2.80339 15.3416 2.83134 15.3959C2.92917 15.5979 3.03632 15.7999 3.15745 16.0019C3.24596 16.1418 3.33448 16.2816 3.43231 16.4214C3.4789 16.4836 3.52548 16.5457 3.57207 16.6118C3.6699 16.7477 3.78171 16.8876 3.89352 17.0197C4.81127 18.1073 6.10638 19.5018 7.76487 20.4341C8.02109 20.5778 8.28664 20.7216 8.55684 20.8614C8.69194 20.9313 8.8317 20.9974 8.97612 21.0673C9.06464 21.11 9.14849 21.1489 9.23701 21.1838C18.1956 25.3674 32.6981 25.5733 41.652 21.3897C41.7405 21.3547 41.8244 21.3159 41.9129 21.2732C42.0527 21.2032 42.1924 21.1372 42.3322 21.0673C42.6024 20.9274 42.8679 20.7837 43.1241 20.64C43.5621 20.3953 43.9767 20.1389 44.3587 19.8786C44.5357 19.766 44.7034 19.6456 44.8712 19.5251C45.7144 18.9075 46.1569 17.6878 46.716 17.0197C46.8557 16.8526 46.9862 16.6856 47.112 16.5147C47.9785 15.3221 48.4117 14.0791 48.4117 12.8361C48.4117 9.98099 46.1523 7.13755 41.6474 4.96613H41.652Z" fill="#00EDBE"/>
<path d="M41.652 28.9202C32.6282 24.5813 18 24.5813 8.97612 28.9202C4.45722 31.0955 2.20708 51.0617 2.21174 53.9168C2.21174 53.9091 2.21174 53.9052 2.21174 53.8974V54.1654C2.21174 54.2043 2.22571 54.247 2.22571 54.2859C2.23503 54.4451 2.25832 54.6005 2.28162 54.7598C2.29559 54.8491 2.31423 54.9423 2.33286 55.0317C2.37013 55.1948 2.4074 55.3619 2.45865 55.525C2.48194 55.6066 2.50989 55.6843 2.53784 55.7658C2.59841 55.9406 2.66829 56.1193 2.74748 56.2941C2.77544 56.3485 2.80339 56.4068 2.83134 56.4612C2.92917 56.6632 3.03632 56.8651 3.15745 57.0671C3.24596 57.207 3.33448 57.3468 3.43231 57.4867C3.4789 57.5488 3.52548 57.611 3.57207 57.677C3.6699 57.813 3.78171 57.9528 3.89352 58.0849C4.81127 59.1725 6.10172 60.2019 7.76021 61.1342C8.01644 61.2779 8.28198 61.4216 8.55218 61.5615C8.68728 61.6314 8.82704 61.6974 8.97146 61.7674C9.05998 61.8101 9.14383 61.8489 9.23235 61.8839C18.191 66.0675 32.4325 66.0675 41.3865 61.8839C41.475 61.8489 41.5588 61.8101 41.6473 61.7674C41.7871 61.6974 41.9269 61.6314 42.0666 61.5615C42.3368 61.4216 42.6024 61.2779 42.8586 61.1342C43.2965 60.8895 43.7111 60.6331 44.0931 60.3728C44.2702 60.2602 44.4379 60.1398 44.6056 60.0193C45.4488 59.4017 46.1569 58.753 46.716 58.0849C46.8557 57.9178 46.9862 57.7508 47.112 57.5799C47.9785 56.3874 48.4117 55.1443 48.4117 53.9013C48.4117 51.0462 46.1523 31.0917 41.6473 28.9202H41.652Z" fill="#141BEB"/>
<circle cx="52.6883" cy="52.1879" r="23.1" fill="#00EDBE"/>
<path d="M75.2428 52.1855C75.2428 64.6444 65.143 74.7441 52.6842 74.7441C40.2254 74.7441 30.1256 64.6444 30.1256 52.1855C30.1256 39.7267 40.2254 29.627 52.6842 29.627C65.143 29.627 75.2428 39.7267 75.2428 52.1855Z" stroke="#0D129E" stroke-width="1.02667" stroke-miterlimit="10"/>
<path d="M48.1752 13.5352C48.1752 19.7645 38.0754 24.8145 25.6166 24.8145C13.1578 24.8145 2.75723 19.7645 2.75723 13.5352C2.75723 7.30583 13.1578 2.25586 25.6166 2.25586C38.0754 2.25586 48.1752 7.30583 48.1752 13.5352Z" stroke="#0D129E" stroke-width="1.02667" stroke-miterlimit="10"/>
<path d="M35.5652 37.4972C32.5643 38.2356 29.1874 38.6504 25.6168 38.6504C13.158 38.6504 2.75745 33.6006 2.75745 27.3711" stroke="#0D129E" stroke-width="1.02667" stroke-miterlimit="10"/>
<path d="M2.75723 13.5352V54.4414C2.75723 60.6707 13.1578 65.7207 25.6166 65.7207C28.5996 65.7207 31.4474 65.4312 34.0538 64.9053" stroke="#0D129E" stroke-width="1.02667" stroke-miterlimit="10"/>
<path d="M48.1725 13.535V30.0781" stroke="#0D129E" stroke-width="1.02667" stroke-miterlimit="10"/>
<path d="M30.1295 51.9598C28.6713 52.1078 27.1622 52.1855 25.6166 52.1855C13.1578 52.1855 2.75723 47.1356 2.75723 40.9062" stroke="#0D129E" stroke-width="1.02667" stroke-miterlimit="10"/>
<path d="M52.529 37.6458C49.9978 37.6794 47.5324 38.5108 45.4431 40.0354C43.3538 41.5599 41.7339 43.7095 40.7871 46.2137C39.8402 48.718 39.6088 51.4649 40.122 54.109C40.6351 56.7532 41.8699 59.1764 43.6709 61.0738C45.472 62.9712 47.7589 64.2581 50.2439 64.7726C52.7289 65.287 55.3011 65.006 57.6368 63.9649C59.9725 62.9238 61.9673 61.1692 63.3704 58.9217C64.7735 56.6743 65.5222 54.0344 65.5222 51.3342C65.5007 47.6811 64.1198 44.1867 61.6831 41.6197C59.2464 39.0527 55.9536 37.6232 52.529 37.6458Z" fill="#00EDBE"/>
<path d="M62.0646 43.7409C62.0078 42.7141 62.2632 41.6939 62.7982 40.8096H45.7122C45.5591 40.809 45.4074 40.8381 45.2657 40.8951C45.124 40.9521 44.9951 41.0359 44.8865 41.1417C44.7778 41.2475 44.6915 41.3733 44.6324 41.5119C44.5733 41.6504 44.5425 41.7991 44.542 41.9493V45.5318C44.5425 45.682 44.5733 45.8306 44.6324 45.9692C44.6915 46.1077 44.7778 46.2335 44.8865 46.3394C44.9951 46.4452 45.124 46.529 45.2657 46.586C45.4074 46.6429 45.5591 46.672 45.7122 46.6715H62.7982C62.2632 45.7872 62.0078 44.767 62.0646 43.7402" fill="#141BEB"/>
<path d="M41.8826 51.3893C41.9383 52.4161 41.682 53.4361 41.1461 54.3199H58.2321C58.3853 54.3204 58.537 54.2914 58.6787 54.2344C58.8204 54.1774 58.9492 54.0936 59.0579 53.9878C59.1665 53.882 59.2529 53.7562 59.312 53.6176C59.3711 53.479 59.4018 53.3304 59.4024 53.1802V49.5977C59.4018 49.4475 59.3711 49.2989 59.312 49.1603C59.2529 49.0217 59.1665 48.8959 59.0579 48.7901C58.9492 48.6843 58.8204 48.6005 58.6787 48.5435C58.537 48.4865 58.3853 48.4575 58.2321 48.458H41.1461C41.6812 49.3423 41.9365 50.3625 41.8798 51.3893" fill="#141BEB"/>
<path d="M62.0645 59.0485C62.0078 58.0217 62.2631 57.0015 62.7981 56.1172H45.7122C45.559 56.1167 45.4073 56.1457 45.2656 56.2027C45.1239 56.2597 44.9951 56.3435 44.8864 56.4493C44.7777 56.5551 44.6914 56.6809 44.6323 56.8195C44.5732 56.958 44.5425 57.1067 44.5419 57.2569V60.8394C44.5425 60.9896 44.5732 61.1382 44.6323 61.2768C44.6914 61.4154 44.7777 61.5411 44.8864 61.647C44.9951 61.7528 45.1239 61.8366 45.2656 61.8936C45.4073 61.9506 45.559 61.9796 45.7122 61.9791H62.7981C62.2631 61.0948 62.0078 60.0746 62.0645 59.0478" fill="#141BEB"/>
<path d="M33.9674 5.87514C32.3188 5.05948 30.2742 4.64045 28.0912 4.67075C25.9081 4.70105 23.6839 5.17935 21.6985 6.04545C19.7131 6.91154 18.0551 8.12674 16.9331 9.5382C15.8112 10.9497 15.2753 12.4943 15.393 13.9778C15.5106 15.4613 16.2766 16.8175 17.5945 17.8756C18.9124 18.9337 20.7233 19.6465 22.7995 19.9244C24.8757 20.2023 27.1243 20.0328 29.2625 19.4373C31.4008 18.8418 33.3331 17.8468 34.8164 16.5776C36.8093 14.8534 37.8394 12.7572 37.6802 10.7501C37.521 8.74306 36.1855 6.98949 33.9674 5.87514Z" fill="#00EDBE"/>
<path d="M36.7601 11.8711C37.2876 11.3699 38.0125 10.9742 38.8428 10.7343L27.8386 5.12171C27.7403 5.07116 27.6266 5.03497 27.5041 5.01522C27.3815 4.99546 27.2525 4.99252 27.1244 5.00657C26.9963 5.02062 26.8716 5.05139 26.7574 5.0971C26.6432 5.14282 26.5418 5.20259 26.4589 5.27302L24.491 6.957C24.4088 7.02779 24.3469 7.10774 24.3089 7.19228C24.2708 7.27683 24.2574 7.36432 24.2692 7.44976C24.2811 7.5352 24.318 7.61692 24.378 7.69025C24.4379 7.76357 24.5197 7.82707 24.6186 7.87712L35.6228 13.4897C35.764 12.8983 36.1599 12.3348 36.7605 11.8708" fill="#141BEB"/>
<path d="M19.5602 8.83755C19.032 9.33854 18.3067 9.73378 17.4761 9.97318L28.4803 15.5857C28.5786 15.6363 28.6923 15.6725 28.8148 15.6922C28.9374 15.712 29.0664 15.7149 29.1945 15.7009C29.3226 15.6868 29.4473 15.6561 29.5615 15.6104C29.6757 15.5646 29.7771 15.5049 29.86 15.4344L31.8279 13.7505C31.9101 13.6797 31.972 13.5997 32.01 13.5152C32.0481 13.4306 32.0615 13.3431 32.0497 13.2577C32.0378 13.1723 32.0009 13.0905 31.9409 13.0172C31.881 12.9439 31.7992 12.8804 31.7003 12.8303L20.6961 7.21778C20.5549 7.80919 20.159 8.37262 19.5584 8.83664" fill="#141BEB"/>
<path d="M28.3519 19.0665C28.8794 18.5652 29.6043 18.1695 30.4346 17.9296L19.4304 12.317C19.3321 12.2665 19.2184 12.2303 19.0959 12.2105C18.9733 12.1908 18.8443 12.1878 18.7162 12.2019C18.5881 12.2159 18.4634 12.2467 18.3492 12.2924C18.235 12.3381 18.1336 12.3979 18.0507 12.4683L16.0828 14.1523C16.0006 14.2231 15.9387 14.303 15.9007 14.3876C15.8626 14.4721 15.8491 14.5596 15.861 14.6451C15.8729 14.7305 15.9098 14.8122 15.9698 14.8856C16.0297 14.9589 16.1115 15.0224 16.2104 15.0724L27.2146 20.685C27.3558 20.0936 27.7517 19.5302 28.3523 19.0661" fill="#141BEB"/>
</g>
</g>
<defs>
<clipPath id="clip0_772_7425">
<rect width="77" height="77" fill="white" transform="translate(0.5)"/>
</clipPath>
</defs>
</svg>
