<svg width="100" height="100" viewBox="0 0 100 100" fill="none" xmlns="http://www.w3.org/2000/svg">
<rect x="0.333333" y="0.333333" width="99.3333" height="99.3333" rx="6.33333" fill="#F9F9FF"/>
<rect x="0.333333" y="0.333333" width="99.3333" height="99.3333" rx="6.33333" stroke="#DDDDEB" stroke-width="0.666667"/>
<path d="M74.0202 32.4626C73.8893 30.0988 74.4788 27.7501 75.714 25.7144H36.2667C35.9132 25.7131 35.5628 25.78 35.2357 25.9112C34.9086 26.0424 34.6111 26.2353 34.3603 26.4789C34.1094 26.7226 33.91 27.0121 33.7736 27.3311C33.6371 27.6501 33.5662 27.9923 33.5649 28.3381V36.5855C33.5662 36.9313 33.6371 37.2735 33.7736 37.5925C33.91 37.9115 34.1094 38.2011 34.3603 38.4447C34.6111 38.6883 34.9086 38.8812 35.2357 39.0124C35.5628 39.1436 35.9132 39.2105 36.2667 39.2092H75.714C74.4788 37.1735 73.8893 34.8248 74.0202 32.461" fill="#DDDDEB"/>
<path d="M27.4146 50.0742C27.5433 52.4381 26.9516 54.7862 25.7144 56.8208H65.1617C65.5152 56.8221 65.8656 56.7552 66.1927 56.624C66.5198 56.4928 66.8172 56.2999 67.0681 56.0563C67.319 55.8126 67.5184 55.523 67.6548 55.2041C67.7913 54.8851 67.8622 54.5429 67.8634 54.1971V45.9496C67.8622 45.6039 67.7913 45.2617 67.6548 44.9427C67.5184 44.6237 67.319 44.3341 67.0681 44.0905C66.8172 43.8469 66.5198 43.6539 66.1927 43.5228C65.8656 43.3916 65.5152 43.3247 65.1617 43.3259H25.7144C26.9496 45.3617 27.5391 47.7103 27.4082 50.0742" fill="#DDDDEB"/>
<path d="M74.0202 67.6914C73.8893 65.3275 74.4788 62.9789 75.714 60.9431H36.2667C35.9132 60.9419 35.5628 61.0088 35.2357 61.1399C34.9086 61.2711 34.6111 61.464 34.3603 61.7077C34.1094 61.9513 33.91 62.2409 33.7736 62.5599C33.6371 62.8789 33.5662 63.221 33.5649 63.5668V71.8143C33.5662 72.1601 33.6371 72.5022 33.7736 72.8212C33.91 73.1402 34.1094 73.4298 34.3603 73.6735C34.6111 73.9171 34.9086 74.11 35.2357 74.2412C35.5628 74.3724 35.9132 74.4392 36.2667 74.438H75.714C74.4788 72.4022 73.8893 70.0536 74.0202 67.6898" fill="#DDDDEB"/>
</svg>
