<svg width="131" height="70" viewBox="0 0 131 70" fill="none" xmlns="http://www.w3.org/2000/svg">
<path d="M39.6082 0.501323C40.1615 0.42796 40.7044 0.525059 41.2586 0.512112C42.9203 0.574687 44.6236 0.9469 46.1637 1.74095C46.8942 2.14122 47.5848 2.66663 48.205 3.2913C48.7505 3.87066 49.2291 4.55143 49.6348 5.28507C50.2941 6.49126 50.6867 7.82151 51.0046 9.21542C51.3486 10.8931 51.4537 12.5653 51.5362 14.2872C51.5388 15.926 51.5345 17.5659 51.5388 19.2058C48.4934 19.2155 45.4471 19.2048 42.4017 19.2102C42.4017 17.8216 42.4026 16.432 42.4017 15.0435C42.3869 14.2969 42.3826 13.5622 42.2966 12.8221C42.2445 12.1079 42.0829 11.2782 41.6911 10.7269C41.3524 10.2533 40.8851 10.0872 40.3908 10.044C39.867 10.0095 39.2963 10.0516 38.8542 10.4421C38.3417 10.8575 38.0889 11.7346 37.9708 12.4477C37.811 13.6086 37.804 14.7339 37.8005 15.9066C37.8014 28.6018 37.8005 41.2959 37.8014 53.991C37.8179 55.0764 37.8136 56.2243 38.0125 57.2848C38.1411 57.9915 38.426 58.8568 38.9463 59.2495C39.6186 59.7242 40.5115 59.7253 41.2421 59.4793C41.8223 59.2851 42.1454 58.6442 42.3122 57.9699C42.5433 57.0227 42.5372 55.9449 42.5459 54.962C42.5485 53.0481 42.5476 51.1352 42.5459 49.2213C45.5427 49.2245 48.5403 49.2224 51.5371 49.2224C51.5353 51.4945 51.5397 53.7699 51.5345 56.0409C51.4737 57.1198 51.4172 58.217 51.2687 59.2818C50.929 61.6392 50.2133 63.9491 48.8626 65.7012C47.7446 67.1695 46.2958 68.1189 44.7322 68.6336C43.3276 69.1137 41.8432 69.2831 40.3899 69.2798C39.6342 69.2777 38.8829 69.2863 38.1315 69.1676C35.7332 68.9162 33.2385 67.9247 31.4543 65.8447C30.7143 64.9891 30.1088 63.9297 29.6319 62.8249C28.9396 61.1408 28.5566 59.3164 28.3742 57.4445C28.2543 56.5491 28.2552 55.6493 28.2117 54.7462C28.2074 41.7285 28.2109 28.7086 28.21 15.6909C28.1961 14.8763 28.2691 14.065 28.2934 13.2504C28.4098 11.9666 28.5818 10.6568 28.9118 9.4312C29.4061 7.36515 30.3156 5.47495 31.582 3.99689C33.0326 2.32571 34.8342 1.35472 36.7591 0.867063C37.6998 0.642656 38.6483 0.482982 39.6082 0.501323Z" fill="white"/>
<path d="M66.4979 1.32508C69.2332 1.32292 71.979 1.324 74.7143 1.324C74.7134 23.6773 74.7151 46.0306 74.7134 68.3839C71.5672 68.385 68.4219 68.385 65.2757 68.385C65.2775 50.0958 65.2705 31.8002 65.2792 13.5121C64.3411 14.5748 63.3821 15.6105 62.4388 16.6667C61.796 17.3486 61.1888 18.0887 60.5313 18.7468C60.5174 15.1898 60.5278 11.6295 60.5261 8.07131C62.5248 5.83803 64.4957 3.55404 66.4979 1.32508Z" fill="#00EDBE"/>
<path fill-rule="evenodd" clip-rule="evenodd" d="M13.3736 0.520179C12.987 0.481339 12.6309 0.479181 12.2443 0.520179C10.653 0.527731 9.05126 0.835211 7.54071 1.46312C5.65925 2.29494 3.99148 3.71798 2.87442 5.79914C1.53673 8.21798 1.02771 11.0921 0.901759 13.9824C0.88571 14.5197 0.884454 15.0586 0.8832 15.5963C0.883029 15.6697 0.882858 15.7431 0.882649 15.8165C0.882997 20.9952 0.882788 26.1738 0.88258 31.3525C0.882267 39.1204 0.881954 46.8883 0.883518 54.6562C0.876569 57.3243 1.15887 59.9406 2.01969 62.4026C2.71285 64.3186 3.81949 65.9898 5.25621 67.1108C6.78587 68.3407 8.6291 68.905 10.4202 69.1671C11.5468 69.3236 12.6734 69.3095 13.8053 69.2815C15.7997 69.1509 17.7185 68.7226 19.5113 67.5876C21.3493 66.4246 22.8052 64.4352 23.6095 62.0821C24.532 59.3493 24.7552 56.5151 24.7257 53.5773C24.7253 48.1201 24.7254 42.6629 24.7255 37.2058C24.7257 29.9322 24.7258 22.6586 24.7248 15.385C24.7266 14.1108 24.6736 12.8701 24.5242 11.6089C24.2645 9.50509 23.7398 7.33115 22.7478 5.57257C22.1667 4.56706 21.4623 3.60577 20.6206 2.9304C19.2316 1.72637 17.5569 1.0812 15.8952 0.766163C15.0604 0.588148 14.2196 0.521258 13.3736 0.520179ZM15.0289 12.4005C14.8804 11.7079 14.6919 11.0002 14.2167 10.5449C13.6669 10.0324 12.9781 9.98062 12.3179 10.0831C11.8827 10.1543 11.4779 10.4165 11.2087 10.8524C10.9759 11.2354 10.8126 11.6755 10.7187 12.1405C10.4959 13.0769 10.4794 14.1327 10.4641 15.1177C10.4627 15.204 10.4614 15.2899 10.4599 15.375C10.4589 22.7309 10.459 30.0871 10.4592 37.4433C10.4593 42.9619 10.4594 48.4805 10.459 53.9989C10.4613 54.1323 10.463 54.2653 10.4647 54.3979C10.4722 54.9858 10.4797 55.5669 10.5329 56.1524C10.5893 56.9227 10.7266 57.7383 11.0219 58.4245C11.2034 58.8398 11.4458 59.197 11.7976 59.3976C12.3292 59.7029 12.985 59.6997 13.5487 59.5465C14.155 59.3814 14.6119 58.7881 14.8196 58.0771C15.1638 56.955 15.1814 55.7971 15.1992 54.6212C15.2023 54.4143 15.2055 54.2068 15.2104 53.9989C15.2113 41.1387 15.2113 28.2775 15.2113 15.4173V15.375C15.1991 14.3673 15.1826 13.3942 15.0289 12.4005Z" fill="white"/>
<path fill-rule="evenodd" clip-rule="evenodd" d="M90.6481 0.484065C90.5728 0.490109 90.4973 0.496177 90.4208 0.499355C89.1951 0.500434 87.9643 0.691395 86.7734 1.05066C85.3045 1.49408 83.867 2.30864 82.6943 3.50296C82.0663 4.17726 81.493 4.89687 81.0344 5.76105C79.959 7.69764 79.4239 9.92121 79.1824 12.2354C79.0617 13.3812 79.0191 14.5345 79.0209 15.6889V53.5576C79.0113 55.67 79.0765 57.8699 79.5038 59.9219C79.8539 61.6772 80.4081 63.3365 81.3288 64.7531C82.3069 66.3347 83.7115 67.5204 85.2125 68.1991C87.0079 69.0136 88.9519 69.3017 90.8551 69.279C93.1109 69.2984 95.3285 68.9187 97.3881 67.7243C98.0838 67.2766 98.7518 66.7965 99.3355 66.1395C100.217 65.244 100.919 64.0626 101.458 62.823C102.551 60.1927 102.88 57.133 102.876 54.2049C102.877 44.4932 102.877 34.7815 102.877 25.0698C102.877 21.835 102.877 18.6001 102.877 15.3652C102.88 13.1406 102.71 10.9677 102.168 8.83909C101.815 7.50668 101.306 6.19152 100.605 5.08567C99.5206 3.35083 98.0039 2.10581 96.3266 1.43474C95.2148 0.9568 94.023 0.703263 92.8538 0.565166C92.5363 0.521485 92.2189 0.515268 91.9016 0.509053C91.6389 0.503909 91.3763 0.498767 91.1139 0.472383C90.9562 0.459319 90.8027 0.471643 90.6481 0.484065ZM93.1358 12.1729C92.982 11.5008 92.7718 10.8513 92.2845 10.4478C91.726 9.97955 90.932 9.93963 90.2919 10.1058C89.6899 10.2633 89.2842 10.8114 89.0471 11.4889C88.631 12.7285 88.6232 14.0383 88.6197 15.3534C88.6189 28.2644 88.6189 41.1742 88.6197 54.0852C88.6154 55.2914 88.6536 56.4468 88.8942 57.6228C89.0297 58.2291 89.3034 58.897 89.7333 59.2562C90.3214 59.6856 91.0814 59.7007 91.7294 59.5065C92.3149 59.3199 92.7223 58.7556 92.9394 58.0749C93.2565 57.1028 93.3329 55.9883 93.3399 54.9483C93.3486 54.4444 93.3547 53.9417 93.352 53.4378C93.352 49.2061 93.3521 44.9744 93.3522 40.7428C93.3524 32.2798 93.3526 23.8168 93.352 15.3534C93.3511 15.2609 93.3504 15.1683 93.3497 15.0756C93.3419 14.1044 93.334 13.1243 93.1358 12.1729Z" fill="#00EDBE"/>
<path fill-rule="evenodd" clip-rule="evenodd" d="M118.679 0.484764C118.525 0.472116 118.373 0.459582 118.217 0.471753C117.969 0.496443 117.722 0.502575 117.474 0.508704C117.116 0.517572 116.759 0.526435 116.401 0.591508C115.22 0.718816 114.039 1.03493 112.921 1.52582C112.17 1.87753 111.443 2.34361 110.768 2.88413C109.255 4.15936 108.095 6.00208 107.436 8.11777C106.64 10.4945 106.44 13.0299 106.437 15.5814C106.437 18.8165 106.437 22.0516 106.437 25.2867C106.437 34.9982 106.437 44.7096 106.438 54.4211C106.437 56.3027 106.552 58.1411 106.931 59.9676C107.292 61.7887 107.896 63.4988 108.862 64.9531C109.75 66.2898 110.901 67.3018 112.179 67.9847C113.693 68.7561 115.287 69.1165 116.915 69.2449C118.52 69.3226 120.109 69.3042 121.693 68.9385C123.14 68.6116 124.578 67.9869 125.826 67.0116C127.044 66.0223 128.055 64.6586 128.75 63.0715C129.501 61.4273 129.891 59.5134 130.122 57.6577C130.236 56.4386 130.294 55.2173 130.294 53.9895C130.294 45.4542 130.294 36.9194 130.294 28.3843C130.294 24.1168 130.294 19.8492 130.294 15.5814C130.284 13.2446 130.159 10.9239 129.534 8.70144C129.109 7.09283 128.452 5.59535 127.512 4.36111C126.671 3.20887 125.555 2.33498 124.407 1.73404C122.671 0.879569 120.776 0.500882 118.914 0.500882C118.834 0.497616 118.756 0.491175 118.679 0.484764ZM119.676 10.437C119.126 10.0032 118.408 9.96657 117.782 10.095C117.218 10.2201 116.766 10.6829 116.521 11.3195C116.082 12.4441 116.053 13.8695 116.027 15.1128C116.026 15.1613 116.025 15.2095 116.024 15.2574C116.022 24.5061 116.022 33.7548 116.023 43.0035C116.023 46.7013 116.023 50.3992 116.023 54.097C116.038 55.1446 116.066 56.2213 116.22 57.2527C116.355 57.9767 116.602 58.8149 117.123 59.2443C117.683 59.6845 118.459 59.7136 119.09 59.5356C119.707 59.3619 120.134 58.7739 120.364 58.0662C120.557 57.4232 120.672 56.723 120.713 56.039C120.761 55.5637 120.765 55.0916 120.77 54.6157C120.771 54.4078 120.773 54.1991 120.779 53.9891C120.779 47.5674 120.779 41.1458 120.779 34.7241C120.779 28.3071 120.778 21.8901 120.779 15.4732C120.775 14.3091 120.754 13.1007 120.493 11.969C120.347 11.3799 120.107 10.779 119.676 10.437Z" fill="#00EDBE"/>
</svg>
