<svg width="124" height="125" viewBox="0 0 124 125" fill="none" xmlns="http://www.w3.org/2000/svg">
<path d="M103.578 52.6924L63.5058 75.8307L23.4287 52.6924L63.5058 29.5542L103.578 52.6924Z" fill="#C2C7FB"/>
<path d="M103.578 53.8702L63.5058 77.003L23.4287 53.8702L63.5058 30.7319L103.578 53.8702Z" fill="white"/>
<path d="M63.5021 76.2061L63.3399 76.1142L23.3439 53.0246C23.0898 52.8786 23.0898 52.5164 23.3439 52.3705L63.5021 29.189L63.6643 29.2809L103.714 52.4029C103.941 52.5326 103.941 52.857 103.714 52.9922L63.4967 76.2115L63.5021 76.2061ZM24.0737 52.6948L63.4967 75.4546L102.925 52.6948L63.5021 29.935L24.0737 52.6948Z" fill="#141BEB"/>
<path d="M97.9772 52.6905L63.5064 72.5905L29.0303 52.6905L63.5064 32.7905L97.9772 52.6905Z" fill="#DFE2FB"/>
<path d="M63.5048 72.9704L28.3799 52.692L63.4994 32.4136L98.6189 52.692L63.4994 72.9704H63.5048ZM29.6828 52.692L63.5048 72.2189L97.3268 52.692L63.5048 33.165L29.6828 52.692Z" fill="#141BEB"/>
<path d="M23.4541 52.6968V98.9192L63.2771 121.911C63.3745 121.966 63.488 121.895 63.488 121.787V75.8134L23.4541 52.6968Z" fill="#C2C7FB"/>
<path d="M63.3614 75.6604L63.7669 75.8946V75.577L103.466 52.6573L103.466 52.6574L103.468 52.656C103.522 52.6239 103.595 52.661 103.595 52.7314V98.9491L63.7409 121.96C63.7407 121.96 63.7406 121.96 63.7405 121.96C63.704 121.981 63.6691 121.989 63.6371 121.989C63.6118 121.989 63.5982 121.987 63.582 121.982L63.5073 121.957L63.431 121.976C63.4216 121.978 63.4133 121.98 63.4057 121.982C63.3973 121.984 63.3897 121.985 63.3826 121.986C63.3692 121.989 63.3608 121.989 63.356 121.989C63.3239 121.989 63.289 121.981 63.2525 121.96C63.2524 121.96 63.2523 121.96 63.2522 121.96L23.3924 98.9491V52.6665C23.3924 52.6511 23.3997 52.6358 23.4184 52.6251C23.4367 52.6145 23.4527 52.6158 23.4659 52.6236L23.4659 52.6237L23.4681 52.6249L63.3614 75.6604ZM23.5221 98.7268V98.8828L23.6573 98.9609L63.0316 121.694L63.4371 121.928V121.46V76.0102V75.8541L63.3019 75.7761L23.9276 53.0433L23.5221 52.8092V53.2774V98.7268Z" fill="white" stroke="#141BEB" stroke-width="0.540623"/>
<path d="M46.7048 112.28L37.2869 106.84V60.7093L46.7048 66.1339V112.28Z" fill="#02EFC5" stroke="#141BEB" stroke-width="0.540623"/>
<path d="M79.7236 66.524V112.26L80.3886 111.876V66.1401L79.7236 66.524Z" fill="#141BEB"/>
<path d="M89.6787 60.7701V106.522L90.3437 106.138V60.3862L89.6787 60.7701Z" fill="#141BEB"/>
<path d="M63.5064 32.7925V72.5924L29.0303 52.6924L63.5064 32.7925Z" fill="#929BFB"/>
<path d="M63.2886 72.8446L28.3799 52.6905L63.3426 32.504C63.5589 32.3797 63.8238 32.5364 63.8238 32.7851V72.5364C63.8238 72.8121 63.5264 72.9851 63.2886 72.8446ZM29.6774 52.6905L63.175 72.0336V33.3528L29.6774 52.6959V52.6905Z" fill="#141BEB"/>
<path d="M81.0139 57.337L81.9752 55.6211L81.1826 53.8112C81.0927 53.6046 81.2648 53.3793 81.4746 53.4286L83.3149 53.864L84.698 52.5072C84.8556 52.3523 85.112 52.4567 85.132 52.6821L85.3085 54.668L86.9557 55.6399C87.1433 55.7502 87.13 56.0401 86.9324 56.1305L85.2008 56.9216L84.8356 58.8781C84.7945 59.1011 84.5293 59.1763 84.3872 59.0061L83.1407 57.5096L81.2681 57.7467C81.055 57.7737 80.9052 57.5307 81.0139 57.3347V57.337Z" fill="#141BEB"/>
<g clip-path="url(#clip0_687_7169)">
<path d="M46.2472 56.8071C46.1912 56.6808 44.9248 54.8734 43.3221 52.9305C35.8663 43.8772 25.2197 35.4352 13.658 36.7373L13.6434 36.6679C18.8369 35.6609 24.0862 36.6344 28.7986 38.7507C36.565 42.1463 44.439 49.1887 48.8868 54.7339L46.2488 56.8084L46.2472 56.8071Z" fill="#00EDBE"/>
<path d="M16.6718 41.8406L15.4427 36.5053L19.1412 32.4685C19.5621 32.0089 19.2729 31.2651 18.6523 31.2103L13.198 30.7301L10.5026 25.964C10.1962 25.4217 9.39992 25.4666 9.15447 26.0398L7.01215 31.0792L1.64623 32.171C1.03438 32.2949 0.831707 33.066 1.30221 33.4758L5.43206 37.0708L4.81246 42.5113C4.74138 43.1303 5.4122 43.5618 5.94756 43.2413L10.642 40.424L15.6245 42.6944C16.1914 42.9536 16.8101 42.4483 16.6704 41.8407L16.6718 41.8406Z" fill="#00EDBE"/>
</g>
<path d="M55.5299 22.0619L54.2924 26.741L58.0051 29.918L56.2521 35.0612L61.2336 37.2061L59.5033 43.1104L63.8504 45.6618L63.0971 51.6209L60.8824 51.3298L61.446 46.8756L56.8582 44.1829L58.5205 38.5063L53.4569 36.3268L55.3912 30.6532L51.7634 27.5482L52.9132 23.2122L50.1123 21.6814L51.1687 19.6777L55.5299 22.0619Z" fill="#141BEB"/>
<path d="M41.2957 34.5009L40.936 28.5044L35.4363 28.4784L34.8274 22.5856L29.574 21.8995L28.41 17.5664L26.2549 18.1661L27.8125 23.9608L32.7912 24.6124L33.4255 30.7415L38.8347 30.7675L39.1575 36.2019L41.2957 34.5009Z" fill="#D8D8ED"/>
<path d="M84.4354 17.5664L84.1493 21.2134L78.3324 21.3892L77.2647 26.6679L72.9346 27.527L73.3594 29.7584L79.1537 28.6139L80.1647 23.6091L86.2138 23.4246L86.6472 17.9354L84.4354 17.5664Z" fill="#D8D8ED"/>
<path d="M65.9839 16.2302L69.9317 15.988C70.3593 15.962 70.583 15.3999 70.3112 15.0366L67.7963 11.6866L68.881 7.4227C68.9971 6.96143 68.5921 6.55782 68.1956 6.74233L64.5197 8.43751L61.2403 6.04465C60.8863 5.78518 60.4104 6.09942 60.4359 6.57511L60.6795 10.9716L57.5699 13.7566C57.2329 14.0593 57.3462 14.6532 57.7597 14.7656L61.5857 15.7891L62.9423 19.903C63.0895 20.3499 63.6333 20.4047 63.8627 19.9953L65.9839 16.2302Z" fill="#7772D6"/>
<path d="M72.8437 50.1182C72.8738 49.9833 73.7536 47.968 74.9347 45.7512C80.4265 35.432 89.1542 25.0797 100.706 24.0647L100.705 23.9941C95.4332 24.0382 90.4994 26.0273 86.3142 29.028C79.4008 33.8818 73.1032 42.3177 69.8563 48.6145L72.8437 50.1182Z" fill="#00EDBE"/>
<path d="M98.7722 29.6414L98.9166 24.1861L94.5039 20.9742C94.0008 20.6085 94.1364 19.8256 94.7329 19.6484L99.9651 18.1001L101.655 12.9119C101.848 12.3209 102.634 12.2066 102.987 12.7198L106.077 17.2178L111.534 17.2225C112.155 17.2229 112.507 17.9366 112.129 18.4296L108.805 22.7586L110.487 27.9502C110.678 28.5417 110.108 29.0951 109.522 28.8886L104.379 27.0653L99.9614 30.2691C99.4578 30.6341 98.7555 30.264 98.7708 29.6432L98.7722 29.6414Z" fill="#00EDBE"/>
<path d="M121.634 34.0882L120.106 37.4275L114.462 35.5649L111.626 40.1735L107.174 39.469L106.818 41.7235L112.773 42.6637L115.459 38.2973L121.332 40.2354L123.629 35.2089L121.634 34.0882Z" fill="#141BEB"/>
<defs>
<clipPath id="clip0_687_7169">
<rect width="45.8972" height="34.1109" fill="white" transform="matrix(0.996627 -0.0820681 0.0820741 0.996626 0.50293 26.3496)"/>
</clipPath>
</defs>
</svg>
