<svg width="203" height="210" viewBox="0 0 203 210" fill="none" xmlns="http://www.w3.org/2000/svg">
<g filter="url(#filter0_d_1937_13995)">
<g clip-path="url(#clip0_1937_13995)">
<rect x="8.23291" y="24.9775" width="78.692" height="143.35" rx="10.3769" fill="#00CCA4"/>
<path opacity="0.8" d="M47.0602 53.0442C38.8055 53.1453 30.7655 55.6415 23.9518 60.2189C17.1381 64.7963 11.8552 71.2504 8.76737 78.7692C5.67957 86.288 4.92498 94.5355 6.59848 102.474C8.27198 110.413 12.2987 117.689 18.1723 123.386C24.046 129.083 31.504 132.947 39.6082 134.491C47.7123 136.036 56.1007 135.192 63.7178 132.066C71.3349 128.94 77.8405 123.672 82.4163 116.924C86.9921 110.176 89.4336 102.25 89.4337 94.143C89.3636 83.1749 84.86 72.6831 76.9136 64.9758C68.9671 57.2684 58.2287 52.9765 47.0602 53.0442Z" fill="#141BEB"/>
<path d="M47.1862 59.8278C40.2697 59.9121 33.533 61.9965 27.8239 65.8186C22.1148 69.6407 17.6883 75.0299 15.1011 81.3081C12.5138 87.5862 11.8816 94.4729 13.2838 101.102C14.686 107.731 18.0599 113.806 22.9814 118.563C27.9028 123.32 34.1518 126.546 40.9422 127.836C47.7325 129.126 54.7611 128.421 61.1434 125.811C67.5256 123.201 72.9766 118.802 76.8106 113.168C80.6446 107.533 82.6903 100.915 82.6904 94.1452C82.6317 84.9868 78.8582 76.2262 72.1999 69.7906C65.5417 63.3549 56.5441 59.7712 47.1862 59.8278Z" fill="#141BEB"/>
<path d="M61.2192 81.4555C61.1242 79.7395 61.5519 78.0345 62.4481 76.5567H33.8279C33.5714 76.5558 33.3172 76.6043 33.0799 76.6995C32.8426 76.7948 32.6267 76.9348 32.4447 77.1117C32.2627 77.2885 32.1181 77.4988 32.019 77.7303C31.92 77.9619 31.8686 78.2103 31.8677 78.4613V84.4486C31.8686 84.6996 31.92 84.948 32.019 85.1796C32.1181 85.4111 32.2627 85.6214 32.4447 85.7982C32.6267 85.9751 32.8426 86.1152 33.0799 86.2104C33.3172 86.3056 33.5714 86.3542 33.8279 86.3533H62.4481C61.5519 84.8754 61.1242 83.1704 61.2192 81.4544" fill="white"/>
<path d="M27.4074 94.2402C27.5008 95.9563 27.0715 97.6609 26.1738 99.1379H54.7941C55.0506 99.1388 55.3047 99.0903 55.5421 98.9951C55.7794 98.8998 55.9952 98.7598 56.1772 98.5829C56.3592 98.406 56.5039 98.1958 56.6029 97.9642C56.7019 97.7327 56.7533 97.4843 56.7543 97.2333V91.246C56.7533 90.995 56.7019 90.7466 56.6029 90.515C56.5039 90.2834 56.3592 90.0732 56.1772 89.8963C55.9952 89.7195 55.7794 89.5794 55.5421 89.4842C55.3047 89.389 55.0506 89.3404 54.7941 89.3413H26.1738C27.07 90.8192 27.4978 92.5242 27.4027 94.2402" fill="white"/>
<path d="M61.2192 107.023C61.1242 105.307 61.5519 103.602 62.4481 102.124H33.8279C33.5714 102.123 33.3172 102.172 33.0799 102.267C32.8426 102.362 32.6267 102.502 32.4447 102.679C32.2627 102.856 32.1181 103.066 32.019 103.298C31.92 103.529 31.8686 103.778 31.8677 104.029V110.016C31.8686 110.267 31.92 110.515 32.019 110.747C32.1181 110.979 32.2627 111.189 32.4447 111.366C32.6267 111.542 32.8426 111.683 33.0799 111.778C33.3172 111.873 33.5714 111.922 33.8279 111.921H62.4481C61.5519 110.443 61.1242 108.738 61.2192 107.022" fill="white"/>
<rect x="20.5465" y="148.389" width="54.4995" height="12.6067" rx="6.30335" stroke="white" stroke-width="0.501223"/>
<path d="M34.9877 154.206C34.9877 154.169 35.2958 154.111 35.3808 154.111C35.4605 154.111 36.0131 156.225 36.0131 156.225C36.1671 155.694 36.5072 154.94 36.6081 154.61C36.5815 154.52 36.4647 154.175 36.4647 154.159C36.4912 154.111 36.8366 154.063 36.8844 154.09C36.9481 154.132 37.5432 156.087 37.5804 156.193C37.6123 156.087 38.2711 154.116 38.3029 154.105C38.3454 154.1 38.7227 154.19 38.7174 154.217C38.643 154.541 37.846 156.703 37.8195 156.73C37.7451 156.783 37.3466 156.714 37.3413 156.698C37.336 156.693 37.0544 155.954 36.8206 155.131C36.5284 155.976 36.2203 156.709 36.2043 156.73C36.1353 156.794 35.7421 156.719 35.7368 156.709C35.7315 156.698 34.9823 154.36 34.9877 154.206ZM39.2311 154.164C39.2523 154.132 39.6668 154.143 39.688 154.164C39.7039 154.185 39.7039 156.645 39.688 156.682C39.6668 156.719 39.2789 156.703 39.2683 156.688C39.263 156.672 39.1992 154.222 39.2311 154.164ZM39.1248 153.277C39.1248 153.075 39.1833 152.931 39.4542 152.931C39.6561 152.931 39.7996 153.064 39.7996 153.303C39.7996 153.468 39.6561 153.595 39.4542 153.595C39.263 153.595 39.1248 153.484 39.1248 153.277ZM40.4818 154.228C40.5083 154.18 40.9174 154.148 40.944 154.196C40.944 154.297 40.9387 154.504 40.9334 154.536C41.0343 154.345 41.3956 154.127 41.7462 154.127C42.2935 154.127 42.7079 154.525 42.7079 155.205C42.7079 155.529 42.6866 156.427 42.6654 156.714C42.6548 156.773 42.2457 156.746 42.2297 156.73C42.1978 156.719 42.235 155.455 42.235 155.221C42.235 154.86 42.0225 154.562 41.6294 154.562C41.2096 154.562 40.9387 154.865 40.9387 155.173C40.9387 155.412 40.9334 156.645 40.9174 156.666C40.9068 156.688 40.4818 156.677 40.4711 156.645C40.4711 156.624 40.4711 155.312 40.4818 154.228ZM43.4495 154.228C43.4761 154.18 43.8852 154.148 43.9118 154.196C43.9118 154.297 43.9065 154.504 43.9011 154.536C44.0021 154.345 44.3634 154.127 44.714 154.127C45.2613 154.127 45.6757 154.525 45.6757 155.205C45.6757 155.529 45.6544 156.427 45.6332 156.714C45.6225 156.773 45.2134 156.746 45.1975 156.73C45.1656 156.719 45.2028 155.455 45.2028 155.221C45.2028 154.86 44.9903 154.562 44.5971 154.562C44.1774 154.562 43.9065 154.865 43.9065 155.173C43.9065 155.412 43.9011 156.645 43.8852 156.666C43.8746 156.688 43.4495 156.677 43.4389 156.645C43.4389 156.624 43.4389 155.312 43.4495 154.228ZM46.4067 154.164C46.4279 154.132 46.8424 154.143 46.8636 154.164C46.8796 154.185 46.8796 156.645 46.8636 156.682C46.8424 156.719 46.4545 156.703 46.4439 156.688C46.4386 156.672 46.3748 154.222 46.4067 154.164ZM46.3004 153.277C46.3004 153.075 46.3589 152.931 46.6298 152.931C46.8317 152.931 46.9752 153.064 46.9752 153.303C46.9752 153.468 46.8317 153.595 46.6298 153.595C46.4386 153.595 46.3004 153.484 46.3004 153.277ZM47.9602 155.561C47.9602 156.023 48.3321 156.305 48.7412 156.305C49.1025 156.305 49.2938 156.178 49.4585 156.045C49.4903 156.061 49.6444 156.326 49.6444 156.39C49.5116 156.518 49.1662 156.719 48.72 156.719C47.923 156.719 47.5033 156.14 47.5033 155.46C47.5033 154.764 47.9283 154.137 48.6934 154.137C49.3203 154.137 49.7507 154.605 49.7507 155.168C49.7507 155.327 49.7347 155.439 49.7082 155.54C49.4531 155.572 48.3427 155.572 47.9602 155.561ZM47.9761 155.232L49.2884 155.216C49.3203 154.78 49.0759 154.515 48.6721 154.515C48.2418 154.515 47.9761 154.855 47.9761 155.232ZM51.0937 156.31C51.0937 156.581 50.9237 156.741 50.6209 156.735C50.4402 156.725 50.2543 156.565 50.2543 156.326C50.2543 156.05 50.419 155.885 50.7218 155.901C50.9025 155.912 51.0937 156.013 51.0937 156.31ZM52.0746 155.561C52.0746 156.023 52.4465 156.305 52.8556 156.305C53.2169 156.305 53.4082 156.178 53.5729 156.045C53.6048 156.061 53.7588 156.326 53.7588 156.39C53.626 156.518 53.2807 156.719 52.8344 156.719C52.0374 156.719 51.6177 156.14 51.6177 155.46C51.6177 154.764 52.0428 154.137 52.8078 154.137C53.4347 154.137 53.8651 154.605 53.8651 155.168C53.8651 155.327 53.8492 155.439 53.8226 155.54C53.5676 155.572 52.4572 155.572 52.0746 155.561ZM52.0906 155.232L53.4029 155.216C53.4347 154.78 53.1904 154.515 52.7866 154.515C52.3562 154.515 52.0906 154.855 52.0906 155.232ZM55.5163 156.714C54.8575 156.714 54.3209 156.289 54.3209 155.423C54.3209 154.716 54.8044 154.159 55.5322 154.148C55.8988 154.148 56.207 154.334 56.3398 154.536C56.3398 154.01 56.3504 152.745 56.3717 152.724C56.3983 152.692 56.7967 152.676 56.8552 152.713C56.8605 152.719 56.7967 156.539 56.7808 156.682C56.7755 156.698 56.4195 156.709 56.3558 156.688L56.3398 156.321C56.2123 156.502 55.936 156.714 55.5163 156.714ZM54.8097 155.439C54.8097 156.071 55.1869 156.278 55.6066 156.278C56.122 156.278 56.3664 155.922 56.3664 155.423C56.3664 154.839 56.0104 154.584 55.596 154.584C55.1285 154.584 54.8097 154.908 54.8097 155.439ZM59.729 156.73C59.6971 156.789 59.3359 156.767 59.2987 156.719C59.304 156.613 59.304 156.427 59.3093 156.395C59.1659 156.597 58.8311 156.783 58.4964 156.783C57.8217 156.783 57.5348 156.385 57.5348 155.747C57.5348 155.343 57.5932 154.403 57.6145 154.159C57.6304 154.09 58.0342 154.132 58.0661 154.148C58.0661 154.302 58.0023 155.439 58.0023 155.726C58.0023 156.124 58.2042 156.358 58.5974 156.363C59.0224 156.363 59.2881 156.066 59.2987 155.689C59.304 155.513 59.3359 154.196 59.3518 154.175C59.3677 154.148 59.7768 154.159 59.7981 154.185C59.7981 154.206 59.7609 155.641 59.729 156.73Z" fill="white"/>
<g clip-path="url(#clip1_1937_13995)">
<path d="M25.9922 36.8321C25.0708 36.8433 24.1734 37.1209 23.4129 37.6297C22.6523 38.1386 22.0626 38.8561 21.718 39.6919C21.3733 40.5278 21.2891 41.4447 21.4759 42.3272C21.6627 43.2098 22.1122 44.0186 22.7678 44.6519C23.4234 45.2852 24.2558 45.7148 25.1604 45.8865C26.065 46.0582 27.0013 45.9644 27.8515 45.6169C28.7017 45.2694 29.4278 44.6838 29.9386 43.9336C30.4493 43.1834 30.7218 42.3023 30.7218 41.401C30.714 40.1817 30.2113 39.0154 29.3244 38.1585C28.4374 37.3017 27.2388 36.8246 25.9922 36.8321Z" fill="#141BEB"/>
<path d="M27.8636 39.7108C27.851 39.4824 27.908 39.2554 28.0274 39.0586H24.2147C24.1806 39.0585 24.1467 39.0649 24.1151 39.0776C24.0835 39.0903 24.0547 39.1089 24.0305 39.1325C24.0062 39.156 23.987 39.184 23.9738 39.2149C23.9606 39.2457 23.9537 39.2788 23.9536 39.3122V40.1093C23.9537 40.1427 23.9606 40.1758 23.9738 40.2066C23.987 40.2375 24.0062 40.2654 24.0305 40.289C24.0547 40.3125 24.0835 40.3312 24.1151 40.3439C24.1467 40.3565 24.1806 40.363 24.2147 40.3629H28.0274C27.908 40.1661 27.851 39.9391 27.8636 39.7107" fill="#00EDBE"/>
<path d="M23.3562 41.4095C23.3687 41.638 23.3115 41.865 23.1919 42.0616H27.0045C27.0387 42.0617 27.0725 42.0553 27.1042 42.0426C27.1358 42.0299 27.1645 42.0113 27.1888 41.9877C27.213 41.9642 27.2323 41.9362 27.2455 41.9054C27.2587 41.8745 27.2655 41.8415 27.2656 41.808V41.0109C27.2655 40.9775 27.2587 40.9444 27.2455 40.9136C27.2323 40.8828 27.213 40.8548 27.1888 40.8312C27.1645 40.8077 27.1358 40.789 27.1042 40.7763C27.0725 40.7637 27.0387 40.7572 27.0045 40.7573H23.1919C23.3113 40.9541 23.3683 41.1811 23.3556 41.4095" fill="#00EDBE"/>
<path d="M27.8636 43.1127C27.851 42.8842 27.908 42.6572 28.0274 42.4605H24.2147C24.1806 42.4603 24.1467 42.4668 24.1151 42.4795C24.0835 42.4922 24.0547 42.5108 24.0305 42.5343C24.0062 42.5579 23.987 42.5859 23.9738 42.6167C23.9606 42.6475 23.9537 42.6806 23.9536 42.714V43.5112C23.9537 43.5446 23.9606 43.5776 23.9738 43.6085C23.987 43.6393 24.0062 43.6673 24.0305 43.6908C24.0547 43.7144 24.0835 43.733 24.1151 43.7457C24.1467 43.7584 24.1806 43.7649 24.2147 43.7647H28.0274C27.908 43.568 27.851 43.341 27.8636 43.1125" fill="#00EDBE"/>
</g>
<path d="M36.016 38.9484C37.1318 38.9484 37.8597 39.6976 37.8597 40.9356C37.8597 41.8761 37.3018 42.8378 36.0319 42.8378C34.9002 42.8378 34.1935 42.0355 34.1935 40.8506C34.1935 39.8889 34.7992 38.9484 36.016 38.9484ZM36.8449 40.8665C36.8449 40.1545 36.5048 39.8145 36.0319 39.8145C35.4847 39.8145 35.1765 40.2449 35.1765 40.9037C35.1765 41.4988 35.5006 41.9664 36.0107 41.9664C36.5792 41.9664 36.8449 41.5307 36.8449 40.8665ZM39.9371 40.0908C40.5641 40.0908 41.1007 40.5583 41.1007 41.4404C41.1007 42.2905 40.5269 42.7634 39.8734 42.7687C39.5227 42.7687 39.2304 42.604 39.1879 42.5349C39.1879 42.7102 39.2092 43.8367 39.1614 43.8686C39.1136 43.9058 38.3856 43.9376 38.2847 43.8845C38.2687 43.8792 38.3006 40.1917 38.3484 40.0748C38.3537 40.0589 39.1454 40.1014 39.1454 40.1014C39.1454 40.1333 39.1401 40.3564 39.1401 40.3883C39.1773 40.3246 39.4589 40.0908 39.9371 40.0908ZM40.2028 41.451C40.2028 41.0897 39.9849 40.8984 39.698 40.8984C39.3367 40.8984 39.1667 41.1269 39.1667 41.4457C39.1667 41.7964 39.4111 42.0089 39.6768 42.0089C40.0115 42.0089 40.2028 41.7804 40.2028 41.451ZM42.2187 41.6529C42.2187 41.9345 42.4206 42.1098 42.7872 42.1098C43.0741 42.1098 43.2707 42.0089 43.4089 41.9239C43.462 41.977 43.6798 42.418 43.6851 42.4977C43.5417 42.6305 43.1751 42.8006 42.7447 42.8006C41.783 42.8006 41.3951 42.1577 41.3951 41.4776C41.3951 40.7603 41.8414 40.0908 42.6756 40.0908C43.3823 40.0908 43.8127 40.6221 43.8127 41.2172C43.8127 41.3819 43.7967 41.5201 43.7648 41.6263C43.4992 41.6635 42.5375 41.6635 42.2187 41.6529ZM42.2133 41.1641L43.0475 41.1481C43.0582 40.8878 42.9253 40.6859 42.6703 40.6859C42.394 40.6859 42.2133 40.8931 42.2133 41.1641ZM44.2054 40.1811C44.2532 40.112 44.997 40.0801 45.0449 40.128C45.0395 40.2395 45.0342 40.4149 45.0289 40.4468C45.1458 40.2714 45.4062 40.0748 45.8366 40.0748C46.4157 40.0748 46.777 40.5371 46.777 41.2225C46.777 41.5785 46.7558 42.4765 46.7345 42.7368C46.7292 42.7899 45.9322 42.7793 45.9163 42.7687C45.895 42.7581 45.9216 41.5041 45.9216 41.3128C45.9216 41.0259 45.794 40.824 45.5178 40.824C45.2255 40.824 45.0502 41.0525 45.0502 41.2597C45.0502 41.4404 45.0449 42.7156 45.0289 42.7368C45.013 42.7581 44.2372 42.7474 44.2213 42.7156C44.2107 42.6943 44.1894 41.3075 44.2054 40.1811ZM49.2283 40.8878C49.2283 41.6476 49.6959 41.9504 50.1475 41.9504C50.5779 41.9504 50.8701 41.722 50.987 41.637C51.1092 41.722 51.343 42.1523 51.428 42.333C51.1995 42.5934 50.6629 42.8484 50.0519 42.8484C48.8085 42.8484 48.2294 41.9611 48.2294 40.8506C48.2294 39.7826 48.9839 38.959 50.19 38.959C50.801 38.959 51.242 39.1503 51.4068 39.3097C51.4068 39.416 51.1836 39.9898 51.0508 40.1014C50.8595 39.9898 50.5354 39.8464 50.2006 39.8464C49.6534 39.8464 49.2283 40.2821 49.2283 40.8878ZM51.6853 40.654C51.6906 40.5637 52.0412 40.0642 52.7532 40.0642C53.4121 40.0642 53.9222 40.4521 53.9222 41.2278C53.9222 41.7964 53.8956 42.6784 53.8797 42.7102C53.8637 42.7421 53.1942 42.7102 53.1942 42.7102L53.1464 42.4818C53.1092 42.519 52.8861 42.774 52.4663 42.774C51.8872 42.774 51.6427 42.434 51.6427 41.9717C51.6427 41.4935 52.0625 41.1906 52.5938 41.1906C52.8383 41.1906 52.987 41.2597 53.088 41.3341C53.0933 41.1056 53.1039 40.7921 52.6257 40.7921C52.2963 40.7921 52.1422 41.0259 52.0944 41.0312C52.0466 41.0312 51.6799 40.7124 51.6853 40.654ZM52.3547 41.9558C52.3547 42.1311 52.5035 42.2533 52.7001 42.2533C52.9339 42.2533 53.0508 42.1152 53.0508 41.9558C53.0508 41.7698 52.8967 41.6529 52.7001 41.6529C52.4929 41.6529 52.3547 41.7857 52.3547 41.9558ZM54.4429 40.1492C54.4907 40.0695 55.2346 40.1173 55.2824 40.1652C55.2771 40.2767 55.2718 40.4202 55.2664 40.4521C55.3833 40.2767 55.5852 40.0908 56.0156 40.0908C56.3132 40.0908 56.5523 40.2395 56.6957 40.4733C56.8764 40.1545 57.2802 40.0908 57.4981 40.0908C58.1675 40.0908 58.4651 40.5318 58.4651 41.2119C58.4651 41.5732 58.4438 42.4924 58.4279 42.7421C58.4226 42.7899 57.6149 42.7899 57.599 42.774C57.5831 42.7634 57.6096 41.5466 57.6096 41.2969C57.6096 41.0365 57.5406 40.84 57.259 40.84C56.9667 40.84 56.8817 41.1269 56.8817 41.2916C56.8817 41.6741 56.8658 42.4605 56.8498 42.7262C56.8445 42.774 56.0422 42.7421 56.0316 42.7315C56.0103 42.7209 56.0369 41.4776 56.0369 41.2969C56.0369 41.0365 55.9625 40.84 55.6862 40.84C55.4099 40.84 55.293 41.0737 55.293 41.2438C55.293 41.3979 55.2824 42.7421 55.2664 42.7634C55.2505 42.7846 54.4748 42.774 54.4588 42.7421C54.4482 42.7209 54.4269 41.2756 54.4429 40.1492ZM60.6353 40.0908C61.2623 40.0908 61.7989 40.5583 61.7989 41.4404C61.7989 42.2905 61.2251 42.7634 60.5715 42.7687C60.2209 42.7687 59.9286 42.604 59.8861 42.5349C59.8861 42.7102 59.9074 43.8367 59.8595 43.8686C59.8117 43.9058 59.0838 43.9376 58.9828 43.8845C58.9669 43.8792 58.9988 40.1917 59.0466 40.0748C59.0519 40.0589 59.8436 40.1014 59.8436 40.1014C59.8436 40.1333 59.8383 40.3564 59.8383 40.3883C59.8755 40.3246 60.1571 40.0908 60.6353 40.0908ZM60.901 41.451C60.901 41.0897 60.6831 40.8984 60.3962 40.8984C60.0349 40.8984 59.8649 41.1269 59.8649 41.4457C59.8649 41.7964 60.1093 42.0089 60.3749 42.0089C60.7097 42.0089 60.901 41.7804 60.901 41.451ZM64.7074 42.7262C64.6596 42.7953 63.9689 42.774 63.9157 42.7262C63.9211 42.6146 63.9157 42.4605 63.9211 42.4233C63.8042 42.5934 63.5332 42.8165 63.1347 42.8165C62.4918 42.8165 62.1836 42.4233 62.1836 41.6795C62.1836 41.2969 62.2367 40.3883 62.2527 40.1386C62.2633 40.0855 63.0603 40.0961 63.0762 40.112C63.0869 40.1705 63.0337 41.3819 63.0337 41.5891C63.0337 41.8867 63.1612 42.0673 63.4375 42.0673C63.7298 42.0673 63.8839 41.8442 63.8892 41.6104C63.8892 41.4563 63.9104 40.1492 63.9317 40.128C63.9476 40.1067 64.7181 40.1173 64.7393 40.1492C64.7446 40.1705 64.7287 41.5944 64.7074 42.7262ZM66.2492 42.8271C65.7179 42.8271 65.2344 42.6146 65.16 42.5349C65.1175 42.4818 65.3619 41.9026 65.4044 41.9239C65.4894 41.9664 65.8188 42.2055 66.1589 42.2055C66.3714 42.2055 66.4777 42.1311 66.4777 42.0142C66.4777 41.8973 66.3927 41.8335 66.0473 41.7698C65.4522 41.6688 65.1759 41.4191 65.1759 40.9728C65.1759 40.4043 65.5638 40.0748 66.2173 40.0748C66.7062 40.0748 67.1365 40.2395 67.2056 40.3086C67.2534 40.3564 67.009 40.9143 66.9718 40.9197C66.9453 40.9197 66.6052 40.7124 66.297 40.7124C66.0898 40.7124 65.9995 40.8134 65.9995 40.9197C65.9995 41.0365 66.0898 41.0897 66.398 41.1322C67.0303 41.2225 67.3119 41.4404 67.3119 41.9345C67.3119 42.4021 66.9931 42.8271 66.2492 42.8271Z" fill="white"/>
<path d="M69.4046 39.0494C69.5747 38.9856 70.3185 39.0068 70.3504 39.0387C70.3876 39.2619 70.3823 42.3968 70.3451 42.7368C70.3132 42.8325 69.4046 42.7953 69.3993 42.7581C69.3781 42.3808 69.3621 39.5594 69.4046 39.0494ZM71.0698 42.7209C71.0432 42.4021 71.0644 39.4319 71.107 39.0387C71.2292 39.0068 71.8508 38.9962 72.2706 38.9962C73.5139 38.9962 74.2737 39.8039 74.2737 40.8825C74.2737 41.9929 73.6786 42.7953 72.2228 42.7953C71.7711 42.7953 71.1867 42.7581 71.0698 42.7209ZM73.2907 40.9303C73.2907 40.298 72.8604 39.8782 72.2812 39.8782C72.159 39.8782 72.0687 39.8836 71.9996 39.8889C72.0049 40.4999 71.989 41.2969 71.9783 41.9079C72.074 41.9239 72.1856 41.9292 72.3184 41.9292C72.7328 41.9292 73.2907 41.7964 73.2907 40.9303Z" fill="#141BEB"/>
</g>
<rect x="8.49233" y="25.237" width="78.1731" height="142.831" rx="10.1175" stroke="url(#paint0_linear_1937_13995)" stroke-width="0.518845"/>
</g>
<g filter="url(#filter1_d_1937_13995)">
<g clip-path="url(#clip2_1937_13995)">
<rect x="115.398" y="4.92871" width="78.6919" height="143.35" rx="10.0245" fill="#EFEFEF"/>
<path opacity="0.9" d="M154.226 32.9988C145.972 33.0998 137.931 35.5961 131.118 40.1735C124.304 44.7509 119.021 51.205 115.933 58.7238C112.846 66.2425 112.091 74.4901 113.764 82.429C115.438 90.3679 119.465 97.6435 125.338 103.34C131.212 109.037 138.67 112.901 146.774 114.446C154.878 115.99 163.267 115.147 170.884 112.021C178.501 108.895 185.007 103.627 189.582 96.8789C194.158 90.131 196.6 82.2049 196.6 74.0976C196.53 63.1295 192.026 52.6377 184.08 44.9304C176.133 37.223 165.395 32.9311 154.226 32.9988Z" fill="#141BEB"/>
<path d="M154.351 39.7829C147.435 39.8672 140.698 41.9516 134.989 45.7737C129.28 49.5958 124.853 54.985 122.266 61.2631C119.679 67.5413 119.047 74.428 120.449 81.057C121.851 87.686 125.225 93.761 130.146 98.5179C135.068 103.275 141.317 106.501 148.107 107.791C154.898 109.081 161.926 108.376 168.308 105.766C174.691 103.156 180.142 98.7571 183.976 93.1226C187.81 87.4881 189.855 80.8698 189.855 74.1003C189.797 64.9419 186.023 56.1813 179.365 49.7457C172.707 43.31 163.709 39.7263 154.351 39.7829Z" fill="#00EDBE"/>
<path d="M168.384 61.4096C168.289 59.6936 168.717 57.9886 169.613 56.5108H140.993C140.736 56.5099 140.482 56.5584 140.245 56.6536C140.008 56.7489 139.792 56.8889 139.61 57.0658C139.428 57.2426 139.283 57.4529 139.184 57.6844C139.085 57.916 139.034 58.1644 139.033 58.4154V64.4027C139.034 64.6537 139.085 64.9021 139.184 65.1337C139.283 65.3653 139.428 65.5755 139.61 65.7523C139.792 65.9292 140.008 66.0693 140.245 66.1645C140.482 66.2597 140.736 66.3083 140.993 66.3074H169.613C168.717 64.8295 168.289 63.1245 168.384 61.4085" fill="#141BEB"/>
<path d="M134.567 74.1953C134.66 75.9114 134.231 77.616 133.333 79.093H161.954C162.21 79.0939 162.464 79.0454 162.702 78.9501C162.939 78.8549 163.155 78.7148 163.337 78.538C163.519 78.3611 163.664 78.1509 163.763 77.9193C163.862 77.6877 163.913 77.4394 163.914 77.1883V71.2011C163.913 70.95 163.862 70.7017 163.763 70.4701C163.664 70.2385 163.519 70.0283 163.337 69.8514C163.155 69.6746 162.939 69.5345 162.702 69.4393C162.464 69.344 162.21 69.2955 161.954 69.2964H133.333C134.23 70.7743 134.657 72.4793 134.562 74.1953" fill="#141BEB"/>
<path d="M168.384 86.9814C168.289 85.2654 168.717 83.5604 169.613 82.0825H140.993C140.736 82.0816 140.482 82.1302 140.245 82.2254C140.008 82.3206 139.792 82.4607 139.61 82.6376C139.428 82.8144 139.283 83.0246 139.184 83.2562C139.085 83.4878 139.034 83.7362 139.033 83.9872V89.9744C139.034 90.2255 139.085 90.4739 139.184 90.7055C139.283 90.937 139.428 91.1473 139.61 91.3241C139.792 91.501 140.008 91.641 140.245 91.7363C140.482 91.8315 140.736 91.88 140.993 91.8791H169.613C168.717 90.4013 168.289 88.6963 168.384 86.9803" fill="#141BEB"/>
<rect x="128.212" y="128.339" width="53.4995" height="12.6067" rx="6.30335" stroke="#141BEB" stroke-width="0.501223"/>
<path d="M142.759 134.597C142.78 134.496 143.094 134.066 143.731 134.066C144.422 134.066 144.773 134.47 144.773 135.235C144.773 135.739 144.746 136.589 144.73 136.616C144.714 136.648 144.342 136.616 144.342 136.616L144.316 136.382C144.199 136.504 143.965 136.664 143.604 136.664C142.95 136.664 142.674 136.281 142.674 135.883C142.674 135.373 143.094 135.049 143.652 135.049C143.965 135.049 144.188 135.155 144.305 135.282C144.305 134.751 144.188 134.501 143.678 134.501C143.211 134.501 143.094 134.804 143.046 134.815C143.003 134.82 142.754 134.624 142.759 134.597ZM143.099 135.867C143.099 136.143 143.349 136.324 143.699 136.324C144.093 136.324 144.305 136.095 144.305 135.856C144.305 135.553 144.045 135.383 143.689 135.383C143.338 135.383 143.099 135.601 143.099 135.867ZM145.516 134.193C145.543 134.119 145.952 134.145 145.978 134.193C145.978 134.294 145.973 134.47 145.968 134.501C146.069 134.31 146.356 134.119 146.712 134.119C146.999 134.119 147.344 134.3 147.461 134.555C147.636 134.246 147.997 134.119 148.258 134.119C148.853 134.119 149.193 134.464 149.193 135.118C149.193 135.463 149.172 136.435 149.156 136.674C149.15 136.722 148.715 136.722 148.699 136.706C148.672 136.69 148.72 135.537 148.72 135.134C148.72 134.852 148.577 134.555 148.173 134.555C147.748 134.555 147.583 134.953 147.583 135.128C147.583 135.543 147.562 136.34 147.54 136.627C147.53 136.685 147.121 136.648 147.105 136.632C147.073 136.621 147.115 135.325 147.115 135.134C147.115 134.847 146.951 134.549 146.563 134.549C146.18 134.549 145.989 134.889 145.989 135.07C145.989 135.245 145.968 136.674 145.952 136.696C145.941 136.717 145.516 136.706 145.506 136.674C145.506 136.653 145.506 135.282 145.516 134.193ZM151.201 136.68C150.792 136.68 150.505 136.467 150.378 136.287C150.378 136.382 150.388 136.552 150.388 136.648C150.362 136.659 149.99 136.669 149.984 136.648C149.958 136.499 149.873 132.769 149.937 132.674C149.984 132.621 150.378 132.647 150.399 132.679C150.415 132.7 150.415 134.13 150.404 134.48C150.537 134.257 150.861 134.087 151.249 134.087C151.95 134.098 152.386 134.645 152.386 135.362C152.386 136.255 151.86 136.68 151.201 136.68ZM151.924 135.383C151.924 134.847 151.6 134.517 151.137 134.517C150.712 134.517 150.372 134.778 150.372 135.367C150.372 135.867 150.622 136.244 151.132 136.244C151.562 136.244 151.924 136.016 151.924 135.383ZM153.322 135.511C153.322 135.973 153.693 136.255 154.103 136.255C154.464 136.255 154.655 136.127 154.82 135.994C154.852 136.01 155.006 136.276 155.006 136.34C154.873 136.467 154.528 136.669 154.081 136.669C153.284 136.669 152.865 136.09 152.865 135.41C152.865 134.714 153.29 134.087 154.055 134.087C154.682 134.087 155.112 134.555 155.112 135.118C155.112 135.277 155.096 135.389 155.07 135.49C154.815 135.522 153.704 135.522 153.322 135.511ZM153.338 135.182L154.65 135.166C154.682 134.73 154.437 134.464 154.034 134.464C153.603 134.464 153.338 134.804 153.338 135.182ZM157.14 134.114C157.194 134.135 157.151 134.544 157.082 134.608C156.997 134.597 156.88 134.571 156.758 134.571C156.492 134.571 156.253 134.794 156.189 135.07C156.174 135.144 156.211 136.632 156.2 136.648C156.195 136.669 155.733 136.68 155.722 136.648C155.711 136.627 155.711 134.284 155.722 134.183C155.748 134.098 156.142 134.076 156.168 134.119C156.184 134.241 156.168 134.486 156.168 134.507C156.386 134.151 156.806 134.05 157.14 134.114ZM158.157 136.26C158.157 136.531 157.987 136.69 157.684 136.685C157.503 136.674 157.317 136.515 157.317 136.276C157.317 136 157.482 135.835 157.785 135.851C157.966 135.862 158.157 135.963 158.157 136.26ZM159.138 135.511C159.138 135.973 159.51 136.255 159.919 136.255C160.28 136.255 160.471 136.127 160.636 135.994C160.668 136.01 160.822 136.276 160.822 136.34C160.689 136.467 160.344 136.669 159.898 136.669C159.101 136.669 158.681 136.09 158.681 135.41C158.681 134.714 159.106 134.087 159.871 134.087C160.498 134.087 160.928 134.555 160.928 135.118C160.928 135.277 160.912 135.389 160.886 135.49C160.631 135.522 159.52 135.522 159.138 135.511ZM159.154 135.182L160.466 135.166C160.498 134.73 160.254 134.464 159.85 134.464C159.419 134.464 159.154 134.804 159.154 135.182ZM162.579 136.664C161.921 136.664 161.384 136.239 161.384 135.373C161.384 134.666 161.868 134.108 162.595 134.098C162.962 134.098 163.27 134.284 163.403 134.486C163.403 133.96 163.414 132.695 163.435 132.674C163.461 132.642 163.86 132.626 163.918 132.663C163.924 132.668 163.86 136.489 163.844 136.632C163.839 136.648 163.483 136.659 163.419 136.637L163.403 136.271C163.275 136.451 162.999 136.664 162.579 136.664ZM161.873 135.389C161.873 136.021 162.25 136.228 162.67 136.228C163.185 136.228 163.43 135.872 163.43 135.373C163.43 134.788 163.074 134.533 162.659 134.533C162.192 134.533 161.873 134.857 161.873 135.389ZM166.792 136.68C166.76 136.738 166.399 136.717 166.362 136.669C166.367 136.563 166.367 136.377 166.372 136.345C166.229 136.547 165.894 136.733 165.56 136.733C164.885 136.733 164.598 136.334 164.598 135.697C164.598 135.293 164.656 134.353 164.678 134.108C164.694 134.039 165.097 134.082 165.129 134.098C165.129 134.252 165.065 135.389 165.065 135.676C165.065 136.074 165.267 136.308 165.661 136.313C166.086 136.313 166.351 136.016 166.362 135.638C166.367 135.463 166.399 134.145 166.415 134.124C166.431 134.098 166.84 134.108 166.861 134.135C166.861 134.156 166.824 135.591 166.792 136.68Z" fill="#141BEB"/>
<g clip-path="url(#clip3_1937_13995)">
<path d="M133.157 16.7843C132.236 16.7955 131.338 17.073 130.578 17.5819C129.817 18.0907 129.228 18.8082 128.883 19.6441C128.538 20.4799 128.454 21.3968 128.641 22.2794C128.828 23.1619 129.277 23.9708 129.933 24.6041C130.588 25.2374 131.421 25.6669 132.325 25.8386C133.23 26.0103 134.166 25.9165 135.017 25.5691C135.867 25.2216 136.593 24.6359 137.104 23.8858C137.614 23.1356 137.887 22.2545 137.887 21.3532C137.879 20.1339 137.376 18.9675 136.489 18.1107C135.602 17.2539 134.404 16.7767 133.157 16.7843Z" fill="#00EDBE"/>
<path d="M135.03 19.6625C135.017 19.434 135.074 19.207 135.193 19.0103H131.381C131.347 19.0101 131.313 19.0166 131.281 19.0293C131.249 19.042 131.221 19.0606 131.196 19.0841C131.172 19.1077 131.153 19.1357 131.14 19.1665C131.127 19.1973 131.12 19.2304 131.12 19.2638V20.061C131.12 20.0944 131.127 20.1275 131.14 20.1583C131.153 20.1891 131.172 20.2171 131.196 20.2407C131.221 20.2642 131.249 20.2828 131.281 20.2955C131.313 20.3082 131.347 20.3147 131.381 20.3145H135.193C135.074 20.1178 135.017 19.8908 135.03 19.6623" fill="#141BEB"/>
<path d="M130.521 21.3622C130.533 21.5907 130.476 21.8176 130.356 22.0143H134.169C134.203 22.0144 134.237 22.0079 134.269 21.9952C134.3 21.9826 134.329 21.9639 134.353 21.9404C134.378 21.9168 134.397 21.8888 134.41 21.858C134.423 21.8272 134.43 21.7941 134.43 21.7607V20.9635C134.43 20.9301 134.423 20.8971 134.41 20.8662C134.397 20.8354 134.378 20.8074 134.353 20.7839C134.329 20.7603 134.3 20.7417 134.269 20.729C134.237 20.7163 134.203 20.7098 134.169 20.71H130.356C130.476 20.9067 130.533 21.1337 130.52 21.3622" fill="#141BEB"/>
<path d="M135.03 23.0648C135.017 22.8364 135.074 22.6094 135.193 22.4126H131.381C131.347 22.4125 131.313 22.4189 131.281 22.4316C131.249 22.4443 131.221 22.4629 131.196 22.4865C131.172 22.51 131.153 22.538 131.14 22.5689C131.127 22.5997 131.12 22.6328 131.12 22.6662V23.4633C131.12 23.4967 131.127 23.5298 131.14 23.5606C131.153 23.5915 131.172 23.6194 131.196 23.643C131.221 23.6665 131.249 23.6852 131.281 23.6979C131.313 23.7105 131.347 23.717 131.381 23.7169H135.193C135.074 23.5201 135.017 23.2931 135.03 23.0647" fill="#141BEB"/>
</g>
<path d="M143.181 18.9015C144.297 18.9015 145.025 19.6507 145.025 20.8887C145.025 21.8292 144.467 22.7909 143.197 22.7909C142.065 22.7909 141.359 21.9886 141.359 20.8037C141.359 19.842 141.964 18.9015 143.181 18.9015ZM144.01 20.8196C144.01 20.1077 143.67 19.7676 143.197 19.7676C142.65 19.7676 142.342 20.198 142.342 20.8568C142.342 21.4519 142.666 21.9195 143.176 21.9195C143.744 21.9195 144.01 21.4838 144.01 20.8196ZM147.102 20.0439C147.729 20.0439 148.266 20.5115 148.266 21.3935C148.266 22.2436 147.692 22.7165 147.038 22.7218C146.688 22.7218 146.395 22.5571 146.353 22.488C146.353 22.6634 146.374 23.7898 146.326 23.8217C146.279 23.8589 145.551 23.8908 145.45 23.8376C145.434 23.8323 145.466 20.1448 145.513 20.028C145.519 20.012 146.31 20.0545 146.31 20.0545C146.31 20.0864 146.305 20.3096 146.305 20.3414C146.342 20.2777 146.624 20.0439 147.102 20.0439ZM147.368 21.4041C147.368 21.0428 147.15 20.8515 146.863 20.8515C146.502 20.8515 146.332 21.08 146.332 21.3988C146.332 21.7495 146.576 21.962 146.842 21.962C147.177 21.962 147.368 21.7335 147.368 21.4041ZM149.384 21.606C149.384 21.8876 149.586 22.063 149.952 22.063C150.239 22.063 150.436 21.962 150.574 21.877C150.627 21.9301 150.845 22.3711 150.85 22.4508C150.707 22.5837 150.34 22.7537 149.91 22.7537C148.948 22.7537 148.56 22.1108 148.56 21.4307C148.56 20.7134 149.006 20.0439 149.841 20.0439C150.547 20.0439 150.978 20.5752 150.978 21.1703C150.978 21.335 150.962 21.4732 150.93 21.5795C150.664 21.6166 149.703 21.6166 149.384 21.606ZM149.378 21.1172L150.213 21.1013C150.223 20.8409 150.09 20.639 149.835 20.639C149.559 20.639 149.378 20.8462 149.378 21.1172ZM151.37 20.1342C151.418 20.0651 152.162 20.0333 152.21 20.0811C152.205 20.1927 152.199 20.368 152.194 20.3999C152.311 20.2246 152.571 20.028 153.002 20.028C153.581 20.028 153.942 20.4902 153.942 21.1756C153.942 21.5316 153.921 22.4296 153.9 22.6899C153.894 22.7431 153.097 22.7324 153.081 22.7218C153.06 22.7112 153.087 21.4572 153.087 21.266C153.087 20.979 152.959 20.7771 152.683 20.7771C152.391 20.7771 152.215 21.0056 152.215 21.2128C152.215 21.3935 152.21 22.6687 152.194 22.6899C152.178 22.7112 151.402 22.7006 151.386 22.6687C151.376 22.6474 151.354 21.2607 151.37 20.1342ZM156.393 20.8409C156.393 21.6007 156.861 21.9036 157.313 21.9036C157.743 21.9036 158.035 21.6751 158.152 21.5901C158.274 21.6751 158.508 22.1055 158.593 22.2861C158.365 22.5465 157.828 22.8015 157.217 22.8015C155.974 22.8015 155.394 21.9142 155.394 20.8037C155.394 19.7357 156.149 18.9122 157.355 18.9122C157.966 18.9122 158.407 19.1034 158.572 19.2628C158.572 19.3691 158.349 19.9429 158.216 20.0545C158.025 19.9429 157.7 19.7995 157.366 19.7995C156.818 19.7995 156.393 20.2352 156.393 20.8409ZM158.85 20.6071C158.856 20.5168 159.206 20.0173 159.918 20.0173C160.577 20.0173 161.087 20.4052 161.087 21.181C161.087 21.7495 161.061 22.6315 161.045 22.6634C161.029 22.6953 160.359 22.6634 160.359 22.6634L160.311 22.4349C160.274 22.4721 160.051 22.7271 159.631 22.7271C159.052 22.7271 158.808 22.3871 158.808 21.9248C158.808 21.4466 159.228 21.1438 159.759 21.1438C160.003 21.1438 160.152 21.2128 160.253 21.2872C160.258 21.0587 160.269 20.7453 159.791 20.7453C159.461 20.7453 159.307 20.979 159.259 20.9844C159.212 20.9844 158.845 20.6656 158.85 20.6071ZM159.52 21.9089C159.52 22.0842 159.669 22.2064 159.865 22.2064C160.099 22.2064 160.216 22.0683 160.216 21.9089C160.216 21.7229 160.062 21.606 159.865 21.606C159.658 21.606 159.52 21.7389 159.52 21.9089ZM161.608 20.1023C161.656 20.0226 162.4 20.0705 162.447 20.1183C162.442 20.2299 162.437 20.3733 162.431 20.4052C162.548 20.2299 162.75 20.0439 163.181 20.0439C163.478 20.0439 163.717 20.1927 163.861 20.4265C164.041 20.1077 164.445 20.0439 164.663 20.0439C165.333 20.0439 165.63 20.4849 165.63 21.165C165.63 21.5263 165.609 22.4455 165.593 22.6953C165.588 22.7431 164.78 22.7431 164.764 22.7271C164.748 22.7165 164.775 21.4998 164.775 21.25C164.775 20.9897 164.706 20.7931 164.424 20.7931C164.132 20.7931 164.047 21.08 164.047 21.2447C164.047 21.6273 164.031 22.4136 164.015 22.6793C164.01 22.7271 163.207 22.6953 163.197 22.6846C163.175 22.674 163.202 21.4307 163.202 21.25C163.202 20.9897 163.128 20.7931 162.851 20.7931C162.575 20.7931 162.458 21.0269 162.458 21.1969C162.458 21.351 162.447 22.6953 162.431 22.7165C162.416 22.7378 161.64 22.7271 161.624 22.6953C161.613 22.674 161.592 21.2288 161.608 20.1023ZM167.8 20.0439C168.427 20.0439 168.964 20.5115 168.964 21.3935C168.964 22.2436 168.39 22.7165 167.737 22.7218C167.386 22.7218 167.094 22.5571 167.051 22.488C167.051 22.6634 167.072 23.7898 167.025 23.8217C166.977 23.8589 166.249 23.8908 166.148 23.8376C166.132 23.8323 166.164 20.1448 166.212 20.028C166.217 20.012 167.009 20.0545 167.009 20.0545C167.009 20.0864 167.003 20.3096 167.003 20.3414C167.041 20.2777 167.322 20.0439 167.8 20.0439ZM168.066 21.4041C168.066 21.0428 167.848 20.8515 167.561 20.8515C167.2 20.8515 167.03 21.08 167.03 21.3988C167.03 21.7495 167.274 21.962 167.54 21.962C167.875 21.962 168.066 21.7335 168.066 21.4041ZM171.872 22.6793C171.825 22.7484 171.134 22.7271 171.081 22.6793C171.086 22.5677 171.081 22.4136 171.086 22.3765C170.969 22.5465 170.698 22.7696 170.3 22.7696C169.657 22.7696 169.349 22.3765 169.349 21.6326C169.349 21.25 169.402 20.3414 169.418 20.0917C169.428 20.0386 170.225 20.0492 170.241 20.0651C170.252 20.1236 170.199 21.335 170.199 21.5423C170.199 21.8398 170.326 22.0205 170.603 22.0205C170.895 22.0205 171.049 21.7973 171.054 21.5635C171.054 21.4094 171.075 20.1023 171.097 20.0811C171.113 20.0598 171.883 20.0705 171.904 20.1023C171.91 20.1236 171.894 21.5476 171.872 22.6793ZM173.414 22.7803C172.883 22.7803 172.399 22.5677 172.325 22.488C172.283 22.4349 172.527 21.8557 172.569 21.877C172.654 21.9195 172.984 22.1586 173.324 22.1586C173.536 22.1586 173.643 22.0842 173.643 21.9673C173.643 21.8504 173.558 21.7867 173.212 21.7229C172.617 21.622 172.341 21.3722 172.341 20.9259C172.341 20.3574 172.729 20.028 173.382 20.028C173.871 20.028 174.302 20.1927 174.371 20.2617C174.418 20.3096 174.174 20.8675 174.137 20.8728C174.11 20.8728 173.77 20.6656 173.462 20.6656C173.255 20.6656 173.165 20.7665 173.165 20.8728C173.165 20.9897 173.255 21.0428 173.563 21.0853C174.195 21.1756 174.477 21.3935 174.477 21.8876C174.477 22.3552 174.158 22.7803 173.414 22.7803Z" fill="#141BEB"/>
<path d="M176.57 19.0025C176.74 18.9387 177.484 18.96 177.515 18.9919C177.553 19.215 177.547 22.3499 177.51 22.6899C177.478 22.7856 176.57 22.7484 176.564 22.7112C176.543 22.3339 176.527 19.5126 176.57 19.0025ZM178.235 22.674C178.208 22.3552 178.229 19.385 178.272 18.9919C178.394 18.96 179.016 18.9493 179.436 18.9493C180.679 18.9493 181.439 19.757 181.439 20.8356C181.439 21.9461 180.844 22.7484 179.388 22.7484C178.936 22.7484 178.352 22.7112 178.235 22.674ZM180.456 20.8834C180.456 20.2511 180.025 19.8314 179.446 19.8314C179.324 19.8314 179.234 19.8367 179.165 19.842C179.17 20.453 179.154 21.25 179.143 21.8611C179.239 21.877 179.351 21.8823 179.483 21.8823C179.898 21.8823 180.456 21.7495 180.456 20.8834Z" fill="#00EDBE"/>
</g>
</g>
<g filter="url(#filter2_d_1937_13995)">
<g clip-path="url(#clip4_1937_13995)">
<rect x="61.7642" y="55.0503" width="78.6919" height="143.35" rx="10.0245" fill="#141BEB"/>
<path opacity="0.9" d="M100.587 83.118C92.3319 83.219 84.2918 85.7153 77.4782 90.2926C70.6645 94.87 65.3815 101.324 62.2937 108.843C59.2059 116.362 58.4513 124.609 60.1248 132.548C61.7984 140.487 65.8251 147.763 71.6987 153.46C77.5723 159.156 85.0304 163.02 93.1345 164.565C101.239 166.109 109.627 165.266 117.244 162.14C124.861 159.014 131.367 153.746 135.943 146.998C140.518 140.25 142.96 132.324 142.96 124.217C142.89 113.249 138.386 102.757 130.44 95.0495C122.493 87.3421 111.755 83.0502 100.587 83.118Z" fill="#00EDBE"/>
<path d="M100.713 89.904C93.796 89.9883 87.0594 92.0727 81.3503 95.8948C75.6412 99.7169 71.2147 105.106 68.6274 111.384C66.0402 117.662 65.4079 124.549 66.8101 131.178C68.2124 137.807 71.5863 143.882 76.5077 148.639C81.4292 153.396 87.6782 156.622 94.4685 157.912C101.259 159.202 108.287 158.497 114.67 155.887C121.052 153.277 126.503 148.878 130.337 143.244C134.171 137.609 136.217 130.991 136.217 124.221C136.158 115.063 132.385 106.302 125.726 99.8668C119.068 93.4311 110.07 89.8474 100.713 89.904Z" fill="#00EDBE"/>
<path d="M114.745 111.532C114.65 109.816 115.077 108.111 115.973 106.633H87.3533C87.0968 106.632 86.8426 106.68 86.6053 106.776C86.368 106.871 86.1521 107.011 85.9701 107.188C85.7881 107.365 85.6434 107.575 85.5444 107.807C85.4454 108.038 85.394 108.286 85.3931 108.537V114.525C85.394 114.776 85.4454 115.024 85.5444 115.256C85.6434 115.487 85.7881 115.698 85.9701 115.874C86.1521 116.051 86.368 116.191 86.6053 116.287C86.8426 116.382 87.0968 116.43 87.3533 116.429H115.973C115.077 114.952 114.65 113.247 114.745 111.531" fill="#141BEB"/>
<path d="M80.9338 124.314C81.0272 126.031 80.5978 127.735 79.7002 129.212H108.32C108.577 129.213 108.831 129.165 109.068 129.069C109.306 128.974 109.522 128.834 109.704 128.657C109.886 128.48 110.03 128.27 110.129 128.038C110.228 127.807 110.28 127.559 110.281 127.307V121.32C110.28 121.069 110.228 120.821 110.129 120.589C110.03 120.358 109.886 120.147 109.704 119.971C109.522 119.794 109.306 119.654 109.068 119.558C108.831 119.463 108.577 119.415 108.32 119.416H79.7002C80.5964 120.893 81.0241 122.598 80.9291 124.314" fill="#141BEB"/>
<path d="M114.745 137.1C114.65 135.384 115.077 133.679 115.973 132.201H87.3533C87.0968 132.2 86.8426 132.249 86.6053 132.344C86.368 132.439 86.1521 132.579 85.9701 132.756C85.7881 132.933 85.6434 133.143 85.5444 133.375C85.4454 133.606 85.394 133.855 85.3931 134.106V140.093C85.394 140.344 85.4454 140.593 85.5444 140.824C85.6434 141.056 85.7881 141.266 85.9701 141.443C86.1521 141.62 86.368 141.76 86.6053 141.855C86.8426 141.95 87.0968 141.999 87.3533 141.998H115.973C115.077 140.52 114.65 138.815 114.745 137.099" fill="#141BEB"/>
<rect x="71.5768" y="178.46" width="59.4995" height="12.6067" rx="6.30335" stroke="white" stroke-width="0.501223"/>
<path d="M87.6384 184.234C87.6915 184.255 87.649 184.665 87.5799 184.728C87.4949 184.718 87.378 184.691 87.2558 184.691C86.9902 184.691 86.7511 184.914 86.6874 185.191C86.6714 185.265 86.7086 186.753 86.698 186.768C86.6927 186.79 86.2304 186.8 86.2198 186.768C86.2092 186.747 86.2092 184.404 86.2198 184.303C86.2464 184.218 86.6395 184.197 86.6661 184.24C86.682 184.362 86.6661 184.606 86.6661 184.627C86.8839 184.271 87.3037 184.17 87.6384 184.234ZM88.0387 184.718C88.06 184.617 88.3734 184.186 89.011 184.186C89.7017 184.186 90.0523 184.59 90.0523 185.355C90.0523 185.86 90.0258 186.71 90.0098 186.737C89.9939 186.768 89.622 186.737 89.622 186.737L89.5954 186.503C89.4785 186.625 89.2448 186.784 88.8835 186.784C88.23 186.784 87.9537 186.402 87.9537 186.003C87.9537 185.493 88.3734 185.169 88.9313 185.169C89.2448 185.169 89.4679 185.276 89.5848 185.403C89.5848 184.872 89.4679 184.622 88.9579 184.622C88.4903 184.622 88.3734 184.925 88.3256 184.936C88.2831 184.941 88.0334 184.744 88.0387 184.718ZM88.3787 185.987C88.3787 186.264 88.6285 186.444 88.9791 186.444C89.3723 186.444 89.5848 186.216 89.5848 185.977C89.5848 185.674 89.3245 185.504 88.9685 185.504C88.6178 185.504 88.3787 185.722 88.3787 185.987ZM92.886 184.303C92.7585 184.712 91.3984 187.688 91.2496 187.943C91.1487 187.953 90.8299 187.794 90.8193 187.757C90.8352 187.666 91.2762 186.779 91.4196 186.434C91.3506 186.301 90.4633 184.431 90.4686 184.282C90.4686 184.245 90.7714 184.186 90.8511 184.186C90.9362 184.186 91.6693 185.961 91.6693 185.961C91.6693 185.961 92.4397 184.208 92.4769 184.202C92.5141 184.197 92.8648 184.271 92.886 184.303ZM93.4006 184.314C93.4272 184.24 93.8363 184.266 93.8628 184.314C93.8628 184.415 93.8575 184.59 93.8522 184.622C93.9532 184.431 94.2401 184.24 94.596 184.24C94.8829 184.24 95.2283 184.42 95.3452 184.675C95.5205 184.367 95.8818 184.24 96.1421 184.24C96.7372 184.24 97.0772 184.585 97.0772 185.238C97.0772 185.584 97.0559 186.556 97.04 186.795C97.0347 186.843 96.599 186.843 96.5831 186.827C96.5565 186.811 96.6043 185.658 96.6043 185.254C96.6043 184.973 96.4609 184.675 96.0571 184.675C95.6321 184.675 95.4674 185.074 95.4674 185.249C95.4674 185.663 95.4461 186.46 95.4249 186.747C95.4142 186.806 95.0051 186.768 94.9892 186.753C94.9573 186.742 94.9998 185.446 94.9998 185.254C94.9998 184.967 94.8351 184.67 94.4473 184.67C94.0647 184.67 93.8735 185.01 93.8735 185.191C93.8735 185.366 93.8522 186.795 93.8363 186.816C93.8257 186.838 93.4006 186.827 93.39 186.795C93.39 186.774 93.39 185.403 93.4006 184.314ZM99.6646 185.515C99.6646 184.866 99.3087 184.681 98.9049 184.675C98.3789 184.67 98.1345 185.036 98.1345 185.509C98.1345 186.104 98.4852 186.381 98.8889 186.381C99.4043 186.386 99.6646 186.067 99.6646 185.515ZM98.8943 184.213C99.6009 184.213 100.127 184.659 100.127 185.525C100.127 186.243 99.7018 186.795 98.9049 186.811C98.1929 186.811 97.6723 186.322 97.6723 185.488C97.6723 184.845 98.1079 184.213 98.8943 184.213ZM100.758 184.298C100.784 184.25 101.193 184.218 101.22 184.266C101.22 184.367 101.215 184.574 101.209 184.606C101.31 184.415 101.672 184.197 102.022 184.197C102.57 184.197 102.984 184.595 102.984 185.276C102.984 185.6 102.963 186.498 102.941 186.784C102.931 186.843 102.522 186.816 102.506 186.8C102.474 186.79 102.511 185.525 102.511 185.291C102.511 184.93 102.299 184.633 101.905 184.633C101.486 184.633 101.215 184.936 101.215 185.244C101.215 185.483 101.209 186.715 101.193 186.737C101.183 186.758 100.758 186.747 100.747 186.715C100.747 186.694 100.747 185.382 100.758 184.298ZM104.767 186.784C104.108 186.784 103.572 186.359 103.572 185.493C103.572 184.787 104.055 184.229 104.783 184.218C105.149 184.218 105.458 184.404 105.59 184.606C105.59 184.08 105.601 182.816 105.622 182.794C105.649 182.763 106.047 182.747 106.106 182.784C106.111 182.789 106.047 186.609 106.031 186.753C106.026 186.768 105.67 186.779 105.606 186.758L105.59 186.391C105.463 186.572 105.187 186.784 104.767 186.784ZM104.06 185.509C104.06 186.142 104.438 186.349 104.857 186.349C105.373 186.349 105.617 185.993 105.617 185.493C105.617 184.909 105.261 184.654 104.847 184.654C104.379 184.654 104.06 184.978 104.06 185.509ZM107.577 186.381C107.577 186.652 107.407 186.811 107.104 186.806C106.924 186.795 106.738 186.636 106.738 186.397C106.738 186.12 106.902 185.956 107.205 185.972C107.386 185.982 107.577 186.083 107.577 186.381ZM108.558 185.632C108.558 186.094 108.93 186.375 109.339 186.375C109.7 186.375 109.892 186.248 110.056 186.115C110.088 186.131 110.242 186.397 110.242 186.46C110.109 186.588 109.764 186.79 109.318 186.79C108.521 186.79 108.101 186.211 108.101 185.531C108.101 184.835 108.526 184.208 109.291 184.208C109.918 184.208 110.348 184.675 110.348 185.238C110.348 185.398 110.332 185.509 110.306 185.61C110.051 185.642 108.94 185.642 108.558 185.632ZM108.574 185.302L109.886 185.286C109.918 184.851 109.674 184.585 109.27 184.585C108.84 184.585 108.574 184.925 108.574 185.302ZM112 186.784C111.341 186.784 110.804 186.359 110.804 185.493C110.804 184.787 111.288 184.229 112.016 184.218C112.382 184.218 112.69 184.404 112.823 184.606C112.823 184.08 112.834 182.816 112.855 182.794C112.882 182.763 113.28 182.747 113.338 182.784C113.344 182.789 113.28 186.609 113.264 186.753C113.259 186.768 112.903 186.779 112.839 186.758L112.823 186.391C112.696 186.572 112.419 186.784 112 186.784ZM111.293 185.509C111.293 186.142 111.67 186.349 112.09 186.349C112.605 186.349 112.85 185.993 112.85 185.493C112.85 184.909 112.494 184.654 112.079 184.654C111.612 184.654 111.293 184.978 111.293 185.509ZM116.212 186.8C116.18 186.859 115.819 186.838 115.782 186.79C115.787 186.683 115.787 186.498 115.793 186.466C115.649 186.668 115.314 186.854 114.98 186.854C114.305 186.854 114.018 186.455 114.018 185.817C114.018 185.414 114.077 184.473 114.098 184.229C114.114 184.16 114.518 184.202 114.549 184.218C114.549 184.372 114.486 185.509 114.486 185.796C114.486 186.195 114.688 186.428 115.081 186.434C115.506 186.434 115.771 186.136 115.782 185.759C115.787 185.584 115.819 184.266 115.835 184.245C115.851 184.218 116.26 184.229 116.281 184.255C116.281 184.277 116.244 185.711 116.212 186.8Z" fill="white"/>
<g clip-path="url(#clip5_1937_13995)">
<path d="M79.5327 66.9019C78.6113 66.9132 77.7139 67.1907 76.9534 67.6995C76.1928 68.2084 75.6032 68.9259 75.2585 69.7618C74.9139 70.5976 74.8296 71.5145 75.0164 72.397C75.2032 73.2796 75.6527 74.0884 76.3083 74.7217C76.9639 75.3551 77.7963 75.7846 78.7009 75.9563C79.6055 76.128 80.5418 76.0342 81.392 75.6867C82.2422 75.3392 82.9684 74.7536 83.4791 74.0034C83.9898 73.2533 84.2624 72.3721 84.2624 71.4709C84.2546 70.2515 83.7519 69.0852 82.8649 68.2284C81.9779 67.3715 80.7793 66.8944 79.5327 66.9019Z" fill="#00EDBE"/>
<path d="M81.3988 69.7811C81.3861 69.5527 81.4431 69.3257 81.5625 69.1289H77.7499C77.7157 69.1288 77.6819 69.1353 77.6503 69.1479C77.6186 69.1606 77.5899 69.1793 77.5656 69.2028C77.5414 69.2263 77.5221 69.2543 77.5089 69.2852C77.4957 69.316 77.4889 69.3491 77.4888 69.3825V70.1796C77.4889 70.213 77.4957 70.2461 77.5089 70.2769C77.5221 70.3078 77.5414 70.3358 77.5656 70.3593C77.5899 70.3829 77.6186 70.4015 77.6503 70.4142C77.6819 70.4269 77.7157 70.4333 77.7499 70.4332H81.5625C81.4431 70.2364 81.3861 70.0094 81.3988 69.781" fill="#141BEB"/>
<path d="M76.8953 71.4808C76.9077 71.7093 76.8505 71.9363 76.731 72.1329H80.5436C80.5777 72.133 80.6116 72.1266 80.6432 72.1139C80.6748 72.1012 80.7036 72.0826 80.7278 72.059C80.7521 72.0355 80.7713 72.0075 80.7845 71.9766C80.7977 71.9458 80.8046 71.9127 80.8047 71.8793V71.0822C80.8046 71.0488 80.7977 71.0157 80.7845 70.9849C80.7713 70.954 80.7521 70.9261 80.7278 70.9025C80.7036 70.879 80.6748 70.8603 80.6432 70.8476C80.6116 70.835 80.5777 70.8285 80.5436 70.8286H76.731C76.8503 71.0254 76.9073 71.2524 76.8947 71.4808" fill="#141BEB"/>
<path d="M81.3988 73.1825C81.3861 72.954 81.4431 72.727 81.5625 72.5303H77.7499C77.7157 72.5302 77.6819 72.5366 77.6503 72.5493C77.6186 72.562 77.5899 72.5806 77.5656 72.6042C77.5414 72.6277 77.5221 72.6557 77.5089 72.6865C77.4957 72.7174 77.4889 72.7504 77.4888 72.7839V73.581C77.4889 73.6144 77.4957 73.6475 77.5089 73.6783C77.5221 73.7091 77.5414 73.7371 77.5656 73.7607C77.5899 73.7842 77.6186 73.8029 77.6503 73.8155C77.6819 73.8282 77.7157 73.8347 77.7499 73.8346H81.5625C81.4431 73.6378 81.3861 73.4108 81.3988 73.1823" fill="#141BEB"/>
</g>
<path d="M89.5526 69.0212C90.6684 69.0212 91.3964 69.7703 91.3964 71.0083C91.3964 71.9488 90.8384 72.9105 89.5686 72.9105C88.4368 72.9105 87.7301 72.1082 87.7301 70.9233C87.7301 69.9616 88.3359 69.0212 89.5526 69.0212ZM90.3815 70.9393C90.3815 70.2273 90.0414 69.8872 89.5686 69.8872C89.0213 69.8872 88.7131 70.3176 88.7131 70.9765C88.7131 71.5716 89.0372 72.0391 89.5473 72.0391C90.1158 72.0391 90.3815 71.6034 90.3815 70.9393ZM93.4737 70.1635C94.1007 70.1635 94.6374 70.6311 94.6374 71.5131C94.6374 72.3632 94.0635 72.8361 93.41 72.8415C93.0593 72.8415 92.7671 72.6767 92.7246 72.6077C92.7246 72.783 92.7458 73.9094 92.698 73.9413C92.6502 73.9785 91.9222 74.0104 91.8213 73.9573C91.8054 73.9519 91.8372 70.2645 91.8851 70.1476C91.8904 70.1316 92.6821 70.1742 92.6821 70.1742C92.6821 70.206 92.6767 70.4292 92.6767 70.4611C92.7139 70.3973 92.9955 70.1635 93.4737 70.1635ZM93.7394 71.5237C93.7394 71.1624 93.5216 70.9712 93.2346 70.9712C92.8733 70.9712 92.7033 71.1996 92.7033 71.5184C92.7033 71.8691 92.9477 72.0816 93.2134 72.0816C93.5481 72.0816 93.7394 71.8532 93.7394 71.5237ZM95.7553 71.7256C95.7553 72.0073 95.9572 72.1826 96.3238 72.1826C96.6107 72.1826 96.8073 72.0816 96.9455 71.9966C96.9986 72.0498 97.2165 72.4908 97.2218 72.5705C97.0783 72.7033 96.7117 72.8733 96.2813 72.8733C95.3196 72.8733 94.9317 72.2304 94.9317 71.5503C94.9317 70.833 95.378 70.1635 96.2122 70.1635C96.9189 70.1635 97.3493 70.6949 97.3493 71.29C97.3493 71.4547 97.3333 71.5928 97.3015 71.6991C97.0358 71.7363 96.0741 71.7363 95.7553 71.7256ZM95.75 71.2368L96.5842 71.2209C96.5948 70.9605 96.462 70.7586 96.2069 70.7586C95.9306 70.7586 95.75 70.9658 95.75 71.2368ZM97.742 70.2539C97.7898 70.1848 98.5337 70.1529 98.5815 70.2007C98.5762 70.3123 98.5709 70.4876 98.5655 70.5195C98.6824 70.3442 98.9428 70.1476 99.3732 70.1476C99.9523 70.1476 100.314 70.6098 100.314 71.2953C100.314 71.6513 100.292 72.5492 100.271 72.8096C100.266 72.8627 99.4688 72.8521 99.4529 72.8415C99.4316 72.8308 99.4582 71.5769 99.4582 71.3856C99.4582 71.0987 99.3307 70.8968 99.0544 70.8968C98.7621 70.8968 98.5868 71.1252 98.5868 71.3325C98.5868 71.5131 98.5815 72.7883 98.5655 72.8096C98.5496 72.8308 97.7739 72.8202 97.7579 72.7883C97.7473 72.7671 97.726 71.3803 97.742 70.2539ZM102.765 70.9605C102.765 71.7203 103.232 72.0232 103.684 72.0232C104.115 72.0232 104.407 71.7947 104.524 71.7097C104.646 71.7947 104.88 72.2251 104.965 72.4058C104.736 72.6661 104.2 72.9212 103.588 72.9212C102.345 72.9212 101.766 72.0338 101.766 70.9233C101.766 69.8554 102.52 69.0318 103.727 69.0318C104.338 69.0318 104.779 69.2231 104.943 69.3825C104.943 69.4887 104.72 70.0626 104.587 70.1742C104.396 70.0626 104.072 69.9191 103.737 69.9191C103.19 69.9191 102.765 70.3548 102.765 70.9605ZM105.222 70.7267C105.227 70.6364 105.578 70.137 106.29 70.137C106.949 70.137 107.459 70.5248 107.459 71.3006C107.459 71.8691 107.432 72.7511 107.416 72.783C107.4 72.8149 106.731 72.783 106.731 72.783L106.683 72.5545C106.646 72.5917 106.423 72.8468 106.003 72.8468C105.424 72.8468 105.179 72.5067 105.179 72.0444C105.179 71.5662 105.599 71.2634 106.13 71.2634C106.375 71.2634 106.524 71.3325 106.625 71.4068C106.63 71.1784 106.641 70.8649 106.162 70.8649C105.833 70.8649 105.679 71.0987 105.631 71.104C105.583 71.104 105.217 70.7852 105.222 70.7267ZM105.891 72.0285C105.891 72.2038 106.04 72.3261 106.237 72.3261C106.471 72.3261 106.587 72.1879 106.587 72.0285C106.587 71.8425 106.433 71.7256 106.237 71.7256C106.03 71.7256 105.891 71.8585 105.891 72.0285ZM107.98 70.222C108.027 70.1423 108.771 70.1901 108.819 70.2379C108.814 70.3495 108.808 70.493 108.803 70.5248C108.92 70.3495 109.122 70.1635 109.552 70.1635C109.85 70.1635 110.089 70.3123 110.232 70.5461C110.413 70.2273 110.817 70.1635 111.035 70.1635C111.704 70.1635 112.002 70.6045 112.002 71.2846C112.002 71.6459 111.98 72.5652 111.965 72.8149C111.959 72.8627 111.152 72.8627 111.136 72.8468C111.12 72.8361 111.146 71.6194 111.146 71.3697C111.146 71.1093 111.077 70.9127 110.796 70.9127C110.503 70.9127 110.418 71.1996 110.418 71.3643C110.418 71.7469 110.402 72.5333 110.386 72.7989C110.381 72.8468 109.579 72.8149 109.568 72.8043C109.547 72.7936 109.574 71.5503 109.574 71.3697C109.574 71.1093 109.499 70.9127 109.223 70.9127C108.947 70.9127 108.83 71.1465 108.83 71.3165C108.83 71.4706 108.819 72.8149 108.803 72.8361C108.787 72.8574 108.011 72.8468 107.995 72.8149C107.985 72.7936 107.964 71.3484 107.98 70.222ZM114.172 70.1635C114.799 70.1635 115.336 70.6311 115.336 71.5131C115.336 72.3632 114.762 72.8361 114.108 72.8415C113.757 72.8415 113.465 72.6767 113.423 72.6077C113.423 72.783 113.444 73.9094 113.396 73.9413C113.348 73.9785 112.62 74.0104 112.519 73.9573C112.504 73.9519 112.535 70.2645 112.583 70.1476C112.589 70.1316 113.38 70.1742 113.38 70.1742C113.38 70.206 113.375 70.4292 113.375 70.4611C113.412 70.3973 113.694 70.1635 114.172 70.1635ZM114.438 71.5237C114.438 71.1624 114.22 70.9712 113.933 70.9712C113.572 70.9712 113.401 71.1996 113.401 71.5184C113.401 71.8691 113.646 72.0816 113.912 72.0816C114.246 72.0816 114.438 71.8532 114.438 71.5237ZM118.244 72.7989C118.196 72.868 117.505 72.8468 117.452 72.7989C117.458 72.6874 117.452 72.5333 117.458 72.4961C117.341 72.6661 117.07 72.8893 116.671 72.8893C116.028 72.8893 115.72 72.4961 115.72 71.7522C115.72 71.3697 115.773 70.4611 115.789 70.2113C115.8 70.1582 116.597 70.1688 116.613 70.1848C116.623 70.2432 116.57 71.4547 116.57 71.6619C116.57 71.9594 116.698 72.1401 116.974 72.1401C117.266 72.1401 117.42 71.9169 117.426 71.6831C117.426 71.5291 117.447 70.222 117.468 70.2007C117.484 70.1795 118.255 70.1901 118.276 70.222C118.281 70.2432 118.265 71.6672 118.244 72.7989ZM119.786 72.8999C119.254 72.8999 118.771 72.6874 118.697 72.6077C118.654 72.5545 118.899 71.9754 118.941 71.9966C119.026 72.0391 119.355 72.2782 119.696 72.2782C119.908 72.2782 120.014 72.2038 120.014 72.087C120.014 71.9701 119.929 71.9063 119.584 71.8425C118.989 71.7416 118.713 71.4919 118.713 71.0455C118.713 70.477 119.1 70.1476 119.754 70.1476C120.243 70.1476 120.673 70.3123 120.742 70.3814C120.79 70.4292 120.546 70.9871 120.508 70.9924C120.482 70.9924 120.142 70.7852 119.834 70.7852C119.626 70.7852 119.536 70.8861 119.536 70.9924C119.536 71.1093 119.626 71.1624 119.935 71.2049C120.567 71.2953 120.849 71.5131 120.849 72.0073C120.849 72.4748 120.53 72.8999 119.786 72.8999Z" fill="white"/>
<path d="M122.941 69.1221C123.111 69.0583 123.855 69.0796 123.887 69.1115C123.924 69.3346 123.919 72.4695 123.882 72.8096C123.85 72.9052 122.941 72.868 122.936 72.8308C122.915 72.4536 122.899 69.6322 122.941 69.1221ZM124.606 72.7936C124.58 72.4748 124.601 69.5047 124.644 69.1115C124.766 69.0796 125.387 69.069 125.807 69.069C127.051 69.069 127.81 69.8766 127.81 70.9552C127.81 72.0657 127.215 72.868 125.759 72.868C125.308 72.868 124.723 72.8308 124.606 72.7936ZM126.827 71.003C126.827 70.3707 126.397 69.951 125.818 69.951C125.696 69.951 125.605 69.9563 125.536 69.9616C125.542 70.5727 125.526 71.3697 125.515 71.9807C125.611 71.9966 125.722 72.0019 125.855 72.0019C126.269 72.0019 126.827 71.8691 126.827 71.003Z" fill="#00EDBE"/>
</g>
</g>
<defs>
<filter id="filter0_d_1937_13995" x="0.0480499" y="20.0666" width="95.0616" height="159.719" filterUnits="userSpaceOnUse" color-interpolation-filters="sRGB">
<feFlood flood-opacity="0" result="BackgroundImageFix"/>
<feColorMatrix in="SourceAlpha" type="matrix" values="0 0 0 0 0 0 0 0 0 0 0 0 0 0 0 0 0 0 127 0" result="hardAlpha"/>
<feOffset dy="3.27394"/>
<feGaussianBlur stdDeviation="4.09243"/>
<feComposite in2="hardAlpha" operator="out"/>
<feColorMatrix type="matrix" values="0 0 0 0 0 0 0 0 0 0 0 0 0 0 0 0 0 0 0.25 0"/>
<feBlend mode="normal" in2="BackgroundImageFix" result="effect1_dropShadow_1937_13995"/>
<feBlend mode="normal" in="SourceGraphic" in2="effect1_dropShadow_1937_13995" result="shape"/>
</filter>
<filter id="filter1_d_1937_13995" x="107.213" y="0.0177946" width="95.0616" height="159.719" filterUnits="userSpaceOnUse" color-interpolation-filters="sRGB">
<feFlood flood-opacity="0" result="BackgroundImageFix"/>
<feColorMatrix in="SourceAlpha" type="matrix" values="0 0 0 0 0 0 0 0 0 0 0 0 0 0 0 0 0 0 127 0" result="hardAlpha"/>
<feOffset dy="3.27394"/>
<feGaussianBlur stdDeviation="4.09243"/>
<feComposite in2="hardAlpha" operator="out"/>
<feColorMatrix type="matrix" values="0 0 0 0 0 0 0 0 0 0 0 0 0 0 0 0 0 0 0.25 0"/>
<feBlend mode="normal" in2="BackgroundImageFix" result="effect1_dropShadow_1937_13995"/>
<feBlend mode="normal" in="SourceGraphic" in2="effect1_dropShadow_1937_13995" result="shape"/>
</filter>
<filter id="filter2_d_1937_13995" x="53.5793" y="50.1394" width="95.0616" height="159.719" filterUnits="userSpaceOnUse" color-interpolation-filters="sRGB">
<feFlood flood-opacity="0" result="BackgroundImageFix"/>
<feColorMatrix in="SourceAlpha" type="matrix" values="0 0 0 0 0 0 0 0 0 0 0 0 0 0 0 0 0 0 127 0" result="hardAlpha"/>
<feOffset dy="3.27394"/>
<feGaussianBlur stdDeviation="4.09243"/>
<feComposite in2="hardAlpha" operator="out"/>
<feColorMatrix type="matrix" values="0 0 0 0 0 0 0 0 0 0 0 0 0 0 0 0 0 0 0.25 0"/>
<feBlend mode="normal" in2="BackgroundImageFix" result="effect1_dropShadow_1937_13995"/>
<feBlend mode="normal" in="SourceGraphic" in2="effect1_dropShadow_1937_13995" result="shape"/>
</filter>
<linearGradient id="paint0_linear_1937_13995" x1="11.1166" y1="26.3686" x2="73.0806" y2="175.582" gradientUnits="userSpaceOnUse">
<stop stop-color="#11F0C4"/>
<stop offset="1" stop-color="#343434" stop-opacity="0.29"/>
</linearGradient>
<clipPath id="clip0_1937_13995">
<rect x="8.23291" y="24.9775" width="78.692" height="143.35" rx="10.3769" fill="white"/>
</clipPath>
<clipPath id="clip1_1937_13995">
<rect width="9.4595" height="9.13764" fill="white" transform="translate(21.2646 36.8291)"/>
</clipPath>
<clipPath id="clip2_1937_13995">
<rect x="115.398" y="4.92871" width="78.6919" height="143.35" rx="10.0245" fill="white"/>
</clipPath>
<clipPath id="clip3_1937_13995">
<rect width="9.4595" height="9.13764" fill="white" transform="translate(128.43 16.7822)"/>
</clipPath>
<clipPath id="clip4_1937_13995">
<rect x="61.7642" y="55.0503" width="78.6919" height="143.35" rx="10.0245" fill="white"/>
</clipPath>
<clipPath id="clip5_1937_13995">
<rect width="9.4595" height="9.13764" fill="white" transform="translate(74.8013 66.9019)"/>
</clipPath>
</defs>
</svg>
