<svg width="38" height="35" viewBox="0 0 38 35" fill="none" xmlns="http://www.w3.org/2000/svg">
<path fill-rule="evenodd" clip-rule="evenodd" d="M7.5404 0.875C3.55757 0.875 0.328857 4.10432 0.328857 8.0879V10.0113V27.3223C0.328857 31.3059 3.55757 34.5352 7.5404 34.5352H30.6173C34.6002 34.5352 37.8289 31.3059 37.8289 27.3223V10.0113V8.0879C37.8289 4.10432 34.6002 0.875 30.6173 0.875H7.5404ZM34.6981 6.64532H34.4635H3.69424H3.45968C4.05368 4.96443 5.65643 3.76016 7.5404 3.76016H30.6173C32.5014 3.76016 34.104 4.96443 34.6981 6.64532ZM12.719 14.3527C12.5152 13.7609 11.953 13.3679 11.3273 13.3802C10.7015 13.3924 10.1551 13.8069 9.97445 14.4062L6.51292 25.8918C6.28301 26.6547 6.71491 27.4594 7.47759 27.6895C8.24024 27.9193 9.04488 27.4873 9.27478 26.7245L9.95928 24.4533H13.147L13.9478 26.7782C14.2072 27.5314 15.0281 27.9316 15.7812 27.6722C16.5342 27.4127 16.9346 26.5916 16.675 25.8384L12.719 14.3527ZM12.1533 21.5681H10.8288L11.4469 19.5172L12.1533 21.5681ZM19.8902 13.3799C19.0937 13.3799 18.4479 14.0258 18.4479 14.8224V21.9667V26.2533C18.4479 27.0499 19.0937 27.6958 19.8902 27.6958C20.6867 27.6958 21.3325 27.0499 21.3325 26.2533V23.4093C24.0952 23.4019 26.3325 21.1596 26.3325 18.3947C26.3325 15.6251 24.0877 13.3799 21.3187 13.3799H19.8902ZM23.4479 18.3947C23.4479 17.2231 22.5019 16.2725 21.3325 16.2652V20.5241C22.5019 20.5168 23.4479 19.5662 23.4479 18.3947ZM30.9085 14.7676C30.9085 13.9709 30.2627 13.325 29.4662 13.325C28.6696 13.325 28.0239 13.9709 28.0239 14.7676V26.3083C28.0239 27.105 28.6696 27.7508 29.4662 27.7508C30.2627 27.7508 30.9085 27.105 30.9085 26.3083V14.7676Z" fill="#9498ED"/>
</svg>
