<svg width="36" height="36" viewBox="0 0 36 36" fill="none" xmlns="http://www.w3.org/2000/svg">
<path d="M31.5017 12.9801C31.8508 13.578 31.3729 14.2668 30.6806 14.2668H4.41699C3.86471 14.2668 3.41699 13.819 3.41699 13.2668V10.1397C3.41699 6.58135 6.30449 3.69385 9.86283 3.69385H13.2462C15.6232 3.69385 16.367 4.46676 17.3149 5.73551L19.3566 8.44801C19.8087 9.04593 19.867 9.11885 20.7128 9.11885H24.7816C27.6462 9.11885 30.1523 10.669 31.5017 12.9801Z" fill="#A093FA"/>
<path d="M32.5579 17.4507C32.556 16.8998 32.1088 16.4541 31.5579 16.4541L4.41697 16.4546C3.8647 16.4546 3.41699 16.9023 3.41699 17.4546V25.0588C3.41699 29.3609 6.91699 32.8609 11.2191 32.8609H24.7816C29.0837 32.8609 32.5837 29.3609 32.5837 25.0588L32.5579 17.4507ZM21.6462 25.2046H19.1816V27.7567C19.1816 28.3546 18.6857 28.8504 18.0878 28.8504C17.4753 28.8504 16.9941 28.3546 16.9941 27.7567V25.2046H14.3545C13.7566 25.2046 13.2607 24.7088 13.2607 24.1109C13.2607 23.513 13.7566 23.0171 14.3545 23.0171H16.9941V20.465C16.9941 19.8671 17.4753 19.3713 18.0878 19.3713C18.6857 19.3713 19.1816 19.8671 19.1816 20.465V23.0171H21.6462C22.2441 23.0171 22.7399 23.513 22.7399 24.1109C22.7399 24.7088 22.2441 25.2046 21.6462 25.2046Z" fill="#A093FA"/>
</svg>
