<svg width="54" height="31" viewBox="0 0 54 31" fill="none" xmlns="http://www.w3.org/2000/svg">
<path d="M30.7585 15.7771C30.7585 24.0614 24.0885 30.7773 15.8605 30.7773C7.63239 30.7773 0.962891 24.0634 0.962891 15.7771C0.962891 7.4909 7.63291 0.777344 15.8605 0.777344C24.0881 0.777344 30.7585 7.49286 30.7585 15.7771ZM47.1018 15.7771C47.1018 23.5757 43.7666 29.8972 39.6529 29.8972C35.539 29.8972 32.2038 23.5737 32.2038 15.7771C32.2038 7.98055 35.539 1.65708 39.6529 1.65708C43.7666 1.65708 47.1018 7.98055 47.1018 15.7771ZM53.7865 15.7771C53.7865 22.7642 52.6135 28.428 51.1666 28.428C49.7198 28.428 48.5467 22.7623 48.5467 15.7771C48.5467 8.79199 49.7198 3.12614 51.1671 3.12614C52.6144 3.12614 53.7865 8.79044 53.7865 15.7771Z" fill="#181B1F"/>
</svg>
