<svg width="54" height="31" viewBox="0 0 54 31" fill="none" xmlns="http://www.w3.org/2000/svg">
<path d="M30.2588 15.7742C30.2588 24.0585 23.5887 30.7744 15.3607 30.7744C7.13263 30.7744 0.463135 24.0605 0.463135 15.7742C0.463135 7.48797 7.13315 0.774414 15.3607 0.774414C23.5883 0.774414 30.2588 7.48993 30.2588 15.7742ZM46.6021 15.7742C46.6021 23.5728 43.2669 29.8943 39.1531 29.8943C35.0393 29.8943 31.7041 23.5708 31.7041 15.7742C31.7041 7.97762 35.0393 1.65415 39.1531 1.65415C43.2669 1.65415 46.6021 7.97762 46.6021 15.7742ZM53.2868 15.7742C53.2868 22.7613 52.1137 28.4251 50.6668 28.4251C49.2201 28.4251 48.0469 22.7594 48.0469 15.7742C48.0469 8.78906 49.2201 3.12321 50.6673 3.12321C52.1146 3.12321 53.2868 8.78751 53.2868 15.7742Z" fill="#DDDDDD"/>
</svg>
