<svg width="28" height="36" viewBox="0 0 28 36" fill="none" xmlns="http://www.w3.org/2000/svg">
<g clip-path="url(#clip0_3392_8420)">
<path fill-rule="evenodd" clip-rule="evenodd" d="M25.4899 33.5956V13.8652C25.4899 7.25245 20.145 1.89174 13.5513 1.89174C6.95777 1.89174 1.61264 7.25245 1.61264 13.8652V33.5956C1.61264 33.6329 1.64267 33.663 1.67971 33.663H25.423C25.46 33.663 25.4899 33.6329 25.4899 33.5956ZM13.5513 0.277344C6.06875 0.277344 0.00292969 6.36084 0.00292969 13.8652V33.5956C0.00292969 34.5244 0.753649 35.2773 1.67971 35.2773H25.423C26.349 35.2773 27.0997 34.5244 27.0997 33.5956V13.8652C27.0997 6.36084 21.034 0.277344 13.5513 0.277344Z" fill="#007AFF"/>
</g>
<defs>
<clipPath id="clip0_3392_8420">
<rect width="27.2432" height="35" fill="white" transform="translate(0.00292969 0.277344)"/>
</clipPath>
</defs>
</svg>
