<svg width="38" height="40" viewBox="0 0 38 40" fill="none" xmlns="http://www.w3.org/2000/svg">
<path fill-rule="evenodd" clip-rule="evenodd" d="M6.5915 7.25591C7.80735 8.24375 8.26348 8.16838 10.5467 8.01604L32.0713 6.72358C32.5278 6.72358 32.1482 6.26815 31.9959 6.19248L28.4212 3.60819C27.7362 3.0764 26.8236 2.46739 25.0746 2.61974L4.23231 4.1399C3.47218 4.21527 3.32037 4.59533 3.62307 4.89995L6.5915 7.25591ZM7.8838 12.2722V34.9199C7.8838 36.137 8.49203 36.5924 9.86101 36.5171L33.5165 35.1483C34.8862 35.073 35.0388 34.2358 35.0388 33.247V10.7514C35.0388 9.76423 34.659 9.23189 33.8206 9.30787L9.10035 10.7514C8.18803 10.828 7.8838 11.2844 7.8838 12.2722ZM31.2365 13.4871C31.3881 14.1718 31.2365 14.8558 30.5505 14.9328L29.4108 15.1599V31.8798C28.4212 32.4117 27.5086 32.7158 26.7482 32.7158C25.5307 32.7158 25.2258 32.3355 24.3139 31.1961L16.8585 19.4921V30.8161L19.2176 31.3484C19.2176 31.3484 19.2176 32.7158 17.3143 32.7158L12.0671 33.0202C11.9147 32.7158 12.0671 31.9564 12.5993 31.8043L13.9686 31.4248V16.4523L12.0675 16.2999C11.915 15.6153 12.2947 14.628 13.3604 14.5514L18.9894 14.172L26.7482 26.0284V15.5399L24.77 15.3129C24.6182 14.4758 25.2258 13.8681 25.9865 13.7927L31.2365 13.4871ZM2.48235 2.08802L24.1617 0.491487C26.8239 0.263158 27.5089 0.41612 29.1822 1.63159L36.1025 6.49556C37.2444 7.33197 37.625 7.55969 37.625 8.47146V35.1483C37.625 36.8202 37.0159 37.8089 34.8866 37.9602L9.71035 39.4805C8.1119 39.5567 7.35116 39.3289 6.51406 38.2643L1.41784 31.6522C0.504754 30.435 0.125 29.5245 0.125 28.4592V4.74706C0.125 3.37986 0.734236 2.23937 2.48235 2.08802Z" fill="black"/>
</svg>
