<svg width="30" height="38" viewBox="0 0 30 38" fill="none" xmlns="http://www.w3.org/2000/svg">
<path d="M28.3424 6.53003L23.1714 1.74879C22.2341 0.858151 21 0.373779 19.7033 0.373779H5.19047C2.37843 0.373779 0.0820312 2.67061 0.0820312 5.48318V32.7644C0.0820312 35.5769 2.37843 37.8738 5.19047 37.8738H24.8586C27.6705 37.8738 29.967 35.5769 29.967 32.7644V10.28C29.967 8.85814 29.3734 7.49878 28.3424 6.53003ZM9.9239 13.2175C14.1473 8.9933 14.0007 9.11901 14.1575 9.01435C14.4074 8.8425 14.7199 8.74876 15.0167 8.74876H15.0323C15.4385 8.74876 15.8291 8.92061 16.1259 9.20194C17.754 10.8367 20.2888 13.3819 20.1251 13.2175C20.7343 13.8269 20.7343 14.8113 20.1251 15.4207C19.5159 16.0301 18.5317 16.0301 17.9224 15.4207L16.5945 14.0925V19.6082C16.5945 20.4831 15.8915 21.1707 15.0323 21.1707C14.1575 21.1707 13.4701 20.4831 13.4701 19.6082V14.0925L12.1267 15.4363C11.5421 16.021 10.5453 16.0578 9.9239 15.4363C9.31462 14.8269 9.31462 13.8269 9.9239 13.2175ZM21.0781 29.4988H8.97098C8.11178 29.4988 7.40877 28.7957 7.40877 27.9363C7.40877 27.0769 8.11178 26.3738 8.97098 26.3738H21.0781C21.9373 26.3738 22.6403 27.0769 22.6403 27.9363C22.6403 28.7957 21.9373 29.4988 21.0781 29.4988Z" fill="#9498ED"/>
</svg>
