<svg width="49" height="49" viewBox="0 0 49 49" fill="none" xmlns="http://www.w3.org/2000/svg">
<g clip-path="url(#clip0_687_8389)">
<path d="M47.0845 12.8442C46.8131 11.823 46.2783 10.891 45.5336 10.1415C44.7888 9.39199 43.8603 8.85121 42.8409 8.5733C39.0881 7.56421 24.0881 7.56421 24.0881 7.56421C24.0881 7.56421 9.08813 7.56421 5.33541 8.5733C4.316 8.85121 3.38745 9.39199 2.64271 10.1415C1.89797 10.891 1.36315 11.823 1.09177 12.8442C0.0881349 16.6133 0.0881348 24.4733 0.0881348 24.4733C0.0881348 24.4733 0.0881349 32.3333 1.09177 36.1024C1.36315 37.1236 1.89797 38.0555 2.64271 38.8051C3.38745 39.5546 4.316 40.0954 5.33541 40.3733C9.08813 41.3824 24.0881 41.3824 24.0881 41.3824C24.0881 41.3824 39.0881 41.3824 42.8409 40.3733C43.8603 40.0954 44.7888 39.5546 45.5336 38.8051C46.2783 38.0555 46.8131 37.1236 47.0845 36.1024C48.0881 32.3333 48.0881 24.4733 48.0881 24.4733C48.0881 24.4733 48.0881 16.6133 47.0845 12.8442Z" fill="#FF0302"/>
<path d="M19.1792 31.6107V17.3362L31.7246 24.4735L19.1792 31.6107Z" fill="#FEFEFE"/>
</g>
<defs>
<clipPath id="clip0_687_8389">
<rect width="48" height="48" fill="white" transform="translate(0.0405273 0.473389)"/>
</clipPath>
</defs>
</svg>
