<svg width="33" height="31" viewBox="0 0 33 31" fill="none" xmlns="http://www.w3.org/2000/svg">
<path d="M16.2893 0.000298009C13.1154 0.0383924 10.0239 0.979859 7.40404 2.7062C4.78414 4.43254 2.75282 6.8667 1.56554 9.70239C0.378265 12.5381 0.0881204 15.6486 0.731592 18.6428C1.37506 21.6369 2.92336 24.3809 5.18181 26.5295C7.44025 28.678 10.3079 30.1353 13.424 30.7178C16.5401 31.3003 19.7655 30.9821 22.6943 29.8032C25.6231 28.6244 28.1245 26.6375 29.8839 24.0925C31.6434 21.5476 32.5821 18.5582 32.5822 15.5006C32.5552 11.364 30.8236 7.40706 27.7681 4.50024C24.7127 1.59342 20.5837 -0.0252551 16.2893 0.000298009Z" fill="#00EDBE"/>
<path d="M22.7291 9.76739C22.6855 8.99231 22.8818 8.2222 23.2931 7.55469H10.1593C10.0416 7.55429 9.92496 7.57622 9.81605 7.61923C9.70714 7.66224 9.60809 7.7255 9.52456 7.80538C9.44103 7.88527 9.37466 7.98022 9.32923 8.08482C9.28379 8.18941 9.26019 8.3016 9.25977 8.41499V11.1193C9.26019 11.2327 9.28379 11.3449 9.32923 11.4495C9.37466 11.554 9.44103 11.649 9.52456 11.7289C9.60809 11.8088 9.70714 11.872 9.81605 11.915C9.92496 11.9581 10.0416 11.98 10.1593 11.9796H23.2931C22.8818 11.3121 22.6855 10.542 22.7291 9.76687" fill="#141BEB"/>
<path d="M7.21648 15.5408C7.25933 16.316 7.06231 17.0859 6.65039 17.753H19.7842C19.9019 17.7534 20.0185 17.7315 20.1274 17.6885C20.2363 17.6455 20.3354 17.5822 20.4189 17.5023C20.5024 17.4224 20.5688 17.3275 20.6142 17.2229C20.6597 17.1183 20.6833 17.0061 20.6837 16.8927V14.1884C20.6833 14.075 20.6597 13.9629 20.6142 13.8583C20.5688 13.7537 20.5024 13.6587 20.4189 13.5788C20.3354 13.4989 20.2363 13.4357 20.1274 13.3927C20.0185 13.3496 19.9019 13.3277 19.7842 13.3281H6.65039C7.06166 13.9956 7.25794 14.7657 7.21434 15.5408" fill="#141BEB"/>
<path d="M22.7291 21.3221C22.6855 20.547 22.8818 19.7769 23.2931 19.1094H10.1593C10.0416 19.109 9.92496 19.1309 9.81605 19.1739C9.70714 19.2169 9.60809 19.2802 9.52456 19.3601C9.44103 19.44 9.37466 19.5349 9.32923 19.6395C9.28379 19.7441 9.26019 19.8563 9.25977 19.9697V22.674C9.26019 22.7873 9.28379 22.8995 9.32923 23.0041C9.37466 23.1087 9.44103 23.2037 9.52456 23.2836C9.60809 23.3635 9.70714 23.4267 9.81605 23.4697C9.92496 23.5127 10.0416 23.5347 10.1593 23.5343H23.2931C22.8818 22.8668 22.6855 22.0966 22.7291 21.3216" fill="#141BEB"/>
</svg>
