<svg width="222" height="53" viewBox="0 0 222 53" fill="none" xmlns="http://www.w3.org/2000/svg">
<path d="M11.936 16.184C18.496 16.184 22.656 20.632 22.656 28.056C22.656 33.688 19.584 39.64 12.032 39.64C5.344 39.64 1.344 34.552 1.344 27.736C1.344 21.912 4.8 16.184 11.936 16.184ZM18.016 27.736C18.016 22.904 15.648 20.184 12.064 20.184C8 20.184 5.856 23.416 5.856 27.96C5.856 32.12 8.16 35.576 11.904 35.576C16.192 35.576 18.016 32.312 18.016 27.736ZM36.0655 23.224C39.9375 23.224 43.0735 25.976 43.0735 31.224C43.0735 36.12 40.0015 39.064 35.8095 39.096C33.6655 39.096 31.8095 38.168 31.2975 37.304C31.2975 39.416 31.4255 45.592 31.2015 45.752C30.9775 45.976 27.6175 46.104 27.1375 45.848C27.0735 45.816 27.2015 23.928 27.4895 23.192C27.5535 23.064 31.2015 23.32 31.2015 23.32C31.2015 23.736 31.1695 24.888 31.1695 25.304C31.6495 24.504 33.3135 23.224 36.0655 23.224ZM38.9135 31.256C38.9135 28.248 37.2175 27.032 35.0735 27.032C32.4495 27.032 31.2015 28.728 31.2015 31.192C31.2015 34.008 32.9935 35.544 35.0095 35.544C37.5375 35.544 38.9135 33.848 38.9135 31.256ZM50.5208 32.344C50.5208 34.584 52.2488 35.96 54.6168 35.96C56.5368 35.96 57.7208 35.256 58.6168 34.584C58.8728 34.808 59.9928 36.952 60.0248 37.368C59.1928 38.168 57.0488 39.288 54.4248 39.288C49.1128 39.288 46.6808 35.608 46.6808 31.48C46.6808 27.256 49.3048 23.352 54.1368 23.352C58.1368 23.352 60.7288 26.36 60.7288 29.816C60.7288 30.808 60.6328 31.576 60.4408 32.184C58.8728 32.408 52.6328 32.408 50.5208 32.344ZM50.5848 29.848L57.0488 29.784C57.1768 27.672 56.0248 26.264 54.0408 26.264C51.9288 26.264 50.5848 27.928 50.5848 29.848ZM65.0123 23.864C65.2363 23.512 68.6923 23.352 68.9163 23.64C68.9163 24.28 68.8843 25.4 68.8523 25.624C69.4923 24.504 71.3803 23.256 73.7483 23.256C77.1083 23.256 79.4443 25.848 79.4443 29.976C79.4443 31.992 79.3163 37.432 79.1883 39.064C79.1562 39.416 75.5083 39.288 75.4123 39.224C75.2523 39.16 75.4763 31.544 75.4763 30.296C75.4763 28.312 74.4523 26.84 72.4043 26.84C70.2603 26.84 68.9483 28.44 68.9483 29.976C68.9483 31.224 68.8843 38.808 68.7883 38.904C68.7243 39.064 65.1083 38.968 65.0123 38.776C64.9803 38.648 64.9483 30.552 65.0123 23.864ZM96.6645 27.8C96.6645 32.792 99.4165 35.48 103.001 35.48C105.689 35.48 107.737 34.008 108.473 33.432C109.081 33.88 110.137 35.8 110.521 36.664C109.305 38.008 106.137 39.576 102.617 39.576C95.4805 39.576 92.0885 34.36 92.0885 27.672C92.0885 21.304 96.3765 16.28 103.321 16.28C106.777 16.28 109.305 17.4 110.361 18.328C110.393 18.84 109.273 21.432 108.665 21.976C107.513 21.208 105.561 20.344 103.353 20.344C99.5445 20.344 96.6645 23.576 96.6645 27.8ZM113.963 26.552C114.059 26.008 116.075 23.192 120.107 23.192C124.171 23.192 126.795 25.592 126.795 30.232C126.795 33.464 126.603 38.68 126.539 38.84C126.443 39.032 123.275 38.84 123.275 38.84L123.083 37.464C122.603 37.944 121.227 39.192 118.859 39.192C115.147 39.192 113.579 37.016 113.579 34.424C113.579 31.416 116.107 29.528 119.403 29.528C121.099 29.528 122.187 30.072 122.859 30.68C122.859 28.408 122.571 26.68 119.595 26.68C117.163 26.68 116.363 28.312 116.075 28.344C115.787 28.376 113.963 26.84 113.963 26.552ZM117.003 34.328C117.003 35.672 118.219 36.6 119.851 36.6C121.739 36.6 122.731 35.48 122.731 34.296C122.731 32.824 121.483 31.928 119.819 31.928C118.155 31.928 117.003 33.016 117.003 34.328ZM131.882 23.832C132.106 23.384 135.562 23.608 135.786 23.896C135.786 24.536 135.754 25.464 135.722 25.688C136.362 24.568 137.834 23.416 140.202 23.416C141.962 23.416 143.754 24.408 144.522 25.912C145.61 24.024 147.882 23.416 149.322 23.416C153.13 23.416 155.05 25.816 155.05 29.816C155.05 31.96 154.922 37.656 154.826 39.096C154.794 39.384 151.05 39.384 150.954 39.32C150.826 39.224 151.082 32.088 151.082 30.136C151.082 28.504 150.41 27 148.362 27C146.186 27 145.45 29.08 145.45 30.072C145.45 32.504 145.354 37.272 145.226 38.904C145.162 39.256 141.546 39.032 141.45 38.968C141.29 38.904 141.482 31.256 141.482 30.136C141.482 28.472 140.778 27 138.762 27C136.778 27 135.882 28.728 135.882 29.784C135.882 30.776 135.754 39.128 135.658 39.224C135.594 39.384 131.978 39.288 131.882 39.096C131.85 38.968 131.818 30.52 131.882 23.832ZM168.994 23.224C172.866 23.224 176.002 25.976 176.002 31.224C176.002 36.12 172.93 39.064 168.738 39.096C166.594 39.096 164.738 38.168 164.226 37.304C164.226 39.416 164.354 45.592 164.13 45.752C163.906 45.976 160.546 46.104 160.066 45.848C160.002 45.816 160.13 23.928 160.418 23.192C160.482 23.064 164.13 23.32 164.13 23.32C164.13 23.736 164.098 24.888 164.098 25.304C164.578 24.504 166.242 23.224 168.994 23.224ZM171.842 31.256C171.842 28.248 170.146 27.032 168.002 27.032C165.378 27.032 164.13 28.728 164.13 31.192C164.13 34.008 165.922 35.544 167.938 35.544C170.466 35.544 171.842 33.848 171.842 31.256ZM194.394 39.064C194.138 39.48 190.97 39.32 190.714 39.032C190.746 38.392 190.714 37.368 190.746 37.176C189.978 38.264 188.122 39.512 185.914 39.512C181.978 39.512 180.154 37.144 180.154 32.952C180.154 30.616 180.506 25.048 180.634 23.544C180.698 23.192 184.314 23.352 184.442 23.448C184.474 24.056 184.154 31.16 184.154 32.632C184.154 34.744 185.114 35.96 187.162 35.992C189.306 35.992 190.586 34.424 190.618 32.6C190.618 31.608 190.81 23.672 190.906 23.576C191.002 23.416 194.554 23.48 194.682 23.672C194.682 23.8 194.522 32.408 194.394 39.064ZM205.255 39.448C202.151 39.448 199.527 38.072 199.047 37.432C198.823 37.176 200.231 34.488 200.423 34.648C200.903 35 202.791 36.44 204.903 36.44C206.599 36.44 207.463 35.768 207.463 34.808C207.463 33.784 206.727 33.336 204.455 32.952C200.775 32.312 199.079 30.936 199.079 28.312C199.079 25.144 201.351 23.256 205.095 23.256C208.039 23.256 210.215 24.248 210.695 24.76C210.919 24.952 209.671 27.64 209.447 27.64C209.319 27.672 207.463 26.36 205.383 26.36C203.687 26.36 202.983 27.192 202.983 28.056C202.983 29.048 203.655 29.496 205.959 29.816C209.543 30.328 211.399 31.608 211.399 34.392C211.399 37.208 209.447 39.448 205.255 39.448Z" fill="white"/>
<path d="M144.162 4.326C144.19 4.13 146.01 4.186 146.038 4.284C146.08 4.634 145.912 8.61 145.912 9.926C145.912 11.69 146.654 12.39 147.97 12.39C149.496 12.39 150.056 11.312 150.056 10.01C150.056 7.98 149.958 4.746 149.972 4.144C150.154 4.046 151.932 3.962 151.96 4.102C152.016 4.354 152.058 8.176 152.058 10.066C152.058 12.166 151.246 14.266 148.012 14.266C145.478 14.266 143.952 12.978 143.952 10.122C143.952 8.596 144.05 5.082 144.162 4.326ZM154.381 7.378C154.479 7.224 155.991 7.154 156.089 7.28C156.089 7.56 156.075 8.05 156.061 8.148C156.341 7.658 157.167 7.112 158.203 7.112C159.673 7.112 160.695 8.246 160.695 10.052C160.695 10.934 160.639 13.314 160.583 14.028C160.569 14.182 158.973 14.126 158.931 14.098C158.861 14.07 158.959 10.738 158.959 10.192C158.959 9.324 158.511 8.68 157.615 8.68C156.677 8.68 156.103 9.38 156.103 10.052C156.103 10.598 156.075 13.916 156.033 13.958C156.005 14.028 154.423 13.986 154.381 13.902C154.367 13.846 154.353 10.304 154.381 7.378ZM162.926 7.224C162.996 7.112 164.592 7.168 164.648 7.224C164.704 7.266 164.648 13.874 164.592 13.972C164.536 14.07 163.024 14.028 162.996 13.986C162.982 13.944 162.828 7.378 162.926 7.224ZM162.744 4.942C162.744 4.298 162.926 3.836 163.794 3.836C164.438 3.836 164.886 4.27 164.886 5.012C164.886 5.53 164.438 5.95 163.794 5.95C163.164 5.95 162.744 5.586 162.744 4.942ZM166.426 7.42C166.426 7.308 167.77 7.084 167.966 7.084C168.092 7.084 169.772 12.026 169.772 12.026C169.772 12.026 171.676 7.112 171.76 7.098C171.858 7.084 173.384 7.42 173.37 7.49C173.174 8.358 170.598 14.028 170.542 14.098C170.36 14.252 168.862 14.07 168.848 14.042C168.834 14.014 166.412 7.784 166.426 7.42ZM176.08 11.088C176.08 12.068 176.836 12.67 177.872 12.67C178.712 12.67 179.23 12.362 179.622 12.068C179.734 12.166 180.224 13.104 180.238 13.286C179.874 13.636 178.936 14.126 177.788 14.126C175.464 14.126 174.4 12.516 174.4 10.71C174.4 8.862 175.548 7.154 177.662 7.154C179.412 7.154 180.546 8.47 180.546 9.982C180.546 10.416 180.504 10.752 180.42 11.018C179.734 11.116 177.004 11.116 176.08 11.088ZM176.108 9.996L178.936 9.968C178.992 9.044 178.488 8.428 177.62 8.428C176.696 8.428 176.108 9.156 176.108 9.996ZM186.62 7.224C186.816 7.322 186.606 8.834 186.41 9.058C186.172 9.002 185.794 8.932 185.486 8.932C184.814 8.946 184.338 9.464 184.198 10.136C184.17 10.374 184.268 13.972 184.24 14.014C184.212 14.07 182.462 14.098 182.434 14.014C182.406 13.958 182.406 7.672 182.448 7.392C182.532 7.182 184.03 7.112 184.128 7.238C184.156 7.546 184.128 8.162 184.114 8.232C184.66 7.308 185.71 7.084 186.62 7.224ZM190.692 14.196C189.334 14.196 188.186 13.594 187.976 13.314C187.878 13.202 188.494 12.026 188.578 12.096C188.788 12.25 189.614 12.88 190.538 12.88C191.28 12.88 191.658 12.586 191.658 12.166C191.658 11.718 191.336 11.522 190.342 11.354C188.732 11.074 187.99 10.472 187.99 9.324C187.99 7.938 188.984 7.112 190.622 7.112C191.91 7.112 192.862 7.546 193.072 7.77C193.17 7.854 192.624 9.03 192.526 9.03C192.47 9.044 191.658 8.47 190.748 8.47C190.006 8.47 189.698 8.834 189.698 9.212C189.698 9.646 189.992 9.842 191 9.982C192.568 10.206 193.38 10.766 193.38 11.984C193.38 13.216 192.526 14.196 190.692 14.196ZM195.243 7.224C195.313 7.112 196.909 7.168 196.965 7.224C197.021 7.266 196.965 13.874 196.909 13.972C196.853 14.07 195.341 14.028 195.313 13.986C195.299 13.944 195.145 7.378 195.243 7.224ZM195.061 4.942C195.061 4.298 195.243 3.836 196.111 3.836C196.755 3.836 197.203 4.27 197.203 5.012C197.203 5.53 196.755 5.95 196.111 5.95C195.481 5.95 195.061 5.586 195.061 4.942ZM201.599 8.68C201.599 8.736 201.529 10.794 201.515 11.704C201.501 12.25 201.739 12.628 202.299 12.628C202.901 12.642 203.321 12.264 203.461 12.278C203.629 12.32 203.895 13.3 203.895 13.538C203.895 13.538 203.265 14.21 201.921 14.182C200.437 14.168 199.765 13.314 199.779 12.04C199.793 11.326 199.905 8.596 199.905 8.596C199.905 8.582 198.855 8.582 198.785 8.526C198.715 8.47 198.687 7.196 198.785 7.168C198.841 7.168 199.905 7.21 199.947 7.168C199.989 7.14 199.933 5.628 200.059 5.502C200.185 5.39 201.641 5.306 201.697 5.362C201.767 5.432 201.641 7.238 201.655 7.224C201.683 7.21 203.503 7.182 203.629 7.336C203.769 7.476 203.657 8.61 203.657 8.61C203.559 8.736 201.599 8.596 201.599 8.68ZM211.699 7.476C211.405 8.484 207.723 16.688 207.415 17.136C207.023 17.15 205.875 16.604 205.791 16.478C205.833 16.31 207.009 13.874 207.275 13.174C206.939 12.502 204.881 7.798 204.895 7.42C204.895 7.308 206.253 7.084 206.449 7.084C206.645 7.084 208.255 11.396 208.255 11.396C208.255 11.396 210.019 7.112 210.103 7.098C210.201 7.084 211.671 7.392 211.699 7.476Z" fill="#1227F2"/>
</svg>
