<svg width="33" height="31" viewBox="0 0 33 31" fill="none" xmlns="http://www.w3.org/2000/svg">
<g clip-path="url(#clip0_525_2120)">
<path d="M16.2898 0.000298009C13.1159 0.0383924 10.0244 0.979859 7.40452 2.7062C4.78463 4.43254 2.7533 6.8667 1.56603 9.70239C0.378753 12.5381 0.0886087 15.6486 0.73208 18.6428C1.37555 21.6369 2.92385 24.3809 5.1823 26.5295C7.44074 28.678 10.3084 30.1353 13.4245 30.7178C16.5406 31.3003 19.766 30.9821 22.6948 29.8032C25.6236 28.6244 28.125 26.6375 29.8844 24.0925C31.6439 21.5476 32.5826 18.5582 32.5827 15.5006C32.5557 11.364 30.8241 7.40706 27.7686 4.50024C24.7132 1.59342 20.5842 -0.0252551 16.2898 0.000298009Z" fill="#00EDBE"/>
<path d="M22.7296 9.76739C22.686 8.99231 22.8823 8.2222 23.2936 7.55469H10.1598C10.0421 7.55429 9.92545 7.57622 9.81654 7.61923C9.70763 7.66224 9.60858 7.7255 9.52505 7.80538C9.44152 7.88527 9.37515 7.98022 9.32972 8.08482C9.28428 8.18941 9.26068 8.3016 9.26025 8.41499V11.1193C9.26068 11.2327 9.28428 11.3449 9.32972 11.4495C9.37515 11.554 9.44152 11.649 9.52505 11.7289C9.60858 11.8088 9.70763 11.872 9.81654 11.915C9.92545 11.9581 10.0421 11.98 10.1598 11.9796H23.2936C22.8823 11.3121 22.686 10.542 22.7296 9.76687" fill="#141BEB"/>
<path d="M7.21697 15.5408C7.25982 16.316 7.0628 17.0859 6.65088 17.753H19.7847C19.9024 17.7534 20.019 17.7315 20.1279 17.6885C20.2368 17.6455 20.3359 17.5822 20.4194 17.5023C20.5029 17.4224 20.5693 17.3275 20.6147 17.2229C20.6602 17.1183 20.6838 17.0061 20.6842 16.8927V14.1884C20.6838 14.075 20.6602 13.9629 20.6147 13.8583C20.5693 13.7537 20.5029 13.6587 20.4194 13.5788C20.3359 13.4989 20.2368 13.4357 20.1279 13.3927C20.019 13.3496 19.9024 13.3277 19.7847 13.3281H6.65088C7.06215 13.9956 7.25843 14.7657 7.21483 15.5408" fill="#141BEB"/>
<path d="M22.7296 21.3221C22.686 20.547 22.8823 19.7769 23.2936 19.1094H10.1598C10.0421 19.109 9.92545 19.1309 9.81654 19.1739C9.70763 19.2169 9.60858 19.2802 9.52505 19.3601C9.44152 19.44 9.37515 19.5349 9.32972 19.6395C9.28428 19.7441 9.26068 19.8563 9.26025 19.9697V22.674C9.26068 22.7873 9.28428 22.8995 9.32972 23.0041C9.37515 23.1087 9.44152 23.2037 9.52505 23.2836C9.60858 23.3635 9.70763 23.4267 9.81654 23.4697C9.92545 23.5127 10.0421 23.5347 10.1598 23.5343H23.2936C22.8823 22.8668 22.686 22.0966 22.7296 21.3216" fill="#141BEB"/>
</g>
<defs>
<clipPath id="clip0_525_2120">
<rect width="32.5863" height="31" fill="white"/>
</clipPath>
</defs>
</svg>
