<svg width="266" height="82" viewBox="0 0 266 82" fill="none" xmlns="http://www.w3.org/2000/svg">
<path d="M187.601 77.2236C187.703 77.275 187.805 77.3778 187.906 77.4292C187.957 77.4807 188.008 77.4807 188.059 77.5321C188.11 77.5835 188.211 77.5835 188.262 77.6349C188.618 77.8405 189.024 77.9948 189.431 78.0976C195.122 79.7428 206.25 76.9151 206.25 76.9151C206.859 76.8123 207.469 76.7095 208.13 76.5552C224.593 73.4705 260.569 80.7197 260.569 80.7197L251.676 57.9438L264.481 41.2861C260.365 36.2476 232.52 35.168 232.52 35.168H228.811L229.471 41.8002V56.6585C229.471 57.4811 229.674 58.3037 230.03 59.0235C231.707 62.4681 230.843 64.8845 229.725 66.4269C228.709 67.7636 227.235 68.7405 225.609 69.2032C222.866 69.923 220.071 70.2315 217.276 70.2315C213.262 70.2315 209.298 69.5631 205.538 68.3292C196.748 65.1416 191.92 65.3987 189.99 65.81C189.939 65.81 189.837 65.81 189.786 65.8614C189.481 65.9128 189.177 66.0156 188.872 66.1184C185.67 67.4038 184.044 71.0541 185.315 74.2931C185.67 75.4241 186.534 76.5038 187.601 77.2236Z" fill="#EAECFD"/>
<mask id="mask0_3100_162" style="mask-type:luminance" maskUnits="userSpaceOnUse" x="184" y="35" width="51" height="41">
<path d="M234.511 35.0693H184.816V75.017H234.511V35.0693Z" fill="white"/>
</mask>
<g mask="url(#mask0_3100_162)">
<path d="M234.506 63.1921V35.1722C233.235 35.1207 232.524 35.0693 232.524 35.0693H228.815L229.475 41.7016V56.5599C229.475 57.3825 229.678 58.2051 230.034 58.9249C231.711 62.3695 230.847 64.7859 229.729 66.3283C228.713 67.665 227.239 68.6419 225.613 69.1046C222.869 69.8243 220.075 70.1328 217.28 70.1328C213.266 70.1328 209.302 69.4645 205.542 68.2306C196.752 65.043 191.924 65.3 189.994 65.7113C189.943 65.7113 189.841 65.7627 189.79 65.7627C189.384 65.8142 189.079 65.917 188.774 66.0198C185.573 67.3051 183.947 70.9554 185.217 74.1944C185.319 74.4515 185.42 74.7086 185.573 74.9656C185.573 74.9656 184.811 67.0995 194.313 69.3616C200.715 70.904 214.993 74.8628 226.833 72.5492C231.304 71.6752 234.506 67.7678 234.506 63.1921Z" fill="#C2C7FB"/>
</g>
<path d="M203.557 52.0316C197.764 51.7746 191.921 51.9288 186.179 52.4943L184.858 71.0543C185.163 68.7922 186.687 66.8385 188.771 66.0159C189.075 65.9131 189.38 65.8102 189.685 65.7588C189.736 65.7588 189.838 65.7074 189.888 65.7074C191.87 65.2961 196.646 65.0391 205.437 68.2266C209.248 69.4605 213.211 70.0775 217.175 70.1289C219.97 70.1803 222.815 69.8204 225.508 69.1007C227.134 68.6379 228.608 67.6611 229.624 66.3244C230.539 65.0905 230.996 63.5481 230.844 62.0057C230.335 59.0752 226.27 53.2141 203.557 52.0316Z" fill="#EAECFD" stroke="#1228F3" stroke-width="2"/>
<path d="M187.601 77.2236C187.703 77.275 187.805 77.3778 187.906 77.4292C187.957 77.4807 188.008 77.4807 188.059 77.5321C188.11 77.5835 188.211 77.5835 188.262 77.6349C188.618 77.8405 189.024 77.9948 189.431 78.0976C195.122 79.7428 206.25 76.9151 206.25 76.9151C206.859 76.8123 207.469 76.7095 208.13 76.5552C224.593 73.4705 260.569 80.7197 260.569 80.7197L251.676 57.9438L264.481 41.2861C260.365 36.2476 232.52 35.168 232.52 35.168H228.811L229.471 41.8002V56.6585C229.471 57.4811 229.674 58.3037 230.03 59.0235C231.707 62.4681 230.843 64.8845 229.725 66.4269C228.709 67.7636 227.235 68.7405 225.609 69.2032C222.866 69.923 220.071 70.2315 217.276 70.2315C213.262 70.2315 209.298 69.5631 205.538 68.3292C196.748 65.1416 191.92 65.3987 189.99 65.81C189.939 65.81 189.837 65.81 189.786 65.8614C189.481 65.9128 189.177 66.0156 188.872 66.1184C185.67 67.4038 184.044 71.0541 185.315 74.2931C185.67 75.4241 186.534 76.5038 187.601 77.2236Z" stroke="#1228F3" stroke-width="2" stroke-linecap="round" stroke-linejoin="round"/>
<path d="M78.8125 5.40022C78.7108 5.34881 78.6092 5.24598 78.5076 5.19457C78.4568 5.14316 78.406 5.14316 78.3551 5.09174C78.3043 5.04033 78.2535 5.04033 78.2027 5.04033C77.847 4.83468 77.4405 4.68044 77.034 4.57762C71.343 2.93241 60.2149 5.76011 60.2149 5.76011C59.6052 5.86294 58.9954 5.96576 58.3349 6.12C41.8207 9.20476 5.89599 1.95557 5.89599 1.95557L14.7882 24.7314L1.9834 41.3891C6.09924 46.4276 33.9447 47.5073 33.9447 47.5073H37.654L36.9935 40.875V26.0681C36.9935 25.2455 36.7902 24.4229 36.4345 23.7032C34.7577 20.2585 35.6215 17.8421 36.7394 16.2997C37.7557 14.963 39.2292 13.9861 40.8552 13.5234C43.5991 12.8037 46.3938 12.4952 49.1886 12.4952C53.2028 12.4952 57.1662 13.1635 60.9263 14.3975C69.717 17.585 74.5442 17.328 76.4751 16.9167C76.5259 16.9167 76.6275 16.9167 76.6783 16.8653C76.9832 16.8138 77.2881 16.711 77.5929 16.6082C80.7942 15.3229 82.4202 11.6726 81.1498 8.43357C80.7433 7.19967 79.9303 6.12 78.8125 5.40022Z" fill="#EAECFD"/>
<mask id="mask1_3100_162" style="mask-type:luminance" maskUnits="userSpaceOnUse" x="31" y="7" width="51" height="41">
<path d="M81.2294 7.62598H31.9917V47.2138H81.2294V7.62598Z" fill="white"/>
</mask>
<g mask="url(#mask1_3100_162)">
<path d="M31.9917 19.3484V47.1113C33.2112 47.1627 33.9734 47.2141 33.9734 47.2141H37.6319L36.9714 40.6333V25.9293C36.9714 25.1067 36.7681 24.284 36.4124 23.5643C34.7864 20.171 35.5994 17.7546 36.7173 16.2122C37.7336 14.8755 39.1563 13.8987 40.7823 13.436C43.4754 12.7162 46.2701 12.4077 49.0648 12.4591C53.0282 12.4591 56.9408 13.0761 60.701 14.31C69.4408 17.4462 74.1664 17.1891 76.1481 16.8292C76.1989 16.8292 76.3005 16.8292 76.3513 16.7778C76.6562 16.7264 76.9611 16.6236 77.266 16.5207C80.4672 15.2868 82.0424 11.6365 80.8229 8.44893C80.7212 8.19186 80.6196 7.9348 80.4672 7.67773C80.4672 7.67773 81.2294 15.4925 71.829 13.2303C65.4774 11.6879 51.3006 7.67773 39.5628 10.0427C35.1421 10.8653 31.9917 14.7727 31.9917 19.3484Z" fill="#C2C7FB"/>
</g>
<path d="M62.9067 30.5921C68.6994 30.8491 74.5429 30.6949 80.2847 30.1293L81.6058 11.5693C81.301 13.8315 79.7766 15.7852 77.6933 16.6078C77.3884 16.7106 77.0835 16.8134 76.7786 16.8648C76.7278 16.8648 76.6262 16.9163 76.5754 16.9163C74.5937 17.3276 69.8173 17.5846 61.0266 14.397C57.2157 13.1631 53.2523 12.5462 49.2889 12.4948C46.4942 12.4434 43.6486 12.8032 40.9555 13.523C39.3295 13.9857 37.856 14.9626 36.8397 16.2993C35.9251 17.5332 35.4678 19.0756 35.6202 20.618C36.1283 23.4971 40.1934 29.4096 62.9067 30.5921Z" fill="#EAECFD" stroke="#1228F3" stroke-width="2"/>
<mask id="mask2_3100_162" style="mask-type:luminance" maskUnits="userSpaceOnUse" x="186" y="51" width="45" height="13">
<path d="M230.616 51.9126H186.206V63.0692H230.616V51.9126Z" fill="white"/>
</mask>
<g mask="url(#mask2_3100_162)">
<path d="M230.565 63.0699C230.616 62.71 230.616 62.3501 230.565 61.9902C229.955 59.0597 225.992 53.1473 203.634 52.0162C197.943 51.8105 192.252 51.9648 186.561 52.5303L186.206 57.3117C194.59 55.6665 220.199 51.8619 230.565 63.0699Z" fill="#C2C7FB"/>
</g>
<mask id="mask3_3100_162" style="mask-type:luminance" maskUnits="userSpaceOnUse" x="35" y="19" width="46" height="12">
<path d="M80.2515 19.6323H35.5361V30.6861H80.2515V19.6323Z" fill="white"/>
</mask>
<g mask="url(#mask3_3100_162)">
<path d="M35.5361 19.6323C35.5361 19.9922 35.5361 20.3521 35.5361 20.6606C36.1459 23.5397 40.1601 29.4007 62.6702 30.5318C68.4121 30.7889 74.2047 30.6347 79.9466 30.0691L80.3023 25.3391C71.8165 26.9843 46.0544 30.7375 35.5361 19.6323Z" fill="#C2C7FB"/>
</g>
<path d="M78.8125 5.40022C78.7108 5.34881 78.6092 5.24598 78.5076 5.19457C78.4568 5.14316 78.406 5.14316 78.3551 5.09174C78.3043 5.04033 78.2535 5.04033 78.2027 5.04033C77.847 4.83468 77.4405 4.68044 77.034 4.57762C71.343 2.93241 60.2149 5.76011 60.2149 5.76011C59.6052 5.86293 58.9954 5.96576 58.3349 6.12C41.8207 9.20476 5.89599 1.95557 5.89599 1.95557L14.7882 24.7314L1.9834 41.3891C6.09924 46.4276 33.9447 47.5073 33.9447 47.5073H37.654L36.9935 40.875V26.0681C36.9935 25.2455 36.7902 24.4229 36.4345 23.7032C34.7577 20.2585 35.6215 17.8421 36.7394 16.2997C37.7557 14.963 39.2292 13.9861 40.8552 13.5234C43.5991 12.8037 46.3938 12.4952 49.1886 12.4952C53.2028 12.4952 57.1662 13.1635 60.9263 14.3975C69.717 17.585 74.5442 17.328 76.4751 16.9167C76.5259 16.9167 76.6275 16.9167 76.6783 16.8653C76.9832 16.8138 77.2881 16.711 77.593 16.6082C80.7942 15.3229 82.4202 11.6726 81.1499 8.43357C80.7433 7.19967 79.9303 6.12 78.8125 5.40022Z" stroke="#1228F3" stroke-width="2" stroke-linecap="round" stroke-linejoin="round"/>
<path d="M229.066 24.0633C228.202 23.3949 227.288 22.778 226.475 22.2124C224.747 20.9271 222.918 19.8474 220.936 19.0248C216.465 17.0712 210.062 15.3745 200.763 14.5519C192.786 14.0892 172.257 15.6316 172.257 15.6316C171.495 15.683 170.733 15.7858 169.971 15.8372C162.705 16.6598 147.258 19.2305 133.284 21.5441C106.353 26.0684 73.8837 31.1582 62.959 30.5927C40.0932 29.4102 36.1298 23.4463 35.52 20.5672V54.6539C35.52 56.1963 36.2314 57.6358 37.4001 58.5612C38.2639 59.2296 39.1785 59.8466 39.9916 60.4121C41.7192 61.6974 43.5485 62.7771 45.5302 63.5997C50.0017 65.5534 56.4041 67.25 65.7029 68.0726C73.6805 68.5353 94.2089 66.9929 94.2089 66.9929C94.9711 66.9415 95.7333 66.8387 96.4955 66.7873C103.762 65.9647 119.209 63.394 133.182 61.0805C160.113 56.5561 192.583 51.4663 203.507 52.0318C226.322 53.1629 230.286 59.1268 230.845 62.0573V27.9707C230.946 26.4283 230.235 24.9887 229.066 24.0633Z" fill="#FAFAFF"/>
<path d="M229.066 24.0633C228.202 23.3949 227.288 22.778 226.475 22.2124C224.747 20.9271 222.918 19.8474 220.936 19.0248C216.465 17.0712 210.062 15.3745 200.763 14.5519C192.786 14.0892 172.257 15.6316 172.257 15.6316C171.495 15.683 170.733 15.7858 169.971 15.8372C162.705 16.6598 147.258 19.2305 133.284 21.5441C106.353 26.0684 73.8837 31.1582 62.959 30.5927C40.0932 29.4102 36.1298 23.4463 35.52 20.5672V54.6539C35.52 56.1963 36.2314 57.6358 37.4001 58.5612C38.2639 59.2296 39.1785 59.8466 39.9916 60.4121C41.7192 61.6974 43.5485 62.7771 45.5302 63.5997C50.0017 65.5534 56.4041 67.25 65.7029 68.0726C73.6805 68.5353 94.2089 66.9929 94.2089 66.9929C94.9711 66.9415 95.7333 66.8387 96.4955 66.7873C103.762 65.9647 119.209 63.394 133.182 61.0805C160.113 56.5561 192.583 51.4663 203.507 52.0318C226.322 53.1629 230.286 59.1268 230.845 62.0573V27.9707C230.946 26.4283 230.235 24.9887 229.066 24.0633Z" stroke="#1228F3" stroke-width="2" stroke-linecap="round" stroke-linejoin="round"/>
<path d="M175.101 35.949C174.844 34.0791 173.754 33.672 172.628 33.8118C171.103 34.0077 170.502 35.1389 170.698 36.5688C170.925 38.2186 172.056 38.9191 173.161 38.7635C174.667 38.5701 175.32 37.5439 175.101 35.949ZM172.235 31.6247C174.735 31.2727 176.885 32.6706 177.296 35.6587C177.631 38.0969 176.332 40.3353 173.531 40.7856C171.049 41.135 168.907 39.6613 168.501 36.7098C168.191 34.455 169.481 32.0124 172.235 31.6247Z" fill="#1228F3"/>
<path d="M164.35 34.772C164.36 34.8454 164.64 37.5529 164.786 38.7471C164.866 39.4646 165.242 39.9162 165.967 39.8141C166.749 39.7228 167.224 39.1513 167.408 39.1441C167.633 39.1685 168.154 40.4033 168.196 40.715C168.196 40.715 167.502 41.7097 165.758 41.9179C163.835 42.1699 162.811 41.1741 162.6 39.5033C162.49 38.5658 162.143 34.9707 162.143 34.9707C162.14 34.9523 160.782 35.1436 160.681 35.083C160.58 35.0225 160.315 33.3594 160.436 33.3048C160.509 33.2946 161.893 33.1558 161.94 33.0931C161.989 33.0488 161.645 31.0792 161.785 30.8912C161.928 30.7216 163.797 30.3464 163.88 30.4095C163.983 30.4884 164.145 32.8762 164.161 32.8553C164.194 32.8319 166.545 32.4636 166.735 32.6423C166.942 32.8002 167.001 34.3055 167.001 34.3055C166.897 34.4883 164.335 34.6621 164.35 34.772Z" fill="#1228F3"/>
<path d="M150.741 39.9019C150.918 41.1851 152.005 41.8357 153.345 41.6469C154.432 41.4939 155.047 40.9962 155.502 40.5398C155.664 40.6478 156.467 41.7867 156.518 42.0225C156.11 42.5471 154.984 43.3596 153.499 43.5688C150.491 43.9921 148.824 42.0778 148.499 39.713C148.166 37.2931 149.345 34.8475 152.08 34.4624C154.345 34.1436 156.05 35.6602 156.322 37.64C156.4 38.2083 156.406 38.6559 156.345 39.0196C155.475 39.2729 151.942 39.7702 150.741 39.9019ZM150.581 38.4669L154.236 37.915C154.142 36.6949 153.379 35.9801 152.255 36.1382C151.06 36.3066 150.43 37.367 150.581 38.4669Z" fill="#1228F3"/>
<path d="M133.097 37.4146C133.189 37.1401 135.163 36.9929 135.313 37.1401C135.363 37.5067 135.418 38.0409 135.418 38.1718C135.692 37.4791 136.434 36.7019 137.775 36.5131C138.772 36.3728 139.864 36.7983 140.418 37.5987C140.885 36.4304 142.123 35.901 142.939 35.7862C145.095 35.4827 146.371 36.7046 146.686 38.9961C146.855 40.2243 147.231 43.4976 147.29 44.3302C147.295 44.4978 145.175 44.7962 145.116 44.7672C145.036 44.7224 144.618 40.6139 144.465 39.4957C144.336 38.5607 143.837 37.7527 142.678 37.9159C141.446 38.0894 141.193 39.3396 141.271 39.9079C141.462 41.3011 141.784 44.0402 141.84 44.9854C141.831 45.1921 139.766 45.352 139.707 45.323C139.611 45.2991 139.117 40.9024 139.029 40.2608C138.898 39.3076 138.384 38.5204 137.242 38.6811C136.119 38.8392 135.748 39.9006 135.831 40.5055C135.909 41.0738 136.494 45.8687 136.448 45.9313C136.424 46.0281 134.369 46.2613 134.3 46.1589C134.271 46.0882 133.588 41.2511 133.097 37.4146Z" fill="#1228F3"/>
<path d="M129.719 42.3381C129.461 40.4683 128.371 40.0611 127.245 40.2009C125.721 40.3969 125.119 41.528 125.316 42.9579C125.543 44.6078 126.673 45.3082 127.778 45.1527C129.285 44.9593 129.938 43.933 129.719 42.3381ZM126.852 38.0139C129.353 37.6619 131.502 39.0597 131.913 42.0479C132.249 44.486 130.95 46.7244 128.149 47.1748C125.667 47.5242 123.525 46.0504 123.119 43.099C122.809 40.8441 124.098 38.4015 126.852 38.0139Z" fill="#1228F3"/>
<path d="M116.929 44.1377C117.219 46.2458 118.762 46.4583 119.596 46.341C120.556 46.2058 121.291 45.5044 121.524 45.3221C121.659 45.2283 122.297 46.1102 122.604 46.5903C122.213 47.3741 121.159 48.1764 119.801 48.3677C116.557 48.8243 114.98 46.6171 114.667 44.3439C114.357 42.0891 115.639 39.5915 118.501 39.1885C120.35 38.9283 121.602 39.5743 121.666 39.7708C121.748 39.9648 121.512 41.6051 121.268 41.7142C121.126 41.7529 120.088 41.058 118.947 41.2187C117.534 41.4177 116.697 42.4511 116.929 44.1377Z" fill="#1228F3"/>
<path d="M109.64 35.5968C109.85 35.3803 111.553 35.1406 111.644 35.2587C111.798 35.4425 113.233 47.7607 113.334 49.1667C113.334 49.1667 111.525 49.44 111.383 49.3479C111.223 49.2583 109.38 35.8576 109.64 35.5968Z" fill="#1228F3"/>
<path d="M103.267 46.5845C103.443 47.8677 104.53 48.5183 105.871 48.3295C106.958 48.1765 107.573 47.6788 108.027 47.2225C108.19 47.3304 108.993 48.4694 109.044 48.7051C108.636 49.2297 107.51 50.0422 106.024 50.2514C103.017 50.6748 101.35 48.7604 101.025 46.3956C100.692 43.9758 101.87 41.5301 104.606 41.145C106.871 40.8262 108.575 42.3428 108.847 44.3226C108.925 44.8909 108.932 45.3386 108.871 45.7022C108.001 45.9555 104.468 46.4528 103.267 46.5845ZM103.106 45.1495L106.761 44.5976C106.667 43.3775 105.904 42.6627 104.781 42.8209C103.585 42.9892 102.955 44.0496 103.106 45.1495Z" fill="#1228F3"/>
<path d="M91.8313 42.7754L91.7226 42.7908C91.359 46.0561 90.6003 51.9558 90.4414 52.2772C90.3216 52.4809 88.2743 52.7691 87.8631 52.7335C87.7468 52.6939 83.3463 41.2416 83.1836 40.461C83.2988 40.0897 85.4165 39.6421 85.4729 39.7837C85.619 40.1742 88.3621 47.0946 88.8854 49.0204L88.9579 49.0102C89.1331 47.0608 89.9138 40.7843 90.2013 39.2488C90.4735 39.0797 92.3035 38.8221 92.4117 38.9377C92.81 39.6852 95.4841 46.3724 96.0939 47.987L96.1664 47.9768C96.1987 46.197 96.8675 39.3756 97.0399 38.2114C97.449 38.0978 99.3766 38.0133 99.425 38.2307C99.4026 39.4111 98.2577 50.5602 98.134 51.1382C98.04 51.3944 95.9201 51.6928 95.6358 51.6394C95.3347 51.1959 92.7433 45.2445 91.8313 42.7754Z" fill="#1228F3"/>
</svg>
