<svg width="960" height="701" viewBox="0 0 960 701" fill="none" xmlns="http://www.w3.org/2000/svg">
<rect y="15" width="960" height="686" rx="15" fill="#141BEA"/>
<path d="M-71.5508 532.855L177.979 683.929L427.509 532.855L177.979 381.265L-71.5508 532.855Z" fill="#0C0C0C"/>
<path d="M-71.5508 532.855L177.979 683.929L427.509 532.855L177.979 381.265L-71.5508 532.855Z" fill="#1217C9"/>
<path d="M-71.4962 357.56L-72 493.637L178.025 644.955V508.627L-71.4962 357.56Z" fill="#C2C7FB"/>
<path d="M-71.4962 357.56L-72 493.637L178.025 644.955V508.627L-71.4962 357.56Z" fill="#C2C7FB" stroke="#0D129E" stroke-width="1.53789" stroke-miterlimit="10"/>
<path d="M427.499 357.525L428.003 493.609L177.968 644.926V508.599L427.499 357.525Z" fill="#E9EBFB"/>
<path d="M427.499 357.525L428.003 493.609L177.968 644.926V508.599L427.499 357.525Z" fill="#E9EBFB" stroke="#0C0C0C" stroke-width="1.53789" stroke-linecap="round" stroke-linejoin="round"/>
<path d="M-71.5508 357.524L177.979 508.598L427.509 357.524L177.979 205.934L-71.5508 357.524Z" fill="white"/>
<path d="M-71.5508 357.524L177.979 508.598L427.509 357.524L177.979 205.934L-71.5508 357.524Z" stroke="#0D129E" stroke-width="1.53789" stroke-linecap="round" stroke-linejoin="round"/>
<path d="M268.658 365.391C268.658 396.837 226.687 422.328 174.911 422.328C123.137 422.328 81.1641 396.837 81.1641 365.391C81.1641 333.946 123.137 308.455 174.911 308.455C226.687 308.455 268.658 333.946 268.658 365.391Z" fill="#0D129E"/>
<path d="M268.658 365.391C268.658 396.837 226.687 422.328 174.911 422.328C123.137 422.328 81.1641 396.837 81.1641 365.391C81.1641 333.946 123.137 308.455 174.911 308.455C226.687 308.455 268.658 333.946 268.658 365.391Z" stroke="#0D129E" stroke-width="1.53789" stroke-miterlimit="10"/>
<path d="M278.393 345.023C278.393 379.728 232.07 407.861 174.927 407.861C117.785 407.861 71.4609 379.728 71.4609 345.023C71.4609 310.317 117.785 282.184 174.927 282.184C232.07 282.184 278.393 310.317 278.393 345.023Z" fill="#3C4EF5"/>
<path d="M278.393 345.023C278.393 379.728 232.07 407.861 174.927 407.861C117.785 407.861 71.4609 379.728 71.4609 345.023C71.4609 310.317 117.785 282.184 174.927 282.184C232.07 282.184 278.393 310.317 278.393 345.023Z" stroke="#0D129E" stroke-width="1.53789" stroke-miterlimit="10"/>
<path d="M281.941 324.666C281.941 360.554 234.037 389.649 174.945 389.649C115.854 389.649 67.9502 360.554 67.9502 324.666C67.9502 288.777 115.854 259.683 174.945 259.683C234.037 259.683 281.941 288.777 281.941 324.666Z" fill="#3C4EF5"/>
<path d="M281.941 324.666C281.941 360.554 234.037 389.649 174.945 389.649C115.854 389.649 67.9502 360.554 67.9502 324.666C67.9502 288.777 115.854 259.683 174.945 259.683C234.037 259.683 281.941 288.777 281.941 324.666Z" stroke="#0D129E" stroke-width="1.53789" stroke-miterlimit="10"/>
<path d="M281.95 304.302C281.95 340.191 234.047 369.285 174.955 369.285C115.863 369.285 67.96 340.191 67.96 304.302C67.96 268.414 115.863 239.319 174.955 239.319C234.047 239.319 281.95 268.414 281.95 304.302Z" fill="white"/>
<path d="M281.95 304.302C281.95 340.191 234.047 369.285 174.955 369.285C115.863 369.285 67.96 340.191 67.96 304.302C67.96 268.414 115.863 239.319 174.955 239.319C234.047 239.319 281.95 268.414 281.95 304.302Z" stroke="#0D129E" stroke-width="1.53789" stroke-linecap="round" stroke-linejoin="round"/>
<path d="M281.964 112.811C281.964 51.3151 233.809 1.00024 174.954 1.00024H174.951C116.096 1.00024 67.9404 51.3151 67.9404 112.811V300.88C67.9404 301.171 67.992 301.448 68.0652 301.715C68.01 302.572 67.9752 303.433 67.9752 304.3C67.9752 340.188 115.876 369.282 174.969 369.282C234.06 369.282 281.964 340.188 281.964 304.3C281.964 303.402 281.926 302.51 281.867 301.621C281.925 301.382 281.964 301.136 281.964 300.88V112.811Z" stroke="#0D129E" stroke-width="1.53789" stroke-miterlimit="10"/>
<path d="M281.964 112.811C281.964 51.3151 233.809 1.00024 174.954 1.00024H174.951C116.096 1.00024 67.9404 51.3151 67.9404 112.811V300.88C67.9404 301.171 67.992 301.448 68.0652 301.715C68.01 302.572 67.9752 303.433 67.9752 304.3C67.9752 340.188 115.876 369.282 174.969 369.282C234.06 369.282 281.964 340.188 281.964 304.3C281.964 303.402 281.926 302.51 281.867 301.621C281.925 301.382 281.964 301.136 281.964 300.88V112.811Z" fill="url(#paint0_linear_1297_10582)"/>
<path d="M200.205 521.491L405.271 398.881L404.817 480.587L201.158 603.625L200.205 521.491Z" stroke="#0D129E" stroke-width="1.53789" stroke-miterlimit="10"/>
<path d="M209.87 527.184L414.936 404.574L414.482 486.28L210.823 609.318L209.87 527.184Z" fill="#3C4EF5"/>
<path d="M209.87 527.184L414.936 404.574L414.482 486.28L210.823 609.318L209.87 527.184Z" stroke="#0D129E" stroke-width="1.53789" stroke-linecap="round" stroke-linejoin="round"/>
<path d="M200.205 521.491L209.877 527.185L414.942 404.574L405.271 398.881L200.205 521.491Z" fill="white"/>
<path d="M200.205 521.491L209.877 527.185L414.942 404.574L405.271 398.881L200.205 521.491Z" stroke="#0D129E" stroke-width="1.53789" stroke-linecap="round" stroke-linejoin="round"/>
<path d="M200.205 521.491L201.158 603.625L210.828 609.316L209.877 527.183L200.205 521.491Z" fill="#C2C8CF"/>
<path d="M200.205 521.491L201.158 603.625L210.828 609.316L209.877 527.183L200.205 521.491Z" stroke="#0D129E" stroke-width="1.53789" stroke-linecap="round" stroke-linejoin="round"/>
<path d="M386.989 458.047L333.699 490.193C331.172 491.718 329.125 495.422 329.134 498.456C329.142 501.482 331.202 502.706 333.728 501.182L387.019 469.035C389.538 467.514 391.584 463.812 391.576 460.788C391.568 457.753 389.509 456.526 386.989 458.047Z" fill="white"/>
<path d="M333.731 501.179C331.203 502.705 329.144 501.478 329.137 498.453C329.128 495.419 331.173 491.716 333.701 490.191L386.99 458.045C389.509 456.525 391.57 457.75 391.579 460.785C391.587 463.81 389.541 467.514 387.02 469.034L333.731 501.179ZM386.986 456.003L333.696 488.149C330.234 490.239 327.425 495.322 327.436 499.479C327.448 503.626 330.275 505.309 333.737 503.221L387.026 471.075C390.488 468.987 393.289 463.907 393.278 459.76C393.268 455.603 390.448 453.915 386.986 456.003Z" fill="#0D129E"/>
<path d="M-12.3145 420.715V502.927L101.124 571.353V489.418L-12.3145 420.715Z" fill="#3C4EF5"/>
<path d="M-12.3145 420.715V502.927L101.124 571.353V489.418L-12.3145 420.715Z" stroke="#0D129E" stroke-width="1.53789" stroke-linecap="round" stroke-linejoin="round"/>
<path d="M-12.3145 420.716L101.125 489.418L110.012 483.994L-3.42568 415.292L-12.3145 420.716Z" fill="#C2C8CF"/>
<path d="M-12.3145 420.716L101.125 489.418L110.012 483.994L-3.42568 415.292L-12.3145 420.716Z" stroke="#0D129E" stroke-width="1.53789" stroke-linecap="round" stroke-linejoin="round"/>
<path d="M101.118 489.417V571.351L110.007 565.928V483.992L101.118 489.417Z" fill="#0C0C0C"/>
<path d="M101.118 489.417V571.351L110.007 565.928V483.992L101.118 489.417Z" stroke="#0D129E" stroke-width="1.53789" stroke-linecap="round" stroke-linejoin="round"/>
<path d="M228.137 533.383C225.924 534.718 224.13 537.965 224.137 540.622C224.144 543.279 225.95 544.355 228.164 543.02C230.377 541.684 232.179 538.434 232.171 535.777C232.164 533.12 230.35 532.048 228.137 533.383Z" fill="#02EEC4"/>
<path d="M228.155 543.022C225.942 544.358 224.137 543.284 224.13 540.627C224.122 537.969 225.916 534.722 228.13 533.388C230.343 532.052 232.157 533.123 232.164 535.78C232.171 538.437 230.37 541.687 228.155 543.022ZM228.125 531.345C224.978 533.244 222.419 537.873 222.43 541.652C222.439 545.44 225.014 546.972 228.161 545.073C231.316 543.17 233.874 538.543 233.864 534.754C233.853 530.975 231.28 529.441 228.125 531.345Z" fill="#0D129E"/>
<path d="M228.137 553.449C225.924 554.784 224.13 558.031 224.137 560.688C224.144 563.345 225.95 564.421 228.164 563.086C230.377 561.75 232.179 558.5 232.171 555.843C232.164 553.186 230.35 552.114 228.137 553.449Z" fill="#02EEC4"/>
<path d="M228.155 563.088C225.942 564.423 224.137 563.349 224.13 560.692C224.122 558.034 225.917 554.787 228.13 553.452C230.343 552.117 232.157 553.188 232.164 555.845C232.171 558.502 230.37 561.752 228.155 563.088ZM228.124 551.4C224.976 553.299 222.419 557.929 222.43 561.717C222.439 565.506 225.014 567.039 228.161 565.14C231.317 563.236 233.875 558.607 233.864 554.82C233.853 551.031 231.279 549.496 228.124 551.4Z" fill="#0D129E"/>
<path d="M228.137 573.517C225.924 574.852 224.13 578.099 224.137 580.756C224.144 583.414 225.95 584.489 228.164 583.154C230.377 581.818 232.179 578.568 232.171 575.911C232.164 573.254 230.35 572.182 228.137 573.517Z" fill="#02EEC4"/>
<path d="M228.155 583.156C225.942 584.491 224.137 583.417 224.13 580.76C224.122 578.103 225.916 574.855 228.13 573.52C230.343 572.186 232.157 573.256 232.164 575.913C232.171 578.57 230.37 581.82 228.155 583.156ZM228.125 571.469C224.978 573.368 222.419 577.997 222.43 581.785C222.439 585.565 225.014 587.096 228.161 585.197C231.316 583.294 233.874 578.667 233.864 574.888C233.853 571.099 231.28 569.565 228.125 571.469Z" fill="#0D129E"/>
<path d="M243.206 523.842C240.992 525.177 239.198 528.425 239.205 531.082C239.212 533.739 241.019 534.814 243.232 533.479C245.445 532.143 247.247 528.893 247.24 526.236C247.233 523.579 245.419 522.507 243.206 523.842Z" fill="#02EEC4"/>
<path d="M243.234 533.477C241.021 534.813 239.216 533.739 239.209 531.082C239.201 528.424 240.995 525.177 243.209 523.843C245.422 522.506 247.236 523.577 247.243 526.235C247.252 528.892 245.449 532.142 243.234 533.477ZM243.204 521.8C240.057 523.698 237.498 528.328 237.509 532.107C237.518 535.896 240.093 537.426 243.24 535.528C246.395 533.625 248.953 528.998 248.943 525.209C248.932 521.43 246.359 519.896 243.204 521.8Z" fill="#0D129E"/>
<path d="M243.206 543.911C240.992 545.245 239.198 548.493 239.205 551.15C239.212 553.807 241.019 554.883 243.232 553.548C245.445 552.212 247.247 548.962 247.24 546.305C247.233 543.647 245.419 542.576 243.206 543.911Z" fill="#02EEC4"/>
<path d="M243.234 553.545C241.021 554.88 239.216 553.806 239.209 551.149C239.201 548.491 240.995 545.244 243.209 543.909C245.422 542.574 247.236 543.645 247.243 546.302C247.252 548.959 245.449 552.209 243.234 553.545ZM243.204 541.857C240.057 543.756 237.498 548.386 237.509 552.174C237.518 555.963 240.093 557.496 243.24 555.597C246.395 553.693 248.953 549.064 248.943 545.277C248.932 541.488 246.359 539.954 243.204 541.857Z" fill="#0D129E"/>
<path d="M243.206 563.974C240.992 565.309 239.198 568.556 239.205 571.214C239.212 573.871 241.019 574.946 243.232 573.611C245.445 572.275 247.247 569.025 247.24 566.368C247.233 563.711 245.419 562.639 243.206 563.974Z" fill="#02EEC4"/>
<path d="M243.234 573.613C241.021 574.948 239.216 573.874 239.209 571.217C239.201 568.56 240.995 565.312 243.209 563.977C245.422 562.643 247.235 563.713 247.243 566.37C247.25 569.027 245.449 572.277 243.234 573.613ZM243.204 561.926C240.057 563.825 237.498 568.454 237.509 572.242C237.518 576.022 240.093 577.553 243.24 575.654C246.395 573.751 248.953 569.124 248.943 565.345C248.932 561.556 246.359 560.022 243.204 561.926Z" fill="#0D129E"/>
<path d="M388.675 457.42C388.364 458.474 387.922 459.524 387.371 460.52C386.173 462.67 384.605 464.406 382.944 465.409L329.646 497.56C329.485 497.658 329.325 497.747 329.155 497.83C329.141 498.033 329.134 498.238 329.134 498.45C329.142 501.474 331.195 502.706 333.714 501.186L387.012 469.035C388.222 468.305 389.369 467.032 390.24 465.465C391.102 463.896 391.574 462.24 391.569 460.788C391.563 458.526 390.386 457.217 388.675 457.42Z" fill="white"/>
<path d="M329.656 497.557L382.953 465.404C384.614 464.402 386.182 462.665 387.381 460.514C387.931 459.519 388.373 458.468 388.685 457.414C390.396 457.212 391.573 458.52 391.579 460.782C391.584 462.235 391.111 463.892 390.248 465.462C389.378 467.028 388.231 468.3 387.02 469.03L333.724 501.18C331.205 502.701 329.152 501.47 329.144 498.444C329.144 498.232 329.15 498.027 329.164 497.825C329.333 497.741 329.495 497.653 329.656 497.557ZM387.553 455.629L387.332 456.692C387.128 457.728 386.724 458.8 386.175 459.796C385.304 461.361 384.157 462.624 382.947 463.354L329.65 495.505C329.321 495.703 328.999 495.861 328.684 495.958L327.919 496.218L327.683 497.264C327.516 498.018 327.433 498.749 327.436 499.476C327.446 503.623 330.275 505.305 333.73 503.221L387.026 471.07C388.688 470.067 390.256 468.34 391.454 466.18C392.638 464.029 393.283 461.752 393.278 459.757C393.269 456.244 391.194 454.4 388.335 455.36L387.553 455.629Z" fill="#0D129E"/>
<path d="M387.588 456.848L334.29 489.001C332.805 489.897 331.451 491.451 330.466 493.223C329.825 494.393 329.336 495.664 329.094 496.906C329.47 496.781 329.853 496.605 330.251 496.364L383.549 464.212C385.043 463.311 386.389 461.764 387.373 459.991C388.022 458.816 388.503 457.549 388.753 456.302C388.377 456.427 387.986 456.608 387.588 456.848Z" fill="#0D129E"/>
<path d="M26.8322 356.675C26.8322 357.716 26.3535 358.742 25.3711 359.336L15.9869 364.994L4.00564 372.22C1.58851 373.677 -1.3972 373.677 -3.82752 372.22L-15.7944 364.994L-25.1786 359.336C-26.161 358.742 -26.6396 357.716 -26.6396 356.675C-26.6396 355.635 -26.161 354.609 -25.1786 354.028L-3.82752 341.145C-1.3972 339.674 1.58851 339.674 4.00564 341.145L25.3711 354.028C26.3535 354.609 26.8322 355.635 26.8322 356.675Z" fill="#3C4EF5"/>
<path d="M26.8322 356.675C26.8322 357.716 26.3535 358.742 25.3711 359.336L15.9869 364.994L4.00564 372.22C1.58851 373.677 -1.3972 373.677 -3.82752 372.22L-15.7944 364.994L-25.1786 359.336C-26.161 358.742 -26.6396 357.716 -26.6396 356.675C-26.6396 355.635 -26.161 354.609 -25.1786 354.028L-3.82752 341.145C-1.3972 339.674 1.58851 339.674 4.00564 341.145L25.3711 354.028C26.3535 354.609 26.8322 355.635 26.8322 356.675Z" stroke="#0D129E" stroke-width="1.53789" stroke-miterlimit="10"/>
<path d="M16.451 346.502C16.451 347.138 16.1583 347.766 15.5574 348.129L9.81864 351.591L2.4905 356.009C1.01143 356.901 -0.814306 356.901 -2.30057 356.009L-9.62031 351.591L-15.3602 348.129C-15.9612 347.766 -16.2539 347.138 -16.2539 346.502C-16.2539 345.867 -15.9612 345.239 -15.3602 344.883L-2.30057 337.003C-0.814306 336.103 1.01143 336.103 2.4905 337.003L15.5574 344.883C16.1583 345.239 16.451 345.867 16.451 346.502Z" fill="#C2C8CF"/>
<path d="M16.451 346.502C16.451 347.138 16.1583 347.766 15.5574 348.129L9.81864 351.591L2.49049 356.009C1.01143 356.901 -0.814306 356.901 -2.30057 356.009L-9.62031 351.591L-15.3602 348.129C-15.9612 347.766 -16.2539 347.138 -16.2539 346.502C-16.2539 345.867 -15.9612 345.239 -15.3602 344.883L-2.30057 337.003C-0.814306 336.103 1.01143 336.103 2.49049 337.003L15.5574 344.883C16.1583 345.239 16.451 345.867 16.451 346.502Z" stroke="#0D129E" stroke-width="1.53789" stroke-miterlimit="10"/>
<path d="M16.451 336.326C16.451 336.961 16.1583 337.589 15.5574 337.952L9.81864 341.414L2.4905 345.832C1.01143 346.725 -0.814306 346.725 -2.30057 345.832L-9.62031 341.414L-15.3602 337.952C-15.9612 337.589 -16.2539 336.961 -16.2539 336.326C-16.2539 335.69 -15.9612 335.062 -15.3602 334.706L-2.30057 326.826C-0.814306 325.926 1.01143 325.926 2.4905 326.826L15.5574 334.706C16.1583 335.062 16.451 335.69 16.451 336.326Z" fill="#C2C8CF"/>
<path d="M16.451 336.326C16.451 336.961 16.1583 337.589 15.5574 337.952L9.81864 341.414L2.49049 345.832C1.01143 346.725 -0.814306 346.725 -2.30057 345.832L-9.62031 341.414L-15.3602 337.952C-15.9612 337.589 -16.2539 336.961 -16.2539 336.326C-16.2539 335.69 -15.9612 335.062 -15.3602 334.706L-2.30057 326.826C-0.814306 325.926 1.01143 325.926 2.49049 326.826L15.5574 334.706C16.1583 335.062 16.451 335.69 16.451 336.326Z" stroke="#0D129E" stroke-width="1.53789" stroke-miterlimit="10"/>
<path d="M16.451 326.154C16.451 326.789 16.1583 327.417 15.5574 327.78L9.81864 331.242L2.4905 335.66C1.01143 336.553 -0.814306 336.553 -2.30057 335.66L-9.62031 331.242L-15.3602 327.78C-15.9612 327.417 -16.2539 326.789 -16.2539 326.154C-16.2539 325.518 -15.9612 324.89 -15.3602 324.534L-2.30057 316.654C-0.814306 315.755 1.01143 315.755 2.4905 316.654L15.5574 324.534C16.1583 324.89 16.451 325.518 16.451 326.154Z" fill="#C2C8CF"/>
<path d="M16.451 326.154C16.451 326.789 16.1583 327.417 15.5574 327.78L9.81864 331.242L2.49049 335.66C1.01143 336.553 -0.814306 336.553 -2.30057 335.66L-9.62031 331.242L-15.3602 327.78C-15.9612 327.417 -16.2539 326.789 -16.2539 326.154C-16.2539 325.518 -15.9612 324.89 -15.3602 324.534L-2.30057 316.654C-0.814306 315.755 1.01143 315.755 2.49049 316.654L15.5574 324.534C16.1583 324.89 16.451 325.518 16.451 326.154Z" stroke="#0D129E" stroke-width="1.53789" stroke-miterlimit="10"/>
<path d="M16.451 315.977C16.451 316.612 16.1583 317.24 15.5574 317.604L9.81864 321.066L2.4905 325.484C1.01143 326.376 -0.814306 326.376 -2.30057 325.484L-9.62031 321.066L-15.3602 317.604C-15.9612 317.24 -16.2539 316.612 -16.2539 315.977C-16.2539 315.341 -15.9612 314.713 -15.3602 314.358L-2.30057 306.478C-0.814306 305.578 1.01143 305.578 2.4905 306.478L15.5574 314.358C16.1583 314.713 16.451 315.341 16.451 315.977Z" fill="#C2C8CF"/>
<path d="M16.451 315.977C16.451 316.612 16.1583 317.24 15.5574 317.604L9.81864 321.066L2.49049 325.484C1.01143 326.376 -0.814306 326.376 -2.30057 325.484L-9.62031 321.066L-15.3602 317.604C-15.9612 317.24 -16.2539 316.612 -16.2539 315.977C-16.2539 315.341 -15.9612 314.713 -15.3602 314.358L-2.30057 306.478C-0.814306 305.578 1.01143 305.578 2.49049 306.478L15.5574 314.358C16.1583 314.713 16.451 315.341 16.451 315.977Z" stroke="#0D129E" stroke-width="1.53789" stroke-miterlimit="10"/>
<path d="M16.451 305.802C16.451 306.438 16.1583 307.065 15.5574 307.429L9.81864 310.891L2.4905 315.309C1.01143 316.201 -0.814306 316.201 -2.30057 315.309L-9.62031 310.891L-15.3602 307.429C-15.9612 307.065 -16.2539 306.438 -16.2539 305.802C-16.2539 305.167 -15.9612 304.539 -15.3602 304.183L-2.30057 296.303C-0.814306 295.403 1.01143 295.403 2.4905 296.303L15.5574 304.183C16.1583 304.539 16.451 305.167 16.451 305.802Z" fill="#C2C8CF"/>
<path d="M16.451 305.802C16.451 306.438 16.1583 307.065 15.5574 307.429L9.81864 310.891L2.49049 315.309C1.01143 316.201 -0.814306 316.201 -2.30057 315.309L-9.62031 310.891L-15.3602 307.429C-15.9612 307.065 -16.2539 306.438 -16.2539 305.802C-16.2539 305.167 -15.9612 304.539 -15.3602 304.183L-2.30057 296.303C-0.814306 295.403 1.01143 295.403 2.49049 296.303L15.5574 304.183C16.1583 304.539 16.451 305.167 16.451 305.802Z" stroke="#0D129E" stroke-width="1.53789" stroke-miterlimit="10"/>
<path d="M16.451 295.623C16.451 296.259 16.1583 296.887 15.5574 297.25L9.81864 300.712L2.4905 305.13C1.01143 306.022 -0.814306 306.022 -2.30057 305.13L-9.62031 300.712L-15.3602 297.25C-15.9612 296.887 -16.2539 296.259 -16.2539 295.623C-16.2539 294.988 -15.9612 294.36 -15.3602 294.004L-2.30057 286.124C-0.814306 285.224 1.01143 285.224 2.4905 286.124L15.5574 294.004C16.1583 294.36 16.451 294.988 16.451 295.623Z" fill="#C2C8CF"/>
<path d="M16.451 295.623C16.451 296.259 16.1583 296.887 15.5574 297.25L9.81864 300.712L2.49049 305.13C1.01143 306.022 -0.814306 306.022 -2.30057 305.13L-9.62031 300.712L-15.3602 297.25C-15.9612 296.887 -16.2539 296.259 -16.2539 295.623C-16.2539 294.988 -15.9612 294.36 -15.3602 294.004L-2.30057 286.124C-0.814306 285.224 1.01143 285.224 2.49049 286.124L15.5574 294.004C16.1583 294.36 16.451 294.988 16.451 295.623Z" stroke="#0D129E" stroke-width="1.53789" stroke-miterlimit="10"/>
<path d="M16.451 285.451C16.451 286.086 16.1583 286.714 15.5574 287.078L9.81864 290.54L2.4905 294.958C1.01143 295.85 -0.814306 295.85 -2.30057 294.958L-9.62031 290.54L-15.3602 287.078C-15.9612 286.714 -16.2539 286.086 -16.2539 285.451C-16.2539 284.816 -15.9612 284.188 -15.3602 283.832L-2.30057 275.952C-0.814306 275.052 1.01143 275.052 2.4905 275.952L15.5574 283.832C16.1583 284.188 16.451 284.816 16.451 285.451Z" fill="#C2C8CF"/>
<path d="M16.451 285.451C16.451 286.086 16.1583 286.714 15.5574 287.078L9.81864 290.54L2.49049 294.958C1.01143 295.85 -0.814306 295.85 -2.30057 294.958L-9.62031 290.54L-15.3602 287.078C-15.9612 286.714 -16.2539 286.086 -16.2539 285.451C-16.2539 284.816 -15.9612 284.188 -15.3602 283.832L-2.30057 275.952C-0.814306 275.052 1.01143 275.052 2.49049 275.952L15.5574 283.832C16.1583 284.188 16.451 284.816 16.451 285.451Z" stroke="#0D129E" stroke-width="1.53789" stroke-miterlimit="10"/>
<path d="M16.451 275.277C16.451 275.912 16.1583 276.54 15.5574 276.904L9.81864 280.365L2.4905 284.783C1.01143 285.676 -0.814306 285.676 -2.30057 284.783L-9.62031 280.365L-15.3602 276.904C-15.9612 276.54 -16.2539 275.912 -16.2539 275.277C-16.2539 274.641 -15.9612 274.013 -15.3602 273.657L-2.30057 265.777C-0.814306 264.878 1.01143 264.878 2.4905 265.777L15.5574 273.657C16.1583 274.013 16.451 274.641 16.451 275.277Z" fill="#C2C8CF"/>
<path d="M16.451 275.277C16.451 275.912 16.1583 276.54 15.5574 276.904L9.81864 280.365L2.49049 284.783C1.01143 285.676 -0.814306 285.676 -2.30057 284.783L-9.62031 280.365L-15.3602 276.904C-15.9612 276.54 -16.2539 275.912 -16.2539 275.277C-16.2539 274.641 -15.9612 274.013 -15.3602 273.657L-2.30057 265.777C-0.814306 264.878 1.01143 264.878 2.49049 265.777L15.5574 273.657C16.1583 274.013 16.451 274.641 16.451 275.277Z" stroke="#0D129E" stroke-width="1.53789" stroke-miterlimit="10"/>
<path d="M17.7147 253.685C17.7147 263.841 9.82156 272.088 0.10149 272.088C-6.86918 272.088 -12.8778 267.861 -15.7652 261.727C-16.8843 259.286 -17.5117 256.557 -17.5117 253.685C-17.5117 243.509 -9.61858 235.281 0.10149 235.281C2.85089 235.281 5.46234 235.938 7.7991 237.128C13.6698 240.103 17.7147 246.401 17.7147 253.685Z" fill="#3C4EF5"/>
<path d="M17.7147 253.685C17.7147 263.841 9.82156 272.088 0.101489 272.088C-6.86918 272.088 -12.8778 267.861 -15.7652 261.727C-16.8843 259.286 -17.5117 256.557 -17.5117 253.685C-17.5117 243.509 -9.61858 235.281 0.101489 235.281C2.85089 235.281 5.46234 235.938 7.79909 237.128C13.6698 240.103 17.7147 246.401 17.7147 253.685Z" stroke="#0D129E" stroke-width="1.53789" stroke-linecap="round" stroke-linejoin="round"/>
<path d="M-10.2656 254.568C-10.2656 248.088 -5.23945 242.849 0.950307 242.849L-10.2656 254.568Z" fill="white"/>
<path d="M-10.2656 254.568C-10.2656 248.088 -5.23945 242.849 0.950307 242.849L-10.2656 254.568Z" fill="#3C4EF5"/>
<path d="M-10.2656 254.568C-10.2656 248.088 -5.23945 242.849 0.950306 242.849" stroke="#0D129E" stroke-width="1.53789" stroke-linecap="round" stroke-linejoin="round"/>
<path d="M204.708 463.761C204.708 464.802 204.23 465.828 203.247 466.422L193.863 472.08L181.882 479.306C179.464 480.764 176.479 480.764 174.048 479.306L162.082 472.08L152.697 466.422C151.715 465.828 151.236 464.802 151.236 463.761C151.236 462.721 151.715 461.696 152.697 461.114L174.048 448.231C176.479 446.76 179.464 446.76 181.882 448.231L203.247 461.114C204.23 461.696 204.708 462.721 204.708 463.761Z" fill="#3C4EF5"/>
<path d="M204.708 463.761C204.708 464.802 204.23 465.828 203.247 466.422L193.863 472.08L181.882 479.306C179.464 480.764 176.479 480.764 174.048 479.306L162.082 472.08L152.697 466.422C151.715 465.828 151.236 464.802 151.236 463.761C151.236 462.721 151.715 461.696 152.697 461.114L174.048 448.231C176.479 446.76 179.464 446.76 181.882 448.231L203.247 461.114C204.23 461.696 204.708 462.721 204.708 463.761Z" stroke="#0D129E" stroke-width="1.53789" stroke-miterlimit="10"/>
<path d="M194.327 453.591C194.327 454.226 194.034 454.854 193.433 455.218L187.695 458.679L180.366 463.097C178.887 463.99 177.062 463.99 175.575 463.097L168.256 458.679L162.516 455.218C161.915 454.854 161.622 454.226 161.622 453.591C161.622 452.955 161.915 452.327 162.516 451.971L175.575 444.091C177.062 443.192 178.887 443.192 180.366 444.091L193.433 451.971C194.034 452.327 194.327 452.955 194.327 453.591Z" fill="#C2C8CF"/>
<path d="M194.327 453.591C194.327 454.226 194.034 454.854 193.433 455.218L187.695 458.679L180.366 463.097C178.887 463.99 177.062 463.99 175.575 463.097L168.256 458.679L162.516 455.218C161.915 454.854 161.622 454.226 161.622 453.591C161.622 452.955 161.915 452.327 162.516 451.971L175.575 444.091C177.062 443.192 178.887 443.192 180.366 444.091L193.433 451.971C194.034 452.327 194.327 452.955 194.327 453.591Z" stroke="#0D129E" stroke-width="1.53789" stroke-miterlimit="10"/>
<path d="M194.327 443.416C194.327 444.051 194.034 444.679 193.433 445.043L187.695 448.504L180.366 452.923C178.887 453.815 177.062 453.815 175.575 452.923L168.256 448.504L162.516 445.043C161.915 444.679 161.622 444.051 161.622 443.416C161.622 442.78 161.915 442.152 162.516 441.797L175.575 433.917C177.062 433.017 178.887 433.017 180.366 433.917L193.433 441.797C194.034 442.152 194.327 442.78 194.327 443.416Z" fill="#C2C8CF"/>
<path d="M194.327 443.416C194.327 444.051 194.034 444.679 193.433 445.043L187.695 448.504L180.366 452.923C178.887 453.815 177.062 453.815 175.575 452.923L168.256 448.504L162.516 445.043C161.915 444.679 161.622 444.051 161.622 443.416C161.622 442.78 161.915 442.152 162.516 441.797L175.575 433.917C177.062 433.017 178.887 433.017 180.366 433.917L193.433 441.797C194.034 442.152 194.327 442.78 194.327 443.416Z" stroke="#0D129E" stroke-width="1.53789" stroke-miterlimit="10"/>
<path d="M194.327 433.242C194.327 433.877 194.034 434.505 193.433 434.868L187.695 438.33L180.366 442.748C178.887 443.641 177.062 443.641 175.575 442.748L168.256 438.33L162.516 434.868C161.915 434.505 161.622 433.877 161.622 433.242C161.622 432.606 161.915 431.978 162.516 431.622L175.575 423.742C177.062 422.842 178.887 422.842 180.366 423.742L193.433 431.622C194.034 431.978 194.327 432.606 194.327 433.242Z" fill="#C2C8CF"/>
<path d="M194.327 433.242C194.327 433.877 194.034 434.505 193.433 434.868L187.695 438.33L180.366 442.748C178.887 443.641 177.062 443.641 175.575 442.748L168.256 438.33L162.516 434.868C161.915 434.505 161.622 433.877 161.622 433.242C161.622 432.606 161.915 431.978 162.516 431.622L175.575 423.742C177.062 422.842 178.887 422.842 180.366 423.742L193.433 431.622C194.034 431.978 194.327 432.606 194.327 433.242Z" stroke="#0D129E" stroke-width="1.53789" stroke-miterlimit="10"/>
<path d="M194.327 423.065C194.327 423.7 194.034 424.328 193.433 424.692L187.695 428.154L180.366 432.572C178.887 433.464 177.062 433.464 175.575 432.572L168.256 428.154L162.516 424.692C161.915 424.328 161.622 423.7 161.622 423.065C161.622 422.43 161.915 421.802 162.516 421.446L175.575 413.566C177.062 412.666 178.887 412.666 180.366 413.566L193.433 421.446C194.034 421.802 194.327 422.43 194.327 423.065Z" fill="#C2C8CF"/>
<path d="M194.327 423.065C194.327 423.7 194.034 424.328 193.433 424.692L187.695 428.154L180.366 432.572C178.887 433.464 177.062 433.464 175.575 432.572L168.256 428.154L162.516 424.692C161.915 424.328 161.622 423.7 161.622 423.065C161.622 422.43 161.915 421.802 162.516 421.446L175.575 413.566C177.062 412.666 178.887 412.666 180.366 413.566L193.433 421.446C194.034 421.802 194.327 422.43 194.327 423.065Z" stroke="#0D129E" stroke-width="1.53789" stroke-miterlimit="10"/>
<path d="M194.327 412.888C194.327 413.524 194.034 414.152 193.433 414.515L187.695 417.977L180.366 422.395C178.887 423.287 177.062 423.287 175.575 422.395L168.256 417.977L162.516 414.515C161.915 414.152 161.622 413.524 161.622 412.888C161.622 412.253 161.915 411.625 162.516 411.269L175.575 403.389C177.062 402.489 178.887 402.489 180.366 403.389L193.433 411.269C194.034 411.625 194.327 412.253 194.327 412.888Z" fill="#C2C8CF"/>
<path d="M194.327 412.888C194.327 413.524 194.034 414.152 193.433 414.515L187.695 417.977L180.366 422.395C178.887 423.287 177.062 423.287 175.575 422.395L168.256 417.977L162.516 414.515C161.915 414.152 161.622 413.524 161.622 412.888C161.622 412.253 161.915 411.625 162.516 411.269L175.575 403.389C177.062 402.489 178.887 402.489 180.366 403.389L193.433 411.269C194.034 411.625 194.327 412.253 194.327 412.888Z" stroke="#0D129E" stroke-width="1.53789" stroke-miterlimit="10"/>
<path d="M194.327 402.712C194.327 403.347 194.034 403.975 193.433 404.338L187.695 407.8L180.366 412.218C178.887 413.111 177.062 413.111 175.575 412.218L168.256 407.8L162.516 404.338C161.915 403.975 161.622 403.347 161.622 402.712C161.622 402.076 161.915 401.448 162.516 401.092L175.575 393.212C177.062 392.312 178.887 392.312 180.366 393.212L193.433 401.092C194.034 401.448 194.327 402.076 194.327 402.712Z" fill="#C2C8CF"/>
<path d="M194.327 402.712C194.327 403.347 194.034 403.975 193.433 404.338L187.695 407.8L180.366 412.218C178.887 413.111 177.062 413.111 175.575 412.218L168.256 407.8L162.516 404.338C161.915 403.975 161.622 403.347 161.622 402.712C161.622 402.076 161.915 401.448 162.516 401.092L175.575 393.212C177.062 392.312 178.887 392.312 180.366 393.212L193.433 401.092C194.034 401.448 194.327 402.076 194.327 402.712Z" stroke="#0D129E" stroke-width="1.53789" stroke-miterlimit="10"/>
<path d="M194.327 392.54C194.327 393.175 194.034 393.803 193.433 394.166L187.695 397.628L180.366 402.046C178.887 402.939 177.062 402.939 175.575 402.046L168.256 397.628L162.516 394.166C161.915 393.803 161.622 393.175 161.622 392.54C161.622 391.904 161.915 391.276 162.516 390.92L175.575 383.04C177.062 382.141 178.887 382.141 180.366 383.04L193.433 390.92C194.034 391.276 194.327 391.904 194.327 392.54Z" fill="#C2C8CF"/>
<path d="M194.327 392.54C194.327 393.175 194.034 393.803 193.433 394.166L187.695 397.628L180.366 402.046C178.887 402.939 177.062 402.939 175.575 402.046L168.256 397.628L162.516 394.166C161.915 393.803 161.622 393.175 161.622 392.54C161.622 391.904 161.915 391.276 162.516 390.92L175.575 383.04C177.062 382.141 178.887 382.141 180.366 383.04L193.433 390.92C194.034 391.276 194.327 391.904 194.327 392.54Z" stroke="#0D129E" stroke-width="1.53789" stroke-miterlimit="10"/>
<path d="M194.327 382.362C194.327 382.998 194.034 383.626 193.433 383.989L187.695 387.451L180.366 391.869C178.887 392.762 177.062 392.762 175.575 391.869L168.256 387.451L162.516 383.989C161.915 383.626 161.622 382.998 161.622 382.362C161.622 381.727 161.915 381.099 162.516 380.743L175.575 372.863C177.062 371.963 178.887 371.963 180.366 372.863L193.433 380.743C194.034 381.099 194.327 381.727 194.327 382.362Z" fill="#C2C8CF"/>
<path d="M194.327 382.362C194.327 382.998 194.034 383.626 193.433 383.989L187.695 387.451L180.366 391.869C178.887 392.762 177.062 392.762 175.575 391.869L168.256 387.451L162.516 383.989C161.915 383.626 161.622 382.998 161.622 382.362C161.622 381.727 161.915 381.099 162.516 380.743L175.575 372.863C177.062 371.963 178.887 371.963 180.366 372.863L193.433 380.743C194.034 381.099 194.327 381.727 194.327 382.362Z" stroke="#0D129E" stroke-width="1.53789" stroke-miterlimit="10"/>
<path d="M195.6 360.775C195.6 370.931 187.707 379.178 177.987 379.178C171.017 379.178 165.008 374.952 162.121 368.818C161.001 366.377 160.374 363.648 160.374 360.775C160.374 350.599 168.267 342.372 177.987 342.372C180.737 342.372 183.348 343.029 185.685 344.219C191.556 347.194 195.6 353.492 195.6 360.775Z" fill="#3C4EF5"/>
<path d="M195.6 360.775C195.6 370.931 187.707 379.178 177.987 379.178C171.017 379.178 165.008 374.952 162.121 368.818C161.001 366.377 160.374 363.648 160.374 360.775C160.374 350.599 168.267 342.372 177.987 342.372C180.737 342.372 183.348 343.029 185.685 344.219C191.556 347.194 195.6 353.492 195.6 360.775Z" stroke="#0D129E" stroke-width="1.53789" stroke-linecap="round" stroke-linejoin="round"/>
<path d="M167.612 361.659C167.612 355.179 172.638 349.94 178.828 349.94L167.612 361.659Z" fill="white"/>
<path d="M167.612 361.659C167.612 355.179 172.638 349.94 178.828 349.94L167.612 361.659Z" fill="#3C4EF5"/>
<path d="M167.612 361.659C167.612 355.179 172.638 349.94 178.828 349.94" stroke="#0D129E" stroke-width="1.53789" stroke-linecap="round" stroke-linejoin="round"/>
<path d="M383.376 358.177C383.376 359.218 382.897 360.244 381.915 360.838L372.531 366.496L360.55 373.722C358.132 375.179 355.147 375.179 352.716 373.722L340.75 366.496L331.365 360.838C330.383 360.244 329.904 359.218 329.904 358.177C329.904 357.137 330.383 356.112 331.365 355.53L352.716 342.647C355.147 341.176 358.132 341.176 360.55 342.647L381.915 355.53C382.897 356.112 383.376 357.137 383.376 358.177Z" fill="#3C4EF5"/>
<path d="M383.376 358.177C383.376 359.218 382.897 360.244 381.915 360.838L372.531 366.496L360.55 373.722C358.132 375.179 355.147 375.179 352.716 373.722L340.75 366.496L331.365 360.838C330.383 360.244 329.904 359.218 329.904 358.177C329.904 357.137 330.383 356.112 331.365 355.53L352.716 342.647C355.147 341.176 358.132 341.176 360.55 342.647L381.915 355.53C382.897 356.112 383.376 357.137 383.376 358.177Z" stroke="#0D129E" stroke-width="1.53789" stroke-miterlimit="10"/>
<path d="M372.995 348.007C372.995 348.642 372.702 349.27 372.101 349.634L366.363 353.095L359.034 357.513C357.555 358.406 355.73 358.406 354.243 357.513L346.924 353.095L341.184 349.634C340.583 349.27 340.29 348.642 340.29 348.007C340.29 347.371 340.583 346.743 341.184 346.387L354.243 338.507C355.73 337.608 357.555 337.608 359.034 338.507L372.101 346.387C372.702 346.743 372.995 347.371 372.995 348.007Z" fill="#C2C8CF"/>
<path d="M372.995 348.007C372.995 348.642 372.702 349.27 372.101 349.634L366.363 353.095L359.034 357.513C357.555 358.406 355.73 358.406 354.243 357.513L346.924 353.095L341.184 349.634C340.583 349.27 340.29 348.642 340.29 348.007C340.29 347.371 340.583 346.743 341.184 346.387L354.243 338.507C355.73 337.608 357.555 337.608 359.034 338.507L372.101 346.387C372.702 346.743 372.995 347.371 372.995 348.007Z" stroke="#0D129E" stroke-width="1.53789" stroke-miterlimit="10"/>
<path d="M372.995 337.83C372.995 338.465 372.702 339.093 372.101 339.457L366.363 342.918L359.034 347.336C357.555 348.229 355.73 348.229 354.243 347.336L346.924 342.918L341.184 339.457C340.583 339.093 340.29 338.465 340.29 337.83C340.29 337.194 340.583 336.566 341.184 336.21L354.243 328.33C355.73 327.431 357.555 327.431 359.034 328.33L372.101 336.21C372.702 336.566 372.995 337.194 372.995 337.83Z" fill="#C2C8CF"/>
<path d="M372.995 337.83C372.995 338.465 372.702 339.093 372.101 339.457L366.363 342.918L359.034 347.336C357.555 348.229 355.73 348.229 354.243 347.336L346.924 342.918L341.184 339.457C340.583 339.093 340.29 338.465 340.29 337.83C340.29 337.194 340.583 336.566 341.184 336.21L354.243 328.33C355.73 327.431 357.555 327.431 359.034 328.33L372.101 336.21C372.702 336.566 372.995 337.194 372.995 337.83Z" stroke="#0D129E" stroke-width="1.53789" stroke-miterlimit="10"/>
<path d="M372.995 327.658C372.995 328.293 372.702 328.921 372.101 329.285L366.363 332.746L359.034 337.165C357.555 338.057 355.73 338.057 354.243 337.165L346.924 332.746L341.184 329.285C340.583 328.921 340.29 328.293 340.29 327.658C340.29 327.022 340.583 326.394 341.184 326.038L354.243 318.159C355.73 317.259 357.555 317.259 359.034 318.159L372.101 326.038C372.702 326.394 372.995 327.022 372.995 327.658Z" fill="#C2C8CF"/>
<path d="M372.995 327.658C372.995 328.293 372.702 328.921 372.101 329.285L366.363 332.746L359.034 337.165C357.555 338.057 355.73 338.057 354.243 337.165L346.924 332.746L341.184 329.285C340.583 328.921 340.29 328.293 340.29 327.658C340.29 327.022 340.583 326.394 341.184 326.038L354.243 318.159C355.73 317.259 357.555 317.259 359.034 318.159L372.101 326.038C372.702 326.394 372.995 327.022 372.995 327.658Z" stroke="#0D129E" stroke-width="1.53789" stroke-miterlimit="10"/>
<path d="M372.995 317.481C372.995 318.116 372.702 318.744 372.101 319.108L366.363 322.57L359.034 326.988C357.555 327.88 355.73 327.88 354.243 326.988L346.924 322.57L341.184 319.108C340.583 318.744 340.29 318.116 340.29 317.481C340.29 316.846 340.583 316.218 341.184 315.862L354.243 307.982C355.73 307.082 357.555 307.082 359.034 307.982L372.101 315.862C372.702 316.218 372.995 316.846 372.995 317.481Z" fill="#C2C8CF"/>
<path d="M372.995 317.481C372.995 318.116 372.702 318.744 372.101 319.108L366.363 322.57L359.034 326.988C357.555 327.88 355.73 327.88 354.243 326.988L346.924 322.57L341.184 319.108C340.583 318.744 340.29 318.116 340.29 317.481C340.29 316.846 340.583 316.218 341.184 315.862L354.243 307.982C355.73 307.082 357.555 307.082 359.034 307.982L372.101 315.862C372.702 316.218 372.995 316.846 372.995 317.481Z" stroke="#0D129E" stroke-width="1.53789" stroke-miterlimit="10"/>
<path d="M372.995 307.304C372.995 307.94 372.702 308.568 372.101 308.931L366.363 312.393L359.034 316.811C357.555 317.703 355.73 317.703 354.243 316.811L346.924 312.393L341.184 308.931C340.583 308.568 340.29 307.94 340.29 307.304C340.29 306.669 340.583 306.041 341.184 305.685L354.243 297.805C355.73 296.905 357.555 296.905 359.034 297.805L372.101 305.685C372.702 306.041 372.995 306.669 372.995 307.304Z" fill="#C2C8CF"/>
<path d="M372.995 307.304C372.995 307.94 372.702 308.568 372.101 308.931L366.363 312.393L359.034 316.811C357.555 317.703 355.73 317.703 354.243 316.811L346.924 312.393L341.184 308.931C340.583 308.568 340.29 307.94 340.29 307.304C340.29 306.669 340.583 306.041 341.184 305.685L354.243 297.805C355.73 296.905 357.555 296.905 359.034 297.805L372.101 305.685C372.702 306.041 372.995 306.669 372.995 307.304Z" stroke="#0D129E" stroke-width="1.53789" stroke-miterlimit="10"/>
<path d="M372.995 297.128C372.995 297.763 372.702 298.391 372.101 298.754L366.363 302.216L359.034 306.634C357.555 307.527 355.73 307.527 354.243 306.634L346.924 302.216L341.184 298.754C340.583 298.391 340.29 297.763 340.29 297.128C340.29 296.492 340.583 295.864 341.184 295.508L354.243 287.628C355.73 286.728 357.555 286.728 359.034 287.628L372.101 295.508C372.702 295.864 372.995 296.492 372.995 297.128Z" fill="#C2C8CF"/>
<path d="M372.995 297.128C372.995 297.763 372.702 298.391 372.101 298.754L366.363 302.216L359.034 306.634C357.555 307.527 355.73 307.527 354.243 306.634L346.924 302.216L341.184 298.754C340.583 298.391 340.29 297.763 340.29 297.128C340.29 296.492 340.583 295.864 341.184 295.508L354.243 287.628C355.73 286.728 357.555 286.728 359.034 287.628L372.101 295.508C372.702 295.864 372.995 296.492 372.995 297.128Z" stroke="#0D129E" stroke-width="1.53789" stroke-miterlimit="10"/>
<path d="M372.995 286.956C372.995 287.591 372.702 288.219 372.101 288.583L366.363 292.044L359.034 296.462C357.555 297.355 355.73 297.355 354.243 296.462L346.924 292.044L341.184 288.583C340.583 288.219 340.29 287.591 340.29 286.956C340.29 286.32 340.583 285.692 341.184 285.336L354.243 277.456C355.73 276.557 357.555 276.557 359.034 277.456L372.101 285.336C372.702 285.692 372.995 286.32 372.995 286.956Z" fill="#C2C8CF"/>
<path d="M372.995 286.956C372.995 287.591 372.702 288.219 372.101 288.583L366.363 292.044L359.034 296.462C357.555 297.355 355.73 297.355 354.243 296.462L346.924 292.044L341.184 288.583C340.583 288.219 340.29 287.591 340.29 286.956C340.29 286.32 340.583 285.692 341.184 285.336L354.243 277.456C355.73 276.557 357.555 276.557 359.034 277.456L372.101 285.336C372.702 285.692 372.995 286.32 372.995 286.956Z" stroke="#0D129E" stroke-width="1.53789" stroke-miterlimit="10"/>
<path d="M372.995 276.781C372.995 277.416 372.702 278.044 372.101 278.408L366.363 281.869L359.034 286.288C357.555 287.18 355.73 287.18 354.243 286.288L346.924 281.869L341.184 278.408C340.583 278.044 340.29 277.416 340.29 276.781C340.29 276.145 340.583 275.517 341.184 275.161L354.243 267.282C355.73 266.382 357.555 266.382 359.034 267.282L372.101 275.161C372.702 275.517 372.995 276.145 372.995 276.781Z" fill="#C2C8CF"/>
<path d="M372.995 276.781C372.995 277.416 372.702 278.044 372.101 278.408L366.363 281.869L359.034 286.288C357.555 287.18 355.73 287.18 354.243 286.288L346.924 281.869L341.184 278.408C340.583 278.044 340.29 277.416 340.29 276.781C340.29 276.145 340.583 275.517 341.184 275.161L354.243 267.282C355.73 266.382 357.555 266.382 359.034 267.282L372.101 275.161C372.702 275.517 372.995 276.145 372.995 276.781Z" stroke="#0D129E" stroke-width="1.53789" stroke-miterlimit="10"/>
<path d="M374.268 255.194C374.268 265.35 366.375 273.597 356.655 273.597C349.685 273.597 343.676 269.371 340.789 263.237C339.669 260.795 339.042 258.067 339.042 255.194C339.042 245.018 346.935 236.791 356.655 236.791C359.405 236.791 362.016 237.448 364.353 238.637C370.223 241.612 374.268 247.911 374.268 255.194Z" fill="#3C4EF5"/>
<path d="M374.268 255.194C374.268 265.35 366.375 273.597 356.655 273.597C349.685 273.597 343.676 269.371 340.789 263.237C339.669 260.795 339.042 258.067 339.042 255.194C339.042 245.018 346.935 236.791 356.655 236.791C359.405 236.791 362.016 237.448 364.353 238.637C370.223 241.612 374.268 247.911 374.268 255.194Z" stroke="#0D129E" stroke-width="1.53789" stroke-linecap="round" stroke-linejoin="round"/>
<path d="M346.287 256.075C346.287 249.595 351.313 244.356 357.503 244.356L346.287 256.075Z" fill="white"/>
<path d="M346.287 256.075C346.287 249.595 351.313 244.356 357.503 244.356L346.287 256.075Z" fill="#3C4EF5"/>
<path d="M346.287 256.075C346.287 249.595 351.313 244.356 357.503 244.356" stroke="#0D129E" stroke-width="1.53789" stroke-linecap="round" stroke-linejoin="round"/>
<path d="M153.069 532.735C153.069 534.713 154.398 537.118 156.037 538.107C157.676 539.096 159.005 538.294 159.005 536.317C159.005 534.339 157.676 531.934 156.037 530.945C154.398 529.956 153.069 530.757 153.069 532.735Z" fill="#0D129E"/>
<path d="M144.068 526.981C144.068 528.959 145.397 531.364 147.036 532.353C148.675 533.342 150.004 532.54 150.004 530.563C150.004 528.585 148.675 526.18 147.036 525.191C145.397 524.202 144.068 525.003 144.068 526.981Z" fill="#0D129E"/>
<path d="M135.076 521.666C135.076 523.644 136.405 526.049 138.044 527.038C139.683 528.027 141.012 527.225 141.012 525.248C141.012 523.27 139.683 520.865 138.044 519.876C136.405 518.887 135.076 519.688 135.076 521.666Z" fill="#0D129E"/>
<path d="M126.212 516.009C126.212 517.987 127.541 520.392 129.18 521.381C130.818 522.37 132.147 521.568 132.147 519.592C132.147 517.614 130.818 515.209 129.18 514.22C127.541 513.231 126.212 514.032 126.212 516.009Z" fill="#0D129E"/>
<path d="M153.119 543.702C153.119 545.68 154.448 548.085 156.087 549.074C157.725 550.063 159.055 549.26 159.055 547.284C159.055 545.306 157.725 542.901 156.087 541.912C154.448 540.923 153.119 541.724 153.119 543.702Z" fill="#0D129E"/>
<path d="M144.118 537.945C144.118 539.923 145.447 542.328 147.086 543.317C148.724 544.306 150.054 543.504 150.054 541.528C150.054 539.55 148.724 537.145 147.086 536.156C145.447 535.167 144.118 535.968 144.118 537.945Z" fill="#0D129E"/>
<path d="M135.116 532.63C135.116 534.608 136.445 537.013 138.084 538.002C139.723 538.991 141.052 538.189 141.052 536.212C141.052 534.234 139.723 531.829 138.084 530.84C136.445 529.851 135.116 530.652 135.116 532.63Z" fill="#0D129E"/>
<path d="M126.26 526.976C126.26 528.954 127.589 531.359 129.227 532.348C130.866 533.337 132.195 532.535 132.195 530.558C132.195 528.581 130.866 526.175 129.227 525.186C127.589 524.198 126.26 524.998 126.26 526.976Z" fill="#0D129E"/>
<path d="M153.149 554.666C153.149 556.644 154.479 559.049 156.117 560.038C157.756 561.027 159.085 560.225 159.085 558.248C159.085 556.27 157.756 553.865 156.117 552.876C154.479 551.887 153.149 552.688 153.149 554.666Z" fill="#0D129E"/>
<path d="M144.156 548.912C144.156 550.89 145.485 553.295 147.124 554.284C148.763 555.273 150.092 554.471 150.092 552.494C150.092 550.517 148.763 548.111 147.124 547.122C145.485 546.134 144.156 546.934 144.156 548.912Z" fill="#0D129E"/>
<path d="M135.165 543.6C135.165 545.578 136.494 547.983 138.133 548.972C139.771 549.961 141.1 549.158 141.1 547.182C141.1 545.204 139.771 542.799 138.133 541.81C136.494 540.821 135.165 541.622 135.165 543.6Z" fill="#0D129E"/>
<path d="M126.31 537.938C126.31 539.916 127.639 542.321 129.277 543.31C130.916 544.299 132.245 543.497 132.245 541.52C132.245 539.543 130.916 537.137 129.277 536.149C127.639 535.16 126.31 535.961 126.31 537.938Z" fill="#0D129E"/>
<path d="M153.188 565.635C153.188 567.613 154.517 570.018 156.155 571.007C157.794 571.996 159.123 571.194 159.123 569.218C159.123 567.24 157.794 564.835 156.155 563.846C154.517 562.857 153.188 563.658 153.188 565.635Z" fill="#0D129E"/>
<path d="M144.196 559.881C144.196 561.859 145.525 564.264 147.164 565.253C148.803 566.242 150.132 565.44 150.132 563.464C150.132 561.486 148.803 559.081 147.164 558.092C145.525 557.103 144.196 557.904 144.196 559.881Z" fill="#0D129E"/>
<path d="M135.203 554.561C135.203 556.539 136.532 558.944 138.171 559.933C139.809 560.922 141.139 560.12 141.139 558.143C141.139 556.165 139.809 553.76 138.171 552.771C136.532 551.782 135.203 552.583 135.203 554.561Z" fill="#0D129E"/>
<path d="M126.348 548.912C126.348 550.89 127.677 553.295 129.315 554.284C130.954 555.273 132.283 554.471 132.283 552.494C132.283 550.517 130.954 548.111 129.315 547.122C127.677 546.134 126.348 546.934 126.348 548.912Z" fill="#0D129E"/>
<path d="M153.246 576.6C153.246 578.578 154.575 580.983 156.214 581.972C157.852 582.961 159.182 582.158 159.182 580.182C159.182 578.204 157.852 575.799 156.214 574.81C154.575 573.821 153.246 574.622 153.246 576.6Z" fill="#0D129E"/>
<path d="M144.253 570.848C144.253 572.826 145.582 575.231 147.221 576.22C148.859 577.209 150.188 576.407 150.188 574.43C150.188 572.452 148.859 570.047 147.221 569.058C145.582 568.069 144.253 568.87 144.253 570.848Z" fill="#0D129E"/>
<path d="M135.243 565.531C135.243 567.509 136.572 569.914 138.211 570.903C139.849 571.892 141.179 571.09 141.179 569.113C141.179 567.135 139.849 564.73 138.211 563.741C136.572 562.752 135.243 563.553 135.243 565.531Z" fill="#0D129E"/>
<path d="M126.388 559.877C126.388 561.854 127.717 564.26 129.355 565.249C130.994 566.237 132.323 565.435 132.323 563.459C132.323 561.481 130.994 559.076 129.355 558.087C127.717 557.098 126.388 557.899 126.388 559.877Z" fill="#0D129E"/>
<path d="M153.294 587.569C153.294 589.547 154.623 591.952 156.262 592.941C157.9 593.93 159.229 593.128 159.229 591.151C159.229 589.173 157.9 586.768 156.262 585.779C154.623 584.79 153.294 585.591 153.294 587.569Z" fill="#0D129E"/>
<path d="M144.293 581.813C144.293 583.79 145.622 586.196 147.261 587.185C148.899 588.173 150.228 587.371 150.228 585.395C150.228 583.417 148.899 581.012 147.261 580.023C145.622 579.034 144.293 579.835 144.293 581.813Z" fill="#0D129E"/>
<path d="M135.301 576.5C135.301 578.477 136.63 580.883 138.269 581.872C139.907 582.86 141.236 582.058 141.236 580.082C141.236 578.104 139.907 575.699 138.269 574.71C136.63 573.721 135.301 574.522 135.301 576.5Z" fill="#0D129E"/>
<path d="M126.444 570.848C126.444 572.826 127.773 575.231 129.412 576.22C131.051 577.209 132.38 576.407 132.38 574.43C132.38 572.452 131.051 570.047 129.412 569.058C127.773 568.069 126.444 568.87 126.444 570.848Z" fill="#0D129E"/>
<mask id="mask0_1297_10582" style="mask-type:luminance" maskUnits="userSpaceOnUse" x="-37" y="417" width="169" height="176">
<path d="M-36.667 417.513H131.272V592.983H-36.667V417.513Z" fill="white"/>
</mask>
<g mask="url(#mask0_1297_10582)">
<mask id="mask1_1297_10582" style="mask-type:luminance" maskUnits="userSpaceOnUse" x="-88" y="350" width="273" height="305">
<path d="M-87.4277 350.457L181.256 543.801L184.511 654.898L-84.1728 461.554L-87.4277 350.457Z" fill="white"/>
</mask>
<g mask="url(#mask1_1297_10582)">
<path d="M2.10742 460.36L3.02526 487.101" stroke="white" stroke-width="1.53789" stroke-linecap="round" stroke-linejoin="round"/>
<path d="M9.57812 471.833L10.0212 484.743" stroke="white" stroke-width="1.53789" stroke-linecap="round" stroke-linejoin="round"/>
<path d="M67.459 507.935L67.929 521.629" stroke="white" stroke-width="1.53789" stroke-linecap="round" stroke-linejoin="round"/>
<path d="M60.2168 502.883L60.7206 517.561" stroke="white" stroke-width="1.53789" stroke-linecap="round" stroke-linejoin="round"/>
<path d="M52.9805 498.454L53.4753 512.87" stroke="white" stroke-width="1.53789" stroke-linecap="round" stroke-linejoin="round"/>
<path d="M45.499 486.728L46.4855 515.47" stroke="white" stroke-width="1.53789" stroke-linecap="round" stroke-linejoin="round"/>
<path d="M38.2305 481.691L39.2498 511.389" stroke="white" stroke-width="1.53789" stroke-linecap="round" stroke-linejoin="round"/>
<path d="M31.1123 480.451L31.9038 503.51" stroke="white" stroke-width="1.53789" stroke-linecap="round" stroke-linejoin="round"/>
<path d="M23.9482 477.583L24.623 497.243" stroke="white" stroke-width="1.53789" stroke-linecap="round" stroke-linejoin="round"/>
<path d="M16.8672 477.127L17.2605 488.587" stroke="white" stroke-width="1.53789" stroke-linecap="round" stroke-linejoin="round"/>
<path d="M74.5146 507.042L75.3595 531.657" stroke="white" stroke-width="1.53789" stroke-linecap="round" stroke-linejoin="round"/>
<path d="M81.6113 507.562L82.7335 540.258" stroke="white" stroke-width="1.53789" stroke-linecap="round" stroke-linejoin="round"/>
</g>
</g>
<mask id="mask2_1297_10582" style="mask-type:luminance" maskUnits="userSpaceOnUse" x="122" y="67" width="157" height="164">
<path d="M122.175 67.6301H278.118V230.567H122.175V67.6301Z" fill="white"/>
</mask>
<g mask="url(#mask2_1297_10582)">
<path d="M240.02 161.963C244.193 160.608 244.459 153.112 244.89 150.494C245.856 145.238 240.279 138.776 226.153 133.167C206.005 125.166 178.352 122.353 164.389 126.884C159.939 128.328 157.04 130.204 156.417 132.558C153.785 143.097 153.12 148.469 166.846 153.92C186.995 161.921 226.057 166.494 240.02 161.963Z" fill="#3C4EF5"/>
<path d="M240.02 161.963C244.193 160.608 244.459 153.112 244.89 150.494C245.856 145.238 240.279 138.776 226.153 133.167C206.005 125.166 178.352 122.353 164.389 126.884C159.939 128.328 157.04 130.204 156.417 132.558C153.785 143.097 153.12 148.469 166.846 153.92C186.995 161.921 226.057 166.494 240.02 161.963Z" fill="#3C4EF5" stroke="#0D129E" stroke-width="1.53789" stroke-miterlimit="10"/>
<path d="M235.45 166.366C249.354 161.274 244.233 150.367 224.013 142.005C203.792 133.643 176.129 130.992 162.225 136.084C148.321 141.176 153.441 152.083 173.661 160.445C193.882 168.806 221.545 171.457 235.45 166.366Z" fill="#0D129E"/>
<path d="M235.45 166.366C249.354 161.274 244.233 150.367 224.013 142.005C203.792 133.643 176.129 130.992 162.225 136.084C148.321 141.176 153.441 152.083 173.661 160.445C193.882 168.806 221.545 171.457 235.45 166.366Z" stroke="#0D129E" stroke-width="1.53789" stroke-miterlimit="10"/>
<path d="M229.085 163.733C217.6 167.939 194.75 165.749 178.048 158.842C161.346 151.935 157.117 142.926 168.601 138.72C180.086 134.515 202.936 136.704 219.638 143.611C236.34 150.518 240.57 159.527 229.085 163.733Z" fill="#00EDBE"/>
<path d="M218.647 153.436C219.746 153.034 221.008 152.759 222.684 152.785L197.944 142.56C197.009 142.173 195.733 142.05 195.094 142.284L191.458 143.615C190.819 143.848 191.059 144.351 191.994 144.738L216.734 154.963C216.768 154.311 217.549 153.838 218.647 153.436Z" fill="#141BEB"/>
<path d="M181.739 144.166C180.641 144.568 179.377 144.842 177.701 144.816L202.441 155.041C203.377 155.428 204.653 155.552 205.292 155.318L208.929 153.987C209.568 153.753 209.327 153.25 208.391 152.863L183.651 142.638C183.617 143.29 182.837 143.764 181.739 144.166Z" fill="#141BEB"/>
<path d="M203.308 159.056C204.406 158.654 205.668 158.379 207.344 158.405L182.605 148.18C181.669 147.793 180.393 147.67 179.754 147.903L176.118 149.234C175.479 149.468 175.719 149.971 176.654 150.358L201.394 160.583C201.428 159.931 202.209 159.458 203.308 159.056Z" fill="#141BEB"/>
</g>
<path d="M182.832 187.671C182.832 187.671 184.173 185.034 185.592 183.07C185.604 178.798 189.37 185.338 190.705 183.265C191.351 182.253 189.911 186.958 190.642 185.853C191.97 183.843 193.576 183.692 195.123 181.585C196.455 179.771 201.946 181.614 203.375 179.916C204.708 178.319 198.762 173.446 200.108 172.09C201.634 170.49 207.261 171.911 207.747 169.726C210.076 167.581 201.622 166.553 201.809 164.403C202.106 162.354 202.536 190.317 202.105 187.528C201.581 183.879 195.374 184.273 194.833 181.28C194.378 178.765 204.106 177.746 203.854 175.437C203.581 172.872 197.513 167.954 200.089 166.427C201.55 165.514 200.295 159.474 199.935 158.354" stroke="white" stroke-width="1.53789" stroke-linecap="round" stroke-linejoin="round"/>
<path d="M212.698 298.421C212.698 312.525 193.615 323.958 170.075 323.958C146.535 323.958 127.452 312.525 127.452 298.421C127.452 284.316 146.535 272.883 170.075 272.883C193.615 272.883 212.698 284.316 212.698 298.421Z" fill="#0C0C0C" stroke="#0D129E" stroke-width="1.53789" stroke-linecap="round" stroke-linejoin="round"/>
<path d="M212.698 298.421C212.698 312.525 193.615 323.958 170.075 323.958C146.535 323.958 127.452 312.525 127.452 298.421C127.452 284.316 146.535 272.883 170.075 272.883C193.615 272.883 212.698 284.316 212.698 298.421Z" fill="#0C0F61"/>
<path d="M190.261 295.735C190.261 296.519 189.899 297.295 189.158 297.743L182.073 302.015L173.028 307.469C171.204 308.57 168.95 308.57 167.116 307.469L158.079 302.015L150.996 297.743C150.255 297.295 149.894 296.519 149.894 295.735C149.894 294.95 150.255 294.174 150.996 293.737L167.116 284.011C168.95 282.899 171.204 282.899 173.028 284.011L189.158 293.737C189.899 294.174 190.261 294.95 190.261 295.735Z" fill="#3C4EF5"/>
<path d="M190.261 295.735C190.261 296.519 189.899 297.295 189.158 297.743L182.073 302.015L173.028 307.469C171.204 308.57 168.95 308.57 167.116 307.469L158.079 302.015L150.996 297.743C150.255 297.295 149.894 296.519 149.894 295.735C149.894 294.95 150.255 294.174 150.996 293.737L167.116 284.011C168.95 282.899 171.204 282.899 173.028 284.011L189.158 293.737C189.899 294.174 190.261 294.95 190.261 295.735Z" stroke="#0D129E" stroke-width="1.53789" stroke-linecap="round" stroke-linejoin="round"/>
<path d="M190.261 283.356C190.261 284.141 189.899 284.917 189.158 285.364L182.073 289.637L173.028 295.09C171.204 296.192 168.95 296.192 167.116 295.09L158.079 289.637L150.996 285.364C150.255 284.917 149.894 284.141 149.894 283.356C149.894 282.572 150.255 281.796 150.996 281.358L167.116 271.632C168.95 270.521 171.204 270.521 173.028 271.632L189.158 281.358C189.899 281.796 190.261 282.572 190.261 283.356Z" fill="#3C4EF5"/>
<path d="M190.261 283.356C190.261 284.141 189.899 284.917 189.158 285.364L182.073 289.637L173.028 295.09C171.204 296.192 168.95 296.192 167.116 295.09L158.079 289.637L150.996 285.364C150.255 284.917 149.894 284.141 149.894 283.356C149.894 282.572 150.255 281.796 150.996 281.358L167.116 271.632C168.95 270.521 171.204 270.521 173.028 271.632L189.158 281.358C189.899 281.796 190.261 282.572 190.261 283.356Z" stroke="#0D129E" stroke-width="1.53789" stroke-linecap="round" stroke-linejoin="round"/>
<path d="M190.261 270.988C190.261 271.772 189.899 272.548 189.158 272.996L182.073 277.268L173.028 282.722C171.204 283.823 168.95 283.823 167.116 282.722L158.079 277.268L150.996 272.996C150.255 272.548 149.894 271.772 149.894 270.988C149.894 270.203 150.255 269.427 150.996 268.99L167.116 259.264C168.95 258.152 171.204 258.152 173.028 259.264L189.158 268.99C189.899 269.427 190.261 270.203 190.261 270.988Z" fill="#3C4EF5"/>
<path d="M190.261 270.988C190.261 271.772 189.899 272.548 189.158 272.996L182.073 277.268L173.028 282.722C171.204 283.823 168.95 283.823 167.116 282.722L158.079 277.268L150.996 272.996C150.255 272.548 149.894 271.772 149.894 270.988C149.894 270.203 150.255 269.427 150.996 268.99L167.116 259.264C168.95 258.152 171.204 258.152 173.028 259.264L189.158 268.99C189.899 269.427 190.261 270.203 190.261 270.988Z" stroke="#0D129E" stroke-width="1.53789" stroke-linecap="round" stroke-linejoin="round"/>
<path d="M190.261 258.609C190.261 259.394 189.899 260.17 189.158 260.617L182.073 264.89L173.028 270.343C171.204 271.445 168.95 271.445 167.116 270.343L158.079 264.89L150.996 260.617C150.255 260.17 149.894 259.394 149.894 258.609C149.894 257.825 150.255 257.049 150.996 256.611L167.116 246.885C168.95 245.774 171.204 245.774 173.028 246.885L189.158 256.611C189.899 257.049 190.261 257.825 190.261 258.609Z" fill="#3C4EF5"/>
<path d="M190.261 258.609C190.261 259.394 189.899 260.17 189.158 260.617L182.073 264.89L173.028 270.343C171.204 271.445 168.95 271.445 167.116 270.343L158.079 264.89L150.996 260.617C150.255 260.17 149.894 259.394 149.894 258.609C149.894 257.825 150.255 257.049 150.996 256.611L167.116 246.885C168.95 245.774 171.204 245.774 173.028 246.885L189.158 256.611C189.899 257.049 190.261 257.825 190.261 258.609Z" stroke="#0D129E" stroke-width="1.53789" stroke-linecap="round" stroke-linejoin="round"/>
<path d="M190.261 246.238C190.261 247.022 189.899 247.798 189.158 248.246L182.073 252.518L173.028 257.972C171.204 259.073 168.95 259.073 167.116 257.972L158.079 252.518L150.996 248.246C150.255 247.798 149.894 247.022 149.894 246.238C149.894 245.453 150.255 244.677 150.996 244.24L167.116 234.514C168.95 233.402 171.204 233.402 173.028 234.514L189.158 244.24C189.899 244.677 190.261 245.453 190.261 246.238Z" fill="#3C4EF5"/>
<path d="M190.261 246.238C190.261 247.022 189.899 247.798 189.158 248.246L182.073 252.518L173.028 257.972C171.204 259.073 168.95 259.073 167.116 257.972L158.079 252.518L150.996 248.246C150.255 247.798 149.894 247.022 149.894 246.238C149.894 245.453 150.255 244.677 150.996 244.24L167.116 234.514C168.95 233.402 171.204 233.402 173.028 234.514L189.158 244.24C189.899 244.677 190.261 245.453 190.261 246.238Z" stroke="#0D129E" stroke-width="1.53789" stroke-linecap="round" stroke-linejoin="round"/>
<path d="M190.261 233.867C190.261 234.651 189.899 235.427 189.158 235.874L182.073 240.147L173.028 245.601C171.204 246.702 168.95 246.702 167.116 245.601L158.079 240.147L150.996 235.874C150.255 235.427 149.894 234.651 149.894 233.867C149.894 233.082 150.255 232.306 150.996 231.869L167.116 222.143C168.95 221.031 171.204 221.031 173.028 222.143L189.158 231.869C189.899 232.306 190.261 233.082 190.261 233.867Z" fill="#3C4EF5"/>
<path d="M190.261 233.867C190.261 234.651 189.899 235.427 189.158 235.874L182.073 240.147L173.028 245.601C171.204 246.702 168.95 246.702 167.116 245.601L158.079 240.147L150.996 235.874C150.255 235.427 149.894 234.651 149.894 233.867C149.894 233.082 150.255 232.306 150.996 231.869L167.116 222.143C168.95 221.031 171.204 221.031 173.028 222.143L189.158 231.869C189.899 232.306 190.261 233.082 190.261 233.867Z" stroke="#0D129E" stroke-width="1.53789" stroke-linecap="round" stroke-linejoin="round"/>
<path d="M190.261 221.488C190.261 222.273 189.899 223.049 189.158 223.496L182.073 227.769L173.028 233.222C171.204 234.324 168.95 234.324 167.116 233.222L158.079 227.769L150.996 223.496C150.255 223.049 149.894 222.273 149.894 221.488C149.894 220.704 150.255 219.928 150.996 219.49L167.116 209.764C168.95 208.652 171.204 208.652 173.028 209.764L189.158 219.49C189.899 219.928 190.261 220.704 190.261 221.488Z" fill="#3C4EF5"/>
<path d="M190.261 221.488C190.261 222.273 189.899 223.049 189.158 223.496L182.073 227.769L173.028 233.222C171.204 234.324 168.95 234.324 167.116 233.222L158.079 227.769L150.996 223.496C150.255 223.049 149.894 222.273 149.894 221.488C149.894 220.704 150.255 219.928 150.996 219.49L167.116 209.764C168.95 208.652 171.204 208.652 173.028 209.764L189.158 219.49C189.899 219.928 190.261 220.704 190.261 221.488Z" stroke="#0D129E" stroke-width="1.53789" stroke-linecap="round" stroke-linejoin="round"/>
<path d="M190.261 209.115C190.261 209.899 189.899 210.675 189.158 211.123L182.073 215.395L173.028 220.849C171.204 221.951 168.95 221.951 167.116 220.849L158.079 215.395L150.996 211.123C150.255 210.675 149.894 209.899 149.894 209.115C149.894 208.33 150.255 207.554 150.996 207.117L167.116 197.391C168.95 196.279 171.204 196.279 173.028 197.391L189.158 207.117C189.899 207.554 190.261 208.33 190.261 209.115Z" fill="#3C4EF5"/>
<path d="M190.261 209.115C190.261 209.899 189.899 210.675 189.158 211.123L182.073 215.395L173.028 220.849C171.204 221.951 168.95 221.951 167.116 220.849L158.079 215.395L150.996 211.123C150.255 210.675 149.894 209.899 149.894 209.115C149.894 208.33 150.255 207.554 150.996 207.117L167.116 197.391C168.95 196.279 171.204 196.279 173.028 197.391L189.158 207.117C189.899 207.554 190.261 208.33 190.261 209.115Z" stroke="#0D129E" stroke-width="1.53789" stroke-linecap="round" stroke-linejoin="round"/>
<path d="M190.261 196.739C190.261 197.523 189.899 198.299 189.158 198.747L182.073 203.019L173.028 208.473C171.204 209.575 168.95 209.575 167.116 208.473L158.079 203.019L150.996 198.747C150.255 198.299 149.894 197.523 149.894 196.739C149.894 195.954 150.255 195.178 150.996 194.741L167.116 185.015C168.95 183.903 171.204 183.903 173.028 185.015L189.158 194.741C189.899 195.178 190.261 195.954 190.261 196.739Z" fill="#3C4EF5"/>
<path d="M190.261 196.739C190.261 197.523 189.899 198.299 189.158 198.747L182.073 203.019L173.028 208.473C171.204 209.575 168.95 209.575 167.116 208.473L158.079 203.019L150.996 198.747C150.255 198.299 149.894 197.523 149.894 196.739C149.894 195.954 150.255 195.178 150.996 194.741L167.116 185.015C168.95 183.903 171.204 183.903 173.028 185.015L189.158 194.741C189.899 195.178 190.261 195.954 190.261 196.739Z" stroke="#0D129E" stroke-width="1.53789" stroke-linecap="round" stroke-linejoin="round"/>
<path d="M190.261 184.365C190.261 185.15 189.899 185.926 189.158 186.373L182.073 190.646L173.028 196.099C171.204 197.201 168.95 197.201 167.116 196.099L158.079 190.646L150.996 186.373C150.255 185.926 149.894 185.15 149.894 184.365C149.894 183.581 150.255 182.805 150.996 182.367L167.116 172.641C168.95 171.53 171.204 171.53 173.028 172.641L189.158 182.367C189.899 182.805 190.261 183.581 190.261 184.365Z" fill="#3C4EF5"/>
<path d="M190.261 184.365C190.261 185.15 189.899 185.926 189.158 186.373L182.073 190.646L173.028 196.099C171.204 197.201 168.95 197.201 167.116 196.099L158.079 190.646L150.996 186.373C150.255 185.926 149.894 185.15 149.894 184.365C149.894 183.581 150.255 182.805 150.996 182.367L167.116 172.641C168.95 171.53 171.204 171.53 173.028 172.641L189.158 182.367C189.899 182.805 190.261 183.581 190.261 184.365Z" stroke="#0D129E" stroke-width="1.53789" stroke-linecap="round" stroke-linejoin="round"/>
<path d="M190.261 171.994C190.261 172.779 189.899 173.555 189.158 174.002L182.073 178.275L173.028 183.728C171.204 184.83 168.95 184.83 167.116 183.728L158.079 178.275L150.996 174.002C150.255 173.555 149.894 172.779 149.894 171.994C149.894 171.21 150.255 170.434 150.996 169.996L167.116 160.27C168.95 159.159 171.204 159.159 173.028 160.27L189.158 169.996C189.899 170.434 190.261 171.21 190.261 171.994Z" fill="#3C4EF5"/>
<path d="M190.261 171.994C190.261 172.779 189.899 173.555 189.158 174.002L182.073 178.275L173.028 183.728C171.204 184.83 168.95 184.83 167.116 183.728L158.079 178.275L150.996 174.002C150.255 173.555 149.894 172.779 149.894 171.994C149.894 171.21 150.255 170.434 150.996 169.996L167.116 160.27C168.95 159.159 171.204 159.159 173.028 160.27L189.158 169.996C189.899 170.434 190.261 171.21 190.261 171.994Z" stroke="#0D129E" stroke-width="1.53789" stroke-linecap="round" stroke-linejoin="round"/>
<path d="M191.824 145.347C191.824 157.882 182.08 168.062 170.083 168.062C161.478 168.062 154.063 162.845 150.5 155.274C149.118 152.26 148.342 148.893 148.342 145.347C148.342 132.787 158.085 122.632 170.083 122.632C173.475 122.632 176.7 123.442 179.584 124.911C186.831 128.583 191.824 136.358 191.824 145.347Z" fill="#02EEC4"/>
<path d="M191.824 145.347C191.824 157.882 182.08 168.062 170.083 168.062C161.478 168.062 154.063 162.845 150.5 155.274C149.118 152.26 148.342 148.893 148.342 145.347C148.342 132.787 158.085 122.632 170.083 122.632C173.475 122.632 176.7 123.442 179.584 124.911C186.831 128.583 191.824 136.358 191.824 145.347Z" stroke="#0D129E" stroke-width="1.53789" stroke-linecap="round" stroke-linejoin="round"/>
<path d="M157.285 146.434C157.285 138.436 163.488 131.971 171.128 131.971" stroke="#0D129E" stroke-width="1.53789" stroke-linecap="round" stroke-linejoin="round"/>
<mask id="mask3_1297_10582" style="mask-type:luminance" maskUnits="userSpaceOnUse" x="35" y="66" width="157" height="164">
<path d="M35.3193 66.1963H191.263V229.133H35.3193V66.1963Z" fill="white"/>
</mask>
<g mask="url(#mask3_1297_10582)">
<path d="M150.257 168.775C164.654 149.952 161.882 125.497 144.067 114.155C126.253 102.813 100.14 108.878 85.7435 127.702C71.3472 146.525 74.1184 170.98 91.9333 182.322C109.748 193.664 135.861 187.599 150.257 168.775Z" fill="#0C0C0C"/>
<path d="M150.257 168.775C164.654 149.952 161.882 125.497 144.067 114.155C126.253 102.813 100.14 108.878 85.7435 127.702C71.3472 146.525 74.1184 170.98 91.9333 182.322C109.748 193.664 135.861 187.599 150.257 168.775Z" stroke="#0D129E" stroke-width="1.53789" stroke-miterlimit="10"/>
<path d="M145.126 164.12C157.997 144.293 153.608 119.175 135.323 108.017C117.038 96.8586 91.781 103.886 78.9103 123.712C66.0397 143.539 70.4289 168.657 88.7139 179.816C106.999 190.974 132.256 183.946 145.126 164.12Z" fill="#3C4EF5"/>
<path d="M145.126 164.12C157.997 144.293 153.608 119.175 135.323 108.017C117.038 96.8586 91.781 103.886 78.9103 123.712C66.0397 143.539 70.4289 168.657 88.7139 179.816C106.999 190.974 132.256 183.946 145.126 164.12Z" stroke="#0C0C0C" stroke-width="1.53789" stroke-miterlimit="10"/>
<path d="M139.384 160.602C128.753 176.979 107.891 182.783 92.7878 173.567C77.6844 164.35 74.059 143.602 84.6901 127.226C95.3212 110.849 116.183 105.045 131.287 114.261C146.39 123.478 150.015 144.225 139.384 160.602Z" fill="#00EDBE"/>
<path d="M130.481 138.557C131.452 137.066 132.563 135.804 134.026 135.073L112.712 122.126C111.906 121.636 110.795 121.943 110.23 122.81L107.016 127.747C106.451 128.615 106.646 129.714 107.452 130.204L128.766 143.152C128.814 141.561 129.511 140.048 130.481 138.557Z" fill="#3C4EF5"/>
<path d="M97.4761 135.149C96.5053 136.64 95.3933 137.901 93.9306 138.632L115.245 151.58C116.051 152.069 117.162 151.763 117.727 150.895L120.942 145.959C121.507 145.091 121.311 143.991 120.505 143.501L99.1904 130.553C99.1419 132.144 98.4469 133.658 97.4761 135.149Z" fill="#3C4EF5"/>
<path d="M114.536 162C115.507 160.509 116.618 159.247 118.08 158.516L96.7666 145.569C95.9606 145.079 94.8498 145.385 94.2849 146.253L91.0705 151.19C90.5055 152.058 90.7007 153.157 91.5068 153.647L112.821 166.594C112.869 165.004 113.565 163.491 114.536 162Z" fill="#3C4EF5"/>
</g>
<mask id="mask4_1297_10582" style="mask-type:luminance" maskUnits="userSpaceOnUse" x="152" y="113" width="157" height="164">
<path d="M152.573 113.366H308.517V276.303H152.573V113.366Z" fill="white"/>
</mask>
<g mask="url(#mask4_1297_10582)">
<path d="M264.075 187.548C252.438 171.576 225.845 162.873 204.678 168.11C183.512 173.348 175.787 190.542 187.424 206.514C199.062 222.486 225.655 231.189 246.821 225.952C267.988 220.714 275.713 203.52 264.075 187.548Z" fill="#0C0C0C"/>
<path d="M264.075 187.548C252.438 171.576 225.845 162.873 204.678 168.11C183.512 173.348 175.787 190.542 187.424 206.514C199.062 222.486 225.655 231.189 246.821 225.952C267.988 220.714 275.713 203.52 264.075 187.548Z" stroke="#0C0C0C" stroke-width="1.53789" stroke-miterlimit="10"/>
<path d="M267.827 178.531C256.349 162.319 229.855 153.448 208.652 158.716C187.449 163.985 179.564 181.398 191.042 197.61C202.52 213.822 229.014 222.694 250.217 217.425C271.42 212.157 279.304 194.743 267.827 178.531Z" fill="#3C4EF5"/>
<path d="M267.827 178.531C256.349 162.319 229.855 153.448 208.652 158.716C187.449 163.985 179.564 181.398 191.042 197.61C202.52 213.822 229.014 222.694 250.217 217.425C271.42 212.157 279.304 194.743 267.827 178.531Z" stroke="#0C0C0C" stroke-width="1.53789" stroke-miterlimit="10"/>
<path d="M261.14 180.192C270.62 193.583 264.107 207.967 246.593 212.319C229.079 216.671 207.195 209.343 197.715 195.952C188.234 182.561 194.747 168.178 212.261 163.826C229.775 159.474 251.659 166.802 261.14 180.192Z" fill="#00EDBE"/>
<path d="M233.436 175.501C232.593 174.312 232.043 173.148 232.185 172.025L208.127 177.962C207.217 178.187 206.878 178.929 207.368 179.621L210.158 183.558C210.648 184.25 211.783 184.628 212.692 184.404L236.75 178.466C235.296 177.738 234.278 176.689 233.436 175.501Z" fill="#3C4EF5"/>
<path d="M213.084 191.991C213.926 193.18 214.475 194.345 214.333 195.467L238.391 189.53C239.301 189.305 239.641 188.563 239.151 187.871L236.361 183.934C235.871 183.243 234.736 182.864 233.826 183.089L209.768 189.026C211.222 189.754 212.241 190.803 213.084 191.991Z" fill="#3C4EF5"/>
<path d="M249.06 194.806C248.217 193.617 247.667 192.453 247.809 191.33L223.751 197.268C222.842 197.492 222.502 198.235 222.992 198.927L225.782 202.863C226.272 203.555 227.407 203.933 228.316 203.709L252.374 197.772C250.92 197.043 249.902 195.995 249.06 194.806Z" fill="#3C4EF5"/>
</g>
<g opacity="0.7">
<path d="M95.2744 109.823C98.7951 92.4023 114.497 65.9489 135.534 58.5579" stroke="white" stroke-width="1.53789" stroke-linecap="round" stroke-linejoin="round"/>
<path d="M169.735 49.6087C170.801 49.0372 175.715 48.7364 176.513 49.2841" stroke="white" stroke-width="1.53789" stroke-linecap="round" stroke-linejoin="round"/>
</g>
<defs>
<linearGradient id="paint0_linear_1297_10582" x1="175.244" y1="13.6679" x2="177.13" y2="353.641" gradientUnits="userSpaceOnUse">
<stop stop-color="#02EEC4"/>
<stop offset="0.29" stop-color="#02EEC4" stop-opacity="0.65"/>
<stop offset="1" stop-color="#3440EE" stop-opacity="0.6"/>
</linearGradient>
</defs>
</svg>
