<svg width="880" height="206" viewBox="0 0 880 206" fill="none" xmlns="http://www.w3.org/2000/svg">
<g clip-path="url(#clip0_1461_15356)">
<rect width="880" height="206" rx="16" fill="url(#paint0_radial_1461_15356)"/>
<path d="M169.628 137.744L289.593 207.337" stroke="#333333" stroke-linecap="round"/>
<path d="M107.628 174.744L227.593 244.337" stroke="#333333" stroke-linecap="round"/>
<path d="M229.628 107.744L349.593 177.337" stroke="#333333" stroke-linecap="round"/>
<path d="M285.628 70.7434L405.593 140.336" stroke="#333333" stroke-linecap="round"/>
<path d="M269.697 242.814L413.771 159.608" stroke="#333333" stroke-linecap="round"/>
<path d="M184.86 196.604L328.934 113.398" stroke="#333333" stroke-linecap="round"/>
<path d="M108.8 152.5L277.236 55.0722" stroke="#333333" stroke-linecap="round"/>
<path d="M269.035 86.0088C268.624 86.2477 268.115 86.2477 267.704 86.0087L229.253 63.6811C228.373 63.1702 228.373 61.8994 229.253 61.3885L267.704 39.0608C268.115 38.8218 268.624 38.8218 269.035 39.0608L307.491 61.3884C308.371 61.8993 308.371 63.1702 307.491 63.6812L269.035 86.0088Z" fill="url(#paint1_linear_1461_15356)"/>
<g style="mix-blend-mode:multiply">
<path d="M268.375 76.2186L244.117 62.2123L268.375 48.2061L292.636 62.2123L268.375 76.2186Z" fill="#2B2B2B" fill-opacity="0.15"/>
</g>
<path d="M268.373 41.156L244.843 27.5685L268.373 13.9843L291.906 27.5685L268.373 41.156Z" fill="#7075FF"/>
<g style="mix-blend-mode:soft-light">
<path d="M256.832 27.2495C256.834 25.5543 257.954 23.9277 260.051 22.7225L260.051 22.7224C262.15 21.5174 264.879 20.9243 267.59 20.9243C270.268 20.9243 272.964 21.503 275.052 22.6784H275.055L275.131 22.7225C277.225 23.9264 278.351 25.5518 278.351 27.2495C278.351 27.9873 278.135 28.7157 277.716 29.4048L277.715 29.4059C277.658 29.4991 277.595 29.5987 277.524 29.6966C277.253 30.0805 276.917 30.4502 276.518 30.7976L276.514 30.8016L276.514 30.8016C276.502 30.8117 276.489 30.8223 276.477 30.8331C276.415 30.885 276.346 30.9434 276.275 30.9979C276.095 31.1435 275.901 31.2879 275.696 31.4241M256.832 27.2495V27.2495V27.2495V27.2495V27.2495V27.2496V27.2496V27.2496V27.2496V27.2496V27.2497V27.2497V27.2497V27.2497V27.2497V27.2498V27.2498V27.2498V27.2498V27.2498V27.2499V27.2499V27.2499V27.2499V27.2499V27.25V27.25V27.25V27.25V27.25V27.2501V27.2501V27.2501V27.2501V27.2501V27.2501V27.2502V27.2502V27.2502V27.2502V27.2502V27.2503V27.2503V27.2503V27.2503V27.2503V27.2504V27.2504V27.2504V27.2504V27.2504V27.2505V27.2505V27.2505V27.2505V27.2505V27.2506V27.2506V27.2506V27.2506V27.2506V27.2507V27.2507V27.2507V27.2507V27.2507V27.2508V27.2508V27.2508V27.2508V27.2508V27.2509V27.2509V27.2509V27.2509V27.2509V27.251V27.251V27.251V27.251V27.251V27.2511V27.2511V27.2511V27.2511V27.2511V27.2512V27.2512V27.2512V27.2512V27.2512V27.2513V27.2513V27.2513V27.2513V27.2513V27.2513V27.2514V27.2514V27.2514V27.2514V27.2514V27.2515V27.2515V27.2515V27.2515V27.2515V27.2516V27.2516V27.2516V27.2516V27.2516C256.832 27.2543 256.832 27.257 256.832 27.2597V27.3954C256.832 27.43 256.836 27.4595 256.837 27.4725L256.839 27.487C256.845 27.5794 256.854 27.6697 256.867 27.7611L256.867 27.7614L256.867 27.7653C256.874 27.81 256.881 27.8657 256.893 27.9232C256.91 28.0216 256.932 28.1174 256.954 28.2079L256.954 28.2079L256.956 28.2151L256.957 28.2181C256.968 28.2588 256.981 28.3075 256.997 28.3559C257.026 28.4548 257.059 28.5556 257.097 28.6581L257.097 28.6581L257.099 28.6619C257.106 28.6807 257.114 28.699 257.12 28.7132L257.12 28.7146C257.127 28.7303 257.132 28.7417 257.136 28.7525L257.136 28.7525L257.137 28.7555C257.184 28.8727 257.237 28.9909 257.298 29.1096L257.297 29.1097L257.301 29.1156C257.305 29.1242 257.31 29.133 257.315 29.1419C257.35 29.2075 257.389 29.2806 257.434 29.355L257.433 29.3551L257.44 29.3651C257.448 29.3772 257.456 29.3903 257.467 29.4082L257.468 29.4096C257.477 29.4253 257.489 29.445 257.503 29.4651C257.548 29.5379 257.601 29.6193 257.659 29.6989C258.1 30.3222 258.712 30.9039 259.487 31.4236C259.606 31.5038 259.731 31.5833 259.854 31.6598L259.857 31.6615C259.891 31.6822 259.926 31.7021 259.957 31.7201L259.96 31.7217C259.991 31.7397 260.019 31.7561 260.047 31.773L260.047 31.773L260.052 31.7757C260.054 31.7773 260.057 31.7789 260.06 31.7806C260.093 31.7997 260.137 31.8251 260.185 31.8482C262.266 33.0055 264.937 33.5754 267.592 33.5754C270.247 33.5754 272.919 33.0055 274.999 31.8482C275.048 31.8251 275.091 31.7997 275.124 31.7806L275.132 31.7762C275.132 31.7761 275.132 31.776 275.132 31.7759C275.142 31.77 275.153 31.7641 275.163 31.758C275.215 31.7281 275.272 31.6955 275.328 31.6608C275.455 31.583 275.578 31.5035 275.696 31.4241M256.832 27.2495H257.163H256.832ZM275.696 31.4241C275.696 31.4243 275.696 31.4245 275.695 31.4246L275.512 31.1485L275.697 31.4234C275.697 31.4236 275.697 31.4238 275.696 31.4241Z" fill="#00FFCC" stroke="#00EABB" stroke-width="0.662791"/>
<path d="M273.22 26.8862C273.52 26.6299 273.924 26.4364 274.38 26.3304L268.582 22.9733C268.53 22.9431 268.469 22.9202 268.404 22.906C268.338 22.8918 268.268 22.8865 268.198 22.8904C268.128 22.8943 268.06 22.9074 267.997 22.9289C267.934 22.9503 267.877 22.9798 267.83 23.0155L266.716 23.871C266.669 23.9069 266.633 23.9484 266.61 23.9931C266.587 24.0378 266.577 24.0848 266.581 24.1315C266.585 24.1781 266.603 24.2234 266.633 24.2649C266.664 24.3063 266.706 24.343 266.758 24.373L272.557 27.7301C272.65 27.4138 272.881 27.1201 273.22 26.886" fill="#141BEB"/>
<path d="M263.991 24.7473C263.691 25.0035 263.287 25.1966 262.83 25.3024L268.628 28.6595C268.68 28.6897 268.741 28.7126 268.807 28.7268C268.872 28.741 268.942 28.7463 269.012 28.7424C269.082 28.7385 269.15 28.7254 269.213 28.704C269.277 28.6825 269.333 28.653 269.38 28.6173L270.495 27.7618C270.541 27.7259 270.577 27.6844 270.6 27.6397C270.623 27.595 270.633 27.548 270.629 27.5013C270.625 27.4547 270.607 27.4094 270.577 27.3679C270.547 27.3265 270.504 27.2898 270.452 27.2598L264.653 23.9027C264.56 24.219 264.329 24.5127 263.99 24.7468" fill="#141BEB"/>
<path d="M268.458 30.5413C268.758 30.285 269.162 30.0916 269.619 29.9856L263.82 26.6285C263.768 26.5983 263.708 26.5754 263.642 26.5612C263.576 26.5469 263.506 26.5416 263.436 26.5455C263.367 26.5495 263.298 26.5625 263.235 26.584C263.172 26.6055 263.115 26.6349 263.068 26.6707L261.954 27.5261C261.907 27.5621 261.872 27.6036 261.848 27.6483C261.825 27.693 261.816 27.74 261.82 27.7866C261.824 27.8332 261.841 27.8786 261.872 27.92C261.902 27.9615 261.944 27.9982 261.996 28.0282L267.795 31.3852C267.889 31.069 268.119 30.7752 268.458 30.5412" fill="#141BEB"/>
</g>
<path d="M268.374 41.6478C268.287 41.6478 268.204 41.6246 268.128 41.5814L244.595 27.9938C244.442 27.9041 244.349 27.7413 244.349 27.5651C244.349 27.389 244.442 27.2262 244.595 27.1365L268.128 13.5556C268.281 13.4659 268.47 13.4659 268.623 13.5556L292.156 27.1431C292.309 27.2328 292.402 27.3957 292.402 27.5718C292.402 27.7479 292.309 27.9107 292.156 28.0004L268.623 41.588C268.546 41.6312 268.46 41.6545 268.377 41.6545L268.374 41.6478ZM245.831 27.5685L268.374 40.5845L290.917 27.5685L268.374 14.5525L245.831 27.5685Z" fill="#0D129E"/>
<path d="M268.372 41.0263L244.839 27.5684V54.6106L268.372 68.1981L291.905 54.6106V27.5684L268.372 41.0263Z" fill="#464CFF"/>
<path d="M292.05 54.9426L268.108 68.5539V41.3346L292.05 27.8531V54.9426Z" fill="#141BEB"/>
<path d="M268.374 68.6901C268.287 68.6901 268.204 68.6669 268.128 68.6237L244.595 55.0361C244.442 54.9464 244.349 54.7836 244.349 54.6074V27.5686C244.349 27.3925 244.442 27.2296 244.595 27.1399C244.747 27.0502 244.933 27.0502 245.086 27.1399L268.374 40.455L291.661 27.1399C291.814 27.0535 292 27.0535 292.153 27.1399C292.306 27.2296 292.399 27.3925 292.399 27.5686V54.6108C292.399 54.7869 292.306 54.9497 292.153 55.0394L268.619 68.627C268.543 68.6702 268.457 68.6935 268.374 68.6935V68.6901ZM245.336 54.325L268.374 67.6268L291.412 54.325V28.4226L268.619 41.4552C268.467 41.5416 268.281 41.5416 268.128 41.4552L245.336 28.4226V54.3283V54.325Z" fill="#0D129E"/>
<path d="M268.374 68.69C268.102 68.69 267.879 68.4673 267.879 68.1949V41.0231C267.879 40.7506 268.102 40.528 268.374 40.528C268.647 40.528 268.869 40.7506 268.869 41.0231V68.1949C268.869 68.4673 268.647 68.69 268.374 68.69Z" fill="#0D129E"/>
<path d="M345.92 130.422C345.509 130.657 345.004 130.656 344.594 130.418L306.197 108.123C305.304 107.604 305.32 106.309 306.226 105.813L345.907 84.1118C346.323 83.8843 346.828 83.8963 347.233 84.1433L383.774 106.438C384.635 106.963 384.618 108.218 383.744 108.719L345.92 130.422Z" fill="url(#paint2_linear_1461_15356)"/>
<g style="mix-blend-mode:multiply">
<path d="M345.259 121.288L321.001 107.282L345.259 93.2754L369.519 107.282L345.259 121.288Z" fill="#2B2B2B" fill-opacity="0.15"/>
</g>
<path d="M345.256 67.9696L321.727 54.3821L345.256 40.7979L368.79 54.3821L345.256 67.9696Z" fill="#00EDBE"/>
<path d="M345.257 68.4617C345.171 68.4617 345.088 68.4384 345.011 68.3952L321.478 54.8076C321.325 54.7179 321.232 54.5551 321.232 54.379C321.232 54.2029 321.325 54.04 321.478 53.9503L345.011 40.3694C345.164 40.2797 345.354 40.2797 345.507 40.3694L369.04 53.957C369.193 54.0467 369.286 54.2095 369.286 54.3856C369.286 54.5617 369.193 54.7246 369.04 54.8143L345.507 68.4018C345.43 68.445 345.344 68.4683 345.261 68.4683L345.257 68.4617ZM322.714 54.3823L345.257 67.3983L367.8 54.3823L345.257 41.3663L322.714 54.3823Z" fill="#0D129E"/>
<path d="M345.256 67.8403L321.723 54.3823V81.4245L345.256 95.0121L368.789 81.4245V54.3823L345.256 67.8403Z" fill="#464CFF"/>
<path d="M368.934 81.7564L344.992 95.3677V68.1485L368.934 54.667V81.7564Z" fill="#141BEB"/>
<path d="M345.257 95.504C345.171 95.504 345.088 95.4807 345.011 95.4375L321.478 81.85C321.325 81.7602 321.232 81.5974 321.232 81.4213V54.3824C321.232 54.2063 321.325 54.0435 321.478 53.9538C321.631 53.864 321.817 53.864 321.97 53.9538L345.257 67.2688L368.545 53.9538C368.697 53.8674 368.884 53.8674 369.036 53.9538C369.189 54.0435 369.282 54.2063 369.282 54.3824V81.4246C369.282 81.6007 369.189 81.7636 369.036 81.8533L345.503 95.4408C345.427 95.484 345.34 95.5073 345.257 95.5073V95.504ZM322.219 81.1388L345.257 94.4406L368.295 81.1388V55.2364L345.503 68.269C345.35 68.3554 345.164 68.3554 345.011 68.269L322.219 55.2364V81.1422V81.1388Z" fill="#0D129E"/>
<path d="M345.258 95.5039C344.985 95.5039 344.763 95.2813 344.763 95.0088V67.837C344.763 67.5646 344.985 67.3419 345.258 67.3419C345.53 67.3419 345.753 67.5646 345.753 67.837V95.0088C345.753 95.2813 345.53 95.5039 345.258 95.5039Z" fill="#0D129E"/>
<path d="M334.319 54.2496C334.322 52.5544 335.441 50.9278 337.539 49.7226L337.539 49.7226C339.637 48.5175 342.366 47.9245 345.078 47.9245C347.756 47.9245 350.451 48.5031 352.539 49.6785H352.542L352.619 49.7226C354.712 50.9265 355.838 52.5519 355.838 54.2496C355.838 54.9874 355.623 55.7158 355.203 56.4049L355.203 56.406C355.146 56.4993 355.082 56.5988 355.012 56.6967C354.741 57.0806 354.404 57.4503 354.006 57.7978L354.001 57.8017L354.001 57.8017C353.989 57.8118 353.977 57.8224 353.964 57.8332C353.902 57.8851 353.833 57.9436 353.762 57.998C353.583 58.1437 353.389 58.288 353.183 58.4242M334.319 54.2496V54.2496V54.2496V54.2496V54.2497V54.2497V54.2497V54.2497V54.2497V54.2498V54.2498V54.2498V54.2498V54.2498V54.2499V54.2499V54.2499V54.2499V54.2499V54.25V54.25V54.25V54.25V54.25V54.2501V54.2501V54.2501V54.2501V54.2501V54.2502V54.2502V54.2502V54.2502V54.2502V54.2503V54.2503V54.2503V54.2503V54.2503V54.2503V54.2504V54.2504V54.2504V54.2504V54.2504V54.2505V54.2505V54.2505V54.2505V54.2505V54.2506V54.2506V54.2506V54.2506V54.2506V54.2507V54.2507V54.2507V54.2507V54.2507V54.2508V54.2508V54.2508V54.2508V54.2508V54.2509V54.2509V54.2509V54.2509V54.2509V54.251V54.251V54.251V54.251V54.251V54.2511V54.2511V54.2511V54.2511V54.2511V54.2512V54.2512V54.2512V54.2512V54.2512V54.2513V54.2513V54.2513V54.2513V54.2513V54.2514V54.2514V54.2514V54.2514V54.2514V54.2515V54.2515V54.2515V54.2515V54.2515V54.2516V54.2516V54.2516V54.2516V54.2516V54.2516V54.2517V54.2517V54.2517V54.2517V54.2517V54.2518C334.319 54.2545 334.319 54.2571 334.319 54.2598V54.3956C334.319 54.4301 334.323 54.4596 334.325 54.4727L334.327 54.4872C334.332 54.5795 334.342 54.6698 334.354 54.7613L334.354 54.7615L334.355 54.7654C334.361 54.8101 334.369 54.8658 334.38 54.9233C334.397 55.0217 334.419 55.1175 334.442 55.208L334.441 55.208L334.443 55.2152L334.444 55.2182C334.455 55.2589 334.468 55.3077 334.484 55.356C334.513 55.455 334.546 55.5557 334.585 55.6583L334.585 55.6583L334.586 55.662C334.593 55.6809 334.601 55.6991 334.607 55.7134L334.608 55.7147C334.614 55.7304 334.619 55.7418 334.623 55.7526L334.623 55.7526L334.624 55.7556C334.671 55.8729 334.724 55.991 334.785 56.1097L334.785 56.1098L334.788 56.1157C334.793 56.1243 334.797 56.1331 334.802 56.142C334.837 56.2076 334.876 56.2807 334.921 56.3551L334.921 56.3552L334.927 56.3652C334.935 56.3773 334.943 56.3904 334.954 56.4083L334.955 56.4097C334.965 56.4254 334.977 56.4452 334.99 56.4652C335.036 56.5381 335.088 56.6194 335.146 56.699C335.587 57.3223 336.2 57.9041 336.975 58.4237C337.094 58.504 337.219 58.5834 337.342 58.6599L337.344 58.6616C337.379 58.6823 337.413 58.7022 337.444 58.7202L337.447 58.7218C337.478 58.7398 337.506 58.7562 337.534 58.7731L337.534 58.7731L337.539 58.7758C337.542 58.7774 337.545 58.779 337.547 58.7807C337.58 58.7998 337.624 58.8252 337.673 58.8483C339.753 60.0056 342.424 60.5756 345.079 60.5756C347.734 60.5756 350.406 60.0056 352.486 58.8483C352.535 58.8252 352.579 58.7998 352.611 58.7807L352.619 58.7764C352.619 58.7762 352.619 58.7761 352.619 58.776C352.63 58.7702 352.64 58.7642 352.651 58.7581C352.703 58.7282 352.759 58.6956 352.815 58.661C352.942 58.5831 353.065 58.5036 353.183 58.4242M334.319 54.2496H334.65H334.319ZM353.183 58.4242C353.183 58.4244 353.183 58.4246 353.183 58.4248L352.999 58.1487L353.184 58.4235C353.184 58.4237 353.184 58.424 353.183 58.4242Z" fill="#00FFCC" stroke="#00EABB" stroke-width="0.662791"/>
<path d="M350.707 53.8863C351.007 53.63 351.411 53.4366 351.868 53.3305L346.069 49.9735C346.017 49.9432 345.957 49.9204 345.891 49.9061C345.825 49.8919 345.755 49.8866 345.685 49.8905C345.616 49.8944 345.547 49.9075 345.484 49.929C345.421 49.9504 345.364 49.9799 345.317 50.0157L344.203 50.8711C344.156 50.907 344.121 50.9486 344.097 50.9933C344.074 51.038 344.065 51.085 344.069 51.1316C344.073 51.1782 344.09 51.2235 344.121 51.265C344.151 51.3064 344.193 51.3432 344.246 51.3731L350.044 54.7302C350.138 54.4139 350.368 54.1202 350.707 53.8861" fill="#141BEB"/>
<path d="M341.479 51.7474C341.178 52.0036 340.774 52.1968 340.317 52.3025L346.116 55.6596C346.168 55.6898 346.228 55.7127 346.294 55.7269C346.36 55.7411 346.43 55.7465 346.499 55.7425C346.569 55.7386 346.638 55.7255 346.701 55.7041C346.764 55.6826 346.821 55.6531 346.867 55.6174L347.982 54.762C348.028 54.726 348.064 54.6845 348.087 54.6398C348.11 54.5951 348.12 54.5481 348.116 54.5015C348.112 54.4548 348.095 54.4095 348.064 54.3681C348.034 54.3266 347.991 54.2899 347.939 54.2599L342.141 50.9028C342.047 51.2191 341.816 51.5129 341.478 51.7469" fill="#141BEB"/>
<path d="M345.945 57.5415C346.245 57.2851 346.649 57.0917 347.106 56.9857L341.307 53.6286C341.256 53.5984 341.195 53.5755 341.129 53.5613C341.063 53.5471 340.994 53.5417 340.924 53.5457C340.854 53.5496 340.786 53.5627 340.722 53.5841C340.659 53.6056 340.603 53.6351 340.556 53.6708L339.441 54.5262C339.395 54.5622 339.359 54.6037 339.336 54.6484C339.313 54.6931 339.303 54.7401 339.307 54.7867C339.311 54.8334 339.328 54.8787 339.359 54.9201C339.389 54.9616 339.432 54.9983 339.484 55.0283L345.282 58.3854C345.376 58.0691 345.607 57.7753 345.945 57.5413" fill="#141BEB"/>
<path opacity="0.4" d="M321.396 -68.3955H369.116L355.861 54.8836C355.861 54.8836 354.765 60.1859 345.256 60.1859C335.747 60.1859 334.651 54.8836 334.651 54.8836L321.396 -68.3955Z" fill="url(#paint3_linear_1461_15356)"/>
<path d="M430.945 177.629C430.544 177.859 430.052 177.864 429.647 177.642L391.359 156.63C390.454 156.133 390.439 154.839 391.331 154.321L429.142 132.382C429.549 132.145 430.052 132.143 430.462 132.376L468.283 153.854C469.175 154.361 469.178 155.645 468.289 156.156L430.945 177.629Z" fill="url(#paint4_linear_1461_15356)"/>
<g style="mix-blend-mode:multiply">
<path d="M430.095 169.009L405.838 155.002L430.095 140.996L454.356 155.002L430.095 169.009Z" fill="#2B2B2B" fill-opacity="0.15"/>
</g>
<path d="M430.095 133.946L406.565 120.359L430.095 106.775L453.628 120.359L430.095 133.946Z" fill="#7075FF"/>
<g style="mix-blend-mode:soft-light">
<path d="M418.831 120.249C418.833 118.554 419.953 116.927 422.05 115.722L422.05 115.722C424.149 114.517 426.878 113.924 429.589 113.924C432.267 113.924 434.963 114.503 437.051 115.678H437.054L437.13 115.722C439.224 116.926 440.35 118.552 440.35 120.249C440.35 120.987 440.134 121.715 439.715 122.405L439.714 122.406C439.657 122.499 439.594 122.598 439.523 122.696C439.252 123.08 438.916 123.45 438.518 123.797L438.513 123.801L438.513 123.801C438.501 123.811 438.488 123.822 438.476 123.833C438.414 123.885 438.345 123.943 438.274 123.998C438.094 124.143 437.9 124.288 437.695 124.424M418.831 120.249V120.249V120.249V120.249V120.249V120.249V120.249V120.249V120.249V120.249V120.249V120.249V120.249V120.249V120.249V120.25V120.25V120.25V120.25V120.25V120.25V120.25V120.25V120.25V120.25V120.25V120.25V120.25V120.25V120.25V120.25V120.25V120.25V120.25V120.25V120.25V120.25V120.25V120.25V120.25V120.25V120.25V120.25V120.25V120.25V120.25V120.25V120.25V120.25V120.25V120.25V120.25V120.25V120.25V120.25V120.25V120.25V120.25V120.25V120.25V120.25V120.25V120.25V120.25V120.25V120.25V120.251V120.251V120.251V120.251V120.251V120.251V120.251V120.251V120.251V120.251V120.251V120.251V120.251V120.251V120.251V120.251V120.251V120.251V120.251V120.251V120.251V120.251V120.251V120.251V120.251V120.251V120.251V120.251V120.251V120.251V120.251V120.251V120.251V120.251V120.251V120.251V120.251V120.251V120.251V120.251V120.251V120.251V120.251V120.251V120.251V120.251C418.831 120.254 418.831 120.257 418.831 120.259V120.395C418.831 120.43 418.835 120.459 418.836 120.472L418.838 120.487C418.844 120.579 418.853 120.669 418.866 120.761L418.866 120.761L418.866 120.765C418.873 120.81 418.88 120.865 418.892 120.923C418.909 121.021 418.931 121.117 418.953 121.208L418.953 121.208L418.955 121.215L418.956 121.218C418.967 121.259 418.98 121.307 418.996 121.356C419.025 121.455 419.058 121.555 419.096 121.658L419.096 121.658L419.098 121.662C419.105 121.68 419.113 121.699 419.119 121.713L419.119 121.714C419.126 121.73 419.131 121.741 419.135 121.752L419.135 121.752L419.136 121.755C419.183 121.873 419.236 121.991 419.297 122.109L419.297 122.109L419.3 122.115C419.304 122.124 419.309 122.133 419.314 122.142C419.349 122.207 419.388 122.28 419.433 122.355L419.432 122.355L419.439 122.365C419.447 122.377 419.455 122.39 419.466 122.408L419.467 122.409C419.476 122.425 419.488 122.445 419.502 122.465C419.548 122.538 419.6 122.619 419.658 122.699C420.099 123.322 420.711 123.904 421.486 124.423C421.606 124.504 421.731 124.583 421.853 124.66L421.856 124.661C421.89 124.682 421.925 124.702 421.956 124.72L421.959 124.721C421.99 124.739 422.018 124.756 422.046 124.773L422.046 124.773L422.051 124.775C422.053 124.777 422.056 124.779 422.059 124.78C422.092 124.799 422.136 124.825 422.184 124.848C424.265 126.005 426.936 126.575 429.591 126.575C432.246 126.575 434.918 126.005 436.998 124.848C437.047 124.825 437.09 124.799 437.123 124.78L437.131 124.776C437.131 124.776 437.131 124.776 437.131 124.776C437.141 124.77 437.152 124.764 437.162 124.758C437.214 124.728 437.271 124.695 437.327 124.661C437.454 124.583 437.577 124.503 437.695 124.424M418.831 120.249H419.162H418.831ZM437.695 124.424C437.695 124.424 437.695 124.424 437.694 124.424L437.511 124.148L437.696 124.423C437.696 124.423 437.696 124.424 437.695 124.424Z" fill="#00FFCC" stroke="#00EABB" stroke-width="0.662791"/>
<path d="M435.219 119.886C435.519 119.63 435.923 119.436 436.379 119.33L430.581 115.973C430.529 115.943 430.468 115.92 430.403 115.906C430.337 115.892 430.267 115.886 430.197 115.89C430.127 115.894 430.059 115.907 429.996 115.929C429.933 115.95 429.876 115.98 429.829 116.015L428.715 116.871C428.668 116.907 428.632 116.948 428.609 116.993C428.586 117.038 428.576 117.085 428.58 117.131C428.584 117.178 428.602 117.223 428.632 117.265C428.663 117.306 428.705 117.343 428.757 117.373L434.556 120.73C434.649 120.414 434.88 120.12 435.219 119.886" fill="#141BEB"/>
<path d="M425.99 117.747C425.69 118.003 425.286 118.196 424.829 118.302L430.627 121.659C430.679 121.689 430.74 121.712 430.806 121.727C430.871 121.741 430.941 121.746 431.011 121.742C431.081 121.738 431.149 121.725 431.212 121.704C431.276 121.682 431.332 121.653 431.379 121.617L432.494 120.762C432.54 120.726 432.576 120.684 432.599 120.639C432.622 120.595 432.632 120.548 432.628 120.501C432.624 120.454 432.606 120.409 432.576 120.368C432.546 120.326 432.503 120.29 432.451 120.26L426.652 116.902C426.559 117.219 426.328 117.513 425.989 117.747" fill="#141BEB"/>
<path d="M430.457 123.541C430.757 123.285 431.161 123.091 431.618 122.985L425.819 119.628C425.767 119.598 425.707 119.575 425.641 119.561C425.575 119.547 425.505 119.541 425.435 119.545C425.366 119.549 425.297 119.562 425.234 119.584C425.171 119.605 425.114 119.635 425.067 119.67L423.953 120.526C423.906 120.562 423.871 120.603 423.847 120.648C423.824 120.693 423.815 120.74 423.819 120.786C423.823 120.833 423.84 120.878 423.871 120.92C423.901 120.961 423.943 120.998 423.996 121.028L429.794 124.385C429.888 124.069 430.118 123.775 430.457 123.541" fill="#141BEB"/>
</g>
<path d="M430.095 134.438C430.009 134.438 429.926 134.415 429.849 134.372L406.316 120.784C406.163 120.695 406.07 120.532 406.07 120.356C406.07 120.18 406.163 120.017 406.316 119.927L429.849 106.346C430.002 106.257 430.192 106.257 430.344 106.346L453.878 119.934C454.031 120.023 454.124 120.186 454.124 120.362C454.124 120.539 454.031 120.701 453.878 120.791L430.344 134.379C430.268 134.422 430.182 134.445 430.099 134.445L430.095 134.438ZM407.552 120.359L430.095 133.375L452.638 120.359L430.095 107.343L407.552 120.359Z" fill="#0D129E"/>
<path d="M430.095 133.817L406.562 120.359V147.401L430.095 160.989L453.628 147.401V120.359L430.095 133.817Z" fill="#464CFF"/>
<path d="M453.772 147.733L429.83 161.345V134.125L453.772 120.644V147.733Z" fill="#141BEB"/>
<path d="M430.095 161.481C430.009 161.481 429.926 161.457 429.849 161.414L406.316 147.827C406.163 147.737 406.07 147.574 406.07 147.398V120.359C406.07 120.183 406.163 120.02 406.316 119.93C406.469 119.841 406.655 119.841 406.808 119.93L430.095 133.246L453.383 119.93C453.535 119.844 453.721 119.844 453.874 119.93C454.027 120.02 454.12 120.183 454.12 120.359V147.401C454.12 147.577 454.027 147.74 453.874 147.83L430.341 161.418C430.265 161.461 430.178 161.484 430.095 161.484V161.481ZM407.057 147.116L430.095 160.417L453.133 147.116V121.213L430.341 134.246C430.188 134.332 430.002 134.332 429.849 134.246L407.057 121.213V147.119V147.116Z" fill="#0D129E"/>
<path d="M430.096 161.481C429.823 161.481 429.601 161.258 429.601 160.985V133.814C429.601 133.541 429.823 133.318 430.096 133.318C430.368 133.318 430.591 133.541 430.591 133.814V160.985C430.591 161.258 430.368 161.481 430.096 161.481Z" fill="#0D129E"/>
<path d="M210.711 119.817C210.3 120.053 209.795 120.051 209.385 119.813L170.988 97.5181C170.095 96.9996 170.111 95.7042 171.017 95.2087L210.698 73.5072C211.114 73.2797 211.619 73.2917 212.024 73.5386L248.565 95.8334C249.426 96.3583 249.409 97.6132 248.535 98.1147L210.711 119.817Z" fill="url(#paint5_linear_1461_15356)"/>
<g style="mix-blend-mode:multiply">
<path d="M208.723 110.684L184.466 96.6773L208.723 82.671L232.984 96.6773L208.723 110.684Z" fill="#2B2B2B" fill-opacity="0.15"/>
</g>
<path d="M208.723 57.3655L185.193 43.778L208.723 30.1937L232.256 43.778L208.723 57.3655Z" fill="#00EDBE"/>
<path d="M208.723 57.8573C208.637 57.8573 208.554 57.834 208.477 57.7908L184.944 44.2033C184.791 44.1136 184.698 43.9507 184.698 43.7746C184.698 43.5985 184.791 43.4357 184.944 43.346L208.477 29.765C208.63 29.6753 208.82 29.6753 208.972 29.765L232.506 43.3526C232.658 43.4423 232.751 43.6051 232.751 43.7813C232.751 43.9574 232.658 44.1202 232.506 44.2099L208.972 57.7975C208.896 57.8407 208.81 57.8639 208.727 57.8639L208.723 57.8573ZM186.18 43.7779L208.723 56.7939L231.266 43.7779L208.723 30.7619L186.18 43.7779Z" fill="#0D129E"/>
<path d="M208.723 57.2358L185.189 43.7778V70.82L208.723 84.4076L232.256 70.82V43.7778L208.723 57.2358Z" fill="#464CFF"/>
<path d="M232.4 71.1521L208.458 84.7634V57.5441L232.4 44.0626V71.1521Z" fill="#141BEB"/>
<path d="M208.723 84.8995C208.637 84.8995 208.554 84.8762 208.477 84.833L184.944 71.2455C184.791 71.1557 184.698 70.9929 184.698 70.8168V43.7779C184.698 43.6018 184.791 43.439 184.944 43.3493C185.097 43.2596 185.283 43.2596 185.436 43.3493L208.723 56.6643L232.01 43.3493C232.163 43.2629 232.349 43.2629 232.502 43.3493C232.655 43.439 232.748 43.6018 232.748 43.7779V70.8201C232.748 70.9962 232.655 71.1591 232.502 71.2488L208.969 84.8363C208.893 84.8795 208.806 84.9028 208.723 84.9028V84.8995ZM185.685 70.5343L208.723 83.8361L231.761 70.5343V44.6319L208.969 57.6646C208.816 57.751 208.63 57.751 208.477 57.6646L185.685 44.6319V70.5377V70.5343Z" fill="#0D129E"/>
<path d="M208.724 84.8993C208.451 84.8993 208.229 84.6767 208.229 84.4042V57.2324C208.229 56.9599 208.451 56.7373 208.724 56.7373C208.996 56.7373 209.219 56.9599 209.219 57.2324V84.4042C209.219 84.6767 208.996 84.8993 208.724 84.8993Z" fill="#0D129E"/>
<path d="M197.787 43.6446C197.789 41.9494 198.909 40.3229 201.006 39.1176L201.007 39.1176C203.105 37.9125 205.834 37.3195 208.546 37.3195C211.224 37.3195 213.919 37.8981 216.007 39.0736H216.01L216.086 39.1177C218.18 40.3215 219.306 41.9469 219.306 43.6446C219.306 44.3824 219.09 45.1108 218.671 45.7999L218.671 45.801C218.613 45.8943 218.55 45.9938 218.479 46.0917C218.208 46.4757 217.872 46.8453 217.474 47.1928L217.469 47.1967L217.469 47.1967C217.457 47.2069 217.444 47.2174 217.432 47.2282C217.37 47.2802 217.301 47.3386 217.23 47.393C217.05 47.5387 216.856 47.6831 216.651 47.8192M197.787 43.6446V43.6446V43.6446V43.6447V43.6447V43.6447V43.6447V43.6447V43.6448V43.6448V43.6448V43.6448V43.6448V43.6449V43.6449V43.6449V43.6449V43.6449V43.645V43.645V43.645V43.645V43.645V43.6451V43.6451V43.6451V43.6451V43.6451V43.6452V43.6452V43.6452V43.6452V43.6452V43.6453V43.6453V43.6453V43.6453V43.6453V43.6453V43.6454V43.6454V43.6454V43.6454V43.6454V43.6455V43.6455V43.6455V43.6455V43.6455V43.6456V43.6456V43.6456V43.6456V43.6456V43.6457V43.6457V43.6457V43.6457V43.6457V43.6458V43.6458V43.6458V43.6458V43.6458V43.6459V43.6459V43.6459V43.6459V43.6459V43.646V43.646V43.646V43.646V43.646V43.6461V43.6461V43.6461V43.6461V43.6461V43.6462V43.6462V43.6462V43.6462V43.6462V43.6463V43.6463V43.6463V43.6463V43.6463V43.6464V43.6464V43.6464V43.6464V43.6464V43.6465V43.6465V43.6465V43.6465V43.6465V43.6466V43.6466V43.6466V43.6466V43.6466V43.6466V43.6467V43.6467V43.6467V43.6467V43.6467V43.6468V43.6468C197.787 43.6495 197.787 43.6522 197.787 43.6548V43.7906C197.787 43.8251 197.791 43.8546 197.792 43.8677L197.794 43.8822C197.8 43.9745 197.809 44.0649 197.822 44.1563L197.822 44.1565L197.822 44.1605C197.829 44.2052 197.836 44.2609 197.848 44.3184C197.865 44.4168 197.887 44.5126 197.909 44.603L197.909 44.603L197.911 44.6103L197.912 44.6132C197.923 44.6539 197.936 44.7027 197.952 44.7511C197.981 44.85 198.014 44.9508 198.052 45.0533L198.052 45.0533L198.054 45.057C198.061 45.0759 198.069 45.0941 198.075 45.1084L198.075 45.1097C198.082 45.1254 198.087 45.1369 198.091 45.1476L198.091 45.1476L198.092 45.1506C198.139 45.2679 198.192 45.386 198.253 45.5048L198.253 45.5048L198.256 45.5107C198.26 45.5193 198.265 45.5281 198.27 45.5371C198.305 45.6026 198.344 45.6758 198.389 45.7501L198.389 45.7502L198.395 45.7602C198.403 45.7723 198.411 45.7854 198.422 45.8033L198.423 45.8047C198.432 45.8204 198.445 45.8402 198.458 45.8602C198.504 45.9331 198.556 46.0144 198.614 46.0941C199.055 46.7173 199.667 47.2991 200.442 47.8187C200.562 47.899 200.687 47.9785 200.809 48.0549L200.812 48.0566C200.846 48.0774 200.881 48.0972 200.912 48.1153L200.915 48.1168C200.946 48.1348 200.974 48.1512 201.002 48.1681L201.002 48.1681L201.007 48.1708C201.01 48.1724 201.012 48.174 201.015 48.1757C201.048 48.1949 201.092 48.2203 201.14 48.2433C203.221 49.4006 205.892 49.9706 208.547 49.9706C211.202 49.9706 213.874 49.4006 215.954 48.2433C216.003 48.2203 216.046 48.1949 216.079 48.1757L216.087 48.1714C216.087 48.1713 216.087 48.1712 216.087 48.1711C216.097 48.1652 216.108 48.1592 216.118 48.1531C216.17 48.1232 216.227 48.0907 216.283 48.056C216.41 47.9782 216.533 47.8987 216.651 47.8192M197.787 43.6446H198.118H197.787ZM216.651 47.8192C216.651 47.8194 216.651 47.8196 216.65 47.8198L216.467 47.5437L216.652 47.8185C216.652 47.8188 216.652 47.819 216.651 47.8192Z" fill="#00FFCC" stroke="#00EABB" stroke-width="0.662791"/>
<path d="M214.175 43.2813C214.475 43.025 214.879 42.8316 215.335 42.7256L209.537 39.3685C209.485 39.3383 209.424 39.3154 209.359 39.3012C209.293 39.2869 209.223 39.2816 209.153 39.2855C209.083 39.2895 209.015 39.3025 208.952 39.324C208.889 39.3455 208.832 39.3749 208.785 39.4107L207.671 40.2661C207.624 40.3021 207.588 40.3436 207.565 40.3883C207.542 40.433 207.532 40.48 207.536 40.5266C207.54 40.5732 207.558 40.6186 207.588 40.66C207.619 40.7014 207.661 40.7382 207.713 40.7681L213.512 44.1252C213.605 43.809 213.836 43.5152 214.175 43.2812" fill="#141BEB"/>
<path d="M204.946 41.1425C204.646 41.3986 204.242 41.5918 203.785 41.6975L209.584 45.0546C209.635 45.0848 209.696 45.1077 209.762 45.1219C209.827 45.1362 209.897 45.1415 209.967 45.1376C210.037 45.1336 210.105 45.1206 210.168 45.0991C210.232 45.0776 210.288 45.0482 210.335 45.0124L211.45 44.157C211.496 44.121 211.532 44.0795 211.555 44.0348C211.578 43.9901 211.588 43.9431 211.584 43.8965C211.58 43.8499 211.562 43.8045 211.532 43.7631C211.502 43.7216 211.459 43.6849 211.407 43.6549L205.608 40.2979C205.515 40.6141 205.284 40.9079 204.946 41.1419" fill="#141BEB"/>
<path d="M209.413 46.9365C209.713 46.6802 210.117 46.4867 210.574 46.3807L204.775 43.0236C204.723 42.9934 204.663 42.9705 204.597 42.9563C204.531 42.9421 204.461 42.9368 204.392 42.9407C204.322 42.9446 204.253 42.9577 204.19 42.9791C204.127 43.0006 204.07 43.0301 204.023 43.0658L202.909 43.9212C202.862 43.9572 202.827 43.9987 202.804 44.0434C202.781 44.0881 202.771 44.1351 202.775 44.1818C202.779 44.2284 202.796 44.2737 202.827 44.3152C202.857 44.3566 202.899 44.3933 202.952 44.4233L208.75 47.7804C208.844 47.4641 209.074 47.1703 209.413 46.9363" fill="#141BEB"/>
<path opacity="0.4" d="M184.861 -79H232.582L219.326 44.2791C219.326 44.2791 218.231 49.5814 208.722 49.5814C199.213 49.5814 198.117 44.2791 198.117 44.2791L184.861 -79Z" fill="url(#paint6_linear_1461_15356)"/>
<path d="M287.595 164.887C287.184 165.122 286.679 165.121 286.269 164.883L247.872 142.588C246.979 142.07 246.995 140.774 247.901 140.279L287.581 118.577C287.997 118.35 288.503 118.362 288.908 118.609L325.449 140.903C326.309 141.428 326.292 142.683 325.418 143.185L287.595 164.887Z" fill="url(#paint7_linear_1461_15356)"/>
<g style="mix-blend-mode:multiply">
<path d="M285.607 155.754L261.35 141.747L285.607 127.741L309.868 141.747L285.607 155.754Z" fill="#2B2B2B" fill-opacity="0.15"/>
</g>
<path d="M285.606 120.691L262.076 107.104L285.606 93.5194L309.139 107.104L285.606 120.691Z" fill="#7075FF"/>
<g style="mix-blend-mode:soft-light">
<path d="M274.833 107.25C274.835 105.554 275.955 103.928 278.052 102.723L278.052 102.723C280.151 101.518 282.88 100.924 285.591 100.924C288.269 100.924 290.965 101.503 293.053 102.679H293.056L293.132 102.723C295.226 103.927 296.352 105.552 296.352 107.25C296.352 107.987 296.136 108.716 295.717 109.405L295.716 109.406C295.659 109.499 295.596 109.599 295.525 109.697C295.254 110.081 294.918 110.45 294.519 110.798L294.515 110.802L294.515 110.802C294.503 110.812 294.49 110.822 294.478 110.833C294.416 110.885 294.347 110.944 294.276 110.998C294.096 111.144 293.902 111.288 293.697 111.424M274.833 107.25V107.25V107.25V107.25V107.25V107.25V107.25V107.25V107.25V107.25V107.25V107.25V107.25V107.25V107.25V107.25V107.25V107.25V107.25V107.25V107.25V107.25V107.25V107.25V107.25V107.25V107.25V107.25V107.25V107.25V107.25V107.25V107.25V107.25V107.25V107.25V107.25V107.25V107.25V107.25V107.25V107.25V107.25V107.25V107.25V107.25V107.25V107.251V107.251V107.251V107.251V107.251V107.251V107.251V107.251V107.251V107.251V107.251V107.251V107.251V107.251V107.251V107.251V107.251V107.251V107.251V107.251V107.251V107.251V107.251V107.251V107.251V107.251V107.251V107.251V107.251V107.251V107.251V107.251V107.251V107.251V107.251V107.251V107.251V107.251V107.251V107.251V107.251V107.251V107.251V107.251V107.251V107.251V107.251V107.251V107.251V107.251V107.251V107.252V107.252V107.252V107.252V107.252V107.252V107.252V107.252V107.252V107.252V107.252V107.252V107.252V107.252C274.833 107.254 274.833 107.257 274.833 107.26V107.396C274.833 107.43 274.837 107.46 274.838 107.473L274.84 107.487C274.846 107.58 274.855 107.67 274.868 107.761L274.868 107.761L274.868 107.765C274.875 107.81 274.882 107.866 274.894 107.923C274.911 108.022 274.933 108.118 274.955 108.208L274.955 108.208L274.957 108.215L274.958 108.218C274.969 108.259 274.982 108.308 274.997 108.356C275.027 108.455 275.06 108.556 275.098 108.658L275.098 108.658L275.1 108.662C275.107 108.681 275.115 108.699 275.121 108.713L275.121 108.715C275.128 108.73 275.133 108.742 275.137 108.753L275.137 108.753L275.138 108.756C275.185 108.873 275.238 108.991 275.299 109.11L275.298 109.11L275.302 109.116C275.306 109.124 275.311 109.133 275.316 109.142C275.351 109.208 275.39 109.281 275.435 109.355L275.434 109.355L275.441 109.365C275.449 109.377 275.457 109.39 275.468 109.408L275.469 109.41C275.478 109.425 275.49 109.445 275.503 109.465C275.549 109.538 275.602 109.619 275.66 109.699C276.101 110.322 276.713 110.904 277.488 111.424C277.607 111.504 277.732 111.583 277.855 111.66L277.858 111.662C277.892 111.682 277.927 111.702 277.958 111.72L277.961 111.722C277.992 111.74 278.02 111.756 278.048 111.773L278.048 111.773L278.053 111.776C278.055 111.777 278.058 111.779 278.061 111.781C278.094 111.8 278.138 111.825 278.186 111.848C280.267 113.006 282.938 113.576 285.593 113.576C288.248 113.576 290.92 113.006 293 111.848C293.049 111.825 293.092 111.8 293.125 111.781L293.133 111.776C293.133 111.776 293.133 111.776 293.133 111.776C293.143 111.77 293.154 111.764 293.164 111.758C293.216 111.728 293.273 111.696 293.329 111.661C293.456 111.583 293.579 111.504 293.697 111.424M274.833 107.25H275.164H274.833ZM293.697 111.424C293.697 111.424 293.697 111.425 293.696 111.425L293.513 111.149L293.698 111.424C293.698 111.424 293.697 111.424 293.697 111.424Z" fill="#00FFCC" stroke="#00EABB" stroke-width="0.662791"/>
<path d="M291.221 106.886C291.521 106.63 291.925 106.437 292.381 106.331L286.583 102.973C286.531 102.943 286.47 102.92 286.405 102.906C286.339 102.892 286.269 102.887 286.199 102.891C286.129 102.894 286.061 102.908 285.998 102.929C285.935 102.95 285.878 102.98 285.831 103.016L284.717 103.871C284.67 103.907 284.634 103.949 284.611 103.993C284.588 104.038 284.578 104.085 284.582 104.132C284.586 104.178 284.604 104.224 284.634 104.265C284.665 104.306 284.707 104.343 284.759 104.373L290.558 107.73C290.651 107.414 290.882 107.12 291.221 106.886" fill="#141BEB"/>
<path d="M281.992 104.747C281.692 105.004 281.288 105.197 280.831 105.303L286.629 108.66C286.681 108.69 286.742 108.713 286.808 108.727C286.873 108.741 286.943 108.746 287.013 108.743C287.083 108.739 287.151 108.726 287.214 108.704C287.278 108.683 287.334 108.653 287.381 108.617L288.496 107.762C288.542 107.726 288.578 107.684 288.601 107.64C288.624 107.595 288.634 107.548 288.63 107.501C288.626 107.455 288.608 107.41 288.578 107.368C288.548 107.327 288.505 107.29 288.453 107.26L282.654 103.903C282.561 104.219 282.33 104.513 281.991 104.747" fill="#141BEB"/>
<path d="M286.459 110.541C286.759 110.285 287.163 110.092 287.62 109.986L281.821 106.629C281.769 106.598 281.709 106.576 281.643 106.561C281.577 106.547 281.507 106.542 281.437 106.546C281.368 106.55 281.299 106.563 281.236 106.584C281.173 106.606 281.116 106.635 281.069 106.671L279.955 107.526C279.908 107.562 279.872 107.604 279.849 107.648C279.826 107.693 279.817 107.74 279.821 107.787C279.824 107.833 279.842 107.879 279.873 107.92C279.903 107.962 279.945 107.998 279.997 108.028L285.796 111.385C285.89 111.069 286.12 110.775 286.459 110.541" fill="#141BEB"/>
</g>
<path d="M285.607 121.183C285.521 121.183 285.438 121.16 285.361 121.117L261.828 107.529C261.675 107.439 261.582 107.276 261.582 107.1C261.582 106.924 261.675 106.761 261.828 106.672L285.361 93.0907C285.514 93.001 285.703 93.001 285.856 93.0907L309.389 106.678C309.542 106.768 309.635 106.931 309.635 107.107C309.635 107.283 309.542 107.446 309.389 107.536L285.856 121.123C285.78 121.166 285.693 121.19 285.61 121.19L285.607 121.183ZM263.064 107.104L285.607 120.12L308.15 107.104L285.607 94.0876L263.064 107.104Z" fill="#0D129E"/>
<path d="M285.605 120.561L262.072 107.104V134.146L285.605 147.733L309.139 134.146V107.104L285.605 120.561Z" fill="#464CFF"/>
<path d="M309.283 134.478L285.342 148.089V120.87L309.283 107.388V134.478Z" fill="#141BEB"/>
<path d="M285.607 148.225C285.521 148.225 285.438 148.202 285.361 148.159L261.828 134.571C261.675 134.481 261.582 134.319 261.582 134.142V107.104C261.582 106.927 261.675 106.765 261.828 106.675C261.981 106.585 262.167 106.585 262.32 106.675L285.607 119.99L308.894 106.675C309.047 106.589 309.233 106.589 309.386 106.675C309.539 106.765 309.632 106.927 309.632 107.104V134.146C309.632 134.322 309.539 134.485 309.386 134.574L285.853 148.162C285.776 148.205 285.69 148.228 285.607 148.228V148.225ZM262.569 133.86L285.607 147.162L308.645 133.86V107.958L285.853 120.99C285.7 121.077 285.514 121.077 285.361 120.99L262.569 107.958V133.863V133.86Z" fill="#0D129E"/>
<path d="M285.607 148.225C285.335 148.225 285.112 148.003 285.112 147.73V120.558C285.112 120.286 285.335 120.063 285.607 120.063C285.88 120.063 286.103 120.286 286.103 120.558V147.73C286.103 148.003 285.88 148.225 285.607 148.225Z" fill="#0D129E"/>
<path d="M371.456 212.122C371.05 212.356 370.549 212.358 370.141 212.126L332.308 190.64C331.418 190.135 331.412 188.855 332.297 188.341L370.13 166.388C370.544 166.148 371.055 166.15 371.467 166.392L408.833 188.345C409.71 188.86 409.704 190.13 408.823 190.637L371.456 212.122Z" fill="url(#paint8_linear_1461_15356)"/>
<g style="mix-blend-mode:multiply">
<path d="M370.443 203.474L346.186 189.468L370.443 175.462L394.704 189.468L370.443 203.474Z" fill="#2B2B2B" fill-opacity="0.15"/>
</g>
<path d="M370.442 150.156L346.912 136.569L370.442 122.984L393.975 136.569L370.442 150.156Z" fill="#00EDBE"/>
<path d="M370.443 150.648C370.357 150.648 370.273 150.625 370.197 150.581L346.664 136.994C346.511 136.904 346.418 136.741 346.418 136.565C346.418 136.389 346.511 136.226 346.664 136.137L370.197 122.556C370.35 122.466 370.539 122.466 370.692 122.556L394.225 136.143C394.378 136.233 394.471 136.396 394.471 136.572C394.471 136.748 394.378 136.911 394.225 137.001L370.692 150.588C370.616 150.631 370.529 150.655 370.446 150.655L370.443 150.648ZM347.9 136.569L370.443 149.585L392.986 136.569L370.443 123.553L347.9 136.569Z" fill="#0D129E"/>
<path d="M370.441 150.026L346.908 136.568V163.611L370.441 177.198L393.975 163.611V136.568L370.441 150.026Z" fill="#464CFF"/>
<path d="M394.119 163.943L370.178 177.554V150.335L394.119 136.853V163.943Z" fill="#141BEB"/>
<path d="M370.443 177.69C370.357 177.69 370.273 177.667 370.197 177.624L346.664 164.036C346.511 163.947 346.418 163.784 346.418 163.608V136.569C346.418 136.393 346.511 136.23 346.664 136.14C346.817 136.05 347.003 136.05 347.156 136.14L370.443 149.455L393.73 136.14C393.883 136.054 394.069 136.054 394.222 136.14C394.375 136.23 394.468 136.393 394.468 136.569V163.611C394.468 163.787 394.375 163.95 394.222 164.04L370.689 177.627C370.612 177.67 370.526 177.694 370.443 177.694V177.69ZM347.405 163.325L370.443 176.627L393.481 163.325V137.423L370.689 150.455C370.536 150.542 370.35 150.542 370.197 150.455L347.405 137.423V163.328V163.325Z" fill="#0D129E"/>
<path d="M370.443 177.69C370.171 177.69 369.948 177.467 369.948 177.195V150.023C369.948 149.751 370.171 149.528 370.443 149.528C370.716 149.528 370.938 149.751 370.938 150.023V177.195C370.938 177.467 370.716 177.69 370.443 177.69Z" fill="#0D129E"/>
<path d="M359.505 136.435C359.507 134.74 360.627 133.114 362.724 131.908L362.724 131.908C364.823 130.703 367.552 130.11 370.263 130.11C372.941 130.11 375.637 130.689 377.725 131.864H377.727L377.804 131.908C379.898 133.112 381.024 134.738 381.024 136.435C381.024 137.173 380.808 137.901 380.389 138.591L380.388 138.592C380.331 138.685 380.268 138.784 380.197 138.882C379.926 139.266 379.59 139.636 379.191 139.983L379.187 139.987L379.187 139.987C379.175 139.998 379.162 140.008 379.149 140.019C379.088 140.071 379.019 140.129 378.948 140.184C378.768 140.329 378.574 140.474 378.369 140.61M359.505 136.435V136.435V136.435V136.435V136.435V136.435V136.435V136.435V136.435V136.435V136.435V136.435V136.435V136.436V136.436V136.436V136.436V136.436V136.436V136.436V136.436V136.436V136.436V136.436V136.436V136.436V136.436V136.436V136.436V136.436V136.436V136.436V136.436V136.436V136.436V136.436V136.436V136.436V136.436V136.436V136.436V136.436V136.436V136.436V136.436V136.436V136.436V136.436V136.436V136.436V136.436V136.436V136.436V136.436V136.436V136.436V136.436V136.436V136.436V136.436V136.436V136.436V136.436V136.436V136.437V136.437V136.437V136.437V136.437V136.437V136.437V136.437V136.437V136.437V136.437V136.437V136.437V136.437V136.437V136.437V136.437V136.437V136.437V136.437V136.437V136.437V136.437V136.437V136.437V136.437V136.437V136.437V136.437V136.437V136.437V136.437V136.437V136.437V136.437V136.437V136.437V136.437V136.437V136.437V136.437V136.437V136.437V136.437V136.437V136.437V136.437V136.437C359.505 136.44 359.505 136.443 359.505 136.445V136.581C359.505 136.616 359.509 136.645 359.51 136.658L359.512 136.673C359.518 136.765 359.527 136.856 359.54 136.947L359.54 136.947L359.54 136.951C359.546 136.996 359.554 137.052 359.566 137.109C359.583 137.207 359.605 137.303 359.627 137.394L359.627 137.394L359.629 137.401L359.63 137.404C359.641 137.445 359.654 137.493 359.669 137.542C359.699 137.641 359.732 137.741 359.77 137.844L359.77 137.844L359.772 137.848C359.779 137.867 359.787 137.885 359.793 137.899L359.793 137.9C359.8 137.916 359.804 137.928 359.809 137.938L359.809 137.938L359.81 137.941C359.857 138.059 359.91 138.177 359.97 138.295L359.97 138.295L359.974 138.301C359.978 138.31 359.983 138.319 359.988 138.328C360.023 138.393 360.062 138.466 360.106 138.541L360.106 138.541L360.113 138.551C360.121 138.563 360.129 138.576 360.14 138.594L360.141 138.595C360.15 138.611 360.162 138.631 360.175 138.651C360.221 138.724 360.274 138.805 360.331 138.885C360.773 139.508 361.385 140.09 362.16 140.609C362.279 140.69 362.404 140.769 362.527 140.846L362.53 140.847C362.564 140.868 362.598 140.888 362.63 140.906L362.632 140.907C362.664 140.925 362.692 140.942 362.72 140.959L362.72 140.959L362.725 140.961C362.727 140.963 362.73 140.965 362.733 140.966C362.766 140.986 362.81 141.011 362.858 141.034C364.938 142.191 367.61 142.761 370.265 142.761C372.92 142.761 375.592 142.191 377.672 141.034C377.72 141.011 377.764 140.986 377.797 140.966L377.804 140.962C377.805 140.962 377.805 140.962 377.805 140.962C377.815 140.956 377.826 140.95 377.836 140.944C377.888 140.914 377.945 140.881 378.001 140.847C378.128 140.769 378.251 140.689 378.369 140.61M359.505 136.435H359.836H359.505ZM378.369 140.61C378.369 140.61 378.368 140.61 378.368 140.61L378.185 140.334L378.37 140.609C378.37 140.609 378.369 140.61 378.369 140.61Z" fill="#00FFCC" stroke="#00EABB" stroke-width="0.662791"/>
<path d="M375.892 136.072C376.193 135.816 376.597 135.622 377.053 135.516L371.255 132.159C371.203 132.129 371.142 132.106 371.076 132.092C371.011 132.078 370.941 132.072 370.871 132.076C370.801 132.08 370.733 132.093 370.67 132.115C370.606 132.136 370.55 132.166 370.503 132.201L369.388 133.057C369.342 133.093 369.306 133.134 369.283 133.179C369.26 133.224 369.25 133.271 369.254 133.317C369.258 133.364 369.276 133.409 369.306 133.451C369.336 133.492 369.379 133.529 369.431 133.559L375.23 136.916C375.323 136.6 375.554 136.306 375.893 136.072" fill="#141BEB"/>
<path d="M366.664 133.933C366.364 134.189 365.959 134.382 365.503 134.488L371.301 137.845C371.353 137.875 371.414 137.898 371.479 137.913C371.545 137.927 371.615 137.932 371.685 137.928C371.755 137.924 371.823 137.911 371.886 137.89C371.949 137.868 372.006 137.839 372.053 137.803L373.167 136.948C373.214 136.912 373.25 136.87 373.273 136.825C373.296 136.781 373.306 136.734 373.302 136.687C373.298 136.641 373.28 136.595 373.25 136.554C373.219 136.512 373.177 136.476 373.125 136.446L367.326 133.089C367.233 133.405 367.002 133.699 366.663 133.933" fill="#141BEB"/>
<path d="M371.131 139.727C371.431 139.471 371.835 139.277 372.292 139.171L366.493 135.814C366.441 135.784 366.381 135.761 366.315 135.747C366.249 135.733 366.179 135.727 366.109 135.731C366.04 135.735 365.971 135.748 365.908 135.77C365.845 135.791 365.788 135.821 365.741 135.856L364.627 136.712C364.58 136.748 364.544 136.789 364.521 136.834C364.498 136.879 364.488 136.926 364.492 136.972C364.496 137.019 364.514 137.064 364.544 137.106C364.575 137.147 364.617 137.184 364.669 137.214L370.468 140.571C370.561 140.255 370.792 139.961 371.131 139.727" fill="#141BEB"/>
<path opacity="0.4" d="M346.581 13.7906H394.302L381.046 137.07C381.046 137.07 379.951 142.372 370.442 142.372C360.932 142.372 359.837 137.07 359.837 137.07L346.581 13.7906Z" fill="url(#paint9_linear_1461_15356)"/>
<path d="M151.058 152.956C150.648 153.192 150.143 153.191 149.733 152.953L111.336 130.657C110.443 130.139 110.459 128.844 111.365 128.348L151.045 106.647C151.461 106.419 151.967 106.431 152.372 106.678L188.913 128.973C189.773 129.498 189.756 130.752 188.882 131.254L151.058 152.956Z" fill="url(#paint10_linear_1461_15356)"/>
<g style="mix-blend-mode:multiply">
<path d="M149.071 143.823L124.813 129.817L149.071 115.811L173.332 129.817L149.071 143.823Z" fill="#2B2B2B" fill-opacity="0.15"/>
</g>
<path d="M149.07 108.761L125.54 95.173L149.07 81.5887L172.603 95.173L149.07 108.761Z" fill="#7075FF"/>
<g style="mix-blend-mode:soft-light">
<path d="M137.832 95.2496C137.834 93.5544 138.954 91.9278 141.051 90.7226L141.051 90.7226C143.15 89.5175 145.879 88.9245 148.59 88.9245C151.268 88.9245 153.964 89.5031 156.052 90.6785H156.055L156.131 90.7226C158.225 91.9265 159.351 93.5519 159.351 95.2496C159.351 95.9874 159.135 96.7158 158.716 97.4049L158.715 97.406C158.658 97.4993 158.595 97.5988 158.524 97.6967C158.253 98.0806 157.917 98.4503 157.518 98.7978L157.514 98.8017L157.514 98.8017C157.502 98.8118 157.489 98.8224 157.477 98.8332C157.415 98.8851 157.346 98.9436 157.275 98.998C157.095 99.1437 156.901 99.288 156.696 99.4242M137.832 95.2496V95.2496V95.2496V95.2496V95.2497V95.2497V95.2497V95.2497V95.2497V95.2498V95.2498V95.2498V95.2498V95.2498V95.2499V95.2499V95.2499V95.2499V95.2499V95.25V95.25V95.25V95.25V95.25V95.2501V95.2501V95.2501V95.2501V95.2501V95.2502V95.2502V95.2502V95.2502V95.2502V95.2503V95.2503V95.2503V95.2503V95.2503V95.2503V95.2504V95.2504V95.2504V95.2504V95.2504V95.2505V95.2505V95.2505V95.2505V95.2505V95.2506V95.2506V95.2506V95.2506V95.2506V95.2507V95.2507V95.2507V95.2507V95.2507V95.2508V95.2508V95.2508V95.2508V95.2508V95.2509V95.2509V95.2509V95.2509V95.2509V95.251V95.251V95.251V95.251V95.251V95.2511V95.2511V95.2511V95.2511V95.2511V95.2512V95.2512V95.2512V95.2512V95.2512V95.2513V95.2513V95.2513V95.2513V95.2513V95.2514V95.2514V95.2514V95.2514V95.2514V95.2515V95.2515V95.2515V95.2515V95.2515V95.2516V95.2516V95.2516V95.2516V95.2516V95.2516V95.2517V95.2517V95.2517V95.2517V95.2517V95.2518C137.832 95.2545 137.832 95.2571 137.832 95.2598V95.3956C137.832 95.4301 137.836 95.4596 137.837 95.4727L137.839 95.4872C137.845 95.5795 137.854 95.6698 137.867 95.7613L137.867 95.7615L137.867 95.7654C137.874 95.8101 137.881 95.8658 137.893 95.9233C137.91 96.0217 137.932 96.1175 137.954 96.208L137.954 96.208L137.956 96.2152L137.957 96.2182C137.968 96.2589 137.981 96.3077 137.997 96.356C138.026 96.455 138.059 96.5557 138.097 96.6583L138.097 96.6583L138.099 96.662C138.106 96.6809 138.114 96.6991 138.12 96.7134L138.12 96.7147C138.127 96.7304 138.132 96.7418 138.136 96.7526L138.136 96.7526L138.137 96.7556C138.184 96.8729 138.237 96.991 138.298 97.1097L138.297 97.1098L138.301 97.1157C138.305 97.1243 138.31 97.1331 138.315 97.142C138.35 97.2076 138.389 97.2807 138.434 97.3551L138.433 97.3552L138.44 97.3652C138.448 97.3773 138.456 97.3904 138.467 97.4083L138.468 97.4097C138.477 97.4254 138.489 97.4452 138.503 97.4652C138.548 97.5381 138.601 97.6194 138.659 97.699C139.1 98.3223 139.712 98.9041 140.487 99.4237C140.606 99.504 140.731 99.5834 140.854 99.6599L140.857 99.6616C140.891 99.6823 140.926 99.7022 140.957 99.7202L140.96 99.7218C140.991 99.7398 141.019 99.7562 141.047 99.7731L141.047 99.7731L141.052 99.7758C141.054 99.7774 141.057 99.779 141.06 99.7807C141.093 99.7998 141.137 99.8252 141.185 99.8483C143.266 101.006 145.937 101.576 148.592 101.576C151.247 101.576 153.919 101.006 155.999 99.8483C156.048 99.8252 156.091 99.7998 156.124 99.7807L156.132 99.7764C156.132 99.7762 156.132 99.7761 156.132 99.776C156.142 99.7702 156.153 99.7642 156.163 99.7581C156.215 99.7282 156.272 99.6956 156.328 99.661C156.455 99.5831 156.578 99.5036 156.696 99.4242M137.832 95.2496H138.163H137.832ZM156.696 99.4242C156.696 99.4244 156.696 99.4246 156.695 99.4248L156.512 99.1487L156.697 99.4235C156.697 99.4237 156.697 99.424 156.696 99.4242Z" fill="#00FFCC" stroke="#00EABB" stroke-width="0.662791"/>
<path d="M154.22 94.8863C154.52 94.63 154.924 94.4366 155.38 94.3305L149.582 90.9735C149.53 90.9432 149.469 90.9204 149.404 90.9061C149.338 90.8919 149.268 90.8866 149.198 90.8905C149.128 90.8944 149.06 90.9075 148.997 90.929C148.934 90.9504 148.877 90.9799 148.83 91.0157L147.716 91.8711C147.669 91.907 147.633 91.9486 147.61 91.9933C147.587 92.038 147.577 92.085 147.581 92.1316C147.585 92.1782 147.603 92.2235 147.633 92.265C147.664 92.3064 147.706 92.3432 147.758 92.3731L153.557 95.7302C153.65 95.4139 153.881 95.1202 154.22 94.8861" fill="#141BEB"/>
<path d="M144.991 92.7474C144.691 93.0036 144.287 93.1968 143.83 93.3025L149.628 96.6596C149.68 96.6898 149.741 96.7127 149.807 96.7269C149.872 96.7411 149.942 96.7465 150.012 96.7425C150.082 96.7386 150.15 96.7255 150.213 96.7041C150.277 96.6826 150.333 96.6531 150.38 96.6174L151.495 95.762C151.541 95.726 151.577 95.6845 151.6 95.6398C151.623 95.5951 151.633 95.5481 151.629 95.5015C151.625 95.4548 151.607 95.4095 151.577 95.3681C151.547 95.3266 151.504 95.2899 151.452 95.2599L145.653 91.9028C145.56 92.2191 145.329 92.5129 144.99 92.7469" fill="#141BEB"/>
<path d="M149.458 98.5415C149.758 98.2851 150.162 98.0917 150.619 97.9857L144.82 94.6286C144.768 94.5984 144.708 94.5755 144.642 94.5613C144.576 94.5471 144.506 94.5417 144.436 94.5457C144.367 94.5496 144.298 94.5627 144.235 94.5841C144.172 94.6056 144.115 94.6351 144.068 94.6708L142.954 95.5262C142.907 95.5622 142.872 95.6037 142.848 95.6484C142.825 95.6931 142.816 95.7401 142.82 95.7867C142.824 95.8334 142.841 95.8787 142.872 95.9201C142.902 95.9616 142.944 95.9983 142.996 96.0283L148.795 99.3854C148.889 99.0691 149.119 98.7753 149.458 98.5413" fill="#141BEB"/>
</g>
<path d="M149.071 109.252C148.984 109.252 148.901 109.229 148.825 109.186L125.292 95.5983C125.139 95.5086 125.046 95.3458 125.046 95.1696C125.046 94.9935 125.139 94.8307 125.292 94.741L148.825 81.1601C148.978 81.0703 149.167 81.0703 149.32 81.1601L172.853 94.7476C173.006 94.8373 173.099 95.0002 173.099 95.1763C173.099 95.3524 173.006 95.5152 172.853 95.6049L149.32 109.192C149.244 109.236 149.157 109.259 149.074 109.259L149.071 109.252ZM126.528 95.173L149.071 108.189L171.614 95.173L149.071 82.1569L126.528 95.173Z" fill="#0D129E"/>
<path d="M149.069 108.631L125.536 95.1729V122.215L149.069 135.803L172.602 122.215V95.1729L149.069 108.631Z" fill="#464CFF"/>
<path d="M172.747 122.547L148.806 136.158V108.939L172.747 95.4576V122.547Z" fill="#141BEB"/>
<path d="M149.071 136.295C148.984 136.295 148.901 136.271 148.825 136.228L125.292 122.641C125.139 122.551 125.046 122.388 125.046 122.212V95.1731C125.046 94.997 125.139 94.8341 125.292 94.7444C125.445 94.6547 125.631 94.6547 125.784 94.7444L149.071 108.059L172.358 94.7444C172.511 94.658 172.697 94.658 172.85 94.7444C173.003 94.8341 173.096 94.997 173.096 95.1731V122.215C173.096 122.391 173.003 122.554 172.85 122.644L149.317 136.231C149.24 136.275 149.154 136.298 149.071 136.298V136.295ZM126.033 121.929L149.071 135.231L172.109 121.929V96.0271L149.317 109.06C149.164 109.146 148.978 109.146 148.825 109.06L126.033 96.0271V121.933V121.929Z" fill="#0D129E"/>
<path d="M149.071 136.294C148.799 136.294 148.576 136.072 148.576 135.799V108.628C148.576 108.355 148.799 108.132 149.071 108.132C149.344 108.132 149.566 108.355 149.566 108.628V135.799C149.566 136.072 149.344 136.294 149.071 136.294Z" fill="#141BEB"/>
<path d="M226.617 198.026C226.206 198.262 225.701 198.26 225.292 198.022L186.894 175.727C186.001 175.209 186.018 173.913 186.924 173.418L226.604 151.716C227.02 151.489 227.526 151.501 227.93 151.748L264.472 174.042C265.332 174.567 265.315 175.822 264.441 176.324L226.617 198.026Z" fill="url(#paint11_linear_1461_15356)"/>
<g style="mix-blend-mode:multiply">
<path d="M224.631 188.893L200.373 174.886L224.631 160.88L248.891 174.886L224.631 188.893Z" fill="#2B2B2B" fill-opacity="0.15"/>
</g>
<path d="M224.628 125.574L201.099 111.987L224.628 98.4023L248.162 111.987L224.628 125.574Z" fill="#00EDBE"/>
<path d="M224.629 126.066C224.543 126.066 224.46 126.043 224.384 126L200.85 112.412C200.698 112.322 200.604 112.16 200.604 111.983C200.604 111.807 200.698 111.645 200.85 111.555L224.384 97.9739C224.536 97.8842 224.726 97.8842 224.879 97.9739L248.412 111.561C248.565 111.651 248.658 111.814 248.658 111.99C248.658 112.166 248.565 112.329 248.412 112.419L224.879 126.006C224.802 126.05 224.716 126.073 224.633 126.073L224.629 126.066ZM202.087 111.987L224.629 125.003L247.172 111.987L224.629 98.9708L202.087 111.987Z" fill="#0D129E"/>
<path d="M224.628 125.445L201.095 111.987V139.029L224.628 152.616L248.161 139.029V111.987L224.628 125.445Z" fill="#464CFF"/>
<path d="M248.306 139.361L224.364 152.972V125.753L248.306 112.272V139.361Z" fill="#0D129E"/>
<path d="M224.629 153.109C224.543 153.109 224.46 153.085 224.384 153.042L200.85 139.455C200.698 139.365 200.604 139.202 200.604 139.026V111.987C200.604 111.811 200.698 111.648 200.85 111.559C201.003 111.469 201.189 111.469 201.342 111.559L224.629 124.874L247.917 111.559C248.07 111.472 248.256 111.472 248.409 111.559C248.561 111.648 248.654 111.811 248.654 111.987V139.029C248.654 139.205 248.561 139.368 248.409 139.458L224.875 153.046C224.799 153.089 224.713 153.112 224.629 153.112V153.109ZM201.591 138.744L224.629 152.045L247.667 138.744V112.841L224.875 125.874C224.722 125.96 224.536 125.96 224.384 125.874L201.591 112.841V138.747V138.744Z" fill="#0D129E"/>
<path d="M224.63 153.108C224.357 153.108 224.135 152.886 224.135 152.613V125.442C224.135 125.169 224.357 124.946 224.63 124.946C224.902 124.946 225.125 125.169 225.125 125.442V152.613C225.125 152.886 224.902 153.108 224.63 153.108Z" fill="#0D129E"/>
<path d="M213.691 111.854C213.694 110.159 214.814 108.532 216.911 107.327L216.911 107.327C219.009 106.122 221.739 105.529 224.45 105.529C227.128 105.529 229.823 106.108 231.911 107.283H231.914L231.991 107.327C234.085 108.531 235.21 110.156 235.21 111.854C235.21 112.592 234.995 113.32 234.576 114.009L234.575 114.011C234.518 114.104 234.454 114.203 234.384 114.301C234.113 114.685 233.776 115.055 233.378 115.402L233.373 115.406L233.373 115.406C233.361 115.416 233.349 115.427 233.336 115.438C233.274 115.49 233.205 115.548 233.134 115.602C232.955 115.748 232.761 115.893 232.556 116.029M213.691 111.854V111.854V111.854V111.854V111.854V111.854V111.854V111.854V111.854V111.854V111.854V111.854V111.854V111.854V111.854V111.854V111.854V111.854V111.854V111.854V111.854V111.854V111.855V111.855V111.855V111.855V111.855V111.855V111.855V111.855V111.855V111.855V111.855V111.855V111.855V111.855V111.855V111.855V111.855V111.855V111.855V111.855V111.855V111.855V111.855V111.855V111.855V111.855V111.855V111.855V111.855V111.855V111.855V111.855V111.855V111.855V111.855V111.855V111.855V111.855V111.855V111.855V111.855V111.855V111.855V111.855V111.855V111.855V111.855V111.855V111.855V111.855V111.855V111.856V111.856V111.856V111.856V111.856V111.856V111.856V111.856V111.856V111.856V111.856V111.856V111.856V111.856V111.856V111.856V111.856V111.856V111.856V111.856V111.856V111.856V111.856V111.856V111.856V111.856V111.856V111.856V111.856V111.856V111.856V111.856V111.856V111.856V111.856V111.856V111.856V111.856V111.856C213.691 111.859 213.691 111.862 213.691 111.864V112C213.691 112.035 213.695 112.064 213.697 112.077L213.699 112.092C213.704 112.184 213.714 112.274 213.726 112.366L213.726 112.366L213.727 112.37C213.733 112.415 213.741 112.47 213.752 112.528C213.769 112.626 213.791 112.722 213.814 112.812L213.814 112.813L213.815 112.82L213.816 112.823C213.827 112.863 213.84 112.912 213.856 112.961C213.886 113.059 213.918 113.16 213.957 113.263L213.957 113.263L213.958 113.267C213.965 113.285 213.973 113.304 213.979 113.318L213.98 113.319C213.986 113.335 213.991 113.346 213.995 113.357L213.995 113.357L213.996 113.36C214.043 113.477 214.096 113.595 214.157 113.714L214.157 113.714L214.16 113.72C214.165 113.729 214.169 113.738 214.174 113.747C214.209 113.812 214.248 113.885 214.293 113.96L214.293 113.96L214.299 113.97C214.307 113.982 214.315 113.995 214.326 114.013L214.327 114.014C214.337 114.03 214.349 114.05 214.362 114.07C214.408 114.143 214.46 114.224 214.518 114.304C214.96 114.927 215.572 115.509 216.347 116.028C216.466 116.108 216.591 116.188 216.714 116.264L216.717 116.266C216.751 116.287 216.785 116.307 216.816 116.325L216.819 116.326C216.85 116.344 216.878 116.361 216.906 116.378L216.906 116.378L216.911 116.38C216.914 116.382 216.917 116.383 216.919 116.385C216.952 116.404 216.996 116.43 217.045 116.453C219.125 117.61 221.797 118.18 224.451 118.18C227.106 118.18 229.778 117.61 231.858 116.453C231.907 116.43 231.951 116.404 231.983 116.385L231.991 116.381C231.991 116.381 231.991 116.381 231.991 116.381C232.002 116.375 232.012 116.369 232.023 116.363C232.075 116.333 232.131 116.3 232.188 116.265C232.314 116.188 232.438 116.108 232.556 116.029M213.691 111.854H214.022H213.691ZM232.556 116.029C232.555 116.029 232.555 116.029 232.555 116.029L232.371 115.753L232.557 116.028C232.556 116.028 232.556 116.028 232.556 116.029Z" fill="#00FFCC" stroke="#00EABB" stroke-width="0.662791"/>
<path d="M230.079 111.491C230.379 111.234 230.783 111.041 231.24 110.935L225.441 107.578C225.389 107.548 225.329 107.525 225.263 107.511C225.197 107.496 225.127 107.491 225.058 107.495C224.988 107.499 224.919 107.512 224.856 107.533C224.793 107.555 224.736 107.584 224.689 107.62L223.575 108.476C223.528 108.512 223.493 108.553 223.47 108.598C223.447 108.642 223.437 108.689 223.441 108.736C223.445 108.783 223.462 108.828 223.493 108.869C223.523 108.911 223.565 108.948 223.618 108.978L229.416 112.335C229.51 112.018 229.74 111.725 230.079 111.491" fill="#141BEB"/>
<path d="M220.851 109.352C220.55 109.608 220.146 109.801 219.689 109.907L225.488 113.264C225.54 113.294 225.6 113.317 225.666 113.331C225.732 113.346 225.802 113.351 225.871 113.347C225.941 113.343 226.01 113.33 226.073 113.309C226.136 113.287 226.193 113.258 226.24 113.222L227.354 112.366C227.401 112.33 227.436 112.289 227.459 112.244C227.482 112.2 227.492 112.153 227.488 112.106C227.484 112.059 227.467 112.014 227.436 111.973C227.406 111.931 227.363 111.894 227.311 111.864L221.513 108.507C221.419 108.824 221.188 109.117 220.85 109.351" fill="#141BEB"/>
<path d="M225.317 115.146C225.617 114.89 226.021 114.696 226.478 114.59L220.679 111.233C220.628 111.203 220.567 111.18 220.501 111.166C220.435 111.152 220.366 111.146 220.296 111.15C220.226 111.154 220.158 111.167 220.094 111.189C220.031 111.21 219.975 111.24 219.928 111.275L218.813 112.131C218.767 112.167 218.731 112.208 218.708 112.253C218.685 112.298 218.675 112.345 218.679 112.391C218.683 112.438 218.701 112.483 218.731 112.525C218.761 112.566 218.804 112.603 218.856 112.633L224.655 115.99C224.748 115.674 224.979 115.38 225.317 115.146" fill="#141BEB"/>
<path opacity="0.4" d="M200.768 -10.791H248.489L235.233 112.488C235.233 112.488 234.137 117.79 224.628 117.79C215.119 117.79 214.023 112.488 214.023 112.488L200.768 -10.791Z" fill="url(#paint12_linear_1461_15356)"/>
<path d="M315.431 243.096C315.02 243.332 314.515 243.33 314.105 243.093L275.708 220.797C274.815 220.279 274.831 218.983 275.737 218.488L315.417 196.786C315.833 196.559 316.339 196.571 316.744 196.818L353.285 219.112C354.145 219.637 354.128 220.892 353.254 221.394L315.431 243.096Z" fill="url(#paint13_linear_1461_15356)"/>
<g style="mix-blend-mode:multiply">
<path d="M313.443 233.963L289.186 219.956L313.443 205.95L337.704 219.956L313.443 233.963Z" fill="#2B2B2B" fill-opacity="0.15"/>
</g>
<path d="M313.442 198.9L289.912 185.313L313.442 171.728L336.975 185.313L313.442 198.9Z" fill="#7075FF"/>
<g style="mix-blend-mode:soft-light">
<path d="M301.833 185.25C301.835 183.554 302.955 181.928 305.052 180.723L305.052 180.723C307.151 179.518 309.88 178.924 312.591 178.924C315.269 178.924 317.965 179.503 320.053 180.679H320.056L320.132 180.723C322.226 181.927 323.352 183.552 323.352 185.25C323.352 185.987 323.136 186.716 322.717 187.405L322.716 187.406C322.659 187.499 322.596 187.599 322.525 187.697C322.254 188.081 321.918 188.45 321.519 188.798L321.515 188.802L321.515 188.802C321.503 188.812 321.49 188.822 321.478 188.833C321.416 188.885 321.347 188.944 321.276 188.998C321.096 189.144 320.902 189.288 320.697 189.424M301.833 185.25V185.25V185.25V185.25V185.25V185.25V185.25V185.25V185.25V185.25V185.25V185.25V185.25V185.25V185.25V185.25V185.25V185.25V185.25V185.25V185.25V185.25V185.25V185.25V185.25V185.25V185.25V185.25V185.25V185.25V185.25V185.25V185.25V185.25V185.25V185.25V185.25V185.25V185.25V185.25V185.25V185.25V185.25V185.25V185.25V185.25V185.25V185.251V185.251V185.251V185.251V185.251V185.251V185.251V185.251V185.251V185.251V185.251V185.251V185.251V185.251V185.251V185.251V185.251V185.251V185.251V185.251V185.251V185.251V185.251V185.251V185.251V185.251V185.251V185.251V185.251V185.251V185.251V185.251V185.251V185.251V185.251V185.251V185.251V185.251V185.251V185.251V185.251V185.251V185.251V185.251V185.251V185.251V185.251V185.251V185.251V185.251V185.251V185.252V185.252V185.252V185.252V185.252V185.252V185.252V185.252V185.252V185.252V185.252V185.252V185.252V185.252C301.833 185.254 301.833 185.257 301.833 185.26V185.396C301.833 185.43 301.837 185.46 301.838 185.473L301.84 185.487C301.846 185.58 301.855 185.67 301.868 185.761L301.868 185.761L301.868 185.765C301.875 185.81 301.882 185.866 301.894 185.923C301.911 186.022 301.933 186.118 301.955 186.208L301.955 186.208L301.957 186.215L301.958 186.218C301.969 186.259 301.982 186.308 301.997 186.356C302.027 186.455 302.06 186.556 302.098 186.658L302.098 186.658L302.1 186.662C302.107 186.681 302.115 186.699 302.121 186.713L302.121 186.715C302.128 186.73 302.133 186.742 302.137 186.753L302.137 186.753L302.138 186.756C302.185 186.873 302.238 186.991 302.299 187.11L302.298 187.11L302.302 187.116C302.306 187.124 302.311 187.133 302.316 187.142C302.351 187.208 302.39 187.281 302.435 187.355L302.434 187.355L302.441 187.365C302.449 187.377 302.457 187.39 302.468 187.408L302.469 187.41C302.478 187.425 302.49 187.445 302.503 187.465C302.549 187.538 302.602 187.619 302.66 187.699C303.101 188.322 303.713 188.904 304.488 189.424C304.607 189.504 304.732 189.583 304.855 189.66L304.858 189.662C304.892 189.682 304.927 189.702 304.958 189.72L304.961 189.722C304.992 189.74 305.02 189.756 305.048 189.773L305.048 189.773L305.053 189.776C305.055 189.777 305.058 189.779 305.061 189.781C305.094 189.8 305.138 189.825 305.186 189.848C307.267 191.006 309.938 191.576 312.593 191.576C315.248 191.576 317.92 191.006 320 189.848C320.049 189.825 320.092 189.8 320.125 189.781L320.133 189.776C320.133 189.776 320.133 189.776 320.133 189.776C320.143 189.77 320.154 189.764 320.164 189.758C320.216 189.728 320.273 189.696 320.329 189.661C320.456 189.583 320.579 189.504 320.697 189.424M301.833 185.25H302.164H301.833ZM320.697 189.424C320.697 189.424 320.697 189.425 320.696 189.425L320.513 189.149L320.698 189.424C320.698 189.424 320.697 189.424 320.697 189.424Z" fill="#00FFCC" stroke="#00EABB" stroke-width="0.662791"/>
<path d="M318.221 184.886C318.521 184.63 318.925 184.437 319.381 184.331L313.583 180.973C313.531 180.943 313.47 180.92 313.405 180.906C313.339 180.892 313.269 180.887 313.199 180.891C313.129 180.894 313.061 180.908 312.998 180.929C312.935 180.95 312.878 180.98 312.831 181.016L311.717 181.871C311.67 181.907 311.634 181.949 311.611 181.993C311.588 182.038 311.578 182.085 311.582 182.132C311.586 182.178 311.604 182.224 311.634 182.265C311.665 182.306 311.707 182.343 311.759 182.373L317.558 185.73C317.651 185.414 317.882 185.12 318.221 184.886" fill="#141BEB"/>
<path d="M308.992 182.747C308.692 183.004 308.288 183.197 307.831 183.303L313.629 186.66C313.681 186.69 313.742 186.713 313.808 186.727C313.873 186.741 313.943 186.746 314.013 186.743C314.083 186.739 314.151 186.726 314.214 186.704C314.278 186.683 314.334 186.653 314.381 186.617L315.496 185.762C315.542 185.726 315.578 185.684 315.601 185.64C315.624 185.595 315.634 185.548 315.63 185.501C315.626 185.455 315.608 185.41 315.578 185.368C315.548 185.327 315.505 185.29 315.453 185.26L309.654 181.903C309.561 182.219 309.33 182.513 308.991 182.747" fill="#141BEB"/>
<path d="M313.459 188.541C313.759 188.285 314.163 188.092 314.62 187.986L308.821 184.629C308.769 184.598 308.709 184.576 308.643 184.561C308.577 184.547 308.507 184.542 308.437 184.546C308.368 184.55 308.299 184.563 308.236 184.584C308.173 184.606 308.116 184.635 308.069 184.671L306.955 185.526C306.908 185.562 306.872 185.604 306.849 185.648C306.826 185.693 306.817 185.74 306.821 185.787C306.824 185.833 306.842 185.879 306.873 185.92C306.903 185.962 306.945 185.998 306.997 186.028L312.796 189.385C312.89 189.069 313.12 188.775 313.459 188.541" fill="#141BEB"/>
</g>
<path d="M313.443 199.392C313.357 199.392 313.273 199.369 313.197 199.326L289.664 185.738C289.511 185.648 289.418 185.485 289.418 185.309C289.418 185.133 289.511 184.97 289.664 184.881L313.197 171.3C313.35 171.21 313.539 171.21 313.692 171.3L337.225 184.887C337.378 184.977 337.471 185.14 337.471 185.316C337.471 185.492 337.378 185.655 337.225 185.745L313.692 199.332C313.616 199.375 313.529 199.399 313.446 199.399L313.443 199.392ZM290.9 185.313L313.443 198.329L335.986 185.313L313.443 172.297L290.9 185.313Z" fill="#0D129E"/>
<path d="M313.441 198.77L289.908 185.312V212.355L313.441 225.942L336.975 212.355V185.312L313.441 198.77Z" fill="#464CFF"/>
<path d="M337.119 212.687L313.178 226.298V199.079L337.119 185.597V212.687Z" fill="#141BEB"/>
<path d="M313.443 226.434C313.357 226.434 313.273 226.411 313.197 226.368L289.664 212.78C289.511 212.691 289.418 212.528 289.418 212.352V185.313C289.418 185.137 289.511 184.974 289.664 184.884C289.817 184.794 290.003 184.794 290.156 184.884L313.443 198.199L336.73 184.884C336.883 184.798 337.069 184.798 337.222 184.884C337.375 184.974 337.468 185.137 337.468 185.313V212.355C337.468 212.531 337.375 212.694 337.222 212.784L313.689 226.371C313.612 226.414 313.526 226.438 313.443 226.438V226.434ZM290.405 212.069L313.443 225.371L336.481 212.069V186.167L313.689 199.199C313.536 199.286 313.35 199.286 313.197 199.199L290.405 186.167V212.072V212.069Z" fill="#0D129E"/>
<path d="M313.443 226.434C313.171 226.434 312.948 226.211 312.948 225.939V198.767C312.948 198.495 313.171 198.272 313.443 198.272C313.716 198.272 313.938 198.495 313.938 198.767V225.939C313.938 226.211 313.716 226.434 313.443 226.434Z" fill="#0D129E"/>
<path d="M88.7567 187.421C88.346 187.657 87.8408 187.656 87.4314 187.418L49.0338 165.123C48.1408 164.604 48.1573 163.309 49.0633 162.813L88.7435 141.112C89.1594 140.884 89.6652 140.896 90.0699 141.143L126.611 163.438C127.471 163.963 127.455 165.218 126.58 165.719L88.7567 187.421Z" fill="url(#paint14_linear_1461_15356)"/>
<g style="mix-blend-mode:multiply">
<path d="M86.7703 178.288L62.5127 164.282L86.7703 150.276L111.031 164.282L86.7703 178.288Z" fill="#2B2B2B" fill-opacity="0.15"/>
</g>
<path d="M86.7681 124.97L63.2383 111.383L86.7681 97.7983L110.301 111.383L86.7681 124.97Z" fill="#00EDBE"/>
<path d="M86.7691 125.462C86.6827 125.462 86.5996 125.439 86.5232 125.395L62.99 111.808C62.8372 111.718 62.7441 111.555 62.7441 111.379C62.7441 111.203 62.8372 111.04 62.99 110.951L86.5232 97.3697C86.6761 97.2799 86.8655 97.2799 87.0183 97.3697L110.551 110.957C110.704 111.047 110.797 111.21 110.797 111.386C110.797 111.562 110.704 111.725 110.551 111.815L87.0183 125.402C86.9419 125.445 86.8555 125.469 86.7724 125.469L86.7691 125.462ZM64.2262 111.383L86.7691 124.399L109.312 111.383L86.7691 98.3665L64.2262 111.383Z" fill="#141BEB"/>
<path d="M86.7675 124.84L63.2344 111.382V138.425L86.7675 152.012L110.301 138.425V111.382L86.7675 124.84Z" fill="#464CFF"/>
<path d="M110.446 138.757L86.5039 152.368V125.149L110.446 111.667V138.757Z" fill="#141BEB"/>
<path d="M86.7691 152.504C86.6827 152.504 86.5996 152.481 86.5232 152.438L62.99 138.85C62.8372 138.76 62.7441 138.598 62.7441 138.422V111.383C62.7441 111.207 62.8372 111.044 62.99 110.954C63.1429 110.864 63.329 110.864 63.4818 110.954L86.7691 124.269L110.056 110.954C110.209 110.868 110.395 110.868 110.548 110.954C110.701 111.044 110.794 111.207 110.794 111.383V138.425C110.794 138.601 110.701 138.764 110.548 138.854L87.015 152.441C86.9386 152.484 86.8522 152.508 86.7691 152.508V152.504ZM63.7311 138.139L86.7691 151.441L109.807 138.139V112.237L87.015 125.269C86.8621 125.356 86.6761 125.356 86.5232 125.269L63.7311 112.237V138.142V138.139Z" fill="#0D129E"/>
<path d="M86.7695 152.504C86.4971 152.504 86.2744 152.281 86.2744 152.009V124.837C86.2744 124.565 86.4971 124.342 86.7695 124.342C87.042 124.342 87.2647 124.565 87.2647 124.837V152.009C87.2647 152.281 87.042 152.504 86.7695 152.504Z" fill="#0D129E"/>
<path d="M75.8327 111.249C75.8354 109.554 76.9552 107.927 79.0523 106.722L79.0524 106.722C81.1509 105.517 83.8801 104.924 86.5914 104.924C89.2694 104.924 91.965 105.503 94.053 106.678H94.0555L94.1322 106.722C96.2261 107.926 97.3518 109.552 97.3518 111.249C97.3518 111.987 97.1364 112.715 96.7171 113.405L96.7164 113.406C96.6592 113.499 96.5958 113.598 96.5253 113.696C96.2543 114.08 95.9178 114.45 95.5195 114.797L95.5149 114.801L95.5149 114.801C95.5028 114.811 95.4903 114.822 95.4776 114.833C95.4161 114.885 95.3469 114.943 95.2759 114.998C95.0962 115.143 94.9022 115.288 94.6972 115.424M75.8327 111.249V111.249V111.249V111.249V111.249V111.249V111.249V111.249V111.249V111.249V111.249V111.249V111.249V111.249V111.249V111.25V111.25V111.25V111.25V111.25V111.25V111.25V111.25V111.25V111.25V111.25V111.25V111.25V111.25V111.25V111.25V111.25V111.25V111.25V111.25V111.25V111.25V111.25V111.25V111.25V111.25V111.25V111.25V111.25V111.25V111.25V111.25V111.25V111.25V111.25V111.25V111.25V111.25V111.25V111.25V111.25V111.25V111.25V111.25V111.25V111.25V111.25V111.25V111.25V111.25V111.25V111.251V111.251V111.251V111.251V111.251V111.251V111.251V111.251V111.251V111.251V111.251V111.251V111.251V111.251V111.251V111.251V111.251V111.251V111.251V111.251V111.251V111.251V111.251V111.251V111.251V111.251V111.251V111.251V111.251V111.251V111.251V111.251V111.251V111.251V111.251V111.251V111.251V111.251V111.251V111.251V111.251V111.251V111.251V111.251V111.251V111.251C75.8327 111.254 75.8327 111.257 75.8327 111.259V111.395C75.8327 111.43 75.8366 111.459 75.8384 111.472L75.8404 111.487C75.846 111.579 75.8552 111.669 75.8678 111.761L75.8678 111.761L75.8684 111.765C75.8746 111.81 75.8823 111.865 75.894 111.923C75.911 112.021 75.9329 112.117 75.9552 112.208L75.9551 112.208L75.9571 112.215L75.9579 112.218C75.9689 112.259 75.982 112.307 75.9975 112.356C76.0272 112.455 76.0597 112.555 76.0983 112.658L76.0982 112.658L76.0997 112.662C76.1071 112.68 76.1147 112.699 76.1207 112.713L76.1212 112.714C76.1278 112.73 76.1326 112.741 76.1368 112.752L76.1368 112.752L76.138 112.755C76.1851 112.873 76.238 112.991 76.2985 113.109L76.2985 113.109L76.3016 113.115C76.3063 113.124 76.311 113.133 76.3157 113.142C76.3508 113.207 76.3898 113.28 76.4346 113.355L76.4344 113.355L76.441 113.365C76.4489 113.377 76.4569 113.39 76.4679 113.408L76.4687 113.409C76.4783 113.425 76.4905 113.445 76.5035 113.465C76.5495 113.538 76.602 113.619 76.6596 113.699C77.1012 114.322 77.7134 114.904 78.4883 115.423C78.6075 115.504 78.7325 115.583 78.8553 115.66L78.8581 115.661C78.8922 115.682 78.9266 115.702 78.9578 115.72L78.9605 115.721C78.9917 115.739 79.02 115.756 79.0481 115.773L79.0481 115.773L79.0527 115.775C79.0554 115.777 79.0582 115.779 79.0611 115.78C79.094 115.799 79.1376 115.825 79.1862 115.848C81.2665 117.005 83.9381 117.575 86.5931 117.575C89.248 117.575 91.9196 117.005 94 115.848C94.0485 115.825 94.0922 115.799 94.1251 115.78L94.1325 115.776C94.1327 115.776 94.1329 115.776 94.1331 115.776C94.1432 115.77 94.1537 115.764 94.1643 115.758C94.2164 115.728 94.273 115.695 94.3291 115.661C94.4559 115.583 94.5792 115.503 94.6972 115.424M75.8327 111.249H76.1641H75.8327ZM94.6972 115.424C94.6969 115.424 94.6966 115.424 94.6963 115.424L94.513 115.148L94.6981 115.423C94.6978 115.423 94.6975 115.424 94.6972 115.424Z" fill="#00FFCC" stroke="#00EABB" stroke-width="0.662791"/>
<path d="M92.2205 110.886C92.5207 110.63 92.9247 110.436 93.3814 110.33L87.5827 106.973C87.5309 106.943 87.4704 106.92 87.4046 106.906C87.3387 106.892 87.2689 106.886 87.1991 106.89C87.1293 106.894 87.0609 106.907 86.9977 106.929C86.9346 106.95 86.8779 106.98 86.831 107.015L85.7166 107.871C85.67 107.907 85.6342 107.948 85.6112 107.993C85.5881 108.038 85.5783 108.085 85.5823 108.131C85.5862 108.178 85.6039 108.223 85.6342 108.265C85.6646 108.306 85.707 108.343 85.7592 108.373L91.5578 111.73C91.6513 111.414 91.8821 111.12 92.2207 110.886" fill="#141BEB"/>
<path d="M82.9924 108.747C82.6919 109.003 82.2876 109.196 81.8308 109.302L87.6294 112.659C87.6812 112.689 87.7418 112.712 87.8076 112.727C87.8734 112.741 87.9432 112.746 88.013 112.742C88.0828 112.738 88.1512 112.725 88.2144 112.704C88.2776 112.682 88.3342 112.653 88.3811 112.617L89.4956 111.762C89.5421 111.726 89.5779 111.684 89.601 111.639C89.624 111.595 89.6338 111.548 89.6299 111.501C89.6259 111.454 89.6083 111.409 89.5779 111.368C89.5475 111.326 89.5051 111.29 89.453 111.26L83.6543 107.902C83.5608 108.219 83.3301 108.513 82.9914 108.747" fill="#141BEB"/>
<path d="M87.4588 114.541C87.7589 114.285 88.163 114.091 88.6196 113.985L82.821 110.628C82.7692 110.598 82.7086 110.575 82.6428 110.561C82.577 110.547 82.5072 110.541 82.4374 110.545C82.3676 110.549 82.2992 110.562 82.236 110.584C82.1729 110.605 82.1162 110.635 82.0693 110.67L80.9548 111.526C80.9083 111.562 80.8725 111.603 80.8494 111.648C80.8264 111.693 80.8166 111.74 80.8205 111.786C80.8245 111.833 80.8422 111.878 80.8725 111.92C80.9029 111.961 80.9453 111.998 80.9975 112.028L86.7961 115.385C86.8896 115.069 87.1203 114.775 87.459 114.541" fill="#141BEB"/>
<path opacity="0.4" d="M62.9072 -11.3954H110.628L97.3723 111.884C97.3723 111.884 96.2767 117.186 86.7677 117.186C77.2586 117.186 76.163 111.884 76.163 111.884L62.9072 -11.3954Z" fill="url(#paint15_linear_1461_15356)"/>
<path d="M166.967 231.166C166.556 231.401 166.051 231.4 165.641 231.162L127.244 208.867C126.351 208.348 126.367 207.053 127.273 206.557L166.953 184.856C167.369 184.628 167.875 184.64 168.28 184.887L204.821 207.182C205.681 207.707 205.665 208.962 204.79 209.463L166.967 231.166Z" fill="url(#paint16_linear_1461_15356)"/>
<g style="mix-blend-mode:multiply">
<path d="M164.979 222.032L140.722 208.026L164.979 194.02L189.24 208.026L164.979 222.032Z" fill="#2B2B2B" fill-opacity="0.15"/>
</g>
<path d="M164.978 186.97L141.448 173.382L164.978 159.798L188.511 173.382L164.978 186.97Z" fill="#7075FF"/>
<g style="mix-blend-mode:soft-light">
<path d="M153.832 173.249C153.834 171.554 154.954 169.927 157.051 168.722L157.051 168.722C159.15 167.517 161.879 166.924 164.59 166.924C167.268 166.924 169.964 167.503 172.052 168.678H172.055L172.131 168.722C174.225 169.926 175.351 171.551 175.351 173.249C175.351 173.987 175.135 174.715 174.716 175.404L174.715 175.406C174.658 175.499 174.595 175.598 174.524 175.696C174.253 176.08 173.917 176.45 173.518 176.797L173.514 176.801L173.514 176.801C173.502 176.811 173.489 176.822 173.477 176.833C173.415 176.885 173.346 176.943 173.275 176.997C173.095 177.143 172.901 177.288 172.696 177.424M153.832 173.249V173.249V173.249V173.249V173.249V173.249V173.249V173.249V173.249V173.249V173.249V173.249V173.249V173.249V173.249V173.249V173.249V173.249V173.249V173.249V173.249V173.25V173.25V173.25V173.25V173.25V173.25V173.25V173.25V173.25V173.25V173.25V173.25V173.25V173.25V173.25V173.25V173.25V173.25V173.25V173.25V173.25V173.25V173.25V173.25V173.25V173.25V173.25V173.25V173.25V173.25V173.25V173.25V173.25V173.25V173.25V173.25V173.25V173.25V173.25V173.25V173.25V173.25V173.25V173.25V173.25V173.25V173.25V173.25V173.25V173.25V173.25V173.251V173.251V173.251V173.251V173.251V173.251V173.251V173.251V173.251V173.251V173.251V173.251V173.251V173.251V173.251V173.251V173.251V173.251V173.251V173.251V173.251V173.251V173.251V173.251V173.251V173.251V173.251V173.251V173.251V173.251V173.251V173.251V173.251V173.251V173.251V173.251V173.251V173.251V173.251V173.251C153.832 173.254 153.832 173.257 153.832 173.259V173.395C153.832 173.43 153.836 173.459 153.837 173.472L153.839 173.487C153.845 173.579 153.854 173.669 153.867 173.761L153.867 173.761L153.867 173.765C153.874 173.81 153.881 173.865 153.893 173.923C153.91 174.021 153.932 174.117 153.954 174.208L153.954 174.208L153.956 174.215L153.957 174.218C153.968 174.258 153.981 174.307 153.997 174.356C154.026 174.454 154.059 174.555 154.097 174.658L154.097 174.658L154.099 174.662C154.106 174.68 154.114 174.699 154.12 174.713L154.12 174.714C154.127 174.73 154.132 174.741 154.136 174.752L154.136 174.752L154.137 174.755C154.184 174.872 154.237 174.991 154.298 175.109L154.297 175.109L154.301 175.115C154.305 175.124 154.31 175.133 154.315 175.142C154.35 175.207 154.389 175.28 154.434 175.355L154.433 175.355L154.44 175.365C154.448 175.377 154.456 175.39 154.467 175.408L154.468 175.409C154.477 175.425 154.489 175.445 154.503 175.465C154.548 175.538 154.601 175.619 154.659 175.699C155.1 176.322 155.712 176.904 156.487 177.423C156.606 177.503 156.731 177.583 156.854 177.659L156.857 177.661C156.891 177.682 156.926 177.702 156.957 177.72L156.96 177.721C156.991 177.739 157.019 177.756 157.047 177.773L157.047 177.773L157.052 177.775C157.054 177.777 157.057 177.779 157.06 177.78C157.093 177.799 157.137 177.825 157.185 177.848C159.266 179.005 161.937 179.575 164.592 179.575C167.247 179.575 169.919 179.005 171.999 177.848C172.048 177.825 172.091 177.799 172.124 177.78L172.132 177.776C172.132 177.776 172.132 177.776 172.132 177.776C172.142 177.77 172.153 177.764 172.163 177.758C172.215 177.728 172.272 177.695 172.328 177.66C172.455 177.583 172.578 177.503 172.696 177.424M153.832 173.249H154.163H153.832ZM172.696 177.424C172.696 177.424 172.696 177.424 172.695 177.424L172.512 177.148L172.697 177.423C172.697 177.423 172.697 177.423 172.696 177.424Z" fill="#00FFCC" stroke="#00EABB" stroke-width="0.662791"/>
<path d="M170.22 172.886C170.52 172.63 170.924 172.436 171.38 172.33L165.582 168.973C165.53 168.943 165.469 168.92 165.404 168.906C165.338 168.891 165.268 168.886 165.198 168.89C165.128 168.894 165.06 168.907 164.997 168.928C164.934 168.95 164.877 168.979 164.83 169.015L163.716 169.871C163.669 169.907 163.633 169.948 163.61 169.993C163.587 170.037 163.577 170.084 163.581 170.131C163.585 170.178 163.603 170.223 163.633 170.264C163.664 170.306 163.706 170.343 163.758 170.373L169.557 173.73C169.65 173.413 169.881 173.12 170.22 172.886" fill="#141BEB"/>
<path d="M160.991 170.747C160.691 171.003 160.287 171.196 159.83 171.302L165.628 174.659C165.68 174.689 165.741 174.712 165.807 174.726C165.872 174.741 165.942 174.746 166.012 174.742C166.082 174.738 166.15 174.725 166.213 174.704C166.277 174.682 166.333 174.653 166.38 174.617L167.495 173.761C167.541 173.726 167.577 173.684 167.6 173.639C167.623 173.595 167.633 173.548 167.629 173.501C167.625 173.454 167.607 173.409 167.577 173.368C167.547 173.326 167.504 173.289 167.452 173.259L161.653 169.902C161.56 170.219 161.329 170.512 160.99 170.746" fill="#141BEB"/>
<path d="M165.458 176.541C165.758 176.285 166.162 176.091 166.619 175.985L160.82 172.628C160.768 172.598 160.708 172.575 160.642 172.561C160.576 172.547 160.506 172.541 160.436 172.545C160.367 172.549 160.298 172.562 160.235 172.584C160.172 172.605 160.115 172.635 160.068 172.67L158.954 173.526C158.907 173.562 158.872 173.603 158.848 173.648C158.825 173.693 158.816 173.74 158.82 173.786C158.824 173.833 158.841 173.878 158.872 173.92C158.902 173.961 158.944 173.998 158.996 174.028L164.795 177.385C164.889 177.069 165.119 176.775 165.458 176.541" fill="#141BEB"/>
</g>
<path d="M164.979 187.462C164.893 187.462 164.81 187.439 164.733 187.395L141.2 173.808C141.047 173.718 140.954 173.555 140.954 173.379C140.954 173.203 141.047 173.04 141.2 172.95L164.733 159.37C164.886 159.28 165.075 159.28 165.228 159.37L188.761 172.957C188.914 173.047 189.007 173.21 189.007 173.386C189.007 173.562 188.914 173.725 188.761 173.814L165.228 187.402C165.152 187.445 165.065 187.468 164.982 187.468L164.979 187.462ZM142.436 173.382L164.979 186.398L187.522 173.382L164.979 160.366L142.436 173.382Z" fill="#0D129E"/>
<path d="M164.978 186.84L141.445 173.382V200.425L164.978 214.012L188.512 200.425V173.382L164.978 186.84Z" fill="#464CFF"/>
<path d="M188.655 200.757L164.714 214.368V187.149L188.655 173.667V200.757Z" fill="#141BEB"/>
<path d="M164.979 214.504C164.893 214.504 164.81 214.481 164.733 214.438L141.2 200.85C141.047 200.76 140.954 200.598 140.954 200.421V173.383C140.954 173.206 141.047 173.044 141.2 172.954C141.353 172.864 141.539 172.864 141.692 172.954L164.979 186.269L188.266 172.954C188.419 172.867 188.605 172.867 188.758 172.954C188.911 173.044 189.004 173.206 189.004 173.383V200.425C189.004 200.601 188.911 200.764 188.758 200.853L165.225 214.441C165.149 214.484 165.062 214.507 164.979 214.507V214.504ZM141.941 200.139L164.979 213.441L188.017 200.139V174.237L165.225 187.269C165.072 187.356 164.886 187.356 164.733 187.269L141.941 174.237V200.142V200.139Z" fill="#0D129E"/>
<path d="M164.979 214.504C164.707 214.504 164.484 214.281 164.484 214.009V186.837C164.484 186.565 164.707 186.342 164.979 186.342C165.252 186.342 165.475 186.565 165.475 186.837V214.009C165.475 214.281 165.252 214.504 164.979 214.504Z" fill="#141BEB"/>
<path d="M251.14 215.11L227.61 201.522L251.14 187.938L274.673 201.522L251.14 215.11Z" fill="#00EDBE"/>
<path d="M251.141 215.601C251.055 215.601 250.972 215.578 250.895 215.535L227.362 201.947C227.209 201.858 227.116 201.695 227.116 201.519C227.116 201.343 227.209 201.18 227.362 201.09L250.895 187.509C251.048 187.419 251.238 187.419 251.39 187.509L274.924 201.097C275.076 201.186 275.169 201.349 275.169 201.525C275.169 201.702 275.076 201.864 274.924 201.954L251.39 215.542C251.314 215.585 251.228 215.608 251.144 215.608L251.141 215.601ZM228.598 201.522L251.141 214.538L273.684 201.522L251.141 188.506L228.598 201.522Z" fill="#0D129E"/>
<path d="M251.14 214.98L227.606 201.522V228.564L251.14 242.152L274.673 228.564V201.522L251.14 214.98Z" fill="#464CFF"/>
<path d="M274.818 228.896L250.876 242.507V215.288L274.818 201.807V228.896Z" fill="#141BEB"/>
<path d="M251.141 242.644C251.055 242.644 250.972 242.62 250.895 242.577L227.362 228.99C227.209 228.9 227.116 228.737 227.116 228.561V201.522C227.116 201.346 227.209 201.183 227.362 201.094C227.515 201.004 227.701 201.004 227.854 201.094L251.141 214.409L274.428 201.094C274.581 201.007 274.767 201.007 274.92 201.094C275.073 201.183 275.166 201.346 275.166 201.522V228.564C275.166 228.741 275.073 228.903 274.92 228.993L251.387 242.581C251.311 242.624 251.224 242.647 251.141 242.647V242.644ZM228.103 228.279L251.141 241.58L274.179 228.279V202.376L251.387 215.409C251.234 215.495 251.048 215.495 250.895 215.409L228.103 202.376V228.282V228.279Z" fill="#0D129E"/>
<path d="M240.205 201.389C240.207 199.694 241.327 198.067 243.424 196.862L243.424 196.862C245.523 195.657 248.252 195.064 250.963 195.064C253.642 195.064 256.337 195.642 258.425 196.818H258.428L258.504 196.862C260.598 198.066 261.724 199.691 261.724 201.389C261.724 202.127 261.508 202.855 261.089 203.544L261.089 203.545C261.031 203.638 260.968 203.738 260.897 203.836C260.626 204.22 260.29 204.589 259.892 204.937L259.887 204.941L259.887 204.941C259.875 204.951 259.862 204.962 259.85 204.972C259.788 205.024 259.719 205.083 259.648 205.137C259.468 205.283 259.274 205.427 259.069 205.563M240.205 201.389V201.389V201.389V201.389V201.389V201.389V201.389V201.389V201.389V201.389V201.389V201.389V201.389V201.389V201.389V201.389V201.389V201.389V201.389V201.389V201.389V201.389V201.389V201.389V201.389V201.389V201.389V201.389V201.389V201.389V201.389V201.389V201.389V201.389V201.389V201.389V201.389V201.389V201.389V201.39V201.39V201.39V201.39V201.39V201.39V201.39V201.39V201.39V201.39V201.39V201.39V201.39V201.39V201.39V201.39V201.39V201.39V201.39V201.39V201.39V201.39V201.39V201.39V201.39V201.39V201.39V201.39V201.39V201.39V201.39V201.39V201.39V201.39V201.39V201.39V201.39V201.39V201.39V201.39V201.39V201.39V201.39V201.39V201.39V201.39V201.39V201.39V201.39V201.39V201.39V201.391V201.391V201.391V201.391V201.391V201.391V201.391V201.391V201.391V201.391V201.391V201.391V201.391V201.391V201.391V201.391V201.391V201.391V201.391V201.391V201.391V201.391C240.205 201.394 240.205 201.396 240.205 201.399V201.535C240.205 201.569 240.209 201.599 240.21 201.612L240.212 201.626C240.218 201.719 240.227 201.809 240.24 201.9L240.24 201.901L240.24 201.905C240.247 201.949 240.254 202.005 240.266 202.063C240.283 202.161 240.305 202.257 240.327 202.347L240.327 202.347L240.329 202.354L240.33 202.357C240.341 202.398 240.354 202.447 240.37 202.495C240.399 202.594 240.432 202.695 240.47 202.797L240.47 202.797L240.472 202.801C240.479 202.82 240.487 202.838 240.493 202.853L240.493 202.854C240.5 202.87 240.505 202.881 240.509 202.892L240.509 202.892L240.51 202.895C240.557 203.012 240.61 203.13 240.671 203.249L240.671 203.249L240.674 203.255C240.678 203.263 240.683 203.272 240.688 203.281C240.723 203.347 240.762 203.42 240.807 203.494L240.807 203.494L240.813 203.504C240.821 203.516 240.829 203.53 240.84 203.547L240.841 203.549C240.85 203.565 240.863 203.584 240.876 203.604C240.922 203.677 240.974 203.759 241.032 203.838C241.473 204.461 242.085 205.043 242.86 205.563C242.98 205.643 243.105 205.723 243.227 205.799L243.23 205.801C243.264 205.822 243.299 205.841 243.33 205.859L243.333 205.861C243.364 205.879 243.392 205.895 243.42 205.912L243.42 205.912L243.425 205.915C243.427 205.917 243.43 205.918 243.433 205.92C243.466 205.939 243.51 205.964 243.558 205.987C245.639 207.145 248.31 207.715 250.965 207.715C253.62 207.715 256.292 207.145 258.372 205.987C258.421 205.964 258.464 205.939 258.497 205.92L258.505 205.916C258.505 205.915 258.505 205.915 258.505 205.915C258.515 205.909 258.526 205.903 258.536 205.897C258.588 205.867 258.645 205.835 258.701 205.8C258.828 205.722 258.951 205.643 259.069 205.563M240.205 201.389H240.536H240.205ZM259.069 205.563C259.069 205.564 259.069 205.564 259.068 205.564L258.885 205.288L259.07 205.563C259.07 205.563 259.07 205.563 259.069 205.563Z" fill="#00FFCC" stroke="#00EABB" stroke-width="0.662791"/>
<path d="M256.593 201.025C256.893 200.769 257.297 200.576 257.753 200.47L251.955 197.113C251.903 197.082 251.842 197.06 251.777 197.045C251.711 197.031 251.641 197.026 251.571 197.03C251.501 197.034 251.433 197.047 251.37 197.068C251.307 197.09 251.25 197.119 251.203 197.155L250.089 198.01C250.042 198.046 250.006 198.088 249.983 198.132C249.96 198.177 249.95 198.224 249.954 198.271C249.958 198.317 249.976 198.363 250.006 198.404C250.037 198.446 250.079 198.482 250.131 198.512L255.93 201.869C256.023 201.553 256.254 201.259 256.593 201.025" fill="#141BEB"/>
<path d="M247.364 198.887C247.064 199.143 246.66 199.336 246.203 199.442L252.002 202.799C252.053 202.829 252.114 202.852 252.18 202.866C252.245 202.88 252.315 202.886 252.385 202.882C252.455 202.878 252.523 202.865 252.586 202.843C252.65 202.822 252.706 202.792 252.753 202.757L253.868 201.901C253.914 201.865 253.95 201.824 253.973 201.779C253.996 201.734 254.006 201.687 254.002 201.641C253.998 201.594 253.98 201.549 253.95 201.507C253.92 201.466 253.877 201.429 253.825 201.399L248.026 198.042C247.933 198.358 247.702 198.652 247.363 198.886" fill="#141BEB"/>
<path d="M251.831 204.681C252.131 204.424 252.535 204.231 252.992 204.125L247.193 200.768C247.141 200.738 247.081 200.715 247.015 200.7C246.949 200.686 246.879 200.681 246.809 200.685C246.74 200.689 246.671 200.702 246.608 200.723C246.545 200.745 246.488 200.774 246.441 200.81L245.327 201.665C245.28 201.701 245.245 201.743 245.222 201.788C245.198 201.832 245.189 201.879 245.193 201.926C245.197 201.973 245.214 202.018 245.245 202.059C245.275 202.101 245.317 202.137 245.37 202.167L251.168 205.525C251.262 205.208 251.492 204.914 251.831 204.68" fill="#141BEB"/>
<path opacity="0.4" d="M227.279 78.7441H275L261.744 202.023C261.744 202.023 260.649 207.326 251.14 207.326C241.631 207.326 240.535 202.023 240.535 202.023L227.279 78.7441Z" fill="url(#paint17_linear_1461_15356)"/>
</g>
<rect x="0.5" y="0.5" width="879" height="205" rx="15.5" stroke="#DDDDEB"/>
<defs>
<radialGradient id="paint0_radial_1461_15356" cx="0" cy="0" r="1" gradientUnits="userSpaceOnUse" gradientTransform="translate(440 103) rotate(1.35134) scale(487.636 114.151)">
<stop stop-color="#026EB6"/>
<stop offset="1" stop-color="#002C6B"/>
</radialGradient>
<linearGradient id="paint1_linear_1461_15356" x1="268.372" y1="41.24" x2="268.372" y2="107.434" gradientUnits="userSpaceOnUse">
<stop stop-color="#0C1079"/>
<stop offset="1" stop-color="#45C87C"/>
</linearGradient>
<linearGradient id="paint2_linear_1461_15356" x1="344.925" y1="86.2741" x2="344.925" y2="151.548" gradientUnits="userSpaceOnUse">
<stop stop-color="#0C1079"/>
<stop offset="1" stop-color="#45C87C"/>
</linearGradient>
<linearGradient id="paint3_linear_1461_15356" x1="345.276" y1="-20.0118" x2="345.276" y2="47.9697" gradientUnits="userSpaceOnUse">
<stop stop-color="white" stop-opacity="0"/>
<stop offset="1" stop-color="#00EDBE"/>
</linearGradient>
<linearGradient id="paint4_linear_1461_15356" x1="429.8" y1="134.473" x2="429.8" y2="198.28" gradientUnits="userSpaceOnUse">
<stop stop-color="#0C1079"/>
<stop offset="1" stop-color="#45C87C"/>
</linearGradient>
<linearGradient id="paint5_linear_1461_15356" x1="209.716" y1="75.6695" x2="209.716" y2="140.944" gradientUnits="userSpaceOnUse">
<stop stop-color="#0C1079"/>
<stop offset="1" stop-color="#45C87C"/>
</linearGradient>
<linearGradient id="paint6_linear_1461_15356" x1="208.742" y1="-30.6163" x2="208.742" y2="37.3652" gradientUnits="userSpaceOnUse">
<stop stop-color="white" stop-opacity="0"/>
<stop offset="1" stop-color="#00EDBE"/>
</linearGradient>
<linearGradient id="paint7_linear_1461_15356" x1="286.6" y1="120.739" x2="286.6" y2="186.014" gradientUnits="userSpaceOnUse">
<stop stop-color="#0C1079"/>
<stop offset="1" stop-color="#45C87C"/>
</linearGradient>
<linearGradient id="paint8_linear_1461_15356" x1="370.55" y1="168.5" x2="370.55" y2="233" gradientUnits="userSpaceOnUse">
<stop stop-color="#0C1079"/>
<stop offset="1" stop-color="#45C87C"/>
</linearGradient>
<linearGradient id="paint9_linear_1461_15356" x1="370.462" y1="62.1744" x2="370.462" y2="130.156" gradientUnits="userSpaceOnUse">
<stop stop-color="white" stop-opacity="0"/>
<stop offset="1" stop-color="#00EDBE"/>
</linearGradient>
<linearGradient id="paint10_linear_1461_15356" x1="150.063" y1="108.809" x2="150.063" y2="174.083" gradientUnits="userSpaceOnUse">
<stop stop-color="#0C1079"/>
<stop offset="1" stop-color="#45C87C"/>
</linearGradient>
<linearGradient id="paint11_linear_1461_15356" x1="225.622" y1="153.879" x2="225.622" y2="219.153" gradientUnits="userSpaceOnUse">
<stop stop-color="#0C1079"/>
<stop offset="1" stop-color="#45C87C"/>
</linearGradient>
<linearGradient id="paint12_linear_1461_15356" x1="224.648" y1="37.5927" x2="224.648" y2="105.574" gradientUnits="userSpaceOnUse">
<stop stop-color="white" stop-opacity="0"/>
<stop offset="1" stop-color="#00EDBE"/>
</linearGradient>
<linearGradient id="paint13_linear_1461_15356" x1="314.435" y1="198.949" x2="314.435" y2="264.223" gradientUnits="userSpaceOnUse">
<stop stop-color="#0C1079"/>
<stop offset="1" stop-color="#45C87C"/>
</linearGradient>
<linearGradient id="paint14_linear_1461_15356" x1="87.7616" y1="143.274" x2="87.7616" y2="208.548" gradientUnits="userSpaceOnUse">
<stop stop-color="#0C1079"/>
<stop offset="1" stop-color="#45C87C"/>
</linearGradient>
<linearGradient id="paint15_linear_1461_15356" x1="86.7877" y1="36.9883" x2="86.7877" y2="104.97" gradientUnits="userSpaceOnUse">
<stop stop-color="white" stop-opacity="0"/>
<stop offset="1" stop-color="#00EDBE"/>
</linearGradient>
<linearGradient id="paint16_linear_1461_15356" x1="165.972" y1="187.018" x2="165.972" y2="252.292" gradientUnits="userSpaceOnUse">
<stop stop-color="#0C1079"/>
<stop offset="1" stop-color="#45C87C"/>
</linearGradient>
<linearGradient id="paint17_linear_1461_15356" x1="251.16" y1="127.128" x2="251.16" y2="195.109" gradientUnits="userSpaceOnUse">
<stop stop-color="white" stop-opacity="0"/>
<stop offset="1" stop-color="#00EDBE"/>
</linearGradient>
<clipPath id="clip0_1461_15356">
<rect width="880" height="206" rx="16" fill="white"/>
</clipPath>
</defs>
</svg>
