<svg width="880" height="206" viewBox="0 0 880 206" fill="none" xmlns="http://www.w3.org/2000/svg">
<g clip-path="url(#clip0_1461_14075)">
<rect width="880" height="206" rx="16" fill="#3D4EF4"/>
<path d="M519.256 172.315C549.875 190.306 593.126 215.551 606.892 222.351C639.386 238.402 692.502 237.978 725.092 219.796C741.81 210.463 761.49 198.482 761.49 198.482L716.245 173.825C716.245 173.825 699.274 185.804 687.846 191.486C676.419 197.169 661.182 203.249 643.618 193.332C626.054 183.414 562.348 147.431 562.348 147.431L519.256 172.315Z" fill="black" fill-opacity="0.3"/>
<g style="mix-blend-mode:multiply">
<path d="M555.001 58.127L597.688 82.9492L683.061 33.579L640.374 9.01404L555.001 58.127Z" fill="#141BEB"/>
</g>
<path d="M600.898 48.5999V77.0755C600.898 78.1985 599.47 79.1071 597.715 79.1071C595.954 79.1071 594.526 78.1985 594.526 77.0755V48.5999H600.898Z" fill="#C2C7FB"/>
<path d="M600.898 48.5999V77.0755C600.898 78.1985 599.47 79.1071 597.715 79.1071C595.954 79.1071 594.526 78.1985 594.526 77.0755V48.5999H600.898Z" stroke="#141BEB" stroke-width="1.48605" stroke-miterlimit="10"/>
<path d="M565.174 28.1382V56.6139C565.174 57.7369 563.746 58.6454 561.991 58.6454C560.23 58.6454 558.803 57.7369 558.803 56.6139V28.1382H565.174Z" fill="#C2C7FB"/>
<path d="M565.174 28.1382V56.6139C565.174 57.7369 563.746 58.6454 561.991 58.6454C560.23 58.6454 558.803 57.7369 558.803 56.6139V28.1382H565.174Z" stroke="#141BEB" stroke-width="1.48605" stroke-miterlimit="10"/>
<path d="M679.21 3.94836V32.424C679.21 33.547 677.782 34.4556 676.027 34.4556C674.267 34.4556 672.839 33.547 672.839 32.424V3.94836H679.21Z" fill="#C2C7FB"/>
<path d="M679.21 3.94836V32.424C679.21 33.547 677.782 34.4556 676.027 34.4556C674.267 34.4556 672.839 33.547 672.839 32.424V3.94836H679.21Z" stroke="#141BEB" stroke-width="1.48605" stroke-miterlimit="10"/>
<path d="M736.261 -8.60791V16.5044L768.709 34.3511L768.498 10.0853L736.261 -8.60791Z" fill="white"/>
<path d="M736.261 -8.60791V16.5044L768.709 34.3511L768.498 10.0852L736.261 -8.60791Z" stroke="#141BEB" stroke-width="1.48605" stroke-linecap="round" stroke-linejoin="round"/>
<path d="M736.192 -8.32666L661.701 34.6323L661.631 58.9687L736.192 16.433V-8.32666Z" fill="white"/>
<path d="M736.192 -8.32666L661.701 34.6323L661.631 58.9687L736.192 16.433V-8.32666Z" stroke="#141BEB" stroke-width="1.48605" stroke-linecap="round" stroke-linejoin="round"/>
<path d="M768.638 10.085L693.725 52.8323V77.6625L768.779 34.2097L768.638 10.085Z" fill="#141BEB"/>
<path d="M768.638 10.085L693.725 52.8323V77.6625L768.779 34.2097L768.638 10.085Z" stroke="#141BEB" stroke-width="1.48605" stroke-linecap="round" stroke-linejoin="round"/>
<path d="M661.775 34.4905L661.704 59.0385L693.306 77.6611L693.588 52.4077L661.775 34.4905Z" fill="#C2C7FB"/>
<path d="M661.775 34.4905L661.704 59.0385L693.306 77.6611L693.588 52.4077L661.775 34.4905Z" stroke="#141BEB" stroke-width="1.48605" stroke-linecap="round" stroke-linejoin="round"/>
<g style="mix-blend-mode:multiply">
<path d="M394.405 64.1925C385.581 59.0978 371.324 59.0984 362.557 64.1925C353.791 69.2872 353.837 77.5455 362.661 82.6402C371.485 87.7343 385.742 87.7343 394.509 82.6396C403.275 77.5455 403.229 69.2866 394.405 64.1925Z" fill="#141BEB"/>
<path d="M414.714 113.157L365.569 84.282L394.237 62.8951L457.488 90.1976L414.714 113.157Z" fill="#141BEB"/>
</g>
<path d="M555.003 22.1129L597.69 46.9352L683.063 -2.43507L640.376 -27L555.003 22.1129Z" fill="white"/>
<path d="M555.003 22.1129L597.69 46.9352L683.063 -2.43507L640.376 -27L555.003 22.1129Z" stroke="#141BEB" stroke-width="1.48605" stroke-linecap="round" stroke-linejoin="round"/>
<path d="M555.003 22.1108V29.1118L597.689 53.0944V46.9331L555.003 22.1108Z" fill="#C2C7FB"/>
<path d="M555.003 22.1108V29.1118L597.689 53.0944V46.9331L555.003 22.1108Z" stroke="#141BEB" stroke-width="1.48605" stroke-linecap="round" stroke-linejoin="round"/>
<path d="M597.69 46.9351V53.0963L683.063 3.80565V-2.43518L597.69 46.9351Z" fill="white"/>
<path d="M597.69 46.9351V53.0963L683.063 3.80565V-2.43518L597.69 46.9351Z" stroke="#141BEB" stroke-width="1.48605" stroke-linecap="round" stroke-linejoin="round"/>
<path d="M564.107 11.4692L596.531 30.3384L621.332 16.0012L588.247 -2.58752L564.107 11.4692Z" fill="#C2C7FB"/>
<path d="M564.107 11.4692L596.531 30.3384L621.332 16.0012L588.247 -2.58752L564.107 11.4692Z" stroke="#141BEB" stroke-width="1.48605" stroke-miterlimit="10"/>
<path d="M596.532 30.3442L595.471 37.0145L562.486 17.9178C560.861 17.1729 561.583 12.9066 564.111 11.4733L596.532 30.3442Z" stroke="#141BEB" stroke-width="1.48605" stroke-linecap="round" stroke-linejoin="round"/>
<path d="M596.532 30.3442L595.471 37.0145L562.486 17.9178C560.861 17.1729 561.583 12.9066 564.111 11.4733L596.532 30.3442Z" fill="#141BEB"/>
<path d="M596.531 36.9127C593.905 38.2101 593.641 32.0189 596.902 30.1685L620.3 16.6C619.176 18.2438 619.361 22.4001 620.3 23.1721L596.531 36.9127Z" fill="white"/>
<path d="M596.531 36.9127C593.905 38.2101 593.641 32.0189 596.902 30.1685L620.3 16.6C619.176 18.2438 619.361 22.4001 620.3 23.1721L596.531 36.9127Z" stroke="#141BEB" stroke-width="1.48605" stroke-linecap="round" stroke-linejoin="round"/>
<path d="M597.186 32.1438L617.62 20.45" stroke="#141BEB" stroke-width="1.48605" stroke-linecap="round" stroke-linejoin="round"/>
<path d="M596.607 34.626L606.825 28.7797" stroke="#141BEB" stroke-width="1.48605" stroke-linecap="round" stroke-linejoin="round"/>
<path d="M608.462 27.8463L617.929 22.4288" stroke="#141BEB" stroke-width="1.48605" stroke-linecap="round" stroke-linejoin="round"/>
<path d="M594.949 6.6622C593.891 8.31566 591.45 10.1616 591.824 10.5605C592.047 10.8004 592.475 11.4934 594.42 10.6299C599.604 8.32864 601.562 7.0324 599.763 9.57185C597.964 12.1113 598.388 14.7207 593.414 14.8973C588.442 15.074 595.742 12.2806 597.224 11.3179C598.705 10.3551 589.182 11.8997 586.537 14.0689C584.614 15.6456 582.093 18.8978 586.431 17.3036C587.151 17.0384 587.852 16.8358 588.513 16.6857C591.833 15.9329 594.173 16.5153 593.203 17.3036C592.039 18.2483 586.426 20.1529 591.984 18.9892C597.541 17.8251 599.287 14.8624 599.605 16.1321C599.923 17.4018 597.965 19.158 596.06 20.0259C594.156 20.8938 584.844 22.4378 587.383 20.0259C589.923 17.6134 581.035 20.4706 581.932 16.5023C582.204 15.3025 583.368 13.0221 585.584 11.2123C589.795 7.77335 596.058 4.92917 594.949 6.6622Z" fill="white"/>
<path d="M598.126 14.901C597.594 15.0093 597.363 14.5302 598.818 13.7323C600.274 12.9338 609.43 8.15848 606.255 12.4434C603.081 16.7288 595.639 23.3839 601.882 19.204C608.125 15.0246 611.511 13.5963 610.135 15.6064C608.76 17.6171 603.6 22.8754 604.957 20.7067C606.315 18.5375 607.278 15.9777 605.056 18.2525C602.834 20.5273 597.042 23.8122 598.179 21.0566C599.316 18.3005 607.561 10.839 604.915 12.045C602.27 13.2515 600.031 14.5127 598.126 14.901Z" fill="white"/>
<path d="M587.917 4.44077L587.063 3.94755C586.53 3.63999 585.653 3.63999 585.12 3.94981L575.824 9.35206C575.291 9.66243 575.294 10.1703 575.827 10.4784L576.681 10.9705C577.218 11.2803 578.09 11.2787 578.623 10.9688L587.919 5.56602C588.453 5.25621 588.454 4.75058 587.917 4.44077Z" fill="white"/>
<path d="M396.076 23.7161C394.625 24.566 354.635 48.4182 354.635 48.4182L355.34 53.0033L435.333 93.3523L477.798 70.6384C477.798 70.6384 406.079 25.0762 404.346 23.9012C402.532 22.671 398.581 22.2478 396.076 23.7161Z" fill="white"/>
<path d="M396.076 23.7161C394.625 24.566 354.635 48.4182 354.635 48.4182L355.34 53.0033L435.333 93.3523L477.798 70.6384C477.798 70.6384 406.079 25.0762 404.346 23.9012C402.532 22.671 398.581 22.2478 396.076 23.7161Z" stroke="#141BEB" stroke-width="1.48605"/>
<path d="M481.891 120.439C481.891 120.439 361.69 51.5922 357.74 48.9117C353.79 46.2312 346.877 52.862 358.163 59.7749C369.45 66.6878 483.725 132.149 483.725 132.149" fill="#C2C7FB"/>
<path d="M481.891 120.439C481.891 120.439 361.69 51.5922 357.74 48.9117C353.79 46.2312 346.877 52.862 358.163 59.7749C369.45 66.6878 483.725 132.149 483.725 132.149" stroke="#141BEB" stroke-width="1.48605"/>
<path d="M610.351 118.981C610.351 121.032 609.33 123.094 607.303 124.263L604.788 125.718L578.908 140.657L506.114 182.685C501.715 185.223 496.29 185.223 491.891 182.685L419.096 140.646L393.234 125.712L390.707 124.252C388.673 123.083 387.659 121.032 387.659 118.981C387.659 116.931 388.673 114.869 390.707 113.7L491.891 55.278C496.29 52.7402 501.715 52.7402 506.114 55.278L607.303 113.7C609.33 114.869 610.351 116.931 610.351 118.981Z" fill="white"/>
<path d="M610.351 118.981C610.351 121.032 609.33 123.094 607.303 124.263L604.788 125.718L578.908 140.657L506.114 182.685C501.715 185.223 496.29 185.223 491.891 182.685L419.096 140.646L393.234 125.712L390.707 124.252C388.673 123.083 387.659 121.032 387.659 118.981C387.659 116.931 388.673 114.869 390.707 113.7L491.891 55.278C496.29 52.7402 501.715 52.7402 506.114 55.278L607.303 113.7C609.33 114.869 610.351 116.931 610.351 118.981Z" stroke="#141BEB" stroke-width="1.48605" stroke-linecap="round" stroke-linejoin="round"/>
<path d="M610.351 118.985V132.452C610.351 134.502 609.33 136.564 607.303 137.733L578.908 154.127L506.114 196.156C501.715 198.693 496.29 198.693 491.891 196.156L419.096 154.122L390.707 137.722C388.673 136.553 387.659 134.502 387.659 132.452V118.985C387.659 121.035 388.673 123.086 390.707 124.255L393.234 125.715L419.096 140.649L491.891 182.688C496.29 185.226 501.715 185.226 506.114 182.688L578.908 140.66L604.788 125.721L607.303 124.266C609.33 123.097 610.351 121.035 610.351 118.985Z" fill="#C2C7FB"/>
<path d="M610.351 118.985V132.452C610.351 134.502 609.33 136.564 607.303 137.733L578.908 154.127L506.114 196.156C501.715 198.693 496.29 198.693 491.891 196.156L419.096 154.122L390.707 137.722C388.673 136.553 387.659 134.502 387.659 132.452V118.985C387.659 121.035 388.673 123.086 390.707 124.255L393.234 125.715L419.096 140.649L491.891 182.688C496.29 185.226 501.715 185.226 506.114 182.688L578.908 140.66L604.788 125.721L607.303 124.266C609.33 123.097 610.351 121.035 610.351 118.985Z" stroke="#141BEB" stroke-width="1.48605" stroke-linecap="round" stroke-linejoin="round"/>
<path d="M568.823 87.4972V106.2C568.823 109.992 566.52 114.392 563.679 116.03L512.399 145.645V126.937C512.399 123.15 514.702 118.745 517.543 117.107L568.823 87.4972Z" fill="#141BEB"/>
<path d="M568.823 87.4972V106.2C568.823 109.992 566.52 114.392 563.679 116.03L512.399 145.645V126.937C512.399 123.15 514.702 118.745 517.543 117.107L568.823 87.4972Z" stroke="#141BEB" stroke-width="1.48605" stroke-linecap="round" stroke-linejoin="round"/>
<path d="M462.424 87.8989V87.9734C462.401 90.093 461.33 91.3187 459.771 91.3187C459.13 91.3187 458.402 91.1065 457.635 90.6658L428.896 74.0708C426.25 72.5471 424.107 68.8293 424.107 65.7764C424.107 63.6111 425.185 62.3566 426.76 62.3566C427.333 62.3566 427.974 62.5287 428.656 62.8836C428.736 62.9181 428.816 62.9638 428.896 63.0095L457.635 79.6045C460.282 81.1282 462.424 84.8459 462.424 87.8989Z" fill="#C2C7FB"/>
<path d="M404.125 139.064L397.557 135.271" stroke="#141BEB" stroke-width="1.48605" stroke-linecap="round" stroke-linejoin="round"/>
<path d="M424.919 151.066L410.69 142.851" stroke="#141BEB" stroke-width="1.48605" stroke-linecap="round" stroke-linejoin="round"/>
<path d="M586.779 36.3266C586.779 37.9439 585.977 39.5697 584.376 40.4907L561.995 53.4148L504.613 86.5416C501.146 88.5438 496.87 88.5438 493.403 86.5416L436.021 53.4069L413.64 40.4822C412.038 39.5618 411.237 37.9439 411.237 36.3266C411.237 34.7092 412.038 33.0834 413.64 32.1624L493.403 -13.8885C496.87 -15.8907 501.146 -15.8907 504.613 -13.8885L584.376 32.1624C585.977 33.0834 586.779 34.7092 586.779 36.3266Z" fill="white"/>
<path d="M586.779 36.3266C586.779 37.9439 585.977 39.5697 584.376 40.4907L561.995 53.4148L504.613 86.5416C501.146 88.5438 496.87 88.5438 493.403 86.5416L436.021 53.4069L413.64 40.4822C412.038 39.5618 411.237 37.9439 411.237 36.3266C411.237 34.7092 412.038 33.0834 413.64 32.1624L493.403 -13.8885C496.87 -15.8907 501.146 -15.8907 504.613 -13.8885L584.376 32.1624C585.977 33.0834 586.779 34.7092 586.779 36.3266Z" stroke="#141BEB" stroke-width="1.48605" stroke-linecap="round" stroke-linejoin="round"/>
<path d="M566.988 19.087V19.4007C566.949 21.0051 566.127 22.5705 564.542 23.4808L560.021 26.0925L504.878 57.9309C501.248 60.0246 496.776 60.0246 493.137 57.9309L438.003 26.0925L433.482 23.4808C431.848 22.5412 431.036 20.8973 431.036 19.2439C431.036 17.6005 431.848 15.946 433.482 15.0069L493.137 -19.4331C496.776 -21.5363 501.248 -21.5363 504.878 -19.4331L564.542 15.0069C566.127 15.9166 566.949 17.4922 566.988 19.087Z" fill="white"/>
<path d="M566.988 19.087V19.4007C566.949 21.0051 566.127 22.5705 564.542 23.4808L560.021 26.0925L504.878 57.9309C501.248 60.0246 496.776 60.0246 493.137 57.9309L438.003 26.0925L433.482 23.4808C431.848 22.5412 431.036 20.8973 431.036 19.2439C431.036 17.6005 431.848 15.946 433.482 15.0069L493.137 -19.4331C496.776 -21.5363 501.248 -21.5363 504.878 -19.4331L564.542 15.0069C566.127 15.9166 566.949 17.4922 566.988 19.087Z" stroke="#141BEB" stroke-width="1.48605" stroke-linecap="round" stroke-linejoin="round"/>
<path d="M566.988 19.4044V33.1022C566.949 34.7071 566.127 36.2725 564.542 37.1822L504.878 71.6324C501.248 73.7266 496.776 73.7266 493.137 71.6324L433.482 37.1822C431.848 36.2432 431.036 34.5993 431.036 32.9458V19.248C431.036 20.9015 431.848 22.5448 433.482 23.4844L438.003 26.0967L493.137 57.9346C496.776 60.0282 501.248 60.0282 504.878 57.9346L560.021 26.0967L564.542 23.4844C566.127 22.5747 566.949 21.0087 566.988 19.4044Z" fill="#C2C7FB"/>
<path d="M566.988 19.4044V33.1022C566.949 34.7071 566.127 36.2725 564.542 37.1822L504.878 71.6324C501.248 73.7266 496.776 73.7266 493.137 71.6324L433.482 37.1822C431.848 36.2432 431.036 34.5993 431.036 32.9458V19.248C431.036 20.9015 431.848 22.5448 433.482 23.4844L438.003 26.0967L493.137 57.9346C496.776 60.0282 501.248 60.0282 504.878 57.9346L560.021 26.0967L564.542 23.4844C566.127 22.5747 566.949 21.0087 566.988 19.4044Z" stroke="#141BEB" stroke-width="1.48605" stroke-linecap="round" stroke-linejoin="round"/>
<path d="M493.128 71.6292C496.768 73.7229 501.239 73.7229 504.869 71.6292L564.533 37.1791C566.118 36.2694 566.941 34.7034 566.98 33.099V19.4012C566.941 21.0056 566.118 22.571 564.533 23.4813L560.013 26.0935L504.869 57.9314C501.239 60.0251 496.768 60.0251 493.128 57.9314V71.6292Z" stroke="#141BEB" stroke-width="1.48605" stroke-linecap="round" stroke-linejoin="round"/>
<path d="M461.458 44.302V49.0434" stroke="#141BEB" stroke-width="1.48605" stroke-linecap="round" stroke-linejoin="round"/>
<path d="M457.489 42.0105V46.7519" stroke="#141BEB" stroke-width="1.48605" stroke-linecap="round" stroke-linejoin="round"/>
<path d="M453.519 39.7184V44.4598" stroke="#141BEB" stroke-width="1.48605" stroke-linecap="round" stroke-linejoin="round"/>
<path d="M449.545 37.4277V42.1692" stroke="#141BEB" stroke-width="1.48605" stroke-linecap="round" stroke-linejoin="round"/>
<path d="M445.576 35.1355V39.8769" stroke="#141BEB" stroke-width="1.48605" stroke-linecap="round" stroke-linejoin="round"/>
<path d="M491.894 196.156C496.293 198.693 501.717 198.693 506.117 196.156L578.911 154.128L607.305 137.734C609.333 136.565 610.353 134.503 610.353 132.453V118.985C610.353 121.035 609.333 123.099 607.305 124.267L604.791 125.722L578.911 140.661L506.117 182.689C501.717 185.227 496.293 185.227 491.894 182.689V196.156Z" fill="white"/>
<path d="M491.894 196.156C496.293 198.693 501.717 198.693 506.117 196.156L578.911 154.128L607.305 137.734C609.333 136.565 610.353 134.503 610.353 132.453V118.985C610.353 121.035 609.333 123.099 607.305 124.267L604.791 125.722L578.911 140.661L506.117 182.689C501.717 185.227 496.293 185.227 491.894 182.689V196.156Z" stroke="#141BEB" stroke-width="1.48605" stroke-linecap="round" stroke-linejoin="round"/>
<path d="M557.311 34.5965C557.311 35.6083 557.926 36.0727 558.684 35.6348C559.443 35.1969 560.058 34.022 560.058 33.0102C560.058 31.9989 559.443 31.5345 558.684 31.9724C557.926 32.4103 557.311 33.5846 557.311 34.5965Z" fill="#141BEB"/>
<path d="M551.404 38.0081C551.404 39.0199 552.019 39.4844 552.778 39.0464C553.537 38.6085 554.151 37.4336 554.151 36.4218C554.151 35.4105 553.537 34.9461 552.778 35.384C552.019 35.8219 551.404 36.9968 551.404 38.0081Z" fill="#141BEB"/>
<path d="M545.5 41.4191C545.5 42.4304 546.115 42.8954 546.874 42.4574C547.633 42.0195 548.247 40.8446 548.247 39.8328C548.247 38.8215 547.633 38.3571 546.874 38.795C546.115 39.2329 545.5 40.4073 545.5 41.4191Z" fill="#141BEB"/>
<path d="M504.873 57.9293V71.6271" stroke="#141BEB" stroke-width="1.48605" stroke-linecap="round" stroke-linejoin="round"/>
<path d="M561.958 172.75H564.058V189.257L563.036 189.8C562.362 190.158 561.554 190.158 560.88 189.8L559.857 189.257V172.75H561.958Z" fill="#141BEB"/>
<path d="M561.958 172.75H564.058V189.257L563.036 189.8C562.362 190.158 561.554 190.158 560.88 189.8L559.857 189.257V172.75H561.958Z" stroke="#141BEB" stroke-width="1.48605" stroke-miterlimit="10"/>
<path d="M603.866 194.758H605.966V211.264L604.944 211.808C604.27 212.167 603.462 212.167 602.788 211.808L601.766 211.264V194.758H603.866Z" fill="#141BEB"/>
<path d="M603.866 194.758H605.966V211.264L604.944 211.808C604.27 212.167 603.462 212.167 602.788 211.808L601.766 211.264V194.758H603.866Z" stroke="#141BEB" stroke-width="1.48605" stroke-miterlimit="10"/>
<path d="M660.682 202.148H662.783V218.654L661.76 219.198C661.086 219.557 660.278 219.557 659.604 219.198L658.582 218.654V202.148H660.682Z" fill="#141BEB"/>
<path d="M660.682 202.148H662.783V218.654L661.76 219.198C661.086 219.557 660.278 219.557 659.604 219.198L658.582 218.654V202.148H660.682Z" stroke="#141BEB" stroke-width="1.48605" stroke-miterlimit="10"/>
<path d="M716.196 191.935H718.297V208.442L717.275 208.986C716.6 209.344 715.792 209.344 715.118 208.986L714.096 208.442V191.935H716.196Z" fill="#141BEB"/>
<path d="M716.196 191.935H718.297V208.442L717.275 208.986C716.6 209.344 715.792 209.344 715.118 208.986L714.096 208.442V191.935H716.196Z" stroke="#141BEB" stroke-width="1.48605" stroke-miterlimit="10"/>
<path d="M576.098 90.0604V110.381C576.098 114.168 573.789 118.566 570.948 120.21L517.543 151.046C514.702 152.684 512.399 150.943 512.399 147.156V145.644L563.678 116.029C566.52 114.391 568.823 109.992 568.823 106.199V87.4967C574.806 83.2891 576.098 87.8031 576.098 90.0604Z" fill="#141BEB"/>
<path d="M576.098 90.0604V110.381C576.098 114.168 573.789 118.566 570.948 120.21L517.543 151.046C514.702 152.684 512.399 150.943 512.399 147.156V145.644L563.678 116.029C566.52 114.391 568.823 109.992 568.823 106.199V87.4967C574.806 83.2891 576.098 87.8031 576.098 90.0604Z" stroke="#141BEB" stroke-width="1.48605" stroke-linecap="round" stroke-linejoin="round"/>
<path d="M691.667 159.86L747.133 128.047C749.575 126.647 752.582 126.67 755.003 128.108L819.42 166.355C821.801 167.769 821.779 171.224 819.381 172.608L765.528 203.696C762.679 205.34 759.168 205.336 756.324 203.684L691.651 166.136C689.238 164.736 689.248 161.248 691.667 159.86Z" fill="#141BEB"/>
<path d="M691.667 159.86L747.133 128.047C749.575 126.647 752.582 126.67 755.003 128.108L819.42 166.355C821.801 167.769 821.779 171.224 819.381 172.608L765.528 203.696C762.679 205.34 759.168 205.336 756.324 203.684L691.651 166.136C689.238 164.736 689.248 161.248 691.667 159.86Z" stroke="#141BEB" stroke-width="1.48605" stroke-linecap="round" stroke-linejoin="round"/>
<path d="M693.816 135.707V158.63L731.807 136.841L731.851 113.38L693.816 135.707Z" fill="#141BEB"/>
<path d="M693.816 135.707V158.63L731.807 136.841L731.851 113.38L693.816 135.707Z" stroke="#141BEB" stroke-width="1.48605" stroke-linecap="round" stroke-linejoin="round"/>
<path d="M568.89 122.289L522.615 148.671L522.545 159.605L533.902 166.8L533.972 180.132L591.039 147.402L590.334 134.987L570.865 130.895L568.89 122.289Z" fill="#141BEB"/>
<path d="M489.317 134.796C519.937 152.786 592.18 194.326 605.945 201.126C638.439 217.177 691.555 216.753 724.145 198.571C740.863 189.238 760.544 177.257 760.544 177.257L715.297 152.601C715.297 152.601 698.327 164.579 686.899 170.262C675.472 175.944 660.236 182.024 642.672 172.107C625.107 162.189 532.409 109.911 532.409 109.911L489.317 134.796Z" fill="#C2C7FB"/>
<path d="M489.317 134.796C519.937 152.786 592.18 194.326 605.945 201.126C638.439 217.177 691.555 216.753 724.145 198.571C740.863 189.238 760.544 177.257 760.544 177.257L715.297 152.601C715.297 152.601 698.327 164.579 686.899 170.262C675.472 175.944 660.236 182.024 642.672 172.107C625.107 162.189 532.409 109.911 532.409 109.911L489.317 134.796Z" stroke="#141BEB" stroke-width="1.48605" stroke-miterlimit="10"/>
<path d="M490.165 124.865C520.785 142.856 592.196 187.687 605.961 194.487C638.455 210.538 691.572 210.114 724.162 191.931C740.88 182.599 760.56 170.618 760.56 170.618L715.314 145.961C715.314 145.961 698.344 157.94 686.916 163.623C675.489 169.306 660.252 175.386 642.688 165.468C625.123 155.55 533.638 100.203 533.638 100.203L490.165 124.865Z" fill="white"/>
<path d="M490.165 124.865C520.785 142.856 592.196 187.687 605.961 194.487C638.455 210.538 691.572 210.114 724.162 191.931C740.88 182.599 760.56 170.618 760.56 170.618L715.314 145.961C715.314 145.961 698.344 157.94 686.916 163.623C675.489 169.306 660.252 175.386 642.688 165.468C625.123 155.55 533.638 100.203 533.638 100.203L490.165 124.865Z" stroke="#141BEB" stroke-width="1.48605" stroke-miterlimit="10"/>
<path d="M510.446 137.556L553.619 112.614" stroke="#141BEB" stroke-width="1.48605" stroke-linecap="round" stroke-linejoin="round"/>
<path d="M493.384 127.338L536.557 102.396" stroke="#141BEB" stroke-width="1.48605" stroke-linecap="round" stroke-linejoin="round"/>
<path d="M530.149 149.173L573.322 124.232" stroke="#141BEB" stroke-width="1.48605" stroke-linecap="round" stroke-linejoin="round"/>
<path d="M491.125 116.335L526.082 136.833L550.883 122.496L515.264 102.278L491.125 116.335Z" fill="white"/>
<path d="M491.125 116.335L526.082 136.833L550.883 122.496L515.264 102.278L491.125 116.335Z" stroke="#141BEB" stroke-width="1.48605" stroke-linecap="round" stroke-linejoin="round"/>
<path d="M500.536 117.765L508.223 112.45M510.695 110.992L515.729 107.511M503.61 119.119L507.632 116.426M509.759 114.933L514.906 111.624M517.629 112.805L521.651 110.112M511.831 123.818L516.978 120.51M506.164 120.706L515.843 114.151M508.877 122.342L516.574 117.13M518.431 115.871L523.911 112.16" stroke="#C2C7FB" stroke-width="1.48605" stroke-linecap="round" stroke-linejoin="round"/>
<path d="M568.827 121.424L577.909 126.777L584.373 123.146C585.974 122.225 586.775 120.608 586.775 118.99V36.1855C586.775 37.8029 585.974 39.4287 584.373 40.3497L561.992 53.2738L504.61 86.4006C501.142 88.4028 496.867 88.4028 493.399 86.4006V169.197C496.867 171.198 501.142 171.198 504.61 169.197L527.467 156.553L518.22 150.932L517.537 151.043C514.696 152.681 512.393 150.94 512.393 147.154V126.933C512.393 123.147 514.696 118.742 517.537 117.104L568.816 87.4948L570.941 86.2691C573.782 84.6247 576.091 86.3662 576.091 90.1584V110.379C576.091 114.165 573.782 118.565 570.941 120.209L568.827 121.424Z" fill="white"/>
<path d="M568.827 121.424L577.909 126.777L584.373 123.146C585.974 122.225 586.775 120.608 586.775 118.99V36.1855C586.775 37.8029 585.974 39.4287 584.373 40.3497L561.992 53.2738L504.61 86.4006C501.142 88.4028 496.867 88.4028 493.399 86.4006V169.197C496.867 171.198 501.142 171.198 504.61 169.197L527.467 156.553L518.22 150.932L517.537 151.043C514.696 152.681 512.393 150.94 512.393 147.154V126.933C512.393 123.147 514.696 118.742 517.537 117.104L568.816 87.4948L570.941 86.2691C573.782 84.6247 576.091 86.3662 576.091 90.1584V110.379C576.091 114.165 573.782 118.565 570.941 120.209L568.827 121.424Z" stroke="#141BEB" stroke-width="1.48605" stroke-linecap="round" stroke-linejoin="round"/>
<path d="M567.469 69.5262C567.469 70.5623 567.785 71.3072 568.303 71.6717L568.311 71.6796L568.529 71.801L571.463 73.4843C571.091 73.2253 570.824 72.7716 570.702 72.1644C570.645 71.9138 570.621 71.6305 570.621 71.3309C570.621 69.3151 571.852 66.9675 573.366 66.0849C573.455 66.0285 573.544 65.9879 573.633 65.9473C574.167 65.7125 574.661 65.6961 575.058 65.8908L572.003 64.1268L571.953 64.1025C571.484 63.8593 570.877 63.8999 570.213 64.2802C568.7 65.1544 567.469 67.5025 567.469 69.5262Z" fill="#141BEB"/>
<path d="M567.469 69.5262C567.469 70.5623 567.785 71.3072 568.303 71.6717L568.311 71.6796L568.529 71.801L571.463 73.4843C571.091 73.2253 570.824 72.7716 570.702 72.1644C570.645 71.9138 570.621 71.6305 570.621 71.3309C570.621 69.3151 571.852 66.9675 573.366 66.0849C573.455 66.0285 573.544 65.9879 573.633 65.9473C574.167 65.7125 574.661 65.6961 575.058 65.8908L572.003 64.1268L571.953 64.1025C571.484 63.8593 570.877 63.8999 570.213 64.2802C568.7 65.1544 567.469 67.5025 567.469 69.5262Z" stroke="#141BEB" stroke-width="1.48605" stroke-linecap="round" stroke-linejoin="round"/>
<path d="M570.612 71.332C570.612 71.6317 570.637 71.9149 570.693 72.1661C570.815 72.7733 571.082 73.2264 571.454 73.4854C571.471 73.5018 571.486 73.5176 571.511 73.5261L571.648 73.6068C572.118 73.8336 572.709 73.7851 573.357 73.4127C574.879 72.5301 576.101 70.183 576.101 68.1673C576.101 67.1312 575.777 66.3778 575.259 66.0133C575.251 66.0054 575.243 65.9969 575.227 65.989L575.048 65.8919C574.652 65.6978 574.158 65.7136 573.624 65.9484C573.535 65.989 573.446 66.0296 573.357 66.0861C571.843 66.9687 570.612 69.3162 570.612 71.332Z" fill="#02EEC4"/>
<path d="M570.612 71.332C570.612 71.6317 570.637 71.9149 570.693 72.1661C570.815 72.7733 571.082 73.2264 571.454 73.4854C571.471 73.5018 571.486 73.5176 571.511 73.5261L571.648 73.6068C572.118 73.8336 572.709 73.7851 573.357 73.4127C574.879 72.5301 576.101 70.183 576.101 68.1673C576.101 67.1312 575.777 66.3778 575.259 66.0133C575.251 66.0054 575.243 65.9969 575.227 65.989L575.048 65.8919C574.652 65.6978 574.158 65.7136 573.624 65.9484C573.535 65.989 573.446 66.0296 573.357 66.0861C571.843 66.9687 570.612 69.3162 570.612 71.332Z" stroke="#141BEB" stroke-width="1.48605" stroke-linecap="round" stroke-linejoin="round"/>
<path d="M556.103 76.0037C556.103 77.0398 556.418 77.7847 556.937 78.1487L556.945 78.1572L557.163 78.2785L560.097 79.9619C559.724 79.7028 559.457 79.2491 559.336 78.6419C559.279 78.3914 559.255 78.1081 559.255 77.8084C559.255 75.7927 560.486 73.4451 562 72.5625C562.088 72.506 562.177 72.4654 562.267 72.4248C562.801 72.19 563.295 72.1737 563.692 72.3684L560.636 70.6037L560.587 70.5795C560.118 70.3368 559.51 70.3774 558.847 70.7578C557.333 71.6319 556.103 73.9801 556.103 76.0037Z" fill="#141BEB"/>
<path d="M556.103 76.0037C556.103 77.0398 556.418 77.7847 556.937 78.1487L556.945 78.1572L557.163 78.2785L560.097 79.9619C559.724 79.7028 559.457 79.2491 559.336 78.6419C559.279 78.3914 559.255 78.1081 559.255 77.8084C559.255 75.7927 560.486 73.4451 562 72.5625C562.088 72.506 562.177 72.4654 562.267 72.4248C562.801 72.19 563.295 72.1737 563.692 72.3684L560.636 70.6037L560.587 70.5795C560.118 70.3368 559.51 70.3774 558.847 70.7578C557.333 71.6319 556.103 73.9801 556.103 76.0037Z" stroke="#141BEB" stroke-width="1.48605" stroke-linecap="round" stroke-linejoin="round"/>
<path d="M559.259 77.8054C559.259 78.105 559.283 78.3883 559.339 78.6395C559.461 79.2467 559.728 79.6998 560.101 79.9588C560.117 79.9752 560.133 79.991 560.157 79.9995L560.295 80.0802C560.764 80.307 561.356 80.2585 562.003 79.886C563.525 79.0034 564.747 76.6564 564.747 74.6407C564.747 73.6046 564.423 72.8512 563.905 72.4867C563.898 72.4788 563.89 72.4703 563.873 72.4624L563.695 72.3653C563.298 72.1712 562.804 72.187 562.271 72.4218C562.181 72.4624 562.092 72.503 562.003 72.5595C560.49 73.4421 559.259 75.7896 559.259 77.8054Z" fill="#02EEC4"/>
<path d="M559.259 77.8054C559.259 78.105 559.283 78.3883 559.339 78.6395C559.461 79.2467 559.728 79.6998 560.101 79.9588C560.117 79.9752 560.133 79.991 560.157 79.9995L560.295 80.0802C560.764 80.307 561.356 80.2585 562.003 79.886C563.525 79.0034 564.747 76.6564 564.747 74.6407C564.747 73.6046 564.423 72.8512 563.905 72.4867C563.898 72.4788 563.89 72.4703 563.873 72.4624L563.695 72.3653C563.298 72.1712 562.804 72.187 562.271 72.4218C562.181 72.4624 562.092 72.503 562.003 72.5595C560.49 73.4421 559.259 75.7896 559.259 77.8054Z" stroke="#141BEB" stroke-width="1.48605" stroke-linecap="round" stroke-linejoin="round"/>
<path d="M504.722 86.4738V169.27" stroke="#141BEB" stroke-width="1.48605" stroke-linecap="round" stroke-linejoin="round"/>
<path d="M506.118 182.687V196.154" stroke="#141BEB" stroke-width="1.48605" stroke-linecap="round" stroke-linejoin="round"/>
<g style="mix-blend-mode:multiply">
<path d="M709.504 69.159C709.504 69.159 776.216 107.407 784.399 112.836C792.582 118.266 795.685 129.225 773.113 141.035L816.805 165.655C816.805 165.655 807.809 171.043 829.133 158.059C852.951 143.558 864.805 109.777 830.109 88.403C795.413 67.0293 753.927 43.6793 753.927 43.6793L709.504 69.159Z" fill="#141BEB"/>
</g>
<path d="M736.656 51.4668H738.756V67.9732L737.734 68.5178C737.06 68.8761 736.252 68.8761 735.578 68.5178L734.556 67.9732V51.4668H736.656Z" fill="#141BEB"/>
<path d="M736.656 51.4668H738.756V67.9732L737.734 68.5178C737.06 68.8761 736.252 68.8761 735.578 68.5178L734.556 67.9732V51.4668H736.656Z" stroke="#141BEB" stroke-width="1.48605" stroke-miterlimit="10"/>
<path d="M769.192 69.3574H771.293V85.8638L770.271 86.4084C769.596 86.7667 768.788 86.7667 768.114 86.4084L767.092 85.8638V69.3574H769.192Z" fill="#141BEB"/>
<path d="M769.192 69.3574H771.293V85.8638L770.271 86.4084C769.596 86.7667 768.788 86.7667 768.114 86.4084L767.092 85.8638V69.3574H769.192Z" stroke="#141BEB" stroke-width="1.48605" stroke-miterlimit="10"/>
<path d="M710.877 49.4715C710.877 49.4715 777.591 87.7195 785.773 93.1489C793.956 98.5788 797.06 109.537 774.487 121.347L818.178 145.968C818.178 145.968 809.182 151.355 830.506 138.371C854.324 123.87 866.178 90.0891 831.482 68.7155C796.786 47.3418 755.3 23.9918 755.3 23.9918L710.877 49.4715Z" fill="#C2C7FB"/>
<path d="M710.877 49.4715C710.877 49.4715 777.591 87.7195 785.773 93.1489C793.956 98.5788 797.06 109.537 774.487 121.347L818.178 145.968C818.178 145.968 809.182 151.355 830.506 138.371C854.324 123.87 866.178 90.0891 831.482 68.7154C796.786 47.3418 755.3 23.9918 755.3 23.9918L710.877 49.4715Z" stroke="#141BEB" stroke-width="1.48605" stroke-miterlimit="10"/>
<path d="M709.924 42.134C709.924 42.134 776.637 80.382 784.819 85.8114C793.002 91.2413 796.106 102.199 773.534 114.01L817.225 138.63C817.225 138.63 808.229 144.018 829.553 131.034C853.37 116.532 865.225 82.7516 830.529 61.3779C795.833 40.0042 754.347 16.6543 754.347 16.6543L709.924 42.134Z" fill="white"/>
<path d="M709.924 42.134C709.924 42.134 776.637 80.382 784.819 85.8114C793.002 91.2413 796.106 102.199 773.534 114.01L817.225 138.63C817.225 138.63 808.229 144.018 829.553 131.034C853.37 116.532 865.225 82.7516 830.529 61.3779C795.833 40.0042 754.347 16.6543 754.347 16.6543L709.924 42.134Z" stroke="#141BEB" stroke-width="1.48605" stroke-linecap="round" stroke-linejoin="round"/>
<path d="M820.736 138.049L822.153 149.15L820.736 138.049Z" fill="#FFE1CD"/>
<path d="M820.736 138.049L822.153 149.15" stroke="#141BEB" stroke-width="1.48605" stroke-linecap="round" stroke-linejoin="round"/>
<path d="M370.01 -10.9314V25.9048L391.353 13.5659L391.352 -24.0953L370.01 -10.9314Z" fill="white"/>
<path d="M370.01 -10.9314V25.9048L391.353 13.5659L391.352 -24.0953L370.01 -10.9314Z" stroke="#141BEB" stroke-width="1.48605" stroke-linecap="round" stroke-linejoin="round"/>
<path d="M373.343 5.98885L377.549 3.50696" stroke="#C2C7FB" stroke-width="1.48605" stroke-linecap="round" stroke-linejoin="round"/>
<path d="M379.327 2.42139L384.702 -0.618042" stroke="#C2C7FB" stroke-width="1.48605" stroke-linecap="round" stroke-linejoin="round"/>
<path d="M373.297 2.62516L381.351 -2.18286" stroke="#C2C7FB" stroke-width="1.48605" stroke-linecap="round" stroke-linejoin="round"/>
<path d="M392.703 68.7405L440.395 41.2998L392.703 68.7405Z" fill="#141BEB"/>
<path d="M392.703 68.7405L440.395 41.2998" stroke="#141BEB" stroke-width="1.48605" stroke-miterlimit="10"/>
<path d="M429.081 90.7386L475.932 63.817L429.081 90.7386Z" fill="#141BEB"/>
<path d="M429.081 90.7386L475.932 63.817" stroke="#141BEB" stroke-width="1.48605" stroke-miterlimit="10"/>
<path d="M372.497 58.1511L419.348 31.2296L372.497 58.1511Z" fill="#141BEB"/>
<path d="M372.497 58.1511L419.348 31.2296" stroke="#141BEB" stroke-width="1.48605" stroke-miterlimit="10"/>
<path d="M411.234 80.3336L458.473 53.0374L411.234 80.3336Z" fill="#141BEB"/>
<path d="M411.234 80.3336L458.473 53.0374" stroke="#141BEB" stroke-width="1.48605" stroke-miterlimit="10"/>
<path d="M379.896 22.8044V53.7569L401.239 41.418V9.6405L379.896 22.8044Z" fill="white"/>
<path d="M379.896 22.8044V53.7569L401.239 41.418V9.6405L379.896 22.8044Z" stroke="#141BEB" stroke-width="1.48605" stroke-linecap="round" stroke-linejoin="round"/>
<path d="M383.053 26.3486L391.103 21.439" stroke="#C2C7FB" stroke-width="1.48605" stroke-linecap="round" stroke-linejoin="round"/>
<path d="M393.082 20.2299L398.354 17.0155" stroke="#C2C7FB" stroke-width="1.48605" stroke-linecap="round" stroke-linejoin="round"/>
<path d="M382.988 29.3981L387.195 26.9163" stroke="#C2C7FB" stroke-width="1.48605" stroke-linecap="round" stroke-linejoin="round"/>
<path d="M388.973 25.833L394.347 22.7936" stroke="#C2C7FB" stroke-width="1.48605" stroke-linecap="round" stroke-linejoin="round"/>
<path d="M383.229 39.7205L387.436 37.2386" stroke="#C2C7FB" stroke-width="1.48605" stroke-linecap="round" stroke-linejoin="round"/>
<path d="M389.214 36.1565L394.588 33.1171" stroke="#C2C7FB" stroke-width="1.48605" stroke-linecap="round" stroke-linejoin="round"/>
<path d="M383.004 32.757L393.131 26.7108" stroke="#C2C7FB" stroke-width="1.48605" stroke-linecap="round" stroke-linejoin="round"/>
<path d="M383.183 36.3571L391.237 31.5491" stroke="#C2C7FB" stroke-width="1.48605" stroke-linecap="round" stroke-linejoin="round"/>
<path d="M392.938 30.5316L398.671 27.1084" stroke="#C2C7FB" stroke-width="1.48605" stroke-linecap="round" stroke-linejoin="round"/>
<path d="M398.541 34.3639V65.3164L419.884 52.9775V21.2L398.541 34.3639Z" fill="white"/>
<path d="M398.541 34.3639V65.3164L419.884 52.9775V21.2L398.541 34.3639Z" stroke="#141BEB" stroke-width="1.48605" stroke-linecap="round" stroke-linejoin="round"/>
<path d="M401.691 37.9119L409.742 33.0023" stroke="#C2C7FB" stroke-width="1.48605" stroke-linecap="round" stroke-linejoin="round"/>
<path d="M411.734 31.7893L417.006 28.575" stroke="#C2C7FB" stroke-width="1.48605" stroke-linecap="round" stroke-linejoin="round"/>
<path d="M401.641 40.9576L405.847 38.4757" stroke="#C2C7FB" stroke-width="1.48605" stroke-linecap="round" stroke-linejoin="round"/>
<path d="M407.625 37.3964L413 34.3569" stroke="#C2C7FB" stroke-width="1.48605" stroke-linecap="round" stroke-linejoin="round"/>
<path d="M401.874 51.2841L406.08 48.8022" stroke="#C2C7FB" stroke-width="1.48605" stroke-linecap="round" stroke-linejoin="round"/>
<path d="M407.858 47.7167L413.233 44.6772" stroke="#C2C7FB" stroke-width="1.48605" stroke-linecap="round" stroke-linejoin="round"/>
<path d="M401.656 44.3164L411.784 38.2703" stroke="#C2C7FB" stroke-width="1.48605" stroke-linecap="round" stroke-linejoin="round"/>
<path d="M401.828 47.9165L409.882 43.1085" stroke="#C2C7FB" stroke-width="1.48605" stroke-linecap="round" stroke-linejoin="round"/>
<path d="M411.583 42.0949L417.317 38.6718" stroke="#C2C7FB" stroke-width="1.48605" stroke-linecap="round" stroke-linejoin="round"/>
<path d="M418.009 45.7872V76.7397L439.351 64.4008V32.6233L418.009 45.7872Z" fill="white"/>
<path d="M418.009 45.7872V76.7397L439.351 64.4008V32.6233L418.009 45.7872Z" stroke="#141BEB" stroke-width="1.48605" stroke-linecap="round" stroke-linejoin="round"/>
<path d="M421.159 49.3383L429.21 44.4287" stroke="#C2C7FB" stroke-width="1.48605" stroke-linecap="round" stroke-linejoin="round"/>
<path d="M431.202 43.2127L436.474 39.9983" stroke="#C2C7FB" stroke-width="1.48605" stroke-linecap="round" stroke-linejoin="round"/>
<path d="M421.108 52.3848L425.315 49.903" stroke="#C2C7FB" stroke-width="1.48605" stroke-linecap="round" stroke-linejoin="round"/>
<path d="M427.093 48.819L432.467 45.7795" stroke="#C2C7FB" stroke-width="1.48605" stroke-linecap="round" stroke-linejoin="round"/>
<path d="M421.348 62.7067L425.554 60.2249" stroke="#C2C7FB" stroke-width="1.48605" stroke-linecap="round" stroke-linejoin="round"/>
<path d="M427.326 59.1393L432.701 56.0999" stroke="#C2C7FB" stroke-width="1.48605" stroke-linecap="round" stroke-linejoin="round"/>
<path d="M421.124 55.7429L431.251 49.6968" stroke="#C2C7FB" stroke-width="1.48605" stroke-linecap="round" stroke-linejoin="round"/>
<path d="M421.296 59.3431L429.35 54.535" stroke="#C2C7FB" stroke-width="1.48605" stroke-linecap="round" stroke-linejoin="round"/>
<path d="M431.051 53.5214L436.784 50.0983" stroke="#C2C7FB" stroke-width="1.48605" stroke-linecap="round" stroke-linejoin="round"/>
<path d="M493.4 86.4055V169.202L413.637 123.151C412.035 122.23 411.234 120.613 411.234 118.995V36.1904C411.234 37.8078 412.035 39.4257 413.637 40.3467L436.018 53.2708L493.4 86.4055Z" fill="#C2C7FB"/>
<path d="M493.4 86.4055V169.202L413.637 123.151C412.035 122.23 411.234 120.613 411.234 118.995V36.1904C411.234 37.8078 412.035 39.4257 413.637 40.3467L436.018 53.2708L493.4 86.4055Z" stroke="#141BEB" stroke-width="1.48605" stroke-linecap="round" stroke-linejoin="round"/>
<path d="M462.421 87.9015V87.9759C462.398 90.0955 461.327 91.3212 459.769 91.3212C459.127 91.3212 458.399 91.1091 457.632 90.6683L428.893 74.0733C426.247 72.5497 424.104 68.8319 424.104 65.7789C424.104 63.6136 425.182 62.3591 426.757 62.3591C427.33 62.3591 427.971 62.5312 428.653 62.8862C428.733 62.9206 428.813 62.9663 428.893 63.0121L457.632 79.6071C460.279 81.1307 462.421 84.8485 462.421 87.9015Z" stroke="#141BEB" stroke-width="1.48605" stroke-linecap="round" stroke-linejoin="round"/>
<path d="M462.424 87.904V87.9785C462.344 87.9385 462.258 87.8928 462.178 87.8465L433.445 71.2577C430.798 69.7284 428.656 66.0163 428.656 62.9576V62.8888C428.736 62.9232 428.817 62.9689 428.897 63.0146L457.635 79.6096C460.282 81.1333 462.424 84.8511 462.424 87.904Z" fill="#141BEB"/>
<path d="M462.424 87.904V87.9785C462.344 87.9385 462.258 87.8928 462.178 87.8465L433.445 71.2577C430.798 69.7284 428.656 66.0163 428.656 62.9576V62.8888C428.736 62.9232 428.817 62.9689 428.897 63.0146L457.635 79.6096C460.282 81.1333 462.424 84.8511 462.424 87.904Z" fill="#141BEB" stroke="#141BEB" stroke-width="1.48605" stroke-linecap="round" stroke-linejoin="round"/>
<path d="M477.265 96.4769C477.265 96.8375 477.236 97.1699 477.174 97.4791C476.893 99.0203 475.925 99.8916 474.619 99.8916C473.971 99.8916 473.244 99.6845 472.476 99.2381C469.83 97.7144 467.688 93.9967 467.688 90.9432C467.688 88.7784 468.764 87.5239 470.34 87.5239C470.443 87.5239 470.551 87.5296 470.66 87.5409C471.216 87.5984 471.835 87.805 472.476 88.1774C473.8 88.9449 474.997 90.2502 475.862 91.7513C476.732 93.2518 477.265 94.9476 477.265 96.4769Z" fill="#C2C7FB"/>
<path d="M477.265 96.4769C477.265 96.8375 477.236 97.1699 477.174 97.4791C476.893 99.0203 475.925 99.8916 474.619 99.8916C473.971 99.8916 473.244 99.6845 472.476 99.2381C469.83 97.7144 467.688 93.9967 467.688 90.9432C467.688 88.7784 468.764 87.5239 470.34 87.5239C470.443 87.5239 470.551 87.5296 470.66 87.5409C471.216 87.5984 471.835 87.805 472.476 88.1774C473.8 88.9449 474.997 90.2502 475.862 91.7513C476.732 93.2518 477.265 94.9476 477.265 96.4769Z" stroke="#141BEB" stroke-width="1.48605" stroke-linecap="round" stroke-linejoin="round"/>
<path d="M477.276 96.4805C477.276 96.8411 477.248 97.1735 477.185 97.4828C476.623 97.4314 476.011 97.2254 475.369 96.853C472.722 95.3293 470.58 91.6121 470.58 88.5591C470.58 88.1923 470.609 87.8543 470.671 87.545C471.227 87.6026 471.846 87.8086 472.487 88.181C473.811 88.9485 475.008 90.2544 475.873 91.7554C476.744 93.256 477.276 94.9512 477.276 96.4805Z" fill="#141BEB"/>
<path d="M477.276 96.4805C477.276 96.8411 477.248 97.1735 477.185 97.4828C476.623 97.4314 476.011 97.2254 475.369 96.853C472.722 95.3293 470.58 91.6121 470.58 88.5591C470.58 88.1923 470.609 87.8543 470.671 87.545C471.227 87.6026 471.846 87.8086 472.487 88.181C473.811 88.9485 475.008 90.2544 475.873 91.7554C476.744 93.256 477.276 94.9512 477.276 96.4805Z" fill="#141BEB" stroke="#141BEB" stroke-width="1.48605" stroke-linecap="round" stroke-linejoin="round"/>
<path d="M439.774 115.901V115.972C439.757 119.675 438.485 122.309 436.422 123.609L436.061 123.818C433.891 124.975 430.942 124.753 427.689 122.875C421.016 119.023 415.609 109.654 415.609 101.947C415.609 98.2267 416.87 95.5727 418.924 94.2601L419.363 94.0067C421.517 92.8826 424.424 93.1044 427.628 94.9379C427.648 94.9458 427.669 94.9582 427.689 94.9706C434.363 98.8221 439.774 108.194 439.774 115.901Z" fill="#141BEB"/>
<path d="M439.774 115.901V115.972C439.757 119.675 438.485 122.309 436.422 123.609L436.061 123.818C433.891 124.975 430.942 124.753 427.689 122.875C421.016 119.023 415.609 109.654 415.609 101.947C415.609 98.2267 416.87 95.5727 418.924 94.2601L419.363 94.0067C421.517 92.8826 424.424 93.1044 427.628 94.9379C427.648 94.9458 427.669 94.9582 427.689 94.9706C434.363 98.8221 439.774 108.194 439.774 115.901Z" stroke="#141BEB" stroke-width="1.48605" stroke-linecap="round" stroke-linejoin="round"/>
<path d="M448.211 111.082C448.211 114.814 446.94 117.477 444.868 118.785L444.487 119.003L436.432 123.61C438.495 122.31 439.766 119.677 439.782 115.973V115.903C439.782 108.196 434.372 98.8229 427.699 94.9714C427.678 94.959 427.657 94.9472 427.637 94.9387C424.433 93.1052 421.526 92.884 419.372 94.0076L427.362 89.4405L427.805 89.1866C429.971 88.0546 432.903 88.2882 436.127 90.1504C442.801 94.0059 448.211 103.374 448.211 111.082Z" fill="white"/>
<path d="M448.211 111.082C448.211 114.814 446.94 117.477 444.868 118.785L444.487 119.003L436.432 123.61C438.495 122.31 439.766 119.677 439.782 115.973V115.903C439.782 108.196 434.372 98.8229 427.699 94.9714C427.678 94.959 427.657 94.9472 427.637 94.9387C424.433 93.1052 421.526 92.884 419.372 94.0076L427.362 89.4405L427.805 89.1866C429.971 88.0546 432.903 88.2882 436.127 90.1504C442.801 94.0059 448.211 103.374 448.211 111.082Z" stroke="#141BEB" stroke-width="1.48605" stroke-linecap="round" stroke-linejoin="round"/>
<path d="M428.473 117.188V117.232C428.463 119.513 427.68 121.136 426.409 121.936L426.187 122.065C424.85 122.778 423.033 122.641 421.03 121.484C416.919 119.111 413.589 113.34 413.589 108.592C413.589 106.301 414.365 104.666 415.631 103.858L415.901 103.701C417.227 103.008 419.019 103.146 420.992 104.275C421.005 104.28 421.017 104.287 421.03 104.295C425.141 106.667 428.473 112.441 428.473 117.188Z" fill="#141BEB"/>
<path d="M428.473 117.188V117.232C428.463 119.513 427.68 121.136 426.409 121.936L426.187 122.065C424.85 122.778 423.033 122.641 421.03 121.484C416.919 119.111 413.589 113.34 413.589 108.592C413.589 106.301 414.365 104.666 415.631 103.858L415.901 103.701C417.227 103.008 419.019 103.146 420.992 104.275C421.005 104.28 421.017 104.287 421.03 104.295C425.141 106.667 428.473 112.441 428.473 117.188Z" stroke="#141BEB" stroke-width="1.48605" stroke-linecap="round" stroke-linejoin="round"/>
<path d="M424.348 114.777L424.348 114.797C424.388 115.869 424.079 116.645 423.543 117.044L423.449 117.109C422.883 117.467 422.092 117.435 421.199 116.928C419.368 115.887 417.81 113.236 417.718 111.006C417.674 109.93 417.978 109.148 418.512 108.745L418.627 108.667C419.189 108.318 419.969 108.35 420.848 108.845C420.854 108.848 420.859 108.851 420.865 108.854C422.696 109.895 424.256 112.547 424.348 114.777Z" fill="#C2C7FB"/>
<path d="M424.348 114.777L424.348 114.797C424.388 115.869 424.079 116.645 423.543 117.044L423.449 117.109C422.883 117.467 422.092 117.435 421.199 116.928C419.368 115.887 417.81 113.236 417.718 111.006C417.674 109.93 417.978 109.148 418.512 108.745L418.627 108.667C419.189 108.318 419.969 108.35 420.848 108.845C420.854 108.848 420.859 108.851 420.865 108.854C422.696 109.895 424.256 112.547 424.348 114.777Z" stroke="#141BEB" stroke-width="1.48605" stroke-linecap="round" stroke-linejoin="round"/>
<path d="M433.666 114.221C433.666 116.52 432.883 118.16 431.607 118.965L431.372 119.1L426.41 121.938C427.681 121.137 428.464 119.515 428.474 117.233V117.191C428.474 112.443 425.142 106.669 421.03 104.297C421.018 104.29 421.006 104.282 420.993 104.277C419.02 103.147 417.228 103.011 415.901 103.703L420.823 100.89L421.096 100.733C422.43 100.036 424.237 100.18 426.223 101.327C430.333 103.702 433.666 109.473 433.666 114.221Z" fill="white"/>
<path d="M433.666 114.221C433.666 116.52 432.883 118.16 431.607 118.965L431.372 119.1L426.41 121.938C427.681 121.137 428.464 119.515 428.474 117.233V117.191C428.474 112.443 425.142 106.669 421.03 104.297C421.018 104.29 421.006 104.282 420.993 104.277C419.02 103.147 417.228 103.011 415.901 103.703L420.823 100.89L421.096 100.733C422.43 100.036 424.237 100.18 426.223 101.327C430.333 103.702 433.666 109.473 433.666 114.221Z" stroke="#141BEB" stroke-width="1.48605" stroke-linecap="round" stroke-linejoin="round"/>
<path d="M477.649 137.307V137.377C477.632 141.081 476.36 143.714 474.297 145.015L473.936 145.224C471.766 146.38 468.817 146.159 465.564 144.28C458.891 140.428 453.484 131.06 453.484 123.353C453.484 119.633 454.745 116.979 456.799 115.666L457.238 115.412C459.392 114.288 462.299 114.51 465.503 116.343C465.523 116.351 465.544 116.364 465.564 116.376C472.238 120.227 477.649 129.6 477.649 137.307Z" fill="#141BEB"/>
<path d="M477.649 137.307V137.377C477.632 141.081 476.36 143.714 474.297 145.015L473.936 145.224C471.766 146.38 468.817 146.159 465.564 144.28C458.891 140.428 453.484 131.06 453.484 123.353C453.484 119.633 454.745 116.979 456.799 115.666L457.238 115.412C459.392 114.288 462.299 114.51 465.503 116.343C465.523 116.351 465.544 116.364 465.564 116.376C472.238 120.227 477.649 129.6 477.649 137.307Z" stroke="#141BEB" stroke-width="1.48605" stroke-linecap="round" stroke-linejoin="round"/>
<path d="M486.073 132.488C486.073 136.22 484.802 138.883 482.73 140.191L482.349 140.409L474.294 145.016C476.357 143.716 477.628 141.083 477.645 137.379V137.31C477.645 129.602 472.235 120.229 465.561 116.378C465.541 116.365 465.52 116.353 465.499 116.345C462.296 114.511 459.388 114.29 457.234 115.414L465.224 110.847L465.667 110.593C467.833 109.461 470.766 109.694 473.99 111.557C480.663 115.412 486.073 124.78 486.073 132.488Z" fill="white"/>
<path d="M486.073 132.488C486.073 136.22 484.802 138.883 482.73 140.191L482.349 140.409L474.294 145.016C476.357 143.716 477.628 141.083 477.645 137.379V137.31C477.645 129.602 472.235 120.229 465.561 116.378C465.541 116.365 465.52 116.353 465.499 116.345C462.296 114.511 459.388 114.29 457.234 115.414L465.224 110.847L465.667 110.593C467.833 109.461 470.766 109.694 473.99 111.557C480.663 115.412 486.073 124.78 486.073 132.488Z" stroke="#141BEB" stroke-width="1.48605" stroke-linecap="round" stroke-linejoin="round"/>
<path d="M466.35 138.598V138.641C466.34 140.923 465.557 142.545 464.286 143.346L464.064 143.474C462.727 144.187 460.91 144.051 458.907 142.893C454.796 140.521 451.466 134.749 451.466 130.002C451.466 127.71 452.242 126.076 453.508 125.268L453.778 125.11C455.104 124.418 456.896 124.555 458.869 125.684C458.882 125.689 458.894 125.697 458.907 125.704C463.017 128.076 466.35 133.85 466.35 138.598Z" fill="#141BEB"/>
<path d="M466.35 138.598V138.641C466.34 140.923 465.557 142.545 464.286 143.346L464.064 143.474C462.727 144.187 460.91 144.051 458.907 142.893C454.796 140.521 451.466 134.749 451.466 130.002C451.466 127.71 452.242 126.076 453.508 125.268L453.778 125.11C455.104 124.418 456.896 124.555 458.869 125.684C458.882 125.689 458.894 125.697 458.907 125.704C463.017 128.076 466.35 133.85 466.35 138.598Z" stroke="#141BEB" stroke-width="1.48605" stroke-linecap="round" stroke-linejoin="round"/>
<path d="M462.225 136.183V136.203C462.265 137.275 461.956 138.051 461.42 138.45L461.326 138.515C460.759 138.873 459.969 138.842 459.076 138.334C457.245 137.294 455.687 134.643 455.595 132.412C455.551 131.336 455.855 130.555 456.389 130.152L456.504 130.073C457.066 129.724 457.846 129.757 458.725 130.252C458.73 130.254 458.736 130.257 458.742 130.261C460.573 131.301 462.133 133.953 462.225 136.183Z" fill="#C2C7FB"/>
<path d="M462.225 136.183V136.203C462.265 137.275 461.956 138.051 461.42 138.45L461.326 138.515C460.759 138.873 459.969 138.842 459.076 138.334C457.245 137.294 455.687 134.643 455.595 132.412C455.551 131.336 455.855 130.555 456.389 130.152L456.504 130.073C457.066 129.724 457.846 129.757 458.725 130.252C458.73 130.254 458.736 130.257 458.742 130.261C460.573 131.301 462.133 133.953 462.225 136.183Z" stroke="#141BEB" stroke-width="1.48605" stroke-linecap="round" stroke-linejoin="round"/>
<path d="M471.543 135.626C471.543 137.925 470.76 139.565 469.484 140.371L469.249 140.505L464.287 143.344C465.558 142.542 466.341 140.92 466.351 138.639V138.596C466.351 133.848 463.019 128.075 458.907 125.702C458.895 125.695 458.883 125.687 458.87 125.682C456.897 124.553 455.105 124.416 453.778 125.109L458.7 122.296L458.973 122.139C460.307 121.441 462.114 121.586 464.1 122.732C468.21 125.108 471.543 130.878 471.543 135.626Z" fill="white"/>
<path d="M471.543 135.626C471.543 137.925 470.76 139.565 469.484 140.371L469.249 140.505L464.287 143.344C465.558 142.542 466.341 140.92 466.351 138.639V138.596C466.351 133.848 463.019 128.075 458.907 125.702C458.895 125.695 458.883 125.687 458.87 125.682C456.897 124.553 455.105 124.416 453.778 125.109L458.7 122.296L458.973 122.139C460.307 121.441 462.114 121.586 464.1 122.732C468.21 125.108 471.543 130.878 471.543 135.626Z" stroke="#141BEB" stroke-width="1.48605" stroke-linecap="round" stroke-linejoin="round"/>
<path d="M586.776 36.326C586.776 37.9433 585.974 39.5691 584.373 40.4901L561.992 53.4142L504.61 86.541C501.143 88.5432 496.867 88.5432 493.4 86.541L436.018 53.4063L413.637 40.4816C412.035 39.5612 411.234 37.9433 411.234 36.326C411.234 34.7086 412.035 33.0828 413.637 32.1618L493.4 -13.8891C496.867 -15.8913 501.143 -15.8913 504.61 -13.8891L584.373 32.1618C585.974 33.0828 586.776 34.7086 586.776 36.326Z" fill="white"/>
<path d="M586.776 36.326C586.776 37.9433 585.974 39.5691 584.373 40.4901L561.992 53.4142L504.61 86.541C501.143 88.5432 496.867 88.5432 493.4 86.541L436.018 53.4063L413.637 40.4816C412.035 39.5612 411.234 37.9433 411.234 36.326C411.234 34.7086 412.035 33.0828 413.637 32.1618L493.4 -13.8891C496.867 -15.8913 501.143 -15.8913 504.61 -13.8891L584.373 32.1618C585.974 33.0828 586.776 34.7086 586.776 36.326Z" stroke="#141BEB" stroke-width="1.48605" stroke-linecap="round" stroke-linejoin="round"/>
<path d="M566.985 19.0865V19.4002C566.946 21.0046 566.124 22.57 564.539 23.4803L560.019 26.092L504.875 57.9305C501.245 60.0241 496.773 60.0241 493.134 57.9305L438 26.092L433.48 23.4803C431.845 22.5407 431.033 20.8968 431.033 19.2434C431.033 17.6001 431.845 15.9455 433.48 15.0064L493.134 -19.4336C496.773 -21.5368 501.245 -21.5368 504.875 -19.4336L564.539 15.0064C566.124 15.9161 566.946 17.4917 566.985 19.0865Z" fill="white"/>
<path d="M566.985 19.0865V19.4002C566.946 21.0046 566.124 22.57 564.539 23.4803L560.019 26.092L504.875 57.9305C501.245 60.0241 496.773 60.0241 493.134 57.9305L438 26.092L433.48 23.4803C431.845 22.5407 431.033 20.8968 431.033 19.2434C431.033 17.6001 431.845 15.9455 433.48 15.0064L493.134 -19.4336C496.773 -21.5368 501.245 -21.5368 504.875 -19.4336L564.539 15.0064C566.124 15.9161 566.946 17.4917 566.985 19.0865Z" stroke="#141BEB" stroke-width="1.48605" stroke-linecap="round" stroke-linejoin="round"/>
<path d="M566.985 19.4007V33.0985C566.946 34.7034 566.124 36.2689 564.539 37.1785L504.875 71.6287C501.245 73.7229 496.773 73.7229 493.134 71.6287L433.48 37.1785C431.845 36.2395 431.033 34.5956 431.033 32.9422V19.2444C431.033 20.8978 431.845 22.5412 433.48 23.4807L438 26.093L493.134 57.9309C496.773 60.0245 501.245 60.0245 504.875 57.9309L560.019 26.093L564.539 23.4807C566.124 22.5711 566.946 21.0051 566.985 19.4007Z" fill="#C2C7FB"/>
<path d="M566.985 19.4007V33.0985C566.946 34.7034 566.124 36.2688 564.539 37.1785L504.875 71.6287C501.245 73.7229 496.773 73.7229 493.134 71.6287L433.48 37.1785C431.845 36.2395 431.033 34.5956 431.033 32.9422V19.2444C431.033 20.8978 431.845 22.5412 433.48 23.4807L438 26.093L493.134 57.9309C496.773 60.0245 501.245 60.0245 504.875 57.9309L560.019 26.093L564.539 23.4807C566.124 22.5711 566.946 21.0051 566.985 19.4007Z" stroke="#141BEB" stroke-width="1.48605" stroke-linecap="round" stroke-linejoin="round"/>
<path d="M493.131 71.6286C496.771 73.7223 501.242 73.7223 504.872 71.6286L564.536 37.1785C566.121 36.2688 566.944 34.7028 566.983 33.0984V19.4006C566.944 21.005 566.121 22.5704 564.536 23.4807L560.016 26.0929L504.872 57.9308C501.242 60.0245 496.771 60.0245 493.131 57.9308V71.6286Z" stroke="#141BEB" stroke-width="1.48605" stroke-linecap="round" stroke-linejoin="round"/>
<path d="M461.453 44.3046V49.046" stroke="#141BEB" stroke-width="1.48605" stroke-linecap="round" stroke-linejoin="round"/>
<path d="M457.486 42.01V46.7514" stroke="#141BEB" stroke-width="1.48605" stroke-linecap="round" stroke-linejoin="round"/>
<path d="M453.516 39.7178V44.4592" stroke="#141BEB" stroke-width="1.48605" stroke-linecap="round" stroke-linejoin="round"/>
<path d="M449.542 37.4264V42.1678" stroke="#141BEB" stroke-width="1.48605" stroke-linecap="round" stroke-linejoin="round"/>
<path d="M445.58 35.1382V39.8796" stroke="#141BEB" stroke-width="1.48605" stroke-linecap="round" stroke-linejoin="round"/>
<path d="M504.87 57.9319V71.6297" stroke="#141BEB" stroke-width="1.48605"/>
<path d="M557.312 34.5927C557.312 35.6045 557.928 36.0689 558.686 35.631C559.445 35.1931 560.06 34.0182 560.06 33.0064C560.06 31.9951 559.445 31.5307 558.686 31.9686C557.928 32.4065 557.312 33.5809 557.312 34.5927Z" fill="#141BEB"/>
<path d="M551.401 38.0076C551.401 39.0194 552.016 39.4839 552.775 39.0459C553.534 38.608 554.148 37.4331 554.148 36.4213C554.148 35.41 553.534 34.9456 552.775 35.3835C552.016 35.8214 551.401 36.9963 551.401 38.0076Z" fill="#141BEB"/>
<path d="M545.497 41.4185C545.497 42.4298 546.112 42.8948 546.871 42.4568C547.63 42.0189 548.244 40.844 548.244 39.8322C548.244 38.8209 547.63 38.3565 546.871 38.7944C546.112 39.2323 545.497 40.4067 545.497 41.4185Z" fill="#141BEB"/>
<path d="M765.396 22.8749L721.152 48.4962L765.396 22.8749Z" fill="#141BEB"/>
<path d="M765.396 22.8749L721.152 48.4962" stroke="#141BEB" stroke-width="1.48605" stroke-linecap="round" stroke-linejoin="round"/>
<path d="M786.578 35.217L742.677 60.6397L786.578 35.217Z" fill="#141BEB"/>
<path d="M786.578 35.217L742.677 60.6397" stroke="#141BEB" stroke-width="1.48605" stroke-linecap="round" stroke-linejoin="round"/>
<path d="M807.413 47.8311L763.374 73.3339L807.413 47.8311Z" fill="#141BEB"/>
<path d="M807.413 47.8311L763.374 73.3339" stroke="#141BEB" stroke-width="1.48605" stroke-linecap="round" stroke-linejoin="round"/>
<path d="M779.489 82.7659L826.903 59.4905L779.489 82.7659Z" fill="#141BEB"/>
<path d="M779.489 82.7659L826.903 59.4905" stroke="#141BEB" stroke-width="1.48605" stroke-linecap="round" stroke-linejoin="round"/>
<path d="M790.352 92.2274L846.598 76.8419L790.352 92.2274Z" fill="#141BEB"/>
<path d="M790.352 92.2274L846.598 76.8419" stroke="#141BEB" stroke-width="1.48605" stroke-linecap="round" stroke-linejoin="round"/>
<path d="M851.149 100.25L789.293 100.365L851.149 100.25Z" fill="white"/>
<path d="M851.149 100.25L789.293 100.365" stroke="#141BEB" stroke-width="1.48605" stroke-linecap="round" stroke-linejoin="round"/>
<path d="M789.043 101.434L851.55 100.114L789.043 101.434Z" fill="#141BEB"/>
<path d="M789.043 101.434L851.55 100.114" stroke="#141BEB" stroke-width="1.48605" stroke-linecap="round" stroke-linejoin="round"/>
<path d="M839.763 122.684L783.887 107.128L839.763 122.684Z" fill="white"/>
<path d="M839.763 122.684L783.887 107.128" stroke="#141BEB" stroke-width="1.48605" stroke-linecap="round" stroke-linejoin="round"/>
<path d="M706.421 150.093L748.57 176.399L706.421 150.093Z" fill="white"/>
<path d="M706.421 150.093L748.57 176.399" stroke="#141BEB" stroke-width="1.48605" stroke-miterlimit="10"/>
<path d="M687.567 163.162L720.592 193.24L687.567 163.162Z" fill="white"/>
<path d="M687.567 163.162L720.592 193.24" stroke="#141BEB" stroke-width="1.48605" stroke-miterlimit="10"/>
<path d="M669.408 170.317L677.353 204.995L669.408 170.317Z" fill="white"/>
<path d="M669.408 170.317L677.353 204.995" stroke="#141BEB" stroke-width="1.48605" stroke-miterlimit="10"/>
<path d="M629.049 201.32L652.05 169.268" stroke="#141BEB" stroke-width="1.48605" stroke-linecap="round" stroke-linejoin="round"/>
<path d="M598.55 189.982L633.474 159.828" stroke="#141BEB" stroke-width="1.48605" stroke-linecap="round" stroke-linejoin="round"/>
<path d="M571.44 174.051L614.613 149.109" stroke="#141BEB" stroke-width="1.48605" stroke-linecap="round" stroke-linejoin="round"/>
<path d="M550.243 161.356L593.416 136.414" stroke="#141BEB" stroke-width="1.48605" stroke-linecap="round" stroke-linejoin="round"/>
<path d="M690.478 168.093C695.44 175.509 704.249 182.659 706.662 186.074C723.537 181.096 745.168 169.696 750.914 164.32C745.765 161.016 730.071 152.626 724.572 149.673C718.502 154.742 700.11 164.914 690.478 168.093Z" fill="white"/>
<path d="M690.478 168.093C695.44 175.509 704.249 182.659 706.662 186.074C723.537 181.096 745.168 169.696 750.914 164.32C745.765 161.016 730.071 152.626 724.572 149.673C718.502 154.742 700.11 164.914 690.478 168.093Z" stroke="#141BEB" stroke-width="1.48605" stroke-linecap="round" stroke-linejoin="round"/>
<path d="M711.461 181.405L705.69 175.019M703.875 172.939L700.637 169.511M715.378 180.059L711.844 176.614M710.146 174.999L705.756 170.563M708.337 168.8L706.609 167.22M725.173 175.907L719.262 171.066M718.889 178.626L709.888 170.619M722.017 177.22L714.359 170.791M712.661 169.095L708.907 165.944" stroke="#C2C7FB" stroke-width="1.48605" stroke-linecap="round" stroke-linejoin="round"/>
<path d="M798.25 95.081L793.406 119.679L830.077 119.201L833.055 91.9905L798.25 95.081Z" fill="white"/>
<path d="M798.25 95.081L793.406 119.679L830.077 119.201L833.055 91.9905L798.25 95.081Z" stroke="#141BEB" stroke-width="1.48605" stroke-linecap="round" stroke-linejoin="round"/>
<path d="M798.25 88.5075L793.406 113.106L830.077 112.627L833.055 85.417L798.25 88.5075Z" fill="#02EEC4"/>
<path d="M798.25 88.5075L793.406 113.106L830.077 112.627L833.055 85.417L798.25 88.5075Z" stroke="#141BEB" stroke-width="1.48605" stroke-linecap="round" stroke-linejoin="round"/>
<path d="M793.412 113.109L792.351 119.779L796.634 94.953C795.008 94.2081 795.731 89.9418 798.259 88.5084L793.412 113.109Z" fill="#C2C7FB"/>
<path d="M793.412 113.109L792.351 119.779L796.634 94.953C795.008 94.2081 795.731 89.9418 798.259 88.5084L793.412 113.109Z" stroke="#141BEB" stroke-width="1.48605" stroke-linecap="round" stroke-linejoin="round"/>
<path d="M793.415 119.679C790.789 120.977 790.525 114.785 793.786 112.935L829.053 113.225C827.929 114.869 828.114 119.025 829.053 119.797L793.415 119.679Z" fill="white"/>
<path d="M793.415 119.679C790.789 120.977 790.525 114.785 793.786 112.935L829.053 113.225C827.929 114.869 828.114 119.025 829.053 119.797L793.415 119.679Z" stroke="#141BEB" stroke-width="1.48605" stroke-linecap="round" stroke-linejoin="round"/>
<path d="M794.377 115.024L820.415 115.26" stroke="#141BEB" stroke-width="1.48605" stroke-linecap="round" stroke-linejoin="round"/>
<path d="M793.491 117.394L816.563 118.055" stroke="#141BEB" stroke-width="1.48605" stroke-linecap="round" stroke-linejoin="round"/>
<path d="M819.578 118.163L826.764 118.047" stroke="#141BEB" stroke-width="1.48605" stroke-linecap="round" stroke-linejoin="round"/>
<path d="M708.295 29.3884L740.716 48.2032L765.496 33.8396L732.399 15.3074L708.295 29.3884Z" fill="white"/>
<path d="M708.295 29.3884L740.716 48.2032L765.496 33.8396L732.399 15.3074L708.295 29.3884Z" stroke="#141BEB" stroke-width="1.48605" stroke-linecap="round" stroke-linejoin="round"/>
<path d="M708.309 22.7738L740.705 41.6062L765.506 27.269L732.445 8.72021L708.309 22.7738Z" fill="#02EEC4"/>
<path d="M708.309 22.7738L740.705 41.6062L765.506 27.269L732.445 8.72021L708.309 22.7738Z" stroke="#141BEB" stroke-width="1.48605" stroke-linecap="round" stroke-linejoin="round"/>
<path d="M740.696 41.6159L739.646 48.2874L706.669 29.2529C705.043 28.5093 705.759 24.2439 708.283 22.8063L740.696 41.6159Z" fill="#C2C7FB"/>
<path d="M740.695 41.6164L739.645 48.2879L706.67 29.2535C705.044 28.5099 705.758 24.2436 708.283 22.8063L740.695 41.6164Z" stroke="#141BEB" stroke-width="1.48605" stroke-linecap="round" stroke-linejoin="round"/>
<path d="M740.707 48.1777C738.081 49.475 737.815 43.2852 741.076 41.4348L764.474 27.8662C763.349 29.5101 763.537 33.665 764.476 34.437L740.707 48.1777Z" fill="white"/>
<path d="M740.707 48.1777C738.081 49.475 737.815 43.2852 741.076 41.4348L764.474 27.8662C763.349 29.5101 763.537 33.665 764.476 34.437L740.707 48.1777Z" stroke="#141BEB" stroke-width="1.48605" stroke-linecap="round" stroke-linejoin="round"/>
<path d="M741.366 43.4086L761.8 31.7147" stroke="#141BEB" stroke-width="1.48605" stroke-linecap="round" stroke-linejoin="round"/>
<path d="M740.788 45.8915L751.005 40.0452" stroke="#141BEB" stroke-width="1.48605" stroke-linecap="round" stroke-linejoin="round"/>
<path d="M752.643 39.1088L762.11 33.6913" stroke="#141BEB" stroke-width="1.48605" stroke-linecap="round" stroke-linejoin="round"/>
<path d="M761.34 63.7918L793.764 82.661L818.565 68.3239L785.479 49.7351L761.34 63.7918Z" fill="white"/>
<path d="M761.34 63.7918L793.764 82.661L818.565 68.3239L785.479 49.7351L761.34 63.7918Z" stroke="#141BEB" stroke-width="1.48605" stroke-linecap="round" stroke-linejoin="round"/>
<path d="M761.34 57.2222L793.764 76.0914L818.565 61.7543L785.479 43.1655L761.34 57.2222Z" fill="#02EEC4"/>
<path d="M761.34 57.2222L793.764 76.0914L818.565 61.7543L785.479 43.1655L761.34 57.2222Z" stroke="#141BEB" stroke-width="1.48605" stroke-linecap="round" stroke-linejoin="round"/>
<path d="M793.756 76.0903L792.695 82.7606L759.711 63.6639C758.085 62.919 758.808 58.6527 761.336 57.2194L793.756 76.0903Z" fill="#C2C7FB"/>
<path d="M793.756 76.0903L792.695 82.7606L759.711 63.6639C758.085 62.919 758.808 58.6527 761.336 57.2194L793.756 76.0903Z" stroke="#141BEB" stroke-width="1.48605" stroke-linecap="round" stroke-linejoin="round"/>
<path d="M793.762 82.6626C791.135 83.96 790.872 77.7688 794.133 75.9184L817.53 62.3499C816.406 63.9937 816.591 68.15 817.53 68.9219L793.762 82.6626Z" fill="white"/>
<path d="M793.762 82.6626C791.135 83.96 790.872 77.7688 794.133 75.9184L817.53 62.3499C816.406 63.9937 816.591 68.15 817.53 68.9219L793.762 82.6626Z" stroke="#141BEB" stroke-width="1.48605" stroke-linecap="round" stroke-linejoin="round"/>
<path d="M794.416 77.893L814.85 66.1991" stroke="#141BEB" stroke-width="1.48605" stroke-linecap="round" stroke-linejoin="round"/>
<path d="M793.838 80.3791L804.055 74.5327" stroke="#141BEB" stroke-width="1.48605" stroke-linecap="round" stroke-linejoin="round"/>
<path d="M805.692 73.59L815.159 68.1725" stroke="#141BEB" stroke-width="1.48605" stroke-linecap="round" stroke-linejoin="round"/>
<path d="M646.58 173.161C646.58 173.161 635.131 189.514 633.662 191.481C637.747 195.754 678.426 201.247 693.207 192.433C693.207 192.433 681.568 176.407 680.877 173.478C676.355 174.41 660.224 177.51 646.58 173.161Z" fill="white"/>
<path d="M646.58 173.161C646.58 173.161 635.131 189.514 633.662 191.481C637.747 195.754 678.426 201.247 693.207 192.433C693.207 192.433 681.568 176.407 680.877 173.478C676.355 174.41 660.224 177.51 646.58 173.161Z" stroke="#141BEB" stroke-width="1.48605" stroke-linecap="round" stroke-linejoin="round"/>
<path d="M642.081 191.683L647.218 183.869M648.735 181.953L651.659 176.66M645.966 192.427L648.364 188.21M649.603 185.918L652.732 180.647M655.651 180.496L657.152 177.476M656.028 193.777L658.511 187.663M649.405 192.901L654.649 182.504M652.686 193.335L656.579 184.86M657.681 182.899L660.089 177.895" stroke="#C2C7FB" stroke-width="1.48605" stroke-linecap="round" stroke-linejoin="round"/>
<path d="M576.915 167.242C583.077 173.471 615.009 189.217 620.813 188.821C622.898 186.008 633.64 173.484 635.252 170.89C628.591 169.156 604.746 154.917 601.402 153.004C600.164 153.874 580.235 165.289 576.915 167.242Z" fill="white"/>
<path d="M576.915 167.242C583.077 173.471 615.009 189.217 620.813 188.821C622.898 186.008 633.64 173.484 635.252 170.89C628.591 169.156 604.746 154.917 601.402 153.004C600.164 153.874 580.235 165.289 576.915 167.242Z" stroke="#141BEB" stroke-width="1.48605" stroke-linecap="round" stroke-linejoin="round"/>
<path d="M585.87 169.327L593.47 163.89M595.757 162.51L600.599 158.765M589.107 171.007L592.981 168.102M595.025 166.497L599.989 162.918M602.766 163.953L606.639 161.049M597.548 175.266L602.511 171.687M591.736 172.457L601.053 165.393M594.526 173.948L601.934 168.331M603.723 166.974L608.997 162.975" stroke="#C2C7FB" stroke-width="1.48605" stroke-linecap="round" stroke-linejoin="round"/>
<path d="M533.865 141.482L568.822 161.98L593.624 147.643L558.005 127.425L533.865 141.482Z" fill="white"/>
<path d="M533.865 141.482L568.822 161.98L593.624 147.643L558.005 127.425L533.865 141.482Z" stroke="#141BEB" stroke-width="1.48605" stroke-linecap="round" stroke-linejoin="round"/>
<path d="M543.271 142.908L550.957 137.593M553.429 136.135L558.463 132.654M546.344 144.262L550.366 141.569M552.493 140.076L557.64 136.767M560.363 137.948L564.385 135.255M554.565 148.961L559.712 145.653M548.899 145.849L558.577 139.294M551.611 147.486L559.308 142.273M561.165 141.014L566.645 137.303" stroke="#C2C7FB" stroke-width="1.48605" stroke-linecap="round" stroke-linejoin="round"/>
<path d="M691.748 117.248L747.213 85.4359C749.655 84.0352 752.662 84.0583 755.083 85.4962L819.5 123.744C821.881 125.158 821.859 128.612 819.461 129.996L765.608 161.084C762.76 162.729 759.248 162.724 756.404 161.072L691.731 123.525C689.318 122.124 689.328 118.637 691.748 117.248Z" fill="white"/>
<path d="M691.748 117.248L747.213 85.4359C749.655 84.0352 752.662 84.0583 755.083 85.4962L819.5 123.744C821.881 125.158 821.859 128.612 819.461 129.996L765.608 161.084C762.76 162.729 759.248 162.724 756.404 161.072L691.731 123.525C689.318 122.124 689.328 118.637 691.748 117.248Z" stroke="#141BEB" stroke-width="1.48605" stroke-linecap="round" stroke-linejoin="round"/>
<path d="M819.463 173.9L765.61 204.989C762.76 206.631 759.25 206.625 756.406 204.977L755.599 204.509V161.141L756.084 160.887L756.406 161.073C759.25 162.727 762.76 162.727 765.61 161.084L792.996 145.278L819.463 129.996C820.575 129.358 821.178 128.263 821.263 127.14V170.48C821.365 171.795 820.761 173.15 819.463 173.9Z" fill="white"/>
<path d="M819.463 173.9L765.61 204.989C762.76 206.631 759.25 206.625 756.406 204.977L755.599 204.509V161.141L756.084 160.887L756.406 161.073C759.25 162.727 762.76 162.727 765.61 161.084L792.996 145.278L819.463 129.996C820.575 129.358 821.178 128.263 821.263 127.14V170.48C821.365 171.795 820.761 173.15 819.463 173.9Z" stroke="#141BEB" stroke-width="1.48605" stroke-linecap="round" stroke-linejoin="round"/>
<path d="M765.607 161.083V204.987" stroke="#141BEB" stroke-width="1.48605" stroke-linecap="round" stroke-linejoin="round"/>
<path d="M745.164 186.639L749.004 188.581C749.449 188.838 749.874 188.991 750.273 189.059C750.146 189.937 749.759 190.569 749.192 190.896C748.494 191.289 747.538 191.231 746.486 190.623L741.972 188.39L745.164 186.639Z" fill="#C2C7FB"/>
<path d="M745.164 186.639L749.004 188.581C749.449 188.838 749.874 188.991 750.273 189.059C750.146 189.937 749.759 190.569 749.192 190.896C748.494 191.289 747.538 191.231 746.486 190.623L741.972 188.39L745.164 186.639Z" stroke="#141BEB" stroke-width="1.48605" stroke-linecap="round" stroke-linejoin="round"/>
<path d="M697.763 157.186L697.79 139.665C697.791 139.444 697.81 139.24 697.838 139.044C697.296 138.952 696.807 139.023 696.404 139.25C695.71 139.65 695.275 140.497 695.272 141.706L695.244 159.078L697.763 157.186Z" fill="#C2C7FB"/>
<path d="M697.763 157.186L697.79 139.665C697.791 139.444 697.81 139.24 697.838 139.044C697.296 138.952 696.807 139.023 696.404 139.25C695.71 139.65 695.275 140.497 695.272 141.706L695.244 159.078L697.763 157.186Z" stroke="#141BEB" stroke-width="1.48605" stroke-linecap="round" stroke-linejoin="round"/>
<path d="M734.118 192.904C742.754 197.79 751.004 201.85 751.652 202.236L755.6 204.386V161.141L690.812 122.8C690.812 122.8 689.927 122.001 689.927 120.622V123.357V161.846C692.317 160.703 695.279 159.315 695.279 159.315C695.279 159.315 695.207 158.817 695.209 157.977L695.236 141.708C695.24 140.499 695.676 139.651 696.37 139.251C697.067 138.857 698.023 138.917 699.072 139.522L747.665 167.577C748.397 168 749.059 168.726 749.54 169.559C750.021 170.393 750.318 171.328 750.316 172.168L750.288 188.437C750.285 189.646 749.853 190.495 749.159 190.895C748.462 191.288 747.505 191.23 746.453 190.623L742.197 188.453L734.118 192.904Z" fill="#C2C7FB"/>
<path d="M734.118 192.904C742.754 197.79 751.004 201.85 751.652 202.236L755.6 204.386V161.141L690.812 122.8C690.812 122.8 689.927 122.001 689.927 120.622V123.357V161.846C692.317 160.703 695.279 159.315 695.279 159.315C695.279 159.315 695.207 158.817 695.209 157.977L695.236 141.708C695.24 140.499 695.676 139.651 696.37 139.251C697.067 138.857 698.023 138.917 699.072 139.522L747.665 167.577C748.397 168 749.059 168.726 749.54 169.559C750.021 170.393 750.318 171.328 750.316 172.168L750.288 188.437C750.285 189.646 749.853 190.495 749.159 190.895C748.462 191.288 747.505 191.23 746.453 190.623L742.197 188.453L734.118 192.904Z" stroke="#141BEB" stroke-width="1.48605" stroke-linecap="round" stroke-linejoin="round"/>
<path d="M773.262 187.306L813.314 164.181C814.213 163.663 814.942 162.271 814.942 161.072V142.181C814.942 140.983 814.213 140.432 813.314 140.951L773.262 164.075C772.363 164.594 771.635 165.987 771.635 167.185V186.075C771.635 187.273 772.363 187.824 773.262 187.306Z" fill="#141BEB"/>
<path d="M773.262 187.306L813.314 164.181C814.213 163.663 814.942 162.271 814.942 161.072V142.181C814.942 140.983 814.213 140.432 813.314 140.951L773.262 164.075C772.363 164.594 771.635 165.987 771.635 167.185V186.075C771.635 187.273 772.363 187.824 773.262 187.306Z" stroke="#141BEB" stroke-width="1.48605" stroke-linecap="round" stroke-linejoin="round"/>
<path d="M772.404 180.08C772.404 179.542 772.912 178.933 773.312 178.977C774.513 179.11 775.721 177.745 777.991 173.668C780.824 168.58 782.634 170.715 785.231 172.487C787.828 174.258 789.481 168.852 791.29 164.263C793.101 159.674 795.697 156.539 799.79 160.719C803.882 164.899 806.637 164.853 809.512 158.559C811.16 154.952 812.572 154.107 813.478 154.042C814.142 153.994 814.548 154.547 814.548 155.384V161.194C814.548 161.973 814.002 162.918 813.328 163.307L773.623 186.231C772.95 186.62 772.404 186.304 772.404 185.526V180.08Z" fill="#C2C7FB"/>
<path d="M793.524 123.635C791.505 126.556 788.451 129.295 784.351 131.659C768.219 140.974 742.065 140.974 725.932 131.659C721.832 129.295 718.774 126.556 716.755 123.635C718.77 120.71 721.832 117.97 725.932 115.602C742.065 106.287 768.219 106.287 784.351 115.602C788.451 117.97 791.51 120.71 793.524 123.635Z" fill="white"/>
<path d="M793.524 123.635C791.505 126.556 788.451 129.295 784.351 131.659C768.219 140.974 742.065 140.974 725.932 131.659C721.832 129.295 718.774 126.556 716.755 123.635C718.77 120.71 721.832 117.97 725.932 115.602C742.065 106.287 768.219 106.287 784.351 115.602C788.451 117.97 791.51 120.71 793.524 123.635Z" stroke="#223893" stroke-width="1.48605" stroke-linecap="round" stroke-linejoin="round"/>
<path d="M796.452 114.794C796.452 116.513 796.129 118.245 795.488 119.933C795.006 121.188 794.352 122.429 793.522 123.635C791.502 126.556 788.449 129.295 784.349 131.66C768.216 140.974 742.063 140.974 725.93 131.66C721.83 129.295 718.772 126.556 716.753 123.635C715.922 122.429 715.268 121.188 714.791 119.933C714.146 118.245 713.827 116.513 713.827 114.794C713.827 108.691 717.858 102.59 725.93 97.9278C742.063 88.6134 768.216 88.6134 784.349 97.9278C792.417 102.59 796.452 108.691 796.452 114.794Z" fill="white"/>
<path d="M796.452 114.794C796.452 116.513 796.129 118.245 795.488 119.933C795.006 121.188 794.352 122.429 793.522 123.635C791.502 126.556 788.449 129.295 784.349 131.66C768.216 140.974 742.063 140.974 725.93 131.66C721.83 129.295 718.772 126.556 716.753 123.635C715.922 122.429 715.268 121.188 714.791 119.933C714.146 118.245 713.827 116.513 713.827 114.794C713.827 108.691 717.858 102.59 725.93 97.9278C742.063 88.6134 768.216 88.6134 784.349 97.9278C792.417 102.59 796.452 108.691 796.452 114.794Z" stroke="#141BEB" stroke-width="1.48605" stroke-linecap="round" stroke-linejoin="round"/>
<path d="M790.875 114.791C790.875 116.144 790.597 117.502 790.037 118.833C789.833 119.325 789.59 119.811 789.302 120.292C787.654 123.128 784.688 125.805 780.404 128.052C766.452 135.376 743.83 135.376 729.878 128.052C725.593 125.805 722.622 123.128 720.981 120.292C720.692 119.811 720.449 119.325 720.245 118.833C719.685 117.502 719.407 116.144 719.407 114.791C719.407 109.997 722.894 105.198 729.878 101.536C743.83 94.2116 766.452 94.2116 780.404 101.536C787.382 105.198 790.875 109.997 790.875 114.791Z" fill="white"/>
<path d="M790.875 114.791C790.875 116.144 790.597 117.502 790.037 118.833C789.833 119.325 789.59 119.811 789.302 120.292C787.654 123.128 784.688 125.805 780.404 128.052C766.452 135.376 743.83 135.376 729.878 128.052C725.593 125.805 722.622 123.128 720.981 120.292C720.692 119.811 720.449 119.325 720.245 118.833C719.685 117.502 719.407 116.144 719.407 114.791C719.407 109.997 722.894 105.198 729.878 101.536C743.83 94.2116 766.452 94.2116 780.404 101.536C787.382 105.198 790.875 109.997 790.875 114.791Z" stroke="#141BEB" stroke-width="1.48605" stroke-miterlimit="10" stroke-linecap="round"/>
<path d="M789.927 119.083C788.527 121.498 786.729 124.209 783.449 126.238C782.81 126.636 781.967 127.189 781.252 127.564C776.791 129.903 771.076 130.926 765.422 131.797C764.489 131.941 763.543 132.068 762.592 132.171C762.564 132.177 762.535 132.177 762.506 132.177C761.233 132.321 759.947 132.425 758.657 132.482C757.977 132.523 757.297 132.546 756.616 132.557C755.637 132.58 754.657 132.58 753.671 132.557C751.694 132.517 749.723 132.396 747.781 132.177C747.752 132.177 747.729 132.177 747.7 132.171C747.637 132.166 747.568 132.16 747.505 132.148C745.689 131.947 743.897 131.67 742.145 131.319C737.505 130.391 727.728 126.809 727.089 126.406C725.873 125.663 724.714 124.64 723.785 123.79C722.15 122.293 721.242 120.605 720.36 119.083C722.043 116.196 725.063 113.476 729.42 111.188C729.754 111.015 730.088 110.842 730.429 110.681C744.698 103.742 766.989 103.909 780.867 111.188C784.786 113.245 787.627 115.654 789.379 118.219C789.575 118.507 789.76 118.795 789.927 119.083Z" fill="#C2C7FB"/>
<path d="M789.927 119.083C788.527 121.498 786.729 124.209 783.449 126.238C782.81 126.636 781.967 127.189 781.252 127.564C776.791 129.903 771.076 130.926 765.422 131.797C764.489 131.941 763.543 132.068 762.592 132.171C762.564 132.177 762.535 132.177 762.506 132.177C761.233 132.321 759.947 132.425 758.657 132.482C757.977 132.523 757.297 132.546 756.616 132.557C755.637 132.58 754.657 132.58 753.671 132.557C751.694 132.517 749.723 132.396 747.781 132.177C747.752 132.177 747.729 132.177 747.7 132.171C747.637 132.166 747.568 132.16 747.505 132.148C745.689 131.947 743.897 131.67 742.145 131.319C737.505 130.391 727.728 126.809 727.089 126.406C725.873 125.663 724.714 124.64 723.785 123.79C722.15 122.293 721.242 120.605 720.36 119.083C722.043 116.196 725.063 113.476 729.42 111.188C729.754 111.015 730.088 110.842 730.429 110.681C744.698 103.742 766.989 103.909 780.867 111.188C784.786 113.245 787.627 115.654 789.379 118.219C789.575 118.507 789.76 118.795 789.927 119.083Z" stroke="#141BEB" stroke-width="1.48605" stroke-linecap="round" stroke-linejoin="round"/>
<path d="M796.452 114.793V122.197C796.452 123.916 796.129 125.648 795.488 127.336C793.849 131.635 790.141 135.723 784.349 139.063C768.216 148.378 742.063 148.378 725.93 139.063C720.137 135.723 716.422 131.635 714.791 127.336C714.146 125.648 713.827 123.916 713.827 122.197V114.793C713.827 116.512 714.146 118.244 714.791 119.932C715.268 121.187 715.922 122.429 716.753 123.635C718.772 126.556 721.83 129.295 725.93 131.659C742.063 140.974 768.216 140.974 784.349 131.659C788.449 129.295 791.502 126.556 793.522 123.635C794.352 122.429 795.006 121.187 795.488 119.932C796.129 118.244 796.452 116.512 796.452 114.793Z" fill="#C2C7FB"/>
<path d="M796.452 114.793V122.197C796.452 123.916 796.129 125.648 795.488 127.336C793.849 131.635 790.141 135.723 784.349 139.063C768.216 148.378 742.063 148.378 725.93 139.063C720.137 135.723 716.422 131.635 714.791 127.336C714.146 125.648 713.827 123.916 713.827 122.197V114.793C713.827 116.512 714.146 118.244 714.791 119.932C715.268 121.187 715.922 122.429 716.753 123.635C718.772 126.556 721.83 129.295 725.93 131.659C742.063 140.974 768.216 140.974 784.349 131.659C788.449 129.295 791.502 126.556 793.522 123.635C794.352 122.429 795.006 121.187 795.488 119.932C796.129 118.244 796.452 116.512 796.452 114.793Z" stroke="#141BEB" stroke-width="1.48605" stroke-miterlimit="10" stroke-linecap="round"/>
<path d="M787.312 133.568C787.703 133.289 788.085 133.002 788.457 132.709C789.16 132.157 789.811 131.593 790.412 131.025" stroke="#141BEB" stroke-width="1.48605" stroke-linecap="round" stroke-linejoin="round"/>
<path d="M770.109 140.585C774.628 139.707 778.992 138.254 782.838 136.279" stroke="#141BEB" stroke-width="1.48605" stroke-linecap="round" stroke-linejoin="round"/>
<path d="M723.439 131.936C722.499 131.339 722.241 132.462 722.47 133.53C722.788 135.014 723.851 135.93 724.365 135.163C724.868 134.413 724.34 132.573 723.439 131.936Z" fill="#141BEB"/>
<path d="M728.21 134.714C726.932 134.174 726.625 135.586 727.109 136.759C727.688 138.161 729.042 138.649 729.484 137.616C729.871 136.711 729.204 135.192 728.21 134.714Z" fill="#141BEB"/>
<path d="M733.944 136.996C732.37 136.564 732.038 138.148 732.738 139.312C733.554 140.67 735.245 140.775 735.52 139.485C735.723 138.535 734.957 137.325 733.944 136.996Z" fill="#141BEB"/>
<path d="M782.967 125.009C782.967 125.28 783.007 126.289 782.967 126.56C778.069 129.596 769.344 133.545 755.887 133.545C739.288 133.545 732.575 129.444 728.835 127.479C728.12 127.104 727.529 126.615 727.387 125.827C727.347 125.557 727.324 125.28 727.324 125.009C727.324 121.862 730.039 118.716 735.479 116.312C746.342 111.506 763.955 111.506 774.812 116.312C780.247 118.716 782.967 121.862 782.967 125.009Z" fill="#C2C7FB"/>
<path d="M782.967 125.009C782.967 125.28 783.007 126.289 782.967 126.56C778.069 129.596 769.344 133.545 755.887 133.545C739.288 133.545 732.575 129.444 728.835 127.479C728.12 127.104 727.529 126.615 727.387 125.827C727.347 125.557 727.324 125.28 727.324 125.009C727.324 121.862 730.039 118.716 735.479 116.312C746.342 111.506 763.955 111.506 774.812 116.312C780.247 118.716 782.967 121.862 782.967 125.009Z" stroke="#141BEB" stroke-width="1.48605" stroke-linecap="round" stroke-linejoin="round"/>
<path d="M770.995 124.511C770.995 124.834 770.872 125.159 770.624 125.477C770.533 125.594 770.425 125.711 770.297 125.825C769.566 126.503 768.25 127.143 766.349 127.68C760.157 129.43 750.118 129.43 743.927 127.68C742.025 127.143 740.707 126.503 739.978 125.825C739.85 125.711 739.742 125.594 739.652 125.477C739.403 125.159 739.28 124.834 739.28 124.511C739.28 123.365 740.827 122.218 743.927 121.343C750.118 119.593 760.157 119.593 766.349 121.343C769.446 122.218 770.995 123.365 770.995 124.511Z" fill="#C2C7FB"/>
<path d="M770.995 124.511C770.995 124.834 770.872 125.159 770.624 125.477C770.533 125.594 770.425 125.711 770.297 125.825C769.566 126.503 768.25 127.143 766.349 127.68C760.157 129.43 750.118 129.43 743.927 127.68C742.025 127.143 740.707 126.503 739.978 125.825C739.85 125.711 739.742 125.594 739.652 125.477C739.403 125.159 739.28 124.834 739.28 124.511C739.28 123.365 740.827 122.218 743.927 121.343C750.118 119.593 760.157 119.593 766.349 121.343C769.446 122.218 770.995 123.365 770.995 124.511Z" stroke="#141BEB" stroke-width="1.48605" stroke-linecap="round" stroke-linejoin="round"/>
<path d="M756.336 123.824C756.996 124.204 756.996 124.821 756.336 125.202C755.677 125.583 754.608 125.583 753.948 125.202C753.289 124.821 753.289 124.204 753.948 123.824C754.608 123.443 755.677 123.443 756.336 123.824Z" fill="#141BEB"/>
<path d="M755.115 70.8497C735.344 70.8497 719.168 87.026 719.168 106.797V114.867C721.369 129.172 741.91 133.574 755.115 133.574C768.32 133.574 789.229 128.439 791.063 114.867V106.797C791.063 87.026 774.886 70.8497 755.115 70.8497Z" fill="url(#paint0_linear_1461_14075)"/>
<path d="M755.115 70.8497C735.344 70.8497 719.168 87.026 719.168 106.797V114.867C721.369 129.172 741.91 133.574 755.115 133.574C768.32 133.574 789.229 128.439 791.063 114.867V106.797C791.063 87.026 774.886 70.8497 755.115 70.8497Z" stroke="#141BEB" stroke-width="1.48605" stroke-linecap="round" stroke-linejoin="round"/>
<path d="M772.652 119.917L769.142 122.815C764.196 126.905 754.306 122.506 747.061 112.995C739.81 103.478 737.946 92.4509 742.896 88.3606L746.402 85.4566C745.798 85.9541 745.296 86.5587 744.894 87.2471C744.315 88.2322 743.94 89.3967 743.76 90.6947C743.03 95.9436 745.467 103.392 750.567 110.091C755.5 116.571 761.657 120.672 766.641 121.345C768.092 121.544 769.448 121.447 770.643 121.035C771.38 120.783 772.053 120.414 772.652 119.917Z" fill="#C2C7FB"/>
<path d="M772.652 119.917L769.142 122.815C764.196 126.905 754.306 122.506 747.061 112.995C739.81 103.478 737.946 92.4509 742.896 88.3606L746.402 85.4566C745.798 85.9541 745.296 86.5587 744.894 87.2471C744.315 88.2322 743.94 89.3967 743.76 90.6947C743.03 95.9436 745.467 103.392 750.567 110.091C755.5 116.571 761.657 120.672 766.641 121.345C768.092 121.544 769.448 121.447 770.643 121.035C771.38 120.783 772.053 120.414 772.652 119.917Z" stroke="#141BEB" stroke-width="1.48605" stroke-miterlimit="10"/>
<path d="M774.245 119.524L770.939 122.579C766.283 126.889 756.241 122.904 748.52 113.683C740.793 104.457 738.31 93.4868 742.971 89.176L746.271 86.1158C745.702 86.6403 745.241 87.2675 744.882 87.9747C744.367 88.9865 744.063 90.1696 743.96 91.478C743.542 96.7692 746.386 104.129 751.821 110.623C757.078 116.906 763.408 120.752 768.379 121.212C769.827 121.35 771.163 121.195 772.322 120.731C773.036 120.447 773.681 120.048 774.245 119.524Z" fill="white"/>
<path d="M774.245 119.524L770.939 122.579C766.283 126.889 756.241 122.904 748.52 113.683C740.793 104.457 738.31 93.4868 742.971 89.176L746.271 86.1158C745.702 86.6403 745.241 87.2675 744.882 87.9747C744.367 88.9865 744.063 90.1696 743.96 91.478C743.542 96.7692 746.386 104.129 751.821 110.623C757.078 116.906 763.408 120.752 768.379 121.212C769.827 121.35 771.163 121.195 772.322 120.731C773.036 120.447 773.681 120.048 774.245 119.524Z" stroke="#141BEB" stroke-width="1.45345" stroke-miterlimit="10"/>
<path d="M774.234 119.525C773.67 120.049 773.025 120.448 772.311 120.732C771.152 121.196 769.816 121.351 768.368 121.213C763.397 120.752 757.066 116.907 751.809 110.624C746.374 104.13 743.53 96.7704 743.948 91.4794C744.051 90.171 744.355 88.9879 744.87 87.9761C745.228 87.269 745.69 86.6417 746.259 86.1173C750.92 81.8066 760.957 85.7914 768.684 95.0179C776.406 104.239 778.889 115.214 774.234 119.525Z" fill="#00EDBE"/>
<path d="M774.234 119.525C773.67 120.049 773.025 120.448 772.311 120.732C771.152 121.196 769.816 121.351 768.368 121.213C763.397 120.752 757.066 116.907 751.809 110.624C746.374 104.13 743.53 96.7704 743.948 91.4794C744.051 90.171 744.355 88.9879 744.87 87.9761C745.228 87.269 745.69 86.6417 746.259 86.1173C750.92 81.8066 760.957 85.7914 768.684 95.0179C776.406 104.239 778.889 115.214 774.234 119.525Z" fill="#00EDBE" stroke="#141BEB" stroke-width="1.9171" stroke-miterlimit="10"/>
<path d="M764.328 97.6925C763.918 97.0581 763.731 96.4149 763.79 95.8445L751.71 96.549C751.602 96.555 751.505 96.5793 751.425 96.6205C751.346 96.6616 751.285 96.7189 751.246 96.789C751.207 96.8591 751.192 96.9407 751.2 97.0291C751.208 97.1174 751.24 97.2109 751.294 97.304L752.585 99.5257C752.64 99.6188 752.715 99.7097 752.807 99.7932C752.899 99.8767 753.005 99.9511 753.12 100.012C753.235 100.073 753.356 100.12 753.477 100.15C753.598 100.179 753.715 100.191 753.824 100.184L765.904 99.4796C765.207 98.9533 764.658 98.3311 764.328 97.6921" fill="#141BEB"/>
<path d="M752.864 103.338C753.273 103.972 753.46 104.615 753.399 105.186L765.48 104.481C765.588 104.475 765.685 104.451 765.765 104.41C765.844 104.368 765.905 104.311 765.944 104.241C765.982 104.171 765.998 104.089 765.99 104.001C765.982 103.913 765.95 103.819 765.896 103.726L764.605 101.504C764.55 101.411 764.475 101.32 764.383 101.237C764.291 101.153 764.185 101.079 764.07 101.018C763.955 100.957 763.834 100.91 763.713 100.88C763.592 100.851 763.474 100.839 763.366 100.846L751.286 101.55C751.983 102.077 752.532 102.699 752.862 103.338" fill="#141BEB"/>
<path d="M769.926 107.341C769.516 106.707 769.329 106.063 769.388 105.493L757.308 106.197C757.199 106.203 757.103 106.228 757.023 106.269C756.943 106.31 756.882 106.367 756.844 106.437C756.805 106.508 756.789 106.589 756.798 106.678C756.806 106.766 756.838 106.859 756.891 106.952L758.183 109.174C758.237 109.267 758.313 109.358 758.404 109.442C758.496 109.525 758.603 109.6 758.718 109.661C758.833 109.722 758.954 109.768 759.075 109.798C759.195 109.827 759.313 109.839 759.421 109.833L771.501 109.128C770.804 108.602 770.256 107.98 769.926 107.34" fill="#141BEB"/>
<path d="M755.103 70.8497C735.332 70.8497 719.155 87.026 719.155 106.797V114.867C721.356 129.172 741.897 133.574 755.103 133.574C768.308 133.574 789.216 128.439 791.05 114.867V106.797C791.05 87.026 774.874 70.8497 755.103 70.8497Z" fill="url(#paint1_linear_1461_14075)"/>
<path d="M755.103 70.8497C735.332 70.8497 719.155 87.026 719.155 106.797V114.867C721.356 129.172 741.897 133.574 755.103 133.574C768.308 133.574 789.216 128.439 791.05 114.867V106.797C791.05 87.026 774.874 70.8497 755.103 70.8497Z" stroke="#141BEB" stroke-width="1.48605" stroke-linecap="round" stroke-linejoin="round"/>
<path d="M734.056 89.317C736.012 85.5861 741.976 81.498 745.795 80.9208" stroke="white" stroke-width="1.48605" stroke-linecap="round" stroke-linejoin="round"/>
<path d="M752.949 79.338C753.68 79.0673 754.546 79.0871 754.995 79.2537" stroke="white" stroke-width="1.48605" stroke-linecap="round" stroke-linejoin="round"/>
<g style="mix-blend-mode:multiply">
<path d="M812.901 123.725C808.406 121.13 801.144 121.131 796.679 123.725C792.214 126.32 792.238 130.527 796.732 133.122C801.226 135.716 808.489 135.716 812.954 133.121C817.419 130.527 817.395 126.32 812.901 123.725Z" fill="#C2C7FB"/>
</g>
</g>
<rect x="0.5" y="0.5" width="879" height="205" rx="15.5" stroke="#DDDDEB"/>
<defs>
<linearGradient id="paint0_linear_1461_14075" x1="755.228" y1="72.2242" x2="755.678" y2="132.087" gradientUnits="userSpaceOnUse">
<stop stop-color="#BABFF8" stop-opacity="0.4"/>
<stop offset="0.5" stop-color="#7780F3" stop-opacity="0.6"/>
<stop offset="1" stop-color="#3440EE" stop-opacity="0.8"/>
</linearGradient>
<linearGradient id="paint1_linear_1461_14075" x1="755.216" y1="72.2242" x2="755.665" y2="132.087" gradientUnits="userSpaceOnUse">
<stop stop-color="#02EEC4"/>
<stop offset="0.5" stop-color="#BDF4E9" stop-opacity="0.33"/>
<stop offset="1" stop-color="#3440EE" stop-opacity="0.8"/>
</linearGradient>
<clipPath id="clip0_1461_14075">
<rect width="880" height="206" rx="16" fill="white"/>
</clipPath>
</defs>
</svg>
