<svg width="330" height="548" viewBox="0 0 330 548" fill="none" xmlns="http://www.w3.org/2000/svg">
<g clip-path="url(#clip0_1297_8448)">
<rect width="330" height="548" rx="15" fill="#00EDBE"/>
<path d="M340.407 452.845L362.091 464.607L337.696 479.099L336.653 479.729L314.969 467.967L340.407 452.845ZM336.862 474.478L352.709 465.237L339.781 458.306L323.935 467.547L336.862 474.478Z" fill="white"/>
<path d="M336.397 480.333C336.188 480.333 336.188 480.333 335.979 480.125L314.261 468.459C313.844 468.25 313.635 467.626 313.844 467.209C313.844 467.001 314.053 467.001 314.261 466.792L339.946 451.793C340.155 451.585 340.573 451.585 340.782 451.793L362.499 463.459C362.917 463.667 363.126 464.292 362.917 464.709C362.917 464.917 362.708 464.917 362.499 465.126L336.814 480.125C336.814 480.333 336.605 480.333 336.397 480.333ZM316.558 467.626L336.397 478.25L360.202 464.501L340.364 453.876L316.558 467.626ZM336.814 475.125C336.605 475.125 336.605 475.125 336.397 474.917L323.45 468.042C323.032 467.834 322.823 467.209 323.032 466.792C323.032 466.584 323.241 466.584 323.45 466.376L339.32 457.209C339.529 457.001 339.947 457.001 340.155 457.209L353.102 464.084C353.52 464.292 353.729 464.917 353.52 465.334C353.52 465.542 353.311 465.542 353.102 465.751L337.232 474.917C337.232 475.125 337.023 475.125 336.814 475.125ZM325.955 467.209L337.023 473.042L351.014 464.917L339.946 459.084L325.955 467.209Z" fill="black"/>
<path d="M314.668 447.059L314.877 467.344L340.344 452.497L340.135 432.002L314.668 447.059ZM336.586 450.405L319.052 460.652V448.942L336.586 438.904V450.405Z" fill="white"/>
<path d="M314.806 468.554C314.389 468.554 313.971 468.135 313.971 467.717L313.762 447.424C313.762 447.006 313.971 446.797 314.18 446.587L339.88 431.525C340.298 431.315 340.925 431.315 341.134 431.943C341.134 432.152 341.343 432.152 341.343 432.361L341.552 452.863C341.552 453.282 341.343 453.491 341.134 453.7L315.642 468.554C315.224 468.554 315.015 468.554 314.806 468.554ZM315.433 447.843L315.642 466.043L339.254 452.236L339.045 433.826L315.433 447.843ZM318.985 461.859C318.568 461.859 318.15 461.441 318.15 461.022V449.307C318.15 448.889 318.359 448.679 318.568 448.47L336.119 438.428C336.537 438.219 337.164 438.219 337.373 438.847C337.373 439.056 337.582 439.056 337.582 439.265L337.791 450.771C337.791 451.19 337.582 451.399 337.373 451.608L319.821 461.859C319.194 461.859 318.985 461.859 318.985 461.859ZM319.612 449.725V459.349L335.284 450.144L335.075 440.939L319.612 449.725Z" fill="black"/>
<path d="M340.106 432.002L361.791 443.764L337.395 458.256L336.353 458.887L314.668 447.125L340.106 432.002ZM336.77 453.636L352.617 444.394L339.689 437.463L323.842 446.705L336.77 453.636Z" fill="white"/>
<path d="M336.397 460.095C336.188 460.095 336.188 460.095 335.979 459.884L314.261 448.095C313.844 447.885 313.635 447.253 313.844 446.832C313.844 446.622 314.053 446.622 314.261 446.411L339.946 431.254C340.155 431.044 340.573 431.044 340.782 431.254L362.499 443.043C362.917 443.253 363.126 443.885 362.917 444.306C362.917 444.517 362.708 444.517 362.499 444.727L336.814 459.884C336.605 460.095 336.605 460.095 336.397 460.095ZM316.558 447.253L336.397 457.99L360.202 444.096L340.364 433.359L316.558 447.253ZM336.814 454.832C336.605 454.832 336.605 454.832 336.397 454.621L323.45 447.674C323.032 447.464 322.823 446.832 323.032 446.411C323.032 446.201 323.241 446.201 323.45 445.99L339.32 436.727C339.529 436.517 339.947 436.517 340.155 436.727L353.102 443.675C353.52 443.885 353.729 444.517 353.52 444.938C353.52 445.148 353.311 445.148 353.102 445.359L337.232 454.621C337.023 454.621 337.023 454.832 336.814 454.832ZM325.747 446.832L336.814 452.727L350.805 444.517L339.738 438.622L325.747 446.832Z" fill="black"/>
<path d="M314.894 467.646L336.718 479.408L312.166 493.9L311.117 494.53L289.293 482.768L314.894 467.646ZM311.536 489.279L327.485 480.038L314.474 473.107L298.526 482.348L311.536 489.279Z" fill="white"/>
<path d="M311.022 495.437C310.813 495.437 310.813 495.437 310.604 495.227L288.886 483.438C288.469 483.227 288.26 482.596 288.469 482.175C288.469 481.964 288.678 481.964 288.886 481.754L314.571 466.596C314.78 466.386 315.198 466.386 315.407 466.596L337.124 478.385C337.542 478.596 337.751 479.227 337.542 479.648C337.542 479.859 337.333 479.859 337.124 480.069L311.439 495.227C311.23 495.437 311.23 495.437 311.022 495.437ZM291.183 482.596L311.022 493.332L334.827 479.438L314.989 468.702L291.183 482.596ZM311.439 490.174C311.23 490.174 311.23 490.174 311.022 489.964L298.074 483.017C297.657 482.806 297.448 482.175 297.657 481.754C297.657 481.543 297.866 481.543 298.074 481.332L313.945 472.07C314.154 471.859 314.571 471.859 314.78 472.07L327.727 479.017C328.145 479.227 328.354 479.859 328.145 480.28C328.145 480.49 327.936 480.49 327.727 480.701L311.857 489.964C311.857 490.174 311.648 490.174 311.439 490.174ZM300.372 482.175L311.439 488.069L325.43 479.859L314.363 473.964L300.372 482.175Z" fill="black"/>
<path d="M289.293 462.162L289.502 482.447L314.969 467.6L314.76 447.105L289.293 462.162ZM311.42 465.508L293.885 475.756V464.045L311.42 454.007V465.508Z" fill="white"/>
<path d="M289.443 483.354C289.02 483.354 288.598 482.935 288.598 482.517L288.387 462.231C288.387 461.813 288.598 461.604 288.809 461.394L314.789 446.337C315.212 446.127 315.845 446.127 316.057 446.546C316.057 446.755 316.268 446.755 316.268 446.964L316.479 467.459C316.479 467.878 316.268 468.087 316.057 468.296L290.288 483.144C289.654 483.354 289.654 483.354 289.443 483.354ZM290.077 462.649L290.288 480.844L314.156 467.041V448.637L290.077 462.649ZM293.456 476.661C293.034 476.661 292.611 476.243 292.611 475.825V464.113C292.611 463.695 292.822 463.486 293.034 463.277L310.776 453.238C311.198 453.029 311.832 453.238 312.044 453.656C312.044 453.865 312.255 453.865 312.255 454.075L312.466 465.577C312.466 465.995 312.255 466.204 312.044 466.414L294.301 476.661C293.879 476.661 293.667 476.661 293.456 476.661ZM294.301 464.531V474.152L310.143 464.95L309.931 455.748L294.301 464.531Z" fill="black"/>
<path d="M314.894 447.105L336.718 458.735L312.166 473.064L311.117 473.687L289.293 462.058L314.894 447.105ZM311.536 468.496L327.485 459.358L314.474 452.505L298.526 461.643L311.536 468.496Z" fill="white"/>
<path d="M311.022 474.895C310.813 474.895 310.813 474.895 310.604 474.684L288.886 462.895C288.469 462.685 288.26 462.053 288.469 461.632C288.469 461.422 288.678 461.422 288.886 461.211L314.571 446.054C314.78 445.843 315.198 445.843 315.407 446.054L337.124 457.843C337.542 458.053 337.751 458.685 337.542 459.106C337.542 459.316 337.333 459.316 337.124 459.527L311.439 474.684C311.23 474.895 311.022 474.895 311.022 474.895ZM290.975 462.053L310.813 472.789L334.618 458.895L314.78 448.159L290.975 462.053ZM311.439 469.632C311.23 469.632 311.23 469.632 311.022 469.421L298.074 462.474C297.657 462.264 297.448 461.632 297.657 461.211C297.657 461.001 297.866 461.001 298.074 460.79L313.945 451.527C314.154 451.317 314.571 451.317 314.78 451.527L327.727 458.474C328.145 458.685 328.354 459.316 328.145 459.737C328.145 459.948 327.936 459.948 327.727 460.158L311.857 469.421C311.648 469.421 311.439 469.632 311.439 469.632ZM300.372 461.632L311.439 467.527L325.43 459.316L314.363 453.422L300.372 461.632Z" fill="black"/>
<path d="M311.043 473.64L311.252 493.926L336.719 479.078L336.51 458.583L311.043 473.64ZM332.753 477.196L315.218 487.443V475.732L332.753 465.694V477.196Z" fill="white"/>
<path d="M311.193 495.134C310.982 495.134 310.77 495.134 310.77 494.924C310.559 494.714 310.348 494.505 310.348 494.085L310.137 473.742C310.137 473.322 310.348 473.113 310.559 472.903L336.539 457.803C336.962 457.593 337.595 457.593 337.807 458.222C337.807 458.432 338.018 458.432 338.018 458.642L338.229 479.195C338.229 479.614 338.018 479.824 337.807 480.034L312.038 494.924C311.615 495.134 311.404 495.134 311.193 495.134ZM311.827 474.371L312.038 492.617L335.905 478.775L335.694 460.319L311.827 474.371ZM315.206 488.423C314.784 488.423 314.361 488.003 314.361 487.584V475.839C314.361 475.42 314.572 475.21 314.783 475L332.526 464.933C332.948 464.724 333.582 464.933 333.793 465.353C333.793 465.563 334.005 465.563 334.005 465.772L334.216 477.307C334.216 477.727 334.004 477.936 333.793 478.146L316.051 488.423C315.417 488.423 315.417 488.423 315.206 488.423ZM316.051 476.258V485.906L331.893 476.678L331.681 467.45L316.051 476.258Z" fill="black"/>
<path d="M289.662 482.448L311.347 494.21L286.952 508.702L285.909 509.332L264.225 497.57L289.662 482.448ZM286.118 504.081L301.964 494.84L289.037 487.909L273.19 497.15L286.118 504.081Z" fill="white"/>
<path d="M285.646 510.238C285.438 510.238 285.438 510.238 285.229 510.028L263.511 498.239C263.094 498.028 262.885 497.397 263.094 496.976C263.094 496.765 263.302 496.765 263.511 496.555L289.197 481.398C289.405 481.187 289.823 481.187 290.032 481.398L311.749 493.187C312.167 493.397 312.376 494.029 312.167 494.45C312.167 494.66 311.958 494.66 311.749 494.871L286.064 510.028C286.064 510.238 285.855 510.238 285.646 510.238ZM265.808 497.397L285.646 508.133L309.452 494.239L289.614 483.503L265.808 497.397ZM286.064 504.975C285.855 504.975 285.855 504.975 285.646 504.765L272.699 497.818C272.282 497.607 272.073 496.976 272.282 496.555C272.282 496.344 272.491 496.344 272.699 496.134L288.57 486.871C288.779 486.661 289.196 486.661 289.405 486.871L302.352 493.818C302.77 494.029 302.979 494.66 302.77 495.081C302.77 495.292 302.561 495.292 302.352 495.502L286.482 504.765C286.482 504.975 286.273 504.975 286.064 504.975ZM275.205 496.976L286.273 502.87L300.264 494.66L289.197 488.766L275.205 496.976Z" fill="black"/>
<path d="M263.918 476.962L264.127 497.247L289.594 482.399L289.385 461.905L263.918 476.962ZM285.836 480.308L268.302 490.555V478.844L285.836 468.806V480.308Z" fill="white"/>
<path d="M264.056 498.155C263.639 498.155 263.221 497.737 263.221 497.319L263.012 477.026C263.012 476.607 263.221 476.398 263.43 476.189L289.131 461.126C289.548 460.917 290.175 460.917 290.384 461.545C290.384 461.754 290.593 461.754 290.593 461.963L290.802 482.465C290.802 482.883 290.593 483.093 290.384 483.302L264.892 498.155C264.474 498.155 264.265 498.155 264.056 498.155ZM264.683 477.444L264.892 495.645L288.504 481.837L288.295 463.427L264.683 477.444ZM268.235 491.461C267.818 491.461 267.4 491.042 267.4 490.624V478.909C267.4 478.49 267.608 478.281 267.817 478.072L285.369 468.03C285.787 467.821 286.414 468.03 286.623 468.448C286.623 468.657 286.832 468.657 286.832 468.867L287.041 480.373C287.041 480.791 286.832 481.001 286.623 481.21L269.071 491.461C268.444 491.461 268.235 491.461 268.235 491.461ZM269.071 479.327V488.95L284.743 479.745L284.534 470.54L269.071 479.327Z" fill="black"/>
<path d="M289.356 461.905L311.041 473.535L286.645 487.864L285.603 488.487L263.918 476.858L289.356 461.905ZM286.02 483.295L301.866 474.158L288.939 467.305L273.092 476.442L286.02 483.295Z" fill="white"/>
<path d="M285.646 489.698C285.438 489.698 285.438 489.698 285.229 489.487L263.511 477.698C263.094 477.488 262.885 476.856 263.094 476.435C263.094 476.225 263.302 476.225 263.511 476.014L289.197 460.857C289.405 460.647 289.823 460.647 290.032 460.857L311.749 472.646C312.167 472.857 312.376 473.488 312.167 473.909C312.167 474.12 311.958 474.12 311.749 474.33L286.064 489.487C285.855 489.698 285.855 489.698 285.646 489.698ZM265.808 476.856L285.646 487.593L309.452 473.699L289.614 462.962L265.808 476.856ZM286.064 484.435C285.855 484.435 285.855 484.435 285.646 484.224L272.699 477.277C272.282 477.067 272.073 476.435 272.282 476.014C272.282 475.804 272.491 475.804 272.699 475.593L288.57 466.331C288.779 466.12 289.196 466.12 289.405 466.331L302.352 473.278C302.77 473.488 302.979 474.12 302.77 474.541C302.77 474.751 302.561 474.751 302.352 474.962L286.482 484.224C286.482 484.435 286.273 484.435 286.064 484.435ZM274.996 476.435L286.064 482.33L300.055 474.12L288.988 468.225L274.996 476.435Z" fill="black"/>
<path d="M285.668 488.615L285.877 508.726L311.344 494.006L311.135 473.687L285.668 488.615ZM307.586 492.14L290.052 502.299V490.688L307.586 480.736V492.14Z" fill="white"/>
<path d="M285.806 509.937C285.598 509.937 285.388 509.937 285.388 509.727C285.179 509.517 284.971 509.308 284.971 508.888L284.762 488.545C284.762 488.126 284.971 487.916 285.18 487.706L310.881 472.606C311.298 472.396 311.925 472.396 312.134 473.025C312.134 473.235 312.343 473.235 312.343 473.445L312.552 493.998C312.552 494.417 312.343 494.627 312.134 494.837L286.642 509.727C286.224 509.937 286.015 509.937 285.806 509.937ZM286.433 489.174L286.642 507.42L310.254 493.578L310.045 475.123L286.433 489.174ZM289.776 503.435C289.358 503.435 288.941 503.016 288.941 502.597V490.852C288.941 490.433 289.15 490.223 289.359 490.013L306.91 479.946C307.328 479.737 307.955 479.946 308.164 480.366C308.164 480.575 308.373 480.575 308.373 480.785L308.582 492.32C308.582 492.74 308.373 492.949 308.164 493.159L290.612 503.435C290.194 503.226 289.985 503.435 289.776 503.435ZM290.612 491.271V500.919L306.284 491.691L306.075 482.463L290.612 491.271Z" fill="black"/>
<path d="M263.681 497.853L285.366 509.482L260.971 523.812L259.928 524.435L238.243 512.805L263.681 497.853ZM260.136 519.243L275.983 510.105L263.056 503.252L247.209 512.39L260.136 519.243Z" fill="white"/>
<path d="M259.672 525.342C259.463 525.342 259.463 525.343 259.254 525.134L237.537 513.468C237.119 513.26 236.91 512.635 237.119 512.218C237.119 512.01 237.328 512.01 237.537 511.801L263.222 496.802C263.431 496.594 263.848 496.594 264.057 496.802L285.775 508.468C286.192 508.677 286.401 509.302 286.192 509.718C286.192 509.927 285.984 509.927 285.775 510.135L260.09 525.134C260.09 525.343 259.881 525.342 259.672 525.342ZM239.834 512.635L259.672 523.259L283.478 509.51L263.639 498.885L239.834 512.635ZM260.09 520.134C259.881 520.134 259.881 520.134 259.672 519.926L246.725 513.051C246.307 512.843 246.098 512.218 246.307 511.801C246.307 511.593 246.516 511.593 246.725 511.385L262.595 502.219C262.804 502.01 263.222 502.01 263.431 502.219L276.378 509.093C276.795 509.302 277.004 509.927 276.795 510.343C276.795 510.552 276.587 510.552 276.378 510.76L260.507 519.926C260.507 520.134 260.298 520.134 260.09 520.134ZM249.231 512.218L260.298 518.051L274.29 509.927L263.222 504.094L249.231 512.218Z" fill="black"/>
<path d="M263.381 477.01L285.066 488.772L260.671 503.264L259.628 503.894L237.943 492.133L263.381 477.01ZM260.045 498.644L275.892 489.402L262.964 482.471L247.118 491.712L260.045 498.644Z" fill="white"/>
<path d="M259.672 504.8C259.463 504.8 259.463 504.8 259.254 504.592L237.537 492.926C237.119 492.718 236.91 492.093 237.119 491.676C237.119 491.468 237.328 491.468 237.537 491.26L263.222 476.26C263.431 476.052 263.848 476.052 264.057 476.26L285.775 487.926C286.192 488.135 286.401 488.76 286.192 489.176C286.192 489.385 285.984 489.385 285.775 489.593L260.09 504.592C259.881 504.8 259.881 504.8 259.672 504.8ZM239.834 492.093L259.672 502.717L283.478 488.968L263.639 478.343L239.834 492.093ZM260.09 499.592C259.881 499.592 259.881 499.592 259.672 499.384L246.725 492.509C246.307 492.301 246.098 491.676 246.307 491.26C246.307 491.051 246.516 491.051 246.725 490.843L262.595 481.677C262.804 481.468 263.222 481.468 263.431 481.677L276.378 488.551C276.795 488.76 277.004 489.385 276.795 489.801C276.795 490.01 276.587 490.01 276.378 490.218L260.507 499.384C260.298 499.384 260.298 499.592 260.09 499.592ZM249.022 491.676L260.09 497.509L274.081 489.385L263.013 483.552L249.022 491.676Z" fill="black"/>
<path d="M259.693 503.848L259.902 524.134L285.369 509.286L285.16 488.792L259.693 503.848ZM281.403 507.404L263.868 517.651V505.94L281.403 495.902V507.404Z" fill="white"/>
<path d="M259.832 525.039C259.414 525.039 258.996 524.624 258.996 524.209L258.787 504.081C258.787 503.666 258.996 503.458 259.205 503.251L284.906 488.311C285.324 488.103 285.951 488.103 286.16 488.726C286.16 488.933 286.369 488.933 286.369 489.141L286.577 509.476C286.577 509.891 286.369 510.099 286.16 510.306L260.668 525.039C260.25 525.039 260.041 525.039 259.832 525.039ZM260.459 504.496L260.668 522.549L284.279 508.854L284.07 490.593L260.459 504.496ZM263.802 518.399C263.384 518.399 262.966 517.984 262.966 517.569V505.948C262.966 505.533 263.175 505.326 263.384 505.118L280.936 495.158C281.354 494.951 281.981 495.158 282.19 495.573C282.19 495.781 282.398 495.781 282.398 495.988L282.608 507.401C282.608 507.816 282.398 508.024 282.19 508.231L264.638 518.399C264.22 518.399 264.011 518.399 263.802 518.399ZM264.638 506.363V515.909L280.309 506.778L280.1 497.648L264.638 506.363Z" fill="black"/>
<path d="M239.819 511.446L261.504 523.208L237.108 537.7L236.066 538.33L214.381 526.568L239.819 511.446ZM236.274 533.079L252.121 523.838L239.193 516.907L223.347 526.148L236.274 533.079Z" fill="white"/>
<path d="M235.81 539.538C235.601 539.538 235.601 539.538 235.392 539.328L213.674 527.539C213.257 527.328 213.048 526.697 213.257 526.276C213.257 526.065 213.466 526.065 213.674 525.855L239.36 510.698C239.568 510.487 239.986 510.487 240.195 510.698L261.913 522.487C262.33 522.697 262.539 523.329 262.33 523.75C262.33 523.96 262.121 523.96 261.913 524.171L236.227 539.328C236.227 539.538 236.018 539.538 235.81 539.538ZM215.971 526.697L235.81 537.433L259.616 523.539L239.777 512.803L215.971 526.697ZM236.227 534.275C236.018 534.275 236.018 534.275 235.81 534.065L222.862 527.118C222.445 526.907 222.236 526.276 222.445 525.855C222.445 525.644 222.654 525.644 222.862 525.434L238.733 516.171C238.942 515.961 239.359 515.961 239.568 516.171L252.515 523.118C252.933 523.329 253.142 523.96 252.933 524.381C252.933 524.592 252.724 524.592 252.515 524.802L236.645 534.065C236.645 534.275 236.436 534.275 236.227 534.275ZM225.16 526.276L236.227 532.17L250.218 523.96L239.151 518.066L225.16 526.276Z" fill="black"/>
<path d="M214.081 506.264L214.29 526.549L239.757 511.701L239.548 491.207L214.081 506.264ZM235.999 509.61L218.465 519.857V508.146L235.999 498.108V509.61Z" fill="white"/>
<path d="M214.22 527.457C213.802 527.457 213.384 527.038 213.384 526.62L213.175 506.334C213.175 505.916 213.384 505.707 213.593 505.497L239.293 490.44C239.711 490.23 240.338 490.23 240.547 490.649C240.547 490.858 240.756 490.858 240.756 491.067L240.965 511.562C240.965 511.981 240.756 512.19 240.547 512.399L215.055 527.248C214.637 527.248 214.428 527.457 214.22 527.457ZM214.846 506.543L215.055 524.738L238.667 510.935L238.458 492.531L214.846 506.543ZM218.19 520.764C217.772 520.764 217.354 520.346 217.354 519.928V508.216C217.354 507.798 217.563 507.589 217.772 507.38L235.323 497.341C235.741 497.132 236.368 497.132 236.577 497.759C236.577 497.969 236.786 497.968 236.786 498.178L236.995 509.68C236.995 510.098 236.786 510.308 236.577 510.517L219.025 520.764C218.608 520.764 218.399 520.764 218.19 520.764ZM219.025 508.634V518.255L234.697 509.053L234.488 499.642L219.025 508.634Z" fill="black"/>
<path d="M239.682 491.207L261.506 502.837L236.954 517.166L235.905 517.789L214.081 506.159L239.682 491.207ZM236.325 512.597L252.273 503.46L239.262 496.607L223.314 505.744L236.325 512.597Z" fill="white"/>
<path d="M235.81 518.998C235.601 518.998 235.601 518.998 235.392 518.787L213.674 506.998C213.257 506.788 213.048 506.156 213.257 505.735C213.257 505.525 213.466 505.525 213.674 505.314L239.36 490.157C239.568 489.946 239.986 489.946 240.195 490.157L261.913 501.946C262.33 502.156 262.539 502.788 262.33 503.209C262.33 503.419 262.121 503.419 261.913 503.63L236.227 518.787C236.018 518.787 235.81 518.998 235.81 518.998ZM215.763 506.156L235.601 516.892L259.406 502.998L239.568 492.262L215.763 506.156ZM236.227 513.524C236.018 513.524 236.018 513.524 235.81 513.314L222.862 506.367C222.445 506.156 222.236 505.525 222.445 505.104C222.445 504.893 222.654 504.893 222.862 504.683L238.733 495.42C238.942 495.209 239.359 495.209 239.568 495.42L252.515 502.367C252.933 502.577 253.142 503.209 252.933 503.63C252.933 503.84 252.724 503.84 252.515 504.051L236.645 513.314C236.436 513.524 236.436 513.524 236.227 513.524ZM225.16 505.735L236.227 511.63L250.218 503.419L239.151 497.525L225.16 505.735Z" fill="black"/>
<path d="M235.831 517.744L236.04 538.029L261.507 523.181L261.298 502.687L235.831 517.744ZM257.541 521.09L240.006 531.337V519.626L257.541 509.588V521.09Z" fill="white"/>
<path d="M235.97 539.236C235.552 539.236 235.134 538.818 235.134 538.4L234.925 518.107C234.925 517.688 235.134 517.479 235.343 517.27L261.043 502.207C261.461 501.998 262.088 501.998 262.297 502.626C262.297 502.835 262.506 502.835 262.506 503.044L262.715 523.546C262.715 523.964 262.506 524.174 262.297 524.383L236.805 539.236C236.387 539.236 236.178 539.236 235.97 539.236ZM236.596 518.525L236.805 536.726L260.416 522.918L260.208 504.508L236.596 518.525ZM239.94 532.542C239.522 532.542 239.104 532.123 239.104 531.705V519.99C239.104 519.571 239.313 519.362 239.522 519.153L257.073 509.111C257.491 508.902 258.118 508.902 258.327 509.529C258.327 509.739 258.536 509.739 258.536 509.948L258.745 521.454C258.745 521.872 258.536 522.082 258.327 522.291L240.775 532.542C240.358 532.542 240.149 532.542 239.94 532.542ZM240.775 520.408V530.031L256.447 520.826L256.237 511.621L240.775 520.408Z" fill="black"/>
<path d="M214.144 526.549L235.829 538.311L211.433 552.803L210.391 553.433L188.706 541.672L214.144 526.549ZM210.599 548.183L226.446 538.941L213.518 532.01L197.672 541.252L210.599 548.183Z" fill="white"/>
<path d="M210.135 554.34C209.926 554.34 209.926 554.34 209.717 554.131L187.999 542.465C187.582 542.257 187.373 541.632 187.582 541.215C187.582 541.007 187.791 541.007 187.999 540.799L213.685 525.799C213.894 525.591 214.311 525.591 214.52 525.799L236.237 537.465C236.655 537.674 236.864 538.299 236.655 538.715C236.655 538.924 236.446 538.924 236.237 539.132L210.552 554.131C210.552 554.131 210.343 554.34 210.135 554.34ZM190.296 541.632L210.135 552.256L233.941 538.507L214.102 527.883L190.296 541.632ZM210.552 549.131C210.344 549.131 210.343 549.131 210.135 548.923L197.188 542.048C196.77 541.84 196.561 541.215 196.77 540.799C196.77 540.59 196.979 540.59 197.188 540.382L213.058 531.216C213.267 531.007 213.685 531.007 213.894 531.216L226.84 538.09C227.258 538.299 227.467 538.924 227.258 539.34C227.258 539.549 227.049 539.549 226.84 539.757L210.97 548.923C210.97 548.923 210.761 549.131 210.552 549.131ZM199.694 541.215L210.761 547.048L224.752 538.924L213.685 533.091L199.694 541.215Z" fill="black"/>
<path d="M188.406 521.065L188.615 541.351L214.082 526.503L213.873 506.009L188.406 521.065ZM210.325 524.621L192.79 534.868V523.157L210.325 513.119V524.621Z" fill="white"/>
<path d="M188.545 542.257C188.127 542.257 187.709 541.838 187.709 541.42L187.5 521.127C187.5 520.709 187.709 520.499 187.918 520.29L213.619 505.227C214.037 505.018 214.664 505.018 214.873 505.646C214.873 505.855 215.081 505.855 215.081 506.064L215.29 526.566C215.29 526.985 215.081 527.194 214.873 527.403L188.963 542.257C188.963 542.257 188.754 542.257 188.545 542.257ZM189.171 521.545L189.38 539.746L212.992 525.939L212.783 507.529L189.171 521.545ZM192.724 535.562C192.306 535.562 191.888 535.144 191.888 534.725V523.01C191.888 522.591 192.097 522.382 192.306 522.173L209.858 512.131C210.276 511.922 210.902 512.131 211.111 512.55C211.111 512.759 211.32 512.759 211.32 512.968L211.529 524.474C211.529 524.893 211.32 525.102 211.111 525.311L193.559 535.562C192.933 535.562 192.724 535.562 192.724 535.562ZM193.559 523.637V533.261L209.231 524.056L209.022 514.851L193.559 523.637Z" fill="black"/>
<path d="M213.844 506.009L235.529 517.77L211.134 532.263L210.091 532.893L188.406 521.131L213.844 506.009ZM210.508 527.642L226.355 518.4L213.427 511.469L197.581 520.711L210.508 527.642Z" fill="white"/>
<path d="M210.135 533.799C209.926 533.799 209.926 533.799 209.717 533.59L187.999 521.924C187.582 521.716 187.373 521.091 187.582 520.674C187.582 520.466 187.791 520.466 187.999 520.258L213.685 505.259C213.894 505.05 214.311 505.05 214.52 505.259L236.237 516.925C236.655 517.133 236.864 517.758 236.655 518.175C236.655 518.383 236.446 518.383 236.237 518.591L210.552 533.59C210.552 533.799 210.343 533.799 210.135 533.799ZM190.296 521.091L210.135 531.716L233.941 517.966L214.102 507.342L190.296 521.091ZM210.552 528.591C210.344 528.591 210.343 528.591 210.135 528.382L197.188 521.508C196.77 521.299 196.561 520.674 196.77 520.258C196.77 520.049 196.979 520.049 197.188 519.841L213.058 510.675C213.267 510.467 213.685 510.467 213.894 510.675L226.84 517.55C227.258 517.758 227.467 518.383 227.258 518.8C227.258 519.008 227.049 519.008 226.84 519.216L210.97 528.382C210.97 528.591 210.761 528.591 210.552 528.591ZM199.485 520.674L210.552 526.507L224.543 518.383L213.476 512.55L199.485 520.674Z" fill="black"/>
<path d="M210.149 532.847L210.358 553.132L235.825 538.284L235.617 517.79L210.149 532.847ZM232.068 536.193L214.533 546.44V534.729L232.068 524.691V536.193Z" fill="white"/>
<path d="M210.295 553.945C209.877 553.945 209.459 553.528 209.459 553.11L209.25 532.868C209.25 532.451 209.459 532.242 209.668 532.034L235.369 517.008C235.787 516.8 236.414 516.8 236.623 517.426C236.623 517.634 236.831 517.634 236.831 517.843L237.04 538.294C237.04 538.711 236.831 538.92 236.623 539.129L211.131 553.945C210.713 553.945 210.504 554.154 210.295 553.945ZM210.922 533.286L211.131 551.441L234.742 537.668L234.533 519.304L210.922 533.286ZM214.265 547.476C213.847 547.476 213.429 547.059 213.429 546.641V534.955C213.429 534.538 213.638 534.329 213.847 534.12L231.399 524.104C231.817 523.895 232.443 523.895 232.652 524.521C232.652 524.73 232.861 524.73 232.861 524.938L233.07 536.416C233.07 536.833 232.861 537.042 232.652 537.251L215.101 547.476C214.683 547.476 214.474 547.476 214.265 547.476ZM215.101 535.372V544.972L230.772 535.79L230.563 526.608L215.101 535.372Z" fill="black"/>
<path d="M188.631 541.351L210.455 553.113L185.903 567.605L184.854 568.235L163.03 556.473L188.631 541.351ZM185.274 562.984L201.222 553.743L188.212 546.812L172.263 556.053L185.274 562.984Z" fill="white"/>
<path d="M184.759 569.445C184.55 569.445 184.55 569.445 184.341 569.234L162.624 557.445C162.206 557.235 161.997 556.603 162.206 556.182C162.206 555.972 162.415 555.972 162.624 555.761L188.309 540.604C188.518 540.393 188.935 540.393 189.144 540.604L210.862 552.393C211.279 552.603 211.488 553.235 211.279 553.656C211.279 553.866 211.071 553.866 210.862 554.077L185.176 569.234C184.968 569.445 184.759 569.445 184.759 569.445ZM164.712 556.603L184.55 567.339L208.356 553.445L188.518 542.709L164.712 556.603ZM185.176 564.182C184.968 564.182 184.968 564.182 184.759 563.971L171.812 557.024C171.394 556.814 171.185 556.182 171.394 555.761C171.394 555.551 171.603 555.551 171.812 555.34L187.682 546.077C187.891 545.867 188.309 545.867 188.518 546.077L201.465 553.024C201.882 553.235 202.091 553.866 201.882 554.287C201.882 554.498 201.674 554.498 201.465 554.708L185.594 563.971C185.385 563.971 185.176 564.182 185.176 564.182ZM174.109 556.182L185.176 562.077L199.168 553.866L188.1 547.972L174.109 556.182Z" fill="black"/>
<path d="M163.03 536.169L163.239 556.454L188.706 541.606L188.497 521.112L163.03 536.169ZM184.949 539.515L167.414 549.762V538.051L184.949 528.013V539.515Z" fill="white"/>
<path d="M163.18 557.06C162.758 557.06 162.335 556.642 162.335 556.223L162.124 535.937C162.124 535.519 162.335 535.31 162.547 535.101L188.527 520.043C188.949 519.834 189.583 519.834 189.794 520.252C189.794 520.461 190.005 520.461 190.005 520.67L190.216 541.166C190.216 541.584 190.005 541.793 189.794 542.002L164.025 556.851C163.391 557.06 163.18 557.06 163.18 557.06ZM163.814 536.355L164.025 554.55L187.893 540.747L187.682 522.343L163.814 536.355ZM167.193 550.577C166.771 550.577 166.348 550.158 166.348 549.74V538.029C166.348 537.61 166.56 537.401 166.771 537.192L184.514 527.154C184.936 526.944 185.57 527.154 185.781 527.572C185.781 527.781 185.992 527.781 185.992 527.99L186.203 539.493C186.203 539.911 185.992 540.12 185.781 540.329L168.038 550.577C167.616 550.368 167.405 550.577 167.193 550.577ZM168.038 538.447V548.067L183.88 538.865L183.669 529.663L168.038 538.447Z" fill="black"/>
<path d="M188.631 521.112L210.455 532.741L185.903 547.071L184.854 547.694L163.03 536.064L188.631 521.112ZM185.064 542.502L201.012 533.364L188.002 526.511L172.054 535.649L185.064 542.502Z" fill="white"/>
<path d="M184.598 548.602C184.388 548.602 184.388 548.602 184.178 548.394L162.327 536.728C161.907 536.519 161.697 535.894 161.907 535.478C161.907 535.269 162.117 535.269 162.327 535.061L188.17 520.062C188.38 519.853 188.8 519.853 189.01 520.062L210.861 531.728C211.281 531.936 211.491 532.561 211.281 532.978C211.281 533.186 211.071 533.186 210.861 533.394L185.018 548.394C185.018 548.602 184.808 548.602 184.598 548.602ZM164.638 535.894L184.598 546.519L208.55 532.769L188.59 522.145L164.638 535.894ZM185.018 543.394C184.808 543.394 184.808 543.394 184.598 543.186L171.571 536.311C171.151 536.103 170.941 535.478 171.151 535.061C171.151 534.853 171.361 534.853 171.571 534.644L187.539 525.478C187.75 525.27 188.17 525.27 188.38 525.478L201.406 532.353C201.826 532.561 202.036 533.186 201.826 533.603C201.826 533.811 201.616 533.811 201.406 534.019L185.438 543.186C185.438 543.394 185.228 543.394 185.018 543.394ZM174.093 535.478L185.228 541.311L199.305 533.186L188.17 527.145L174.093 535.478Z" fill="black"/>
<path d="M184.781 547.647L184.99 567.932L210.457 553.084L210.248 532.59L184.781 547.647ZM206.7 550.993L189.165 561.24V549.529L206.7 539.491V550.993Z" fill="white"/>
<path d="M184.92 569.141C184.502 569.141 184.084 568.723 184.084 568.304L183.875 548.012C183.875 547.593 184.084 547.384 184.293 547.175L209.994 532.112C210.412 531.903 211.038 531.903 211.247 532.53C211.247 532.74 211.456 532.74 211.456 532.949L211.665 553.451C211.665 553.869 211.456 554.078 211.247 554.288L185.756 569.141C185.129 569.141 185.129 569.141 184.92 569.141ZM185.547 548.43L185.756 566.631L209.367 552.823L209.158 534.413L185.547 548.43ZM188.89 562.447C188.472 562.447 188.054 562.028 188.054 561.61V549.894C188.054 549.476 188.263 549.267 188.472 549.058L206.024 539.016C206.441 538.806 207.068 539.016 207.277 539.434C207.277 539.643 207.486 539.643 207.486 539.853L207.695 551.359C207.695 551.777 207.486 551.986 207.277 552.196L189.726 562.447C189.099 562.447 188.89 562.447 188.89 562.447ZM189.726 550.313V559.936L205.397 550.731L205.188 541.526L189.726 550.313Z" fill="black"/>
<path d="M137.05 550.972L137.258 571.257L162.726 556.409L162.517 535.915L137.05 550.972ZM158.968 554.318L141.433 564.565V552.854L158.968 542.816V554.318Z" fill="white"/>
<path d="M137.494 572.463C137.076 572.463 136.658 572.045 136.658 571.626L136.449 551.333C136.449 550.915 136.658 550.706 136.867 550.496L162.568 535.434C162.986 535.225 163.613 535.225 163.822 535.852C163.822 536.061 164.031 536.061 164.031 536.271L164.24 556.773C164.24 557.191 164.031 557.4 163.822 557.609L138.33 572.463C137.703 572.254 137.494 572.463 137.494 572.463ZM138.121 551.543L138.33 569.743L161.941 555.936L161.732 537.526L138.121 551.543ZM141.464 565.768C141.046 565.768 140.628 565.35 140.628 564.932V553.216C140.628 552.798 140.837 552.589 141.046 552.379L158.598 542.337C159.016 542.128 159.643 542.128 159.852 542.756C159.852 542.965 160.061 542.965 160.061 543.174L160.269 554.681C160.269 555.099 160.061 555.308 159.852 555.517L142.3 565.768C141.882 565.768 141.673 565.768 141.464 565.768ZM142.3 553.635V563.258L157.971 554.053L157.762 544.639L142.3 553.635Z" fill="black"/>
<path d="M162.651 535.915L184.475 547.677L159.923 562.169L158.874 562.799L137.05 551.037L162.651 535.915ZM159.083 557.548L175.032 548.307L162.021 541.376L146.073 550.617L159.083 557.548Z" fill="white"/>
<path d="M158.778 564.007C158.57 564.007 158.57 564.007 158.361 563.797L136.643 552.008C136.226 551.797 136.017 551.166 136.225 550.745C136.225 550.534 136.434 550.534 136.643 550.324L162.328 535.166C162.537 534.956 162.955 534.956 163.164 535.166L184.881 546.955C185.299 547.166 185.508 547.797 185.299 548.218C185.299 548.429 185.09 548.429 184.881 548.639L159.196 563.797C159.196 564.007 158.987 564.007 158.778 564.007ZM138.94 551.166L158.778 561.902L182.584 548.008L162.746 537.272L138.94 551.166ZM159.196 558.744C158.987 558.744 158.987 558.744 158.778 558.534L145.832 551.587C145.414 551.376 145.205 550.745 145.414 550.324C145.414 550.113 145.623 550.113 145.832 549.903L161.702 540.64C161.911 540.429 162.329 540.429 162.537 540.64L175.484 547.587C175.902 547.797 176.111 548.429 175.902 548.85C175.902 549.06 175.693 549.06 175.484 549.271L159.614 558.534C159.614 558.534 159.405 558.744 159.196 558.744ZM148.337 550.745L159.405 556.639L173.396 548.429L162.328 542.534L148.337 550.745Z" fill="black"/>
<path d="M158.8 562.752L159.008 583.037L184.476 568.189L184.267 547.695L158.8 562.752ZM180.718 566.307L163.183 576.554V564.843L180.718 554.805V566.307Z" fill="white"/>
<path d="M159.244 584.244C158.826 584.244 158.408 583.826 158.408 583.407L158.199 563.115C158.199 562.696 158.408 562.487 158.617 562.278L184.318 547.215C184.736 547.006 185.363 547.006 185.572 547.633C185.572 547.843 185.781 547.843 185.781 548.052L185.99 568.554C185.99 568.972 185.781 569.181 185.572 569.391L160.08 584.244C159.453 584.244 159.453 584.244 159.244 584.244ZM159.871 563.533L160.08 581.734L183.691 567.926L183.482 549.516L159.871 563.533ZM163.214 577.55C162.796 577.55 162.378 577.131 162.378 576.713V564.997C162.378 564.579 162.587 564.37 162.796 564.161L180.348 554.119C180.766 553.91 181.393 554.119 181.602 554.537C181.602 554.746 181.811 554.746 181.811 554.956L182.019 566.462C182.019 566.88 181.811 567.089 181.602 567.299L164.05 577.55C163.423 577.55 163.214 577.55 163.214 577.55ZM164.05 565.416V575.039L179.721 565.834L179.512 556.629L164.05 565.416Z" fill="black"/>
<path d="M144.756 544.104C145.805 543.468 147.273 543.256 148.532 543.256L144.966 541.138L144.756 540.926C142.029 540.079 139.302 542.409 137.834 544.104C136.156 546.01 135.107 548.341 134.687 550.883V551.095V551.306C134.478 553.001 134.897 554.908 136.366 555.967L139.512 557.662C138.673 556.815 138.463 555.543 138.463 554.484C138.253 550.671 141.19 546.01 144.756 544.104Z" fill="white"/>
<path d="M139.313 558.568C139.104 558.568 138.894 558.568 138.894 558.36L135.757 556.698C134.084 555.866 133.247 553.788 133.456 551.294V550.878V550.67C133.875 547.968 134.92 545.682 136.803 543.604C138.267 541.733 141.404 539.031 144.751 540.07H144.96C145.169 540.07 145.169 540.278 145.378 540.278L148.934 542.357C149.352 542.565 149.562 543.188 149.352 543.604C149.143 544.019 148.725 544.227 148.307 544.019C147.261 543.812 146.215 544.019 145.169 544.643C141.614 546.721 139.522 550.255 139.104 554.203C139.104 555.035 139.313 556.074 139.94 556.698C140.359 557.113 140.359 557.737 139.94 557.945C139.731 558.568 139.522 558.568 139.313 558.568ZM143.287 541.941C141.404 541.941 139.313 543.812 138.267 545.059C136.803 546.721 135.757 548.8 135.339 551.086V551.294C135.339 552.125 135.339 554.203 136.594 555.035L137.221 555.451C137.221 555.035 137.221 554.827 137.221 554.411C137.221 550.255 140.359 545.266 144.333 543.188C144.751 542.98 145.169 542.772 145.587 542.565L144.542 541.941H144.333C143.914 541.941 143.496 541.941 143.287 541.941Z" fill="black"/>
<path d="M144.349 543.98C147.708 542.103 150.647 543.563 150.647 547.319C150.437 551.492 148.128 555.456 144.559 557.752C141.2 559.63 138.262 558.169 138.262 554.413C138.472 550.031 140.781 546.276 144.349 543.98Z" fill="white"/>
<path d="M141.463 559.777C140.622 559.777 139.992 559.567 139.361 559.147C137.891 558.098 137.05 556.419 137.05 554.53C137.26 549.912 139.782 545.714 143.774 543.195C145.455 542.145 147.346 541.936 149.238 542.775C150.709 543.825 151.549 545.504 151.549 547.393C151.339 552.011 148.817 556.209 144.825 558.728C143.774 559.357 142.513 559.567 141.463 559.777ZM144.615 544.874C141.253 546.973 139.151 550.541 138.941 554.53C138.731 555.789 139.361 556.838 140.202 557.678C141.463 558.098 142.724 558.098 143.774 557.258C147.136 555.159 149.238 551.591 149.448 547.603C149.658 546.343 149.028 545.294 148.187 544.454C146.926 544.035 145.666 544.035 144.615 544.874Z" fill="black"/>
<path d="M147.329 547.239C145.44 546.621 143.972 548.063 142.922 549.092C141.873 550.122 141.244 551.564 141.034 553.006V553.212V553.418C140.824 554.448 141.244 555.478 142.083 556.096L154.673 563.099C154.043 562.482 153.624 561.658 153.624 560.834C153.833 558.362 155.093 556.096 157.191 554.86C157.82 554.448 158.66 554.242 159.289 554.448H159.499C159.499 554.448 159.709 554.448 159.709 554.654L147.329 547.239Z" fill="#CCCACA"/>
<path d="M154.794 563.705C154.586 563.705 154.378 563.705 154.378 563.494L141.883 556.327C140.634 555.484 140.217 554.219 140.425 552.744C140.425 552.744 140.425 552.744 140.425 552.533V552.322C140.633 550.636 141.466 549.161 142.508 547.896C144.174 545.999 146.048 545.156 147.505 545.788C147.505 545.788 147.505 545.788 147.714 545.788C147.714 545.788 147.922 545.788 147.922 545.999L160.417 553.166C160.833 553.376 161.041 554.009 160.833 554.43C160.625 554.852 160 555.063 159.584 554.852C159.584 554.852 159.584 554.852 159.375 554.852C159.375 554.852 159.375 554.852 159.167 554.852C158.75 554.852 158.126 554.852 157.709 555.273C155.835 556.538 154.794 558.435 154.586 560.543C154.586 561.386 154.794 561.808 155.211 562.018C155.627 562.229 155.835 562.862 155.627 563.283C155.419 563.494 155.21 563.705 154.794 563.705ZM146.464 547.685C145.423 547.685 144.382 548.739 143.757 549.371C142.924 550.425 142.299 551.479 142.091 552.744V552.955C142.091 553.376 142.091 554.43 142.716 554.852L152.711 560.543V560.332C152.92 557.592 154.377 554.852 156.668 553.376L146.464 547.685C146.881 547.685 146.672 547.685 146.464 547.685Z" fill="black"/>
<path d="M146.648 743.435C146.23 743.435 145.812 743.017 145.812 742.599L146.439 559.328C145.811 553.476 151.666 549.506 152.084 549.297L378.744 420.15L462.8 368.952C463.218 368.743 463.845 368.952 464.055 369.37C464.264 369.788 464.264 370.414 463.846 370.623L379.371 422.031L152.712 550.76C152.712 550.76 147.484 554.312 148.112 558.91V559.119L147.484 742.599C147.484 743.017 147.066 743.435 146.648 743.435Z" fill="black"/>
<g style="mix-blend-mode:multiply">
<path d="M222.134 429.106C170.408 459.498 97.3435 502.145 74.0892 513.632C19.1961 540.747 -70.534 540.031 -125.588 509.315C-153.83 493.549 -187.077 473.309 -187.077 473.309L-110.643 431.657C-110.643 431.657 -81.9738 451.893 -62.6691 461.492C-43.3644 471.092 -17.6248 481.363 12.0462 464.609C41.7183 447.855 149.337 387.068 149.337 387.068L222.134 429.106Z" fill="black"/>
</g>
<g style="mix-blend-mode:multiply">
<path d="M161.754 236.208L89.6421 278.141L-54.5807 194.739L17.5312 153.241L161.754 236.208Z" fill="black"/>
</g>
<path d="M84.2175 220.109V268.214C84.2175 270.111 86.6294 271.646 89.5942 271.646C92.5686 271.646 94.9805 270.111 94.9805 268.214V220.109H84.2175Z" fill="#CCCACA"/>
<path d="M84.2175 220.109V268.214C84.2175 270.111 86.6294 271.646 89.5942 271.646C92.5686 271.646 94.9805 270.111 94.9805 268.214V220.109H84.2175Z" stroke="black" stroke-width="1.53741" stroke-miterlimit="10"/>
<path d="M144.561 185.544V233.649C144.561 235.546 146.973 237.081 149.938 237.081C152.912 237.081 155.324 235.546 155.324 233.649V185.544H144.561Z" fill="#CCCACA"/>
<path d="M144.561 185.544V233.649C144.561 235.546 146.973 237.081 149.938 237.081C152.912 237.081 155.324 235.546 155.324 233.649V185.544H144.561Z" stroke="black" stroke-width="1.53741" stroke-miterlimit="10"/>
<g style="mix-blend-mode:multiply">
<path d="M398.727 329.164L481.747 280.386L433.318 244.256L326.468 290.379L398.727 329.164Z" fill="black"/>
</g>
<path d="M161.756 175.358L89.644 217.291L-54.5787 133.889L17.5331 92.3911L161.756 175.358Z" fill="white"/>
<path d="M161.756 175.358L89.644 217.291L-54.5787 133.889L17.5331 92.3911L161.756 175.358Z" stroke="black" stroke-width="1.53741" stroke-linecap="round" stroke-linejoin="round"/>
<path d="M161.756 175.36V187.187L89.645 227.701V217.292L161.756 175.36Z" fill="#CCCACA"/>
<path d="M161.756 175.36V187.187L89.645 227.701V217.292L161.756 175.36Z" stroke="black" stroke-width="1.53741" stroke-linecap="round" stroke-linejoin="round"/>
<path d="M89.6396 217.292V227.7L-54.5822 144.433V133.89L89.6396 217.292Z" fill="white"/>
<path d="M89.6396 217.292V227.7L-54.5822 144.433V133.89L89.6396 217.292Z" stroke="black" stroke-width="1.53741" stroke-linecap="round" stroke-linejoin="round"/>
<path d="M145.999 171.56L86.4112 206.237L40.833 179.888L101.636 145.727L145.999 171.56Z" fill="white"/>
<path d="M145.999 171.56L86.4112 206.237L40.833 179.888L101.636 145.727L145.999 171.56Z" stroke="black" stroke-width="1.67252" stroke-linecap="round" stroke-linejoin="round"/>
<path d="M145.999 159.481L86.4112 194.159L40.833 167.81L101.636 133.648L145.999 159.481Z" fill="#02EEC4"/>
<path d="M145.999 159.481L86.4112 194.159L40.833 167.81L101.636 133.648L145.999 159.481Z" stroke="black" stroke-width="1.67252" stroke-linecap="round" stroke-linejoin="round"/>
<path d="M86.4085 194.159L88.3583 206.418L148.976 171.323C151.963 169.954 150.636 162.113 145.99 159.479L86.4085 194.159Z" fill="#CCCACA"/>
<path d="M86.4085 194.159L88.3583 206.418L148.976 171.323C151.963 169.954 150.636 162.113 145.99 159.479L86.4085 194.159Z" stroke="black" stroke-width="1.67252" stroke-linecap="round" stroke-linejoin="round"/>
<path d="M86.4074 206.237C91.234 208.622 91.7183 197.244 85.725 193.843L42.726 168.907C44.7919 171.928 44.4517 179.566 42.726 180.985L86.4074 206.237Z" fill="white"/>
<path d="M86.4074 206.237C91.234 208.622 91.7183 197.244 85.725 193.843L42.726 168.907C44.7919 171.928 44.4517 179.566 42.726 180.985L86.4074 206.237Z" stroke="black" stroke-width="1.67252" stroke-linecap="round" stroke-linejoin="round"/>
<path d="M85.2012 197.47L47.6475 175.979" stroke="black" stroke-width="1.67252" stroke-linecap="round" stroke-linejoin="round"/>
<path d="M86.2637 202.036L67.4876 191.292" stroke="black" stroke-width="1.67252" stroke-linecap="round" stroke-linejoin="round"/>
<path d="M64.4775 189.566L47.0792 179.61" stroke="black" stroke-width="1.67252" stroke-linecap="round" stroke-linejoin="round"/>
<path d="M37.3604 91.8965V121.236L25.8843 135.116V102.111L37.3604 91.8965Z" fill="white"/>
<path d="M37.3604 91.8965V121.236L25.8843 135.116V102.111L37.3604 91.8965Z" stroke="black" stroke-width="1.53741" stroke-linecap="round" stroke-linejoin="round"/>
<path d="M36.0826 95.085L39.6689 95.6391L29.4048 104.732C29.4048 104.732 27.1216 104.532 26.1013 104.125C27.2439 102.869 36.0826 95.085 36.0826 95.085Z" fill="white"/>
<path d="M36.0826 95.085L39.6689 95.6391L29.4048 104.732C29.4048 104.732 27.1216 104.532 26.1013 104.125C27.2439 102.869 36.0826 95.085 36.0826 95.085Z" stroke="black" stroke-width="1.53741" stroke-linecap="round" stroke-linejoin="round"/>
<path d="M39.6689 95.6396V124.335L29.4039 135.919L29.4053 104.733L39.6689 95.6396Z" fill="white"/>
<path d="M39.6689 95.6396V124.335L29.4039 135.919L29.4053 104.733L39.6689 95.6396Z" stroke="black" stroke-width="1.53741" stroke-linecap="round" stroke-linejoin="round"/>
<path d="M54.0342 104.778V137.737H29.409V104.732L54.0342 104.778Z" fill="#02EEC4"/>
<path d="M54.0342 104.778V137.737H29.409V104.732L54.0342 104.778Z" stroke="black" stroke-width="1.53741" stroke-miterlimit="10"/>
<path d="M25.2613 103.229V136.158C25.2613 136.213 25.2659 136.264 25.2798 136.315C25.4928 137.269 27.6686 137.736 29.4092 137.736V104.734C28.1685 104.734 26.7057 104.498 25.8909 104.012C25.715 103.905 25.5715 103.794 25.4655 103.665C25.3539 103.535 25.2845 103.392 25.2659 103.239L25.2613 103.229Z" fill="#CCCACA"/>
<path d="M25.2613 103.229V136.158C25.2613 136.213 25.2659 136.264 25.2798 136.315C25.4928 137.269 27.6686 137.736 29.4092 137.736V104.734C28.1685 104.734 26.7057 104.498 25.8909 104.012C25.715 103.905 25.5715 103.794 25.4655 103.665C25.3539 103.535 25.2845 103.392 25.2659 103.239L25.2613 103.229Z" stroke="black" stroke-width="1.53741" stroke-linecap="round" stroke-linejoin="round"/>
<path d="M430.226 178.073C432.677 179.509 500.233 219.803 500.233 219.803L499.042 227.548L363.909 295.711L292.172 257.34C292.172 257.34 413.328 180.371 416.256 178.386C419.321 176.308 425.994 175.593 430.226 178.073Z" fill="white"/>
<path d="M430.226 178.073C432.677 179.509 500.233 219.803 500.233 219.803L499.042 227.548L363.909 295.711L292.172 257.34C292.172 257.34 413.328 180.371 416.256 178.386C419.321 176.308 425.994 175.593 430.226 178.073Z" stroke="black" stroke-width="1.53741"/>
<path d="M285.262 341.468C285.262 341.468 488.318 225.163 494.992 220.635C501.665 216.107 513.343 227.308 494.277 238.987C475.21 250.665 282.163 361.25 282.163 361.25" fill="#CCCACA"/>
<path d="M285.262 341.468C285.262 341.468 488.318 225.163 494.992 220.635C501.665 216.107 513.343 227.308 494.277 238.987C475.21 250.665 282.163 361.25 282.163 361.25" stroke="black" stroke-width="1.53741"/>
<path d="M68.242 339.007C68.242 342.472 69.9656 345.955 73.3908 347.929L77.6389 350.387L121.359 375.624L244.33 446.623C251.762 450.91 260.927 450.91 268.358 446.623L391.332 375.605L435.022 350.378L439.29 347.91C442.725 345.936 444.438 342.472 444.438 339.007C444.438 335.543 442.725 332.06 439.29 330.085L268.358 231.392C260.927 227.105 251.762 227.105 244.33 231.392L73.3908 330.085C69.9656 332.06 68.242 335.543 68.242 339.007Z" fill="white"/>
<path d="M68.242 339.007C68.242 342.472 69.9656 345.955 73.3908 347.929L77.6389 350.387L121.359 375.624L244.33 446.623C251.762 450.91 260.927 450.91 268.358 446.623L391.332 375.605L435.022 350.378L439.29 347.91C442.725 345.936 444.438 342.472 444.438 339.007C444.438 335.543 442.725 332.06 439.29 330.085L268.358 231.392C260.927 227.105 251.762 227.105 244.33 231.392L73.3908 330.085C69.9656 332.06 68.242 335.543 68.242 339.007Z" stroke="black" stroke-width="1.53741" stroke-linecap="round" stroke-linejoin="round"/>
<path d="M68.242 339.013V361.763C68.242 365.227 69.9656 368.71 73.3908 370.685L121.359 398.38L244.33 469.379C251.762 473.665 260.927 473.665 268.358 469.379L391.332 398.37L439.29 370.666C442.725 368.691 444.438 365.227 444.438 361.763V339.013C444.438 342.477 442.725 345.941 439.29 347.916L435.022 350.383L391.332 375.611L268.358 446.628C260.927 450.915 251.762 450.915 244.33 446.628L121.359 375.63L77.6389 350.392L73.3908 347.935C69.9656 345.96 68.242 342.477 68.242 339.013Z" fill="#CCCACA"/>
<path d="M68.242 339.013V361.763C68.242 365.227 69.9656 368.71 73.3908 370.685L121.359 398.38L244.33 469.379C251.762 473.665 260.927 473.665 268.358 469.379L391.332 398.37L439.29 370.666C442.725 368.691 444.438 365.227 444.438 361.763V339.013C444.438 342.477 442.725 345.941 439.29 347.916L435.022 350.383L391.332 375.611L268.358 446.628C260.927 450.915 251.762 450.915 244.33 446.628L121.359 375.63L77.6389 350.392L73.3908 347.935C69.9656 345.96 68.242 342.477 68.242 339.013Z" stroke="black" stroke-width="1.53741" stroke-linecap="round" stroke-linejoin="round"/>
<path d="M138.403 285.82V317.415C138.403 323.821 142.294 331.253 147.093 334.021L233.72 384.05V352.445C233.72 346.049 229.829 338.608 225.03 335.84L138.403 285.82Z" fill="black"/>
<path d="M138.403 285.82V317.415C138.403 323.821 142.294 331.253 147.093 334.021L233.72 384.05V352.445C233.72 346.049 229.829 338.608 225.03 335.84L138.403 285.82Z" stroke="black" stroke-width="1.53741" stroke-linecap="round" stroke-linejoin="round"/>
<path d="M318.135 286.5V286.626C318.174 290.207 319.983 292.277 322.615 292.277C323.699 292.277 324.928 291.919 326.225 291.174L374.773 263.14C379.244 260.566 382.863 254.286 382.863 249.128C382.863 245.47 381.043 243.351 378.383 243.351C377.415 243.351 376.331 243.642 375.18 244.241C375.044 244.3 374.909 244.377 374.773 244.454L326.225 272.488C321.754 275.062 318.135 281.343 318.135 286.5Z" fill="#CCCACA"/>
<path d="M108.059 199.375C108.059 202.107 109.412 204.853 112.118 206.409L149.926 228.242L246.863 284.204C252.72 287.586 259.942 287.586 265.799 284.204L362.737 228.229L400.545 206.395C403.251 204.84 404.604 202.107 404.604 199.375C404.604 196.642 403.251 193.896 400.545 192.34L265.799 114.546C259.942 111.163 252.72 111.163 246.863 114.546L112.118 192.34C109.412 193.896 108.059 196.642 108.059 199.375Z" fill="white"/>
<path d="M108.059 199.375C108.059 202.107 109.412 204.853 112.118 206.409L149.926 228.242L246.863 284.204C252.72 287.586 259.942 287.586 265.799 284.204L362.737 228.229L400.545 206.395C403.251 204.84 404.604 202.107 404.604 199.375C404.604 196.642 403.251 193.896 400.545 192.34L265.799 114.546C259.942 111.163 252.72 111.163 246.863 114.546L112.118 192.34C109.412 193.896 108.059 196.642 108.059 199.375Z" stroke="black" stroke-width="1.53741" stroke-linecap="round" stroke-linejoin="round"/>
<path d="M141.505 170.255V170.785C141.571 173.495 142.96 176.14 145.638 177.677L153.274 182.089L246.429 235.875C252.561 239.411 260.115 239.411 266.263 235.875L359.402 182.089L367.038 177.677C369.799 176.09 371.171 173.313 371.171 170.52C371.171 167.744 369.799 164.949 367.038 163.362L266.263 105.182C260.115 101.629 252.561 101.629 246.429 105.182L145.638 163.362C142.96 164.899 141.571 167.561 141.505 170.255Z" fill="white"/>
<path d="M141.505 170.255V170.785C141.571 173.495 142.96 176.14 145.638 177.677L153.274 182.089L246.429 235.875C252.561 239.411 260.115 239.411 266.263 235.875L359.402 182.089L367.038 177.677C369.799 176.09 371.171 173.313 371.171 170.52C371.171 167.744 369.799 164.949 367.038 163.362L266.263 105.182C260.115 101.629 252.561 101.629 246.429 105.182L145.638 163.362C142.96 164.899 141.571 167.561 141.505 170.255Z" stroke="black" stroke-width="1.53741" stroke-linecap="round" stroke-linejoin="round"/>
<path d="M141.505 170.786V193.926C141.571 196.637 142.96 199.282 145.638 200.818L246.429 259.016C252.561 262.553 260.115 262.553 266.263 259.016L367.038 200.818C369.799 199.232 371.171 196.455 371.171 193.662V170.522C371.171 173.315 369.799 176.091 367.038 177.679L359.402 182.091L266.263 235.876C260.115 239.413 252.561 239.413 246.429 235.876L153.274 182.091L145.638 177.679C142.96 176.142 141.571 173.496 141.505 170.786Z" fill="#CCCACA"/>
<path d="M141.505 170.786V193.926C141.571 196.637 142.96 199.282 145.638 200.818L246.429 259.016C252.561 262.553 260.115 262.553 266.263 259.016L367.038 200.818C369.799 199.232 371.171 196.455 371.171 193.662V170.522C371.171 173.315 369.799 176.091 367.038 177.679L359.402 182.091L266.263 235.876C260.115 239.413 252.561 239.413 246.429 235.876L153.274 182.091L145.638 177.679C142.96 176.142 141.571 173.496 141.505 170.786Z" stroke="black" stroke-width="1.53741" stroke-linecap="round" stroke-linejoin="round"/>
<path d="M266.26 259.016C260.111 262.552 252.558 262.552 246.425 259.016L145.634 200.818C142.957 199.282 141.567 196.636 141.501 193.926V170.786C141.567 173.496 142.957 176.141 145.634 177.679L153.27 182.092L246.425 235.876C252.558 239.413 260.111 239.413 266.26 235.876V259.016Z" stroke="black" stroke-width="1.53741" stroke-linecap="round" stroke-linejoin="round"/>
<path d="M319.77 212.851V220.861" stroke="black" stroke-width="1.53741" stroke-linecap="round" stroke-linejoin="round"/>
<path d="M326.479 208.981V216.991" stroke="black" stroke-width="1.53741" stroke-linecap="round" stroke-linejoin="round"/>
<path d="M268.349 469.379C260.917 473.666 251.753 473.666 244.321 469.379L121.349 398.381L73.3817 370.686C69.9555 368.711 68.2338 365.229 68.2338 361.765V339.013C68.2338 342.477 69.9555 345.962 73.3817 347.936L77.6288 350.394L121.349 375.632L244.321 446.63C251.753 450.917 260.917 450.917 268.349 446.63V469.379Z" fill="white"/>
<path d="M268.349 469.379C260.917 473.666 251.753 473.666 244.321 469.379L121.349 398.381L73.3817 370.686C69.9555 368.711 68.2338 365.229 68.2338 361.765V339.013C68.2338 342.477 69.9555 345.962 73.3817 347.936L77.6288 350.394L121.349 375.632L244.321 446.63C251.753 450.917 260.917 450.917 268.349 446.63V469.379Z" stroke="black" stroke-width="1.53741" stroke-linecap="round" stroke-linejoin="round"/>
<path d="M157.844 196.453C157.844 198.162 156.805 198.947 155.523 198.207C154.241 197.467 153.203 195.483 153.203 193.773C153.203 192.065 154.241 191.28 155.523 192.02C156.805 192.76 157.844 194.744 157.844 196.453Z" fill="black"/>
<path d="M167.822 202.216C167.822 203.926 166.783 204.71 165.502 203.97C164.22 203.231 163.182 201.246 163.182 199.537C163.182 197.828 164.22 197.044 165.502 197.783C166.783 198.523 167.822 200.508 167.822 202.216Z" fill="black"/>
<path d="M177.801 207.978C177.801 209.686 176.762 210.472 175.48 209.732C174.198 208.992 173.16 207.008 173.16 205.298C173.16 203.59 174.198 202.805 175.48 203.545C176.762 204.285 177.801 206.269 177.801 207.978Z" fill="black"/>
<path d="M246.421 235.874V259.013" stroke="black" stroke-width="1.53741" stroke-linecap="round" stroke-linejoin="round"/>
<path d="M149.993 429.838H146.445V457.722L148.171 458.64C149.31 459.246 150.675 459.246 151.814 458.64L153.541 457.722V429.838H149.993Z" fill="black"/>
<path d="M149.993 429.838H146.445V457.722L148.171 458.64C149.31 459.246 150.675 459.246 151.814 458.64L153.541 457.722V429.838H149.993Z" stroke="black" stroke-width="1.53741" stroke-miterlimit="10"/>
<path d="M79.2066 467.017H75.6584V494.901L77.3848 495.82C78.5241 496.425 79.8892 496.425 81.0275 495.82L82.7549 494.901V467.017H79.2066Z" fill="black"/>
<path d="M79.2066 467.017H75.6584V494.901L77.3848 495.82C78.5241 496.425 79.8892 496.425 81.0275 495.82L82.7549 494.901V467.017H79.2066Z" stroke="black" stroke-width="1.53741" stroke-miterlimit="10"/>
<path d="M126.113 290.151V324.479C126.113 330.876 130.014 338.306 134.813 341.084L225.03 393.176C229.83 395.943 233.72 393.001 233.72 386.604V384.049L147.094 334.02C142.294 331.253 138.403 323.822 138.403 317.415V285.821C128.296 278.713 126.113 286.338 126.113 290.151Z" fill="black"/>
<path d="M126.113 290.151V324.479C126.113 330.876 130.014 338.306 134.813 341.084L225.03 393.176C229.83 395.943 233.72 393.001 233.72 386.604V384.049L147.094 334.02C142.294 331.253 138.403 323.822 138.403 317.415V285.821C128.296 278.713 126.113 286.338 126.113 290.151Z" stroke="black" stroke-width="1.53741" stroke-linecap="round" stroke-linejoin="round"/>
<path d="M138.281 344.595L216.453 389.162L216.572 407.633L197.387 419.788L197.268 442.31L100.863 387.017L102.055 366.044L134.944 359.133L138.281 344.595Z" fill="black"/>
<path d="M272.72 365.722C220.994 396.114 98.9527 466.288 75.6984 477.775C20.8054 504.89 -68.9238 504.174 -123.978 473.458C-152.22 457.692 -185.467 437.453 -185.467 437.453L-109.032 395.8C-109.032 395.8 -80.3636 416.036 -61.0589 425.635C-41.7542 435.235 -16.0156 445.506 13.6555 428.753C43.3275 411.998 199.924 323.685 199.924 323.685L272.72 365.722Z" fill="#CCCACA"/>
<path d="M272.72 365.722C220.994 396.114 98.9527 466.288 75.6984 477.775C20.8054 504.89 -68.9238 504.174 -123.978 473.458C-152.22 457.692 -185.467 437.453 -185.467 437.453L-109.032 395.8C-109.032 395.8 -80.3636 416.036 -61.0589 425.635C-41.7542 435.235 -16.0156 445.506 13.6555 428.753C43.3275 411.998 199.924 323.685 199.924 323.685L272.72 365.722Z" stroke="black" stroke-width="1.53741" stroke-miterlimit="10"/>
<path d="M271.282 348.949C219.555 379.341 98.9204 455.074 75.6661 466.562C20.7731 493.677 -68.958 492.961 -124.012 462.245C-152.254 446.479 -185.501 426.239 -185.501 426.239L-109.066 384.587C-109.066 384.587 -80.3979 404.823 -61.0931 414.423C-41.7885 424.023 -16.0489 434.294 13.6232 417.539C43.2952 400.786 197.843 307.286 197.843 307.286L271.282 348.949Z" fill="white"/>
<path d="M271.282 348.949C219.555 379.341 98.9204 455.074 75.6661 466.562C20.773 493.677 -68.958 492.961 -124.012 462.245C-152.254 446.479 -185.501 426.239 -185.501 426.239L-109.066 384.587C-109.066 384.587 -80.3978 404.823 -61.0932 414.423C-41.7885 424.023 -16.0489 434.294 13.6232 417.539C43.2952 400.786 197.843 307.286 197.843 307.286L271.282 348.949Z" stroke="black" stroke-width="1.53741" stroke-miterlimit="10"/>
<path d="M237.01 370.386L164.078 328.251" stroke="black" stroke-width="1.53741" stroke-linecap="round" stroke-linejoin="round"/>
<path d="M265.832 353.119L192.899 310.984" stroke="black" stroke-width="1.53741" stroke-linecap="round" stroke-linejoin="round"/>
<path d="M203.724 390.011L130.791 347.876" stroke="black" stroke-width="1.53741" stroke-linecap="round" stroke-linejoin="round"/>
<path d="M269.638 334.536L210.584 369.164L168.687 344.944L228.859 310.79L269.638 334.536Z" fill="white"/>
<path d="M269.638 334.536L210.584 369.164L168.687 344.944L228.859 310.79L269.638 334.536Z" stroke="black" stroke-width="1.53741" stroke-linecap="round" stroke-linejoin="round"/>
<path d="M253.601 336.838L240.779 327.867M236.651 325.411L228.254 319.536M248.417 339.184L241.706 334.641M238.158 332.121L229.569 326.541M224.976 328.588L218.266 324.044M234.534 347.301L225.945 341.722M244.101 341.923L227.955 330.862M239.518 344.748L226.679 335.951M223.579 333.828L214.438 327.565" stroke="#CCCACA" stroke-width="1.53741" stroke-linecap="round" stroke-linejoin="round"/>
<path d="M138.392 343.129L123.049 352.172L112.131 346.038C109.425 344.482 108.073 341.75 108.073 339.018V199.135C108.073 201.867 109.425 204.613 112.131 206.169L149.94 228.002L246.876 283.964C252.733 287.346 259.956 287.346 265.813 283.964V423.833C259.956 427.214 252.733 427.214 246.876 423.833L208.263 402.473L223.884 392.978L225.037 393.165C229.837 395.933 233.727 392.992 233.727 386.595V352.436C233.727 346.04 229.837 338.598 225.037 335.831L138.411 285.812L134.822 283.742C130.022 280.964 126.121 283.906 126.121 290.312V324.471C126.121 330.867 130.022 338.299 134.822 341.076L138.392 343.129Z" fill="white"/>
<path d="M138.392 343.129L123.049 352.172L112.131 346.038C109.425 344.482 108.073 341.75 108.073 339.018V199.135C108.073 201.867 109.425 204.613 112.131 206.169L149.94 228.002L246.876 283.964C252.733 287.346 259.956 287.346 265.813 283.964V423.833C259.956 427.214 252.733 427.214 246.876 423.833L208.263 402.473L223.884 392.978L225.037 393.165C229.837 395.933 233.727 392.992 233.727 386.595V352.436C233.727 346.04 229.837 338.598 225.037 335.831L138.411 285.812L134.822 283.742C130.022 280.964 126.121 283.906 126.121 290.312V324.471C126.121 330.867 130.022 338.299 134.822 341.076L138.392 343.129Z" stroke="black" stroke-width="1.53741" stroke-linecap="round" stroke-linejoin="round"/>
<path d="M140.692 255.463C140.692 257.214 140.159 258.472 139.283 259.088L139.27 259.101L138.901 259.306L133.945 262.15C134.574 261.712 135.025 260.946 135.23 259.92C135.326 259.497 135.367 259.018 135.367 258.512C135.367 255.107 133.288 251.141 130.73 249.65C130.581 249.555 130.43 249.486 130.279 249.417C129.376 249.021 128.542 248.993 127.872 249.322L133.033 246.342L133.116 246.301C133.91 245.89 134.935 245.959 136.056 246.601C138.613 248.078 140.692 252.045 140.692 255.463Z" fill="black"/>
<path d="M140.692 255.463C140.692 257.214 140.159 258.472 139.283 259.088L139.27 259.101L138.901 259.306L133.945 262.15C134.574 261.712 135.025 260.946 135.23 259.92C135.326 259.497 135.367 259.018 135.367 258.512C135.367 255.107 133.288 251.141 130.73 249.65C130.581 249.555 130.43 249.486 130.279 249.417C129.376 249.021 128.542 248.993 127.872 249.322L133.033 246.342L133.116 246.301C133.91 245.89 134.935 245.959 136.056 246.601C138.613 248.078 140.692 252.045 140.692 255.463Z" stroke="black" stroke-width="1.53741" stroke-linecap="round" stroke-linejoin="round"/>
<path d="M135.371 258.511C135.371 259.017 135.33 259.495 135.235 259.92C135.029 260.945 134.578 261.711 133.949 262.149C133.921 262.176 133.894 262.203 133.853 262.217L133.621 262.353C132.828 262.737 131.829 262.655 130.735 262.026C128.164 260.535 126.099 256.57 126.099 253.164C126.099 251.414 126.646 250.141 127.521 249.526C127.535 249.512 127.548 249.498 127.576 249.485L127.877 249.321C128.547 248.993 129.381 249.019 130.283 249.416C130.434 249.485 130.584 249.553 130.735 249.649C133.292 251.14 135.371 255.105 135.371 258.511Z" fill="#02EEC4"/>
<path d="M135.371 258.511C135.371 259.017 135.33 259.495 135.235 259.92C135.029 260.945 134.578 261.711 133.949 262.149C133.921 262.176 133.894 262.203 133.853 262.217L133.621 262.353C132.828 262.737 131.829 262.655 130.735 262.026C128.164 260.535 126.099 256.57 126.099 253.164C126.099 251.414 126.646 250.141 127.521 249.526C127.535 249.512 127.548 249.498 127.576 249.485L127.877 249.321C128.547 248.993 129.381 249.019 130.283 249.416C130.434 249.485 130.584 249.553 130.735 249.649C133.292 251.14 135.371 255.105 135.371 258.511Z" stroke="black" stroke-width="1.53741" stroke-linecap="round" stroke-linejoin="round"/>
<path d="M159.88 266.398C159.88 268.148 159.347 269.407 158.471 270.022L158.458 270.036L158.089 270.241L153.132 273.085C153.761 272.647 154.212 271.881 154.417 270.855C154.514 270.432 154.555 269.953 154.555 269.447C154.555 266.042 152.475 262.076 149.918 260.585C149.768 260.489 149.617 260.421 149.467 260.352C148.564 259.956 147.73 259.928 147.06 260.257L152.221 257.276L152.304 257.235C153.097 256.825 154.123 256.894 155.244 257.536C157.801 259.013 159.88 262.98 159.88 266.398Z" fill="black"/>
<path d="M159.88 266.398C159.88 268.148 159.347 269.407 158.471 270.022L158.458 270.036L158.089 270.241L153.132 273.085C153.761 272.647 154.212 271.881 154.417 270.855C154.514 270.432 154.555 269.953 154.555 269.447C154.555 266.042 152.475 262.076 149.918 260.585C149.768 260.489 149.617 260.421 149.467 260.352C148.564 259.956 147.73 259.928 147.06 260.257L152.221 257.276L152.304 257.235C153.097 256.825 154.123 256.894 155.244 257.536C157.801 259.013 159.88 262.98 159.88 266.398Z" stroke="black" stroke-width="1.53741" stroke-linecap="round" stroke-linejoin="round"/>
<path d="M154.559 269.448C154.559 269.954 154.518 270.433 154.422 270.857C154.216 271.883 153.765 272.648 153.136 273.086C153.109 273.114 153.082 273.14 153.041 273.155L152.808 273.291C152.015 273.674 151.016 273.592 149.923 272.963C147.352 271.472 145.287 267.507 145.287 264.102C145.287 262.352 145.834 261.079 146.709 260.463C146.722 260.45 146.736 260.436 146.763 260.422L147.065 260.258C147.735 259.93 148.569 259.957 149.471 260.354C149.621 260.422 149.772 260.491 149.923 260.586C152.479 262.077 154.559 266.043 154.559 269.448Z" fill="#02EEC4"/>
<path d="M154.559 269.448C154.559 269.954 154.518 270.433 154.422 270.857C154.216 271.883 153.765 272.648 153.136 273.086C153.109 273.114 153.082 273.14 153.041 273.155L152.808 273.291C152.015 273.674 151.016 273.592 149.923 272.963C147.352 271.472 145.287 267.507 145.287 264.102C145.287 262.352 145.834 261.079 146.709 260.463C146.722 260.45 146.736 260.436 146.763 260.422L147.065 260.258C147.735 259.93 148.569 259.957 149.471 260.354C149.621 260.422 149.772 260.491 149.923 260.586C152.479 262.077 154.559 266.043 154.559 269.448Z" stroke="black" stroke-width="1.53741" stroke-linecap="round" stroke-linejoin="round"/>
<path d="M246.676 284.092V423.961" stroke="black" stroke-width="1.53741" stroke-linecap="round" stroke-linejoin="round"/>
<path d="M244.322 446.626V469.376" stroke="black" stroke-width="1.53741" stroke-linecap="round" stroke-linejoin="round"/>
<path d="M27.0771 101.044C27.0771 101.044 26.2795 101.754 25.8805 102.108C25.3944 102.539 25.2189 102.918 25.256 103.238C25.2745 103.391 25.3439 103.534 25.455 103.664C25.5615 103.793 25.7046 103.904 25.8805 104.011C26.2059 104.177 26.3781 104.313 27.0049 104.447" fill="white"/>
<path d="M27.0771 101.044C27.0771 101.044 26.2795 101.754 25.8805 102.108C25.3944 102.539 25.2189 102.918 25.256 103.238C25.2745 103.391 25.3439 103.534 25.455 103.664C25.5615 103.793 25.7046 103.904 25.8805 104.011C26.2059 104.177 26.3781 104.313 27.0049 104.447" stroke="black" stroke-width="1.53741" stroke-miterlimit="10"/>
<path d="M374.479 291.298L295.332 245.819L374.479 291.298Z" fill="black"/>
<path d="M374.479 291.298L295.332 245.819" stroke="black" stroke-width="1.53741" stroke-miterlimit="10"/>
<path d="M404.606 273.72L324.806 227.608L404.606 273.72Z" fill="black"/>
<path d="M404.606 273.72L324.806 227.608" stroke="black" stroke-width="1.53741" stroke-miterlimit="10"/>
<path d="M265.803 283.971V423.841L400.548 346.046C403.254 344.491 404.606 341.758 404.606 339.025V199.142C404.606 201.874 403.254 204.607 400.548 206.163L362.74 227.996L265.803 283.971Z" fill="#CCCACA"/>
<path d="M265.803 283.971V423.841L400.548 346.046C403.254 344.491 404.606 341.758 404.606 339.025V199.142C404.606 201.874 403.254 204.607 400.548 206.163L362.74 227.996L265.803 283.971Z" stroke="black" stroke-width="1.53741" stroke-linecap="round" stroke-linejoin="round"/>
<path d="M318.133 286.502V286.628C318.172 290.209 319.981 292.279 322.614 292.279C323.697 292.279 324.926 291.921 326.223 291.176L374.771 263.142C379.242 260.568 382.861 254.288 382.861 249.13C382.861 245.472 381.041 243.353 378.381 243.353C377.413 243.353 376.329 243.644 375.178 244.243C375.042 244.302 374.907 244.379 374.771 244.456L326.223 272.49C321.752 275.064 318.133 281.345 318.133 286.502Z" stroke="black" stroke-width="1.53741" stroke-linecap="round" stroke-linejoin="round"/>
<path d="M318.129 286.501V286.627C318.265 286.559 318.409 286.482 318.546 286.404L367.084 258.38C371.555 255.796 375.174 249.525 375.174 244.358V244.242C375.038 244.3 374.903 244.378 374.768 244.455L326.219 272.489C321.748 275.063 318.129 281.343 318.129 286.501Z" fill="black"/>
<path d="M318.129 286.501V286.627C318.265 286.559 318.409 286.482 318.546 286.404L367.084 258.38C371.555 255.796 375.174 249.525 375.174 244.358V244.242C375.038 244.3 374.903 244.378 374.768 244.455L326.219 272.489C321.748 275.063 318.129 281.343 318.129 286.501Z" fill="black" stroke="black" stroke-width="1.53741" stroke-linecap="round" stroke-linejoin="round"/>
<path d="M293.052 300.988C293.052 301.597 293.1 302.159 293.206 302.681C293.681 305.285 295.316 306.757 297.523 306.757C298.616 306.757 299.845 306.407 301.142 305.653C305.613 303.079 309.231 296.798 309.231 291.64C309.231 287.983 307.413 285.864 304.751 285.864C304.576 285.864 304.393 285.873 304.209 285.892C303.27 285.99 302.226 286.339 301.142 286.968C298.906 288.264 296.884 290.469 295.423 293.005C293.952 295.54 293.052 298.405 293.052 300.988Z" fill="#CCCACA"/>
<path d="M293.052 300.988C293.052 301.597 293.1 302.159 293.206 302.681C293.681 305.285 295.316 306.757 297.523 306.757C298.616 306.757 299.845 306.407 301.142 305.653C305.613 303.079 309.231 296.798 309.231 291.64C309.231 287.983 307.413 285.864 304.751 285.864C304.576 285.864 304.393 285.873 304.209 285.892C303.27 285.99 302.226 286.339 301.142 286.968C298.906 288.264 296.884 290.469 295.423 293.005C293.952 295.54 293.052 298.405 293.052 300.988Z" stroke="black" stroke-width="1.53741" stroke-linecap="round" stroke-linejoin="round"/>
<path d="M293.049 300.99C293.049 301.599 293.098 302.161 293.204 302.683C294.152 302.596 295.188 302.248 296.271 301.619C300.743 299.045 304.361 292.766 304.361 287.608C304.361 286.988 304.313 286.417 304.207 285.895C303.268 285.992 302.223 286.34 301.139 286.969C298.904 288.266 296.882 290.472 295.42 293.008C293.949 295.543 293.049 298.406 293.049 300.99Z" fill="black"/>
<path d="M293.049 300.99C293.049 301.599 293.098 302.161 293.204 302.683C294.152 302.596 295.188 302.248 296.271 301.619C300.743 299.045 304.361 292.766 304.361 287.608C304.361 286.988 304.313 286.417 304.207 285.895C303.268 285.992 302.223 286.34 301.139 286.969C298.904 288.266 296.882 290.472 295.42 293.008C293.949 295.543 293.049 298.406 293.049 300.99Z" fill="black" stroke="black" stroke-width="1.53741" stroke-linecap="round" stroke-linejoin="round"/>
<path d="M292.41 369.966V370.084C292.438 376.341 294.587 380.789 298.072 382.986L298.682 383.339C302.348 385.293 307.33 384.919 312.825 381.745C324.099 375.239 333.231 359.413 333.231 346.392C333.231 340.108 331.103 335.624 327.632 333.407L326.89 332.978C323.252 331.079 318.341 331.454 312.929 334.551C312.894 334.564 312.859 334.585 312.825 334.606C301.551 341.113 292.41 356.945 292.41 369.966Z" fill="black"/>
<path d="M292.41 369.966V370.084C292.438 376.341 294.587 380.789 298.072 382.986L298.682 383.339C302.348 385.293 307.33 384.919 312.825 381.745C324.099 375.239 333.231 359.413 333.231 346.392C333.231 340.108 331.103 335.624 327.632 333.407L326.89 332.978C323.252 331.079 318.341 331.454 312.929 334.551C312.894 334.564 312.859 334.585 312.825 334.606C301.551 341.113 292.41 356.945 292.41 369.966Z" stroke="black" stroke-width="1.53741" stroke-linecap="round" stroke-linejoin="round"/>
<path d="M278.174 361.82C278.174 368.125 280.322 372.623 283.822 374.833L284.466 375.201L298.074 382.985C294.588 380.788 292.441 376.34 292.413 370.083V369.965C292.413 356.945 301.552 341.111 312.826 334.605C312.861 334.584 312.896 334.564 312.93 334.55C318.342 331.452 323.255 331.079 326.893 332.977L313.395 325.261L312.647 324.832C308.988 322.92 304.034 323.315 298.588 326.461C287.314 332.974 278.174 348.8 278.174 361.82Z" fill="white"/>
<path d="M278.174 361.82C278.174 368.125 280.322 372.623 283.822 374.833L284.466 375.201L298.074 382.985C294.588 380.788 292.441 376.34 292.413 370.083V369.965C292.413 356.945 301.552 341.111 312.826 334.605C312.861 334.584 312.896 334.564 312.93 334.55C318.342 331.452 323.255 331.079 326.893 332.977L313.395 325.261L312.647 324.832C308.988 322.92 304.034 323.315 298.588 326.461C287.314 332.974 278.174 348.8 278.174 361.82Z" stroke="black" stroke-width="1.53741" stroke-linecap="round" stroke-linejoin="round"/>
<path d="M311.51 372.138V372.212C311.527 376.066 312.85 378.807 314.997 380.16L315.372 380.377C317.63 381.581 320.7 381.35 324.084 379.395C331.029 375.387 336.654 365.638 336.654 357.617C336.654 353.746 335.343 350.985 333.205 349.62L332.749 349.354C330.508 348.184 327.481 348.416 324.148 350.324C324.127 350.332 324.106 350.345 324.084 350.357C317.14 354.365 311.51 364.118 311.51 372.138Z" fill="black"/>
<path d="M311.51 372.138V372.212C311.527 376.066 312.85 378.807 314.997 380.16L315.372 380.377C317.63 381.581 320.7 381.35 324.084 379.395C331.029 375.387 336.654 365.638 336.654 357.617C336.654 353.746 335.343 350.985 333.205 349.62L332.749 349.354C330.508 348.184 327.481 348.416 324.148 350.324C324.127 350.332 324.106 350.345 324.084 350.357C317.14 354.365 311.51 364.118 311.51 372.138Z" stroke="black" stroke-width="1.53741" stroke-linecap="round" stroke-linejoin="round"/>
<path d="M318.479 368.064V368.099C318.411 369.909 318.932 371.22 319.838 371.894L319.997 372.003C320.954 372.609 322.29 372.555 323.798 371.698C326.891 369.94 329.523 365.462 329.678 361.694C329.754 359.876 329.24 358.556 328.337 357.875L328.143 357.743C327.193 357.154 325.875 357.208 324.391 358.044C324.382 358.048 324.372 358.054 324.363 358.059C321.269 359.817 318.634 364.297 318.479 368.064Z" fill="#CCCACA"/>
<path d="M318.479 368.064V368.099C318.411 369.909 318.932 371.22 319.838 371.894L319.997 372.003C320.954 372.609 322.29 372.555 323.798 371.698C326.891 369.94 329.523 365.462 329.678 361.694C329.754 359.876 329.24 358.556 328.337 357.875L328.143 357.743C327.193 357.154 325.875 357.208 324.391 358.044C324.382 358.048 324.372 358.054 324.363 358.059C321.269 359.817 318.634 364.297 318.479 368.064Z" stroke="black" stroke-width="1.53741" stroke-linecap="round" stroke-linejoin="round"/>
<path d="M302.738 367.123C302.738 371.007 304.061 373.777 306.216 375.139L306.613 375.366L314.995 380.161C312.848 378.807 311.525 376.067 311.508 372.213V372.141C311.508 364.12 317.138 354.367 324.083 350.359C324.104 350.347 324.125 350.333 324.147 350.325C327.48 348.417 330.507 348.186 332.748 349.356L324.433 344.604L323.973 344.339C321.719 343.161 318.667 343.405 315.312 345.342C308.368 349.354 302.738 359.103 302.738 367.123Z" fill="white"/>
<path d="M302.738 367.123C302.738 371.007 304.061 373.777 306.216 375.139L306.613 375.366L314.995 380.161C312.848 378.807 311.525 376.067 311.508 372.213V372.141C311.508 364.12 317.138 354.367 324.083 350.359C324.104 350.347 324.125 350.333 324.147 350.325C327.48 348.417 330.507 348.186 332.748 349.356L324.433 344.604L323.973 344.339C321.719 343.161 318.667 343.405 315.312 345.342C308.368 349.354 302.738 359.103 302.738 367.123Z" stroke="black" stroke-width="1.53741" stroke-linecap="round" stroke-linejoin="round"/>
<path d="M108.059 199.377C108.059 202.109 109.412 204.855 112.118 206.411L149.926 228.244L246.863 284.206C252.72 287.588 259.942 287.588 265.799 284.206L362.737 228.231L400.545 206.397C403.251 204.842 404.604 202.109 404.604 199.377C404.604 196.644 403.251 193.898 400.545 192.342L265.799 114.548C259.942 111.165 252.72 111.165 246.863 114.548L112.118 192.342C109.412 193.898 108.059 196.644 108.059 199.377Z" fill="white"/>
<path d="M108.059 199.377C108.059 202.109 109.412 204.855 112.118 206.411L149.926 228.244L246.863 284.206C252.72 287.588 259.942 287.588 265.799 284.206L362.737 228.231L400.545 206.397C403.251 204.842 404.604 202.109 404.604 199.377C404.604 196.644 403.251 193.898 400.545 192.342L265.799 114.548C259.942 111.165 252.72 111.165 246.863 114.548L112.118 192.342C109.412 193.898 108.059 196.644 108.059 199.377Z" stroke="black" stroke-width="1.53741" stroke-linecap="round" stroke-linejoin="round"/>
<path d="M141.5 170.259V170.789C141.566 173.499 142.955 176.144 145.633 177.681L153.269 182.093L246.424 235.878C252.556 239.415 260.11 239.415 266.258 235.878L359.397 182.093L367.033 177.681C369.794 176.094 371.166 173.317 371.166 170.524C371.166 167.748 369.794 164.953 367.033 163.366L266.258 105.186C260.11 101.633 252.556 101.633 246.424 105.186L145.633 163.366C142.955 164.903 141.566 167.565 141.5 170.259Z" fill="white"/>
<path d="M141.5 170.259V170.789C141.566 173.499 142.955 176.144 145.633 177.681L153.269 182.093L246.424 235.878C252.556 239.415 260.11 239.415 266.258 235.878L359.397 182.093L367.033 177.681C369.794 176.094 371.166 173.317 371.166 170.524C371.166 167.748 369.794 164.953 367.033 163.366L266.258 105.186C260.11 101.633 252.556 101.633 246.424 105.186L145.633 163.366C142.955 164.903 141.566 167.565 141.5 170.259Z" stroke="black" stroke-width="1.53741" stroke-linecap="round" stroke-linejoin="round"/>
<path d="M141.5 170.787V193.926C141.566 196.638 142.955 199.282 145.633 200.819L246.424 259.016C252.556 262.554 260.11 262.554 266.258 259.016L367.033 200.819C369.794 199.233 371.166 196.456 371.166 193.662V170.522C371.166 173.316 369.794 176.092 367.033 177.679L359.397 182.092L266.258 235.876C260.11 239.413 252.556 239.413 246.424 235.876L153.269 182.092L145.633 177.679C142.955 176.142 141.566 173.497 141.5 170.787Z" fill="#CCCACA"/>
<path d="M141.5 170.787V193.926C141.566 196.638 142.955 199.282 145.633 200.819L246.424 259.016C252.556 262.554 260.11 262.554 266.258 259.016L367.033 200.819C369.794 199.233 371.166 196.456 371.166 193.662V170.522C371.166 173.316 369.794 176.092 367.033 177.679L359.397 182.092L266.258 235.876C260.11 239.413 252.556 239.413 246.424 235.876L153.269 182.092L145.633 177.679C142.955 176.142 141.566 173.497 141.5 170.787Z" stroke="black" stroke-width="1.53741" stroke-linecap="round" stroke-linejoin="round"/>
<path d="M266.26 259.017C260.111 262.553 252.558 262.553 246.425 259.017L145.634 200.819C142.957 199.283 141.567 196.637 141.501 193.927V170.787C141.567 173.497 142.957 176.142 145.634 177.68L153.27 182.093L246.425 235.877C252.558 239.414 260.111 239.414 266.26 235.877V259.017Z" stroke="black" stroke-width="1.53741" stroke-linecap="round" stroke-linejoin="round"/>
<path d="M319.765 212.854V220.864" stroke="black" stroke-width="1.53741" stroke-linecap="round" stroke-linejoin="round"/>
<path d="M326.479 208.983V216.993" stroke="black" stroke-width="1.53741" stroke-linecap="round" stroke-linejoin="round"/>
<path d="M246.421 235.876V259.016" stroke="black" stroke-width="1.53741"/>
<path d="M157.831 196.454C157.831 198.163 156.792 198.948 155.511 198.208C154.228 197.468 153.19 195.484 153.19 193.774C153.19 192.066 154.228 191.281 155.511 192.021C156.792 192.761 157.831 194.745 157.831 196.454Z" fill="black"/>
<path d="M167.817 202.22C167.817 203.929 166.778 204.714 165.497 203.974C164.215 203.234 163.177 201.249 163.177 199.54C163.177 197.832 164.215 197.047 165.497 197.787C166.778 198.527 167.817 200.511 167.817 202.22Z" fill="black"/>
<path d="M177.795 207.98C177.795 209.688 176.756 210.474 175.475 209.734C174.192 208.994 173.154 207.01 173.154 205.3C173.154 203.592 174.192 202.807 175.475 203.547C176.756 204.287 177.795 206.271 177.795 207.98Z" fill="black"/>
<path d="M36.665 478.104L-2.1915 423.959" stroke="black" stroke-width="1.53741" stroke-linecap="round" stroke-linejoin="round"/>
<path d="M88.1963 458.948L29.1983 408.008" stroke="black" stroke-width="1.53741" stroke-linecap="round" stroke-linejoin="round"/>
<path d="M134 432.031L61.0673 389.896" stroke="black" stroke-width="1.53741" stroke-linecap="round" stroke-linejoin="round"/>
<path d="M169.79 410.587L96.8574 368.452" stroke="black" stroke-width="1.53741" stroke-linecap="round" stroke-linejoin="round"/>
<path d="M7.05203 430.533C7.05203 430.533 26.3934 458.16 28.874 461.483C21.9734 468.699 -46.7457 477.98 -71.7163 463.09C-71.7163 463.09 -52.0535 436.017 -50.8872 431.069C-43.2477 432.644 -15.9968 437.88 7.05203 430.533Z" fill="white"/>
<path d="M7.05203 430.533C7.05203 430.533 26.3934 458.16 28.874 461.483C21.9734 468.699 -46.7457 477.98 -71.7163 463.09C-71.7163 463.09 -52.0535 436.017 -50.8872 431.069C-43.2477 432.644 -15.9968 437.88 7.05203 430.533Z" stroke="black" stroke-width="1.53741" stroke-linecap="round" stroke-linejoin="round"/>
<path d="M14.4242 461.784L5.93954 448.554M3.4284 445.313L-1.38852 436.343M7.90113 463.099L3.94881 455.954M1.90881 452.07L-3.25098 443.139M-8.14002 442.918L-10.6073 437.799M-8.98558 465.52L-13.0489 455.148M2.12859 463.947L-6.49361 446.323M-3.37698 464.727L-9.76531 450.355M-11.5805 447.033L-15.5361 438.549" stroke="#CCCACA" stroke-width="1.53741" stroke-linecap="round" stroke-linejoin="round"/>
<path d="M124.728 420.537C114.319 431.06 60.3747 457.661 50.5698 456.992C47.0483 452.24 28.9017 431.083 26.1777 426.701C37.4298 423.771 77.7127 399.717 83.361 396.486C85.4525 397.955 119.119 417.239 124.728 420.537Z" fill="white"/>
<path d="M124.728 420.537C114.319 431.06 60.3747 457.661 50.5698 456.992C47.0483 452.24 28.9017 431.083 26.1777 426.701C37.4298 423.771 77.7127 399.717 83.361 396.486C85.4525 397.955 119.119 417.239 124.728 420.537Z" stroke="black" stroke-width="1.53741" stroke-linecap="round" stroke-linejoin="round"/>
<path d="M109.443 423.954L96.7697 414.776M92.9515 412.451L84.8826 406.124M103.979 426.858L97.5222 421.953M94.1157 419.241L85.8394 413.199M81.1592 414.998L74.7033 410.093M89.7372 434.224L81.4608 428.182M99.5409 429.363L84.0122 417.432M94.8332 431.94L82.4846 422.452M79.5031 420.162L70.7119 413.407" stroke="#CCCACA" stroke-width="1.53741" stroke-linecap="round" stroke-linejoin="round"/>
<path d="M197.453 377.014L138.4 411.642L96.5024 387.422L156.674 353.267L197.453 377.014Z" fill="white"/>
<path d="M197.453 377.014L138.4 411.642L96.5024 387.422L156.674 353.267L197.453 377.014Z" stroke="black" stroke-width="1.53741" stroke-linecap="round" stroke-linejoin="round"/>
<path d="M181.416 379.316L168.594 370.344M164.466 367.888L156.07 362.014M176.232 381.663L169.522 377.119M165.974 374.598L157.385 369.019M152.792 371.065L146.082 366.522M162.35 389.779L153.761 384.199M171.917 384.401L155.77 373.34M167.334 387.226L154.495 378.43M151.395 376.306L142.254 370.043" stroke="#CCCACA" stroke-width="1.53741" stroke-linecap="round" stroke-linejoin="round"/>
<path d="M348.509 142.89L257.084 87.751L163.886 144.009L256.583 197.188L348.509 142.89Z" fill="white"/>
<path d="M348.509 142.891L257.084 87.751L163.886 144.009L256.583 197.188L348.509 142.891Z" stroke="black" stroke-width="1.53741" stroke-linecap="round" stroke-linejoin="round"/>
<path d="M256.817 128.204C226.729 128.204 202.147 108.216 200.521 88.7749C206.809 104.843 229.627 117.368 256.817 117.368C284.007 117.368 306.824 104.843 313.112 88.7749C311.486 108.216 286.905 128.204 256.817 128.204Z" fill="black"/>
<path d="M256.817 128.204C226.729 128.204 202.147 108.216 200.521 88.7749C206.809 104.843 229.627 117.368 256.817 117.368C284.007 117.368 306.824 104.843 313.112 88.7749C311.486 108.216 286.905 128.204 256.817 128.204Z" stroke="black" stroke-width="1.53741" stroke-linecap="round" stroke-linejoin="round"/>
<path d="M256.521 157.212C283.711 157.212 306.824 147.564 313.112 131.496C311.486 150.936 286.609 167.185 256.521 167.185C226.433 167.185 201.851 150.511 200.225 131.071C206.513 147.139 229.331 157.212 256.521 157.212Z" fill="black"/>
<path d="M256.521 157.212C283.711 157.212 306.824 147.564 313.112 131.496C311.486 150.936 286.609 167.185 256.521 167.185C226.433 167.185 201.851 150.511 200.225 131.071C206.513 147.139 229.331 157.212 256.521 157.212Z" stroke="black" stroke-width="1.53741" stroke-linecap="round" stroke-linejoin="round"/>
<path d="M199.61 81.3896C199.61 101.601 225.266 117.987 256.914 117.987C288.562 117.987 314.218 101.601 314.218 81.3896C314.218 61.1777 288.562 44.792 256.914 44.792C225.266 44.792 199.61 61.1777 199.61 81.3896Z" fill="white"/>
<path d="M199.61 81.3896C199.61 101.601 225.266 117.987 256.914 117.987C288.562 117.987 314.218 101.601 314.218 81.3896C314.218 61.1777 288.562 44.792 256.914 44.792C225.266 44.792 199.61 61.1777 199.61 81.3896Z" stroke="black" stroke-width="1.53741" stroke-linecap="round" stroke-linejoin="round"/>
<path d="M256.817 123.653C286.905 123.653 311.623 107.623 313.249 88.1826L313.113 131.497C306.826 147.565 284.007 159.471 256.817 159.471C229.628 159.471 206.81 147.565 200.523 131.497V121.427V89.5255C200.523 89.476 200.517 89.3453 200.523 89.3948C202.706 108.483 227.115 123.653 256.817 123.653Z" fill="#CCCACA"/>
<path d="M256.817 123.653C286.905 123.653 311.623 107.623 313.249 88.1826L313.113 131.497C306.826 147.565 284.007 159.471 256.817 159.471C229.628 159.471 206.81 147.565 200.523 131.497V121.427V89.5255C200.523 89.476 200.517 89.3453 200.523 89.3948C202.706 108.483 227.115 123.653 256.817 123.653Z" stroke="black" stroke-width="1.53741" stroke-linecap="round" stroke-linejoin="round"/>
<path d="M256.909 197.188L348.509 142.891V177.266L256.909 231.465V197.188Z" fill="#CCCACA"/>
<path d="M256.909 197.188L348.509 142.891V177.266L256.909 231.465V197.188Z" stroke="black" stroke-width="1.53741" stroke-linecap="round" stroke-linejoin="round"/>
<path d="M256.91 197.188L164.073 143.511V177.266L256.91 231.466V197.188Z" fill="white"/>
<path d="M256.91 197.188L164.073 143.511V177.266L256.91 231.466V197.188Z" stroke="black" stroke-width="1.53741" stroke-linecap="round" stroke-linejoin="round"/>
<path d="M256.817 96.941C281.234 96.941 301.271 85.6241 303.402 71.189C303.52 72.0933 303.593 73.0064 303.593 73.9312C303.593 91.1587 282.651 105.124 256.817 105.124C230.984 105.124 210.042 91.1587 210.042 73.9312C210.042 73.0064 210.114 72.0933 210.233 71.189C212.364 85.6241 232.401 96.941 256.817 96.941Z" fill="#CCCACA"/>
<path d="M256.817 96.941C281.234 96.941 301.271 85.6241 303.402 71.189C303.52 72.0933 303.593 73.0064 303.593 73.9312C303.593 91.1587 282.651 105.124 256.817 105.124C230.984 105.124 210.042 91.1587 210.042 73.9312C210.042 73.0064 210.114 72.0933 210.233 71.189C212.364 85.6241 232.401 96.941 256.817 96.941Z" stroke="black" stroke-width="1.53741" stroke-linecap="round" stroke-linejoin="round"/>
<path d="M210.032 69.2606C210.032 84.8912 230.977 97.5622 256.815 97.5622C282.652 97.5622 303.598 84.8912 303.598 69.2606C303.598 53.63 282.652 40.959 256.815 40.959C230.977 40.959 210.032 53.63 210.032 69.2606Z" fill="white"/>
<path d="M210.032 69.2606C210.032 84.8912 230.977 97.5622 256.815 97.5622C282.652 97.5622 303.598 84.8912 303.598 69.2606C303.598 53.63 282.652 40.959 256.815 40.959C230.977 40.959 210.032 53.63 210.032 69.2606Z" stroke="black" stroke-width="1.53741" stroke-linecap="round" stroke-linejoin="round"/>
<path d="M291.785 70.7979C291.785 60.8549 276.13 52.7949 256.82 52.7949C237.509 52.7949 221.856 60.8549 221.856 70.7979C221.856 80.741 237.509 86.3233 256.82 86.3233C276.13 86.3233 291.785 80.741 291.785 70.7979Z" fill="#CCCACA"/>
<path d="M291.785 70.7979C291.785 60.8549 276.13 52.7949 256.82 52.7949C237.509 52.7949 221.856 60.8549 221.856 70.7979C221.856 80.741 237.509 86.3233 256.82 86.3233C276.13 86.3233 291.785 80.741 291.785 70.7979Z" stroke="black" stroke-width="1.53741" stroke-linecap="round" stroke-linejoin="round"/>
<path d="M256.821 55.3354C238.572 55.3354 223.597 62.312 222.004 71.21C221.916 70.6525 221.862 70.0901 221.862 69.5196C221.862 58.9002 237.513 50.292 256.821 50.292C276.129 50.292 291.78 58.9002 291.78 69.5196C291.78 70.0901 291.726 70.6525 291.638 71.21C290.045 62.312 275.07 55.3354 256.821 55.3354Z" fill="black"/>
<path d="M256.443 126.907C257.791 126.907 258.884 128.012 258.884 129.375V152.462C258.884 153.825 257.791 154.93 256.443 154.93C255.095 154.93 254.003 153.825 254.003 152.462V129.375C254.003 128.012 255.095 126.907 256.443 126.907Z" fill="black"/>
<path d="M210.505 112.651C211.609 112.651 212.504 113.693 212.504 114.977V136.738C212.504 138.022 211.609 139.062 210.505 139.062C209.401 139.062 208.506 138.022 208.506 136.738V114.977C208.506 113.693 209.401 112.651 210.505 112.651Z" fill="black"/>
<path d="M303.265 112.651C304.369 112.651 305.264 113.693 305.264 114.977V136.738C305.264 138.022 304.369 139.062 303.265 139.062C302.161 139.062 301.266 138.022 301.266 136.738V114.977C301.266 113.693 302.161 112.651 303.265 112.651Z" fill="black"/>
<path d="M316.652 143.556C316.652 143.982 316.732 144.411 316.892 144.83C317.297 145.894 318.217 146.908 319.652 147.736C323.649 150.045 330.131 150.045 334.128 147.736C335.563 146.908 336.484 145.894 336.888 144.83C337.048 144.411 337.128 143.982 337.128 143.556C337.128 142.043 336.129 140.533 334.128 139.377C330.131 137.069 323.649 137.069 319.652 139.377C317.653 140.533 316.652 142.043 316.652 143.556Z" fill="#CCCACA"/>
<path d="M316.652 143.556C316.652 143.982 316.732 144.411 316.892 144.83C317.297 145.894 318.217 146.908 319.652 147.736C323.649 150.045 330.131 150.045 334.128 147.736C335.563 146.908 336.484 145.894 336.888 144.83C337.048 144.411 337.128 143.982 337.128 143.556C337.128 142.043 336.129 140.533 334.128 139.377C330.131 137.069 323.649 137.069 319.652 139.377C317.653 140.533 316.652 142.043 316.652 143.556Z" stroke="black" stroke-width="1.53741" stroke-miterlimit="10" stroke-linecap="round"/>
<path d="M246.848 184.59C246.848 185.017 246.929 185.446 247.089 185.864C247.494 186.929 248.413 187.943 249.848 188.771C253.845 191.079 260.327 191.079 264.324 188.771C265.76 187.943 266.681 186.929 267.085 185.864C267.244 185.446 267.324 185.017 267.324 184.59C267.324 183.078 266.325 181.567 264.324 180.412C260.327 178.104 253.845 178.104 249.848 180.412C247.849 181.567 246.848 183.078 246.848 184.59Z" fill="#CCCACA"/>
<path d="M246.848 184.59C246.848 185.017 246.929 185.446 247.089 185.864C247.494 186.929 248.413 187.943 249.848 188.771C253.845 191.079 260.327 191.079 264.324 188.771C265.76 187.943 266.681 186.929 267.085 185.864C267.244 185.446 267.324 185.017 267.324 184.59C267.324 183.078 266.325 181.567 264.324 180.412C260.327 178.104 253.845 178.104 249.848 180.412C247.849 181.567 246.848 183.078 246.848 184.59Z" stroke="black" stroke-width="1.53741" stroke-miterlimit="10" stroke-linecap="round"/>
<path d="M176.296 144.582C176.296 145.009 176.376 145.438 176.536 145.857C176.941 146.922 177.86 147.935 179.296 148.763C183.293 151.071 189.774 151.071 193.772 148.763C195.207 147.935 196.128 146.922 196.532 145.857C196.692 145.438 196.771 145.009 196.771 144.582C196.771 143.071 195.772 141.56 193.772 140.404C189.774 138.096 183.293 138.096 179.296 140.404C177.297 141.56 176.296 143.071 176.296 144.582Z" fill="#CCCACA"/>
<path d="M176.296 144.582C176.296 145.009 176.376 145.438 176.536 145.857C176.941 146.922 177.86 147.935 179.296 148.763C183.293 151.071 189.774 151.071 193.772 148.763C195.207 147.935 196.128 146.922 196.532 145.857C196.692 145.438 196.771 145.009 196.771 144.582C196.771 143.071 195.772 141.56 193.772 140.404C189.774 138.096 183.293 138.096 179.296 140.404C177.297 141.56 176.296 143.071 176.296 144.582Z" stroke="black" stroke-width="1.53741" stroke-miterlimit="10" stroke-linecap="round"/>
<path d="M180.852 135.373C180.852 132.233 183.397 129.688 186.538 129.688C189.678 129.688 192.224 132.233 192.224 135.373V144.579C192.224 144.74 192.179 144.901 192.09 145.058C191.866 145.459 191.355 145.84 190.558 146.151C188.338 147.019 184.738 147.019 182.518 146.151C181.721 145.84 181.21 145.459 180.985 145.058C180.897 144.901 180.852 144.74 180.852 144.58V135.373Z" fill="#02EEC4"/>
<path d="M180.852 135.373C180.852 132.233 183.397 129.688 186.538 129.688C189.678 129.688 192.224 132.233 192.224 135.373V144.579C192.224 144.74 192.179 144.901 192.09 145.058C191.866 145.459 191.355 145.84 190.558 146.151C188.338 147.019 184.738 147.019 182.518 146.151C181.721 145.84 181.21 145.459 180.985 145.058C180.897 144.901 180.852 144.74 180.852 144.58V135.373Z" stroke="black" stroke-width="1.53741" stroke-linecap="round" stroke-linejoin="round"/>
<path d="M251.39 175.387C251.39 172.247 253.936 169.701 257.076 169.701C260.216 169.701 262.762 172.247 262.762 175.387V184.593C262.762 184.753 262.717 184.914 262.629 185.072C262.404 185.472 261.893 185.854 261.096 186.165C258.876 187.033 255.276 187.033 253.056 186.165C252.259 185.854 251.748 185.472 251.523 185.072C251.435 184.914 251.39 184.754 251.39 184.593V175.387Z" fill="#02EEC4"/>
<path d="M251.39 175.387C251.39 172.247 253.936 169.701 257.076 169.701C260.216 169.701 262.762 172.247 262.762 175.387V184.593C262.762 184.753 262.717 184.914 262.629 185.072C262.404 185.472 261.893 185.854 261.096 186.165C258.876 187.033 255.276 187.033 253.056 186.165C252.259 185.854 251.748 185.472 251.523 185.072C251.435 184.914 251.39 184.754 251.39 184.593V175.387Z" stroke="black" stroke-width="1.53741" stroke-linecap="round" stroke-linejoin="round"/>
<path d="M321.2 134.348C321.2 131.208 323.746 128.662 326.886 128.662C330.025 128.662 332.571 131.208 332.571 134.348V143.554C332.571 143.714 332.527 143.875 332.438 144.033C332.214 144.433 331.703 144.815 330.906 145.126C328.686 145.994 325.086 145.994 322.865 145.126C322.068 144.815 321.558 144.433 321.333 144.033C321.244 143.875 321.2 143.715 321.2 143.554V134.348Z" fill="#02EEC4"/>
<path d="M321.2 134.348C321.2 131.208 323.746 128.662 326.886 128.662C330.025 128.662 332.571 131.208 332.571 134.348V143.554C332.571 143.714 332.527 143.875 332.438 144.033C332.214 144.433 331.703 144.815 330.906 145.126C328.686 145.994 325.086 145.994 322.865 145.126C322.068 144.815 321.558 144.433 321.333 144.033C321.244 143.875 321.2 143.715 321.2 143.554V134.348Z" stroke="black" stroke-width="1.53741" stroke-linecap="round" stroke-linejoin="round"/>
<path d="M326.884 134.406V145.775" stroke="black" stroke-width="1.53741" stroke-linecap="round" stroke-linejoin="round"/>
<path d="M257.08 175.445V186.814" stroke="black" stroke-width="1.53741" stroke-linecap="round" stroke-linejoin="round"/>
<path d="M186.535 135.436V146.805" stroke="black" stroke-width="1.53741" stroke-linecap="round" stroke-linejoin="round"/>
<g opacity="0.858341">
<mask id="mask0_1297_8448" style="mask-type:luminance" maskUnits="userSpaceOnUse" x="179" y="-222" width="154" height="311">
<path d="M332.712 -189.509C332.541 -188.001 327.476 -155.529 326.934 -154.074L291.119 71.2967C290.331 75.5769 290.585 74.9166 289.095 77.0741C285.154 82.779 273.243 88.0014 256.413 88.0014C243.442 88.0014 232.068 84.138 226.06 78.5161C223.863 76.4596 222.59 73.5966 222.101 70.6271L185.096 -153.983C184.532 -155.467 180.113 -193.55 179.901 -195.084C177.614 -211.644 221.94 -222 261.572 -222C301.204 -222 334.948 -209.166 332.712 -189.509Z" fill="url(#paint0_linear_1297_8448)"/>
</mask>
<g mask="url(#mask0_1297_8448)">
<path d="M332.709 -189.509C332.538 -188 327.473 -155.529 326.931 -154.073L291.116 71.2972C290.328 75.5774 290.582 74.9171 289.092 77.0746C285.152 82.7795 273.241 88.0019 256.41 88.0019C243.439 88.0019 232.065 84.1385 226.058 78.5166C223.86 76.4601 222.588 73.5971 222.098 70.6276L185.093 -153.983C184.529 -155.467 180.11 -193.549 179.898 -195.084C177.611 -211.643 221.937 -222 261.569 -222C301.201 -222 334.945 -209.166 332.709 -189.509Z" fill="url(#paint1_linear_1297_8448)"/>
</g>
</g>
<path d="M235.883 57.5515C241.265 58.0467 241.666 58.4481 242.161 63.8295C242.657 58.4481 243.058 58.0467 248.439 57.5515C243.058 57.0563 242.657 56.6549 242.161 51.2734C241.666 56.6549 241.265 57.0563 235.883 57.5515Z" fill="#02EEC4"/>
<g opacity="0.677237">
<path d="M260.913 66.4489C262.357 66.5819 262.465 66.6896 262.598 68.1342C262.731 66.6896 262.839 66.5819 264.283 66.4489C262.839 66.316 262.731 66.2083 262.598 64.7637C262.465 66.2083 262.357 66.316 260.913 66.4489Z" fill="#02EEC4"/>
</g>
</g>
<defs>
<linearGradient id="paint0_linear_1297_8448" x1="253.702" y1="90.6426" x2="259.278" y2="-189.155" gradientUnits="userSpaceOnUse">
<stop stop-color="white" stop-opacity="0.6"/>
<stop offset="0.34" stop-color="white" stop-opacity="0.45"/>
<stop offset="0.69" stop-color="white" stop-opacity="0.3"/>
<stop offset="0.84" stop-color="white" stop-opacity="0.15"/>
<stop offset="1" stop-color="white" stop-opacity="0"/>
</linearGradient>
<linearGradient id="paint1_linear_1297_8448" x1="253.699" y1="90.6431" x2="259.275" y2="-189.154" gradientUnits="userSpaceOnUse">
<stop stop-color="#02EEC4"/>
<stop offset="0.12" stop-color="#02EEC4"/>
<stop offset="0.69" stop-color="#BABFF8"/>
<stop offset="0.85" stop-color="#BABFF8"/>
<stop offset="1" stop-color="#BABFF8"/>
</linearGradient>
<clipPath id="clip0_1297_8448">
<rect width="330" height="548" rx="15" fill="white"/>
</clipPath>
</defs>
</svg>
