<svg width="253" height="184" viewBox="0 0 253 184" fill="none" xmlns="http://www.w3.org/2000/svg">
<path d="M193.265 135.445V135.753C193.227 137.327 192.419 138.863 190.861 139.756L186.419 142.319L132.229 173.559C128.662 175.614 124.268 175.614 120.692 173.559L66.5111 142.319L62.0691 139.756C60.4631 138.834 59.665 137.221 59.665 135.599C59.665 133.986 60.4631 132.363 62.0691 131.441L120.692 97.648C124.268 95.5842 128.662 95.5842 132.229 97.648L190.861 131.441C192.419 132.334 193.227 133.88 193.265 135.445Z" fill="#1228F3"/>
<path d="M208.733 97.034V97.4136C208.686 99.3545 207.692 101.248 205.774 102.349L200.306 105.509L133.596 144.025C129.205 146.558 123.795 146.558 119.393 144.025L52.6943 105.509L47.226 102.349C45.249 101.213 44.2666 99.2241 44.2666 97.2238C44.2666 95.2359 45.249 93.2342 47.226 92.0982L119.393 50.4347C123.795 47.8903 129.205 47.8903 133.596 50.4347L205.774 92.0982C207.692 93.1987 208.686 95.1048 208.733 97.034Z" fill="white"/>
<path d="M208.733 97.0341V97.4136C208.686 99.3545 207.692 101.248 205.774 102.349L200.306 105.509L133.596 144.025C129.205 146.558 123.795 146.558 119.393 144.025L52.6943 105.509L47.226 102.349C45.249 101.213 44.2666 99.2241 44.2666 97.2238C44.2666 95.2359 45.249 93.2342 47.226 92.0982L119.393 50.4347C123.795 47.8903 129.205 47.8903 133.596 50.4347L205.774 92.0982C207.692 93.1987 208.686 95.1048 208.733 97.0341Z" stroke="#1228F3" stroke-width="0.435378" stroke-linecap="round" stroke-linejoin="round"/>
<path d="M208.733 97.4123V113.983C208.686 115.925 207.692 117.818 205.774 118.919L133.596 160.595C129.205 163.128 123.795 163.128 119.393 160.595L47.226 118.919C45.249 117.783 44.2666 115.794 44.2666 113.794V97.2232C44.2666 99.2235 45.249 101.211 47.226 102.348L52.6943 105.508L119.393 144.024C123.795 146.557 129.205 146.557 133.596 144.024L200.306 105.508L205.774 102.348C207.692 101.248 208.686 99.3532 208.733 97.4123Z" fill="#C2C7FB"/>
<path d="M119.436 160.638L47.2277 119.02C45.2496 117.886 44.2666 115.9 44.2666 113.902V97.3546C44.2666 99.352 45.2496 101.337 47.2277 102.472L52.6992 105.628L119.436 144.09V160.638Z" fill="#C2C7FB"/>
<path d="M208.733 97.4123V113.983C208.686 115.925 207.692 117.818 205.774 118.919L133.596 160.595C129.205 163.128 123.795 163.128 119.393 160.595L47.226 118.919C45.249 117.783 44.2666 115.794 44.2666 113.794V97.2232C44.2666 99.2235 45.249 101.211 47.226 102.348L52.6943 105.508L119.393 144.024C123.795 146.557 129.205 146.557 133.596 144.024L200.306 105.508L205.774 102.348C207.692 101.248 208.686 99.3532 208.733 97.4123Z" stroke="#1228F3" stroke-width="0.6" stroke-linecap="round" stroke-linejoin="round"/>
<path d="M119.392 160.595C123.795 163.127 129.204 163.127 133.596 160.595L205.774 118.919C207.691 117.818 208.686 115.924 208.733 113.983V97.4122C208.686 99.353 207.691 101.247 205.774 102.348L200.305 105.508L133.596 144.024C129.204 146.557 123.795 146.557 119.392 144.024V160.595Z" stroke="#1228F3" stroke-width="0.6" stroke-linecap="round" stroke-linejoin="round"/>
<path d="M81.0757 127.538V133.274" stroke="#1228F3" stroke-width="1.8" stroke-linecap="round" stroke-linejoin="round"/>
<path d="M76.2632 124.765V130.501" stroke="#1228F3" stroke-width="1.8" stroke-linecap="round" stroke-linejoin="round"/>
<path d="M71.4663 121.997V127.733" stroke="#1228F3" stroke-width="1.8" stroke-linecap="round" stroke-linejoin="round"/>
<path d="M66.6694 119.221V124.957" stroke="#1228F3" stroke-width="1.8" stroke-linecap="round" stroke-linejoin="round"/>
<path d="M61.8647 116.452V122.188" stroke="#1228F3" stroke-width="1.8" stroke-linecap="round" stroke-linejoin="round"/>
<path d="M133.603 144.023V160.594" stroke="#1228F3" stroke-width="0.6"/>
<path d="M197.04 115.794C197.04 117.018 197.784 117.58 198.702 117.05C199.62 116.52 200.363 115.099 200.363 113.875C200.363 112.652 199.62 112.09 198.702 112.619C197.784 113.149 197.04 114.57 197.04 115.794Z" fill="#1228F3"/>
<path d="M189.884 119.921C189.884 121.145 190.628 121.707 191.545 121.177C192.464 120.647 193.207 119.226 193.207 118.002C193.207 116.778 192.464 116.217 191.545 116.746C190.628 117.276 189.884 118.698 189.884 119.921Z" fill="#1228F3"/>
<path d="M182.743 124.051C182.743 125.275 183.487 125.837 184.405 125.307C185.323 124.778 186.066 123.356 186.066 122.132C186.066 120.909 185.323 120.347 184.405 120.877C183.487 121.407 182.743 122.827 182.743 124.051Z" fill="#1228F3"/>
<path d="M93.876 88.1032L137.714 113.534" stroke="#A4ACFF" stroke-width="0.554239" stroke-linecap="round"/>
<path d="M71.2197 101.624L115.058 127.055" stroke="#A4ACFF" stroke-width="0.554239" stroke-linecap="round"/>
<path d="M115.798 77.1408L159.636 102.572" stroke="#A4ACFF" stroke-width="0.554239" stroke-linecap="round"/>
<path d="M136.267 63.6198L180.105 89.0508" stroke="#A4ACFF" stroke-width="0.554239" stroke-linecap="round"/>
<path d="M130.444 126.499L183.092 96.0929" stroke="#A4ACFF" stroke-width="0.554239" stroke-linecap="round"/>
<path d="M99.4441 109.612L152.092 79.2067" stroke="#A4ACFF" stroke-width="0.554239" stroke-linecap="round"/>
<path d="M71.6457 93.4954L133.197 57.8928" stroke="#A4ACFF" stroke-width="0.554239" stroke-linecap="round"/>
<path d="M130.323 69.1252C130.095 69.2576 129.813 69.2576 129.585 69.1252L116.033 61.2555C115.545 60.9723 115.545 60.268 116.033 59.9848L129.585 52.1152C129.813 51.9827 130.095 51.9827 130.323 52.1151L143.877 59.9848C144.365 60.268 144.365 60.9723 143.877 61.2555L130.323 69.1252Z" fill="url(#paint0_linear_2570_22981)"/>
<g style="mix-blend-mode:multiply">
<path d="M129.959 65.6205L121.095 60.5022L129.959 55.384L138.825 60.5022L129.959 65.6205Z" fill="#1228F3" fill-opacity="0.12"/>
</g>
<path d="M129.948 52.8079L121.349 47.8426L129.948 42.8786L138.547 47.8426L129.948 52.8079Z" fill="#7075FF"/>
<g style="mix-blend-mode:soft-light">
<path d="M132.355 49.2754L132.447 49.4345C132.45 49.4324 132.454 49.4303 132.458 49.428C132.477 49.4171 132.498 49.4047 132.52 49.3914C132.567 49.3626 132.613 49.3331 132.656 49.3036C132.733 49.2529 132.805 49.1991 132.872 49.145C132.899 49.1242 132.925 49.1019 132.948 49.0831C132.952 49.0792 132.956 49.0755 132.961 49.072L132.961 49.072L132.963 49.0698C133.112 48.94 133.238 48.8013 133.341 48.6567C133.368 48.6192 133.392 48.5814 133.413 48.5468L133.413 48.5462C133.572 48.2856 133.654 48.0083 133.654 47.7261C133.654 47.0753 133.223 46.464 132.446 46.0176L132.404 45.9931H132.403C131.63 45.5625 130.64 45.3522 129.66 45.3522C128.661 45.3522 127.652 45.5705 126.873 46.0175L126.873 46.0176C126.096 46.4646 125.666 47.0764 125.665 47.7261V47.7261V47.7261V47.7261V47.7261V47.7261V47.7261V47.7261V47.7261V47.7262V47.7262V47.7262V47.7262V47.7262V47.7262V47.7262V47.7262V47.7262V47.7262V47.7262V47.7262V47.7262V47.7262V47.7263V47.7263V47.7263V47.7263V47.7263V47.7263V47.7263V47.7263V47.7263V47.7263V47.7263V47.7263V47.7263V47.7263V47.7264V47.7264V47.7264V47.7264V47.7264V47.7264V47.7264V47.7264V47.7264V47.7264V47.7264V47.7264V47.7264V47.7264V47.7265V47.7265V47.7265V47.7265V47.7265V47.7265V47.7265V47.7265V47.7265V47.7265V47.7265V47.7265V47.7265V47.7265V47.7266V47.7266V47.7266V47.7266V47.7266V47.7266V47.7266V47.7266V47.7266V47.7266V47.7266V47.7266V47.7266V47.7266V47.7267V47.7267V47.7267V47.7267V47.7267V47.7267V47.7267V47.7267V47.7267V47.7267V47.7267V47.7267V47.7267V47.7267V47.7268V47.7268V47.7268V47.7268V47.7268V47.7268V47.7268V47.7268V47.7268V47.7268V47.7268V47.7268V47.7268C125.665 47.7278 125.665 47.7289 125.665 47.7299V47.7794C125.665 47.7963 125.667 47.8105 125.668 47.8158L125.668 47.816L125.669 47.8191C125.671 47.8537 125.674 47.8875 125.679 47.9216L125.679 47.9217L125.679 47.9236C125.681 47.9395 125.684 47.9612 125.689 47.9838C125.695 48.0216 125.704 48.0579 125.712 48.0913L125.712 48.0913L125.713 48.0953L125.713 48.0968C125.717 48.1113 125.722 48.13 125.728 48.1489C125.74 48.1857 125.752 48.2238 125.767 48.2629L125.767 48.2629L125.767 48.265C125.77 48.2726 125.773 48.2799 125.775 48.285L125.776 48.2856L125.781 48.2981L125.781 48.2981L125.782 48.2997C125.799 48.3442 125.819 48.389 125.843 48.4343L125.842 48.4343L125.844 48.4376C125.846 48.4406 125.848 48.4438 125.849 48.447C125.862 48.4709 125.877 48.4991 125.894 48.5278L125.894 48.5278L125.898 48.5334L125.907 48.5476L125.907 48.5483C125.911 48.5539 125.915 48.5615 125.92 48.5695C125.937 48.5963 125.957 48.6271 125.979 48.6576C126.146 48.8925 126.375 49.11 126.663 49.3033C126.708 49.3332 126.754 49.3627 126.8 49.3908L126.8 49.3909L126.801 49.3918C126.814 49.3998 126.827 49.4074 126.839 49.414L126.839 49.4144C126.851 49.4211 126.861 49.4268 126.871 49.4327L126.871 49.4327L126.873 49.4342C126.874 49.4348 126.875 49.4354 126.876 49.436C126.888 49.4427 126.905 49.4528 126.925 49.4622C127.696 49.8908 128.683 50.1003 129.66 50.1003C130.638 50.1003 131.624 49.8908 132.396 49.4622C132.415 49.4528 132.432 49.4427 132.444 49.436C132.445 49.4354 132.446 49.4348 132.447 49.4342L132.355 49.2754ZM132.355 49.2754L132.353 49.2767C132.339 49.2848 132.326 49.2923 132.312 49.2987L132.424 49.2349C132.405 49.2465 132.386 49.2573 132.367 49.2683C132.363 49.2706 132.359 49.273 132.355 49.2754ZM125.669 47.8211C125.669 47.8212 125.669 47.8212 125.669 47.8211L125.669 47.8211Z" fill="#00FFCC" stroke="#00EABB" stroke-width="0.367344"/>
<path d="M131.716 47.5934C131.826 47.4997 131.974 47.4291 132.141 47.3903L130.022 46.1636C130.003 46.1525 129.981 46.1441 129.956 46.1389C129.932 46.1337 129.907 46.1318 129.881 46.1332C129.856 46.1347 129.831 46.1394 129.808 46.1473C129.785 46.1551 129.764 46.1659 129.747 46.179L129.34 46.4916C129.323 46.5047 129.31 46.5199 129.301 46.5362C129.293 46.5525 129.289 46.5697 129.291 46.5868C129.292 46.6038 129.298 46.6204 129.31 46.6355C129.321 46.6506 129.336 46.6641 129.355 46.675L131.474 47.9018C131.508 47.7862 131.593 47.6789 131.716 47.5933" fill="#141BEB"/>
<path d="M128.344 46.8118C128.234 46.9054 128.087 46.976 127.92 47.0146L130.039 48.2414C130.057 48.2525 130.08 48.2608 130.104 48.266C130.128 48.2712 130.153 48.2732 130.179 48.2717C130.204 48.2703 130.229 48.2655 130.252 48.2577C130.275 48.2498 130.296 48.2391 130.313 48.226L130.72 47.9134C130.737 47.9003 130.751 47.8851 130.759 47.8688C130.767 47.8524 130.771 47.8352 130.77 47.8182C130.768 47.8012 130.762 47.7846 130.751 47.7695C130.739 47.7543 130.724 47.7409 130.705 47.7299L128.586 46.5032C128.552 46.6187 128.467 46.7261 128.344 46.8116" fill="#141BEB"/>
<path d="M129.976 48.929C130.086 48.8354 130.233 48.7647 130.4 48.7259L128.281 47.4992C128.262 47.4881 128.24 47.4798 128.216 47.4746C128.192 47.4694 128.167 47.4674 128.141 47.4689C128.116 47.4703 128.091 47.4751 128.068 47.4829C128.045 47.4908 128.024 47.5015 128.007 47.5146L127.599 47.8272C127.582 47.8403 127.569 47.8555 127.561 47.8718C127.552 47.8882 127.549 47.9054 127.55 47.9224C127.552 47.9394 127.558 47.956 127.569 47.9711C127.58 47.9863 127.596 47.9997 127.615 48.0107L129.734 49.2374C129.768 49.1218 129.852 49.0145 129.976 48.929" fill="#141BEB"/>
</g>
<path d="M129.949 52.9877C129.917 52.9877 129.887 52.9792 129.859 52.9634L121.259 47.9981C121.203 47.9654 121.169 47.9058 121.169 47.8415C121.169 47.7771 121.203 47.7176 121.259 47.6848L129.859 42.722C129.915 42.6893 129.984 42.6893 130.04 42.722L138.639 47.6873C138.695 47.7201 138.729 47.7796 138.729 47.8439C138.729 47.9083 138.695 47.9678 138.639 48.0006L130.04 52.9658C130.012 52.9816 129.98 52.9901 129.95 52.9901L129.949 52.9877ZM121.711 47.8427L129.949 52.5991L138.187 47.8427L129.949 43.0863L121.711 47.8427Z" fill="#141BEB"/>
<path d="M129.949 52.7604L121.349 47.8425V57.7244L129.949 62.6896L138.548 57.7244V47.8425L129.949 52.7604Z" fill="#464CFF"/>
<path d="M138.598 57.8456L129.849 62.8196V52.8729L138.598 47.9465V57.8456Z" fill="#141BEB"/>
<path d="M129.949 62.8699C129.917 62.8699 129.887 62.8614 129.859 62.8456L121.259 57.8804C121.203 57.8476 121.169 57.7881 121.169 57.7237V47.843C121.169 47.7787 121.203 47.7192 121.259 47.6864C121.315 47.6536 121.383 47.6536 121.439 47.6864L129.949 52.5521L138.459 47.6864C138.514 47.6548 138.582 47.6548 138.638 47.6864C138.694 47.7192 138.728 47.7787 138.728 47.843V57.7249C138.728 57.7893 138.694 57.8488 138.638 57.8816L130.039 62.8468C130.011 62.8626 129.979 62.8711 129.949 62.8711V62.8699ZM121.53 57.6205L129.949 62.4813L138.367 57.6205V48.1551L130.039 52.9176C129.983 52.9491 129.915 52.9491 129.859 52.9176L121.53 48.1551V57.6217V57.6205Z" fill="#141BEB"/>
<path d="M129.952 62.8693C129.852 62.8693 129.771 62.788 129.771 62.6884V52.7591C129.771 52.6595 129.852 52.5782 129.952 52.5782C130.051 52.5782 130.133 52.6595 130.133 52.7591V62.6884C130.133 62.788 130.051 62.8693 129.952 62.8693Z" fill="#141BEB"/>
<path d="M158.424 85.3559C158.197 85.4865 157.917 85.4857 157.69 85.354L144.167 77.5022C143.672 77.2148 143.681 76.4969 144.184 76.2223L158.167 68.5745C158.398 68.4484 158.678 68.455 158.902 68.5919L171.771 76.4433C172.248 76.7342 172.238 77.4297 171.754 77.7077L158.424 85.3559Z" fill="url(#paint1_linear_2570_22981)"/>
<g style="mix-blend-mode:multiply">
<path d="M158.061 82.0899L149.196 76.9717L158.061 71.8535L166.926 76.9717L158.061 82.0899Z" fill="#1228F3" fill-opacity="0.12"/>
</g>
<path d="M158.049 62.6061L149.451 57.6409L158.049 52.6769L166.649 57.6409L158.049 62.6061Z" fill="#00EDBE"/>
<path d="M158.05 62.7859C158.019 62.7859 157.988 62.7774 157.96 62.7617L149.361 57.7964C149.305 57.7636 149.271 57.7041 149.271 57.6398C149.271 57.5754 149.305 57.5159 149.361 57.4831L157.96 52.5203C158.016 52.4875 158.086 52.4875 158.141 52.5203L166.741 57.4856C166.797 57.5183 166.831 57.5778 166.831 57.6422C166.831 57.7066 166.797 57.7661 166.741 57.7988L158.141 62.7641C158.113 62.7799 158.082 62.7884 158.052 62.7884L158.05 62.7859ZM149.813 57.641L158.05 62.3974L166.288 57.641L158.05 52.8846L149.813 57.641Z" fill="#141BEB"/>
<path d="M158.05 62.5591L149.451 57.6412V67.5231L158.05 72.4884L166.65 67.5231V57.6412L158.05 62.5591Z" fill="#464CFF"/>
<path d="M166.7 67.6444L157.951 72.6183V62.6717L166.7 57.7452V67.6444Z" fill="#141BEB"/>
<path d="M158.05 72.6677C158.019 72.6677 157.988 72.6592 157.96 72.6434L149.361 67.6782C149.305 67.6454 149.271 67.5859 149.271 67.5215V57.6408C149.271 57.5765 149.305 57.517 149.361 57.4842C149.417 57.4514 149.485 57.4514 149.541 57.4842L158.05 62.3499L166.56 57.4842C166.616 57.4526 166.684 57.4526 166.74 57.4842C166.796 57.517 166.83 57.5765 166.83 57.6408V67.5227C166.83 67.5871 166.796 67.6466 166.74 67.6794L158.14 72.6446C158.112 72.6604 158.081 72.6689 158.05 72.6689V72.6677ZM149.632 67.4183L158.05 72.2791L166.469 67.4183V57.9529L158.14 62.7154C158.084 62.7469 158.016 62.7469 157.96 62.7154L149.632 57.9529V67.4195V67.4183Z" fill="#141BEB"/>
<path d="M158.053 72.6679C157.954 72.6679 157.873 72.5865 157.873 72.487V62.5577C157.873 62.4581 157.954 62.3768 158.053 62.3768C158.153 62.3768 158.234 62.4581 158.234 62.5577V72.487C158.234 72.5865 158.153 72.6679 158.053 72.6679Z" fill="#141BEB"/>
<path d="M160.683 59.142L160.775 59.3011C160.778 59.299 160.782 59.2969 160.786 59.2947C160.805 59.2838 160.827 59.2713 160.848 59.2581C160.895 59.2292 160.941 59.1997 160.984 59.1702C161.061 59.1195 161.133 59.0658 161.2 59.0116C161.227 58.9909 161.253 58.9686 161.276 58.9497C161.28 58.9459 161.285 58.9422 161.289 58.9386L161.289 58.9387L161.291 58.9365C161.44 58.8066 161.567 58.668 161.669 58.5233C161.696 58.4858 161.72 58.4481 161.741 58.4135L161.741 58.4129C161.9 58.1523 161.982 57.875 161.982 57.5927C161.982 56.942 161.551 56.3307 160.774 55.8842L160.732 55.8598H160.731C159.958 55.4291 158.968 55.2188 157.988 55.2188C156.989 55.2188 155.98 55.4371 155.202 55.8842L155.202 55.8842C154.424 56.3312 153.995 56.943 153.994 57.5927V57.5927V57.5927V57.5927V57.5928V57.5928V57.5928V57.5928V57.5928V57.5928V57.5928V57.5928V57.5928V57.5928V57.5928V57.5928V57.5928V57.5928V57.5929V57.5929V57.5929V57.5929V57.5929V57.5929V57.5929V57.5929V57.5929V57.5929V57.5929V57.5929V57.5929V57.5929V57.593V57.593V57.593V57.593V57.593V57.593V57.593V57.593V57.593V57.593V57.593V57.593V57.593V57.593V57.5931V57.5931V57.5931V57.5931V57.5931V57.5931V57.5931V57.5931V57.5931V57.5931V57.5931V57.5931V57.5931V57.5931V57.5932V57.5932V57.5932V57.5932V57.5932V57.5932V57.5932V57.5932V57.5932V57.5932V57.5932V57.5932V57.5932V57.5933V57.5933V57.5933V57.5933V57.5933V57.5933V57.5933V57.5933V57.5933V57.5933V57.5933V57.5933V57.5933V57.5933V57.5934V57.5934V57.5934V57.5934V57.5934V57.5934V57.5934V57.5934V57.5934V57.5934V57.5934V57.5934V57.5934V57.5934V57.5935V57.5935V57.5935V57.5935V57.5935C153.994 57.5945 153.994 57.5955 153.994 57.5965V57.6461C153.994 57.663 153.995 57.6772 153.996 57.6825L153.996 57.6826L153.997 57.6857C153.999 57.7203 154.002 57.7541 154.007 57.7882L154.007 57.7884L154.007 57.7903C154.009 57.8061 154.012 57.8278 154.017 57.8505C154.024 57.8882 154.032 57.9245 154.04 57.9579L154.04 57.9579L154.041 57.9619L154.042 57.9634C154.046 57.9779 154.051 57.9967 154.057 58.0155C154.068 58.0523 154.08 58.0905 154.095 58.1295L154.095 58.1295L154.095 58.1316C154.098 58.1392 154.101 58.1465 154.104 58.1516L154.104 58.1523L154.109 58.1647L154.109 58.1647L154.11 58.1664C154.127 58.2108 154.148 58.2557 154.171 58.3009L154.171 58.3009L154.172 58.3042C154.174 58.3073 154.176 58.3104 154.177 58.3137C154.19 58.3375 154.205 58.3658 154.223 58.3944L154.222 58.3945L154.226 58.4L154.235 58.4142L154.235 58.4149C154.239 58.4205 154.243 58.4282 154.249 58.4361C154.266 58.4629 154.285 58.4937 154.307 58.5243C154.474 58.7591 154.703 58.9766 154.992 59.1699C155.036 59.1998 155.082 59.2293 155.128 59.2575L155.128 59.2575L155.129 59.2585C155.142 59.2665 155.156 59.2741 155.167 59.2806L155.168 59.281C155.179 59.2877 155.189 59.2934 155.199 59.2993L155.199 59.2993L155.201 59.3008C155.202 59.3014 155.203 59.302 155.205 59.3027C155.216 59.3094 155.233 59.3194 155.253 59.3288C156.024 59.7574 157.011 59.967 157.988 59.967C158.966 59.967 159.952 59.7574 160.724 59.3288C160.743 59.3194 160.761 59.3094 160.772 59.3027C160.773 59.302 160.774 59.3014 160.775 59.3008L160.683 59.142ZM160.683 59.142L160.681 59.1433C160.667 59.1514 160.654 59.1589 160.64 59.1653L160.752 59.1015C160.733 59.1132 160.714 59.1239 160.695 59.1349C160.691 59.1373 160.687 59.1396 160.683 59.142ZM153.997 57.6877C153.997 57.6878 153.997 57.6878 153.997 57.6877L153.997 57.6877Z" fill="#00FFCC" stroke="#00EABB" stroke-width="0.367344"/>
<path d="M160.044 57.46C160.154 57.3664 160.302 57.2957 160.469 57.257L158.35 56.0302C158.331 56.0191 158.309 56.0108 158.285 56.0056C158.261 56.0004 158.235 55.9984 158.21 55.9999C158.184 56.0013 158.159 56.0061 158.136 56.0139C158.113 56.0218 158.092 56.0325 158.075 56.0456L157.668 56.3582C157.651 56.3713 157.638 56.3865 157.629 56.4029C157.621 56.4192 157.617 56.4364 157.619 56.4534C157.62 56.4704 157.627 56.487 157.638 56.5021C157.649 56.5173 157.664 56.5307 157.683 56.5417L159.802 57.7684C159.837 57.6529 159.921 57.5455 160.045 57.46" fill="#141BEB"/>
<path d="M156.672 56.6785C156.562 56.7721 156.415 56.8426 156.248 56.8813L158.367 58.1081C158.386 58.1191 158.408 58.1275 158.432 58.1327C158.456 58.1379 158.481 58.1398 158.507 58.1384C158.532 58.1369 158.557 58.1322 158.58 58.1243C158.604 58.1165 158.624 58.1057 158.641 58.0926L159.049 57.78C159.066 57.7669 159.079 57.7517 159.087 57.7354C159.096 57.7191 159.099 57.7019 159.098 57.6848C159.096 57.6678 159.09 57.6512 159.079 57.6361C159.068 57.621 159.052 57.6075 159.033 57.5966L156.914 56.3698C156.88 56.4854 156.796 56.5927 156.672 56.6783" fill="#141BEB"/>
<path d="M158.304 58.7957C158.414 58.702 158.562 58.6313 158.728 58.5926L156.609 57.3658C156.591 57.3548 156.568 57.3464 156.544 57.3412C156.52 57.336 156.495 57.3341 156.469 57.3355C156.444 57.3369 156.419 57.3417 156.396 57.3496C156.373 57.3574 156.352 57.3682 156.335 57.3812L155.928 57.6938C155.911 57.707 155.897 57.7222 155.889 57.7385C155.881 57.7548 155.877 57.772 155.878 57.789C155.88 57.8061 155.886 57.8226 155.897 57.8378C155.909 57.8529 155.924 57.8663 155.943 57.8773L158.062 59.1041C158.096 58.9885 158.181 58.8811 158.304 58.7956" fill="#141BEB"/>
<path opacity="0.4" d="M149.333 12.7749H166.772L161.928 57.8242C161.928 57.8242 161.528 59.7618 158.053 59.7618C154.578 59.7618 154.178 57.8242 154.178 57.8242L149.333 12.7749Z" fill="url(#paint2_linear_2570_22981)"/>
<path d="M189.49 102.609C189.267 102.737 188.995 102.739 188.77 102.616L175.291 95.2187C174.789 94.9435 174.781 94.2262 175.275 93.9391L188.584 86.2166C188.81 86.0855 189.089 86.0842 189.316 86.2132L202.631 93.7748C203.125 94.0556 203.127 94.7672 202.634 95.0506L189.49 102.609Z" fill="url(#paint3_linear_2570_22981)"/>
<g style="mix-blend-mode:multiply">
<path d="M189.061 99.5285L180.196 94.4103L189.061 89.2921L197.926 94.4103L189.061 99.5285Z" fill="#1228F3" fill-opacity="0.12"/>
</g>
<path d="M189.049 86.7161L180.451 81.7508L189.049 76.7868L197.649 81.7508L189.049 86.7161Z" fill="#7075FF"/>
<g style="mix-blend-mode:soft-light">
<path d="M191.558 83.2602L191.65 83.4194C191.653 83.4173 191.657 83.4151 191.661 83.4129C191.68 83.402 191.702 83.3895 191.723 83.3763C191.77 83.3474 191.816 83.3179 191.859 83.2885C191.936 83.2377 192.008 83.184 192.075 83.1299C192.102 83.1091 192.128 83.0868 192.151 83.068C192.155 83.0641 192.16 83.0604 192.164 83.0569L192.164 83.0569L192.166 83.0547C192.315 82.9248 192.442 82.7862 192.544 82.6416C192.571 82.6041 192.595 82.5663 192.616 82.5317L192.616 82.5311C192.775 82.2705 192.857 81.9932 192.857 81.711C192.857 81.0602 192.426 80.4489 191.649 80.0024L191.607 79.978H191.606C190.833 79.5474 189.843 79.337 188.863 79.337C187.864 79.337 186.855 79.5553 186.077 80.0024L186.077 80.0024C185.299 80.4495 184.87 81.0613 184.869 81.711V81.711V81.711V81.711V81.711V81.711V81.711V81.711V81.711V81.711V81.711V81.711V81.711V81.711V81.7111V81.7111V81.7111V81.7111V81.7111V81.7111V81.7111V81.7111V81.7111V81.7111V81.7111V81.7111V81.7111V81.7111V81.7112V81.7112V81.7112V81.7112V81.7112V81.7112V81.7112V81.7112V81.7112V81.7112V81.7112V81.7112V81.7112V81.7112V81.7113V81.7113V81.7113V81.7113V81.7113V81.7113V81.7113V81.7113V81.7113V81.7113V81.7113V81.7113V81.7113V81.7113V81.7114V81.7114V81.7114V81.7114V81.7114V81.7114V81.7114V81.7114V81.7114V81.7114V81.7114V81.7114V81.7114V81.7114V81.7115V81.7115V81.7115V81.7115V81.7115V81.7115V81.7115V81.7115V81.7115V81.7115V81.7115V81.7115V81.7115V81.7115V81.7116V81.7116V81.7116V81.7116V81.7116V81.7116V81.7116V81.7116V81.7116V81.7116V81.7116V81.7116V81.7116V81.7116V81.7117V81.7117V81.7117V81.7117V81.7117V81.7117V81.7117V81.7117C184.869 81.7127 184.869 81.7137 184.869 81.7147V81.7643C184.869 81.7812 184.87 81.7954 184.871 81.8007L184.871 81.8008L184.872 81.8039C184.874 81.8385 184.877 81.8724 184.882 81.9065L184.882 81.9066L184.882 81.9085C184.884 81.9244 184.887 81.946 184.892 81.9687C184.899 82.0064 184.907 82.0428 184.915 82.0761L184.915 82.0762L184.916 82.0802L184.917 82.0816C184.921 82.0961 184.926 82.1149 184.932 82.1338C184.943 82.1706 184.955 82.2087 184.97 82.2478L184.97 82.2478L184.97 82.2499C184.973 82.2575 184.976 82.2647 184.979 82.2699L184.979 82.2705L184.984 82.283L184.984 82.283L184.985 82.2846C185.002 82.329 185.023 82.3739 185.046 82.4191L185.046 82.4191L185.047 82.4224C185.049 82.4255 185.051 82.4287 185.052 82.4319C185.065 82.4558 185.08 82.484 185.098 82.5126L185.097 82.5127L185.101 82.5183L185.11 82.5325L185.11 82.5332C185.114 82.5387 185.118 82.5464 185.124 82.5543C185.141 82.5811 185.16 82.612 185.182 82.6425C185.349 82.8773 185.578 83.0949 185.867 83.2881C185.911 83.3181 185.957 83.3476 186.003 83.3757L186.003 83.3757L186.004 83.3767C186.017 83.3847 186.031 83.3923 186.042 83.3988L186.043 83.3993C186.054 83.4059 186.064 83.4117 186.074 83.4175L186.074 83.4176L186.076 83.4191C186.077 83.4196 186.078 83.4203 186.08 83.4209C186.091 83.4276 186.108 83.4376 186.128 83.4471C186.899 83.8757 187.886 84.0852 188.863 84.0852C189.841 84.0852 190.827 83.8757 191.599 83.4471C191.618 83.4376 191.636 83.4276 191.647 83.4209C191.648 83.4203 191.649 83.4196 191.65 83.4191L191.558 83.2602ZM191.558 83.2602L191.556 83.2615C191.542 83.2696 191.529 83.2771 191.515 83.2835L191.627 83.2198C191.608 83.2314 191.589 83.2422 191.57 83.2531C191.566 83.2555 191.562 83.2579 191.558 83.2602ZM184.872 81.806C184.872 81.8061 184.872 81.8061 184.872 81.806L184.872 81.806Z" fill="#00FFCC" stroke="#00EABB" stroke-width="0.367344"/>
<path d="M190.919 81.5783C191.029 81.4846 191.177 81.4139 191.344 81.3752L189.225 80.1484C189.206 80.1374 189.184 80.129 189.16 80.1238C189.136 80.1186 189.11 80.1167 189.085 80.1181C189.059 80.1195 189.034 80.1243 189.011 80.1322C188.988 80.14 188.967 80.1508 188.95 80.1638L188.543 80.4764C188.526 80.4896 188.513 80.5047 188.504 80.5211C188.496 80.5374 188.492 80.5546 188.494 80.5716C188.495 80.5887 188.502 80.6052 188.513 80.6204C188.524 80.6355 188.539 80.6489 188.558 80.6599L190.677 81.8867C190.712 81.7711 190.796 81.6637 190.92 81.5782" fill="#141BEB"/>
<path d="M187.547 80.7967C187.437 80.8903 187.29 80.9609 187.123 80.9995L189.242 82.2263C189.261 82.2373 189.283 82.2457 189.307 82.2509C189.331 82.2561 189.356 82.258 189.382 82.2566C189.407 82.2552 189.432 82.2504 189.455 82.2425C189.479 82.2347 189.499 82.2239 189.516 82.2109L189.924 81.8983C189.941 81.8851 189.954 81.8699 189.962 81.8536C189.971 81.8373 189.974 81.8201 189.973 81.8031C189.971 81.786 189.965 81.7695 189.954 81.7543C189.943 81.7392 189.927 81.7258 189.908 81.7148L187.789 80.488C187.755 80.6036 187.671 80.711 187.547 80.7965" fill="#141BEB"/>
<path d="M189.179 82.9139C189.289 82.8202 189.437 82.7496 189.603 82.7108L187.484 81.484C187.466 81.473 187.443 81.4646 187.419 81.4594C187.395 81.4542 187.37 81.4523 187.344 81.4537C187.319 81.4552 187.294 81.4599 187.271 81.4678C187.248 81.4756 187.227 81.4864 187.21 81.4995L186.803 81.8121C186.786 81.8252 186.772 81.8404 186.764 81.8567C186.756 81.873 186.752 81.8902 186.753 81.9073C186.755 81.9243 186.761 81.9409 186.772 81.956C186.784 81.9711 186.799 81.9846 186.818 81.9955L188.937 83.2223C188.971 83.1067 189.056 82.9994 189.179 82.9138" fill="#141BEB"/>
</g>
<path d="M189.05 86.8959C189.019 86.8959 188.988 86.8874 188.96 86.8716L180.361 81.9063C180.305 81.8736 180.271 81.8141 180.271 81.7497C180.271 81.6853 180.305 81.6258 180.361 81.5931L188.96 76.6302C189.016 76.5975 189.086 76.5975 189.141 76.6302L197.741 81.5955C197.797 81.6283 197.831 81.6878 197.831 81.7521C197.831 81.8165 197.797 81.876 197.741 81.9088L189.141 86.874C189.113 86.8898 189.082 86.8983 189.052 86.8983L189.05 86.8959ZM180.813 81.7509L189.05 86.5073L197.288 81.7509L189.05 76.9945L180.813 81.7509Z" fill="#141BEB"/>
<path d="M189.05 86.669L180.451 81.7512V91.6331L189.05 96.5983L197.65 91.6331V81.7512L189.05 86.669Z" fill="#464CFF"/>
<path d="M197.7 91.7543L188.951 96.7282V86.7816L197.7 81.8552V91.7543Z" fill="#141BEB"/>
<path d="M189.05 96.7781C189.019 96.7781 188.988 96.7696 188.96 96.7538L180.361 91.7886C180.305 91.7558 180.271 91.6963 180.271 91.6319V81.7512C180.271 81.6869 180.305 81.6274 180.361 81.5946C180.417 81.5618 180.485 81.5618 180.541 81.5946L189.05 86.4603L197.56 81.5946C197.616 81.563 197.684 81.563 197.74 81.5946C197.796 81.6274 197.83 81.6869 197.83 81.7512V91.6331C197.83 91.6975 197.796 91.757 197.74 91.7898L189.14 96.755C189.112 96.7708 189.081 96.7793 189.05 96.7793V96.7781ZM180.632 91.5287L189.05 96.3895L197.469 91.5287V82.0633L189.14 86.8258C189.084 86.8573 189.016 86.8573 188.96 86.8258L180.632 82.0633V91.5299V91.5287Z" fill="#141BEB"/>
<path d="M189.053 96.7775C188.954 96.7775 188.873 96.6962 188.873 96.5966V86.6673C188.873 86.5677 188.954 86.4864 189.053 86.4864C189.153 86.4864 189.234 86.5677 189.234 86.6673V96.5966C189.234 96.6962 189.153 96.7775 189.053 96.7775Z" fill="#141BEB"/>
<path d="M109.01 81.4809C108.783 81.6115 108.503 81.6107 108.276 81.479L94.7532 73.6272C94.2582 73.3398 94.2674 72.6219 94.7696 72.3473L108.753 64.6995C108.984 64.5734 109.264 64.58 109.488 64.7169L122.357 72.5683C122.834 72.8592 122.824 73.5547 122.34 73.8327L109.01 81.4809Z" fill="url(#paint4_linear_2570_22981)"/>
<g style="mix-blend-mode:multiply">
<path d="M108.175 77.1003L101.321 73.0734L108.175 69.0464L115.03 73.0734L108.175 77.1003Z" fill="#1228F3" fill-opacity="0.12"/>
</g>
<path d="M108.156 58.7312L99.5571 53.766L108.156 48.8019L116.755 53.766L108.156 58.7312Z" fill="#00EDBE"/>
<path d="M108.157 58.911C108.125 58.911 108.095 58.9025 108.067 58.8867L99.4673 53.9215C99.4114 53.8887 99.3774 53.8292 99.3774 53.7648C99.3774 53.7005 99.4114 53.641 99.4673 53.6082L108.067 48.6454C108.123 48.6126 108.192 48.6126 108.248 48.6454L116.847 53.6106C116.903 53.6434 116.937 53.7029 116.937 53.7673C116.937 53.8316 116.903 53.8911 116.847 53.9239L108.248 58.8891C108.22 58.9049 108.188 58.9134 108.158 58.9134L108.157 58.911ZM99.919 53.766L108.157 58.5224L116.395 53.766L108.157 49.0097L99.919 53.766Z" fill="#141BEB"/>
<path d="M108.157 58.6837L99.5571 53.7658V63.6477L108.157 68.613L116.756 63.6477V53.7658L108.157 58.6837Z" fill="#464CFF"/>
<path d="M116.806 63.769L108.057 68.7429V58.7963L116.806 53.8698V63.769Z" fill="#141BEB"/>
<path d="M108.157 68.7927C108.125 68.7927 108.095 68.7842 108.067 68.7685L99.4673 63.8032C99.4114 63.7704 99.3774 63.7109 99.3774 63.6466V53.7659C99.3774 53.7015 99.4114 53.642 99.4673 53.6092C99.5232 53.5765 99.5912 53.5765 99.647 53.6092L108.157 58.4749L116.667 53.6092C116.722 53.5777 116.79 53.5777 116.846 53.6092C116.902 53.642 116.936 53.7015 116.936 53.7659V63.6478C116.936 63.7122 116.902 63.7717 116.846 63.8044L108.247 68.7697C108.219 68.7855 108.187 68.794 108.157 68.794V68.7927ZM99.7381 63.5434L108.157 68.4042L116.575 63.5434V54.078L108.247 58.8404C108.191 58.872 108.123 58.872 108.067 58.8404L99.7381 54.078V63.5446V63.5434Z" fill="#141BEB"/>
<path d="M108.16 68.7926C108.06 68.7926 107.979 68.7112 107.979 68.6117V58.6824C107.979 58.5828 108.06 58.5015 108.16 58.5015C108.26 58.5015 108.341 58.5828 108.341 58.6824V68.6117C108.341 68.7112 108.26 68.7926 108.16 68.7926Z" fill="#141BEB"/>
<path d="M110.789 55.2666L110.881 55.4257C110.885 55.4236 110.888 55.4215 110.892 55.4192C110.911 55.4083 110.933 55.3959 110.954 55.3827C111.001 55.3538 111.047 55.3243 111.091 55.2948C111.167 55.2441 111.24 55.1903 111.306 55.1362C111.333 55.1154 111.36 55.0931 111.382 55.0743C111.387 55.0705 111.391 55.0667 111.395 55.0632L111.395 55.0632L111.398 55.061C111.547 54.9312 111.673 54.7926 111.775 54.6479C111.802 54.6104 111.826 54.5726 111.847 54.5381L111.848 54.5374C112.006 54.2768 112.089 53.9995 112.089 53.7173C112.089 53.0665 111.657 52.4552 110.881 52.0088L110.838 51.9844H110.837C110.065 51.5537 109.075 51.3434 108.094 51.3434C107.095 51.3434 106.087 51.5617 105.308 52.0087L105.308 52.0088C104.53 52.4558 104.101 53.0676 104.1 53.7173V53.7173V53.7173V53.7173V53.7173V53.7173V53.7173V53.7173V53.7174V53.7174V53.7174V53.7174V53.7174V53.7174V53.7174V53.7174V53.7174V53.7174V53.7174V53.7174V53.7174V53.7174V53.7175V53.7175V53.7175V53.7175V53.7175V53.7175V53.7175V53.7175V53.7175V53.7175V53.7175V53.7175V53.7175V53.7175V53.7176V53.7176V53.7176V53.7176V53.7176V53.7176V53.7176V53.7176V53.7176V53.7176V53.7176V53.7176V53.7176V53.7177V53.7177V53.7177V53.7177V53.7177V53.7177V53.7177V53.7177V53.7177V53.7177V53.7177V53.7177V53.7177V53.7177V53.7178V53.7178V53.7178V53.7178V53.7178V53.7178V53.7178V53.7178V53.7178V53.7178V53.7178V53.7178V53.7178V53.7178V53.7179V53.7179V53.7179V53.7179V53.7179V53.7179V53.7179V53.7179V53.7179V53.7179V53.7179V53.7179V53.7179V53.7179V53.718V53.718V53.718V53.718V53.718V53.718V53.718V53.718V53.718V53.718V53.718V53.718V53.718V53.718V53.7181C104.1 53.7191 104.1 53.7201 104.1 53.7211V53.7706C104.1 53.7876 104.102 53.8017 104.103 53.807L104.103 53.8072L104.103 53.8103C104.105 53.8449 104.109 53.8787 104.113 53.9128L104.113 53.9129L104.114 53.9148C104.116 53.9307 104.119 53.9524 104.123 53.9751C104.13 54.0128 104.138 54.0491 104.147 54.0825L104.147 54.0825L104.148 54.0865L104.148 54.088C104.152 54.1025 104.157 54.1212 104.163 54.1401C104.174 54.1769 104.186 54.215 104.201 54.2541L104.201 54.2541L104.202 54.2562C104.205 54.2638 104.208 54.2711 104.21 54.2762L104.21 54.2768L104.215 54.2893L104.215 54.2893L104.216 54.291C104.234 54.3354 104.254 54.3803 104.277 54.4255L104.277 54.4255L104.279 54.4288C104.28 54.4318 104.282 54.435 104.284 54.4382C104.297 54.4621 104.312 54.4903 104.329 54.519L104.329 54.5191L104.332 54.5246L104.341 54.5388L104.342 54.5395C104.345 54.5451 104.35 54.5528 104.355 54.5607C104.372 54.5875 104.392 54.6183 104.414 54.6488C104.58 54.8837 104.81 55.1012 105.098 55.2945C105.142 55.3244 105.189 55.3539 105.234 55.3821L105.234 55.3821L105.236 55.383C105.249 55.391 105.262 55.3986 105.273 55.4052L105.274 55.4056C105.286 55.4123 105.296 55.418 105.305 55.4239L105.305 55.4239L105.308 55.4254C105.309 55.426 105.31 55.4266 105.311 55.4272C105.322 55.4339 105.34 55.444 105.359 55.4534C106.131 55.882 107.117 56.0915 108.095 56.0915C109.072 56.0915 110.059 55.882 110.83 55.4534C110.85 55.444 110.867 55.4339 110.878 55.4273C110.88 55.4266 110.881 55.426 110.882 55.4254L110.789 55.2666ZM110.789 55.2666L110.787 55.2679C110.773 55.276 110.76 55.2835 110.746 55.2899L110.858 55.2261C110.84 55.2377 110.821 55.2485 110.802 55.2595C110.798 55.2618 110.793 55.2642 110.789 55.2666ZM104.103 53.8123C104.103 53.8124 104.103 53.8124 104.103 53.8123L104.103 53.8123Z" fill="#00FFCC" stroke="#00EABB" stroke-width="0.367344"/>
<path d="M110.151 53.5846C110.261 53.491 110.408 53.4203 110.575 53.3815L108.456 52.1548C108.437 52.1437 108.415 52.1354 108.391 52.1302C108.367 52.125 108.342 52.123 108.316 52.1245C108.29 52.1259 108.265 52.1307 108.242 52.1385C108.219 52.1464 108.199 52.1571 108.181 52.1702L107.774 52.4828C107.757 52.4959 107.744 52.5111 107.736 52.5274C107.727 52.5438 107.724 52.5609 107.725 52.578C107.727 52.595 107.733 52.6116 107.744 52.6267C107.755 52.6419 107.771 52.6553 107.79 52.6662L109.909 53.893C109.943 53.7774 110.027 53.6701 110.151 53.5846" fill="#141BEB"/>
<path d="M106.779 52.803C106.669 52.8966 106.521 52.9672 106.354 53.0059L108.473 54.2326C108.492 54.2437 108.514 54.252 108.538 54.2572C108.562 54.2624 108.588 54.2644 108.613 54.2629C108.639 54.2615 108.664 54.2567 108.687 54.2489C108.71 54.241 108.731 54.2303 108.748 54.2172L109.155 53.9046C109.172 53.8915 109.185 53.8763 109.194 53.86C109.202 53.8436 109.206 53.8265 109.204 53.8094C109.203 53.7924 109.196 53.7758 109.185 53.7607C109.174 53.7455 109.159 53.7321 109.139 53.7212L107.021 52.4944C106.986 52.61 106.902 52.7173 106.778 52.8028" fill="#141BEB"/>
<path d="M108.411 54.9203C108.52 54.8266 108.668 54.7559 108.835 54.7172L106.716 53.4904C106.697 53.4794 106.675 53.471 106.651 53.4658C106.627 53.4606 106.601 53.4587 106.576 53.4601C106.55 53.4615 106.525 53.4663 106.502 53.4741C106.479 53.482 106.458 53.4927 106.441 53.5058L106.034 53.8184C106.017 53.8316 106.004 53.8467 105.995 53.8631C105.987 53.8794 105.983 53.8966 105.985 53.9136C105.986 53.9306 105.993 53.9472 106.004 53.9623C106.015 53.9775 106.031 53.9909 106.05 54.0019L108.169 55.2286C108.203 55.1131 108.287 55.0057 108.411 54.9202" fill="#141BEB"/>
<path opacity="0.4" d="M99.4355 8.89996H116.874L112.03 53.9493C112.03 53.9493 111.63 55.8869 108.155 55.8869C104.68 55.8869 104.28 53.9493 104.28 53.9493L99.4355 8.89996Z" fill="url(#paint5_linear_2570_22981)"/>
<path d="M137.112 97.9501C136.884 98.0807 136.604 98.08 136.377 97.9482L122.855 90.0964C122.36 89.809 122.369 89.0911 122.871 88.8165L136.855 81.1687C137.085 81.0426 137.366 81.0493 137.59 81.1861L150.458 89.0375C150.935 89.3285 150.926 90.024 150.441 90.302L137.112 97.9501Z" fill="url(#paint6_linear_2570_22981)"/>
<g style="mix-blend-mode:multiply">
<path d="M136.264 94.6848L127.399 89.5665L136.264 84.4483L145.129 89.5665L136.264 94.6848Z" fill="#1228F3" fill-opacity="0.12"/>
</g>
<path d="M136.252 81.8723L127.654 76.9071L136.252 71.9431L144.852 76.9071L136.252 81.8723Z" fill="#7075FF"/>
<g style="mix-blend-mode:soft-light">
<path d="M138.941 78.5093L139.032 78.6684C139.036 78.6663 139.04 78.6641 139.044 78.6619C139.063 78.651 139.084 78.6386 139.106 78.6253C139.153 78.5964 139.199 78.567 139.242 78.5375C139.319 78.4867 139.391 78.433 139.458 78.3789C139.485 78.3581 139.511 78.3358 139.533 78.317C139.538 78.3131 139.542 78.3094 139.547 78.3059L139.547 78.3059L139.549 78.3037C139.698 78.1739 139.824 78.0352 139.927 77.8906C139.953 77.8531 139.978 77.8153 139.999 77.7807L139.999 77.7801C140.158 77.5195 140.24 77.2422 140.24 76.96C140.24 76.3092 139.809 75.6979 139.032 75.2515L138.99 75.227H138.988C138.216 74.7964 137.226 74.586 136.245 74.586C135.247 74.586 134.238 74.8043 133.459 75.2514L133.459 75.2515C132.681 75.6985 132.252 76.3103 132.251 76.96V76.96V76.96V76.96V76.96V76.96V76.96V76.96V76.96V76.96V76.96V76.9601V76.9601V76.9601V76.9601V76.9601V76.9601V76.9601V76.9601V76.9601V76.9601V76.9601V76.9601V76.9601V76.9601V76.9602V76.9602V76.9602V76.9602V76.9602V76.9602V76.9602V76.9602V76.9602V76.9602V76.9602V76.9602V76.9602V76.9602V76.9603V76.9603V76.9603V76.9603V76.9603V76.9603V76.9603V76.9603V76.9603V76.9603V76.9603V76.9603V76.9603V76.9603V76.9604V76.9604V76.9604V76.9604V76.9604V76.9604V76.9604V76.9604V76.9604V76.9604V76.9604V76.9604V76.9604V76.9604V76.9605V76.9605V76.9605V76.9605V76.9605V76.9605V76.9605V76.9605V76.9605V76.9605V76.9605V76.9605V76.9605V76.9605V76.9606V76.9606V76.9606V76.9606V76.9606V76.9606V76.9606V76.9606V76.9606V76.9606V76.9606V76.9606V76.9606V76.9606V76.9607V76.9607V76.9607V76.9607V76.9607V76.9607V76.9607V76.9607V76.9607V76.9607V76.9607C132.251 76.9617 132.251 76.9627 132.251 76.9637V77.0133C132.251 77.0302 132.253 77.0444 132.254 77.0497L132.254 77.0499L132.254 77.053C132.257 77.0876 132.26 77.1214 132.265 77.1555L132.265 77.1556L132.265 77.1575C132.267 77.1734 132.27 77.1951 132.275 77.2177C132.281 77.2555 132.29 77.2918 132.298 77.3252L132.298 77.3252L132.299 77.3292L132.299 77.3306C132.303 77.3452 132.308 77.3639 132.314 77.3828C132.325 77.4196 132.338 77.4577 132.352 77.4968L132.352 77.4968L132.353 77.4989C132.356 77.5065 132.359 77.5137 132.361 77.5189L132.362 77.5195L132.367 77.532L132.367 77.532L132.367 77.5336C132.385 77.578 132.405 77.6229 132.428 77.6681L132.428 77.6682L132.43 77.6714C132.432 77.6745 132.434 77.6777 132.435 77.6809C132.448 77.7048 132.463 77.733 132.48 77.7617L132.48 77.7617L132.484 77.7673L132.493 77.7815L132.493 77.7822C132.497 77.7878 132.501 77.7954 132.506 77.8034C132.523 77.8302 132.543 77.861 132.565 77.8915C132.732 78.1263 132.961 78.3439 133.249 78.5371C133.294 78.5671 133.34 78.5966 133.385 78.6247L133.385 78.6247L133.387 78.6257C133.4 78.6337 133.413 78.6413 133.425 78.6479L133.425 78.6483C133.437 78.655 133.447 78.6607 133.457 78.6666L133.457 78.6666L133.459 78.6681C133.46 78.6687 133.461 78.6693 133.462 78.6699C133.474 78.6766 133.491 78.6867 133.511 78.6961C134.282 79.1247 135.269 79.3342 136.246 79.3342C137.223 79.3342 138.21 79.1247 138.981 78.6961C139.001 78.6867 139.018 78.6766 139.03 78.6699C139.031 78.6693 139.032 78.6687 139.033 78.6681L138.941 78.5093ZM138.941 78.5093L138.938 78.5106C138.925 78.5186 138.912 78.5261 138.898 78.5326L139.01 78.4688C138.991 78.4804 138.972 78.4912 138.953 78.5022C138.949 78.5045 138.945 78.5069 138.941 78.5093ZM132.255 77.055C132.255 77.0551 132.255 77.0551 132.255 77.055L132.255 77.055Z" fill="#00FFCC" stroke="#00EABB" stroke-width="0.367344"/>
<path d="M138.302 76.8273C138.412 76.7336 138.56 76.6629 138.727 76.6242L136.608 75.3974C136.589 75.3864 136.566 75.378 136.542 75.3728C136.518 75.3676 136.493 75.3657 136.467 75.3671C136.442 75.3686 136.417 75.3733 136.394 75.3812C136.371 75.389 136.35 75.3998 136.333 75.4129L135.926 75.7254C135.909 75.7386 135.896 75.7538 135.887 75.7701C135.879 75.7864 135.875 75.8036 135.877 75.8206C135.878 75.8377 135.884 75.8542 135.896 75.8694C135.907 75.8845 135.922 75.898 135.941 75.9089L138.06 77.1357C138.094 77.0201 138.179 76.9128 138.302 76.8272" fill="#141BEB"/>
<path d="M134.93 76.0457C134.82 76.1393 134.672 76.2099 134.506 76.2485L136.624 77.4753C136.643 77.4863 136.666 77.4947 136.69 77.4999C136.714 77.5051 136.739 77.507 136.765 77.5056C136.79 77.5042 136.815 77.4994 136.838 77.4916C136.861 77.4837 136.882 77.4729 136.899 77.4599L137.306 77.1473C137.323 77.1341 137.337 77.119 137.345 77.1026C137.353 77.0863 137.357 77.0691 137.356 77.0521C137.354 77.0351 137.348 77.0185 137.337 77.0033C137.325 76.9882 137.31 76.9748 137.291 76.9638L135.172 75.7371C135.138 75.8526 135.053 75.96 134.93 76.0455" fill="#141BEB"/>
<path d="M136.562 78.1629C136.672 78.0693 136.819 77.9986 136.986 77.9598L134.867 76.7331C134.848 76.722 134.826 76.7137 134.802 76.7085C134.778 76.7033 134.753 76.7013 134.727 76.7028C134.702 76.7042 134.677 76.709 134.654 76.7168C134.63 76.7247 134.61 76.7354 134.593 76.7485L134.185 77.0611C134.168 77.0742 134.155 77.0894 134.147 77.1057C134.138 77.1221 134.135 77.1392 134.136 77.1563C134.138 77.1733 134.144 77.1899 134.155 77.205C134.166 77.2202 134.182 77.2336 134.201 77.2445L136.32 78.4713C136.354 78.3557 136.438 78.2484 136.562 78.1629" fill="#141BEB"/>
</g>
<path d="M136.253 82.0516C136.222 82.0516 136.192 82.0431 136.164 82.0273L127.564 77.0621C127.508 77.0293 127.474 76.9698 127.474 76.9055C127.474 76.8411 127.508 76.7816 127.564 76.7488L136.164 71.786C136.219 71.7532 136.289 71.7532 136.345 71.786L144.944 76.7512C145 76.784 145.034 76.8435 145.034 76.9079C145.034 76.9722 145 77.0317 144.944 77.0645L136.345 82.0298C136.317 82.0456 136.285 82.0541 136.255 82.0541L136.253 82.0516ZM128.016 76.9067L136.253 81.6631L144.491 76.9067L136.253 72.1503L128.016 76.9067Z" fill="#141BEB"/>
<path d="M136.253 81.8248L127.654 76.9069V86.7888L136.253 91.7541L144.853 86.7888V76.9069L136.253 81.8248Z" fill="#464CFF"/>
<path d="M144.903 86.9096L136.154 91.8835V81.9369L144.903 77.0104V86.9096Z" fill="#141BEB"/>
<path d="M136.253 91.9334C136.222 91.9334 136.192 91.9249 136.164 91.9091L127.564 86.9438C127.508 86.9111 127.474 86.8516 127.474 86.7872V76.9065C127.474 76.8422 127.508 76.7827 127.564 76.7499C127.62 76.7171 127.688 76.7171 127.744 76.7499L136.253 81.6155L144.763 76.7499C144.819 76.7183 144.887 76.7183 144.943 76.7499C144.999 76.7827 145.033 76.8422 145.033 76.9065V86.7884C145.033 86.8528 144.999 86.9123 144.943 86.9451L136.343 91.9103C136.315 91.9261 136.284 91.9346 136.253 91.9346V91.9334ZM127.835 86.684L136.253 91.5448L144.672 86.684V77.2186L136.343 81.981C136.287 82.0126 136.219 82.0126 136.164 81.981L127.835 77.2186V86.6852V86.684Z" fill="#141BEB"/>
<path d="M136.257 91.9335C136.157 91.9335 136.076 91.8521 136.076 91.7525V81.8233C136.076 81.7237 136.157 81.6423 136.257 81.6423C136.356 81.6423 136.438 81.7237 136.438 81.8233V91.7525C136.438 91.8521 136.356 91.9335 136.257 91.9335Z" fill="#141BEB"/>
<path d="M167.751 115.212C167.525 115.342 167.248 115.343 167.022 115.214L153.7 107.649C153.207 107.369 153.203 106.659 153.694 106.374L167.016 98.6445C167.245 98.5115 167.528 98.5123 167.756 98.6466L180.914 106.376C181.4 106.662 181.397 107.366 180.908 107.647L167.751 115.212Z" fill="url(#paint7_linear_2570_22981)"/>
<g style="mix-blend-mode:multiply">
<path d="M167.297 111.543L159.587 107.002L167.297 102.461L175.009 107.002L167.297 111.543Z" fill="#1228F3" fill-opacity="0.12"/>
</g>
<path d="M167.249 92.6395L158.651 87.6743L167.249 82.7103L175.849 87.6743L167.249 92.6395Z" fill="#00EDBE"/>
<path d="M167.251 92.8193C167.219 92.8193 167.189 92.8108 167.161 92.795L158.561 87.8298C158.505 87.797 158.471 87.7375 158.471 87.6732C158.471 87.6088 158.505 87.5493 158.561 87.5165L167.161 82.5537C167.217 82.5209 167.286 82.5209 167.342 82.5537L175.941 87.5189C175.997 87.5517 176.031 87.6112 176.031 87.6756C176.031 87.7399 175.997 87.7994 175.941 87.8322L167.342 92.7975C167.314 92.8133 167.282 92.8218 167.252 92.8218L167.251 92.8193ZM159.013 87.6744L167.251 92.4308L175.488 87.6744L167.251 82.918L159.013 87.6744Z" fill="#141BEB"/>
<path d="M167.25 92.592L158.651 87.6741V97.556L167.25 102.521L175.85 97.556V87.6741L167.25 92.592Z" fill="#464CFF"/>
<path d="M175.9 97.6773L167.151 102.651V92.7046L175.9 87.7781V97.6773Z" fill="#141BEB"/>
<path d="M167.251 102.701C167.219 102.701 167.189 102.693 167.161 102.677L158.561 97.7115C158.505 97.6788 158.471 97.6193 158.471 97.5549V87.6742C158.471 87.6099 158.505 87.5504 158.561 87.5176C158.617 87.4848 158.685 87.4848 158.741 87.5176L167.251 92.3832L175.76 87.5176C175.816 87.486 175.884 87.486 175.94 87.5176C175.996 87.5504 176.03 87.6099 176.03 87.6742V97.5561C176.03 97.6205 175.996 97.68 175.94 97.7128L167.34 102.678C167.312 102.694 167.281 102.702 167.251 102.702V102.701ZM158.832 97.4517L167.251 102.312L175.669 97.4517V87.9863L167.34 92.7487C167.285 92.7803 167.217 92.7803 167.161 92.7487L158.832 87.9863V97.4529V97.4517Z" fill="#141BEB"/>
<path d="M167.254 102.701C167.154 102.701 167.073 102.62 167.073 102.52V92.5908C167.073 92.4912 167.154 92.4099 167.254 92.4099C167.353 92.4099 167.435 92.4912 167.435 92.5908V102.52C167.435 102.62 167.353 102.701 167.254 102.701Z" fill="#141BEB"/>
<path d="M169.883 89.1748L169.975 89.3339C169.978 89.3318 169.982 89.3297 169.986 89.3274C170.005 89.3165 170.027 89.3041 170.048 89.2909C170.095 89.262 170.141 89.2325 170.185 89.203C170.261 89.1523 170.333 89.0985 170.4 89.0444C170.427 89.0236 170.454 89.0013 170.476 88.9825C170.48 88.9787 170.485 88.9749 170.489 88.9714L170.489 88.9714L170.492 88.9693C170.64 88.8394 170.767 88.7008 170.869 88.5561C170.896 88.5186 170.92 88.4808 170.941 88.4463L170.942 88.4456C171.1 88.185 171.183 87.9077 171.183 87.6255C171.183 86.9747 170.751 86.3634 169.975 85.917L169.932 85.8926H169.931C169.158 85.4619 168.168 85.2516 167.188 85.2516C166.189 85.2516 165.18 85.4699 164.402 85.9169L164.402 85.917C163.624 86.364 163.195 86.9758 163.194 87.6255V87.6255V87.6255V87.6255V87.6255V87.6255V87.6255V87.6256V87.6256V87.6256V87.6256V87.6256V87.6256V87.6256V87.6256V87.6256V87.6256V87.6256V87.6256V87.6256V87.6256V87.6257V87.6257V87.6257V87.6257V87.6257V87.6257V87.6257V87.6257V87.6257V87.6257V87.6257V87.6257V87.6257V87.6257V87.6258V87.6258V87.6258V87.6258V87.6258V87.6258V87.6258V87.6258V87.6258V87.6258V87.6258V87.6258V87.6258V87.6258V87.6259V87.6259V87.6259V87.6259V87.6259V87.6259V87.6259V87.6259V87.6259V87.6259V87.6259V87.6259V87.6259V87.6259V87.626V87.626V87.626V87.626V87.626V87.626V87.626V87.626V87.626V87.626V87.626V87.626V87.626V87.626V87.6261V87.6261V87.6261V87.6261V87.6261V87.6261V87.6261V87.6261V87.6261V87.6261V87.6261V87.6261V87.6261V87.6261V87.6262V87.6262V87.6262V87.6262V87.6262V87.6262V87.6262V87.6262V87.6262V87.6262V87.6262V87.6262V87.6262V87.6262V87.6263C163.194 87.6273 163.194 87.6283 163.194 87.6293V87.6788C163.194 87.6958 163.196 87.7099 163.196 87.7152L163.196 87.7154L163.197 87.7185C163.199 87.7531 163.202 87.7869 163.207 87.821L163.207 87.8211L163.207 87.823C163.21 87.8389 163.213 87.8606 163.217 87.8833C163.224 87.921 163.232 87.9573 163.24 87.9907L163.24 87.9907L163.241 87.9947L163.242 87.9962C163.246 88.0107 163.251 88.0294 163.257 88.0483C163.268 88.0851 163.28 88.1232 163.295 88.1623L163.295 88.1623L163.296 88.1644C163.299 88.172 163.302 88.1793 163.304 88.1844L163.304 88.185L163.309 88.1975L163.309 88.1975L163.31 88.1992C163.328 88.2436 163.348 88.2885 163.371 88.3337L163.371 88.3337L163.373 88.337C163.374 88.34 163.376 88.3432 163.378 88.3464C163.39 88.3703 163.405 88.3985 163.423 88.4272L163.423 88.4273L163.426 88.4328L163.435 88.447L163.436 88.4477C163.439 88.4533 163.444 88.461 163.449 88.4689C163.466 88.4957 163.486 88.5265 163.508 88.557C163.674 88.7919 163.904 89.0094 164.192 89.2027C164.236 89.2326 164.283 89.2621 164.328 89.2903L164.328 89.2903L164.329 89.2912C164.343 89.2992 164.356 89.3068 164.367 89.3134L164.368 89.3138C164.379 89.3205 164.389 89.3262 164.399 89.3321L164.399 89.3321L164.402 89.3336C164.403 89.3342 164.404 89.3348 164.405 89.3355C164.416 89.3421 164.434 89.3522 164.453 89.3616C165.224 89.7902 166.211 89.9997 167.188 89.9997C168.166 89.9997 169.152 89.7902 169.924 89.3616C169.943 89.3522 169.961 89.3421 169.972 89.3355C169.973 89.3348 169.974 89.3342 169.975 89.3336L169.883 89.1748ZM169.883 89.1748L169.881 89.1761C169.867 89.1842 169.854 89.1917 169.84 89.1981L169.952 89.1343C169.933 89.1459 169.915 89.1567 169.895 89.1677C169.891 89.17 169.887 89.1724 169.883 89.1748ZM163.197 87.7205C163.197 87.7206 163.197 87.7206 163.197 87.7205L163.197 87.7205Z" fill="#00FFCC" stroke="#00EABB" stroke-width="0.367344"/>
<path d="M169.245 87.4928C169.354 87.3992 169.502 87.3285 169.669 87.2897L167.55 86.063C167.531 86.0519 167.509 86.0436 167.485 86.0384C167.461 86.0332 167.435 86.0312 167.41 86.0327C167.384 86.0341 167.359 86.0389 167.336 86.0467C167.313 86.0546 167.292 86.0653 167.275 86.0784L166.868 86.391C166.851 86.4041 166.838 86.4193 166.829 86.4356C166.821 86.452 166.817 86.4691 166.819 86.4862C166.82 86.5032 166.827 86.5198 166.838 86.5349C166.849 86.5501 166.865 86.5635 166.884 86.5744L169.003 87.8012C169.037 87.6856 169.121 87.5783 169.245 87.4928" fill="#141BEB"/>
<path d="M165.872 86.7112C165.763 86.8048 165.615 86.8754 165.448 86.9141L167.567 88.1408C167.586 88.1519 167.608 88.1602 167.632 88.1654C167.656 88.1706 167.682 88.1726 167.707 88.1711C167.733 88.1697 167.758 88.1649 167.781 88.1571C167.804 88.1492 167.824 88.1385 167.842 88.1254L168.249 87.8128C168.266 87.7997 168.279 87.7845 168.287 87.7682C168.296 87.7518 168.299 87.7347 168.298 87.7176C168.296 87.7006 168.29 87.684 168.279 87.6689C168.268 87.6537 168.252 87.6403 168.233 87.6294L166.114 86.4026C166.08 86.5182 165.996 86.6255 165.872 86.711" fill="#141BEB"/>
<path d="M167.504 88.8285C167.614 88.7348 167.762 88.6641 167.929 88.6254L165.81 87.3986C165.791 87.3876 165.769 87.3792 165.745 87.374C165.721 87.3688 165.695 87.3669 165.67 87.3683C165.644 87.3697 165.619 87.3745 165.596 87.3823C165.573 87.3902 165.552 87.401 165.535 87.414L165.128 87.7266C165.111 87.7398 165.098 87.7549 165.089 87.7713C165.081 87.7876 165.077 87.8048 165.079 87.8218C165.08 87.8388 165.087 87.8554 165.098 87.8706C165.109 87.8857 165.124 87.8991 165.143 87.9101L167.262 89.1368C167.296 89.0213 167.381 88.9139 167.505 88.8284" fill="#141BEB"/>
<path opacity="0.4" d="M158.537 42.8083H175.976L171.132 87.8576C171.132 87.8576 170.731 89.7952 167.256 89.7952C163.781 89.7952 163.381 87.8576 163.381 87.8576L158.537 42.8083Z" fill="url(#paint8_linear_2570_22981)"/>
<path d="M87.2134 93.5907C86.9857 93.7213 86.7058 93.7206 86.4788 93.5888L72.9563 85.7371C72.4614 85.4497 72.4705 84.7317 72.9727 84.4571L86.9563 76.8093C87.1868 76.6832 87.4672 76.6899 87.6915 76.8267L100.56 84.6782C101.037 84.9691 101.027 85.6646 100.543 85.9426L87.2134 93.5907Z" fill="url(#paint9_linear_2570_22981)"/>
<g style="mix-blend-mode:multiply">
<path d="M86.3653 90.3254L77.501 85.2072L86.3653 80.0889L95.2309 85.2072L86.3653 90.3254Z" fill="#1228F3" fill-opacity="0.12"/>
</g>
<path d="M86.3538 77.5125L77.7554 72.5472L86.3538 67.5832L94.9534 72.5472L86.3538 77.5125Z" fill="#7075FF"/>
<g style="mix-blend-mode:soft-light">
<path d="M88.8782 74.1245L88.9699 74.2836C88.9736 74.2815 88.9773 74.2794 88.9812 74.2772C89.0002 74.2663 89.0219 74.2538 89.0433 74.2406C89.0903 74.2117 89.136 74.1822 89.1798 74.1527C89.2562 74.102 89.3284 74.0483 89.3952 73.9941C89.4223 73.9733 89.4487 73.951 89.471 73.9322C89.4755 73.9284 89.4799 73.9247 89.4841 73.9211L89.4841 73.9212L89.4866 73.919C89.6355 73.7891 89.7619 73.6505 89.864 73.5058C89.891 73.4683 89.915 73.4306 89.9363 73.396L89.9366 73.3953C90.0952 73.1347 90.1777 72.8574 90.1777 72.5752C90.1777 71.9245 89.7463 71.3131 88.9698 70.8667L88.9273 70.8423H88.926C88.1535 70.4116 87.1634 70.2013 86.183 70.2013C85.1842 70.2013 84.1755 70.4196 83.3969 70.8667L83.3968 70.8667C82.619 71.3137 82.1899 71.9255 82.1889 72.5752V72.5752V72.5752V72.5752V72.5752V72.5752V72.5753V72.5753V72.5753V72.5753V72.5753V72.5753V72.5753V72.5753V72.5753V72.5753V72.5753V72.5753V72.5753V72.5753V72.5754V72.5754V72.5754V72.5754V72.5754V72.5754V72.5754V72.5754V72.5754V72.5754V72.5754V72.5754V72.5754V72.5754V72.5755V72.5755V72.5755V72.5755V72.5755V72.5755V72.5755V72.5755V72.5755V72.5755V72.5755V72.5755V72.5755V72.5755V72.5756V72.5756V72.5756V72.5756V72.5756V72.5756V72.5756V72.5756V72.5756V72.5756V72.5756V72.5756V72.5756V72.5756V72.5757V72.5757V72.5757V72.5757V72.5757V72.5757V72.5757V72.5757V72.5757V72.5757V72.5757V72.5757V72.5757V72.5757V72.5758V72.5758V72.5758V72.5758V72.5758V72.5758V72.5758V72.5758V72.5758V72.5758V72.5758V72.5758V72.5758V72.5758V72.5759V72.5759V72.5759V72.5759V72.5759V72.5759V72.5759V72.5759V72.5759V72.5759V72.5759V72.5759V72.5759V72.5759V72.576V72.576C82.1889 72.577 82.1889 72.578 82.1889 72.579V72.6286C82.1889 72.6455 82.1908 72.6596 82.1915 72.6649L82.1915 72.6651L82.192 72.6682C82.1941 72.7028 82.1976 72.7366 82.2023 72.7707L82.2023 72.7709L82.2026 72.7727C82.2048 72.7886 82.2078 72.8103 82.2124 72.833C82.2189 72.8707 82.2272 72.907 82.2355 72.9404L82.2354 72.9404L82.2365 72.9444L82.2369 72.9459C82.2408 72.9604 82.2459 72.9792 82.2519 72.998C82.263 73.0348 82.2752 73.0729 82.29 73.112L82.2899 73.112L82.2908 73.1141C82.2937 73.1217 82.2968 73.129 82.2989 73.1341L82.2992 73.1347L82.3043 73.1472L82.3043 73.1472L82.305 73.1489C82.3228 73.1933 82.3429 73.2382 82.366 73.2834L82.3659 73.2834L82.3677 73.2867C82.3693 73.2897 82.371 73.2929 82.3727 73.2962C82.3855 73.32 82.4006 73.3482 82.4178 73.3769L82.4177 73.377L82.4214 73.3825L82.4302 73.3967L82.4306 73.3974C82.434 73.403 82.4388 73.4107 82.4439 73.4186C82.4608 73.4454 82.4807 73.4762 82.5028 73.5067C82.6692 73.7416 82.8987 73.9591 83.1868 74.1524C83.2313 74.1823 83.2777 74.2118 83.323 74.24L83.3229 74.24L83.3245 74.2409C83.3377 74.2489 83.3508 74.2565 83.3622 74.2631L83.3629 74.2635C83.3745 74.2702 83.3844 74.2759 83.3942 74.2818L83.3941 74.2818L83.3967 74.2833C83.3977 74.2839 83.3988 74.2845 83.3999 74.2852C83.4113 74.2918 83.4286 74.3019 83.4482 74.3113C84.2196 74.7399 85.2062 74.9495 86.1836 74.9495C87.161 74.9495 88.1476 74.7399 88.919 74.3113C88.9385 74.3019 88.9558 74.2918 88.9673 74.2852C88.9684 74.2845 88.9695 74.2839 88.9705 74.2833L88.8782 74.1245ZM88.8782 74.1245L88.876 74.1258C88.8621 74.1339 88.8491 74.1414 88.8351 74.1478L88.9472 74.084C88.9284 74.0956 88.9097 74.1064 88.8905 74.1174C88.8864 74.1198 88.8823 74.1221 88.8782 74.1245ZM82.1922 72.6702C82.1923 72.6703 82.1923 72.6703 82.1922 72.6702L82.1922 72.6702Z" fill="#00FFCC" stroke="#00EABB" stroke-width="0.367344"/>
<path d="M88.2398 72.4425C88.3495 72.3489 88.4971 72.2782 88.664 72.2394L86.545 71.0127C86.5261 71.0016 86.504 70.9933 86.4799 70.9881C86.4559 70.9829 86.4304 70.9809 86.4049 70.9824C86.3794 70.9838 86.3544 70.9886 86.3313 70.9964C86.3082 71.0043 86.2875 71.015 86.2703 71.0281L85.8631 71.3407C85.8461 71.3538 85.833 71.369 85.8246 71.3853C85.8162 71.4017 85.8126 71.4188 85.814 71.4359C85.8155 71.4529 85.8219 71.4695 85.833 71.4846C85.8441 71.4998 85.8596 71.5132 85.8787 71.5241L87.9976 72.7509C88.0318 72.6353 88.1161 72.528 88.2399 72.4425" fill="#141BEB"/>
<path d="M84.8675 71.6609C84.7577 71.7545 84.6099 71.8251 84.443 71.8638L86.562 73.0905C86.5809 73.1016 86.603 73.1099 86.6271 73.1151C86.6511 73.1203 86.6766 73.1223 86.7022 73.1208C86.7277 73.1194 86.7527 73.1146 86.7757 73.1068C86.7988 73.0989 86.8195 73.0882 86.8367 73.0751L87.2439 72.7625C87.2609 72.7494 87.274 72.7342 87.2824 72.7179C87.2909 72.7015 87.2945 72.6844 87.293 72.6673C87.2916 72.6503 87.2851 72.6337 87.274 72.6186C87.2629 72.6034 87.2474 72.59 87.2284 72.5791L85.1094 71.3523C85.0752 71.4679 84.9909 71.5752 84.8671 71.6607" fill="#141BEB"/>
<path d="M86.4996 73.7782C86.6093 73.6845 86.7569 73.6138 86.9238 73.5751L84.8048 72.3483C84.7859 72.3373 84.7637 72.3289 84.7397 72.3237C84.7157 72.3185 84.6901 72.3166 84.6646 72.318C84.6391 72.3194 84.6141 72.3242 84.591 72.332C84.568 72.3399 84.5473 72.3507 84.5301 72.3637L84.1229 72.6763C84.1059 72.6895 84.0928 72.7046 84.0843 72.721C84.0759 72.7373 84.0723 72.7545 84.0738 72.7715C84.0752 72.7886 84.0817 72.8051 84.0928 72.8203C84.1039 72.8354 84.1194 72.8488 84.1384 72.8598L86.2574 74.0865C86.2916 73.971 86.3759 73.8636 86.4996 73.7781" fill="#141BEB"/>
</g>
<path d="M86.355 77.6923C86.3234 77.6923 86.2931 77.6838 86.2652 77.668L77.6655 72.7027C77.6097 72.6699 77.5757 72.6104 77.5757 72.5461C77.5757 72.4817 77.6097 72.4222 77.6655 72.3894L86.2652 67.4266C86.321 67.3938 86.3902 67.3938 86.4461 67.4266L95.0457 72.3919C95.1016 72.4247 95.1356 72.4842 95.1356 72.5485C95.1356 72.6129 95.1016 72.6724 95.0457 72.7052L86.4461 77.6704C86.4182 77.6862 86.3866 77.6947 86.3562 77.6947L86.355 77.6923ZM78.1173 72.5473L86.355 77.3037L94.5928 72.5473L86.355 67.7909L78.1173 72.5473Z" fill="#141BEB"/>
<path d="M86.355 77.4649L77.7554 72.5471V82.429L86.355 87.3942L94.9546 82.429V72.5471L86.355 77.4649Z" fill="#464CFF"/>
<path d="M95.0042 82.5502L86.2554 87.5241V77.5775L95.0042 72.6511V82.5502Z" fill="#141BEB"/>
<path d="M86.355 87.5745C86.3234 87.5745 86.2931 87.566 86.2652 87.5502L77.6655 82.585C77.6097 82.5522 77.5757 82.4927 77.5757 82.4283V72.5476C77.5757 72.4833 77.6097 72.4238 77.6655 72.391C77.7214 72.3582 77.7894 72.3582 77.8453 72.391L86.355 77.2567L94.8648 72.391C94.9206 72.3594 94.9886 72.3594 95.0445 72.391C95.1003 72.4238 95.1343 72.4833 95.1343 72.5476V82.4295C95.1343 82.4939 95.1003 82.5534 95.0445 82.5862L86.4449 87.5514C86.4169 87.5672 86.3854 87.5757 86.355 87.5757V87.5745ZM77.9363 82.3251L86.355 87.1859L94.7737 82.3251V72.8597L86.4449 77.6222C86.389 77.6537 86.321 77.6537 86.2652 77.6222L77.9363 72.8597V82.3263V82.3251Z" fill="#141BEB"/>
<path d="M86.3582 87.5741C86.2586 87.5741 86.1772 87.4928 86.1772 87.3932V77.4639C86.1772 77.3644 86.2586 77.283 86.3582 77.283C86.4577 77.283 86.5391 77.3644 86.5391 77.4639V87.3932C86.5391 87.4928 86.4577 87.5741 86.3582 87.5741Z" fill="#141BEB"/>
<path d="M114.823 110.06C114.595 110.191 114.315 110.19 114.088 110.059L100.566 102.207C100.071 101.919 100.08 101.201 100.582 100.927L114.566 93.279C114.796 93.153 115.077 93.1596 115.301 93.2965L128.169 101.148C128.646 101.439 128.637 102.134 128.152 102.412L114.823 110.06Z" fill="url(#paint10_linear_2570_22981)"/>
<g style="mix-blend-mode:multiply">
<path d="M114.001 106.06L106.462 101.69L114.001 97.3204L121.541 101.69L114.001 106.06Z" fill="#1228F3" fill-opacity="0.12"/>
</g>
<path d="M113.963 83.6565L105.365 78.6913L113.963 73.7272L122.563 78.6913L113.963 83.6565Z" fill="#00EDBE"/>
<path d="M113.964 83.8363C113.933 83.8363 113.902 83.8278 113.875 83.812L105.275 78.8468C105.219 78.814 105.185 78.7545 105.185 78.6901C105.185 78.6258 105.219 78.5663 105.275 78.5335L113.875 73.5707C113.93 73.5379 114 73.5379 114.055 73.5707L122.655 78.5359C122.711 78.5687 122.745 78.6282 122.745 78.6926C122.745 78.7569 122.711 78.8164 122.655 78.8492L114.055 83.8144C114.028 83.8302 113.996 83.8387 113.966 83.8387L113.964 83.8363ZM105.727 78.6913L113.964 83.4477L122.202 78.6913L113.964 73.935L105.727 78.6913Z" fill="#141BEB"/>
<path d="M113.964 83.6095L105.365 78.6916V88.5735L113.964 93.5387L122.564 88.5735V78.6916L113.964 83.6095Z" fill="#464CFF"/>
<path d="M122.614 88.6948L113.865 93.6687V83.7221L122.614 78.7956V88.6948Z" fill="#141BEB"/>
<path d="M113.964 93.7185C113.933 93.7185 113.902 93.71 113.875 93.6942L105.275 88.729C105.219 88.6962 105.185 88.6367 105.185 88.5724V78.6917C105.185 78.6273 105.219 78.5678 105.275 78.535C105.331 78.5022 105.399 78.5022 105.455 78.535L113.964 83.4007L122.474 78.535C122.53 78.5035 122.598 78.5035 122.654 78.535C122.71 78.5678 122.744 78.6273 122.744 78.6917V88.5736C122.744 88.6379 122.71 88.6974 122.654 88.7302L114.054 93.6955C114.026 93.7112 113.995 93.7197 113.964 93.7197V93.7185ZM105.546 88.4691L113.964 93.33L122.383 88.4691V79.0037L114.054 83.7662C113.998 83.7978 113.93 83.7978 113.875 83.7662L105.546 79.0037V88.4704V88.4691Z" fill="#141BEB"/>
<path d="M113.968 93.7181C113.868 93.7181 113.787 93.6367 113.787 93.5371V83.6079C113.787 83.5083 113.868 83.4269 113.968 83.4269C114.067 83.4269 114.148 83.5083 114.148 83.6079V93.5371C114.148 93.6367 114.067 93.7181 113.968 93.7181Z" fill="#141BEB"/>
<path d="M116.597 80.1919L116.689 80.3511C116.692 80.349 116.696 80.3468 116.7 80.3446C116.719 80.3337 116.741 80.3212 116.762 80.308C116.809 80.2791 116.855 80.2496 116.899 80.2202C116.975 80.1694 117.047 80.1157 117.114 80.0616C117.141 80.0408 117.167 80.0185 117.19 79.9997C117.194 79.9958 117.199 79.9921 117.203 79.9886L117.203 79.9886L117.205 79.9864C117.354 79.8565 117.481 79.7179 117.583 79.5733C117.61 79.5358 117.634 79.498 117.655 79.4634L117.655 79.4628C117.814 79.2022 117.896 78.9249 117.896 78.6427C117.896 77.9919 117.465 77.3806 116.689 76.9341L116.646 76.9097H116.645C115.872 76.4791 114.882 76.2687 113.902 76.2687C112.903 76.2687 111.894 76.487 111.116 76.9341L111.116 76.9341C110.338 77.3812 109.909 77.993 109.908 78.6427V78.6427V78.6427V78.6427V78.6427V78.6427V78.6427V78.6427V78.6427V78.6427V78.6427V78.6427V78.6427V78.6427V78.6428V78.6428V78.6428V78.6428V78.6428V78.6428V78.6428V78.6428V78.6428V78.6428V78.6428V78.6428V78.6428V78.6428V78.6429V78.6429V78.6429V78.6429V78.6429V78.6429V78.6429V78.6429V78.6429V78.6429V78.6429V78.6429V78.6429V78.6429V78.643V78.643V78.643V78.643V78.643V78.643V78.643V78.643V78.643V78.643V78.643V78.643V78.643V78.643V78.6431V78.6431V78.6431V78.6431V78.6431V78.6431V78.6431V78.6431V78.6431V78.6431V78.6431V78.6431V78.6431V78.6431V78.6432V78.6432V78.6432V78.6432V78.6432V78.6432V78.6432V78.6432V78.6432V78.6432V78.6432V78.6432V78.6432V78.6432V78.6433V78.6433V78.6433V78.6433V78.6433V78.6433V78.6433V78.6433V78.6433V78.6433V78.6433V78.6433V78.6433V78.6433V78.6434V78.6434V78.6434V78.6434V78.6434V78.6434V78.6434V78.6434C109.908 78.6444 109.908 78.6454 109.908 78.6464V78.696C109.908 78.7129 109.91 78.7271 109.91 78.7324L109.91 78.7325L109.911 78.7356C109.913 78.7702 109.916 78.8041 109.921 78.8382L109.921 78.8383L109.921 78.8402C109.924 78.8561 109.927 78.8777 109.931 78.9004C109.938 78.9381 109.946 78.9745 109.954 79.0078L109.954 79.0079L109.955 79.0119L109.956 79.0133C109.96 79.0278 109.965 79.0466 109.971 79.0655C109.982 79.1023 109.994 79.1404 110.009 79.1795L110.009 79.1795L110.01 79.1816C110.012 79.1892 110.016 79.1964 110.018 79.2016L110.018 79.2022L110.023 79.2147L110.023 79.2147L110.024 79.2163C110.042 79.2607 110.062 79.3056 110.085 79.3508L110.085 79.3508L110.086 79.3541C110.088 79.3572 110.09 79.3604 110.091 79.3636C110.104 79.3875 110.119 79.4157 110.137 79.4443L110.136 79.4444L110.14 79.45L110.149 79.4642L110.149 79.4649C110.153 79.4704 110.158 79.4781 110.163 79.486C110.18 79.5128 110.199 79.5437 110.222 79.5742C110.388 79.809 110.617 80.0266 110.906 80.2198C110.95 80.2498 110.996 80.2793 111.042 80.3074L111.042 80.3074L111.043 80.3084C111.056 80.3164 111.07 80.324 111.081 80.3305L111.082 80.331C111.093 80.3376 111.103 80.3434 111.113 80.3492L111.113 80.3493L111.115 80.3508C111.116 80.3513 111.118 80.352 111.119 80.3526C111.13 80.3593 111.147 80.3693 111.167 80.3788C111.938 80.8074 112.925 81.0169 113.902 81.0169C114.88 81.0169 115.866 80.8074 116.638 80.3788C116.657 80.3694 116.675 80.3593 116.686 80.3526C116.687 80.352 116.688 80.3513 116.689 80.3508L116.597 80.1919ZM116.597 80.1919L116.595 80.1932C116.581 80.2013 116.568 80.2088 116.554 80.2152L116.666 80.1515C116.647 80.1631 116.628 80.1739 116.609 80.1848C116.605 80.1872 116.601 80.1896 116.597 80.1919ZM109.911 78.7377C109.911 78.7378 109.911 78.7378 109.911 78.7377L109.911 78.7377Z" fill="#00FFCC" stroke="#00EABB" stroke-width="0.367344"/>
<path d="M115.959 78.51C116.068 78.4163 116.216 78.3456 116.383 78.3069L114.264 77.0801C114.245 77.0691 114.223 77.0607 114.199 77.0555C114.175 77.0503 114.149 77.0484 114.124 77.0498C114.098 77.0512 114.073 77.056 114.05 77.0639C114.027 77.0717 114.006 77.0825 113.989 77.0955L113.582 77.4081C113.565 77.4213 113.552 77.4364 113.543 77.4528C113.535 77.4691 113.531 77.4863 113.533 77.5033C113.534 77.5204 113.541 77.5369 113.552 77.5521C113.563 77.5672 113.578 77.5806 113.597 77.5916L115.716 78.8184C115.751 78.7028 115.835 78.5954 115.959 78.5099" fill="#141BEB"/>
<path d="M112.586 77.7284C112.476 77.822 112.329 77.8926 112.162 77.9312L114.281 79.158C114.3 79.169 114.322 79.1774 114.346 79.1826C114.37 79.1878 114.395 79.1897 114.421 79.1883C114.446 79.1869 114.471 79.1821 114.494 79.1742C114.518 79.1664 114.538 79.1556 114.555 79.1426L114.963 78.83C114.98 78.8168 114.993 78.8016 115.001 78.7853C115.01 78.769 115.013 78.7518 115.012 78.7348C115.01 78.7177 115.004 78.7012 114.993 78.686C114.982 78.6709 114.966 78.6575 114.947 78.6465L112.828 77.4197C112.794 77.5353 112.71 77.6427 112.586 77.7282" fill="#141BEB"/>
<path d="M114.218 79.8456C114.328 79.7519 114.476 79.6813 114.643 79.6425L112.524 78.4157C112.505 78.4047 112.482 78.3963 112.458 78.3911C112.434 78.3859 112.409 78.384 112.383 78.3854C112.358 78.3869 112.333 78.3916 112.31 78.3995C112.287 78.4073 112.266 78.4181 112.249 78.4312L111.842 78.7438C111.825 78.7569 111.812 78.7721 111.803 78.7884C111.795 78.8047 111.791 78.8219 111.793 78.839C111.794 78.856 111.8 78.8726 111.812 78.8877C111.823 78.9028 111.838 78.9163 111.857 78.9272L113.976 80.154C114.01 80.0384 114.095 79.9311 114.218 79.8455" fill="#141BEB"/>
<path opacity="0.4" d="M105.248 33.8253H122.686L117.842 78.8746C117.842 78.8746 117.442 80.8122 113.967 80.8122C110.492 80.8122 110.092 78.8746 110.092 78.8746L105.248 33.8253Z" fill="url(#paint11_linear_2570_22981)"/>
<path d="M147.284 126.53C147.056 126.661 146.776 126.66 146.549 126.528L133.027 118.677C132.532 118.389 132.541 117.671 133.043 117.397L147.027 109.749C147.257 109.623 147.537 109.629 147.762 109.766L160.63 117.618C161.107 117.909 161.098 118.604 160.613 118.882L147.284 126.53Z" fill="url(#paint12_linear_2570_22981)"/>
<g style="mix-blend-mode:multiply">
<path d="M146.436 123.264L137.571 118.146L146.436 113.028L155.301 118.146L146.436 123.264Z" fill="#1228F3" fill-opacity="0.12"/>
</g>
<path d="M146.424 110.452L137.826 105.487L146.424 100.523L155.024 105.487L146.424 110.452Z" fill="#7075FF"/>
<g style="mix-blend-mode:soft-light">
<path d="M148.808 107.013L148.9 107.172C148.903 107.17 148.907 107.168 148.911 107.166C148.93 107.155 148.952 107.142 148.973 107.129C149.02 107.1 149.066 107.071 149.109 107.041C149.186 106.991 149.258 106.937 149.325 106.883C149.352 106.862 149.378 106.84 149.401 106.821C149.405 106.817 149.41 106.813 149.414 106.81L149.414 106.81L149.416 106.808C149.565 106.678 149.692 106.539 149.794 106.394C149.821 106.357 149.845 106.319 149.866 106.285L149.866 106.284C150.025 106.023 150.107 105.746 150.107 105.464C150.107 104.813 149.676 104.202 148.899 103.755L148.857 103.731H148.856C148.083 103.3 147.093 103.09 146.113 103.09C145.114 103.09 144.105 103.308 143.327 103.755L143.327 103.755C142.549 104.202 142.12 104.814 142.119 105.464V105.464V105.464V105.464V105.464V105.464V105.464V105.464V105.464V105.464V105.464V105.464V105.464V105.464V105.464V105.464V105.464V105.464V105.464V105.464V105.464V105.464V105.464V105.464V105.464V105.464V105.464V105.464V105.464V105.464V105.464V105.464V105.464V105.464V105.464V105.464V105.464V105.464V105.464V105.464V105.464V105.464V105.464V105.464V105.464V105.464V105.464V105.464V105.464V105.464V105.464V105.464V105.464V105.464V105.464V105.464V105.464V105.464V105.464V105.464V105.464V105.464V105.464V105.464V105.464V105.464V105.464V105.464V105.464V105.464V105.464V105.464V105.464V105.464V105.464V105.464V105.464V105.464V105.464V105.464V105.464V105.464V105.464V105.464V105.464V105.464V105.464V105.465V105.465V105.465V105.465V105.465V105.465V105.465V105.465V105.465V105.465V105.465V105.465V105.465V105.465V105.465V105.465V105.465V105.465V105.465C142.119 105.466 142.119 105.467 142.119 105.468V105.517C142.119 105.534 142.12 105.548 142.121 105.554L142.121 105.554L142.122 105.557C142.124 105.591 142.127 105.625 142.132 105.659L142.132 105.66L142.132 105.661C142.134 105.677 142.137 105.699 142.142 105.722C142.149 105.759 142.157 105.796 142.165 105.829L142.165 105.829L142.166 105.833L142.167 105.835C142.171 105.849 142.176 105.868 142.182 105.887C142.193 105.923 142.205 105.962 142.22 106.001L142.22 106.001L142.22 106.003C142.223 106.01 142.226 106.018 142.229 106.023L142.229 106.023L142.234 106.036L142.234 106.036L142.235 106.038C142.252 106.082 142.273 106.127 142.296 106.172L142.296 106.172L142.297 106.175C142.299 106.178 142.301 106.182 142.302 106.185C142.315 106.209 142.33 106.237 142.348 106.266L142.347 106.266L142.351 106.271L142.36 106.285L142.36 106.286C142.364 106.292 142.368 106.299 142.374 106.307C142.391 106.334 142.41 106.365 142.432 106.395C142.599 106.63 142.828 106.848 143.117 107.041C143.161 107.071 143.207 107.101 143.253 107.129L143.253 107.129L143.254 107.13C143.267 107.138 143.281 107.145 143.292 107.152L143.293 107.152C143.304 107.159 143.314 107.165 143.324 107.17L143.324 107.17L143.326 107.172C143.327 107.173 143.328 107.173 143.33 107.174C143.341 107.181 143.358 107.191 143.378 107.2C144.149 107.629 145.136 107.838 146.113 107.838C147.091 107.838 148.077 107.629 148.849 107.2C148.868 107.191 148.886 107.181 148.897 107.174C148.898 107.173 148.899 107.173 148.9 107.172L148.808 107.013ZM148.808 107.013L148.806 107.014C148.792 107.023 148.779 107.03 148.765 107.036L148.877 106.973C148.858 106.984 148.839 106.995 148.82 107.006C148.816 107.008 148.812 107.011 148.808 107.013ZM142.122 105.559C142.122 105.559 142.122 105.559 142.122 105.559L142.122 105.559Z" fill="#00FFCC" stroke="#00EABB" stroke-width="0.367344"/>
<path d="M148.169 105.331C148.279 105.238 148.427 105.167 148.594 105.128L146.475 103.901C146.456 103.89 146.434 103.882 146.41 103.877C146.386 103.872 146.36 103.87 146.335 103.871C146.309 103.872 146.284 103.877 146.261 103.885C146.238 103.893 146.217 103.904 146.2 103.917L145.793 104.229C145.776 104.243 145.763 104.258 145.754 104.274C145.746 104.29 145.742 104.308 145.744 104.325C145.745 104.342 145.752 104.358 145.763 104.373C145.774 104.388 145.789 104.402 145.808 104.413L147.927 105.64C147.962 105.524 148.046 105.417 148.17 105.331" fill="#141BEB"/>
<path d="M144.797 104.55C144.687 104.643 144.54 104.714 144.373 104.752L146.492 105.979C146.511 105.99 146.533 105.999 146.557 106.004C146.581 106.009 146.606 106.011 146.632 106.01C146.657 106.008 146.682 106.003 146.705 105.995C146.729 105.988 146.749 105.977 146.766 105.964L147.174 105.651C147.191 105.638 147.204 105.623 147.212 105.607C147.221 105.59 147.224 105.573 147.223 105.556C147.221 105.539 147.215 105.522 147.204 105.507C147.193 105.492 147.177 105.479 147.158 105.468L145.039 104.241C145.005 104.357 144.921 104.464 144.797 104.549" fill="#141BEB"/>
<path d="M146.429 106.667C146.539 106.573 146.687 106.502 146.853 106.464L144.734 105.237C144.716 105.226 144.693 105.218 144.669 105.212C144.645 105.207 144.62 105.205 144.594 105.207C144.569 105.208 144.544 105.213 144.521 105.221C144.498 105.229 144.477 105.239 144.46 105.252L144.053 105.565C144.036 105.578 144.022 105.593 144.014 105.61C144.006 105.626 144.002 105.643 144.003 105.66C144.005 105.677 144.011 105.694 144.022 105.709C144.034 105.724 144.049 105.738 144.068 105.748L146.187 106.975C146.221 106.86 146.306 106.752 146.429 106.667" fill="#141BEB"/>
</g>
<path d="M146.425 110.632C146.394 110.632 146.363 110.623 146.335 110.607L137.736 105.642C137.68 105.609 137.646 105.55 137.646 105.486C137.646 105.421 137.68 105.362 137.736 105.329L146.335 100.366C146.391 100.333 146.461 100.333 146.516 100.366L155.116 105.331C155.172 105.364 155.206 105.424 155.206 105.488C155.206 105.552 155.172 105.612 155.116 105.645L146.516 110.61C146.488 110.626 146.457 110.634 146.427 110.634L146.425 110.632ZM138.188 105.487L146.425 110.243L154.663 105.487L146.425 100.73L138.188 105.487Z" fill="#141BEB"/>
<path d="M146.425 110.404L137.826 105.487V115.368L146.425 120.334L155.025 115.368V105.487L146.425 110.404Z" fill="#464CFF"/>
<path d="M155.075 115.49L146.326 120.464V110.517L155.075 105.591V115.49Z" fill="#141BEB"/>
<path d="M146.425 120.513C146.394 120.513 146.363 120.505 146.335 120.489L137.736 115.524C137.68 115.491 137.646 115.432 137.646 115.367V105.487C137.646 105.422 137.68 105.363 137.736 105.33C137.792 105.297 137.86 105.297 137.916 105.33L146.425 110.196L154.935 105.33C154.991 105.298 155.059 105.298 155.115 105.33C155.171 105.363 155.205 105.422 155.205 105.487V115.368C155.205 115.433 155.171 115.492 155.115 115.525L146.515 120.49C146.487 120.506 146.456 120.515 146.425 120.515V120.513ZM138.007 115.264L146.425 120.125L154.844 115.264V105.799L146.515 110.561C146.459 110.593 146.391 110.593 146.335 110.561L138.007 105.799V115.265V115.264Z" fill="#141BEB"/>
<path d="M146.428 120.513C146.329 120.513 146.248 120.432 146.248 120.332V110.403C146.248 110.304 146.329 110.222 146.428 110.222C146.528 110.222 146.609 110.304 146.609 110.403V120.332C146.609 120.432 146.528 120.513 146.428 120.513Z" fill="#141BEB"/>
<path d="M64.4477 106.185C64.2201 106.316 63.9401 106.315 63.7132 106.184L50.1907 98.3318C49.6957 98.0444 49.7049 97.3265 50.2071 97.0518L64.1907 89.404C64.4212 89.278 64.7015 89.2846 64.9258 89.4215L77.7944 97.2729C78.2712 97.5638 78.2618 98.2593 77.7774 98.5373L64.4477 106.185Z" fill="url(#paint13_linear_2570_22981)"/>
<g style="mix-blend-mode:multiply">
<path d="M63.5997 102.92L54.7354 97.8013L63.5997 92.6831L72.4652 97.8013L63.5997 102.92Z" fill="#1228F3" fill-opacity="0.12"/>
</g>
<path d="M63.5852 83.4364L54.9868 78.4712L63.5852 73.5071L72.1848 78.4712L63.5852 83.4364Z" fill="#00EDBE"/>
<path d="M63.5865 83.6162C63.5549 83.6162 63.5245 83.6077 63.4966 83.5919L54.897 78.6267C54.8411 78.5939 54.8071 78.5344 54.8071 78.47C54.8071 78.4057 54.8411 78.3462 54.897 78.3134L63.4966 73.3506C63.5525 73.3178 63.6217 73.3178 63.6775 73.3506L72.2771 78.3158C72.333 78.3486 72.367 78.4081 72.367 78.4725C72.367 78.5368 72.333 78.5963 72.2771 78.6291L63.6775 83.5943C63.6496 83.6101 63.618 83.6186 63.5877 83.6186L63.5865 83.6162ZM55.3487 78.4712L63.5865 83.2276L71.8242 78.4712L63.5865 73.7149L55.3487 78.4712Z" fill="#141BEB"/>
<path d="M63.5864 83.3894L54.9868 78.4715V88.3534L63.5864 93.3186L72.186 88.3534V78.4715L63.5864 83.3894Z" fill="#464CFF"/>
<path d="M72.2357 88.4747L63.4868 93.4486V83.502L72.2357 78.5755V88.4747Z" fill="#141BEB"/>
<path d="M63.5865 93.4979C63.5549 93.4979 63.5245 93.4894 63.4966 93.4737L54.897 88.5084C54.8411 88.4756 54.8071 88.4161 54.8071 88.3518V78.4711C54.8071 78.4067 54.8411 78.3472 54.897 78.3144C54.9528 78.2817 55.0208 78.2817 55.0767 78.3144L63.5865 83.1801L72.0962 78.3144C72.1521 78.2829 72.2201 78.2829 72.2759 78.3144C72.3318 78.3472 72.3658 78.4067 72.3658 78.4711V88.353C72.3658 88.4174 72.3318 88.4769 72.2759 88.5096L63.6763 93.4749C63.6484 93.4907 63.6168 93.4992 63.5865 93.4992V93.4979ZM55.1678 88.2486L63.5865 93.1094L72.0051 88.2486V78.7832L63.6763 83.5456C63.6205 83.5772 63.5525 83.5772 63.4966 83.5456L55.1678 78.7832V88.2498V88.2486Z" fill="#141BEB"/>
<path d="M63.5896 93.498C63.49 93.498 63.4087 93.4166 63.4087 93.317V83.3878C63.4087 83.2882 63.49 83.2068 63.5896 83.2068C63.6892 83.2068 63.7705 83.2882 63.7705 83.3878V93.317C63.7705 93.4166 63.6892 93.498 63.5896 93.498Z" fill="#141BEB"/>
<path d="M66.219 79.9719L66.3108 80.131C66.3144 80.1289 66.3181 80.1268 66.322 80.1246C66.341 80.1137 66.3627 80.1012 66.3841 80.088C66.4311 80.0591 66.4769 80.0296 66.5206 80.0001C66.5971 79.9494 66.6692 79.8957 66.736 79.8415C66.7631 79.8208 66.7895 79.7984 66.8118 79.7796C66.8163 79.7758 66.8207 79.7721 66.8249 79.7685L66.825 79.7686L66.8275 79.7664C66.9763 79.6365 67.1027 79.4979 67.2048 79.3532C67.2318 79.3157 67.2558 79.278 67.2771 79.2434L67.2774 79.2428C67.436 78.9822 67.5185 78.7048 67.5185 78.4226C67.5185 77.7719 67.0871 77.1606 66.3106 76.7141L66.2681 76.6897H66.2668C65.4943 76.259 64.5042 76.0487 63.5238 76.0487C62.525 76.0487 61.5163 76.267 60.7377 76.7141L60.7376 76.7141C59.9598 77.1611 59.5307 77.7729 59.5297 78.4226V78.4226V78.4226V78.4226V78.4226V78.4227V78.4227V78.4227V78.4227V78.4227V78.4227V78.4227V78.4227V78.4227V78.4227V78.4227V78.4227V78.4227V78.4227V78.4228V78.4228V78.4228V78.4228V78.4228V78.4228V78.4228V78.4228V78.4228V78.4228V78.4228V78.4228V78.4228V78.4229V78.4229V78.4229V78.4229V78.4229V78.4229V78.4229V78.4229V78.4229V78.4229V78.4229V78.4229V78.4229V78.4229V78.423V78.423V78.423V78.423V78.423V78.423V78.423V78.423V78.423V78.423V78.423V78.423V78.423V78.423V78.4231V78.4231V78.4231V78.4231V78.4231V78.4231V78.4231V78.4231V78.4231V78.4231V78.4231V78.4231V78.4231V78.4231V78.4232V78.4232V78.4232V78.4232V78.4232V78.4232V78.4232V78.4232V78.4232V78.4232V78.4232V78.4232V78.4232V78.4232V78.4233V78.4233V78.4233V78.4233V78.4233V78.4233V78.4233V78.4233V78.4233V78.4233V78.4233V78.4233V78.4233V78.4233V78.4234V78.4234V78.4234V78.4234C59.5297 78.4244 59.5297 78.4254 59.5297 78.4264V78.476C59.5297 78.4929 59.5316 78.507 59.5323 78.5124L59.5324 78.5125L59.5328 78.5156C59.535 78.5502 59.5384 78.584 59.5431 78.6181L59.5431 78.6183L59.5434 78.6202C59.5456 78.636 59.5486 78.6577 59.5532 78.6804C59.5597 78.7181 59.5681 78.7544 59.5763 78.7878L59.5763 78.7878L59.5773 78.7918L59.5777 78.7933C59.5817 78.8078 59.5867 78.8266 59.5927 78.8454C59.6038 78.8822 59.6161 78.9204 59.6308 78.9594L59.6308 78.9594L59.6316 78.9615C59.6345 78.9691 59.6376 78.9764 59.6397 78.9815L59.64 78.9822L59.6451 78.9946L59.6451 78.9946L59.6458 78.9963C59.6636 79.0407 59.6837 79.0856 59.7068 79.1308L59.7067 79.1308L59.7085 79.1341C59.7101 79.1372 59.7118 79.1403 59.7136 79.1436C59.7263 79.1674 59.7414 79.1957 59.7587 79.2243L59.7586 79.2244L59.7622 79.2299L59.771 79.2441L59.7715 79.2448C59.7749 79.2504 59.7796 79.2581 59.7847 79.266C59.8016 79.2928 59.8215 79.3236 59.8436 79.3542C60.01 79.589 60.2395 79.8065 60.5277 79.9998C60.5721 80.0297 60.6186 80.0592 60.6638 80.0874L60.6638 80.0874L60.6653 80.0883C60.6785 80.0963 60.6916 80.1039 60.703 80.1105L60.7037 80.1109C60.7153 80.1176 60.7252 80.1233 60.735 80.1292L60.735 80.1292L60.7375 80.1307C60.7385 80.1313 60.7396 80.1319 60.7407 80.1326C60.7522 80.1392 60.7694 80.1493 60.789 80.1587C61.5604 80.5873 62.547 80.7969 63.5244 80.7969C64.5018 80.7969 65.4884 80.5873 66.2598 80.1587C66.2794 80.1493 66.2966 80.1393 66.3081 80.1326C66.3092 80.1319 66.3103 80.1313 66.3113 80.1307L66.219 79.9719ZM66.219 79.9719L66.2168 79.9732C66.2029 79.9813 66.19 79.9888 66.1759 79.9952L66.288 79.9314C66.2692 79.9431 66.2505 79.9538 66.2314 79.9648C66.2273 79.9672 66.2232 79.9695 66.219 79.9719ZM59.5331 78.5176C59.5331 78.5177 59.5331 78.5177 59.5331 78.5176L59.5331 78.5176Z" fill="#00FFCC" stroke="#00EABB" stroke-width="0.367344"/>
<path d="M65.5806 78.2899C65.6903 78.1963 65.838 78.1256 66.0048 78.0868L63.8859 76.8601C63.8669 76.849 63.8448 76.8407 63.8208 76.8355C63.7967 76.8303 63.7712 76.8283 63.7457 76.8298C63.7202 76.8312 63.6952 76.836 63.6721 76.8438C63.649 76.8517 63.6283 76.8624 63.6112 76.8755L63.2039 77.1881C63.1869 77.2012 63.1738 77.2164 63.1654 77.2327C63.157 77.2491 63.1534 77.2663 63.1548 77.2833C63.1563 77.3003 63.1627 77.3169 63.1738 77.332C63.1849 77.3472 63.2004 77.3606 63.2195 77.3716L65.3385 78.5983C65.3726 78.4828 65.4569 78.3754 65.5807 78.2899" fill="#141BEB"/>
<path d="M62.2083 77.5084C62.0985 77.602 61.9508 77.6725 61.7838 77.7112L63.9028 78.9379C63.9217 78.949 63.9439 78.9573 63.9679 78.9625C63.992 78.9678 64.0175 78.9697 64.043 78.9683C64.0685 78.9668 64.0935 78.9621 64.1166 78.9542C64.1397 78.9464 64.1604 78.9356 64.1775 78.9225L64.5847 78.6099C64.6018 78.5968 64.6148 78.5816 64.6233 78.5653C64.6317 78.5489 64.6353 78.5318 64.6338 78.5147C64.6324 78.4977 64.6259 78.4811 64.6148 78.466C64.6037 78.4508 64.5882 78.4374 64.5692 78.4265L62.4502 77.1997C62.416 77.3153 62.3317 77.4226 62.208 77.5082" fill="#141BEB"/>
<path d="M63.8404 79.6256C63.9501 79.5319 64.0977 79.4612 64.2646 79.4225L62.1456 78.1957C62.1267 78.1847 62.1046 78.1763 62.0805 78.1711C62.0565 78.1659 62.031 78.164 62.0055 78.1654C61.98 78.1668 61.9549 78.1716 61.9319 78.1795C61.9088 78.1873 61.8881 78.1981 61.8709 78.2111L61.4637 78.5237C61.4467 78.5369 61.4336 78.552 61.4252 78.5684C61.4167 78.5847 61.4132 78.6019 61.4146 78.6189C61.416 78.636 61.4225 78.6525 61.4336 78.6677C61.4447 78.6828 61.4602 78.6962 61.4793 78.7072L63.5982 79.934C63.6324 79.8184 63.7167 79.711 63.8405 79.6255" fill="#141BEB"/>
<path opacity="0.4" d="M54.873 33.6047H72.3115L67.4675 78.654C67.4675 78.654 67.0671 80.5916 63.5923 80.5916C60.1174 80.5916 59.7171 78.654 59.7171 78.654L54.873 33.6047Z" fill="url(#paint14_linear_2570_22981)"/>
<path d="M93.0259 122.17C92.7982 122.301 92.5183 122.3 92.2913 122.168L78.7688 114.317C78.2739 114.029 78.283 113.311 78.7852 113.037L92.7688 105.389C92.9993 105.263 93.2797 105.269 93.504 105.406L106.373 113.258C106.849 113.549 106.84 114.244 106.355 114.522L93.0259 122.17Z" fill="url(#paint15_linear_2570_22981)"/>
<g style="mix-blend-mode:multiply">
<path d="M92.1778 118.905L83.3135 113.786L92.1778 108.668L101.043 113.786L92.1778 118.905Z" fill="#1228F3" fill-opacity="0.12"/>
</g>
<path d="M92.1663 106.092L83.5679 101.127L92.1663 96.1628L100.766 101.127L92.1663 106.092Z" fill="#7075FF"/>
<g style="mix-blend-mode:soft-light">
<path d="M94.722 102.627L94.8137 102.787C94.8173 102.784 94.8211 102.782 94.8249 102.78C94.8439 102.769 94.8656 102.757 94.887 102.743C94.9341 102.715 94.9798 102.685 95.0236 102.656C95.1 102.605 95.1722 102.551 95.239 102.497C95.2661 102.476 95.2925 102.454 95.3147 102.435C95.3193 102.431 95.3237 102.428 95.3279 102.424L95.3279 102.424L95.3304 102.422C95.4793 102.292 95.6056 102.153 95.7078 102.009C95.7347 101.971 95.7588 101.933 95.78 101.899L95.7804 101.898C95.9389 101.638 96.0214 101.36 96.0214 101.078C96.0214 100.427 95.59 99.8161 94.8135 99.3696L94.771 99.3452H94.7697C93.9972 98.9146 93.0072 98.7042 92.0267 98.7042C91.0279 98.7042 90.0192 98.9225 89.2406 99.3696L89.2406 99.3696C88.4627 99.8166 88.0336 100.428 88.0326 101.078V101.078V101.078V101.078V101.078V101.078V101.078V101.078V101.078V101.078V101.078V101.078V101.078V101.078V101.078V101.078V101.078V101.078V101.078V101.078V101.078V101.078V101.078V101.078V101.078V101.078V101.078V101.078V101.078V101.078V101.078V101.078V101.078V101.078V101.078V101.078V101.078V101.078V101.078V101.078V101.078V101.078V101.078V101.078V101.078V101.078V101.078V101.078V101.078V101.078V101.078V101.079V101.079V101.079V101.079V101.079V101.079V101.079V101.079V101.079V101.079V101.079V101.079V101.079V101.079V101.079V101.079V101.079V101.079V101.079V101.079V101.079V101.079V101.079V101.079V101.079V101.079V101.079V101.079V101.079V101.079V101.079V101.079V101.079V101.079V101.079V101.079V101.079V101.079V101.079V101.079V101.079V101.079V101.079V101.079V101.079V101.079V101.079V101.079V101.079V101.079V101.079V101.079V101.079V101.079V101.079C88.0326 101.08 88.0326 101.081 88.0326 101.082V101.131C88.0326 101.148 88.0346 101.163 88.0353 101.168L88.0353 101.168L88.0357 101.171C88.0379 101.206 88.0414 101.24 88.0461 101.274L88.0461 101.274L88.0463 101.276C88.0485 101.292 88.0515 101.313 88.0561 101.336C88.0627 101.374 88.071 101.41 88.0792 101.443L88.0792 101.443L88.0803 101.447L88.0807 101.449C88.0846 101.463 88.0897 101.482 88.0957 101.501C88.1067 101.538 88.119 101.576 88.1337 101.615L88.1337 101.615L88.1345 101.617C88.1375 101.625 88.1405 101.632 88.1427 101.637L88.1429 101.638L88.1481 101.65L88.1481 101.65L88.1487 101.652C88.1666 101.696 88.1866 101.741 88.2097 101.786L88.2097 101.786L88.2114 101.79C88.2131 101.793 88.2148 101.796 88.2165 101.799C88.2292 101.823 88.2443 101.851 88.2616 101.88L88.2615 101.88L88.2651 101.885L88.274 101.9L88.2744 101.9C88.2778 101.906 88.2825 101.914 88.2876 101.922C88.3046 101.948 88.3245 101.979 88.3465 102.01C88.513 102.245 88.7424 102.462 89.0306 102.655C89.0751 102.685 89.1215 102.715 89.1667 102.743L89.1667 102.743L89.1683 102.744C89.1814 102.752 89.1946 102.759 89.2059 102.766L89.2067 102.766C89.2182 102.773 89.2282 102.779 89.2379 102.785L89.2379 102.785L89.2405 102.786C89.2415 102.787 89.2425 102.787 89.2436 102.788C89.2551 102.795 89.2724 102.805 89.2919 102.814C90.0633 103.243 91.0499 103.452 92.0273 103.452C93.0047 103.452 93.9914 103.243 94.7627 102.814C94.7823 102.805 94.7996 102.795 94.811 102.788C94.8121 102.787 94.8132 102.787 94.8142 102.786L94.722 102.627ZM94.722 102.627L94.7197 102.629C94.7058 102.637 94.6929 102.644 94.6789 102.651L94.7909 102.587C94.7722 102.599 94.7534 102.609 94.7343 102.62C94.7302 102.623 94.7261 102.625 94.722 102.627ZM88.036 101.173C88.036 101.173 88.036 101.173 88.036 101.173L88.036 101.173Z" fill="#00FFCC" stroke="#00EABB" stroke-width="0.367344"/>
<path d="M94.0836 100.945C94.1932 100.852 94.3409 100.781 94.5078 100.742L92.3888 99.5156C92.3699 99.5046 92.3477 99.4962 92.3237 99.491C92.2996 99.4858 92.2741 99.4839 92.2486 99.4853C92.2231 99.4867 92.1981 99.4915 92.175 99.4993C92.1519 99.5072 92.1312 99.518 92.1141 99.531L91.7068 99.8436C91.6898 99.8568 91.6768 99.8719 91.6683 99.8883C91.6599 99.9046 91.6563 99.9218 91.6578 99.9388C91.6592 99.9558 91.6657 99.9724 91.6768 99.9876C91.6879 100.003 91.7034 100.016 91.7224 100.027L93.8414 101.254C93.8756 101.138 93.9599 101.031 94.0836 100.945" fill="#141BEB"/>
<path d="M90.7112 100.164C90.6014 100.257 90.4537 100.328 90.2868 100.367L92.4057 101.593C92.4247 101.605 92.4468 101.613 92.4708 101.618C92.4949 101.623 92.5204 101.625 92.5459 101.624C92.5714 101.622 92.5964 101.618 92.6195 101.61C92.6426 101.602 92.6633 101.591 92.6804 101.578L93.0877 101.265C93.1047 101.252 93.1178 101.237 93.1262 101.221C93.1346 101.204 93.1382 101.187 93.1368 101.17C93.1353 101.153 93.1289 101.137 93.1178 101.122C93.1067 101.106 93.0912 101.093 93.0721 101.082L90.9531 99.8552C90.919 99.9708 90.8346 100.078 90.7109 100.164" fill="#141BEB"/>
<path d="M92.3433 102.281C92.453 102.187 92.6006 102.117 92.7675 102.078L90.6485 100.851C90.6296 100.84 90.6075 100.832 90.5834 100.827C90.5594 100.821 90.5339 100.819 90.5084 100.821C90.4829 100.822 90.4579 100.827 90.4348 100.835C90.4117 100.843 90.391 100.854 90.3739 100.867L89.9666 101.179C89.9496 101.192 89.9365 101.208 89.9281 101.224C89.9197 101.24 89.9161 101.257 89.9175 101.274C89.919 101.291 89.9254 101.308 89.9365 101.323C89.9476 101.338 89.9631 101.352 89.9822 101.363L92.1012 102.589C92.1353 102.474 92.2196 102.367 92.3434 102.281" fill="#141BEB"/>
</g>
<path d="M92.1675 106.272C92.1359 106.272 92.1056 106.263 92.0777 106.248L83.478 101.282C83.4222 101.25 83.3882 101.19 83.3882 101.126C83.3882 101.061 83.4222 101.002 83.478 100.969L92.0777 96.0062C92.1335 95.9734 92.2027 95.9734 92.2586 96.0062L100.858 100.971C100.914 101.004 100.948 101.064 100.948 101.128C100.948 101.192 100.914 101.252 100.858 101.285L92.2586 106.25C92.2307 106.266 92.1991 106.274 92.1687 106.274L92.1675 106.272ZM83.9298 101.127L92.1675 105.883L100.405 101.127L92.1675 96.3705L83.9298 101.127Z" fill="#141BEB"/>
<path d="M92.1675 106.045L83.5679 101.127V111.009L92.1675 115.974L100.767 111.009V101.127L92.1675 106.045Z" fill="#464CFF"/>
<path d="M100.817 111.13L92.0679 116.104V106.158L100.817 101.231V111.13Z" fill="#141BEB"/>
<path d="M92.1675 116.154C92.1359 116.154 92.1056 116.146 92.0777 116.13L83.478 111.165C83.4222 111.132 83.3882 111.072 83.3882 111.008V101.127C83.3882 101.063 83.4222 101.003 83.478 100.971C83.5339 100.938 83.6019 100.938 83.6578 100.971L92.1675 105.836L100.677 100.971C100.733 100.939 100.801 100.939 100.857 100.971C100.913 101.003 100.947 101.063 100.947 101.127V111.009C100.947 111.073 100.913 111.133 100.857 111.166L92.2574 116.131C92.2294 116.147 92.1979 116.155 92.1675 116.155V116.154ZM83.7488 110.905L92.1675 115.766L100.586 110.905V101.439L92.2574 106.202C92.2015 106.233 92.1335 106.233 92.0777 106.202L83.7488 101.439V110.906V110.905Z" fill="#141BEB"/>
<path d="M92.1707 116.154C92.0711 116.154 91.9897 116.072 91.9897 115.973V106.044C91.9897 105.944 92.0711 105.863 92.1707 105.863C92.2702 105.863 92.3516 105.944 92.3516 106.044V115.973C92.3516 116.072 92.2702 116.154 92.1707 116.154Z" fill="#141BEB"/>
<path d="M124.51 139.124C124.283 139.255 124.003 139.254 123.776 139.123L110.253 131.271C109.758 130.983 109.767 130.265 110.27 129.991L124.253 122.343C124.484 122.217 124.764 122.224 124.988 122.36L137.857 130.212C138.334 130.503 138.324 131.198 137.84 131.476L124.51 139.124Z" fill="url(#paint16_linear_2570_22981)"/>
<g style="mix-blend-mode:multiply">
<path d="M123.662 135.858L114.798 130.74L123.662 125.622L132.528 130.74L123.662 135.858Z" fill="#1228F3" fill-opacity="0.12"/>
</g>
<path d="M123.648 116.375L115.049 111.41L123.648 106.446L132.247 111.41L123.648 116.375Z" fill="#00EDBE"/>
<path d="M123.649 116.555C123.617 116.555 123.587 116.546 123.559 116.53L114.959 111.565C114.904 111.532 114.87 111.473 114.87 111.409C114.87 111.344 114.904 111.285 114.959 111.252L123.559 106.289C123.615 106.256 123.684 106.256 123.74 106.289L132.34 111.254C132.396 111.287 132.43 111.347 132.43 111.411C132.43 111.475 132.396 111.535 132.34 111.568L123.74 116.533C123.712 116.549 123.681 116.557 123.65 116.557L123.649 116.555ZM115.411 111.41L123.649 116.166L131.887 111.41L123.649 106.653L115.411 111.41Z" fill="#141BEB"/>
<path d="M123.649 116.327L115.049 111.409V121.291L123.649 126.257L132.249 121.291V111.409L123.649 116.327Z" fill="#464CFF"/>
<path d="M132.298 121.413L123.549 126.387V116.44L132.298 111.513V121.413Z" fill="#141BEB"/>
<path d="M123.649 126.436C123.617 126.436 123.587 126.428 123.559 126.412L114.959 121.447C114.904 121.414 114.87 121.355 114.87 121.29V111.41C114.87 111.345 114.904 111.286 114.959 111.253C115.015 111.22 115.083 111.22 115.139 111.253L123.649 116.119L132.159 111.253C132.215 111.221 132.283 111.221 132.338 111.253C132.394 111.286 132.428 111.345 132.428 111.41V121.291C132.428 121.356 132.394 121.415 132.338 121.448L123.739 126.413C123.711 126.429 123.679 126.438 123.649 126.438V126.436ZM115.23 121.187L123.649 126.048L132.068 121.187V111.722L123.739 116.484C123.683 116.516 123.615 116.516 123.559 116.484L115.23 111.722V121.188V121.187Z" fill="#141BEB"/>
<path d="M123.652 126.436C123.553 126.436 123.471 126.355 123.471 126.256V116.326C123.471 116.227 123.553 116.145 123.652 116.145C123.752 116.145 123.833 116.227 123.833 116.326V126.256C123.833 126.355 123.752 126.436 123.652 126.436Z" fill="#141BEB"/>
<path d="M126.282 112.91L126.373 113.069C126.377 113.067 126.381 113.065 126.385 113.063C126.403 113.052 126.425 113.039 126.447 113.026C126.494 112.997 126.539 112.968 126.583 112.938C126.66 112.888 126.732 112.834 126.799 112.78C126.826 112.759 126.852 112.737 126.874 112.718C126.879 112.714 126.883 112.71 126.887 112.707L126.887 112.707L126.89 112.705C127.039 112.575 127.165 112.436 127.267 112.291C127.294 112.254 127.318 112.216 127.34 112.182L127.34 112.181C127.498 111.92 127.581 111.643 127.581 111.361C127.581 110.71 127.15 110.099 126.373 109.652L126.331 109.628H126.329C125.557 109.197 124.567 108.987 123.586 108.987C122.588 108.987 121.579 109.205 120.8 109.652L120.8 109.652C120.022 110.099 119.593 110.711 119.592 111.361V111.361V111.361V111.361V111.361V111.361V111.361V111.361V111.361V111.361V111.361V111.361V111.361V111.361V111.361V111.361V111.361V111.361V111.361V111.361V111.361V111.361V111.361V111.361V111.361V111.361V111.361V111.361V111.361V111.361V111.361V111.361V111.361V111.361V111.361V111.361V111.361V111.361V111.361V111.361V111.361V111.361V111.361V111.361V111.361V111.361V111.361V111.361V111.361V111.361V111.361V111.361V111.361V111.361V111.361V111.361V111.361V111.361V111.361V111.361V111.361V111.361V111.361V111.361V111.361V111.361V111.361V111.361V111.361V111.361V111.361V111.361V111.361V111.361V111.361V111.361V111.361V111.361V111.361V111.361V111.361V111.361V111.361V111.361V111.361V111.361V111.361V111.361V111.361V111.361V111.361V111.362V111.362V111.362V111.362V111.362V111.362V111.362V111.362V111.362V111.362V111.362V111.362V111.362V111.362V111.362C119.592 111.363 119.592 111.364 119.592 111.365V111.414C119.592 111.431 119.594 111.445 119.595 111.451L119.595 111.451L119.595 111.454C119.597 111.488 119.601 111.522 119.606 111.556L119.606 111.556L119.606 111.558C119.608 111.574 119.611 111.596 119.616 111.619C119.622 111.656 119.631 111.693 119.639 111.726L119.639 111.726L119.64 111.73L119.64 111.732C119.644 111.746 119.649 111.765 119.655 111.784C119.666 111.82 119.679 111.859 119.693 111.898L119.693 111.898L119.694 111.9C119.697 111.907 119.7 111.915 119.702 111.92L119.703 111.92L119.708 111.933L119.708 111.933L119.708 111.935C119.726 111.979 119.746 112.024 119.769 112.069L119.769 112.069L119.771 112.072C119.773 112.075 119.774 112.079 119.776 112.082C119.789 112.106 119.804 112.134 119.821 112.163L119.821 112.163L119.825 112.168L119.834 112.182L119.834 112.183C119.837 112.189 119.842 112.196 119.847 112.204C119.864 112.231 119.884 112.262 119.906 112.292C120.073 112.527 120.302 112.745 120.59 112.938C120.635 112.968 120.681 112.997 120.726 113.026L120.726 113.026L120.728 113.027C120.741 113.035 120.754 113.042 120.765 113.049L120.766 113.049C120.778 113.056 120.788 113.062 120.797 113.067L120.797 113.067L120.8 113.069C120.801 113.07 120.802 113.07 120.803 113.071C120.815 113.077 120.832 113.088 120.852 113.097C121.623 113.526 122.609 113.735 123.587 113.735C124.564 113.735 125.551 113.526 126.322 113.097C126.342 113.088 126.359 113.077 126.371 113.071C126.372 113.07 126.373 113.07 126.374 113.069L126.282 112.91ZM126.282 112.91L126.279 112.911C126.265 112.92 126.252 112.927 126.238 112.933L126.351 112.87C126.332 112.881 126.313 112.892 126.294 112.903C126.29 112.905 126.286 112.908 126.282 112.91ZM119.596 111.456C119.596 111.456 119.596 111.456 119.596 111.456L119.596 111.456Z" fill="#00FFCC" stroke="#00EABB" stroke-width="0.367344"/>
<path d="M125.643 111.228C125.753 111.135 125.9 111.064 126.067 111.025L123.948 109.798C123.929 109.787 123.907 109.779 123.883 109.774C123.859 109.769 123.834 109.767 123.808 109.768C123.783 109.769 123.758 109.774 123.735 109.782C123.712 109.79 123.691 109.801 123.674 109.814L123.266 110.126C123.249 110.139 123.236 110.155 123.228 110.171C123.219 110.187 123.216 110.204 123.217 110.222C123.219 110.239 123.225 110.255 123.236 110.27C123.247 110.285 123.263 110.299 123.282 110.31L125.401 111.537C125.435 111.421 125.519 111.314 125.643 111.228" fill="#141BEB"/>
<path d="M122.271 110.447C122.161 110.54 122.013 110.611 121.846 110.649L123.965 111.876C123.984 111.887 124.006 111.896 124.03 111.901C124.054 111.906 124.08 111.908 124.105 111.906C124.131 111.905 124.156 111.9 124.179 111.892C124.202 111.885 124.223 111.874 124.24 111.861L124.647 111.548C124.664 111.535 124.677 111.52 124.686 111.504C124.694 111.487 124.698 111.47 124.696 111.453C124.695 111.436 124.688 111.419 124.677 111.404C124.666 111.389 124.651 111.376 124.632 111.365L122.513 110.138C122.479 110.254 122.394 110.361 122.27 110.446" fill="#141BEB"/>
<path d="M123.903 112.564C124.013 112.47 124.16 112.399 124.327 112.361L122.208 111.134C122.189 111.123 122.167 111.115 122.143 111.109C122.119 111.104 122.093 111.102 122.068 111.104C122.042 111.105 122.017 111.11 121.994 111.118C121.971 111.126 121.951 111.136 121.933 111.149L121.526 111.462C121.509 111.475 121.496 111.49 121.488 111.507C121.479 111.523 121.476 111.54 121.477 111.557C121.479 111.574 121.485 111.591 121.496 111.606C121.507 111.621 121.523 111.634 121.542 111.645L123.661 112.872C123.695 112.757 123.779 112.649 123.903 112.564" fill="#141BEB"/>
<path opacity="0.4" d="M114.936 66.5436H132.374L127.53 111.593C127.53 111.593 127.13 113.531 123.655 113.531C120.18 113.531 119.78 111.593 119.78 111.593L114.936 66.5436Z" fill="url(#paint17_linear_2570_22981)"/>
<defs>
<linearGradient id="paint0_linear_2570_22981" x1="129.955" y1="52.8385" x2="129.955" y2="77.0273" gradientUnits="userSpaceOnUse">
<stop stop-color="#C2C7FB"/>
<stop offset="1" stop-color="#93F1E0"/>
</linearGradient>
<linearGradient id="paint1_linear_2570_22981" x1="157.935" y1="69.2952" x2="157.935" y2="93.148" gradientUnits="userSpaceOnUse">
<stop stop-color="#C2C7FB"/>
<stop offset="1" stop-color="#93F1E0"/>
</linearGradient>
<linearGradient id="paint2_linear_2570_22981" x1="158.06" y1="30.4555" x2="158.06" y2="55.2977" gradientUnits="userSpaceOnUse">
<stop stop-color="white" stop-opacity="0"/>
<stop offset="1" stop-color="#00EDBE"/>
</linearGradient>
<linearGradient id="paint3_linear_2570_22981" x1="188.949" y1="86.9087" x2="188.949" y2="110.225" gradientUnits="userSpaceOnUse">
<stop stop-color="#C2C7FB"/>
<stop offset="1" stop-color="#93F1E0"/>
</linearGradient>
<linearGradient id="paint4_linear_2570_22981" x1="108.521" y1="65.4202" x2="108.521" y2="89.273" gradientUnits="userSpaceOnUse">
<stop stop-color="#C2C7FB"/>
<stop offset="1" stop-color="#93F1E0"/>
</linearGradient>
<linearGradient id="paint5_linear_2570_22981" x1="108.162" y1="26.5806" x2="108.162" y2="51.4228" gradientUnits="userSpaceOnUse">
<stop stop-color="white" stop-opacity="0"/>
<stop offset="1" stop-color="#00EDBE"/>
</linearGradient>
<linearGradient id="paint6_linear_2570_22981" x1="136.623" y1="81.8894" x2="136.623" y2="105.742" gradientUnits="userSpaceOnUse">
<stop stop-color="#C2C7FB"/>
<stop offset="1" stop-color="#93F1E0"/>
</linearGradient>
<linearGradient id="paint7_linear_2570_22981" x1="167.295" y1="99.3428" x2="167.295" y2="122.913" gradientUnits="userSpaceOnUse">
<stop stop-color="#C2C7FB"/>
<stop offset="1" stop-color="#93F1E0"/>
</linearGradient>
<linearGradient id="paint8_linear_2570_22981" x1="167.264" y1="60.4889" x2="167.264" y2="85.3311" gradientUnits="userSpaceOnUse">
<stop stop-color="white" stop-opacity="0"/>
<stop offset="1" stop-color="#00EDBE"/>
</linearGradient>
<linearGradient id="paint9_linear_2570_22981" x1="86.7244" y1="77.5301" x2="86.7244" y2="101.383" gradientUnits="userSpaceOnUse">
<stop stop-color="#C2C7FB"/>
<stop offset="1" stop-color="#93F1E0"/>
</linearGradient>
<linearGradient id="paint10_linear_2570_22981" x1="114.334" y1="93.9998" x2="114.334" y2="117.853" gradientUnits="userSpaceOnUse">
<stop stop-color="#C2C7FB"/>
<stop offset="1" stop-color="#93F1E0"/>
</linearGradient>
<linearGradient id="paint11_linear_2570_22981" x1="113.974" y1="51.5059" x2="113.974" y2="76.3481" gradientUnits="userSpaceOnUse">
<stop stop-color="white" stop-opacity="0"/>
<stop offset="1" stop-color="#00EDBE"/>
</linearGradient>
<linearGradient id="paint12_linear_2570_22981" x1="146.795" y1="110.47" x2="146.795" y2="134.322" gradientUnits="userSpaceOnUse">
<stop stop-color="#C2C7FB"/>
<stop offset="1" stop-color="#93F1E0"/>
</linearGradient>
<linearGradient id="paint13_linear_2570_22981" x1="63.9588" y1="90.1248" x2="63.9588" y2="113.978" gradientUnits="userSpaceOnUse">
<stop stop-color="#C2C7FB"/>
<stop offset="1" stop-color="#93F1E0"/>
</linearGradient>
<linearGradient id="paint14_linear_2570_22981" x1="63.5996" y1="51.2853" x2="63.5996" y2="76.1275" gradientUnits="userSpaceOnUse">
<stop stop-color="white" stop-opacity="0"/>
<stop offset="1" stop-color="#00EDBE"/>
</linearGradient>
<linearGradient id="paint15_linear_2570_22981" x1="92.5369" y1="106.11" x2="92.5369" y2="129.962" gradientUnits="userSpaceOnUse">
<stop stop-color="#C2C7FB"/>
<stop offset="1" stop-color="#93F1E0"/>
</linearGradient>
<linearGradient id="paint16_linear_2570_22981" x1="124.021" y1="123.064" x2="124.021" y2="146.917" gradientUnits="userSpaceOnUse">
<stop stop-color="#C2C7FB"/>
<stop offset="1" stop-color="#93F1E0"/>
</linearGradient>
<linearGradient id="paint17_linear_2570_22981" x1="123.662" y1="84.2243" x2="123.662" y2="109.066" gradientUnits="userSpaceOnUse">
<stop stop-color="white" stop-opacity="0"/>
<stop offset="1" stop-color="#00EDBE"/>
</linearGradient>
</defs>
</svg>
