<svg width="41" height="40" viewBox="0 0 41 40" fill="none" xmlns="http://www.w3.org/2000/svg">
<path d="M37 30C38.0609 30 39.0783 29.5786 39.8284 28.8284C40.5786 28.0783 41 27.0609 41 26V4C41 2.93913 40.5786 1.92172 39.8284 1.17157C39.0783 0.421427 38.0609 0 37 0H15.92C16.62 1.22 17 2.6 17 4H37V26H19V30H37ZM27 10V14H15V40H11V28H7V40H3V24H0V14C0 12.9391 0.421427 11.9217 1.17157 11.1716C1.92172 10.4214 2.93913 10 4 10H27ZM13 4C13 5.06087 12.5786 6.07828 11.8284 6.82843C11.0783 7.57857 10.0609 8 9 8C7.93913 8 6.92172 7.57857 6.17157 6.82843C5.42143 6.07828 5 5.06087 5 4C5 2.93913 5.42143 1.92172 6.17157 1.17157C6.92172 0.421427 7.93913 0 9 0C10.0609 0 11.0783 0.421427 11.8284 1.17157C12.5786 1.92172 13 2.93913 13 4Z" fill="#141BEB"/>
</svg>
