<svg width="29" height="36" viewBox="0 0 29 36" fill="none" xmlns="http://www.w3.org/2000/svg">
<path d="M27.625 0.9375H5.3125C3.92011 0.9375 2.58476 1.49062 1.60019 2.47519C0.615623 3.45976 0.0625 4.79511 0.0625 6.1875V33.75C0.0625 34.0981 0.200781 34.4319 0.446923 34.6781C0.693064 34.9242 1.0269 35.0625 1.375 35.0625H25C25.3481 35.0625 25.6819 34.9242 25.9281 34.6781C26.1742 34.4319 26.3125 34.0981 26.3125 33.75C26.3125 33.4019 26.1742 33.0681 25.9281 32.8219C25.6819 32.5758 25.3481 32.4375 25 32.4375H2.6875C2.6875 31.7413 2.96406 31.0736 3.45634 30.5813C3.94863 30.0891 4.61631 29.8125 5.3125 29.8125H27.625C27.9731 29.8125 28.3069 29.6742 28.5531 29.4281C28.7992 29.1819 28.9375 28.8481 28.9375 28.5V2.25C28.9375 1.9019 28.7992 1.56806 28.5531 1.32192C28.3069 1.07578 27.9731 0.9375 27.625 0.9375ZM13.1875 3.5625H21.0625V15.375L17.9109 13.0125C17.6837 12.8421 17.4073 12.75 17.1234 12.75C16.8394 12.75 16.563 12.8421 16.3359 13.0125L13.1875 15.375V3.5625ZM26.3125 27.1875H5.3125C4.39071 27.1862 3.48502 27.4291 2.6875 27.8913V6.1875C2.6875 5.49131 2.96406 4.82363 3.45634 4.33134C3.94863 3.83906 4.61631 3.5625 5.3125 3.5625H10.5625V18C10.5625 18.2437 10.6304 18.4827 10.7585 18.69C10.8867 18.8974 11.07 19.0649 11.288 19.1739C11.506 19.2829 11.7501 19.3291 11.9929 19.3072C12.2356 19.2853 12.4675 19.1962 12.6625 19.05L17.125 15.7031L21.5891 19.05C21.8159 19.2201 22.0916 19.3121 22.375 19.3125C22.7231 19.3125 23.0569 19.1742 23.3031 18.9281C23.5492 18.6819 23.6875 18.3481 23.6875 18V3.5625H26.3125V27.1875Z" fill="#1C1C1C"/>
</svg>
