<svg width="35" height="34" viewBox="0 0 35 34" fill="none" xmlns="http://www.w3.org/2000/svg">
<path d="M31.9375 8.125H26.6875V2.875C26.6875 2.17881 26.4109 1.51113 25.9187 1.01884C25.4264 0.526562 24.7587 0.25 24.0625 0.25H3.0625C2.36631 0.25 1.69863 0.526562 1.20634 1.01884C0.714062 1.51113 0.4375 2.17881 0.4375 2.875V23.875C0.438271 24.1219 0.508682 24.3636 0.640646 24.5723C0.772609 24.781 0.960771 24.9483 1.18351 25.0549C1.40626 25.1614 1.65455 25.203 1.89986 25.1748C2.14517 25.1466 2.37756 25.0498 2.57031 24.8955L8.3125 20.2656V25.1875C8.3125 25.8837 8.58906 26.5514 9.08135 27.0437C9.57363 27.5359 10.2413 27.8125 10.9375 27.8125H26.2921L32.4297 32.7705C32.6619 32.9583 32.9513 33.0613 33.25 33.0625C33.5981 33.0625 33.9319 32.9242 34.1781 32.6781C34.4242 32.4319 34.5625 32.0981 34.5625 31.75V10.75C34.5625 10.0538 34.2859 9.38613 33.7937 8.89385C33.3014 8.40156 32.6337 8.125 31.9375 8.125ZM7.41836 17.6045L3.0625 21.127V2.875H24.0625V17.3125H8.24359C7.9432 17.3125 7.65191 17.4156 7.41836 17.6045ZM31.9375 29.002L27.5816 25.4795C27.3494 25.2917 27.06 25.1887 26.7613 25.1875H10.9375V19.9375H24.0625C24.7587 19.9375 25.4264 19.6609 25.9187 19.1687C26.4109 18.6764 26.6875 18.0087 26.6875 17.3125V10.75H31.9375V29.002Z" fill="#1C1C1C"/>
</svg>
