<svg width="43" height="43" viewBox="0 0 43 43" fill="none" xmlns="http://www.w3.org/2000/svg">
<path d="M24.625 26.3184C25.1208 26.3184 25.5513 26.1364 25.9165 25.7724C26.2817 25.4084 26.4637 24.9779 26.4625 24.4809C26.4613 23.9839 26.2793 23.5539 25.9165 23.1911C25.5537 22.8283 25.1232 22.6457 24.625 22.6434C24.1268 22.641 23.6969 22.8236 23.3352 23.1911C22.9736 23.5586 22.791 23.9885 22.7875 24.4809C22.784 24.9732 22.9666 25.4037 23.3352 25.7724C23.7039 26.141 24.1338 26.323 24.625 26.3184ZM23.3125 20.7184H25.9375C25.9375 19.8725 26.025 19.253 26.2 18.8599C26.375 18.4667 26.7833 17.9487 27.425 17.3059C28.3 16.4309 28.8833 15.7239 29.175 15.1849C29.4667 14.6459 29.6125 14.0112 29.6125 13.2809C29.6125 11.9684 29.1528 10.8968 28.2335 10.0661C27.3142 9.23544 26.1113 8.81953 24.625 8.81836C23.4292 8.81836 22.3868 9.15378 21.4978 9.82461C20.6088 10.4954 19.9887 11.385 19.6375 12.4934L22 13.4559C22.2625 12.7267 22.6201 12.1801 23.0728 11.8161C23.5254 11.4521 24.0428 11.2695 24.625 11.2684C25.325 11.2684 25.8938 11.4655 26.3313 11.8599C26.7688 12.2542 26.9875 12.7862 26.9875 13.4559C26.9875 13.8642 26.8708 14.2509 26.6375 14.6161C26.4042 14.9813 25.9958 15.4404 25.4125 15.9934C24.45 16.8392 23.8597 17.503 23.6415 17.9849C23.4233 18.4667 23.3137 19.3779 23.3125 20.7184ZM14.125 31.5684C13.1625 31.5684 12.3388 31.2259 11.654 30.5411C10.9692 29.8563 10.6262 29.032 10.625 28.0684V7.06836C10.625 6.10586 10.968 5.28219 11.654 4.59736C12.34 3.91253 13.1637 3.56953 14.125 3.56836H35.125C36.0875 3.56836 36.9118 3.91136 37.5978 4.59736C38.2838 5.28336 38.6262 6.10703 38.625 7.06836V28.0684C38.625 29.0309 38.2826 29.8551 37.5978 30.5411C36.9129 31.2271 36.0887 31.5695 35.125 31.5684H14.125ZM14.125 28.0684H35.125V7.06836H14.125V28.0684ZM7.125 38.5684C6.1625 38.5684 5.33883 38.2259 4.654 37.5411C3.96917 36.8563 3.62617 36.032 3.625 35.0684V10.5684H7.125V35.0684H31.625V38.5684H7.125Z" fill="#1C1C1C"/>
</svg>
