<svg width="43" height="28" viewBox="0 0 43 28" fill="none" xmlns="http://www.w3.org/2000/svg">
<path d="M19.7362 18.9087C21.4953 17.7377 22.8308 16.0316 23.5452 14.0427C24.2597 12.0539 24.3151 9.88798 23.7034 7.86521C23.0917 5.84244 21.8452 4.07023 20.1484 2.81065C18.4515 1.55107 16.3944 0.871002 14.2811 0.871002C12.1679 0.871002 10.1107 1.55107 8.41387 2.81065C6.71702 4.07023 5.47057 5.84244 4.85883 7.86521C4.24709 9.88798 4.30255 12.0539 5.017 14.0427C5.73145 16.0316 7.06696 17.7377 8.82604 18.9087C5.64403 20.0815 2.92653 22.2517 1.07901 25.0955C0.981909 25.2399 0.914464 25.402 0.880593 25.5726C0.846722 25.7433 0.847102 25.9189 0.881709 26.0894C0.916316 26.2598 0.984461 26.4217 1.08218 26.5656C1.1799 26.7095 1.30525 26.8325 1.45094 26.9276C1.59663 27.0226 1.75976 27.0877 1.93083 27.1191C2.10191 27.1506 2.27753 27.1477 2.44748 27.1106C2.61743 27.0736 2.77832 27.0031 2.9208 26.9034C3.06329 26.8036 3.18452 26.6765 3.27745 26.5295C4.46918 24.6965 6.09991 23.1903 8.02154 22.1476C9.94317 21.1049 12.0948 20.5588 14.2811 20.5588C16.4674 20.5588 18.6191 21.1049 20.5407 22.1476C22.4623 23.1903 24.0931 24.6965 25.2848 26.5295C25.4773 26.8156 25.7747 27.0144 26.1126 27.083C26.4506 27.1516 26.8019 27.0845 27.0908 26.8961C27.3796 26.7077 27.5827 26.4132 27.6561 26.0763C27.7296 25.7393 27.6675 25.3871 27.4832 25.0955C25.6357 22.2517 22.9182 20.0815 19.7362 18.9087ZM7.06237 10.7187C7.06237 9.29101 7.48574 7.89534 8.27895 6.70822C9.07215 5.52111 10.1996 4.59586 11.5186 4.04949C12.8377 3.50312 14.2891 3.36017 15.6894 3.6387C17.0897 3.91724 18.376 4.60476 19.3855 5.61432C20.3951 6.62388 21.0826 7.91014 21.3612 9.31044C21.6397 10.7107 21.4967 12.1622 20.9504 13.4812C20.404 14.8003 19.4788 15.9277 18.2916 16.7209C17.1045 17.5141 15.7089 17.9375 14.2811 17.9375C12.3673 17.9353 10.5324 17.1741 9.17909 15.8208C7.82578 14.4675 7.06454 12.6326 7.06237 10.7187ZM41.5385 26.9117C41.2469 27.1018 40.8918 27.1684 40.5512 27.0967C40.2106 27.025 39.9125 26.821 39.7223 26.5295C38.532 24.6954 36.9015 23.1886 34.9794 22.1463C33.0574 21.1041 30.905 20.5596 28.7186 20.5625C28.3705 20.5625 28.0367 20.4242 27.7905 20.1781C27.5444 19.9319 27.4061 19.5981 27.4061 19.25C27.4061 18.9019 27.5444 18.5681 27.7905 18.3219C28.0367 18.0758 28.3705 17.9375 28.7186 17.9375C29.7817 17.9365 30.8314 17.7007 31.7928 17.247C32.7542 16.7933 33.6035 16.1328 34.28 15.3128C34.9566 14.4928 35.4437 13.5335 35.7065 12.5034C35.9693 11.4733 36.0014 10.3979 35.8004 9.35399C35.5994 8.31009 35.1703 7.32346 34.5438 6.4646C33.9174 5.60574 33.1089 4.89585 32.1763 4.38566C31.2436 3.87547 30.2098 3.57756 29.1487 3.51323C28.0875 3.4489 27.0253 3.61973 26.0378 4.01351C25.8768 4.08311 25.7035 4.11973 25.5281 4.12122C25.3527 4.1227 25.1788 4.08901 25.0167 4.02214C24.8545 3.95527 24.7074 3.85658 24.584 3.7319C24.4607 3.60721 24.3636 3.45907 24.2984 3.29621C24.2333 3.13336 24.2014 2.9591 24.2048 2.78373C24.2081 2.60836 24.2466 2.43544 24.3179 2.27519C24.3892 2.11494 24.4919 1.9706 24.6199 1.85072C24.748 1.73083 24.8987 1.63782 25.0633 1.57718C27.3232 0.675908 29.8368 0.643475 32.1192 1.48614C34.4016 2.32881 36.2911 3.98686 37.4231 6.14045C38.5552 8.29403 38.8495 10.7905 38.2495 13.1484C37.6494 15.5062 36.1975 17.5583 34.1737 18.9087C37.3557 20.0815 40.0732 22.2517 41.9207 25.0955C42.1108 25.3871 42.1774 25.7422 42.1057 26.0828C42.034 26.4234 41.83 26.7215 41.5385 26.9117Z" fill="#1C1C1C"/>
</svg>
