<svg width="32" height="34" viewBox="0 0 32 34" fill="none" xmlns="http://www.w3.org/2000/svg">
<path d="M31.5051 28.9184L26.0598 3.02931C25.9894 2.69075 25.8528 2.36944 25.6578 2.08385C25.4628 1.79825 25.2134 1.55399 24.9237 1.36511C24.634 1.17622 24.3099 1.04643 23.97 0.98318C23.63 0.919935 23.2809 0.924486 22.9427 0.996571L15.2629 2.64704C14.5836 2.79578 13.9905 3.20671 13.6126 3.79046C13.2347 4.37421 13.1026 5.08356 13.2449 5.76423L18.6902 31.6533C18.8115 32.2439 19.1325 32.7748 19.5992 33.1567C20.0659 33.5385 20.6498 33.748 21.2528 33.75C21.4392 33.7498 21.6251 33.73 21.8073 33.6909L29.4871 32.0405C30.1672 31.8914 30.7609 31.4796 31.1389 30.8949C31.5168 30.3101 31.6485 29.5997 31.5051 28.9184ZM15.8125 5.22774C15.8125 5.2179 15.8125 5.21298 15.8125 5.21298L23.4906 3.57235L24.037 6.17602L16.3588 7.82813L15.8125 5.22774ZM16.8986 10.3908L24.58 8.74196L25.128 11.3506L17.4531 13.001L16.8986 10.3908ZM17.988 15.5702L25.6694 13.9198L27.8514 24.2951L20.17 25.9456L17.988 15.5702ZM28.9375 29.4745L21.2594 31.1152L20.713 28.5115L28.3912 26.8594L28.9375 29.4598C28.9375 29.4696 28.9375 29.4745 28.9375 29.4745ZM10.5625 2.25001H2.6875C1.99131 2.25001 1.32363 2.52657 0.831345 3.01885C0.339062 3.51114 0.0625 4.17882 0.0625 4.87501V31.125C0.0625 31.8212 0.339062 32.4889 0.831345 32.9812C1.32363 33.4734 1.99131 33.75 2.6875 33.75H10.5625C11.2587 33.75 11.9264 33.4734 12.4187 32.9812C12.9109 32.4889 13.1875 31.8212 13.1875 31.125V4.87501C13.1875 4.17882 12.9109 3.51114 12.4187 3.01885C11.9264 2.52657 11.2587 2.25001 10.5625 2.25001ZM2.6875 4.87501H10.5625V7.50001H2.6875V4.87501ZM2.6875 10.125H10.5625V25.875H2.6875V10.125ZM10.5625 31.125H2.6875V28.5H10.5625V31.125Z" fill="#1C1C1C"/>
</svg>
