<svg width="119" height="68" viewBox="0 0 119 68" fill="none" xmlns="http://www.w3.org/2000/svg">
<g clip-path="url(#clip0_483_11747)">
<mask id="mask0_483_11747" style="mask-type:luminance" maskUnits="userSpaceOnUse" x="0" y="0" width="119" height="68">
<path d="M119 0H0V68H119V0Z" fill="white"/>
</mask>
<g mask="url(#mask0_483_11747)">
<g opacity="0.12">
<path d="M89.4766 34.7402V0.760235M59.9766 0.259766L89.4766 17.3798L118.977 0.259766V34.2598L89.4766 17.1398L59.9766 34.2598M29.5 34.7402V0.760235M0 0.259766L29.5 17.3798L59 0.259766V34.2598L29.5 17.1398L0 34.2598M89.4766 0.480469V-33.4995M59.9766 -34L89.4766 -16.88L118.977 -34V0L89.4766 -17.12L59.9766 0M29.5 0.480469V-33.4995M0 -34L29.5 -16.88L59 -34V0L29.5 -17.12L0 0M89.4766 102.74V68.7602M59.9766 68.2598L89.4766 85.3798L118.977 68.2598V102.26L89.4766 85.1398L59.9766 102.26M29.5 102.74V68.7602M0 68.2598L29.5 85.3798L59 68.2598V102.26L29.5 85.1398L0 102.26M89.4766 68.4805V34.5005M59.9766 34L89.4766 51.12L118.977 34V68L89.4766 50.88L59.9766 68M29.5 68.4805V34.5005M0 34L29.5 51.12L59 34V68L29.5 50.88L0 68" stroke="#1227F2" stroke-width="1.3"/>
</g>
</g>
</g>
<defs>
<clipPath id="clip0_483_11747">
<rect width="119" height="68" fill="white"/>
</clipPath>
</defs>
</svg>
