<svg width="10" height="13" viewBox="0 0 10 13" fill="none" xmlns="http://www.w3.org/2000/svg">
<path d="M8.00065 6.025C8.80898 5.46667 9.37565 4.55 9.37565 3.7C9.37565 1.81667 7.91732 0.366669 6.04232 0.366669H0.833984V12.0333H6.70065C8.44232 12.0333 9.79232 10.6167 9.79232 8.875C9.79232 7.60834 9.07565 6.525 8.00065 6.025ZM3.33398 2.45H5.83398C6.52565 2.45 7.08398 3.00834 7.08398 3.7C7.08398 4.39167 6.52565 4.95 5.83398 4.95H3.33398V2.45ZM6.25065 9.95H3.33398V7.45H6.25065C6.94232 7.45 7.50065 8.00834 7.50065 8.7C7.50065 9.39167 6.94232 9.95 6.25065 9.95Z" fill="#111827"/>
</svg>
