<svg width="16" height="14" viewBox="0 0 16 14" fill="none" xmlns="http://www.w3.org/2000/svg">
<path d="M1.33398 5.95C0.642318 5.95 0.0839844 6.50833 0.0839844 7.2C0.0839844 7.89166 0.642318 8.45 1.33398 8.45C2.02565 8.45 2.58398 7.89166 2.58398 7.2C2.58398 6.50833 2.02565 5.95 1.33398 5.95ZM1.33398 0.949997C0.642318 0.949997 0.0839844 1.50833 0.0839844 2.2C0.0839844 2.89166 0.642318 3.45 1.33398 3.45C2.02565 3.45 2.58398 2.89166 2.58398 2.2C2.58398 1.50833 2.02565 0.949997 1.33398 0.949997ZM1.33398 10.95C0.642318 10.95 0.0839844 11.5167 0.0839844 12.2C0.0839844 12.8833 0.650651 13.45 1.33398 13.45C2.01732 13.45 2.58398 12.8833 2.58398 12.2C2.58398 11.5167 2.02565 10.95 1.33398 10.95ZM3.83398 13.0333H15.5007V11.3667H3.83398V13.0333ZM3.83398 8.03333H15.5007V6.36666H3.83398V8.03333ZM3.83398 1.36666V3.03333H15.5007V1.36666H3.83398Z" fill="#111827"/>
</svg>
