<svg width="18" height="18" viewBox="0 0 18 18" fill="none" xmlns="http://www.w3.org/2000/svg">
<path fill-rule="evenodd" clip-rule="evenodd" d="M9 0.25C4.16751 0.25 0.25 4.16751 0.25 9C0.25 13.8325 4.16751 17.75 9 17.75C13.8325 17.75 17.75 13.8325 17.75 9C17.75 6.67936 16.8281 4.45376 15.1872 2.81282C13.5462 1.17187 11.3206 0.25 9 0.25ZM9 16C5.13401 16 2 12.866 2 8.99999C2 5.134 5.13401 1.99999 9 1.99999C12.866 1.99999 16 5.134 16 8.99999C16 10.8565 15.2625 12.637 13.9497 13.9497C12.637 15.2625 10.8565 16 9 16ZM9.875 4.18751V4.62501C10.8415 4.62501 11.625 5.40851 11.625 6.37501V7.03126C11.625 7.27288 11.4291 7.46876 11.1875 7.46876H10.5312C10.2896 7.46876 10.0937 7.27288 10.0937 7.03126V6.15626H7.90625V6.92626C7.90261 6.99144 7.93225 7.05403 7.985 7.09251L10.9862 9.56876C11.3895 9.90019 11.6237 10.3943 11.625 10.9163V11.625C11.625 12.5915 10.8415 13.375 9.875 13.375V13.8125C9.875 14.0541 9.67912 14.25 9.4375 14.25H8.5625C8.32087 14.25 8.125 14.0541 8.125 13.8125V13.375C7.1585 13.375 6.375 12.5915 6.375 11.625V10.9688C6.375 10.7271 6.57087 10.5313 6.8125 10.5313H7.46875C7.71037 10.5313 7.90625 10.7271 7.90625 10.9688V11.8438H10.0937V11.0738C10.0974 11.0086 10.0677 10.946 10.015 10.9075L7.01375 8.43126C6.61053 8.09982 6.37631 7.6057 6.375 7.08376V6.37501C6.375 5.40851 7.1585 4.62501 8.125 4.62501V4.18751C8.125 3.94588 8.32087 3.75001 8.5625 3.75001H9.4375C9.67912 3.75001 9.875 3.94588 9.875 4.18751Z" fill="#00EDBE"/>
</svg>
