<svg width="30" height="30" viewBox="0 0 30 30" fill="none" xmlns="http://www.w3.org/2000/svg">
<path fill-rule="evenodd" clip-rule="evenodd" d="M22.9999 0.333496C23.5049 0.333496 23.9666 0.618832 24.1925 1.07054L25.0162 2.71799C25.3929 3.47128 25.5076 3.68806 25.6471 3.86897C25.787 4.05044 25.9496 4.21312 26.1311 4.35299C26.312 4.49245 26.5288 4.60723 27.2821 4.98387L28.9295 5.80759C29.3812 6.03345 29.6666 6.49513 29.6666 7.00016C29.6666 7.50519 29.3812 7.96688 28.9295 8.19273L27.2821 9.01645C26.5288 9.3931 26.312 9.50787 26.1311 9.64733C25.9496 9.78721 25.787 9.94989 25.6471 10.1314C25.5076 10.3123 25.3929 10.529 25.0162 11.2823L24.1925 12.9298C23.9666 13.3815 23.5049 13.6668 22.9999 13.6668C22.4949 13.6668 22.0332 13.3815 21.8074 12.9298L20.9836 11.2823C20.607 10.529 20.4922 10.3123 20.3528 10.1314C20.2129 9.94989 20.0502 9.78721 19.8687 9.64733C19.6878 9.50787 19.471 9.3931 18.7177 9.01645L17.0703 8.19273C16.6186 7.96688 16.3333 7.50519 16.3333 7.00016C16.3333 6.49513 16.6186 6.03345 17.0703 5.80759L18.7177 4.98387C19.471 4.60723 19.6878 4.49245 19.8687 4.35299C20.0502 4.21312 20.2129 4.05044 20.3528 3.86897C20.4922 3.68806 20.607 3.47128 20.9836 2.71799L21.8073 1.07054C22.0332 0.618833 22.4949 0.333496 22.9999 0.333496ZM22.9999 4.63736C22.8287 4.96063 22.6635 5.23922 22.4648 5.49699C22.185 5.85991 21.8597 6.18527 21.4967 6.46503C21.239 6.66372 20.9604 6.82896 20.6371 7.00016C20.9604 7.17137 21.239 7.3366 21.4967 7.5353C21.8597 7.81505 22.185 8.14041 22.4648 8.50334C22.6635 8.76111 22.8287 9.03969 22.9999 9.36297C23.1711 9.03969 23.3364 8.76111 23.5351 8.50334C23.8148 8.14041 24.1402 7.81505 24.5031 7.5353C24.7609 7.3366 25.0394 7.17137 25.3627 7.00016C25.0394 6.82896 24.7609 6.66372 24.5031 6.46503C24.1402 6.18527 23.8148 5.85991 23.5351 5.49699C23.3364 5.23922 23.1711 4.96063 22.9999 4.63736Z" fill="#181B1F"/>
<path d="M13.8088 4.1586C14.3548 3.84743 14.6093 3.19732 14.4199 2.59818C14.2304 1.99904 13.6483 1.61352 13.0227 1.67283C5.90243 2.34794 0.333252 8.34194 0.333252 15.6383C0.333252 23.3861 6.6141 29.6669 14.3619 29.6669C21.6579 29.6669 27.6517 24.0983 28.3273 16.9786C28.3867 16.353 28.0012 15.7709 27.4021 15.5814C26.8029 15.3918 26.1528 15.6464 25.8416 16.1923C24.3211 18.8595 21.4544 20.6529 18.1705 20.6529C13.2977 20.6529 9.34758 16.7027 9.34758 11.83C9.34758 8.54587 11.1413 5.67902 13.8088 4.1586Z" fill="#181B1F"/>
</svg>
