<svg width="18" height="18" viewBox="0 0 18 18" fill="none" xmlns="http://www.w3.org/2000/svg">
<path d="M9.51842 9.87504L7.50545 11.8788C7.42342 11.9601 7.35831 12.0569 7.31388 12.1635C7.26944 12.2701 7.24657 12.3845 7.24657 12.5C7.24657 12.6155 7.26944 12.7299 7.31388 12.8365C7.35831 12.9432 7.42342 13.0399 7.50545 13.1213C7.58681 13.2033 7.68361 13.2684 7.79027 13.3128C7.89692 13.3572 8.01131 13.3801 8.12685 13.3801C8.24239 13.3801 8.35678 13.3572 8.46343 13.3128C8.57008 13.2684 8.66688 13.2033 8.74824 13.1213L12.2491 9.62129C12.3287 9.53808 12.3912 9.43995 12.4329 9.33254C12.5204 9.11951 12.5204 8.88057 12.4329 8.66755C12.3912 8.56014 12.3287 8.46201 12.2491 8.3788L8.74824 4.87881C8.66664 4.79723 8.56977 4.73252 8.46315 4.68836C8.35653 4.64421 8.24225 4.62148 8.12685 4.62148C8.01144 4.62148 7.89717 4.64421 7.79055 4.68836C7.68393 4.73252 7.58706 4.79723 7.50545 4.87881C7.42385 4.9604 7.35912 5.05725 7.31496 5.16384C7.27079 5.27044 7.24806 5.38468 7.24806 5.50006C7.24806 5.61544 7.27079 5.72968 7.31496 5.83628C7.35912 5.94287 7.42385 6.03972 7.50545 6.12131L9.51842 8.12505H1.12521C0.893086 8.12505 0.670475 8.21724 0.506342 8.38133C0.342209 8.54542 0.25 8.76798 0.25 9.00004C0.25 9.23211 0.342209 9.45467 0.506342 9.61876C0.670475 9.78285 0.893086 9.87504 1.12521 9.87504H9.51842ZM9.00205 0.250087C7.36637 0.242786 5.76138 0.693896 4.36913 1.55225C2.97687 2.4106 1.85307 3.64184 1.12521 5.10631C1.02075 5.31517 1.00356 5.55696 1.07742 5.77848C1.15128 6.00001 1.31014 6.18313 1.51905 6.28756C1.72795 6.39198 1.9698 6.40917 2.19138 6.33533C2.41296 6.26148 2.59612 6.10267 2.70058 5.89381C3.25387 4.77672 4.09551 3.82761 5.1385 3.14456C6.1815 2.46151 7.38802 2.06931 8.63338 2.00847C9.87874 1.94764 11.1178 2.22038 12.2224 2.79852C13.327 3.37666 14.2572 4.23922 14.9168 5.29706C15.5764 6.3549 15.9415 7.56964 15.9743 8.81575C16.0071 10.0619 15.7065 11.2941 15.1036 12.3852C14.5006 13.4763 13.6171 14.3867 12.5445 15.0221C11.4718 15.6576 10.2489 15.9952 9.00205 16C7.69702 16.0057 6.41683 15.6433 5.30842 14.9546C4.2 14.2659 3.30828 13.2787 2.73558 12.1063C2.63113 11.8974 2.44797 11.7386 2.22639 11.6648C2.00481 11.5909 1.76296 11.6081 1.55406 11.7125C1.34515 11.817 1.18629 12.0001 1.11243 12.2216C1.03857 12.4431 1.05576 12.6849 1.16021 12.8938C1.8541 14.2898 2.90845 15.4752 4.21422 16.3273C5.51998 17.1794 7.02973 17.6672 8.58731 17.7404C10.1449 17.8135 11.6937 17.4693 13.0736 16.7433C14.4535 16.0174 15.6144 14.936 16.4361 13.6111C17.2578 12.2862 17.7106 10.7659 17.7475 9.20742C17.7845 7.64893 17.4043 6.10888 16.6463 4.74654C15.8883 3.38421 14.78 2.24907 13.4361 1.45855C12.0921 0.668024 10.5614 0.250819 9.00205 0.250087Z" fill="#00EDBE"/>
</svg>
