<svg width="21" height="21" viewBox="0 0 21 21" fill="none" xmlns="http://www.w3.org/2000/svg">
<path d="M9.99648 8.29H11.6631V6.62333H9.99648V8.29ZM10.8298 17.4567C7.15482 17.4567 4.16315 14.465 4.16315 10.79C4.16315 7.115 7.15482 4.12333 10.8298 4.12333C14.5048 4.12333 17.4965 7.115 17.4965 10.79C17.4965 14.465 14.5048 17.4567 10.8298 17.4567ZM10.8298 2.45667C8.61987 2.45761 6.50061 3.33546 4.93732 4.8975C3.57384 6.26089 2.72529 8.05487 2.53626 9.97377C2.34722 11.8927 2.82939 13.8177 3.90062 15.421C4.97185 17.0242 6.56584 18.2064 8.411 18.7661C10.2562 19.3259 12.2383 19.2285 14.0197 18.4906C15.8011 17.7527 17.2715 16.4199 18.1804 14.7194C19.0893 13.0188 19.3805 11.0558 19.0042 9.16464C18.628 7.27352 17.6077 5.57136 16.1171 4.3482C14.6266 3.12504 12.758 2.45656 10.8298 2.45667ZM9.99648 14.9567H11.6631V9.95667H9.99648V14.9567Z" fill="#111827"/>
</svg>
