<svg width="30" height="30" viewBox="0 0 30 30" fill="none" xmlns="http://www.w3.org/2000/svg">
<path d="M16.3333 1.66671C16.3333 0.930328 15.7363 0.333374 14.9999 0.333374C14.2635 0.333374 13.6666 0.930328 13.6666 1.66671V4.33337C13.6666 5.06975 14.2635 5.66671 14.9999 5.66671C15.7363 5.66671 16.3333 5.06975 16.3333 4.33337V1.66671Z" fill="#F1F5F9"/>
<path d="M16.3333 25.6667C16.3333 24.9303 15.7363 24.3334 14.9999 24.3334C14.2635 24.3334 13.6666 24.9303 13.6666 25.6667V28.3334C13.6666 29.0698 14.2635 29.6667 14.9999 29.6667C15.7363 29.6667 16.3333 29.0698 16.3333 28.3334V25.6667Z" fill="#F1F5F9"/>
<path d="M0.333252 15C0.333252 14.2637 0.930206 13.6667 1.66659 13.6667H4.33325C5.06963 13.6667 5.66658 14.2637 5.66658 15C5.66658 15.7364 5.06963 16.3334 4.33325 16.3334H1.66659C0.930205 16.3334 0.333252 15.7364 0.333252 15Z" fill="#F1F5F9"/>
<path d="M6.47593 4.59043C5.95523 4.06974 5.11101 4.06974 4.59031 4.59043C4.06961 5.11113 4.06961 5.95535 4.59031 6.47605L6.47593 8.36167C6.99663 8.88237 7.84085 8.88237 8.36155 8.36167C8.88225 7.84097 8.88225 6.99675 8.36155 6.47605L6.47593 4.59043Z" fill="#F1F5F9"/>
<path d="M25.4096 4.59043C25.9303 5.11113 25.9303 5.95535 25.4096 6.47605L23.5239 8.36167C23.0032 8.88237 22.159 8.88237 21.6383 8.36167C21.1176 7.84097 21.1176 6.99675 21.6383 6.47605L23.5239 4.59043C24.0446 4.06974 24.8889 4.06974 25.4096 4.59043Z" fill="#F1F5F9"/>
<path d="M8.36155 23.5294C8.88225 23.0087 8.88225 22.1645 8.36155 21.6438C7.84085 21.1231 6.99663 21.1231 6.47593 21.6438L4.59031 23.5294C4.06961 24.0501 4.06961 24.8944 4.59031 25.4151C5.11101 25.9358 5.95523 25.9358 6.47593 25.4151L8.36155 23.5294Z" fill="#F1F5F9"/>
<path d="M21.6383 21.6438C22.159 21.1231 23.0032 21.1231 23.5239 21.6438L25.4096 23.5294C25.9303 24.0501 25.9303 24.8944 25.4096 25.4151C24.8889 25.9358 24.0446 25.9358 23.5239 25.4151L21.6383 23.5294C21.1176 23.0087 21.1176 22.1645 21.6383 21.6438Z" fill="#F1F5F9"/>
<path d="M25.6666 13.6667C24.9302 13.6667 24.3333 14.2637 24.3333 15C24.3333 15.7364 24.9302 16.3334 25.6666 16.3334H28.3333C29.0696 16.3334 29.6666 15.7364 29.6666 15C29.6666 14.2637 29.0696 13.6667 28.3333 13.6667H25.6666Z" fill="#F1F5F9"/>
<path d="M14.9999 7.00004C10.5816 7.00004 6.99992 10.5818 6.99992 15C6.99992 19.4183 10.5816 23 14.9999 23C19.4182 23 22.9999 19.4183 22.9999 15C22.9999 10.5818 19.4182 7.00004 14.9999 7.00004Z" fill="#F1F5F9"/>
</svg>
