<svg width="12" height="12" viewBox="0 0 12 12" fill="none" xmlns="http://www.w3.org/2000/svg">
<path d="M5.5 1L7 2.5M7 2.5L5.5 4M7 2.5H3.4C2.55992 2.5 2.13988 2.5 1.81901 2.66349C1.53677 2.8073 1.3073 3.03677 1.16349 3.31901C1 3.63988 1 4.05992 1 4.9V7.75C1 7.98221 1 8.09832 1.01283 8.19579C1.10145 8.86889 1.63111 9.39855 2.30421 9.48717C2.40168 9.5 2.51779 9.5 2.75 9.5M5 9.5H8.6C9.44008 9.5 9.86012 9.5 10.181 9.33651C10.4632 9.1927 10.6927 8.96323 10.8365 8.68099C11 8.36012 11 7.94008 11 7.1V4.25C11 4.01779 11 3.90168 10.9872 3.80421C10.8986 3.13111 10.3689 2.60145 9.69579 2.51283C9.59832 2.5 9.48221 2.5 9.25 2.5M5 9.5L6.5 11M5 9.5L6.5 8" stroke="#A4AEB4" stroke-linecap="round" stroke-linejoin="round"/>
</svg>
